<svg width="24" height="24" viewBox="0 0 24 24" fill="none" xmlns="http://www.w3.org/2000/svg">
<path fill-rule="evenodd" clip-rule="evenodd" d="M1.25 9.25V19.75C1.25 20.214 1.434 20.659 1.763 20.987C2.091 21.316 2.536 21.5 3 21.5H21C21.464 21.5 21.909 21.316 22.237 20.987C22.566 20.659 22.75 20.214 22.75 19.75C22.75 16.952 22.75 9.25 22.75 9.25C22.75 8.836 22.414 8.5 22 8.5C21.586 8.5 21.25 8.836 21.25 9.25V19.75C21.25 19.816 21.224 19.88 21.177 19.927C21.13 19.974 21.066 20 21 20H3C2.934 20 2.87 19.974 2.823 19.927C2.776 19.88 2.75 19.816 2.75 19.75V9.25C2.75 8.836 2.414 8.5 2 8.5C1.586 8.5 1.25 8.836 1.25 9.25Z" fill="#009900"/>
<path fill-rule="evenodd" clip-rule="evenodd" d="M22.75 9.25V7.75C22.75 6.783 21.966 6 21 6C17.586 6 6.414 6 3 6C2.034 6 1.25 6.783 1.25 7.75V9.25C1.25 11.321 2.929 13 5 13H19C21.071 13 22.75 11.321 22.75 9.25ZM21.25 7.75V9.25C21.25 10.493 20.243 11.5 19 11.5C15.224 11.5 8.776 11.5 5 11.5C3.757 11.5 2.75 10.493 2.75 9.25V7.75C2.75 7.612 2.862 7.5 3 7.5H21C21.138 7.5 21.25 7.612 21.25 7.75Z" fill="#009900"/>
<path fill-rule="evenodd" clip-rule="evenodd" d="M18.25 5.25C18.25 4.521 17.96 3.821 17.445 3.305C16.929 2.79 16.229 2.5 15.5 2.5C13.514 2.5 10.486 2.5 8.5 2.5C7.771 2.5 7.071 2.79 6.555 3.305C6.04 3.821 5.75 4.521 5.75 5.25V6.75C5.75 7.164 6.086 7.5 6.5 7.5H17.5C17.914 7.5 18.25 7.164 18.25 6.75V5.25ZM16.75 5.25V6H7.25V5.25C7.25 4.918 7.382 4.601 7.616 4.366C7.851 4.132 8.168 4 8.5 4H15.5C15.832 4 16.149 4.132 16.384 4.366C16.618 4.601 16.75 4.918 16.75 5.25Z" fill="#009900"/>
<path fill-rule="evenodd" clip-rule="evenodd" d="M16.25 11.25V13.75C16.25 14.164 16.586 14.5 17 14.5C17.414 14.5 17.75 14.164 17.75 13.75V11.25C17.75 10.836 17.414 10.5 17 10.5C16.586 10.5 16.25 10.836 16.25 11.25Z" fill="#009900"/>
<path fill-rule="evenodd" clip-rule="evenodd" d="M6.25 11.25V13.75C6.25 14.164 6.586 14.5 7 14.5C7.414 14.5 7.75 14.164 7.75 13.75V11.25C7.75 10.836 7.414 10.5 7 10.5C6.586 10.5 6.25 10.836 6.25 11.25Z" fill="#009900"/>
</svg>
