<svg width="30" height="22" viewBox="0 0 30 22" fill="none" xmlns="http://www.w3.org/2000/svg">
<path fill-rule="evenodd" clip-rule="evenodd" d="M29.3346 4.33464C29.3346 3.36264 28.948 2.4293 28.2613 1.7413C27.5733 1.05464 26.64 0.667969 25.668 0.667969C20.5586 0.667969 9.44397 0.667969 4.33464 0.667969C3.36264 0.667969 2.4293 1.05464 1.7413 1.7413C1.05464 2.4293 0.667969 3.36264 0.667969 4.33464V17.668C0.667969 18.64 1.05464 19.5733 1.7413 20.2613C2.4293 20.948 3.36264 21.3346 4.33464 21.3346H25.668C26.64 21.3346 27.5733 20.948 28.2613 20.2613C28.948 19.5733 29.3346 18.64 29.3346 17.668V4.33464ZM27.3346 4.33464V17.668C27.3346 18.1106 27.1586 18.5333 26.8466 18.8466C26.5333 19.1586 26.1106 19.3346 25.668 19.3346H4.33464C3.89197 19.3346 3.4693 19.1586 3.15597 18.8466C2.84397 18.5333 2.66797 18.1106 2.66797 17.668V4.33464C2.66797 3.89197 2.84397 3.4693 3.15597 3.15597C3.4693 2.84397 3.89197 2.66797 4.33464 2.66797H25.668C26.1106 2.66797 26.5333 2.84397 26.8466 3.15597C27.1586 3.4693 27.3346 3.89197 27.3346 4.33464Z" fill="url(#paint0_linear_644_5737)"/>
<path fill-rule="evenodd" clip-rule="evenodd" d="M26.3746 2.62097L16.0413 10.889C15.432 11.3756 14.568 11.3756 13.9586 10.889L3.62529 2.62097C3.19329 2.27697 2.56396 2.3463 2.21863 2.77697C1.87463 3.20897 1.94396 3.8383 2.37462 4.18364C2.37462 4.18364 9.41329 9.81297 12.7093 12.4503C14.048 13.5223 15.952 13.5223 17.2906 12.4503L27.6253 4.18364C28.056 3.8383 28.1253 3.20897 27.7813 2.77697C27.436 2.3463 26.8066 2.27697 26.3746 2.62097Z" fill="url(#paint1_linear_644_5737)"/>
<defs>
<linearGradient id="paint0_linear_644_5737" x1="2.36534" y1="13.068" x2="27.7316" y2="13.068" gradientUnits="userSpaceOnUse">
<stop/>
<stop offset="1" stop-color="#3432CA"/>
</linearGradient>
<linearGradient id="paint1_linear_644_5737" x1="3.53947" y1="8.91352" x2="26.546" y2="8.91352" gradientUnits="userSpaceOnUse">
<stop/>
<stop offset="1" stop-color="#3432CA"/>
</linearGradient>
</defs>
</svg>
