<svg width="24" height="24" viewBox="0 0 24 24" fill="none" xmlns="http://www.w3.org/2000/svg">
<path fill-rule="evenodd" clip-rule="evenodd" d="M14.5627 9.44026C12.6267 7.50426 9.35339 7.57759 7.25606 9.67626C5.38406 11.5483 3.94139 12.9896 2.07072 14.8616C-0.027943 16.9589 -0.101277 20.2323 1.83472 22.1683C3.77072 24.1043 7.04406 24.0309 9.14139 21.9323C9.93872 21.1349 11.7347 19.3403 11.7347 19.3403C12.1241 18.9496 12.1241 18.3163 11.7347 17.9256C11.3441 17.5349 10.7107 17.5349 10.3201 17.9256L7.72672 20.5189C6.44006 21.8056 4.43739 21.9416 3.24939 20.7536C2.06139 19.5656 2.19739 17.5629 3.48406 16.2763L8.66939 11.0909C9.95739 9.80293 11.9601 9.66693 13.1481 10.8549C13.5387 11.2443 14.1721 11.2443 14.5627 10.8549C14.9534 10.4643 14.9534 9.83093 14.5627 9.44026Z" fill="url(#paint0_linear_644_5773)"/>
<path fill-rule="evenodd" clip-rule="evenodd" d="M9.37739 14.6256C10.3147 15.5629 11.5867 16.0909 12.9121 16.0909C14.2387 16.0909 15.5107 15.5629 16.4481 14.6256C18.4294 12.6443 20.1241 10.9509 22.1054 8.96959C23.0427 8.03093 23.5694 6.75893 23.5694 5.43359C23.5694 4.10693 23.0427 2.83493 22.1054 1.89759C21.1681 0.96026 19.8961 0.433594 18.5694 0.433594C17.2441 0.433594 15.9721 0.96026 15.0334 1.89759C14.1787 2.75359 13.2001 3.73226 12.2054 4.72693C11.8147 5.11759 11.8147 5.75093 12.2054 6.14159C12.5947 6.53093 13.2294 6.53093 13.6187 6.14159L16.4481 3.31226C17.0107 2.74959 17.7734 2.43359 18.5694 2.43359C19.3654 2.43359 20.1281 2.74959 20.6907 3.31226C21.2534 3.87493 21.5694 4.63759 21.5694 5.43359C21.5694 6.22959 21.2534 6.99226 20.6907 7.55493L15.0334 13.2123C14.4721 13.7736 13.7081 14.0909 12.9121 14.0909C12.1174 14.0909 11.3534 13.7736 10.7907 13.2123C10.4014 12.8216 9.76806 12.8216 9.37739 13.2123C8.98672 13.6016 8.98672 14.2349 9.37739 14.6256Z" fill="url(#paint1_linear_644_5773)"/>
<defs>
<linearGradient id="paint0_linear_644_5773" x1="1.80715" y1="14.3127" x2="22.2758" y2="14.3127" gradientUnits="userSpaceOnUse">
<stop/>
<stop offset="1" stop-color="#3432CA"/>
</linearGradient>
<linearGradient id="paint1_linear_644_5773" x1="1.80715" y1="14.3127" x2="22.2758" y2="14.3127" gradientUnits="userSpaceOnUse">
<stop/>
<stop offset="1" stop-color="#3432CA"/>
</linearGradient>
</defs>
</svg>
