<svg width="24" height="24" viewBox="0 0 24 24" fill="none" xmlns="http://www.w3.org/2000/svg">
<path fill-rule="evenodd" clip-rule="evenodd" d="M12 1.25C8.277 1.25 5.25 4.304 5.25 8.071C5.25 9.347 5.812 10.93 6.63 12.509C8.431 15.986 11.431 19.488 11.431 19.488C11.573 19.654 11.781 19.75 12 19.75C12.219 19.75 12.427 19.654 12.569 19.488C12.569 19.488 15.569 15.986 17.37 12.509C18.188 10.93 18.75 9.347 18.75 8.071C18.75 4.304 15.723 1.25 12 1.25ZM12 2.75C14.9 2.75 17.25 5.137 17.25 8.071C17.25 9.537 16.32 11.447 15.246 13.228C14.094 15.138 12.746 16.892 12 17.82C11.254 16.892 9.906 15.138 8.754 13.228C7.68 11.447 6.75 9.537 6.75 8.071C6.75 5.137 9.1 2.75 12 2.75Z" fill="#009900"/>
<path fill-rule="evenodd" clip-rule="evenodd" d="M12 5.25C10.482 5.25 9.25 6.482 9.25 8C9.25 9.518 10.482 10.75 12 10.75C13.518 10.75 14.75 9.518 14.75 8C14.75 6.482 13.518 5.25 12 5.25ZM12 6.75C12.69 6.75 13.25 7.31 13.25 8C13.25 8.69 12.69 9.25 12 9.25C11.31 9.25 10.75 8.69 10.75 8C10.75 7.31 11.31 6.75 12 6.75Z" fill="#009900"/>
<path fill-rule="evenodd" clip-rule="evenodd" d="M16.784 17.3751C17.597 17.6191 18.267 17.9211 18.73 18.2751C19.03 18.5031 19.25 18.7261 19.25 18.9981C19.25 19.1581 19.159 19.3031 19.031 19.4481C18.819 19.6871 18.504 19.9021 18.114 20.1021C16.736 20.8071 14.508 21.2481 12 21.2481C9.492 21.2481 7.264 20.8071 5.886 20.1021C5.496 19.9021 5.181 19.6871 4.969 19.4481C4.841 19.3031 4.75 19.1581 4.75 18.9981C4.75 18.7261 4.97 18.5031 5.27 18.2751C5.733 17.9211 6.403 17.6191 7.216 17.3751C7.612 17.2561 7.837 16.8371 7.718 16.4411C7.599 16.0441 7.18 15.8191 6.784 15.9381C5.546 16.3111 4.584 16.8221 4.006 17.3871C3.498 17.8821 3.25 18.4361 3.25 18.9981C3.25 19.7001 3.647 20.4001 4.454 20.9841C5.87 22.0081 8.714 22.7481 12 22.7481C15.286 22.7481 18.13 22.0081 19.546 20.9841C20.353 20.4001 20.75 19.7001 20.75 18.9981C20.75 18.4361 20.502 17.8821 19.994 17.3871C19.416 16.8221 18.454 16.3111 17.216 15.9381C16.82 15.8191 16.401 16.0441 16.282 16.4411C16.163 16.8371 16.388 17.2561 16.784 17.3751Z" fill="#009900"/>
</svg>
