<svg width="44" height="32" viewBox="0 0 44 32" fill="none" xmlns="http://www.w3.org/2000/svg">
<path fill-rule="evenodd" clip-rule="evenodd" d="M43.5 6C43.5 4.542 42.92 3.142 41.89 2.11C40.858 1.08 39.458 0.5 38 0.5C30.336 0.5 13.664 0.5 6 0.5C4.542 0.5 3.142 1.08 2.11 2.11C1.08 3.142 0.5 4.542 0.5 6V26C0.5 27.458 1.08 28.858 2.11 29.89C3.142 30.92 4.542 31.5 6 31.5H38C39.458 31.5 40.858 30.92 41.89 29.89C42.92 28.858 43.5 27.458 43.5 26V6ZM40.5 6V26C40.5 26.664 40.236 27.298 39.768 27.768C39.298 28.236 38.664 28.5 38 28.5H6C5.336 28.5 4.702 28.236 4.232 27.768C3.764 27.298 3.5 26.664 3.5 26V6C3.5 5.336 3.764 4.702 4.232 4.232C4.702 3.764 5.336 3.5 6 3.5H38C38.664 3.5 39.298 3.764 39.768 4.232C40.236 4.702 40.5 5.336 40.5 6Z" fill="#009900"/>
<path fill-rule="evenodd" clip-rule="evenodd" d="M39.0619 3.4295L23.5619 15.8315C22.6479 16.5615 21.3519 16.5615 20.4379 15.8315L4.93794 3.4295C4.28994 2.9135 3.34594 3.0175 2.82794 3.6635C2.31194 4.3115 2.41594 5.2555 3.06194 5.7735C3.06194 5.7735 13.6199 14.2175 18.5639 18.1735C20.5719 19.7815 23.4279 19.7815 25.4359 18.1735L40.9379 5.7735C41.5839 5.2555 41.6879 4.3115 41.1719 3.6635C40.6539 3.0175 39.7099 2.9135 39.0619 3.4295Z" fill="#009900"/>
</svg>
