<svg width="48" height="48" viewBox="0 0 48 48" fill="none" xmlns="http://www.w3.org/2000/svg">
<path fill-rule="evenodd" clip-rule="evenodd" d="M24 2.5C16.554 2.5 10.5 8.608 10.5 16.142C10.5 18.694 11.624 21.86 13.26 25.018C16.862 31.972 22.862 38.976 22.862 38.976C23.146 39.308 23.562 39.5 24 39.5C24.438 39.5 24.854 39.308 25.138 38.976C25.138 38.976 31.138 31.972 34.74 25.018C36.376 21.86 37.5 18.694 37.5 16.142C37.5 8.608 31.446 2.5 24 2.5ZM24 5.5C29.8 5.5 34.5 10.274 34.5 16.142C34.5 19.074 32.64 22.894 30.492 26.456C28.188 30.276 25.492 33.784 24 35.64C22.508 33.784 19.812 30.276 17.508 26.456C15.36 22.894 13.5 19.074 13.5 16.142C13.5 10.274 18.2 5.5 24 5.5Z" fill="#009900"/>
<path fill-rule="evenodd" clip-rule="evenodd" d="M24 10.5C20.964 10.5 18.5 12.964 18.5 16C18.5 19.036 20.964 21.5 24 21.5C27.036 21.5 29.5 19.036 29.5 16C29.5 12.964 27.036 10.5 24 10.5ZM24 13.5C25.38 13.5 26.5 14.62 26.5 16C26.5 17.38 25.38 18.5 24 18.5C22.62 18.5 21.5 17.38 21.5 16C21.5 14.62 22.62 13.5 24 13.5Z" fill="#009900"/>
<path fill-rule="evenodd" clip-rule="evenodd" d="M33.568 34.7541C35.194 35.2421 36.534 35.8461 37.46 36.5541C38.06 37.0101 38.5 37.4561 38.5 38.0001C38.5 38.3201 38.318 38.6101 38.062 38.9001C37.638 39.3781 37.008 39.8081 36.228 40.2081C33.472 41.6181 29.016 42.5001 24 42.5001C18.984 42.5001 14.528 41.6181 11.772 40.2081C10.992 39.8081 10.362 39.3781 9.938 38.9001C9.682 38.6101 9.5 38.3201 9.5 38.0001C9.5 37.4561 9.94 37.0101 10.54 36.5541C11.466 35.8461 12.806 35.2421 14.432 34.7541C15.224 34.5161 15.674 33.6781 15.436 32.8861C15.198 32.0921 14.36 31.6421 13.568 31.8801C11.092 32.6261 9.168 33.6481 8.012 34.7781C6.996 35.7681 6.5 36.8761 6.5 38.0001C6.5 39.4041 7.294 40.8041 8.908 41.9721C11.74 44.0201 17.428 45.5001 24 45.5001C30.572 45.5001 36.26 44.0201 39.092 41.9721C40.706 40.8041 41.5 39.4041 41.5 38.0001C41.5 36.8761 41.004 35.7681 39.988 34.7781C38.832 33.6481 36.908 32.6261 34.432 31.8801C33.64 31.6421 32.802 32.0921 32.564 32.8861C32.326 33.6781 32.776 34.5161 33.568 34.7541Z" fill="#009900"/>
</svg>
