<svg width="44" height="44" viewBox="0 0 44 44" fill="none" xmlns="http://www.w3.org/2000/svg">
<path fill-rule="evenodd" clip-rule="evenodd" d="M25.8594 12.5703C27.2774 12.5703 28.7114 13.1083 29.8014 14.1983C30.8914 15.2883 31.4294 16.7223 31.4294 18.1403C31.4294 18.9683 32.1014 19.6403 32.9294 19.6403C33.7574 19.6403 34.4294 18.9683 34.4294 18.1403C34.4294 15.9583 33.6014 13.7543 31.9234 12.0763C30.2454 10.4003 28.0414 9.57031 25.8594 9.57031C25.0314 9.57031 24.3594 10.2423 24.3594 11.0703C24.3594 11.8983 25.0314 12.5703 25.8594 12.5703Z" fill="#009900"/>
<path fill-rule="evenodd" clip-rule="evenodd" d="M25.8654 5.50016C29.0994 5.48616 32.3314 6.72416 34.8054 9.19616C37.2774 11.6702 38.5154 14.9022 38.5014 18.1362C38.4974 18.9642 39.1674 19.6382 39.9934 19.6422C40.8214 19.6462 41.4974 18.9782 41.5014 18.1502C41.5194 14.1442 39.9894 10.1382 36.9254 7.07616C33.8634 4.01216 29.8574 2.48216 25.8514 2.50016C25.0234 2.50416 24.3554 3.18016 24.3594 4.00816C24.3634 4.83416 25.0374 5.50416 25.8654 5.50016Z" fill="#009900"/>
<path fill-rule="evenodd" clip-rule="evenodd" d="M23.858 31.166C19.336 28.368 15.632 24.664 12.832 20.144C13.772 19.016 15.458 16.992 16.422 15.832C17.204 14.894 17.438 13.61 17.038 12.452C16.07 9.624 15.526 6.79 15.474 3.954C15.458 2.05 13.896 0.502 11.976 0.5H4.114C2.254 0.5 0.72 1.952 0.618 3.808L0.5 6C0.5 26.696 17.304 43.5 38 43.5L40.192 43.382C42.048 43.28 43.5 41.746 43.5 39.886C43.5 37.754 43.5 34.3 43.488 32.088C43.488 31.158 43.11 30.258 42.44 29.602C41.774 28.952 40.876 28.594 39.944 28.608C37.17 28.63 34.396 28.1 31.624 27.036C30.444 26.578 29.102 26.798 28.124 27.61L23.858 31.166ZM22.61 33.92L22.614 33.924C23.526 34.47 24.684 34.38 25.5 33.7C26.528 32.846 28.774 30.974 30.042 29.918C30.182 29.802 30.374 29.77 30.544 29.836L30.55 29.838C33.688 31.042 36.828 31.632 39.968 31.608H39.99C40.12 31.604 40.248 31.656 40.342 31.746C40.434 31.838 40.488 31.964 40.488 32.096V32.104C40.5 34.312 40.5 37.758 40.5 39.886C40.5 40.152 40.292 40.372 40.028 40.386L37.96 40.5C18.96 40.478 3.536 25.064 3.5 6.066L3.614 3.972C3.628 3.708 3.848 3.5 4.114 3.5H11.974C12.248 3.5 12.472 3.722 12.474 3.996V4.01C12.532 7.15 13.128 10.288 14.2 13.428L14.202 13.434C14.26 13.598 14.226 13.78 14.114 13.914L14.112 13.916C13.066 15.178 11.164 17.46 10.298 18.498C9.618 19.314 9.526 20.472 10.074 21.386L10.078 21.392C13.214 26.572 17.428 30.786 22.61 33.92Z" fill="#009900"/>
</svg>
