<svg width="695" height="471" viewBox="0 0 695 471" fill="none" xmlns="http://www.w3.org/2000/svg">
<rect width="695" height="471" rx="24" fill="url(#paint0_linear_774_5810)"/>
<mask id="mask0_774_5810" style="mask-type:alpha" maskUnits="userSpaceOnUse" x="0" y="0" width="695" height="471">
<rect width="695" height="471" rx="24" fill="#FFE4E6"/>
</mask>
<g mask="url(#mask0_774_5810)">
<path fill-rule="evenodd" clip-rule="evenodd" d="M17.8892 344.5L-72 292.583L-5.74652 177.917L84.195 229.745L84.2457 126H216.754L216.805 229.745L306.746 177.917L373 292.583L283.11 344.5L373 396.417L306.746 511.083L216.805 459.255L216.754 563H84.2457L84.195 459.255L-5.74652 511.083L-72 396.417L17.8892 344.5Z" fill="#383795" fill-opacity="0.3"/>
</g>
<rect x="60.75" y="183.75" width="573.5" height="226.5" rx="23.25" fill="url(#paint1_linear_774_5810)" stroke="url(#paint2_linear_774_5810)" stroke-width="1.5"/>
<path d="M203.934 243.288C201.758 243.288 199.849 242.819 198.206 241.88C196.585 240.941 195.337 239.597 194.462 237.848C193.587 236.099 193.15 234.051 193.15 231.704C193.15 229.357 193.587 227.32 194.462 225.592C195.337 223.843 196.585 222.499 198.206 221.56C199.849 220.621 201.758 220.152 203.934 220.152C205.342 220.152 206.665 220.365 207.902 220.792C209.139 221.197 210.238 221.795 211.198 222.584C211.475 222.797 211.667 223.021 211.774 223.256C211.881 223.491 211.934 223.779 211.934 224.12C211.934 224.589 211.806 224.984 211.55 225.304C211.294 225.624 210.985 225.784 210.622 225.784C210.195 225.784 209.758 225.635 209.31 225.336C208.393 224.653 207.539 224.184 206.75 223.928C205.961 223.651 205.086 223.512 204.126 223.512C201.907 223.512 200.222 224.205 199.07 225.592C197.939 226.979 197.374 229.016 197.374 231.704C197.374 234.413 197.939 236.461 199.07 237.848C200.222 239.235 201.907 239.928 204.126 239.928C205.043 239.928 205.886 239.789 206.654 239.512C207.443 239.235 208.329 238.765 209.31 238.104C209.523 237.976 209.737 237.869 209.95 237.784C210.163 237.699 210.387 237.656 210.622 237.656C210.985 237.656 211.294 237.816 211.55 238.136C211.806 238.456 211.934 238.851 211.934 239.32C211.934 239.64 211.881 239.928 211.774 240.184C211.667 240.419 211.475 240.643 211.198 240.856C210.238 241.645 209.139 242.253 207.902 242.68C206.665 243.085 205.342 243.288 203.934 243.288ZM217.493 243C216.875 243 216.395 242.829 216.053 242.488C215.712 242.147 215.541 241.677 215.541 241.08V222.328C215.541 221.709 215.723 221.219 216.085 220.856C216.469 220.472 216.971 220.28 217.589 220.28C218.229 220.28 218.731 220.472 219.093 220.856C219.477 221.219 219.669 221.709 219.669 222.328V239.608H228.661C229.941 239.608 230.581 240.173 230.581 241.304C230.581 242.435 229.941 243 228.661 243H217.493ZM242.121 243.288C239.923 243.288 238.014 242.819 236.393 241.88C234.793 240.941 233.555 239.597 232.681 237.848C231.806 236.099 231.369 234.051 231.369 231.704C231.369 229.357 231.795 227.32 232.649 225.592C233.523 223.843 234.771 222.499 236.393 221.56C238.014 220.621 239.923 220.152 242.121 220.152C244.318 220.152 246.217 220.621 247.817 221.56C249.438 222.499 250.675 223.843 251.529 225.592C252.403 227.32 252.841 229.357 252.841 231.704C252.841 234.051 252.403 236.099 251.529 237.848C250.654 239.597 249.406 240.941 247.785 241.88C246.185 242.819 244.297 243.288 242.121 243.288ZM242.121 239.992C244.19 239.992 245.801 239.277 246.953 237.848C248.126 236.419 248.713 234.371 248.713 231.704C248.713 229.037 248.126 227 246.953 225.592C245.801 224.163 244.19 223.448 242.121 223.448C240.03 223.448 238.398 224.163 237.225 225.592C236.073 227 235.497 229.037 235.497 231.704C235.497 234.371 236.073 236.419 237.225 237.848C238.398 239.277 240.03 239.992 242.121 239.992ZM266.322 243.288C263.229 243.288 260.882 242.488 259.282 240.888C257.682 239.288 256.882 236.952 256.882 233.88V222.328C256.882 221.709 257.063 221.219 257.426 220.856C257.789 220.472 258.279 220.28 258.898 220.28C259.517 220.28 260.007 220.472 260.37 220.856C260.733 221.219 260.914 221.709 260.914 222.328V234.104C260.914 236.045 261.373 237.517 262.29 238.52C263.207 239.501 264.551 239.992 266.322 239.992C268.071 239.992 269.405 239.491 270.322 238.488C271.239 237.485 271.698 236.024 271.698 234.104V222.328C271.698 221.709 271.879 221.219 272.242 220.856C272.605 220.472 273.095 220.28 273.714 220.28C274.333 220.28 274.823 220.472 275.186 220.856C275.549 221.219 275.73 221.709 275.73 222.328V233.88C275.73 236.931 274.93 239.267 273.33 240.888C271.73 242.488 269.394 243.288 266.322 243.288ZM282.463 243C281.844 243 281.354 242.829 280.991 242.488C280.65 242.147 280.479 241.667 280.479 241.048V222.392C280.479 221.773 280.65 221.293 280.991 220.952C281.354 220.611 281.844 220.44 282.463 220.44H288.799C292.49 220.44 295.348 221.432 297.375 223.416C299.423 225.379 300.447 228.141 300.447 231.704C300.447 235.288 299.423 238.072 297.375 240.056C295.348 242.019 292.49 243 288.799 243H282.463ZM288.543 239.64C293.727 239.64 296.319 236.995 296.319 231.704C296.319 226.435 293.727 223.8 288.543 223.8H284.607V239.64H288.543ZM323.371 243.288C321.195 243.288 319.286 242.819 317.643 241.88C316.022 240.941 314.774 239.597 313.899 237.848C313.025 236.099 312.587 234.051 312.587 231.704C312.587 229.357 313.025 227.32 313.899 225.592C314.774 223.843 316.022 222.499 317.643 221.56C319.286 220.621 321.195 220.152 323.371 220.152C324.779 220.152 326.102 220.365 327.339 220.792C328.577 221.197 329.675 221.795 330.635 222.584C330.913 222.797 331.105 223.021 331.211 223.256C331.318 223.491 331.371 223.779 331.371 224.12C331.371 224.589 331.243 224.984 330.987 225.304C330.731 225.624 330.422 225.784 330.059 225.784C329.633 225.784 329.195 225.635 328.747 225.336C327.83 224.653 326.977 224.184 326.187 223.928C325.398 223.651 324.523 223.512 323.563 223.512C321.345 223.512 319.659 224.205 318.507 225.592C317.377 226.979 316.811 229.016 316.811 231.704C316.811 234.413 317.377 236.461 318.507 237.848C319.659 239.235 321.345 239.928 323.563 239.928C324.481 239.928 325.323 239.789 326.091 239.512C326.881 239.235 327.766 238.765 328.747 238.104C328.961 237.976 329.174 237.869 329.387 237.784C329.601 237.699 329.825 237.656 330.059 237.656C330.422 237.656 330.731 237.816 330.987 238.136C331.243 238.456 331.371 238.851 331.371 239.32C331.371 239.64 331.318 239.928 331.211 240.184C331.105 240.419 330.913 240.643 330.635 240.856C329.675 241.645 328.577 242.253 327.339 242.68C326.102 243.085 324.779 243.288 323.371 243.288ZM344.621 243.288C342.423 243.288 340.514 242.819 338.893 241.88C337.293 240.941 336.055 239.597 335.181 237.848C334.306 236.099 333.869 234.051 333.869 231.704C333.869 229.357 334.295 227.32 335.149 225.592C336.023 223.843 337.271 222.499 338.893 221.56C340.514 220.621 342.423 220.152 344.621 220.152C346.818 220.152 348.717 220.621 350.317 221.56C351.938 222.499 353.175 223.843 354.029 225.592C354.903 227.32 355.341 229.357 355.341 231.704C355.341 234.051 354.903 236.099 354.029 237.848C353.154 239.597 351.906 240.941 350.285 241.88C348.685 242.819 346.797 243.288 344.621 243.288ZM344.621 239.992C346.69 239.992 348.301 239.277 349.453 237.848C350.626 236.419 351.213 234.371 351.213 231.704C351.213 229.037 350.626 227 349.453 225.592C348.301 224.163 346.69 223.448 344.621 223.448C342.53 223.448 340.898 224.163 339.725 225.592C338.573 227 337.997 229.037 337.997 231.704C337.997 234.371 338.573 236.419 339.725 237.848C340.898 239.277 342.53 239.992 344.621 239.992ZM379.542 220.28C380.139 220.28 380.619 220.472 380.982 220.856C381.345 221.219 381.526 221.709 381.526 222.328V241.272C381.526 241.869 381.355 242.339 381.014 242.68C380.673 243.021 380.225 243.192 379.67 243.192C379.115 243.192 378.678 243.021 378.358 242.68C378.038 242.339 377.878 241.869 377.878 241.272V228.088L372.438 238.392C372.182 238.861 371.905 239.213 371.606 239.448C371.307 239.661 370.955 239.768 370.55 239.768C370.145 239.768 369.793 239.661 369.494 239.448C369.195 239.235 368.918 238.883 368.662 238.392L363.19 228.248V241.272C363.19 241.848 363.019 242.317 362.678 242.68C362.358 243.021 361.921 243.192 361.366 243.192C360.811 243.192 360.374 243.021 360.054 242.68C359.734 242.339 359.574 241.869 359.574 241.272V222.328C359.574 221.709 359.745 221.219 360.086 220.856C360.449 220.472 360.929 220.28 361.526 220.28C362.358 220.28 363.009 220.739 363.478 221.656L370.582 235.192L377.654 221.656C378.123 220.739 378.753 220.28 379.542 220.28ZM388.464 243.192C387.846 243.192 387.344 243.011 386.96 242.648C386.598 242.264 386.416 241.752 386.416 241.112V222.392C386.416 221.773 386.587 221.293 386.928 220.952C387.291 220.611 387.782 220.44 388.4 220.44H396.272C398.683 220.44 400.56 221.048 401.904 222.264C403.248 223.459 403.92 225.144 403.92 227.32C403.92 229.496 403.248 231.192 401.904 232.408C400.56 233.624 398.683 234.232 396.272 234.232H390.544V241.112C390.544 241.752 390.352 242.264 389.968 242.648C389.606 243.011 389.104 243.192 388.464 243.192ZM395.76 231.064C398.598 231.064 400.016 229.827 400.016 227.352C400.016 224.877 398.598 223.64 395.76 223.64H390.544V231.064H395.76ZM416.853 243.288C413.76 243.288 411.413 242.488 409.813 240.888C408.213 239.288 407.413 236.952 407.413 233.88V222.328C407.413 221.709 407.595 221.219 407.957 220.856C408.32 220.472 408.811 220.28 409.429 220.28C410.048 220.28 410.539 220.472 410.901 220.856C411.264 221.219 411.445 221.709 411.445 222.328V234.104C411.445 236.045 411.904 237.517 412.821 238.52C413.739 239.501 415.083 239.992 416.853 239.992C418.603 239.992 419.936 239.491 420.853 238.488C421.771 237.485 422.229 236.024 422.229 234.104V222.328C422.229 221.709 422.411 221.219 422.773 220.856C423.136 220.472 423.627 220.28 424.245 220.28C424.864 220.28 425.355 220.472 425.717 220.856C426.08 221.219 426.261 221.709 426.261 222.328V233.88C426.261 236.931 425.461 239.267 423.861 240.888C422.261 242.488 419.925 243.288 416.853 243.288ZM438.402 243.16C437.762 243.16 437.25 242.979 436.866 242.616C436.503 242.232 436.322 241.731 436.322 241.112V223.832H430.498C429.218 223.832 428.578 223.267 428.578 222.136C428.578 221.005 429.218 220.44 430.498 220.44H446.274C447.554 220.44 448.194 221.005 448.194 222.136C448.194 223.267 447.554 223.832 446.274 223.832H440.45V241.112C440.45 241.731 440.258 242.232 439.874 242.616C439.511 242.979 439.021 243.16 438.402 243.16ZM452.683 243.192C452.064 243.192 451.563 243 451.179 242.616C450.816 242.232 450.635 241.731 450.635 241.112V222.328C450.635 221.709 450.816 221.219 451.179 220.856C451.563 220.472 452.064 220.28 452.683 220.28C453.323 220.28 453.824 220.472 454.187 220.856C454.571 221.219 454.763 221.709 454.763 222.328V241.112C454.763 241.731 454.571 242.232 454.187 242.616C453.824 243 453.323 243.192 452.683 243.192ZM476.723 220.28C477.32 220.28 477.79 220.472 478.131 220.856C478.494 221.219 478.675 221.709 478.675 222.328V241.112C478.675 241.731 478.494 242.232 478.131 242.616C477.768 243 477.299 243.192 476.723 243.192C476.04 243.192 475.518 242.947 475.155 242.456L463.475 227.256V241.112C463.475 241.731 463.304 242.232 462.963 242.616C462.622 243 462.152 243.192 461.555 243.192C460.958 243.192 460.488 243 460.147 242.616C459.806 242.232 459.635 241.731 459.635 241.112V222.328C459.635 221.709 459.816 221.219 460.179 220.856C460.542 220.472 461.022 220.28 461.619 220.28C462.28 220.28 462.792 220.525 463.155 221.016L474.803 236.152V222.328C474.803 221.709 474.974 221.219 475.315 220.856C475.678 220.472 476.147 220.28 476.723 220.28ZM500.725 230.808C501.216 230.808 501.611 230.957 501.909 231.256C502.208 231.533 502.357 231.907 502.357 232.376V239.256C502.357 240.237 502.229 240.931 501.973 241.336C501.717 241.741 501.195 242.072 500.405 242.328C499.552 242.627 498.56 242.861 497.429 243.032C496.299 243.203 495.211 243.288 494.165 243.288C491.84 243.288 489.824 242.829 488.117 241.912C486.411 240.995 485.099 239.672 484.181 237.944C483.285 236.195 482.837 234.115 482.837 231.704C482.837 229.336 483.285 227.288 484.181 225.56C485.099 223.811 486.389 222.477 488.053 221.56C489.717 220.621 491.68 220.152 493.941 220.152C496.949 220.152 499.413 220.963 501.333 222.584C501.589 222.819 501.771 223.053 501.877 223.288C502.005 223.523 502.069 223.8 502.069 224.12C502.069 224.589 501.941 224.984 501.685 225.304C501.429 225.624 501.12 225.784 500.757 225.784C500.523 225.784 500.309 225.752 500.117 225.688C499.925 225.603 499.701 225.475 499.445 225.304C498.507 224.643 497.632 224.184 496.821 223.928C496.011 223.651 495.093 223.512 494.069 223.512C491.744 223.512 489.984 224.205 488.789 225.592C487.616 226.957 487.029 228.995 487.029 231.704C487.029 237.251 489.461 240.024 494.325 240.024C495.776 240.024 497.227 239.821 498.677 239.416V233.752H495.061C494.549 233.752 494.144 233.624 493.845 233.368C493.568 233.112 493.429 232.749 493.429 232.28C493.429 231.811 493.568 231.448 493.845 231.192C494.144 230.936 494.549 230.808 495.061 230.808H500.725ZM234.418 293.288C232.242 293.288 230.333 292.819 228.69 291.88C227.069 290.941 225.821 289.597 224.946 287.848C224.072 286.099 223.634 284.051 223.634 281.704C223.634 279.357 224.072 277.32 224.946 275.592C225.821 273.843 227.069 272.499 228.69 271.56C230.333 270.621 232.242 270.152 234.418 270.152C235.826 270.152 237.149 270.365 238.386 270.792C239.624 271.197 240.722 271.795 241.682 272.584C241.96 272.797 242.152 273.021 242.258 273.256C242.365 273.491 242.418 273.779 242.418 274.12C242.418 274.589 242.29 274.984 242.034 275.304C241.778 275.624 241.469 275.784 241.106 275.784C240.68 275.784 240.242 275.635 239.794 275.336C238.877 274.653 238.024 274.184 237.234 273.928C236.445 273.651 235.57 273.512 234.61 273.512C232.392 273.512 230.706 274.205 229.554 275.592C228.424 276.979 227.858 279.016 227.858 281.704C227.858 284.413 228.424 286.461 229.554 287.848C230.706 289.235 232.392 289.928 234.61 289.928C235.528 289.928 236.37 289.789 237.138 289.512C237.928 289.235 238.813 288.765 239.794 288.104C240.008 287.976 240.221 287.869 240.434 287.784C240.648 287.699 240.872 287.656 241.106 287.656C241.469 287.656 241.778 287.816 242.034 288.136C242.29 288.456 242.418 288.851 242.418 289.32C242.418 289.64 242.365 289.928 242.258 290.184C242.152 290.419 241.96 290.643 241.682 290.856C240.722 291.645 239.624 292.253 238.386 292.68C237.149 293.085 235.826 293.288 234.418 293.288ZM263.658 270.28C264.276 270.28 264.767 270.472 265.13 270.856C265.492 271.219 265.674 271.709 265.674 272.328V291.112C265.674 291.731 265.482 292.232 265.098 292.616C264.735 293 264.255 293.192 263.658 293.192C263.039 293.192 262.548 293 262.186 292.616C261.823 292.232 261.642 291.731 261.642 291.112V283.208H250.09V291.112C250.09 291.731 249.898 292.232 249.514 292.616C249.151 293 248.66 293.192 248.042 293.192C247.444 293.192 246.954 293 246.57 292.616C246.207 292.232 246.026 291.731 246.026 291.112V272.328C246.026 271.709 246.207 271.219 246.57 270.856C246.932 270.472 247.423 270.28 248.042 270.28C248.66 270.28 249.151 270.472 249.514 270.856C249.898 271.219 250.09 271.709 250.09 272.328V279.88H261.642V272.328C261.642 271.709 261.823 271.219 262.186 270.856C262.548 270.472 263.039 270.28 263.658 270.28ZM290.974 290.536C291.102 290.813 291.166 291.091 291.166 291.368C291.166 291.859 290.963 292.275 290.558 292.616C290.174 292.957 289.726 293.128 289.214 293.128C288.872 293.128 288.552 293.043 288.254 292.872C287.955 292.68 287.72 292.392 287.55 292.008L285.63 287.72H274.366L272.446 292.008C272.275 292.392 272.04 292.68 271.742 292.872C271.443 293.043 271.112 293.128 270.75 293.128C270.259 293.128 269.811 292.957 269.406 292.616C269 292.275 268.798 291.859 268.798 291.368C268.798 291.091 268.862 290.813 268.99 290.536L277.822 271.56C278.014 271.133 278.302 270.813 278.686 270.6C279.091 270.365 279.518 270.248 279.966 270.248C280.414 270.248 280.83 270.365 281.214 270.6C281.619 270.813 281.918 271.133 282.11 271.56L290.974 290.536ZM275.774 284.52H284.222L279.998 275.016L275.774 284.52ZM296.228 293C295.609 293 295.129 292.829 294.788 292.488C294.446 292.147 294.276 291.677 294.276 291.08V272.328C294.276 271.709 294.457 271.219 294.82 270.856C295.204 270.472 295.705 270.28 296.324 270.28C296.964 270.28 297.465 270.472 297.828 270.856C298.212 271.219 298.404 271.709 298.404 272.328V289.608H307.396C308.676 289.608 309.316 290.173 309.316 291.304C309.316 292.435 308.676 293 307.396 293H296.228ZM313.978 293C313.359 293 312.879 292.829 312.538 292.488C312.196 292.147 312.026 291.677 312.026 291.08V272.328C312.026 271.709 312.207 271.219 312.57 270.856C312.954 270.472 313.455 270.28 314.074 270.28C314.714 270.28 315.215 270.472 315.578 270.856C315.962 271.219 316.154 271.709 316.154 272.328V289.608H325.146C326.426 289.608 327.066 290.173 327.066 291.304C327.066 292.435 326.426 293 325.146 293H313.978ZM331.76 293C331.141 293 330.65 292.829 330.288 292.488C329.946 292.147 329.776 291.667 329.776 291.048V272.392C329.776 271.773 329.946 271.293 330.288 270.952C330.65 270.611 331.141 270.44 331.76 270.44H343.312C343.93 270.44 344.41 270.579 344.752 270.856C345.093 271.133 345.264 271.528 345.264 272.04C345.264 272.573 345.093 272.989 344.752 273.288C344.41 273.565 343.93 273.704 343.312 273.704H333.808V279.912H342.672C343.29 279.912 343.77 280.051 344.112 280.328C344.453 280.605 344.624 281.011 344.624 281.544C344.624 282.056 344.453 282.451 344.112 282.728C343.77 283.005 343.29 283.144 342.672 283.144H333.808V289.736H343.312C343.93 289.736 344.41 289.885 344.752 290.184C345.093 290.461 345.264 290.867 345.264 291.4C345.264 291.912 345.093 292.307 344.752 292.584C344.41 292.861 343.93 293 343.312 293H331.76ZM365.708 270.28C366.305 270.28 366.774 270.472 367.116 270.856C367.478 271.219 367.66 271.709 367.66 272.328V291.112C367.66 291.731 367.478 292.232 367.116 292.616C366.753 293 366.284 293.192 365.708 293.192C365.025 293.192 364.502 292.947 364.14 292.456L352.46 277.256V291.112C352.46 291.731 352.289 292.232 351.948 292.616C351.606 293 351.137 293.192 350.54 293.192C349.942 293.192 349.473 293 349.132 292.616C348.79 292.232 348.62 291.731 348.62 291.112V272.328C348.62 271.709 348.801 271.219 349.164 270.856C349.526 270.472 350.006 270.28 350.604 270.28C351.265 270.28 351.777 270.525 352.14 271.016L363.788 286.152V272.328C363.788 271.709 363.958 271.219 364.3 270.856C364.662 270.472 365.132 270.28 365.708 270.28ZM389.71 280.808C390.2 280.808 390.595 280.957 390.894 281.256C391.192 281.533 391.342 281.907 391.342 282.376V289.256C391.342 290.237 391.214 290.931 390.958 291.336C390.702 291.741 390.179 292.072 389.39 292.328C388.536 292.627 387.544 292.861 386.414 293.032C385.283 293.203 384.195 293.288 383.15 293.288C380.824 293.288 378.808 292.829 377.102 291.912C375.395 290.995 374.083 289.672 373.166 287.944C372.27 286.195 371.822 284.115 371.822 281.704C371.822 279.336 372.27 277.288 373.166 275.56C374.083 273.811 375.374 272.477 377.038 271.56C378.702 270.621 380.664 270.152 382.926 270.152C385.934 270.152 388.398 270.963 390.318 272.584C390.574 272.819 390.755 273.053 390.862 273.288C390.99 273.523 391.054 273.8 391.054 274.12C391.054 274.589 390.926 274.984 390.67 275.304C390.414 275.624 390.104 275.784 389.742 275.784C389.507 275.784 389.294 275.752 389.102 275.688C388.91 275.603 388.686 275.475 388.43 275.304C387.491 274.643 386.616 274.184 385.806 273.928C384.995 273.651 384.078 273.512 383.054 273.512C380.728 273.512 378.968 274.205 377.774 275.592C376.6 276.957 376.014 278.995 376.014 281.704C376.014 287.251 378.446 290.024 383.31 290.024C384.76 290.024 386.211 289.821 387.662 289.416V283.752H384.046C383.534 283.752 383.128 283.624 382.83 283.368C382.552 283.112 382.414 282.749 382.414 282.28C382.414 281.811 382.552 281.448 382.83 281.192C383.128 280.936 383.534 280.808 384.046 280.808H389.71ZM397.979 293C397.36 293 396.869 292.829 396.507 292.488C396.165 292.147 395.995 291.667 395.995 291.048V272.392C395.995 271.773 396.165 271.293 396.507 270.952C396.869 270.611 397.36 270.44 397.979 270.44H409.531C410.149 270.44 410.629 270.579 410.971 270.856C411.312 271.133 411.483 271.528 411.483 272.04C411.483 272.573 411.312 272.989 410.971 273.288C410.629 273.565 410.149 273.704 409.531 273.704H400.027V279.912H408.891C409.509 279.912 409.989 280.051 410.331 280.328C410.672 280.605 410.843 281.011 410.843 281.544C410.843 282.056 410.672 282.451 410.331 282.728C409.989 283.005 409.509 283.144 408.891 283.144H400.027V289.736H409.531C410.149 289.736 410.629 289.885 410.971 290.184C411.312 290.461 411.483 290.867 411.483 291.4C411.483 291.912 411.312 292.307 410.971 292.584C410.629 292.861 410.149 293 409.531 293H397.979ZM422.334 293.288C420.691 293.288 419.134 293.075 417.662 292.648C416.211 292.2 415.027 291.603 414.11 290.856C413.619 290.493 413.374 289.981 413.374 289.32C413.374 288.872 413.502 288.488 413.758 288.168C414.035 287.827 414.355 287.656 414.718 287.656C415.102 287.656 415.539 287.805 416.03 288.104C416.947 288.765 417.907 289.245 418.91 289.544C419.912 289.843 421.022 289.992 422.238 289.992C423.795 289.992 424.99 289.725 425.822 289.192C426.654 288.637 427.07 287.837 427.07 286.792C427.07 285.981 426.675 285.363 425.886 284.936C425.118 284.488 423.827 284.061 422.014 283.656C420.136 283.251 418.611 282.781 417.438 282.248C416.264 281.715 415.379 281.032 414.782 280.2C414.184 279.368 413.886 278.312 413.886 277.032C413.886 275.709 414.259 274.525 415.006 273.48C415.752 272.435 416.787 271.624 418.11 271.048C419.454 270.451 420.958 270.152 422.622 270.152C425.672 270.152 428.158 270.963 430.078 272.584C430.355 272.819 430.547 273.053 430.654 273.288C430.782 273.501 430.846 273.779 430.846 274.12C430.846 274.568 430.707 274.963 430.43 275.304C430.174 275.624 429.864 275.784 429.502 275.784C429.288 275.784 429.086 275.752 428.894 275.688C428.723 275.624 428.488 275.507 428.19 275.336C427.315 274.696 426.462 274.227 425.63 273.928C424.819 273.608 423.816 273.448 422.622 273.448C421.171 273.448 420.019 273.747 419.166 274.344C418.334 274.92 417.918 275.731 417.918 276.776C417.918 277.651 418.291 278.323 419.038 278.792C419.784 279.261 421.054 279.699 422.846 280.104C424.744 280.531 426.28 281.011 427.454 281.544C428.648 282.056 429.555 282.717 430.174 283.528C430.814 284.339 431.134 285.352 431.134 286.568C431.134 287.891 430.76 289.064 430.014 290.088C429.288 291.091 428.254 291.88 426.91 292.456C425.587 293.011 424.062 293.288 422.334 293.288ZM445.668 293.192C445.049 293.192 444.548 293 444.164 292.616C443.801 292.232 443.62 291.731 443.62 291.112V272.328C443.62 271.709 443.801 271.219 444.164 270.856C444.548 270.472 445.049 270.28 445.668 270.28C446.308 270.28 446.809 270.472 447.172 270.856C447.556 271.219 447.748 271.709 447.748 272.328V291.112C447.748 291.731 447.556 292.232 447.172 292.616C446.809 293 446.308 293.192 445.668 293.192ZM469.708 270.28C470.305 270.28 470.774 270.472 471.116 270.856C471.478 271.219 471.66 271.709 471.66 272.328V291.112C471.66 291.731 471.478 292.232 471.116 292.616C470.753 293 470.284 293.192 469.708 293.192C469.025 293.192 468.502 292.947 468.14 292.456L456.46 277.256V291.112C456.46 291.731 456.289 292.232 455.948 292.616C455.606 293 455.137 293.192 454.54 293.192C453.942 293.192 453.473 293 453.132 292.616C452.79 292.232 452.62 291.731 452.62 291.112V272.328C452.62 271.709 452.801 271.219 453.164 270.856C453.526 270.472 454.006 270.28 454.604 270.28C455.265 270.28 455.777 270.525 456.14 271.016L467.788 286.152V272.328C467.788 271.709 467.958 271.219 468.3 270.856C468.662 270.472 469.132 270.28 469.708 270.28ZM262.705 320.28C263.323 320.28 263.814 320.472 264.177 320.856C264.539 321.219 264.721 321.709 264.721 322.328V341.112C264.721 341.731 264.529 342.232 264.145 342.616C263.782 343 263.302 343.192 262.705 343.192C262.086 343.192 261.595 343 261.233 342.616C260.87 342.232 260.689 341.731 260.689 341.112V333.208H249.137V341.112C249.137 341.731 248.945 342.232 248.561 342.616C248.198 343 247.707 343.192 247.089 343.192C246.491 343.192 246.001 343 245.617 342.616C245.254 342.232 245.073 341.731 245.073 341.112V322.328C245.073 321.709 245.254 321.219 245.617 320.856C245.979 320.472 246.47 320.28 247.089 320.28C247.707 320.28 248.198 320.472 248.561 320.856C248.945 321.219 249.137 321.709 249.137 322.328V329.88H260.689V322.328C260.689 321.709 260.87 321.219 261.233 320.856C261.595 320.472 262.086 320.28 262.705 320.28ZM271.557 343C270.938 343 270.447 342.829 270.085 342.488C269.743 342.147 269.573 341.667 269.573 341.048V322.392C269.573 321.773 269.743 321.293 270.085 320.952C270.447 320.611 270.938 320.44 271.557 320.44H283.109C283.727 320.44 284.207 320.579 284.549 320.856C284.89 321.133 285.061 321.528 285.061 322.04C285.061 322.573 284.89 322.989 284.549 323.288C284.207 323.565 283.727 323.704 283.109 323.704H273.605V329.912H282.469C283.087 329.912 283.567 330.051 283.909 330.328C284.25 330.605 284.421 331.011 284.421 331.544C284.421 332.056 284.25 332.451 283.909 332.728C283.567 333.005 283.087 333.144 282.469 333.144H273.605V339.736H283.109C283.727 339.736 284.207 339.885 284.549 340.184C284.89 340.461 285.061 340.867 285.061 341.4C285.061 341.912 284.89 342.307 284.549 342.584C284.207 342.861 283.727 343 283.109 343H271.557ZM308.489 340.536C308.617 340.813 308.681 341.091 308.681 341.368C308.681 341.859 308.479 342.275 308.073 342.616C307.689 342.957 307.241 343.128 306.729 343.128C306.388 343.128 306.068 343.043 305.769 342.872C305.471 342.68 305.236 342.392 305.065 342.008L303.145 337.72H291.881L289.961 342.008C289.791 342.392 289.556 342.68 289.257 342.872C288.959 343.043 288.628 343.128 288.265 343.128C287.775 343.128 287.327 342.957 286.921 342.616C286.516 342.275 286.313 341.859 286.313 341.368C286.313 341.091 286.377 340.813 286.505 340.536L295.337 321.56C295.529 321.133 295.817 320.813 296.201 320.6C296.607 320.365 297.033 320.248 297.481 320.248C297.929 320.248 298.345 320.365 298.729 320.6C299.135 320.813 299.433 321.133 299.625 321.56L308.489 340.536ZM293.289 334.52H301.737L297.513 325.016L293.289 334.52ZM313.743 343C313.125 343 312.645 342.829 312.303 342.488C311.962 342.147 311.791 341.677 311.791 341.08V322.328C311.791 321.709 311.973 321.219 312.335 320.856C312.719 320.472 313.221 320.28 313.839 320.28C314.479 320.28 314.981 320.472 315.343 320.856C315.727 321.219 315.919 321.709 315.919 322.328V339.608H324.911C326.191 339.608 326.831 340.173 326.831 341.304C326.831 342.435 326.191 343 324.911 343H313.743ZM332.933 343.16C332.293 343.16 331.781 342.979 331.397 342.616C331.035 342.232 330.853 341.731 330.853 341.112V323.832H325.029C323.749 323.832 323.109 323.267 323.109 322.136C323.109 321.005 323.749 320.44 325.029 320.44H340.805C342.085 320.44 342.725 321.005 342.725 322.136C342.725 323.267 342.085 323.832 340.805 323.832H334.981V341.112C334.981 341.731 334.789 342.232 334.405 342.616C334.043 342.979 333.552 343.16 332.933 343.16ZM362.798 320.28C363.417 320.28 363.908 320.472 364.27 320.856C364.633 321.219 364.814 321.709 364.814 322.328V341.112C364.814 341.731 364.622 342.232 364.238 342.616C363.876 343 363.396 343.192 362.798 343.192C362.18 343.192 361.689 343 361.326 342.616C360.964 342.232 360.782 341.731 360.782 341.112V333.208H349.23V341.112C349.23 341.731 349.038 342.232 348.654 342.616C348.292 343 347.801 343.192 347.182 343.192C346.585 343.192 346.094 343 345.71 342.616C345.348 342.232 345.166 341.731 345.166 341.112V322.328C345.166 321.709 345.348 321.219 345.71 320.856C346.073 320.472 346.564 320.28 347.182 320.28C347.801 320.28 348.292 320.472 348.654 320.856C349.038 321.219 349.23 321.709 349.23 322.328V329.88H360.782V322.328C360.782 321.709 360.964 321.219 361.326 320.856C361.689 320.472 362.18 320.28 362.798 320.28ZM379.746 343.288C377.57 343.288 375.661 342.819 374.018 341.88C372.397 340.941 371.149 339.597 370.274 337.848C369.4 336.099 368.962 334.051 368.962 331.704C368.962 329.357 369.4 327.32 370.274 325.592C371.149 323.843 372.397 322.499 374.018 321.56C375.661 320.621 377.57 320.152 379.746 320.152C381.154 320.152 382.477 320.365 383.714 320.792C384.952 321.197 386.05 321.795 387.01 322.584C387.288 322.797 387.48 323.021 387.586 323.256C387.693 323.491 387.746 323.779 387.746 324.12C387.746 324.589 387.618 324.984 387.362 325.304C387.106 325.624 386.797 325.784 386.434 325.784C386.008 325.784 385.57 325.635 385.122 325.336C384.205 324.653 383.352 324.184 382.562 323.928C381.773 323.651 380.898 323.512 379.938 323.512C377.72 323.512 376.034 324.205 374.882 325.592C373.752 326.979 373.186 329.016 373.186 331.704C373.186 334.413 373.752 336.461 374.882 337.848C376.034 339.235 377.72 339.928 379.938 339.928C380.856 339.928 381.698 339.789 382.466 339.512C383.256 339.235 384.141 338.765 385.122 338.104C385.336 337.976 385.549 337.869 385.762 337.784C385.976 337.699 386.2 337.656 386.434 337.656C386.797 337.656 387.106 337.816 387.362 338.136C387.618 338.456 387.746 338.851 387.746 339.32C387.746 339.64 387.693 339.928 387.586 340.184C387.48 340.419 387.288 340.643 387.01 340.856C386.05 341.645 384.952 342.253 383.714 342.68C382.477 343.085 381.154 343.288 379.746 343.288ZM411.396 340.536C411.524 340.813 411.588 341.091 411.588 341.368C411.588 341.859 411.385 342.275 410.98 342.616C410.596 342.957 410.148 343.128 409.636 343.128C409.294 343.128 408.974 343.043 408.676 342.872C408.377 342.68 408.142 342.392 407.972 342.008L406.052 337.72H394.788L392.868 342.008C392.697 342.392 392.462 342.68 392.164 342.872C391.865 343.043 391.534 343.128 391.172 343.128C390.681 343.128 390.233 342.957 389.828 342.616C389.422 342.275 389.22 341.859 389.22 341.368C389.22 341.091 389.284 340.813 389.412 340.536L398.244 321.56C398.436 321.133 398.724 320.813 399.108 320.6C399.513 320.365 399.94 320.248 400.388 320.248C400.836 320.248 401.252 320.365 401.636 320.6C402.041 320.813 402.34 321.133 402.532 321.56L411.396 340.536ZM396.196 334.52H404.644L400.42 325.016L396.196 334.52ZM432.746 340.408C433.002 340.792 433.13 341.165 433.13 341.528C433.13 342.019 432.927 342.424 432.522 342.744C432.138 343.064 431.679 343.224 431.146 343.224C430.804 343.224 430.474 343.149 430.154 343C429.855 342.829 429.599 342.584 429.386 342.264L425.13 335.8C424.703 335.117 424.244 334.637 423.754 334.36C423.284 334.083 422.666 333.944 421.898 333.944H418.762V341.112C418.762 341.752 418.58 342.264 418.218 342.648C417.855 343.011 417.364 343.192 416.746 343.192C416.127 343.192 415.626 343.011 415.242 342.648C414.879 342.264 414.698 341.752 414.698 341.112V322.392C414.698 321.773 414.868 321.293 415.21 320.952C415.572 320.611 416.063 320.44 416.682 320.44H424.682C427.242 320.44 429.183 321.016 430.506 322.168C431.85 323.299 432.522 324.941 432.522 327.096C432.522 328.845 432.02 330.285 431.018 331.416C430.036 332.525 428.639 333.24 426.826 333.56C427.444 333.709 427.988 333.976 428.458 334.36C428.927 334.744 429.386 335.277 429.834 335.96L432.746 340.408ZM424.106 330.776C425.663 330.776 426.804 330.488 427.53 329.912C428.255 329.315 428.618 328.408 428.618 327.192C428.618 325.955 428.255 325.059 427.53 324.504C426.804 323.928 425.663 323.64 424.106 323.64H418.73V330.776H424.106ZM438.932 343C438.313 343 437.822 342.829 437.46 342.488C437.118 342.147 436.948 341.667 436.948 341.048V322.392C436.948 321.773 437.118 321.293 437.46 320.952C437.822 320.611 438.313 320.44 438.932 320.44H450.484C451.102 320.44 451.582 320.579 451.924 320.856C452.265 321.133 452.436 321.528 452.436 322.04C452.436 322.573 452.265 322.989 451.924 323.288C451.582 323.565 451.102 323.704 450.484 323.704H440.98V329.912H449.844C450.462 329.912 450.942 330.051 451.284 330.328C451.625 330.605 451.796 331.011 451.796 331.544C451.796 332.056 451.625 332.451 451.284 332.728C450.942 333.005 450.462 333.144 449.844 333.144H440.98V339.736H450.484C451.102 339.736 451.582 339.885 451.924 340.184C452.265 340.461 452.436 340.867 452.436 341.4C452.436 341.912 452.265 342.307 451.924 342.584C451.582 342.861 451.102 343 450.484 343H438.932Z" fill="#212121"/>
<rect x="202.75" y="73.75" width="289.5" height="127.5" rx="23.25" fill="url(#paint3_linear_774_5810)" stroke="url(#paint4_linear_774_5810)" stroke-width="1.5"/>
<path d="M267.946 113.493C267.946 114.72 266.918 115.714 265.65 115.714C264.383 115.714 263.355 114.72 263.355 113.493C263.355 112.267 264.383 111.272 265.65 111.272C266.918 111.272 267.946 112.267 267.946 113.493Z" fill="black"/>
<path d="M267.685 120.71C267.685 121.797 266.774 122.679 265.65 122.679C264.527 122.679 263.616 121.797 263.616 120.71C263.616 119.623 264.527 118.742 265.65 118.742C266.774 118.742 267.685 119.623 267.685 120.71Z" fill="black"/>
<path d="M267.476 127.549C267.476 128.538 266.647 129.341 265.624 129.341C264.602 129.341 263.772 128.538 263.772 127.549C263.772 126.559 264.602 125.757 265.624 125.757C266.647 125.757 267.476 126.559 267.476 127.549Z" fill="black"/>
<path d="M267.215 133.959C267.215 134.809 266.503 135.498 265.624 135.498C264.746 135.498 264.033 134.809 264.033 133.959C264.033 133.108 264.746 132.419 265.624 132.419C266.503 132.419 267.215 133.108 267.215 133.959Z" fill="black"/>
<path d="M266.954 139.864C266.954 140.574 266.359 141.151 265.624 141.151C264.89 141.151 264.294 140.574 264.294 139.864C264.294 139.153 264.89 138.577 265.624 138.577C266.359 138.577 266.954 139.153 266.954 139.864Z" fill="black"/>
<path d="M266.694 145.264C266.694 145.835 266.215 146.298 265.624 146.298C265.034 146.298 264.555 145.835 264.555 145.264C264.555 144.692 265.034 144.229 265.624 144.229C266.215 144.229 266.694 144.692 266.694 145.264Z" fill="black"/>
<path d="M266.433 150.159C266.433 150.591 266.071 150.942 265.624 150.942C265.178 150.942 264.816 150.591 264.816 150.159C264.816 149.727 265.178 149.377 265.624 149.377C266.071 149.377 266.433 149.727 266.433 150.159Z" fill="black"/>
<path d="M275.301 120.71C275.301 121.797 274.39 122.679 273.266 122.679C272.143 122.679 271.232 121.797 271.232 120.71C271.232 119.623 272.143 118.742 273.266 118.742C274.39 118.742 275.301 119.623 275.301 120.71Z" fill="black"/>
<path d="M260.069 120.71C260.069 121.797 259.158 122.679 258.034 122.679C256.911 122.679 256 121.797 256 120.71C256 119.623 256.911 118.742 258.034 118.742C259.158 118.742 260.069 119.623 260.069 120.71Z" fill="black"/>
<path d="M275.092 127.549C275.092 128.538 274.263 129.341 273.24 129.341C272.217 129.341 271.388 128.538 271.388 127.549C271.388 126.559 272.217 125.757 273.24 125.757C274.263 125.757 275.092 126.559 275.092 127.549Z" fill="black"/>
<path d="M259.86 127.549C259.86 128.538 259.031 129.341 258.008 129.341C256.986 129.341 256.156 128.538 256.156 127.549C256.156 126.559 256.986 125.757 258.008 125.757C259.031 125.757 259.86 126.559 259.86 127.549Z" fill="black"/>
<path d="M274.831 133.959C274.831 134.809 274.119 135.498 273.24 135.498C272.362 135.498 271.649 134.809 271.649 133.959C271.649 133.108 272.362 132.419 273.24 132.419C274.119 132.419 274.831 133.108 274.831 133.959Z" fill="black"/>
<path d="M259.599 133.959C259.599 134.809 258.887 135.498 258.008 135.498C257.13 135.498 256.417 134.809 256.417 133.959C256.417 133.108 257.13 132.419 258.008 132.419C258.887 132.419 259.599 133.108 259.599 133.959Z" fill="black"/>
<path d="M274.57 139.864C274.57 140.574 273.975 141.151 273.24 141.151C272.506 141.151 271.91 140.574 271.91 139.864C271.91 139.153 272.506 138.577 273.24 138.577C273.975 138.577 274.57 139.153 274.57 139.864Z" fill="black"/>
<path d="M259.339 139.864C259.339 140.574 258.743 141.151 258.008 141.151C257.274 141.151 256.678 140.574 256.678 139.864C256.678 139.153 257.274 138.577 258.008 138.577C258.743 138.577 259.339 139.153 259.339 139.864Z" fill="black"/>
<path d="M274.31 145.264C274.31 145.835 273.831 146.298 273.24 146.298C272.65 146.298 272.171 145.835 272.171 145.264C272.171 144.692 272.65 144.229 273.24 144.229C273.831 144.229 274.31 144.692 274.31 145.264Z" fill="black"/>
<path d="M259.078 145.264C259.078 145.835 258.599 146.298 258.008 146.298C257.418 146.298 256.939 145.835 256.939 145.264C256.939 144.692 257.418 144.229 258.008 144.229C258.599 144.229 259.078 144.692 259.078 145.264Z" fill="black"/>
<path d="M274.049 150.159C274.049 150.591 273.687 150.942 273.24 150.942C272.794 150.942 272.432 150.591 272.432 150.159C272.432 149.727 272.794 149.377 273.24 149.377C273.687 149.377 274.049 149.727 274.049 150.159Z" fill="black"/>
<path d="M258.817 150.159C258.817 150.591 258.455 150.942 258.008 150.942C257.562 150.942 257.2 150.591 257.2 150.159C257.2 149.727 257.562 149.377 258.008 149.377C258.455 149.377 258.817 149.727 258.817 150.159Z" fill="black"/>
<path d="M290.793 148.721C290.793 147.495 289.766 146.5 288.498 146.5C287.231 146.5 286.203 147.495 286.203 148.721C286.203 149.947 287.231 150.942 288.498 150.942C289.766 150.942 290.793 149.947 290.793 148.721Z" fill="#3432CA"/>
<path d="M290.533 141.504C290.533 140.417 289.622 139.536 288.498 139.536C287.375 139.536 286.464 140.417 286.464 141.504C286.464 142.591 287.375 143.472 288.498 143.472C289.622 143.472 290.533 142.591 290.533 141.504Z" fill="#3432CA"/>
<path d="M290.324 134.665C290.324 133.676 289.495 132.874 288.472 132.874C287.449 132.874 286.62 133.676 286.62 134.665C286.62 135.655 287.449 136.457 288.472 136.457C289.495 136.457 290.324 135.655 290.324 134.665Z" fill="#3432CA"/>
<path d="M290.063 128.256C290.063 127.405 289.351 126.716 288.472 126.716C287.593 126.716 286.881 127.405 286.881 128.256C286.881 129.106 287.593 129.795 288.472 129.795C289.351 129.795 290.063 129.106 290.063 128.256Z" fill="#3432CA"/>
<path d="M289.802 122.351C289.802 121.64 289.207 121.064 288.472 121.064C287.737 121.064 287.142 121.64 287.142 122.351C287.142 123.061 287.737 123.638 288.472 123.638C289.207 123.638 289.802 123.061 289.802 122.351Z" fill="#3432CA"/>
<path d="M289.542 116.95C289.542 116.379 289.063 115.916 288.472 115.916C287.882 115.916 287.403 116.379 287.403 116.95C287.403 117.522 287.882 117.985 288.472 117.985C289.063 117.985 289.542 117.522 289.542 116.95Z" fill="#3432CA"/>
<path d="M289.281 112.055C289.281 111.623 288.919 111.272 288.472 111.272C288.026 111.272 287.664 111.623 287.664 112.055C287.664 112.487 288.026 112.837 288.472 112.837C288.919 112.837 289.281 112.487 289.281 112.055Z" fill="#3432CA"/>
<path d="M298.149 141.504C298.149 140.417 297.238 139.536 296.114 139.536C294.991 139.536 294.08 140.417 294.08 141.504C294.08 142.591 294.991 143.472 296.114 143.472C297.238 143.472 298.149 142.591 298.149 141.504Z" fill="#3432CA"/>
<path d="M282.917 141.504C282.917 140.417 282.006 139.536 280.882 139.536C279.759 139.536 278.848 140.417 278.848 141.504C278.848 142.591 279.759 143.472 280.882 143.472C282.006 143.472 282.917 142.591 282.917 141.504Z" fill="#3432CA"/>
<path d="M297.94 134.665C297.94 133.676 297.111 132.874 296.088 132.874C295.065 132.874 294.236 133.676 294.236 134.665C294.236 135.655 295.065 136.457 296.088 136.457C297.111 136.457 297.94 135.655 297.94 134.665Z" fill="#3432CA"/>
<path d="M282.708 134.665C282.708 133.676 281.879 132.874 280.856 132.874C279.833 132.874 279.004 133.676 279.004 134.665C279.004 135.655 279.833 136.457 280.856 136.457C281.879 136.457 282.708 135.655 282.708 134.665Z" fill="#3432CA"/>
<path d="M297.679 128.256C297.679 127.405 296.967 126.716 296.088 126.716C295.209 126.716 294.497 127.405 294.497 128.256C294.497 129.106 295.209 129.795 296.088 129.795C296.967 129.795 297.679 129.106 297.679 128.256Z" fill="#3432CA"/>
<path d="M282.447 128.256C282.447 127.405 281.735 126.716 280.856 126.716C279.977 126.716 279.265 127.405 279.265 128.256C279.265 129.106 279.977 129.795 280.856 129.795C281.735 129.795 282.447 129.106 282.447 128.256Z" fill="#3432CA"/>
<path d="M297.418 122.351C297.418 121.64 296.823 121.064 296.088 121.064C295.353 121.064 294.758 121.64 294.758 122.351C294.758 123.061 295.353 123.638 296.088 123.638C296.823 123.638 297.418 123.061 297.418 122.351Z" fill="#3432CA"/>
<path d="M282.186 122.351C282.186 121.64 281.591 121.064 280.856 121.064C280.122 121.064 279.526 121.64 279.526 122.351C279.526 123.061 280.122 123.638 280.856 123.638C281.591 123.638 282.186 123.061 282.186 122.351Z" fill="#3432CA"/>
<path d="M297.157 116.95C297.157 116.379 296.679 115.916 296.088 115.916C295.497 115.916 295.019 116.379 295.019 116.95C295.019 117.522 295.497 117.985 296.088 117.985C296.679 117.985 297.157 117.522 297.157 116.95Z" fill="#3432CA"/>
<path d="M281.926 116.95C281.926 116.379 281.447 115.916 280.856 115.916C280.266 115.916 279.787 116.379 279.787 116.95C279.787 117.522 280.266 117.985 280.856 117.985C281.447 117.985 281.926 117.522 281.926 116.95Z" fill="#3432CA"/>
<path d="M296.897 112.055C296.897 111.623 296.535 111.272 296.088 111.272C295.642 111.272 295.28 111.623 295.28 112.055C295.28 112.487 295.642 112.837 296.088 112.837C296.535 112.837 296.897 112.487 296.897 112.055Z" fill="#3432CA"/>
<path d="M281.665 112.055C281.665 111.623 281.303 111.272 280.856 111.272C280.41 111.272 280.048 111.623 280.048 112.055C280.048 112.487 280.41 112.837 280.856 112.837C281.303 112.837 281.665 112.487 281.665 112.055Z" fill="#3432CA"/>
<path d="M334.822 118.768V119.462C334.035 119.485 333.433 119.601 333.017 119.809C332.623 120.017 332.357 120.353 332.218 120.815C332.08 121.278 332.01 121.938 332.01 122.794V143.516C331.871 143.516 331.732 143.516 331.594 143.516C331.478 143.516 331.351 143.516 331.212 143.516L316.633 120.989V139.316C316.633 140.149 316.703 140.809 316.842 141.295C317.004 141.758 317.304 142.093 317.744 142.301C318.207 142.486 318.89 142.602 319.792 142.648V143.343C319.375 143.296 318.832 143.273 318.161 143.273C317.49 143.25 316.853 143.239 316.252 143.239C315.673 143.239 315.083 143.25 314.481 143.273C313.903 143.273 313.417 143.296 313.023 143.343V142.648C313.81 142.602 314.4 142.486 314.794 142.301C315.21 142.093 315.488 141.758 315.627 141.295C315.766 140.809 315.835 140.149 315.835 139.316V122.447C315.835 121.591 315.766 120.966 315.627 120.573C315.488 120.156 315.21 119.878 314.794 119.739C314.4 119.577 313.81 119.485 313.023 119.462V118.768C313.417 118.791 313.903 118.814 314.481 118.837C315.083 118.86 315.673 118.872 316.252 118.872C316.761 118.872 317.247 118.86 317.709 118.837C318.172 118.814 318.589 118.791 318.959 118.768L331.212 137.65V122.794C331.212 121.938 331.131 121.278 330.969 120.815C330.83 120.353 330.529 120.017 330.066 119.809C329.627 119.601 328.956 119.485 328.053 119.462V118.768C328.47 118.791 329.013 118.814 329.685 118.837C330.379 118.86 331.015 118.872 331.594 118.872C332.195 118.872 332.785 118.86 333.364 118.837C333.965 118.814 334.451 118.791 334.822 118.768Z" fill="black"/>
<path d="M346.382 118.768V119.462C345.595 119.485 344.994 119.577 344.577 119.739C344.184 119.878 343.918 120.156 343.779 120.573C343.64 120.966 343.571 121.591 343.571 122.447V139.663C343.571 140.496 343.64 141.121 343.779 141.538C343.918 141.954 344.184 142.232 344.577 142.371C344.994 142.51 345.595 142.602 346.382 142.648V143.343C345.85 143.296 345.179 143.273 344.369 143.273C343.582 143.25 342.784 143.239 341.974 143.239C341.071 143.239 340.227 143.25 339.44 143.273C338.653 143.273 338.017 143.296 337.531 143.343V142.648C338.318 142.602 338.908 142.51 339.301 142.371C339.718 142.232 339.995 141.954 340.134 141.538C340.273 141.121 340.343 140.496 340.343 139.663V122.447C340.343 121.591 340.273 120.966 340.134 120.573C339.995 120.156 339.718 119.878 339.301 119.739C338.908 119.577 338.318 119.485 337.531 119.462V118.768C338.017 118.791 338.653 118.814 339.44 118.837C340.227 118.86 341.071 118.872 341.974 118.872C342.784 118.872 343.582 118.86 344.369 118.837C345.179 118.814 345.85 118.791 346.382 118.768Z" fill="black"/>
<path d="M376.611 118.768V119.462C375.824 119.485 375.222 119.577 374.806 119.739C374.412 119.878 374.146 120.156 374.007 120.573C373.868 120.966 373.799 121.591 373.799 122.447V139.663C373.799 140.496 373.868 141.121 374.007 141.538C374.146 141.954 374.412 142.232 374.806 142.371C375.222 142.51 375.824 142.602 376.611 142.648V143.343C376.078 143.296 375.407 143.273 374.597 143.273C373.811 143.25 373.012 143.239 372.202 143.239C371.3 143.239 370.455 143.25 369.668 143.273C368.882 143.273 368.245 143.296 367.759 143.343V142.648C368.546 142.602 369.136 142.51 369.53 142.371C369.946 142.232 370.224 141.954 370.363 141.538C370.501 141.121 370.571 140.496 370.571 139.663V120.573L370.71 120.677L362.206 143.516H361.65L352.903 120.989V139.316C352.903 140.149 352.973 140.809 353.111 141.295C353.273 141.758 353.574 142.093 354.014 142.301C354.477 142.486 355.159 142.602 356.062 142.648V143.343C355.645 143.296 355.102 143.273 354.43 143.273C353.759 143.25 353.123 143.239 352.521 143.239C351.943 143.239 351.353 143.25 350.751 143.273C350.173 143.273 349.687 143.296 349.293 143.343V142.648C350.08 142.602 350.67 142.486 351.064 142.301C351.48 142.093 351.758 141.758 351.897 141.295C352.035 140.809 352.105 140.149 352.105 139.316V122.447C352.105 121.591 352.035 120.966 351.897 120.573C351.758 120.156 351.48 119.878 351.064 119.739C350.67 119.577 350.08 119.485 349.293 119.462V118.768C349.687 118.791 350.173 118.814 350.751 118.837C351.353 118.86 351.943 118.872 352.521 118.872C353.03 118.872 353.551 118.86 354.083 118.837C354.639 118.814 355.102 118.791 355.472 118.768L363.351 139.524L362.761 139.802L370.571 118.872C370.849 118.872 371.115 118.872 371.369 118.872C371.647 118.872 371.925 118.872 372.202 118.872C373.012 118.872 373.811 118.86 374.597 118.837C375.407 118.814 376.078 118.791 376.611 118.768Z" fill="black"/>
<path d="M396.85 118.768C396.757 119.577 396.688 120.364 396.642 121.128C396.619 121.892 396.607 122.47 396.607 122.863C396.607 123.28 396.619 123.685 396.642 124.078C396.665 124.449 396.688 124.761 396.711 125.015H395.913C395.774 123.65 395.577 122.574 395.323 121.787C395.068 120.977 394.629 120.411 394.004 120.087C393.402 119.739 392.488 119.566 391.262 119.566H388.381C387.594 119.566 386.992 119.635 386.576 119.774C386.182 119.89 385.916 120.156 385.777 120.573C385.639 120.966 385.569 121.591 385.569 122.447V139.663C385.569 140.496 385.639 141.121 385.777 141.538C385.916 141.954 386.182 142.232 386.576 142.371C386.992 142.486 387.594 142.544 388.381 142.544H390.915C392.372 142.544 393.472 142.348 394.212 141.954C394.976 141.561 395.519 140.924 395.843 140.045C396.191 139.143 396.445 137.928 396.607 136.401H397.405C397.336 137.025 397.301 137.858 397.301 138.9C397.301 139.339 397.313 139.976 397.336 140.809C397.382 141.619 397.452 142.463 397.544 143.343C396.364 143.296 395.034 143.273 393.553 143.273C392.072 143.25 390.753 143.239 389.596 143.239C389.086 143.239 388.427 143.239 387.617 143.239C386.83 143.239 385.974 143.25 385.048 143.273C384.123 143.273 383.186 143.285 382.237 143.308C381.288 143.308 380.386 143.32 379.529 143.343V142.648C380.316 142.602 380.906 142.51 381.3 142.371C381.716 142.232 381.994 141.954 382.133 141.538C382.272 141.121 382.341 140.496 382.341 139.663V122.447C382.341 121.591 382.272 120.966 382.133 120.573C381.994 120.156 381.716 119.878 381.3 119.739C380.906 119.577 380.316 119.485 379.529 119.462V118.768C380.386 118.791 381.288 118.814 382.237 118.837C383.186 118.837 384.123 118.849 385.048 118.872C385.974 118.872 386.83 118.872 387.617 118.872C388.427 118.872 389.086 118.872 389.596 118.872C390.66 118.872 391.863 118.872 393.205 118.872C394.571 118.849 395.786 118.814 396.85 118.768ZM390.88 130.639C390.88 130.639 390.88 130.754 390.88 130.986C390.88 131.217 390.88 131.333 390.88 131.333H384.528C384.528 131.333 384.528 131.217 384.528 130.986C384.528 130.754 384.528 130.639 384.528 130.639H390.88ZM391.886 126.057C391.794 127.376 391.748 128.382 391.748 129.077C391.771 129.771 391.782 130.407 391.782 130.986C391.782 131.564 391.794 132.201 391.817 132.895C391.84 133.589 391.898 134.596 391.991 135.915H391.192C391.1 135.174 390.984 134.457 390.845 133.763C390.729 133.045 390.452 132.467 390.012 132.027C389.596 131.564 388.878 131.333 387.86 131.333V130.639C388.624 130.639 389.202 130.488 389.596 130.187C390.012 129.863 390.313 129.458 390.498 128.972C390.683 128.487 390.81 127.989 390.88 127.48C390.949 126.948 391.019 126.473 391.088 126.057H391.886Z" fill="black"/>
<path d="M408.109 118.386C409.266 118.386 410.146 118.525 410.747 118.802C411.349 119.057 411.881 119.346 412.344 119.67C412.622 119.832 412.842 119.959 413.003 120.052C413.189 120.121 413.362 120.156 413.524 120.156C413.756 120.156 413.918 120.029 414.01 119.774C414.126 119.52 414.218 119.138 414.288 118.629H415.086C415.063 119.022 415.028 119.496 414.982 120.052C414.959 120.584 414.936 121.301 414.913 122.204C414.913 123.083 414.913 124.252 414.913 125.71H414.114C414.045 124.599 413.802 123.534 413.385 122.516C412.969 121.498 412.356 120.665 411.546 120.017C410.759 119.369 409.718 119.045 408.422 119.045C407.195 119.045 406.177 119.415 405.367 120.156C404.58 120.896 404.187 121.868 404.187 123.072C404.187 124.113 404.453 124.992 404.985 125.71C405.518 126.404 406.223 127.04 407.103 127.619C408.005 128.174 408.977 128.776 410.018 129.424C411.222 130.164 412.286 130.905 413.212 131.645C414.161 132.363 414.901 133.161 415.433 134.04C415.989 134.92 416.266 135.984 416.266 137.234C416.266 138.715 415.931 139.941 415.26 140.913C414.589 141.885 413.698 142.614 412.587 143.1C411.476 143.586 410.25 143.829 408.908 143.829C407.681 143.829 406.709 143.69 405.992 143.412C405.275 143.134 404.661 142.845 404.152 142.544C403.643 142.22 403.25 142.058 402.972 142.058C402.741 142.058 402.567 142.186 402.451 142.44C402.359 142.695 402.278 143.077 402.208 143.586H401.41C401.456 143.1 401.48 142.533 401.48 141.885C401.503 141.214 401.514 140.346 401.514 139.282C401.537 138.217 401.549 136.875 401.549 135.255H402.347C402.44 136.644 402.694 137.939 403.111 139.143C403.551 140.346 404.21 141.318 405.089 142.058C405.992 142.776 407.184 143.134 408.665 143.134C409.428 143.134 410.146 142.984 410.817 142.683C411.511 142.359 412.078 141.862 412.518 141.191C412.957 140.496 413.177 139.605 413.177 138.518C413.177 137.569 412.946 136.748 412.483 136.053C412.043 135.336 411.418 134.677 410.608 134.075C409.799 133.45 408.85 132.814 407.762 132.166C406.675 131.495 405.656 130.812 404.708 130.118C403.759 129.424 402.995 128.625 402.417 127.723C401.861 126.797 401.584 125.687 401.584 124.391C401.584 123.025 401.885 121.903 402.486 121.024C403.111 120.121 403.921 119.462 404.916 119.045C405.911 118.606 406.975 118.386 408.109 118.386Z" fill="black"/>
<path d="M429.01 118.594L437.48 140.427C437.827 141.306 438.22 141.896 438.66 142.197C439.1 142.475 439.505 142.625 439.875 142.648V143.343C439.412 143.296 438.845 143.273 438.174 143.273C437.503 143.25 436.832 143.239 436.161 143.239C435.258 143.239 434.414 143.25 433.627 143.273C432.84 143.273 432.204 143.296 431.718 143.343V142.648C432.898 142.602 433.65 142.405 433.974 142.058C434.298 141.688 434.229 140.913 433.766 139.733L427.31 122.482L427.865 122.03L421.825 137.72C421.455 138.645 421.235 139.432 421.166 140.08C421.096 140.705 421.154 141.202 421.339 141.572C421.548 141.943 421.883 142.209 422.346 142.371C422.832 142.533 423.434 142.625 424.151 142.648V143.343C423.503 143.296 422.82 143.273 422.103 143.273C421.409 143.25 420.761 143.239 420.159 143.239C419.581 143.239 419.083 143.25 418.667 143.273C418.273 143.273 417.903 143.296 417.556 143.343V142.648C418.019 142.533 418.493 142.267 418.979 141.85C419.465 141.41 419.905 140.67 420.298 139.629L428.455 118.594C428.548 118.594 428.64 118.594 428.733 118.594C428.825 118.594 428.918 118.594 429.01 118.594ZM433.245 133.346V134.04H422.901L423.249 133.346H433.245Z" fill="black"/>
<defs>
<linearGradient id="paint0_linear_774_5810" x1="-55.5" y1="293.5" x2="750" y2="272.5" gradientUnits="userSpaceOnUse">
<stop stop-color="#010102"/>
<stop offset="1" stop-color="#3432C7"/>
</linearGradient>
<linearGradient id="paint1_linear_774_5810" x1="348" y1="325" x2="347.5" y2="411" gradientUnits="userSpaceOnUse">
<stop stop-color="white"/>
<stop offset="1" stop-color="white" stop-opacity="0"/>
</linearGradient>
<linearGradient id="paint2_linear_774_5810" x1="347.914" y1="400.254" x2="348.592" y2="224.641" gradientUnits="userSpaceOnUse">
<stop stop-color="white" stop-opacity="0"/>
<stop offset="1" stop-color="white"/>
</linearGradient>
<linearGradient id="paint3_linear_774_5810" x1="347.753" y1="153.342" x2="347.437" y2="202" gradientUnits="userSpaceOnUse">
<stop stop-color="white"/>
<stop offset="1" stop-color="white" stop-opacity="0"/>
</linearGradient>
<linearGradient id="paint4_linear_774_5810" x1="347.709" y1="195.92" x2="348.139" y2="96.5603" gradientUnits="userSpaceOnUse">
<stop stop-color="white" stop-opacity="0"/>
<stop offset="1" stop-color="white"/>
</linearGradient>
</defs>
</svg>
