<svg width="591" height="367" viewBox="0 0 591 367" fill="none" xmlns="http://www.w3.org/2000/svg">
<path d="M264.895 185V161.084C264.895 148.934 255.045 139.084 242.895 139.084H200.898C188.295 139.084 178.079 128.868 178.079 116.266V74" stroke="url(#paint0_linear_810_5492)" stroke-width="1.14092"/>
<path d="M338.738 209V176.811C338.738 164.661 348.588 154.811 360.738 154.811H402.735C415.337 154.811 425.554 144.595 425.554 131.993V78" stroke="url(#paint1_linear_810_5492)" stroke-width="1.14092"/>
<path d="M502.388 219H437.083C428.798 219 422.083 225.716 422.083 234V247C422.083 254.732 415.815 261 408.083 261H372.664" stroke="url(#paint2_linear_810_5492)" stroke-width="1.14092"/>
<path d="M78.2926 180H154.099C162.384 180 169.099 186.716 169.099 195V207.5C169.099 215.232 175.367 221.5 183.099 221.5H224.98" stroke="url(#paint3_linear_810_5492)" stroke-width="1.14092"/>
<rect x="1.70703" y="142.75" width="78.5" height="78.5" rx="39.25" fill="url(#paint4_linear_810_5492)" stroke="url(#paint5_linear_810_5492)" stroke-width="1.5"/>
<g clip-path="url(#clip0_810_5492)">
<path d="M38.0373 177.425C46.366 177.425 53.1176 174.42 53.1176 170.712C53.1176 167.005 46.366 164 38.0373 164C29.7087 164 22.957 167.005 22.957 170.712C22.957 174.42 29.7087 177.425 38.0373 177.425Z" fill="#009900"/>
<path d="M41.5295 195.364C40.4724 195.095 39.683 194.233 39.4836 193.18C39.0066 193.201 38.5241 193.212 38.0373 193.212C29.7071 193.212 22.957 190.21 22.957 186.5C22.957 188.048 22.957 189.083 22.957 191.632C22.957 195.341 29.7071 198.345 38.0373 198.345C39.2353 198.345 40.3957 198.276 41.5142 198.158C41.0289 197.297 41.0065 196.235 41.5295 195.364Z" fill="#009900"/>
<path d="M38.0373 191.372C38.5087 191.372 38.9718 191.359 39.432 191.341V190.571C39.432 189.282 40.312 188.174 41.5435 187.867C41.2199 187.319 41.1014 186.695 41.1781 186.094C40.1642 186.189 39.1154 186.241 38.0373 186.241C29.7071 186.241 22.957 183.238 22.957 179.528C22.957 181.076 22.957 182.111 22.957 184.661C22.9584 188.368 29.7071 191.372 38.0373 191.372Z" fill="#009900"/>
<path d="M38.0359 184.398C39.5254 184.398 40.9619 184.299 42.3217 184.12L43.4486 182.993C43.9883 182.452 44.7024 182.175 45.422 182.175C45.9059 182.175 46.3913 182.301 46.8278 182.556C47.1458 181.341 48.2475 180.475 49.525 180.475H51.617C51.6547 180.475 51.6923 180.484 51.7286 180.485C52.6114 179.633 53.1149 178.686 53.1149 177.686C53.1149 176.323 53.1149 174.904 53.1149 172.554C53.1149 176.262 46.3648 179.266 38.0346 179.266C29.7043 179.266 22.957 176.262 22.957 172.554C22.957 174.102 22.957 175.137 22.957 177.686C22.957 181.394 29.7057 184.398 38.0359 184.398Z" fill="#009900"/>
<path d="M58.9584 192.662V190.57L56.469 190.163C56.3225 189.574 56.091 189.02 55.7856 188.51L57.236 186.443L55.7563 184.963L53.7145 186.432C53.2055 186.124 52.6476 185.888 52.0549 185.742L51.6198 183.265H49.5278L49.1248 185.735C48.5306 185.88 47.97 186.111 47.4596 186.417L45.4234 184.963L43.9436 186.443L45.376 188.49C45.0649 189.004 44.8293 189.563 44.6814 190.161L42.2227 190.57V192.662L44.68 193.097C44.8265 193.695 45.0622 194.256 45.3746 194.769L43.9227 196.798L45.4025 198.279L47.4526 196.844C47.9658 197.153 48.5251 197.384 49.1178 197.53L49.5278 200H51.6198L52.0591 197.524C52.649 197.376 53.2069 197.139 53.7159 196.83L55.7814 198.279L57.2597 196.798L55.7856 194.752C56.091 194.243 56.3225 193.688 56.4676 193.097L58.9584 192.662ZM50.5905 194.55C48.9811 194.55 47.6729 193.245 47.6729 191.633C47.6729 190.023 48.9811 188.715 50.5905 188.715C52.2027 188.715 53.5081 190.023 53.5081 191.633C53.5081 193.245 52.2027 194.55 50.5905 194.55Z" fill="#009900"/>
</g>
<path d="M1.99432 236V227.273H4.94318C5.625 227.273 6.18466 227.389 6.62216 227.622C7.05966 227.852 7.38352 228.169 7.59375 228.572C7.80398 228.976 7.90909 229.435 7.90909 229.949C7.90909 230.463 7.80398 230.919 7.59375 231.317C7.38352 231.714 7.06108 232.027 6.62642 232.254C6.19176 232.479 5.63636 232.591 4.96023 232.591H2.57386V231.636H4.92614C5.39205 231.636 5.76705 231.568 6.05114 231.432C6.33807 231.295 6.54545 231.102 6.6733 230.852C6.80398 230.599 6.86932 230.298 6.86932 229.949C6.86932 229.599 6.80398 229.294 6.6733 229.033C6.54261 228.771 6.33381 228.57 6.04688 228.428C5.75994 228.283 5.38068 228.21 4.90909 228.21H3.05114V236H1.99432ZM6.10227 232.08L8.25 236H7.02273L4.90909 232.08H6.10227ZM12.2077 236.136C11.5771 236.136 11.033 235.997 10.5756 235.719C10.1211 235.438 9.77024 235.045 9.52308 234.543C9.27876 234.037 9.15661 233.449 9.15661 232.778C9.15661 232.108 9.27876 231.517 9.52308 231.006C9.77024 230.491 10.114 230.091 10.5543 229.804C10.9975 229.514 11.5146 229.369 12.1055 229.369C12.4464 229.369 12.783 229.426 13.1154 229.54C13.4478 229.653 13.7504 229.838 14.0231 230.094C14.2958 230.347 14.5131 230.682 14.6751 231.099C14.837 231.517 14.918 232.031 14.918 232.642V233.068H9.87251V232.199H13.8952C13.8952 231.83 13.8214 231.5 13.6737 231.21C13.5288 230.92 13.3214 230.692 13.0515 230.524C12.7844 230.357 12.4691 230.273 12.1055 230.273C11.7049 230.273 11.3583 230.372 11.0657 230.571C10.7759 230.767 10.5529 231.023 10.3967 231.338C10.2404 231.653 10.1623 231.991 10.1623 232.352V232.932C10.1623 233.426 10.2475 233.845 10.418 234.189C10.5913 234.53 10.8313 234.79 11.1381 234.969C11.445 235.145 11.8015 235.233 12.2077 235.233C12.4719 235.233 12.7106 235.196 12.9237 235.122C13.1396 235.045 13.3256 234.932 13.4819 234.781C13.6381 234.628 13.7589 234.437 13.8441 234.21L14.8157 234.483C14.7134 234.812 14.5415 235.102 14.3001 235.352C14.0586 235.599 13.7603 235.793 13.4052 235.932C13.0501 236.068 12.6509 236.136 12.2077 236.136ZM18.9194 236.136C18.3739 236.136 17.8924 235.999 17.4748 235.723C17.0572 235.445 16.7305 235.053 16.4947 234.547C16.2589 234.038 16.141 233.438 16.141 232.744C16.141 232.057 16.2589 231.46 16.4947 230.955C16.7305 230.449 17.0586 230.058 17.479 229.783C17.8995 229.507 18.3853 229.369 18.9364 229.369C19.3626 229.369 19.6992 229.44 19.9464 229.582C20.1964 229.722 20.3867 229.881 20.5174 230.06C20.6509 230.236 20.7546 230.381 20.8285 230.494H20.9137V227.273H21.9194V236H20.9478V234.994H20.8285C20.7546 235.114 20.6495 235.264 20.5131 235.446C20.3768 235.625 20.1822 235.786 19.9293 235.928C19.6765 236.067 19.3398 236.136 18.9194 236.136ZM19.0558 235.233C19.4592 235.233 19.8001 235.128 20.0785 234.918C20.3569 234.705 20.5685 234.411 20.7134 234.036C20.8583 233.658 20.9308 233.222 20.9308 232.727C20.9308 232.239 20.8597 231.811 20.7177 231.445C20.5756 231.075 20.3654 230.788 20.087 230.584C19.8086 230.376 19.4648 230.273 19.0558 230.273C18.6296 230.273 18.2745 230.382 17.9904 230.601C17.7092 230.817 17.4975 231.111 17.3555 231.483C17.2163 231.852 17.1467 232.267 17.1467 232.727C17.1467 233.193 17.2177 233.616 17.3597 233.997C17.5046 234.375 17.7177 234.676 17.9989 234.901C18.283 235.122 18.6353 235.233 19.0558 235.233ZM28.0259 233.324V229.455H29.0316V236H28.0259V234.892H27.9577C27.8043 235.224 27.5657 235.507 27.2418 235.74C26.918 235.97 26.5089 236.085 26.0146 236.085C25.6055 236.085 25.2418 235.996 24.9237 235.817C24.6055 235.635 24.3555 235.362 24.1737 234.999C23.9918 234.632 23.9009 234.17 23.9009 233.614V229.455H24.9066V233.545C24.9066 234.023 25.0401 234.403 25.3072 234.688C25.5771 234.972 25.9208 235.114 26.3384 235.114C26.5884 235.114 26.8427 235.05 27.1012 234.922C27.3626 234.794 27.5813 234.598 27.7575 234.334C27.9364 234.07 28.0259 233.733 28.0259 233.324ZM33.5327 236.136C32.919 236.136 32.3906 235.991 31.9474 235.702C31.5043 235.412 31.1634 235.013 30.9247 234.504C30.6861 233.996 30.5668 233.415 30.5668 232.761C30.5668 232.097 30.6889 231.51 30.9332 231.001C31.1804 230.49 31.5241 230.091 31.9645 229.804C32.4077 229.514 32.9247 229.369 33.5156 229.369C33.9759 229.369 34.3906 229.455 34.7599 229.625C35.1293 229.795 35.4318 230.034 35.6676 230.341C35.9034 230.648 36.0497 231.006 36.1065 231.415H35.1009C35.0241 231.116 34.8537 230.852 34.5895 230.622C34.3281 230.389 33.9759 230.273 33.5327 230.273C33.1406 230.273 32.7969 230.375 32.5014 230.58C32.2088 230.781 31.9801 231.067 31.8153 231.436C31.6534 231.803 31.5724 232.233 31.5724 232.727C31.5724 233.233 31.652 233.673 31.8111 234.048C31.973 234.423 32.2003 234.714 32.4929 234.922C32.7884 235.129 33.1349 235.233 33.5327 235.233C33.794 235.233 34.0312 235.188 34.2443 235.097C34.4574 235.006 34.6378 234.875 34.7855 234.705C34.9332 234.534 35.0384 234.33 35.1009 234.091H36.1065C36.0497 234.477 35.9091 234.825 35.6847 235.135C35.4631 235.442 35.169 235.686 34.8026 235.868C34.4389 236.047 34.0156 236.136 33.5327 236.136ZM40.321 236.136C39.6903 236.136 39.1463 235.997 38.6889 235.719C38.2344 235.438 37.8835 235.045 37.6364 234.543C37.392 234.037 37.2699 233.449 37.2699 232.778C37.2699 232.108 37.392 231.517 37.6364 231.006C37.8835 230.491 38.2273 230.091 38.6676 229.804C39.1108 229.514 39.6278 229.369 40.2188 229.369C40.5597 229.369 40.8963 229.426 41.2287 229.54C41.5611 229.653 41.8636 229.838 42.1364 230.094C42.4091 230.347 42.6264 230.682 42.7884 231.099C42.9503 231.517 43.0312 232.031 43.0312 232.642V233.068H37.9858V232.199H42.0085C42.0085 231.83 41.9347 231.5 41.7869 231.21C41.642 230.92 41.4347 230.692 41.1648 230.524C40.8977 230.357 40.5824 230.273 40.2188 230.273C39.8182 230.273 39.4716 230.372 39.179 230.571C38.8892 230.767 38.6662 231.023 38.5099 231.338C38.3537 231.653 38.2756 231.991 38.2756 232.352V232.932C38.2756 233.426 38.3608 233.845 38.5312 234.189C38.7045 234.53 38.9446 234.79 39.2514 234.969C39.5582 235.145 39.9148 235.233 40.321 235.233C40.5852 235.233 40.8239 235.196 41.0369 235.122C41.2528 235.045 41.4389 234.932 41.5952 234.781C41.7514 234.628 41.8722 234.437 41.9574 234.21L42.929 234.483C42.8267 234.812 42.6548 235.102 42.4134 235.352C42.1719 235.599 41.8736 235.793 41.5185 235.932C41.1634 236.068 40.7642 236.136 40.321 236.136ZM47.0327 236.136C46.4872 236.136 46.0057 235.999 45.5881 235.723C45.1705 235.445 44.8438 235.053 44.608 234.547C44.3722 234.038 44.2543 233.438 44.2543 232.744C44.2543 232.057 44.3722 231.46 44.608 230.955C44.8438 230.449 45.1719 230.058 45.5923 229.783C46.0128 229.507 46.4986 229.369 47.0497 229.369C47.4759 229.369 47.8125 229.44 48.0597 229.582C48.3097 229.722 48.5 229.881 48.6307 230.06C48.7642 230.236 48.8679 230.381 48.9418 230.494H49.027V227.273H50.0327V236H49.0611V234.994H48.9418C48.8679 235.114 48.7628 235.264 48.6264 235.446C48.4901 235.625 48.2955 235.786 48.0426 235.928C47.7898 236.067 47.4531 236.136 47.0327 236.136ZM47.169 235.233C47.5724 235.233 47.9134 235.128 48.1918 234.918C48.4702 234.705 48.6818 234.411 48.8267 234.036C48.9716 233.658 49.044 233.222 49.044 232.727C49.044 232.239 48.973 231.811 48.831 231.445C48.6889 231.075 48.4787 230.788 48.2003 230.584C47.9219 230.376 47.5781 230.273 47.169 230.273C46.7429 230.273 46.3878 230.382 46.1037 230.601C45.8224 230.817 45.6108 231.111 45.4688 231.483C45.3295 231.852 45.2599 232.267 45.2599 232.727C45.2599 233.193 45.331 233.616 45.473 233.997C45.6179 234.375 45.831 234.676 46.1122 234.901C46.3963 235.122 46.7486 235.233 47.169 235.233ZM58.2188 236H55.5256V227.273H58.3381C59.1847 227.273 59.9091 227.447 60.5114 227.797C61.1136 228.143 61.5753 228.642 61.8963 229.293C62.2173 229.94 62.3778 230.716 62.3778 231.619C62.3778 232.528 62.2159 233.311 61.892 233.967C61.5682 234.621 61.0966 235.124 60.4773 235.476C59.858 235.825 59.1051 236 58.2188 236ZM56.5824 235.062H58.1506C58.8722 235.062 59.4702 234.923 59.9446 234.645C60.419 234.366 60.7727 233.97 61.0057 233.456C61.2386 232.942 61.3551 232.33 61.3551 231.619C61.3551 230.915 61.2401 230.308 61.0099 229.8C60.7798 229.288 60.4361 228.896 59.9787 228.624C59.5213 228.348 58.9517 228.21 58.2699 228.21H56.5824V235.062ZM65.9403 236.153C65.5256 236.153 65.1491 236.075 64.8111 235.919C64.473 235.76 64.2045 235.531 64.0057 235.233C63.8068 234.932 63.7074 234.568 63.7074 234.142C63.7074 233.767 63.7813 233.463 63.929 233.23C64.0767 232.994 64.2741 232.81 64.5213 232.676C64.7685 232.543 65.0412 232.443 65.3395 232.378C65.6406 232.31 65.9432 232.256 66.2472 232.216C66.6449 232.165 66.9673 232.126 67.2145 232.101C67.4645 232.072 67.6463 232.026 67.7599 231.96C67.8764 231.895 67.9347 231.781 67.9347 231.619V231.585C67.9347 231.165 67.8196 230.838 67.5895 230.605C67.3622 230.372 67.017 230.256 66.554 230.256C66.0739 230.256 65.6974 230.361 65.4247 230.571C65.152 230.781 64.9602 231.006 64.8494 231.244L63.8949 230.903C64.0653 230.506 64.2926 230.196 64.5767 229.974C64.8636 229.75 65.1761 229.594 65.5142 229.506C65.8551 229.415 66.1903 229.369 66.5199 229.369C66.7301 229.369 66.9716 229.395 67.2443 229.446C67.5199 229.494 67.7855 229.595 68.0412 229.749C68.2997 229.902 68.5142 230.134 68.6847 230.443C68.8551 230.753 68.9403 231.168 68.9403 231.688V236H67.9347V235.114H67.8835C67.8153 235.256 67.7017 235.408 67.5426 235.57C67.3835 235.732 67.1719 235.869 66.9077 235.983C66.6435 236.097 66.321 236.153 65.9403 236.153ZM66.0938 235.25C66.4915 235.25 66.8267 235.172 67.0994 235.016C67.375 234.859 67.5824 234.658 67.7216 234.411C67.8636 234.163 67.9347 233.903 67.9347 233.631V232.71C67.892 232.761 67.7983 232.808 67.6534 232.851C67.5114 232.891 67.3466 232.926 67.1591 232.957C66.9744 232.986 66.794 233.011 66.6179 233.034C66.4446 233.054 66.304 233.071 66.196 233.085C65.9347 233.119 65.6903 233.175 65.4631 233.251C65.2386 233.325 65.0568 233.437 64.9176 233.588C64.7813 233.736 64.7131 233.937 64.7131 234.193C64.7131 234.543 64.8423 234.807 65.1009 234.986C65.3622 235.162 65.6932 235.25 66.0938 235.25ZM73.6225 229.455V230.307H70.2305V229.455H73.6225ZM71.2191 227.886H72.2248V234.125C72.2248 234.409 72.266 234.622 72.3484 234.764C72.4336 234.903 72.5415 234.997 72.6722 235.045C72.8058 235.091 72.9464 235.114 73.0941 235.114C73.2049 235.114 73.2958 235.108 73.3668 235.097C73.4379 235.082 73.4947 235.071 73.5373 235.062L73.7418 235.966C73.6737 235.991 73.5785 236.017 73.4563 236.043C73.3342 236.071 73.1793 236.085 72.9918 236.085C72.7077 236.085 72.4293 236.024 72.1566 235.902C71.8867 235.78 71.6623 235.594 71.4833 235.344C71.3072 235.094 71.2191 234.778 71.2191 234.398V227.886ZM77.0614 236.153C76.6467 236.153 76.2702 236.075 75.9322 235.919C75.5941 235.76 75.3256 235.531 75.1268 235.233C74.9279 234.932 74.8285 234.568 74.8285 234.142C74.8285 233.767 74.9023 233.463 75.0501 233.23C75.1978 232.994 75.3952 232.81 75.6424 232.676C75.8896 232.543 76.1623 232.443 76.4606 232.378C76.7617 232.31 77.0643 232.256 77.3683 232.216C77.766 232.165 78.0884 232.126 78.3356 232.101C78.5856 232.072 78.7674 232.026 78.881 231.96C78.9975 231.895 79.0558 231.781 79.0558 231.619V231.585C79.0558 231.165 78.9407 230.838 78.7106 230.605C78.4833 230.372 78.1381 230.256 77.6751 230.256C77.195 230.256 76.8185 230.361 76.5458 230.571C76.2731 230.781 76.0813 231.006 75.9705 231.244L75.016 230.903C75.1864 230.506 75.4137 230.196 75.6978 229.974C75.9847 229.75 76.2972 229.594 76.6353 229.506C76.9762 229.415 77.3114 229.369 77.641 229.369C77.8512 229.369 78.0927 229.395 78.3654 229.446C78.641 229.494 78.9066 229.595 79.1623 229.749C79.4208 229.902 79.6353 230.134 79.8058 230.443C79.9762 230.753 80.0614 231.168 80.0614 231.688V236H79.0558V235.114H79.0046C78.9364 235.256 78.8228 235.408 78.6637 235.57C78.5046 235.732 78.293 235.869 78.0288 235.983C77.7646 236.097 77.4421 236.153 77.0614 236.153ZM77.2148 235.25C77.6126 235.25 77.9478 235.172 78.2205 235.016C78.4961 234.859 78.7035 234.658 78.8427 234.411C78.9847 234.163 79.0558 233.903 79.0558 233.631V232.71C79.0131 232.761 78.9194 232.808 78.7745 232.851C78.6325 232.891 78.4677 232.926 78.2802 232.957C78.0955 232.986 77.9151 233.011 77.739 233.034C77.5657 233.054 77.4251 233.071 77.3171 233.085C77.0558 233.119 76.8114 233.175 76.5842 233.251C76.3597 233.325 76.1779 233.437 76.0387 233.588C75.9023 233.736 75.8342 233.937 75.8342 234.193C75.8342 234.543 75.9634 234.807 76.2219 234.986C76.4833 235.162 76.8143 235.25 77.2148 235.25Z" fill="#212121"/>
<rect x="138.914" y="0.75" width="78.5" height="78.5" rx="39.25" fill="url(#paint6_linear_810_5492)" stroke="url(#paint7_linear_810_5492)" stroke-width="1.5"/>
<g clip-path="url(#clip1_810_5492)">
<path d="M182.387 35.1858L180.977 36.5969C179.769 37.806 178.13 38.4852 176.422 38.4852C174.701 38.4852 173.083 37.8145 171.866 36.5968L171.502 36.2321C171.083 35.8129 171.083 35.1331 171.502 34.7139L176.352 29.8605C174.863 28.9308 172.956 28.8988 171.408 29.8572C170.512 30.4127 169.362 30.2716 168.611 29.5141L167.048 27.9357C166.64 27.5227 165.973 27.5213 165.562 27.9323L160.471 33.0268C160.062 33.4366 160.062 34.1009 160.471 34.5107L177.725 51.7751C178.491 52.4153 179.462 52.5527 180.328 52.1415C181.017 51.8146 181.745 51.054 181.722 49.8988C181.719 49.7296 181.752 49.5598 181.826 49.4075C182.027 48.9921 182.451 48.7651 182.882 48.8001C183.547 48.8547 184.221 48.5996 184.73 48.1005C185.228 47.6134 185.491 46.9579 185.452 46.302C185.418 45.7148 185.883 45.2078 186.47 45.1659C187.317 45.1054 188.008 44.7023 188.524 43.9678C188.906 43.424 189.16 42.7265 189.235 42.0383L182.387 35.1858Z" fill="#009900"/>
<path d="M195.855 33.1415L190.757 28.0397C190.348 27.63 189.684 27.63 189.274 28.0397L187.439 29.8759C186.646 30.6698 185.418 30.7684 184.519 30.1104C182.744 28.8117 180.236 29.005 178.685 30.5601L173.801 35.4477C174.548 36.0251 175.46 36.3378 176.42 36.3378C177.568 36.3378 178.647 35.8906 179.458 35.0783L181.627 32.9082C181.837 32.6986 182.111 32.5937 182.386 32.5937C182.66 32.5937 182.935 32.6986 183.144 32.9082L190.336 40.1049L195.855 34.6253C196.265 34.2155 196.265 33.5512 195.855 33.1415Z" fill="#009900"/>
</g>
<path d="M172.462 87.4545C172.411 87.0227 172.204 86.6875 171.84 86.4489C171.477 86.2102 171.031 86.0909 170.502 86.0909C170.116 86.0909 169.778 86.1534 169.488 86.2784C169.201 86.4034 168.977 86.5753 168.815 86.794C168.656 87.0128 168.576 87.2614 168.576 87.5398C168.576 87.7727 168.631 87.973 168.742 88.1406C168.856 88.3054 169.001 88.4432 169.177 88.554C169.353 88.6619 169.538 88.7514 169.731 88.8224C169.924 88.8906 170.102 88.946 170.263 88.9886L171.15 89.2273C171.377 89.2869 171.63 89.3693 171.908 89.4744C172.19 89.5795 172.458 89.723 172.714 89.9048C172.972 90.0838 173.185 90.3139 173.353 90.5952C173.521 90.8764 173.604 91.2216 173.604 91.6307C173.604 92.1023 173.481 92.5284 173.234 92.9091C172.989 93.2898 172.631 93.5923 172.16 93.8168C171.691 94.0412 171.121 94.1534 170.451 94.1534C169.826 94.1534 169.285 94.0526 168.827 93.8509C168.373 93.6491 168.015 93.3679 167.754 93.0071C167.495 92.6463 167.349 92.2273 167.315 91.75H168.406C168.434 92.0795 168.545 92.3523 168.738 92.5682C168.934 92.7812 169.181 92.9403 169.479 93.0455C169.781 93.1477 170.104 93.1989 170.451 93.1989C170.854 93.1989 171.217 93.1335 171.538 93.0028C171.859 92.8693 172.113 92.6847 172.3 92.4489C172.488 92.2102 172.582 91.9318 172.582 91.6136C172.582 91.3239 172.501 91.0881 172.339 90.9062C172.177 90.7244 171.964 90.5767 171.7 90.4631C171.435 90.3494 171.15 90.25 170.843 90.1648L169.769 89.858C169.087 89.6619 168.548 89.3821 168.15 89.0185C167.752 88.6548 167.553 88.179 167.553 87.5909C167.553 87.1023 167.685 86.6761 167.95 86.3125C168.217 85.946 168.575 85.6619 169.023 85.4602C169.475 85.2557 169.979 85.1534 170.536 85.1534C171.099 85.1534 171.599 85.2543 172.036 85.456C172.474 85.6548 172.82 85.9276 173.076 86.2741C173.335 86.6207 173.471 87.0142 173.485 87.4545H172.462ZM175.342 94V85.2727H176.399V93.0625H180.456V94H175.342ZM183.001 94H181.893L185.097 85.2727H186.188L189.393 94H188.285L185.677 86.6534H185.609L183.001 94ZM183.41 90.5909H187.876V91.5284H183.41V90.5909Z" fill="#212121"/>
<path opacity="0.3" d="M175.134 367L175.134 11M219.96 367L219.96 11M264.785 367L264.785 11M309.611 367L309.611 11M354.437 367L354.437 11M399.263 367L399.263 11M444.088 367L444.088 11M132.176 54.0494H487.42M132.176 98.9706H487.42M132.176 143.892H487.42M132.176 188.813H487.42M132.176 233.734H487.42M132.176 278.655H487.42M132.176 323.576H487.42" stroke="url(#paint8_radial_810_5492)"/>
<path d="M220.791 229.811L221.339 229.699C222.232 229.516 223.039 229.039 223.634 228.343C224.229 227.648 224.579 226.774 224.63 225.857C225.219 215.283 229.319 205.222 236.266 197.302C243.213 189.382 252.599 184.069 262.902 182.221C273.205 180.374 283.823 182.1 293.036 187.121C302.248 192.143 309.516 200.165 313.661 209.889L313.661 209.89C313.894 210.434 314.239 210.921 314.674 211.319C315.108 211.718 315.622 212.018 316.182 212.199C316.741 212.38 317.333 212.438 317.917 212.369C318.5 212.3 319.062 212.106 319.565 211.799L319.566 211.799C324.206 208.957 329.484 207.357 334.903 207.149C340.322 206.941 345.704 208.132 350.543 210.609C355.382 213.087 359.52 216.77 362.565 221.313C365.61 225.855 367.462 231.107 367.948 236.574C367.997 237.14 368.16 237.69 368.427 238.191C368.695 238.69 369.061 239.13 369.504 239.482L220.791 229.811ZM220.791 229.811C216.359 230.783 212.178 232.698 208.528 235.43C204.728 238.274 201.596 241.935 199.359 246.15C197.121 250.365 195.833 255.029 195.588 259.807C195.342 264.586 196.145 269.36 197.938 273.787C199.732 278.214 202.472 282.184 205.96 285.412C209.449 288.64 213.6 291.047 218.116 292.46C222.632 293.873 227.401 294.257 232.081 293.585C236.761 292.912 241.236 291.2 245.185 288.571L245.186 288.571C245.724 288.214 246.337 287.99 246.977 287.916C247.617 287.842 248.265 287.921 248.869 288.146C249.473 288.372 250.016 288.737 250.454 289.212C250.892 289.687 251.214 290.259 251.394 290.882L251.394 290.883C253.464 298.09 257.51 304.555 263.063 309.528C268.616 314.502 275.448 317.781 282.766 318.985C290.085 320.19 297.591 319.271 304.415 316.335C311.238 313.398 317.101 308.565 321.321 302.394L321.321 302.394C321.918 301.524 322.82 300.916 323.846 300.696C324.873 300.475 325.943 300.658 326.839 301.208L326.84 301.209C330.223 303.296 334.051 304.53 338.003 304.808C341.954 305.087 345.914 304.402 349.55 302.81C353.186 301.218 356.392 298.766 358.897 295.66C361.403 292.553 363.135 288.883 363.947 284.958C364.065 284.388 364.301 283.849 364.638 283.376C364.976 282.904 365.409 282.508 365.908 282.214L365.911 282.213C366.411 281.923 366.965 281.742 367.539 281.68C368.113 281.618 368.693 281.678 369.243 281.855L369.249 281.857C372.291 282.879 375.523 283.189 378.701 282.764C381.88 282.339 384.921 281.189 387.597 279.401C390.273 277.614 392.514 275.235 394.149 272.443C395.785 269.652 396.774 266.52 397.04 263.285C397.306 260.05 396.844 256.797 395.686 253.769C394.529 250.742 392.709 248.02 390.361 245.809C388.014 243.598 385.202 241.955 382.137 241.004C379.073 240.053 375.834 239.818 372.667 240.316C372.111 240.405 371.543 240.377 370.999 240.234C370.455 240.09 369.946 239.834 369.505 239.482L220.791 229.811ZM321.734 302.677C322.258 301.912 323.052 301.378 323.952 301.185C324.852 300.991 325.791 301.152 326.578 301.634C330.029 303.763 333.935 305.023 337.968 305.307C342 305.592 346.041 304.892 349.751 303.268C353.461 301.644 356.731 299.142 359.286 295.974C361.842 292.805 363.608 289.062 364.437 285.059C364.541 284.557 364.748 284.083 365.045 283.667C365.342 283.251 365.723 282.903 366.161 282.646C366.601 282.391 367.089 282.231 367.593 282.177C368.097 282.123 368.606 282.175 369.089 282.331C372.205 283.377 375.514 283.695 378.768 283.259C382.022 282.824 385.136 281.647 387.875 279.817C390.614 277.987 392.907 275.553 394.581 272.696C396.255 269.839 397.266 266.636 397.538 263.326C397.811 260.017 397.337 256.688 396.154 253.591C394.97 250.494 393.106 247.708 390.704 245.445C388.302 243.182 385.423 241.501 382.286 240.526L321.734 302.677ZM321.734 302.677C317.46 308.925 311.524 313.82 304.612 316.794C297.701 319.768 290.098 320.699 282.685 319.478C275.272 318.258 268.353 314.937 262.729 309.901C257.106 304.864 253.009 298.318 250.914 291.021C250.755 290.472 250.472 289.969 250.087 289.551C249.701 289.133 249.224 288.813 248.694 288.615C248.164 288.417 247.596 288.348 247.035 288.413C246.473 288.477 245.935 288.674 245.462 288.987L321.734 302.677Z" fill="white" stroke="url(#paint9_linear_810_5492)"/>
<path fill-rule="evenodd" clip-rule="evenodd" d="M267.297 232.618C267.297 231.409 269.23 230.098 272.463 229.112C276.035 228.022 280.78 227.422 285.829 227.422C290.878 227.422 295.625 228.022 299.196 229.112C302.429 230.098 304.362 231.409 304.362 232.618C304.362 233.828 302.429 235.138 299.196 236.125C295.624 237.214 290.878 237.814 285.829 237.814C280.78 237.814 276.034 237.214 272.463 236.125C269.23 235.138 267.297 233.828 267.297 232.618ZM285.829 239.126C280.655 239.126 275.771 238.507 272.083 237.38C269.922 236.722 268.32 235.938 267.297 235.055V244.322C267.297 245.535 269.225 246.848 272.454 247.832C276.016 248.92 280.767 249.519 285.83 249.519C287.464 249.519 289.081 249.454 290.644 249.331L290.71 248.597C290.732 248.31 290.943 248.075 291.223 248.015L292.919 247.651C296.861 246.803 300.63 245.015 302.996 242.868L304.363 241.627V235.055C303.34 235.938 301.738 236.722 299.577 237.38C295.889 238.507 291.004 239.126 285.829 239.126ZM285.829 250.831C280.642 250.831 275.752 250.212 272.07 249.088C269.917 248.432 268.315 247.649 267.297 246.766V256.027C267.297 257.241 269.225 258.552 272.454 259.538C276.016 260.624 280.767 261.223 285.83 261.223C287.581 261.223 289.309 261.15 290.973 261.008C290.339 258.009 290.192 254.574 290.522 250.656C288.996 250.771 287.42 250.831 285.829 250.831ZM285.829 262.536C280.642 262.536 275.752 261.917 272.07 260.793C269.917 260.136 268.315 259.353 267.297 258.47V267.731C267.297 268.945 269.225 270.256 272.454 271.242C276.016 272.329 280.767 272.927 285.83 272.927C289.969 272.927 293.952 272.518 297.215 271.769C295.742 270.54 294.523 269.134 293.518 267.518C292.549 265.959 291.808 264.223 291.286 262.297C289.522 262.455 287.687 262.536 285.829 262.536ZM291.857 250.446L291.969 249.197L293.192 248.934C297.353 248.04 301.345 246.136 303.876 243.84L305.019 242.803L306.162 243.84C308.688 246.136 312.684 248.04 316.841 248.934L318.065 249.197L318.18 250.446C318.814 257.43 317.907 262.788 315.404 266.824C313.328 270.178 310.221 272.566 305.631 274.342L305.02 274.578L304.403 274.342C299.814 272.566 296.711 270.178 294.631 266.824C292.129 262.787 291.219 257.43 291.857 250.446ZM304.778 272.607C304.854 272.637 304.934 272.653 305.019 272.653C305.1 272.653 305.179 272.637 305.26 272.607C309.336 270.989 312.087 268.857 313.922 265.901C316.158 262.293 316.997 257.457 316.484 251.12C316.462 250.836 316.256 250.6 315.98 250.535C311.926 249.588 308.082 247.765 305.439 245.533C305.198 245.328 304.841 245.328 304.595 245.533C301.952 247.765 298.112 249.588 294.054 250.535C293.777 250.6 293.576 250.836 293.55 251.12C293.041 257.458 293.881 262.293 296.113 265.901C297.946 268.857 300.701 270.989 304.778 272.607ZM294.822 251.7C298.742 250.721 302.326 249.028 305.019 246.883C307.711 249.028 311.296 250.721 315.216 251.7C315.626 257.513 314.836 261.935 312.809 265.208C311.167 267.857 308.688 269.794 305.019 271.29C301.348 269.794 298.866 267.857 297.228 265.208C295.196 261.935 294.411 257.513 294.822 251.7ZM301.237 258.31C300.541 257.612 299.407 257.612 298.71 258.31C298.014 259.008 298.014 260.145 298.71 260.842L302.697 264.841C302.827 264.969 302.996 265.034 303.161 265.034C303.33 265.034 303.496 264.969 303.625 264.841L311.322 257.126C312.022 256.427 312.022 255.292 311.322 254.593C310.625 253.895 309.491 253.895 308.795 254.593L303.161 260.24L301.237 258.31ZM303.626 261.632C303.372 261.888 302.956 261.888 302.697 261.632L300.314 259.238C300.22 259.145 300.095 259.098 299.974 259.098C299.849 259.098 299.729 259.145 299.635 259.238C299.447 259.425 299.447 259.728 299.635 259.915L303.162 263.449L310.4 256.197C310.587 256.011 310.587 255.707 310.4 255.521C310.212 255.334 309.908 255.334 309.725 255.521L303.626 261.632Z" fill="#3432CA"/>
<rect x="387.887" y="4.75" width="78.5" height="78.5" rx="39.25" fill="url(#paint10_linear_810_5492)" stroke="url(#paint11_linear_810_5492)" stroke-width="1.5"/>
<path d="M442.564 53.3686V56.0943C442.564 57.8686 441.124 59.3086 439.35 59.3086H437.292C435.518 59.3086 434.078 57.8686 434.078 56.0943V53.3686C434.078 51.5943 435.518 50.1543 437.292 50.1543H439.35C441.124 50.1543 442.564 51.5943 442.564 53.3686Z" fill="#009900"/>
<path d="M431.38 48.1098V56.094C431.38 57.8683 429.94 59.3083 428.166 59.3083H426.109C424.335 59.3083 422.895 57.8683 422.895 56.094V48.1098C422.895 46.3355 424.335 44.8955 426.109 44.8955H428.166C429.94 44.8955 431.38 46.3355 431.38 48.1098Z" fill="#009900"/>
<path d="M420.206 37.5805V56.0947C420.206 57.869 418.753 59.309 416.991 59.309H414.921C413.147 59.309 411.707 57.869 411.707 56.0947V37.5805C411.707 35.8062 413.147 34.3662 414.921 34.3662H416.991C418.753 34.3662 420.206 35.8062 420.206 37.5805Z" fill="#009900"/>
<path d="M418.173 31.0231C417.595 30.6245 417.453 29.8145 417.865 29.236C418.263 28.6574 419.073 28.516 419.652 28.9273L438.038 41.7973L437.922 41.1545C437.806 40.4474 438.269 39.7788 438.976 39.6631C439.671 39.5345 440.339 40.0103 440.455 40.7045C440.478 40.8345 441.153 44.6493 441.111 44.4074C441.215 45.033 440.89 45.6969 440.082 45.8988H440.069C435.915 46.6189 436.458 46.5674 436.135 46.5674C435.531 46.5674 434.991 46.1302 434.875 45.5131C434.746 44.806 435.222 44.1502 435.916 44.0217L436.559 43.9059L418.173 31.0231Z" fill="#009900"/>
<path d="M388.168 98V89.2727H391.117C391.799 89.2727 392.358 89.3892 392.796 89.6222C393.233 89.8523 393.557 90.169 393.768 90.5724C393.978 90.9759 394.083 91.4347 394.083 91.9489C394.083 92.4631 393.978 92.919 393.768 93.3168C393.557 93.7145 393.235 94.027 392.8 94.2543C392.366 94.4787 391.81 94.5909 391.134 94.5909H388.748V93.6364H391.1C391.566 93.6364 391.941 93.5682 392.225 93.4318C392.512 93.2955 392.719 93.1023 392.847 92.8523C392.978 92.5994 393.043 92.2983 393.043 91.9489C393.043 91.5994 392.978 91.294 392.847 91.0327C392.716 90.7713 392.508 90.5696 392.221 90.4276C391.934 90.2827 391.555 90.2102 391.083 90.2102H389.225V98H388.168ZM392.276 94.0795L394.424 98H393.197L391.083 94.0795H392.276ZM398.382 98.1364C397.751 98.1364 397.207 97.9972 396.749 97.7188C396.295 97.4375 395.944 97.0455 395.697 96.5426C395.453 96.0369 395.33 95.4489 395.33 94.7784C395.33 94.108 395.453 93.517 395.697 93.0057C395.944 92.4915 396.288 92.0909 396.728 91.804C397.171 91.5142 397.688 91.3693 398.279 91.3693C398.62 91.3693 398.957 91.4261 399.289 91.5398C399.622 91.6534 399.924 91.8381 400.197 92.0938C400.47 92.3466 400.687 92.6818 400.849 93.0994C401.011 93.517 401.092 94.0312 401.092 94.642V95.0682H396.046V94.1989H400.069C400.069 93.8295 399.995 93.5 399.847 93.2102C399.703 92.9205 399.495 92.6918 399.225 92.5241C398.958 92.3565 398.643 92.2727 398.279 92.2727C397.879 92.2727 397.532 92.3722 397.24 92.571C396.95 92.767 396.727 93.0227 396.57 93.3381C396.414 93.6534 396.336 93.9915 396.336 94.3523V94.9318C396.336 95.4261 396.421 95.8452 396.592 96.1889C396.765 96.5298 397.005 96.7898 397.312 96.9688C397.619 97.1449 397.975 97.233 398.382 97.233C398.646 97.233 398.884 97.196 399.097 97.1222C399.313 97.0455 399.499 96.9318 399.656 96.7812C399.812 96.6278 399.933 96.4375 400.018 96.2102L400.99 96.483C400.887 96.8125 400.715 97.1023 400.474 97.3523C400.232 97.5994 399.934 97.7926 399.579 97.9318C399.224 98.0682 398.825 98.1364 398.382 98.1364ZM405.093 98.1364C404.548 98.1364 404.066 97.9986 403.649 97.723C403.231 97.4446 402.904 97.0526 402.669 96.5469C402.433 96.0384 402.315 95.4375 402.315 94.7443C402.315 94.0568 402.433 93.4602 402.669 92.9545C402.904 92.4489 403.232 92.0582 403.653 91.7827C404.073 91.5071 404.559 91.3693 405.11 91.3693C405.536 91.3693 405.873 91.4403 406.12 91.5824C406.37 91.7216 406.561 91.8807 406.691 92.0597C406.825 92.2358 406.928 92.3807 407.002 92.4943H407.088V89.2727H408.093V98H407.122V96.9943H407.002C406.928 97.1136 406.823 97.2642 406.687 97.446C406.551 97.625 406.356 97.7855 406.103 97.9276C405.85 98.0668 405.514 98.1364 405.093 98.1364ZM405.23 97.233C405.633 97.233 405.974 97.1278 406.252 96.9176C406.531 96.7045 406.742 96.4105 406.887 96.0355C407.032 95.6577 407.105 95.2216 407.105 94.7273C407.105 94.2386 407.034 93.8111 406.892 93.4446C406.749 93.0753 406.539 92.7884 406.261 92.5838C405.982 92.3764 405.639 92.2727 405.23 92.2727C404.803 92.2727 404.448 92.3821 404.164 92.6009C403.883 92.8168 403.671 93.1108 403.529 93.483C403.39 93.8523 403.32 94.267 403.32 94.7273C403.32 95.1932 403.392 95.6165 403.534 95.9972C403.678 96.375 403.892 96.6761 404.173 96.9006C404.457 97.1222 404.809 97.233 405.23 97.233ZM414.2 95.3239V91.4545H415.205V98H414.2V96.892H414.132C413.978 97.2244 413.74 97.5071 413.416 97.7401C413.092 97.9702 412.683 98.0852 412.188 98.0852C411.779 98.0852 411.416 97.9957 411.097 97.8168C410.779 97.6349 410.529 97.3622 410.347 96.9986C410.166 96.6321 410.075 96.1705 410.075 95.6136V91.4545H411.08V95.5455C411.08 96.0227 411.214 96.4034 411.481 96.6875C411.751 96.9716 412.095 97.1136 412.512 97.1136C412.762 97.1136 413.017 97.0497 413.275 96.9219C413.536 96.794 413.755 96.598 413.931 96.3338C414.11 96.0696 414.2 95.733 414.2 95.3239ZM419.706 98.1364C419.093 98.1364 418.564 97.9915 418.121 97.7017C417.678 97.4119 417.337 97.0128 417.099 96.5043C416.86 95.9957 416.741 95.4148 416.741 94.7614C416.741 94.0966 416.863 93.5099 417.107 93.0014C417.354 92.4901 417.698 92.0909 418.138 91.804C418.581 91.5142 419.099 91.3693 419.689 91.3693C420.15 91.3693 420.564 91.4545 420.934 91.625C421.303 91.7955 421.606 92.0341 421.841 92.3409C422.077 92.6477 422.224 93.0057 422.28 93.4148H421.275C421.198 93.1165 421.028 92.8523 420.763 92.6222C420.502 92.3892 420.15 92.2727 419.706 92.2727C419.314 92.2727 418.971 92.375 418.675 92.5795C418.383 92.7812 418.154 93.0668 417.989 93.4361C417.827 93.8026 417.746 94.233 417.746 94.7273C417.746 95.233 417.826 95.6733 417.985 96.0483C418.147 96.4233 418.374 96.7145 418.667 96.9219C418.962 97.1293 419.309 97.233 419.706 97.233C419.968 97.233 420.205 97.1875 420.418 97.0966C420.631 97.0057 420.812 96.875 420.959 96.7045C421.107 96.5341 421.212 96.3295 421.275 96.0909H422.28C422.224 96.4773 422.083 96.8253 421.858 97.1349C421.637 97.4418 421.343 97.6861 420.976 97.8679C420.613 98.0469 420.189 98.1364 419.706 98.1364ZM426.495 98.1364C425.864 98.1364 425.32 97.9972 424.863 97.7188C424.408 97.4375 424.057 97.0455 423.81 96.5426C423.566 96.0369 423.444 95.4489 423.444 94.7784C423.444 94.108 423.566 93.517 423.81 93.0057C424.057 92.4915 424.401 92.0909 424.841 91.804C425.285 91.5142 425.802 91.3693 426.393 91.3693C426.733 91.3693 427.07 91.4261 427.403 91.5398C427.735 91.6534 428.037 91.8381 428.31 92.0938C428.583 92.3466 428.8 92.6818 428.962 93.0994C429.124 93.517 429.205 94.0312 429.205 94.642V95.0682H424.16V94.1989H428.182C428.182 93.8295 428.108 93.5 427.961 93.2102C427.816 92.9205 427.608 92.6918 427.339 92.5241C427.072 92.3565 426.756 92.2727 426.393 92.2727C425.992 92.2727 425.645 92.3722 425.353 92.571C425.063 92.767 424.84 93.0227 424.684 93.3381C424.528 93.6534 424.449 93.9915 424.449 94.3523V94.9318C424.449 95.4261 424.535 95.8452 424.705 96.1889C424.878 96.5298 425.118 96.7898 425.425 96.9688C425.732 97.1449 426.089 97.233 426.495 97.233C426.759 97.233 426.998 97.196 427.211 97.1222C427.427 97.0455 427.613 96.9318 427.769 96.7812C427.925 96.6278 428.046 96.4375 428.131 96.2102L429.103 96.483C429.001 96.8125 428.829 97.1023 428.587 97.3523C428.346 97.5994 428.047 97.7926 427.692 97.9318C427.337 98.0682 426.938 98.1364 426.495 98.1364ZM433.206 98.1364C432.661 98.1364 432.18 97.9986 431.762 97.723C431.344 97.4446 431.018 97.0526 430.782 96.5469C430.546 96.0384 430.428 95.4375 430.428 94.7443C430.428 94.0568 430.546 93.4602 430.782 92.9545C431.018 92.4489 431.346 92.0582 431.766 91.7827C432.187 91.5071 432.672 91.3693 433.224 91.3693C433.65 91.3693 433.986 91.4403 434.233 91.5824C434.483 91.7216 434.674 91.8807 434.805 92.0597C434.938 92.2358 435.042 92.3807 435.116 92.4943H435.201V89.2727H436.206V98H435.235V96.9943H435.116C435.042 97.1136 434.937 97.2642 434.8 97.446C434.664 97.625 434.469 97.7855 434.216 97.9276C433.964 98.0668 433.627 98.1364 433.206 98.1364ZM433.343 97.233C433.746 97.233 434.087 97.1278 434.366 96.9176C434.644 96.7045 434.856 96.4105 435.001 96.0355C435.145 95.6577 435.218 95.2216 435.218 94.7273C435.218 94.2386 435.147 93.8111 435.005 93.4446C434.863 93.0753 434.653 92.7884 434.374 92.5838C434.096 92.3764 433.752 92.2727 433.343 92.2727C432.917 92.2727 432.562 92.3821 432.278 92.6009C431.996 92.8168 431.785 93.1108 431.643 93.483C431.503 93.8523 431.434 94.267 431.434 94.7273C431.434 95.1932 431.505 95.6165 431.647 95.9972C431.792 96.375 432.005 96.6761 432.286 96.9006C432.57 97.1222 432.922 97.233 433.343 97.233ZM448.722 92H447.665C447.603 91.696 447.493 91.429 447.337 91.1989C447.184 90.9688 446.996 90.7756 446.775 90.6193C446.556 90.4602 446.313 90.3409 446.046 90.2614C445.779 90.1818 445.501 90.142 445.211 90.142C444.682 90.142 444.204 90.2756 443.775 90.5426C443.349 90.8097 443.009 91.2031 442.756 91.723C442.506 92.2429 442.381 92.8807 442.381 93.6364C442.381 94.392 442.506 95.0298 442.756 95.5497C443.009 96.0696 443.349 96.4631 443.775 96.7301C444.204 96.9972 444.682 97.1307 445.211 97.1307C445.501 97.1307 445.779 97.0909 446.046 97.0114C446.313 96.9318 446.556 96.8139 446.775 96.6577C446.996 96.4986 447.184 96.304 447.337 96.0739C447.493 95.8409 447.603 95.5739 447.665 95.2727H448.722C448.643 95.7187 448.498 96.1179 448.287 96.4702C448.077 96.8224 447.816 97.1222 447.503 97.3693C447.191 97.6136 446.84 97.7997 446.451 97.9276C446.064 98.0554 445.651 98.1193 445.211 98.1193C444.466 98.1193 443.805 97.9375 443.225 97.5739C442.645 97.2102 442.189 96.6932 441.857 96.0227C441.525 95.3523 441.358 94.5568 441.358 93.6364C441.358 92.7159 441.525 91.9205 441.857 91.25C442.189 90.5795 442.645 90.0625 443.225 89.6989C443.805 89.3352 444.466 89.1534 445.211 89.1534C445.651 89.1534 446.064 89.2173 446.451 89.3452C446.84 89.473 447.191 89.6605 447.503 89.9077C447.816 90.152 448.077 90.4503 448.287 90.8026C448.498 91.152 448.643 91.5511 448.722 92ZM452.953 98.1364C452.362 98.1364 451.843 97.9957 451.397 97.7145C450.954 97.4332 450.607 97.0398 450.357 96.5341C450.11 96.0284 449.987 95.4375 449.987 94.7614C449.987 94.0795 450.11 93.4844 450.357 92.9759C450.607 92.4673 450.954 92.0724 451.397 91.7912C451.843 91.5099 452.362 91.3693 452.953 91.3693C453.544 91.3693 454.061 91.5099 454.504 91.7912C454.95 92.0724 455.296 92.4673 455.544 92.9759C455.794 93.4844 455.919 94.0795 455.919 94.7614C455.919 95.4375 455.794 96.0284 455.544 96.5341C455.296 97.0398 454.95 97.4332 454.504 97.7145C454.061 97.9957 453.544 98.1364 452.953 98.1364ZM452.953 97.233C453.401 97.233 453.771 97.1179 454.061 96.8878C454.35 96.6577 454.565 96.3551 454.704 95.9801C454.843 95.6051 454.913 95.1989 454.913 94.7614C454.913 94.3239 454.843 93.9162 454.704 93.5384C454.565 93.1605 454.35 92.8551 454.061 92.6222C453.771 92.3892 453.401 92.2727 452.953 92.2727C452.504 92.2727 452.134 92.3892 451.845 92.6222C451.555 92.8551 451.34 93.1605 451.201 93.5384C451.062 93.9162 450.992 94.3239 450.992 94.7614C450.992 95.1989 451.062 95.6051 451.201 95.9801C451.34 96.3551 451.555 96.6577 451.845 96.8878C452.134 97.1179 452.504 97.233 452.953 97.233ZM462.09 92.9205L461.187 93.1761C461.13 93.0256 461.046 92.8793 460.935 92.7372C460.827 92.5923 460.68 92.473 460.492 92.3793C460.305 92.2855 460.064 92.2386 459.772 92.2386C459.371 92.2386 459.037 92.331 458.77 92.5156C458.506 92.6974 458.374 92.929 458.374 93.2102C458.374 93.4602 458.465 93.6577 458.647 93.8026C458.829 93.9474 459.113 94.0682 459.499 94.1648L460.471 94.4034C461.056 94.5455 461.492 94.7628 461.779 95.0554C462.066 95.3452 462.209 95.7187 462.209 96.1761C462.209 96.5511 462.101 96.8864 461.885 97.1818C461.672 97.4773 461.374 97.7102 460.991 97.8807C460.607 98.0511 460.161 98.1364 459.653 98.1364C458.985 98.1364 458.432 97.9915 457.995 97.7017C457.557 97.4119 457.28 96.9886 457.164 96.4318L458.118 96.1932C458.209 96.5455 458.381 96.8097 458.634 96.9858C458.89 97.1619 459.224 97.25 459.635 97.25C460.104 97.25 460.476 97.1506 460.752 96.9517C461.03 96.75 461.17 96.5085 461.17 96.2273C461.17 96 461.09 95.8097 460.931 95.6562C460.772 95.5 460.528 95.3835 460.198 95.3068L459.107 95.0511C458.508 94.9091 458.067 94.6889 457.786 94.3906C457.508 94.0895 457.368 93.7131 457.368 93.2614C457.368 92.892 457.472 92.5653 457.68 92.2812C457.89 91.9972 458.175 91.7741 458.536 91.6122C458.9 91.4503 459.312 91.3693 459.772 91.3693C460.42 91.3693 460.928 91.5114 461.297 91.7955C461.67 92.0795 461.934 92.4545 462.09 92.9205ZM466.57 91.4545V92.3068H463.178V91.4545H466.57ZM464.166 89.8864H465.172V96.125C465.172 96.4091 465.213 96.6222 465.296 96.7642C465.381 96.9034 465.489 96.9972 465.619 97.0455C465.753 97.0909 465.894 97.1136 466.041 97.1136C466.152 97.1136 466.243 97.108 466.314 97.0966C466.385 97.0824 466.442 97.071 466.485 97.0625L466.689 97.9659C466.621 97.9915 466.526 98.017 466.404 98.0426C466.281 98.071 466.127 98.0852 465.939 98.0852C465.655 98.0852 465.377 98.0241 465.104 97.902C464.834 97.7798 464.61 97.5938 464.431 97.3438C464.254 97.0938 464.166 96.7784 464.166 96.3977V89.8864Z" fill="#212121"/>
<rect x="495.191" y="168.75" width="78.5" height="78.5" rx="39.25" fill="url(#paint12_linear_810_5492)" stroke="url(#paint13_linear_810_5492)" stroke-width="1.5"/>
<g clip-path="url(#clip2_810_5492)">
<path d="M540.227 216.601V220.433C541.708 220.726 543.216 220.868 544.727 220.857C549.509 220.857 552.441 219.61 552.441 218.929V215.521C550.782 216.499 547.742 217 544.727 217C543.217 217.007 541.711 216.873 540.227 216.601ZM550.512 217.643C550.867 217.643 551.155 217.931 551.155 218.286C551.155 218.641 550.867 218.929 550.512 218.929C550.157 218.929 549.869 218.641 549.869 218.286C549.869 217.931 550.157 217.643 550.512 217.643Z" fill="#009900"/>
<path d="M540.227 221.744V225.575C541.708 225.868 543.216 226.011 544.727 226C549.509 226 552.441 224.753 552.441 224.071V220.664C550.782 221.641 547.742 222.143 544.727 222.143C543.217 222.149 541.711 222.016 540.227 221.744ZM550.512 222.785C550.867 222.785 551.155 223.073 551.155 223.428C551.155 223.783 550.867 224.071 550.512 224.071C550.157 224.071 549.869 223.783 549.869 223.428C549.869 223.073 550.157 222.785 550.512 222.785Z" fill="#009900"/>
<path d="M538.944 211.155C538.272 210.978 537.624 210.717 537.016 210.379V213.786C537.016 214.114 537.702 214.574 538.944 214.962V211.155Z" fill="#009900"/>
<path d="M540.227 211.459V215.29C541.708 215.583 543.216 215.725 544.727 215.715C549.509 215.715 552.441 214.467 552.441 213.786V210.379C550.782 211.356 547.742 211.857 544.727 211.857C543.217 211.864 541.711 211.731 540.227 211.459ZM550.512 212.5C550.867 212.5 551.155 212.788 551.155 213.143C551.155 213.498 550.867 213.786 550.512 213.786C550.157 213.786 549.869 213.498 549.869 213.143C549.869 212.788 550.157 212.5 550.512 212.5Z" fill="#009900"/>
<path d="M544.73 210.571C548.99 210.571 552.444 209.708 552.444 208.642C552.444 207.577 548.99 206.714 544.73 206.714C540.469 206.714 537.016 207.577 537.016 208.642C537.016 209.708 540.469 210.571 544.73 210.571Z" fill="#009900"/>
<path d="M532.514 222.143C533.594 222.142 534.671 222.031 535.728 221.813V220.5C534.673 220.736 533.595 220.856 532.514 220.857C529.938 220.859 527.406 220.183 525.173 218.898C525.156 218.892 525.138 218.885 525.121 218.877C525.11 218.87 525.104 218.859 525.094 218.852C522.879 217.561 521.036 215.72 519.742 213.507C519.73 213.493 519.719 213.479 519.709 213.464C519.703 213.453 519.703 213.441 519.697 213.429C517.072 208.875 517.072 203.268 519.697 198.714C519.703 198.702 519.703 198.69 519.709 198.679C519.715 198.668 519.726 198.661 519.733 198.651C521.028 196.432 522.874 194.585 525.094 193.291C525.104 193.284 525.11 193.273 525.121 193.266C525.132 193.26 525.145 193.26 525.157 193.254C529.71 190.63 535.318 190.63 539.872 193.254C539.883 193.26 539.895 193.26 539.907 193.266C539.918 193.273 539.924 193.284 539.935 193.291C542.154 194.585 544 196.432 545.295 198.651C545.302 198.662 545.313 198.668 545.319 198.679C545.326 198.69 545.325 198.702 545.331 198.714C546.533 200.799 547.205 203.147 547.286 205.552C547.727 205.595 548.157 205.651 548.576 205.717C548.381 196.888 541.1 189.871 532.271 190.002C523.441 190.133 516.371 197.363 516.438 206.193C516.505 215.023 523.684 222.146 532.514 222.143Z" fill="#009900"/>
<path d="M537.016 224.071C537.016 224.399 537.702 224.859 538.944 225.247V221.44C538.272 221.263 537.624 221.002 537.016 220.664V224.071Z" fill="#009900"/>
<path d="M545.983 205.461C545.899 203.52 545.394 201.62 544.504 199.894L543.97 200.202C543.662 200.38 543.267 200.273 543.09 199.964C542.912 199.655 543.019 199.261 543.328 199.084L543.861 198.781C542.814 197.155 541.431 195.772 539.805 194.725L539.503 195.259C539.388 195.458 539.175 195.582 538.945 195.582C538.714 195.583 538.501 195.46 538.385 195.261C538.27 195.061 538.269 194.815 538.384 194.616L538.693 194.082C536.976 193.196 535.088 192.691 533.158 192.604V193.214C533.158 193.569 532.87 193.857 532.515 193.857C532.16 193.857 531.872 193.569 531.872 193.214V192.604C529.942 192.691 528.054 193.196 526.337 194.082L526.645 194.616C526.823 194.925 526.716 195.319 526.408 195.496C526.099 195.674 525.704 195.567 525.527 195.259L525.225 194.725C523.599 195.772 522.216 197.155 521.168 198.781L521.702 199.084C522.011 199.261 522.117 199.655 521.94 199.964C521.762 200.273 521.368 200.38 521.059 200.202L520.525 199.894C519.639 201.61 519.135 203.498 519.047 205.429H519.658C520.013 205.429 520.3 205.716 520.3 206.071C520.3 206.426 520.013 206.714 519.658 206.714H519.047C519.135 208.644 519.639 210.533 520.525 212.249L521.059 211.941C521.368 211.763 521.762 211.87 521.94 212.179C522.117 212.487 522.011 212.882 521.702 213.059L521.168 213.361C522.216 214.987 523.599 216.37 525.225 217.418L525.527 216.884C525.642 216.684 525.854 216.561 526.085 216.561C526.315 216.56 526.529 216.683 526.644 216.882C526.76 217.081 526.76 217.327 526.645 217.527L526.337 218.061C528.054 218.947 529.942 219.452 531.872 219.539V218.929C531.872 218.573 532.16 218.286 532.515 218.286C532.87 218.286 533.158 218.573 533.158 218.929V219.552C534.025 219.509 534.885 219.384 535.729 219.179V208.643C535.729 206.534 540.255 205.429 544.729 205.429C545.147 205.429 545.565 205.441 545.983 205.461ZM533.158 206.071C533.159 206.256 533.079 206.433 532.939 206.554L527.153 211.696C526.887 211.93 526.481 211.904 526.247 211.639C526.013 211.372 526.039 210.967 526.305 210.732L531.872 205.782V196.429C531.872 196.073 532.16 195.786 532.515 195.786C532.87 195.786 533.158 196.073 533.158 196.429V206.071Z" fill="#009900"/>
<path d="M538.944 216.297C538.272 216.12 537.624 215.859 537.016 215.521V218.929C537.016 219.256 537.702 219.716 538.944 220.104V216.297Z" fill="#009900"/>
</g>
<path d="M479.928 262V253.273H480.985V261.062H485.042V262H479.928ZM489.201 262.136C488.61 262.136 488.091 261.996 487.645 261.714C487.202 261.433 486.855 261.04 486.605 260.534C486.358 260.028 486.235 259.437 486.235 258.761C486.235 258.08 486.358 257.484 486.605 256.976C486.855 256.467 487.202 256.072 487.645 255.791C488.091 255.51 488.61 255.369 489.201 255.369C489.792 255.369 490.309 255.51 490.752 255.791C491.198 256.072 491.544 256.467 491.792 256.976C492.042 257.484 492.167 258.08 492.167 258.761C492.167 259.437 492.042 260.028 491.792 260.534C491.544 261.04 491.198 261.433 490.752 261.714C490.309 261.996 489.792 262.136 489.201 262.136ZM489.201 261.233C489.65 261.233 490.019 261.118 490.309 260.888C490.598 260.658 490.813 260.355 490.952 259.98C491.091 259.605 491.161 259.199 491.161 258.761C491.161 258.324 491.091 257.916 490.952 257.538C490.813 257.161 490.598 256.855 490.309 256.622C490.019 256.389 489.65 256.273 489.201 256.273C488.752 256.273 488.382 256.389 488.093 256.622C487.803 256.855 487.588 257.161 487.449 257.538C487.31 257.916 487.24 258.324 487.24 258.761C487.24 259.199 487.31 259.605 487.449 259.98C487.588 260.355 487.803 260.658 488.093 260.888C488.382 261.118 488.752 261.233 489.201 261.233ZM494.962 262L492.968 255.455H494.025L495.439 260.466H495.507L496.905 255.455H497.979L499.36 260.449H499.428L500.843 255.455H501.9L499.905 262H498.917L497.485 256.972H497.382L495.951 262H494.962ZM506.74 262V253.273H509.689C510.371 253.273 510.931 253.389 511.368 253.622C511.806 253.852 512.13 254.169 512.34 254.572C512.55 254.976 512.655 255.435 512.655 255.949C512.655 256.463 512.55 256.919 512.34 257.317C512.13 257.714 511.807 258.027 511.373 258.254C510.938 258.479 510.382 258.591 509.706 258.591H507.32V257.636H509.672C510.138 257.636 510.513 257.568 510.797 257.432C511.084 257.295 511.292 257.102 511.419 256.852C511.55 256.599 511.615 256.298 511.615 255.949C511.615 255.599 511.55 255.294 511.419 255.033C511.289 254.771 511.08 254.57 510.793 254.428C510.506 254.283 510.127 254.21 509.655 254.21H507.797V262H506.74ZM510.848 258.08L512.996 262H511.769L509.655 258.08H510.848ZM516.954 262.136C516.323 262.136 515.779 261.997 515.322 261.719C514.867 261.438 514.516 261.045 514.269 260.543C514.025 260.037 513.903 259.449 513.903 258.778C513.903 258.108 514.025 257.517 514.269 257.006C514.516 256.491 514.86 256.091 515.3 255.804C515.744 255.514 516.261 255.369 516.852 255.369C517.192 255.369 517.529 255.426 517.862 255.54C518.194 255.653 518.496 255.838 518.769 256.094C519.042 256.347 519.259 256.682 519.421 257.099C519.583 257.517 519.664 258.031 519.664 258.642V259.068H514.619V258.199H518.641C518.641 257.83 518.567 257.5 518.42 257.21C518.275 256.92 518.067 256.692 517.798 256.524C517.531 256.357 517.215 256.273 516.852 256.273C516.451 256.273 516.104 256.372 515.812 256.571C515.522 256.767 515.299 257.023 515.143 257.338C514.987 257.653 514.908 257.991 514.908 258.352V258.932C514.908 259.426 514.994 259.845 515.164 260.189C515.337 260.53 515.577 260.79 515.884 260.969C516.191 261.145 516.548 261.233 516.954 261.233C517.218 261.233 517.457 261.196 517.67 261.122C517.886 261.045 518.072 260.932 518.228 260.781C518.384 260.628 518.505 260.437 518.59 260.21L519.562 260.483C519.46 260.812 519.288 261.102 519.046 261.352C518.805 261.599 518.506 261.793 518.151 261.932C517.796 262.068 517.397 262.136 516.954 262.136ZM523.853 262.136C523.239 262.136 522.711 261.991 522.268 261.702C521.825 261.412 521.484 261.013 521.245 260.504C521.006 259.996 520.887 259.415 520.887 258.761C520.887 258.097 521.009 257.51 521.254 257.001C521.501 256.49 521.844 256.091 522.285 255.804C522.728 255.514 523.245 255.369 523.836 255.369C524.296 255.369 524.711 255.455 525.08 255.625C525.45 255.795 525.752 256.034 525.988 256.341C526.224 256.648 526.37 257.006 526.427 257.415H525.421C525.344 257.116 525.174 256.852 524.91 256.622C524.648 256.389 524.296 256.273 523.853 256.273C523.461 256.273 523.117 256.375 522.822 256.58C522.529 256.781 522.3 257.067 522.136 257.436C521.974 257.803 521.893 258.233 521.893 258.727C521.893 259.233 521.972 259.673 522.131 260.048C522.293 260.423 522.521 260.714 522.813 260.922C523.109 261.129 523.455 261.233 523.853 261.233C524.114 261.233 524.352 261.188 524.565 261.097C524.778 261.006 524.958 260.875 525.106 260.705C525.254 260.534 525.359 260.33 525.421 260.091H526.427C526.37 260.477 526.229 260.825 526.005 261.135C525.783 261.442 525.489 261.686 525.123 261.868C524.759 262.047 524.336 262.136 523.853 262.136ZM530.556 262.136C529.965 262.136 529.447 261.996 529.001 261.714C528.558 261.433 528.211 261.04 527.961 260.534C527.714 260.028 527.59 259.437 527.59 258.761C527.59 258.08 527.714 257.484 527.961 256.976C528.211 256.467 528.558 256.072 529.001 255.791C529.447 255.51 529.965 255.369 530.556 255.369C531.147 255.369 531.664 255.51 532.107 255.791C532.553 256.072 532.9 256.467 533.147 256.976C533.397 257.484 533.522 258.08 533.522 258.761C533.522 259.437 533.397 260.028 533.147 260.534C532.9 261.04 532.553 261.433 532.107 261.714C531.664 261.996 531.147 262.136 530.556 262.136ZM530.556 261.233C531.005 261.233 531.374 261.118 531.664 260.888C531.954 260.658 532.168 260.355 532.308 259.98C532.447 259.605 532.516 259.199 532.516 258.761C532.516 258.324 532.447 257.916 532.308 257.538C532.168 257.161 531.954 256.855 531.664 256.622C531.374 256.389 531.005 256.273 530.556 256.273C530.107 256.273 529.738 256.389 529.448 256.622C529.158 256.855 528.944 257.161 528.805 257.538C528.665 257.916 528.596 258.324 528.596 258.761C528.596 259.199 528.665 259.605 528.805 259.98C528.944 260.355 529.158 260.658 529.448 260.888C529.738 261.118 530.107 261.233 530.556 261.233ZM540.175 255.455L537.755 262H536.732L534.311 255.455H535.402L537.209 260.67H537.277L539.084 255.455H540.175ZM544.012 262.136C543.382 262.136 542.838 261.997 542.38 261.719C541.926 261.438 541.575 261.045 541.328 260.543C541.083 260.037 540.961 259.449 540.961 258.778C540.961 258.108 541.083 257.517 541.328 257.006C541.575 256.491 541.919 256.091 542.359 255.804C542.802 255.514 543.319 255.369 543.91 255.369C544.251 255.369 544.588 255.426 544.92 255.54C545.252 255.653 545.555 255.838 545.828 256.094C546.1 256.347 546.318 256.682 546.48 257.099C546.642 257.517 546.723 258.031 546.723 258.642V259.068H541.677V258.199H545.7C545.7 257.83 545.626 257.5 545.478 257.21C545.333 256.92 545.126 256.692 544.856 256.524C544.589 256.357 544.274 256.273 543.91 256.273C543.51 256.273 543.163 256.372 542.87 256.571C542.581 256.767 542.358 257.023 542.201 257.338C542.045 257.653 541.967 257.991 541.967 258.352V258.932C541.967 259.426 542.052 259.845 542.223 260.189C542.396 260.53 542.636 260.79 542.943 260.969C543.25 261.145 543.606 261.233 544.012 261.233C544.277 261.233 544.515 261.196 544.728 261.122C544.944 261.045 545.13 260.932 545.287 260.781C545.443 260.628 545.564 260.437 545.649 260.21L546.62 260.483C546.518 260.812 546.346 261.102 546.105 261.352C545.863 261.599 545.565 261.793 545.21 261.932C544.855 262.068 544.456 262.136 544.012 262.136ZM548.252 262V255.455H549.224V256.443H549.292C549.412 256.119 549.627 255.857 549.94 255.655C550.252 255.453 550.605 255.352 550.997 255.352C551.071 255.352 551.163 255.354 551.274 255.357C551.385 255.359 551.468 255.364 551.525 255.369V256.392C551.491 256.384 551.413 256.371 551.291 256.354C551.172 256.334 551.045 256.324 550.912 256.324C550.593 256.324 550.309 256.391 550.059 256.524C549.812 256.655 549.616 256.837 549.471 257.07C549.329 257.3 549.258 257.562 549.258 257.858V262H548.252ZM553.564 264.455C553.394 264.455 553.242 264.44 553.108 264.412C552.975 264.386 552.882 264.361 552.831 264.335L553.087 263.449C553.331 263.511 553.547 263.534 553.735 263.517C553.922 263.5 554.088 263.416 554.233 263.266C554.381 263.118 554.516 262.878 554.638 262.545L554.826 262.034L552.405 255.455H553.496L555.303 260.67H555.371L557.178 255.455H558.269L555.49 262.955C555.365 263.293 555.211 263.572 555.026 263.794C554.841 264.018 554.627 264.185 554.382 264.293C554.141 264.401 553.868 264.455 553.564 264.455ZM562.63 254.21V253.273H569.176V254.21H566.431V262H565.375V254.21H562.63ZM570.67 262V255.455H571.676V262H570.67ZM571.182 254.364C570.986 254.364 570.817 254.297 570.675 254.163C570.536 254.03 570.466 253.869 570.466 253.682C570.466 253.494 570.536 253.334 570.675 253.2C570.817 253.067 570.986 253 571.182 253C571.378 253 571.545 253.067 571.685 253.2C571.827 253.334 571.898 253.494 571.898 253.682C571.898 253.869 571.827 254.03 571.685 254.163C571.545 254.297 571.378 254.364 571.182 254.364ZM573.518 262V255.455H574.49V256.477H574.575C574.711 256.128 574.931 255.857 575.235 255.663C575.539 255.467 575.904 255.369 576.331 255.369C576.762 255.369 577.122 255.467 577.409 255.663C577.699 255.857 577.924 256.128 578.086 256.477H578.154C578.322 256.139 578.574 255.871 578.909 255.672C579.244 255.47 579.646 255.369 580.115 255.369C580.7 255.369 581.179 255.553 581.551 255.919C581.923 256.283 582.109 256.849 582.109 257.619V262H581.103V257.619C581.103 257.136 580.971 256.791 580.707 256.584C580.443 256.376 580.132 256.273 579.774 256.273C579.314 256.273 578.957 256.412 578.704 256.69C578.451 256.966 578.325 257.315 578.325 257.739V262H577.302V257.517C577.302 257.145 577.181 256.845 576.94 256.618C576.699 256.388 576.387 256.273 576.007 256.273C575.745 256.273 575.501 256.342 575.274 256.482C575.049 256.621 574.868 256.814 574.728 257.061C574.592 257.305 574.524 257.588 574.524 257.909V262H573.518ZM586.692 262.136C586.061 262.136 585.517 261.997 585.06 261.719C584.605 261.438 584.255 261.045 584.007 260.543C583.763 260.037 583.641 259.449 583.641 258.778C583.641 258.108 583.763 257.517 584.007 257.006C584.255 256.491 584.598 256.091 585.039 255.804C585.482 255.514 585.999 255.369 586.59 255.369C586.931 255.369 587.267 255.426 587.6 255.54C587.932 255.653 588.235 255.838 588.507 256.094C588.78 256.347 588.998 256.682 589.159 257.099C589.321 257.517 589.402 258.031 589.402 258.642V259.068H584.357V258.199H588.38C588.38 257.83 588.306 257.5 588.158 257.21C588.013 256.92 587.806 256.692 587.536 256.524C587.269 256.357 586.953 256.273 586.59 256.273C586.189 256.273 585.843 256.372 585.55 256.571C585.26 256.767 585.037 257.023 584.881 257.338C584.725 257.653 584.647 257.991 584.647 258.352V258.932C584.647 259.426 584.732 259.845 584.902 260.189C585.076 260.53 585.316 260.79 585.623 260.969C585.929 261.145 586.286 261.233 586.692 261.233C586.956 261.233 587.195 261.196 587.408 261.122C587.624 261.045 587.81 260.932 587.966 260.781C588.123 260.628 588.243 260.437 588.328 260.21L589.3 260.483C589.198 260.812 589.026 261.102 588.784 261.352C588.543 261.599 588.245 261.793 587.89 261.932C587.534 262.068 587.135 262.136 586.692 262.136Z" fill="#212121"/>
<defs>
<linearGradient id="paint0_linear_810_5492" x1="179.585" y1="71.3253" x2="252.013" y2="193.387" gradientUnits="userSpaceOnUse">
<stop stop-color="#3432CA" stop-opacity="0"/>
<stop offset="1" stop-color="#3432CA"/>
</linearGradient>
<linearGradient id="paint1_linear_810_5492" x1="361.191" y1="90.3919" x2="345.812" y2="209.527" gradientUnits="userSpaceOnUse">
<stop stop-color="#3432CA" stop-opacity="0"/>
<stop offset="1" stop-color="#3432CA"/>
</linearGradient>
<linearGradient id="paint2_linear_810_5492" x1="511.424" y1="257.854" x2="435.165" y2="248.544" gradientUnits="userSpaceOnUse">
<stop stop-color="#3432CA" stop-opacity="0"/>
<stop offset="1" stop-color="#3432CA"/>
</linearGradient>
<linearGradient id="paint3_linear_810_5492" x1="68.0745" y1="218.392" x2="153.916" y2="206.399" gradientUnits="userSpaceOnUse">
<stop stop-color="#3432CA" stop-opacity="0"/>
<stop offset="1" stop-color="#3432CA"/>
</linearGradient>
<linearGradient id="paint4_linear_810_5492" x1="41.0266" y1="191.825" x2="40.5842" y2="221.995" gradientUnits="userSpaceOnUse">
<stop stop-color="white"/>
<stop offset="1" stop-color="white" stop-opacity="0"/>
</linearGradient>
<linearGradient id="paint5_linear_810_5492" x1="41.0886" y1="217.41" x2="41.0817" y2="152.698" gradientUnits="userSpaceOnUse">
<stop stop-opacity="0"/>
<stop offset="1" stop-color="#3432CA"/>
</linearGradient>
<linearGradient id="paint6_linear_810_5492" x1="178.234" y1="49.8246" x2="177.791" y2="79.9945" gradientUnits="userSpaceOnUse">
<stop stop-color="white"/>
<stop offset="1" stop-color="white" stop-opacity="0"/>
</linearGradient>
<linearGradient id="paint7_linear_810_5492" x1="178.296" y1="75.4103" x2="178.289" y2="10.6977" gradientUnits="userSpaceOnUse">
<stop stop-opacity="0"/>
<stop offset="1" stop-color="#3432CA"/>
</linearGradient>
<radialGradient id="paint8_radial_810_5492" cx="0" cy="0" r="1" gradientUnits="userSpaceOnUse" gradientTransform="translate(309.798 189) rotate(90) scale(178 177.622)">
<stop stop-color="#363636"/>
<stop offset="1" stop-color="#363636" stop-opacity="0"/>
</radialGradient>
<linearGradient id="paint9_linear_810_5492" x1="385.619" y1="264.4" x2="206.372" y2="264.4" gradientUnits="userSpaceOnUse">
<stop/>
<stop offset="1" stop-color="#3432CA"/>
</linearGradient>
<linearGradient id="paint10_linear_810_5492" x1="427.206" y1="53.8246" x2="426.764" y2="83.9945" gradientUnits="userSpaceOnUse">
<stop stop-color="white"/>
<stop offset="1" stop-color="white" stop-opacity="0"/>
</linearGradient>
<linearGradient id="paint11_linear_810_5492" x1="427.268" y1="79.4103" x2="427.261" y2="14.6977" gradientUnits="userSpaceOnUse">
<stop stop-opacity="0"/>
<stop offset="1" stop-color="#3432CA"/>
</linearGradient>
<linearGradient id="paint12_linear_810_5492" x1="534.511" y1="217.825" x2="534.069" y2="247.995" gradientUnits="userSpaceOnUse">
<stop stop-color="white"/>
<stop offset="1" stop-color="white" stop-opacity="0"/>
</linearGradient>
<linearGradient id="paint13_linear_810_5492" x1="534.573" y1="243.41" x2="534.566" y2="178.698" gradientUnits="userSpaceOnUse">
<stop stop-opacity="0"/>
<stop offset="1" stop-color="#3432CA"/>
</linearGradient>
<clipPath id="clip0_810_5492">
<rect width="36" height="36" fill="white" transform="translate(22.957 164)"/>
</clipPath>
<clipPath id="clip1_810_5492">
<rect width="36" height="36" fill="white" transform="translate(160.164 22)"/>
</clipPath>
<clipPath id="clip2_810_5492">
<rect width="36" height="36" fill="white" transform="translate(516.441 190)"/>
</clipPath>
</defs>
</svg>
