<svg width="189" height="151" viewBox="0 0 189 151" fill="none" xmlns="http://www.w3.org/2000/svg">
<path opacity="0.2" d="M-70.8829 182.569C-70.0758 182.039 -69.1561 181.706 -68.1974 181.597C-67.2388 181.487 -66.2678 181.605 -65.3625 181.939C-64.4572 182.273 -63.6428 182.815 -62.9844 183.522C-62.3261 184.228 -61.8423 185.079 -61.5717 186.006C-57.9924 198.343 -50.9946 209.41 -41.3897 217.926C-31.7847 226.441 -19.9661 232.056 -7.30431 234.118C5.35751 236.181 18.3438 234.607 30.1488 229.58C41.9538 224.552 52.0939 216.276 59.3932 205.712L-70.8829 182.569ZM-70.8829 182.569C-77.7339 187.083 -85.4978 190.023 -93.6175 191.177C-101.737 192.332 -110.011 191.672 -117.846 189.246C-125.682 186.82 -132.883 182.687 -138.935 177.144C-144.986 171.601 -149.738 164.786 -152.848 157.187C-155.959 149.588 -157.351 141.393 -156.925 133.192C-156.499 124.99 -154.266 116.985 -150.385 109.749C-146.505 102.514 -141.073 96.229 -134.48 91.3445C-128.131 86.6406 -120.856 83.3481 -113.143 81.6825L-70.8829 182.569ZM-112.159 81.9941L-113.098 82.1844L146.256 99.4477C145.424 99.5802 144.574 99.5387 143.759 99.3259C142.944 99.113 142.182 98.7335 141.521 98.2111L141.212 98.6043C141.211 98.604 141.211 98.6038 141.211 98.6035C140.492 98.0387 139.897 97.3323 139.462 96.528C139.027 95.7234 138.762 94.8379 138.682 93.9265C137.848 84.6264 134.664 75.6918 129.43 67.964C124.196 60.2359 117.085 53.9688 108.765 49.7527C100.445 45.5367 91.1903 43.5102 81.8725 43.8642C72.5548 44.2182 63.4802 46.9409 55.5031 51.7762L55.5024 51.7766C54.6873 52.2688 53.7765 52.5807 52.831 52.6914C51.8856 52.8021 50.9274 52.709 50.0209 52.4184C49.1143 52.1278 48.2804 51.6465 47.575 51.0067C46.8695 50.3669 46.3089 49.5834 45.9308 48.7089L45.9305 48.7082C38.8214 32.1974 26.3531 18.5745 10.5463 10.047C-5.26048 1.51953 -23.4796 -1.41295 -41.1586 1.72474C-58.8376 4.86243 -74.9407 13.8865 -86.8583 27.3346C-98.7759 40.7828 -105.81 57.867 -106.82 75.8188C-106.902 77.2943 -107.471 78.7007 -108.437 79.8181C-109.403 80.9355 -110.712 81.7008 -112.159 81.9941Z" fill="url(#paint0_linear_727_5391)" stroke="#3432CA"/>
<defs>
<linearGradient id="paint0_linear_727_5391" x1="16" y1="0" x2="16" y2="127.166" gradientUnits="userSpaceOnUse">
<stop stop-color="#3432CA"/>
<stop offset="1" stop-color="#3432CA" stop-opacity="0"/>
</linearGradient>
</defs>
</svg>
