<svg width="695" height="550" viewBox="0 0 695 550" fill="none" xmlns="http://www.w3.org/2000/svg">
<rect width="695" height="550" rx="24" fill="url(#paint0_linear_958_5967)"/>
<mask id="mask0_958_5967" style="mask-type:alpha" maskUnits="userSpaceOnUse" x="0" y="0" width="695" height="550">
<rect width="695" height="550" rx="24" fill="url(#paint1_linear_958_5967)"/>
</mask>
<g mask="url(#mask0_958_5967)">
<path d="M87.4807 326.937L262.784 319.89L356.538 468.183L274.989 623.524L99.6865 630.571L5.93217 482.277L87.4807 326.937Z" stroke="#3432CA" stroke-opacity="0.3" stroke-width="130"/>
</g>
<rect x="227" y="72" width="241" height="64" rx="12" fill="black"/>
<path fill-rule="evenodd" clip-rule="evenodd" d="M270.453 108.838H270.205C269.93 108.838 269.707 108.616 269.707 108.34C269.707 106.845 267.899 106.097 266.842 107.153C266.648 107.348 266.333 107.348 266.138 107.153L265.065 106.081C264.871 105.887 264.871 105.571 265.065 105.377C266.121 104.321 265.373 102.512 263.879 102.512C263.604 102.512 263.381 102.289 263.381 102.014V100.498C263.381 100.223 263.604 99.9999 263.879 99.9999C265.373 99.9999 266.121 98.191 265.065 97.1351C264.871 96.9408 264.871 96.6255 265.065 96.4312L266.138 95.3583C266.333 95.164 266.648 95.164 266.842 95.3583C267.898 96.4142 269.707 95.6655 269.707 94.1717C269.707 93.8968 269.93 93.6739 270.205 93.6739H271.721C271.996 93.6739 272.219 93.8968 272.219 94.1717C272.219 95.6655 274.028 96.4142 275.084 95.3583C275.278 95.164 275.594 95.164 275.789 95.3583L276.861 96.4312C277.055 96.6255 277.055 96.9408 276.861 97.1351C275.805 98.191 276.554 99.9999 278.047 99.9999C278.323 99.9999 278.545 100.223 278.545 100.498V102.014C278.545 102.289 278.323 102.512 278.047 102.512C276.554 102.512 275.805 104.321 276.861 105.377C277.055 105.571 277.055 105.887 276.861 106.081L275.789 107.153C275.594 107.348 275.278 107.348 275.084 107.153C274.028 106.098 272.219 106.847 272.219 108.34C272.219 108.616 271.996 108.838 271.721 108.838H271.551V116.599C271.927 116.75 272.227 117.05 272.378 117.425H276.106C276.409 117.425 276.655 117.672 276.655 117.974C276.655 118.277 276.409 118.524 276.106 118.524H272.378C272.159 119.069 271.624 119.456 271.002 119.456C270.38 119.456 269.846 119.069 269.627 118.524H265.899C265.596 118.524 265.35 118.277 265.35 117.974C265.35 117.672 265.596 117.425 265.899 117.425H269.627C269.778 117.05 270.078 116.75 270.453 116.599V108.838ZM270.963 105.808C273.47 105.808 275.515 103.763 275.515 101.256C275.515 98.749 273.47 96.7049 270.963 96.7049C268.456 96.7049 266.412 98.749 266.412 101.256C266.412 103.763 268.456 105.808 270.963 105.808ZM270.963 104.71C269.061 104.71 267.51 103.158 267.51 101.256C267.51 99.3539 269.061 97.803 270.963 97.803C272.865 97.803 274.417 99.3539 274.417 101.256C274.417 103.158 272.865 104.71 270.963 104.71ZM258.681 110.063V106.906C258.681 106.715 258.781 106.537 258.944 106.438L263.335 103.75C263.594 103.592 263.932 103.673 264.09 103.931C264.248 104.19 264.167 104.528 263.908 104.686L259.779 107.214V110.063C260.325 110.282 260.711 110.816 260.711 111.438C260.711 112.254 260.046 112.92 259.23 112.92C258.414 112.92 257.749 112.254 257.749 111.438C257.749 110.816 258.136 110.282 258.681 110.063ZM282.147 110.063V107.214L278.018 104.686C277.76 104.528 277.679 104.19 277.837 103.931C277.995 103.673 278.333 103.592 278.592 103.75L282.983 106.438C283.146 106.537 283.246 106.715 283.246 106.906V110.063C283.791 110.282 284.178 110.816 284.178 111.438C284.178 112.254 283.512 112.92 282.696 112.92C281.881 112.92 281.215 112.254 281.215 111.438C281.215 110.816 281.602 110.282 282.147 110.063ZM258.646 121.07H255.865C255.495 121.07 255.195 120.77 255.195 120.401V119.759H264.514V120.401C264.514 120.77 264.215 121.07 263.846 121.07H261.042C261.032 121.491 261.111 121.95 261.227 122.312C261.265 122.431 261.244 122.562 261.17 122.663C261.097 122.764 260.979 122.824 260.854 122.824C260.279 122.824 259.423 122.824 258.851 122.824C258.727 122.824 258.61 122.765 258.536 122.665C258.462 122.565 258.44 122.436 258.476 122.317C258.588 121.954 258.659 121.493 258.646 121.07ZM280.941 121.07H278.159C277.79 121.07 277.49 120.77 277.49 120.401V119.759H286.809V120.401C286.809 120.77 286.51 121.07 286.141 121.07H283.337C283.327 121.491 283.406 121.95 283.522 122.312C283.56 122.431 283.539 122.562 283.465 122.663C283.392 122.764 283.274 122.824 283.149 122.824C282.574 122.824 281.718 122.824 281.146 122.824C281.022 122.824 280.904 122.765 280.831 122.665C280.757 122.565 280.735 122.436 280.771 122.317C280.883 121.954 280.954 121.493 280.941 121.07ZM255.195 118.661V115.052C255.195 114.682 255.495 114.383 255.865 114.383H264.023C264.294 114.383 264.514 114.603 264.514 114.874V118.661H255.195ZM277.49 118.661V115.052C277.49 114.682 277.79 114.383 278.159 114.383H286.318C286.589 114.383 286.809 114.603 286.809 114.874V118.661H277.49ZM262.283 101.75H261.804C259.074 101.75 256.86 99.5367 256.86 96.806V96.8059C256.86 94.2503 258.799 92.1476 261.286 91.8885C261.459 88.155 264.544 85.1768 268.32 85.1768C270.538 85.1768 272.517 86.2036 273.808 87.8073C274.432 87.5572 275.112 87.4197 275.825 87.4197C278.821 87.4197 281.253 89.852 281.253 92.8478C281.253 93.0596 281.241 93.2684 281.217 93.4739C283.368 93.6249 285.066 95.4176 285.066 97.6069C285.066 99.8952 283.211 101.75 280.923 101.75H279.643V100.498C279.643 99.6166 278.931 98.9019 278.047 98.9019C277.531 98.9019 277.272 98.2765 277.637 97.9115C278.26 97.2884 278.26 96.2778 277.637 95.6548L276.565 94.5822L276.565 94.5819C275.943 93.9594 274.93 93.9594 274.307 94.5819C273.942 94.9469 273.317 94.6881 273.317 94.1717C273.317 93.2906 272.602 92.5758 271.721 92.5758H270.205C269.324 92.5758 268.609 93.2906 268.609 94.1717C268.609 94.6881 267.984 94.9469 267.619 94.5819C266.996 93.9589 265.985 93.9589 265.362 94.5819L264.289 95.6548C263.666 96.2778 263.666 97.2884 264.289 97.9115C264.654 98.2765 264.395 98.9019 263.879 98.9019C262.998 98.9019 262.283 99.6166 262.283 100.498V101.75Z" fill="#009900"/>
<path d="M305.32 109.144C304.2 109.144 303.24 108.909 302.44 108.44C301.64 107.971 301.021 107.304 300.584 106.44C300.157 105.565 299.944 104.536 299.944 103.352C299.944 102.467 300.067 101.672 300.312 100.968C300.557 100.253 300.909 99.6453 301.368 99.144C301.827 98.632 302.387 98.2427 303.048 97.976C303.72 97.7093 304.477 97.576 305.32 97.576C305.96 97.576 306.573 97.6667 307.16 97.848C307.757 98.0293 308.269 98.2853 308.696 98.616C308.867 98.7333 308.979 98.8667 309.032 99.016C309.085 99.1653 309.091 99.3093 309.048 99.448C309.016 99.576 308.947 99.688 308.84 99.784C308.744 99.8693 308.621 99.9173 308.472 99.928C308.323 99.928 308.163 99.8693 307.992 99.752C307.619 99.464 307.208 99.256 306.76 99.128C306.323 98.9893 305.853 98.92 305.352 98.92C304.531 98.92 303.832 99.096 303.256 99.448C302.691 99.7893 302.259 100.291 301.96 100.952C301.672 101.603 301.528 102.403 301.528 103.352C301.528 104.291 301.672 105.096 301.96 105.768C302.259 106.429 302.691 106.936 303.256 107.288C303.832 107.629 304.531 107.8 305.352 107.8C305.853 107.8 306.328 107.731 306.776 107.592C307.235 107.453 307.656 107.24 308.04 106.952C308.211 106.835 308.365 106.781 308.504 106.792C308.653 106.803 308.776 106.851 308.872 106.936C308.968 107.011 309.032 107.117 309.064 107.256C309.107 107.384 309.107 107.517 309.064 107.656C309.021 107.795 308.925 107.917 308.776 108.024C308.339 108.397 307.816 108.68 307.208 108.872C306.611 109.053 305.981 109.144 305.32 109.144ZM313.413 109.144C312.613 109.144 312.005 108.909 311.589 108.44C311.173 107.96 310.965 107.272 310.965 106.376V98.344C310.965 98.0987 311.029 97.9173 311.157 97.8C311.285 97.672 311.461 97.608 311.685 97.608C311.92 97.608 312.101 97.672 312.229 97.8C312.357 97.9173 312.421 98.0987 312.421 98.344V106.264C312.421 106.819 312.533 107.235 312.757 107.512C312.992 107.779 313.322 107.912 313.749 107.912C313.845 107.912 313.93 107.912 314.005 107.912C314.08 107.901 314.154 107.891 314.229 107.88C314.346 107.869 314.432 107.901 314.485 107.976C314.538 108.051 314.565 108.2 314.565 108.424C314.565 108.627 314.517 108.787 314.421 108.904C314.336 109.011 314.192 109.08 313.989 109.112C313.893 109.123 313.797 109.128 313.701 109.128C313.605 109.139 313.509 109.144 313.413 109.144ZM316.497 109.08C316.273 109.08 316.097 109.011 315.969 108.872C315.841 108.733 315.777 108.541 315.777 108.296V101.912C315.777 101.656 315.841 101.464 315.969 101.336C316.097 101.197 316.273 101.128 316.497 101.128C316.732 101.128 316.913 101.197 317.041 101.336C317.169 101.464 317.233 101.656 317.233 101.912V108.296C317.233 108.541 317.169 108.733 317.041 108.872C316.924 109.011 316.743 109.08 316.497 109.08ZM316.497 99.4C316.209 99.4 315.98 99.3253 315.809 99.176C315.649 99.016 315.569 98.808 315.569 98.552C315.569 98.2747 315.649 98.0667 315.809 97.928C315.98 97.7787 316.209 97.704 316.497 97.704C316.807 97.704 317.036 97.7787 317.185 97.928C317.345 98.0667 317.425 98.2747 317.425 98.552C317.425 98.808 317.345 99.016 317.185 99.176C317.036 99.3253 316.807 99.4 316.497 99.4ZM323.174 109.144C322.332 109.144 321.606 108.984 320.998 108.664C320.401 108.333 319.937 107.869 319.606 107.272C319.276 106.664 319.11 105.949 319.11 105.128C319.11 104.317 319.27 103.608 319.59 103C319.921 102.392 320.369 101.917 320.934 101.576C321.51 101.235 322.166 101.064 322.902 101.064C323.425 101.064 323.894 101.155 324.31 101.336C324.737 101.507 325.1 101.757 325.398 102.088C325.697 102.419 325.921 102.824 326.07 103.304C326.23 103.773 326.31 104.307 326.31 104.904C326.31 105.075 326.257 105.208 326.15 105.304C326.054 105.389 325.91 105.432 325.718 105.432H320.246V104.504H325.35L325.078 104.728C325.078 104.173 324.993 103.704 324.822 103.32C324.662 102.925 324.422 102.627 324.102 102.424C323.793 102.221 323.404 102.12 322.934 102.12C322.422 102.12 321.985 102.243 321.622 102.488C321.26 102.723 320.982 103.059 320.79 103.496C320.598 103.923 320.502 104.419 320.502 104.984V105.08C320.502 106.04 320.732 106.765 321.19 107.256C321.649 107.747 322.31 107.992 323.174 107.992C323.516 107.992 323.862 107.949 324.214 107.864C324.577 107.779 324.924 107.624 325.254 107.4C325.414 107.304 325.558 107.261 325.686 107.272C325.825 107.272 325.937 107.315 326.022 107.4C326.108 107.475 326.161 107.571 326.182 107.688C326.204 107.795 326.188 107.912 326.134 108.04C326.081 108.168 325.98 108.28 325.83 108.376C325.478 108.621 325.057 108.813 324.566 108.952C324.086 109.08 323.622 109.144 323.174 109.144ZM328.841 109.112C328.617 109.112 328.441 109.048 328.313 108.92C328.185 108.792 328.121 108.605 328.121 108.36V101.832C328.121 101.587 328.185 101.405 328.313 101.288C328.441 101.16 328.617 101.096 328.841 101.096C329.065 101.096 329.236 101.16 329.353 101.288C329.481 101.405 329.545 101.587 329.545 101.832V103.144L329.369 102.904C329.593 102.296 329.956 101.837 330.457 101.528C330.969 101.219 331.55 101.064 332.201 101.064C332.83 101.064 333.348 101.176 333.753 101.4C334.158 101.624 334.462 101.965 334.665 102.424C334.868 102.883 334.969 103.464 334.969 104.168V108.36C334.969 108.605 334.905 108.792 334.777 108.92C334.66 109.048 334.484 109.112 334.249 109.112C334.014 109.112 333.833 109.048 333.705 108.92C333.577 108.792 333.513 108.605 333.513 108.36V104.248C333.513 103.555 333.38 103.048 333.113 102.728C332.846 102.408 332.42 102.248 331.833 102.248C331.15 102.248 330.601 102.461 330.185 102.888C329.78 103.304 329.577 103.869 329.577 104.584V108.36C329.577 108.861 329.332 109.112 328.841 109.112ZM340.509 109.144C339.88 109.144 339.352 109.032 338.925 108.808C338.509 108.584 338.195 108.259 337.981 107.832C337.779 107.405 337.677 106.883 337.677 106.264V102.328H336.653C336.461 102.328 336.312 102.28 336.205 102.184C336.099 102.077 336.045 101.939 336.045 101.768C336.045 101.587 336.099 101.448 336.205 101.352C336.312 101.256 336.461 101.208 336.653 101.208H337.677V99.464C337.677 99.2187 337.741 99.0373 337.869 98.92C337.997 98.792 338.179 98.728 338.413 98.728C338.648 98.728 338.824 98.792 338.941 98.92C339.069 99.0373 339.133 99.2187 339.133 99.464V101.208H341.069C341.272 101.208 341.427 101.256 341.533 101.352C341.64 101.448 341.693 101.587 341.693 101.768C341.693 101.939 341.64 102.077 341.533 102.184C341.427 102.28 341.272 102.328 341.069 102.328H339.133V106.136C339.133 106.723 339.256 107.165 339.501 107.464C339.747 107.763 340.152 107.912 340.717 107.912C340.92 107.912 341.091 107.896 341.229 107.864C341.368 107.821 341.491 107.8 341.597 107.8C341.693 107.789 341.773 107.821 341.837 107.896C341.912 107.971 341.949 108.109 341.949 108.312C341.949 108.461 341.923 108.6 341.869 108.728C341.827 108.845 341.736 108.925 341.597 108.968C341.469 109.011 341.299 109.048 341.085 109.08C340.872 109.123 340.68 109.144 340.509 109.144ZM348.112 109.112C347.877 109.112 347.696 109.048 347.568 108.92C347.44 108.781 347.376 108.589 347.376 108.344V98.376C347.376 98.12 347.44 97.928 347.568 97.8C347.696 97.672 347.877 97.608 348.112 97.608C348.357 97.608 348.544 97.672 348.672 97.8C348.8 97.928 348.864 98.12 348.864 98.376V108.344C348.864 108.589 348.8 108.781 348.672 108.92C348.554 109.048 348.368 109.112 348.112 109.112ZM352.091 109.112C351.867 109.112 351.691 109.048 351.563 108.92C351.435 108.792 351.371 108.605 351.371 108.36V101.832C351.371 101.587 351.435 101.405 351.563 101.288C351.691 101.16 351.867 101.096 352.091 101.096C352.315 101.096 352.486 101.16 352.603 101.288C352.731 101.405 352.795 101.587 352.795 101.832V103.144L352.619 102.904C352.843 102.296 353.206 101.837 353.707 101.528C354.219 101.219 354.8 101.064 355.451 101.064C356.08 101.064 356.598 101.176 357.003 101.4C357.408 101.624 357.712 101.965 357.915 102.424C358.118 102.883 358.219 103.464 358.219 104.168V108.36C358.219 108.605 358.155 108.792 358.027 108.92C357.91 109.048 357.734 109.112 357.499 109.112C357.264 109.112 357.083 109.048 356.955 108.92C356.827 108.792 356.763 108.605 356.763 108.36V104.248C356.763 103.555 356.63 103.048 356.363 102.728C356.096 102.408 355.67 102.248 355.083 102.248C354.4 102.248 353.851 102.461 353.435 102.888C353.03 103.304 352.827 103.869 352.827 104.584V108.36C352.827 108.861 352.582 109.112 352.091 109.112ZM361.711 109.112C361.477 109.112 361.295 109.048 361.167 108.92C361.039 108.792 360.975 108.605 360.975 108.36V102.328H360.015C359.823 102.328 359.674 102.28 359.567 102.184C359.461 102.077 359.407 101.939 359.407 101.768C359.407 101.587 359.461 101.448 359.567 101.352C359.674 101.256 359.823 101.208 360.015 101.208H361.375L360.975 101.592V101C360.975 99.9653 361.226 99.1813 361.727 98.648C362.239 98.104 362.986 97.7893 363.967 97.704L364.463 97.672C364.623 97.6507 364.751 97.6773 364.847 97.752C364.943 97.816 365.007 97.9013 365.039 98.008C365.071 98.1147 365.071 98.2267 365.039 98.344C365.018 98.4507 364.97 98.5467 364.895 98.632C364.821 98.7173 364.725 98.7653 364.607 98.776L364.255 98.792C363.615 98.8453 363.151 99.0373 362.863 99.368C362.575 99.688 362.431 100.168 362.431 100.808V101.448L362.223 101.208H364.063C364.266 101.208 364.421 101.256 364.527 101.352C364.634 101.448 364.687 101.587 364.687 101.768C364.687 101.939 364.634 102.077 364.527 102.184C364.421 102.28 364.266 102.328 364.063 102.328H362.431V108.36C362.431 108.861 362.191 109.112 361.711 109.112ZM366.717 109.112C366.472 109.112 366.285 109.048 366.157 108.92C366.029 108.792 365.965 108.605 365.965 108.36V101.832C365.965 101.587 366.029 101.405 366.157 101.288C366.285 101.16 366.461 101.096 366.685 101.096C366.909 101.096 367.08 101.16 367.197 101.288C367.325 101.405 367.389 101.587 367.389 101.832V103.064H367.229C367.4 102.424 367.72 101.939 368.189 101.608C368.658 101.277 369.25 101.091 369.965 101.048C370.136 101.037 370.274 101.08 370.381 101.176C370.488 101.261 370.546 101.411 370.557 101.624C370.568 101.827 370.52 101.992 370.413 102.12C370.306 102.237 370.141 102.307 369.917 102.328L369.629 102.344C368.925 102.419 368.381 102.648 367.997 103.032C367.624 103.416 367.437 103.944 367.437 104.616V108.36C367.437 108.605 367.373 108.792 367.245 108.92C367.128 109.048 366.952 109.112 366.717 109.112ZM374.211 109.144C373.677 109.144 373.192 109.037 372.755 108.824C372.328 108.611 371.992 108.323 371.747 107.96C371.512 107.597 371.395 107.192 371.395 106.744C371.395 106.168 371.539 105.715 371.827 105.384C372.115 105.053 372.6 104.819 373.283 104.68C373.965 104.531 374.883 104.456 376.035 104.456H376.787V105.384H376.067C375.245 105.384 374.595 105.421 374.115 105.496C373.645 105.571 373.315 105.704 373.123 105.896C372.931 106.077 372.835 106.333 372.835 106.664C372.835 107.08 372.979 107.421 373.267 107.688C373.565 107.955 373.971 108.088 374.483 108.088C374.888 108.088 375.245 107.992 375.555 107.8C375.864 107.597 376.109 107.331 376.291 107C376.472 106.659 376.563 106.269 376.563 105.832V103.992C376.563 103.363 376.435 102.909 376.179 102.632C375.923 102.344 375.491 102.2 374.883 102.2C374.531 102.2 374.168 102.248 373.795 102.344C373.421 102.44 373.032 102.589 372.627 102.792C372.467 102.867 372.328 102.893 372.211 102.872C372.093 102.84 371.997 102.776 371.923 102.68C371.859 102.573 371.821 102.461 371.811 102.344C371.811 102.216 371.837 102.093 371.891 101.976C371.955 101.859 372.061 101.773 372.211 101.72C372.68 101.485 373.144 101.32 373.603 101.224C374.072 101.117 374.509 101.064 374.915 101.064C375.608 101.064 376.179 101.176 376.627 101.4C377.075 101.613 377.411 101.949 377.635 102.408C377.859 102.856 377.971 103.432 377.971 104.136V108.36C377.971 108.605 377.912 108.792 377.795 108.92C377.677 109.048 377.507 109.112 377.283 109.112C377.069 109.112 376.899 109.048 376.771 108.92C376.653 108.792 376.595 108.605 376.595 108.36V107.224H376.739C376.653 107.619 376.493 107.96 376.259 108.248C376.024 108.536 375.731 108.76 375.379 108.92C375.037 109.069 374.648 109.144 374.211 109.144ZM382.95 109.144C382.47 109.144 381.984 109.091 381.494 108.984C381.014 108.867 380.56 108.669 380.134 108.392C380.016 108.317 379.931 108.227 379.878 108.12C379.835 108.003 379.819 107.891 379.83 107.784C379.851 107.667 379.899 107.565 379.974 107.48C380.048 107.395 380.139 107.347 380.246 107.336C380.363 107.315 380.486 107.341 380.614 107.416C381.03 107.651 381.43 107.816 381.814 107.912C382.208 108.008 382.598 108.056 382.982 108.056C383.568 108.056 384.011 107.949 384.31 107.736C384.608 107.523 384.758 107.24 384.758 106.888C384.758 106.589 384.656 106.36 384.454 106.2C384.262 106.029 383.958 105.901 383.542 105.816L382.054 105.512C381.392 105.363 380.891 105.117 380.55 104.776C380.219 104.424 380.054 103.976 380.054 103.432C380.054 102.952 380.182 102.536 380.438 102.184C380.704 101.821 381.072 101.544 381.542 101.352C382.011 101.16 382.55 101.064 383.158 101.064C383.627 101.064 384.07 101.128 384.486 101.256C384.912 101.373 385.296 101.555 385.638 101.8C385.766 101.875 385.846 101.971 385.878 102.088C385.92 102.195 385.926 102.307 385.894 102.424C385.872 102.531 385.824 102.621 385.75 102.696C385.675 102.771 385.579 102.819 385.462 102.84C385.344 102.851 385.216 102.819 385.078 102.744C384.768 102.531 384.448 102.381 384.118 102.296C383.798 102.2 383.478 102.152 383.158 102.152C382.582 102.152 382.144 102.264 381.846 102.488C381.558 102.712 381.414 103.005 381.414 103.368C381.414 103.645 381.499 103.875 381.67 104.056C381.851 104.237 382.134 104.371 382.518 104.456L384.006 104.76C384.699 104.909 385.222 105.149 385.574 105.48C385.926 105.8 386.102 106.237 386.102 106.792C386.102 107.517 385.814 108.093 385.238 108.52C384.672 108.936 383.91 109.144 382.95 109.144ZM391.15 109.144C390.521 109.144 389.993 109.032 389.566 108.808C389.15 108.584 388.835 108.259 388.622 107.832C388.419 107.405 388.318 106.883 388.318 106.264V102.328H387.294C387.102 102.328 386.953 102.28 386.846 102.184C386.739 102.077 386.686 101.939 386.686 101.768C386.686 101.587 386.739 101.448 386.846 101.352C386.953 101.256 387.102 101.208 387.294 101.208H388.318V99.464C388.318 99.2187 388.382 99.0373 388.51 98.92C388.638 98.792 388.819 98.728 389.054 98.728C389.289 98.728 389.465 98.792 389.582 98.92C389.71 99.0373 389.774 99.2187 389.774 99.464V101.208H391.71C391.913 101.208 392.067 101.256 392.174 101.352C392.281 101.448 392.334 101.587 392.334 101.768C392.334 101.939 392.281 102.077 392.174 102.184C392.067 102.28 391.913 102.328 391.71 102.328H389.774V106.136C389.774 106.723 389.897 107.165 390.142 107.464C390.387 107.763 390.793 107.912 391.358 107.912C391.561 107.912 391.731 107.896 391.87 107.864C392.009 107.821 392.131 107.8 392.238 107.8C392.334 107.789 392.414 107.821 392.478 107.896C392.553 107.971 392.59 108.109 392.59 108.312C392.59 108.461 392.563 108.6 392.51 108.728C392.467 108.845 392.377 108.925 392.238 108.968C392.11 109.011 391.939 109.048 391.726 109.08C391.513 109.123 391.321 109.144 391.15 109.144ZM394.404 109.112C394.159 109.112 393.972 109.048 393.844 108.92C393.716 108.792 393.652 108.605 393.652 108.36V101.832C393.652 101.587 393.716 101.405 393.844 101.288C393.972 101.16 394.148 101.096 394.372 101.096C394.596 101.096 394.767 101.16 394.884 101.288C395.012 101.405 395.076 101.587 395.076 101.832V103.064H394.916C395.087 102.424 395.407 101.939 395.876 101.608C396.346 101.277 396.938 101.091 397.652 101.048C397.823 101.037 397.962 101.08 398.068 101.176C398.175 101.261 398.234 101.411 398.244 101.624C398.255 101.827 398.207 101.992 398.1 102.12C397.994 102.237 397.828 102.307 397.604 102.328L397.316 102.344C396.612 102.419 396.068 102.648 395.684 103.032C395.311 103.416 395.124 103.944 395.124 104.616V108.36C395.124 108.605 395.06 108.792 394.932 108.92C394.815 109.048 394.639 109.112 394.404 109.112ZM402.28 109.144C401.651 109.144 401.123 109.027 400.696 108.792C400.28 108.557 399.971 108.211 399.768 107.752C399.565 107.293 399.464 106.717 399.464 106.024V101.832C399.464 101.587 399.523 101.405 399.64 101.288C399.768 101.16 399.949 101.096 400.184 101.096C400.419 101.096 400.6 101.16 400.728 101.288C400.856 101.405 400.92 101.587 400.92 101.832V106.024C400.92 106.685 401.053 107.176 401.32 107.496C401.587 107.805 402.008 107.96 402.584 107.96C403.224 107.96 403.741 107.747 404.136 107.32C404.541 106.893 404.744 106.328 404.744 105.624V101.832C404.744 101.587 404.803 101.405 404.92 101.288C405.048 101.16 405.229 101.096 405.464 101.096C405.699 101.096 405.88 101.16 406.008 101.288C406.136 101.405 406.2 101.587 406.2 101.832V108.36C406.2 108.861 405.965 109.112 405.496 109.112C405.261 109.112 405.08 109.048 404.952 108.92C404.835 108.792 404.776 108.605 404.776 108.36V106.968L404.984 107.24C404.771 107.859 404.424 108.333 403.944 108.664C403.475 108.984 402.92 109.144 402.28 109.144ZM411.919 109.144C411.13 109.144 410.447 108.979 409.871 108.648C409.295 108.307 408.852 107.832 408.543 107.224C408.234 106.605 408.079 105.88 408.079 105.048C408.079 104.429 408.164 103.875 408.335 103.384C408.516 102.893 408.772 102.477 409.103 102.136C409.434 101.784 409.834 101.517 410.303 101.336C410.783 101.155 411.322 101.064 411.919 101.064C412.292 101.064 412.687 101.123 413.103 101.24C413.519 101.357 413.903 101.549 414.255 101.816C414.372 101.901 414.447 102.003 414.479 102.12C414.511 102.227 414.511 102.339 414.479 102.456C414.458 102.573 414.404 102.675 414.319 102.76C414.244 102.835 414.143 102.877 414.015 102.888C413.898 102.899 413.77 102.861 413.631 102.776C413.375 102.584 413.103 102.445 412.815 102.36C412.538 102.275 412.271 102.232 412.015 102.232C411.62 102.232 411.268 102.296 410.959 102.424C410.66 102.552 410.404 102.739 410.191 102.984C409.988 103.219 409.834 103.512 409.727 103.864C409.62 104.205 409.567 104.605 409.567 105.064C409.567 105.971 409.78 106.685 410.207 107.208C410.634 107.72 411.236 107.976 412.015 107.976C412.271 107.976 412.538 107.939 412.815 107.864C413.092 107.779 413.364 107.64 413.631 107.448C413.77 107.363 413.898 107.331 414.015 107.352C414.132 107.363 414.228 107.411 414.303 107.496C414.388 107.571 414.442 107.667 414.463 107.784C414.484 107.891 414.474 108.003 414.431 108.12C414.399 108.237 414.324 108.333 414.207 108.408C413.866 108.664 413.492 108.851 413.087 108.968C412.682 109.085 412.292 109.144 411.919 109.144ZM419.228 109.144C418.599 109.144 418.071 109.032 417.644 108.808C417.228 108.584 416.913 108.259 416.7 107.832C416.497 107.405 416.396 106.883 416.396 106.264V102.328H415.372C415.18 102.328 415.031 102.28 414.924 102.184C414.817 102.077 414.764 101.939 414.764 101.768C414.764 101.587 414.817 101.448 414.924 101.352C415.031 101.256 415.18 101.208 415.372 101.208H416.396V99.464C416.396 99.2187 416.46 99.0373 416.588 98.92C416.716 98.792 416.897 98.728 417.132 98.728C417.367 98.728 417.543 98.792 417.66 98.92C417.788 99.0373 417.852 99.2187 417.852 99.464V101.208H419.788C419.991 101.208 420.145 101.256 420.252 101.352C420.359 101.448 420.412 101.587 420.412 101.768C420.412 101.939 420.359 102.077 420.252 102.184C420.145 102.28 419.991 102.328 419.788 102.328H417.852V106.136C417.852 106.723 417.975 107.165 418.22 107.464C418.465 107.763 418.871 107.912 419.436 107.912C419.639 107.912 419.809 107.896 419.948 107.864C420.087 107.821 420.209 107.8 420.316 107.8C420.412 107.789 420.492 107.821 420.556 107.896C420.631 107.971 420.668 108.109 420.668 108.312C420.668 108.461 420.641 108.6 420.588 108.728C420.545 108.845 420.455 108.925 420.316 108.968C420.188 109.011 420.017 109.048 419.804 109.08C419.591 109.123 419.399 109.144 419.228 109.144ZM424.515 109.144C423.885 109.144 423.357 109.027 422.931 108.792C422.515 108.557 422.205 108.211 422.003 107.752C421.8 107.293 421.699 106.717 421.699 106.024V101.832C421.699 101.587 421.757 101.405 421.875 101.288C422.003 101.16 422.184 101.096 422.419 101.096C422.653 101.096 422.835 101.16 422.963 101.288C423.091 101.405 423.155 101.587 423.155 101.832V106.024C423.155 106.685 423.288 107.176 423.555 107.496C423.821 107.805 424.243 107.96 424.819 107.96C425.459 107.96 425.976 107.747 426.371 107.32C426.776 106.893 426.979 106.328 426.979 105.624V101.832C426.979 101.587 427.037 101.405 427.155 101.288C427.283 101.16 427.464 101.096 427.699 101.096C427.933 101.096 428.115 101.16 428.243 101.288C428.371 101.405 428.435 101.587 428.435 101.832V108.36C428.435 108.861 428.2 109.112 427.731 109.112C427.496 109.112 427.315 109.048 427.187 108.92C427.069 108.792 427.011 108.605 427.011 108.36V106.968L427.219 107.24C427.005 107.859 426.659 108.333 426.179 108.664C425.709 108.984 425.155 109.144 424.515 109.144ZM431.529 109.112C431.284 109.112 431.097 109.048 430.969 108.92C430.841 108.792 430.777 108.605 430.777 108.36V101.832C430.777 101.587 430.841 101.405 430.969 101.288C431.097 101.16 431.273 101.096 431.497 101.096C431.721 101.096 431.892 101.16 432.009 101.288C432.137 101.405 432.201 101.587 432.201 101.832V103.064H432.041C432.212 102.424 432.532 101.939 433.001 101.608C433.471 101.277 434.063 101.091 434.777 101.048C434.948 101.037 435.087 101.08 435.193 101.176C435.3 101.261 435.359 101.411 435.369 101.624C435.38 101.827 435.332 101.992 435.225 102.12C435.119 102.237 434.953 102.307 434.729 102.328L434.441 102.344C433.737 102.419 433.193 102.648 432.809 103.032C432.436 103.416 432.249 103.944 432.249 104.616V108.36C432.249 108.605 432.185 108.792 432.057 108.92C431.94 109.048 431.764 109.112 431.529 109.112ZM440.112 109.144C439.269 109.144 438.544 108.984 437.936 108.664C437.338 108.333 436.874 107.869 436.544 107.272C436.213 106.664 436.048 105.949 436.048 105.128C436.048 104.317 436.208 103.608 436.528 103C436.858 102.392 437.306 101.917 437.872 101.576C438.448 101.235 439.104 101.064 439.84 101.064C440.362 101.064 440.832 101.155 441.248 101.336C441.674 101.507 442.037 101.757 442.336 102.088C442.634 102.419 442.858 102.824 443.008 103.304C443.168 103.773 443.248 104.307 443.248 104.904C443.248 105.075 443.194 105.208 443.088 105.304C442.992 105.389 442.848 105.432 442.656 105.432H437.184V104.504H442.288L442.016 104.728C442.016 104.173 441.93 103.704 441.76 103.32C441.6 102.925 441.36 102.627 441.04 102.424C440.73 102.221 440.341 102.12 439.872 102.12C439.36 102.12 438.922 102.243 438.56 102.488C438.197 102.723 437.92 103.059 437.728 103.496C437.536 103.923 437.44 104.419 437.44 104.984V105.08C437.44 106.04 437.669 106.765 438.128 107.256C438.586 107.747 439.248 107.992 440.112 107.992C440.453 107.992 440.8 107.949 441.152 107.864C441.514 107.779 441.861 107.624 442.192 107.4C442.352 107.304 442.496 107.261 442.624 107.272C442.762 107.272 442.874 107.315 442.96 107.4C443.045 107.475 443.098 107.571 443.12 107.688C443.141 107.795 443.125 107.912 443.072 108.04C443.018 108.168 442.917 108.28 442.768 108.376C442.416 108.621 441.994 108.813 441.504 108.952C441.024 109.08 440.56 109.144 440.112 109.144Z" fill="white"/>
<rect x="255.75" y="237.75" width="184.5" height="148.5" rx="19.25" fill="url(#paint2_linear_958_5967)" stroke="url(#paint3_linear_958_5967)" stroke-width="1.5"/>
<g clip-path="url(#clip0_958_5967)">
<path d="M313.641 312.417C313.641 316.557 317.009 319.926 321.149 319.926H375.859C379.999 319.926 383.367 316.557 383.367 312.417V308.988H313.641V312.417ZM375.164 313.09C375.917 313.09 376.531 313.704 376.531 314.457C376.531 315.21 375.918 315.824 375.164 315.824C374.411 315.824 373.797 315.211 373.797 314.457C373.797 313.704 374.41 313.09 375.164 313.09ZM368.328 313.09H369.695C370.45 313.09 371.062 313.702 371.062 314.457C371.062 315.212 370.45 315.824 369.695 315.824H368.328C367.573 315.824 366.961 315.212 366.961 314.457C366.961 313.702 367.573 313.09 368.328 313.09ZM361.492 313.09H362.859C363.614 313.09 364.227 313.702 364.227 314.457C364.227 315.212 363.614 315.824 362.859 315.824H361.492C360.737 315.824 360.125 315.212 360.125 314.457C360.125 313.702 360.737 313.09 361.492 313.09Z" fill="#009900"/>
<path d="M375.859 261.137H321.149C317.009 261.137 313.641 264.505 313.641 268.645V306.254H383.367V268.645C383.367 264.505 379.999 261.137 375.859 261.137ZM328.279 288.881C328.813 289.415 328.813 290.281 328.279 290.815C327.745 291.348 326.88 291.348 326.346 290.815L320.877 285.346C320.343 284.812 320.343 283.946 320.877 283.412L326.346 277.943C326.88 277.41 327.745 277.41 328.279 277.943C328.813 278.477 328.813 279.343 328.279 279.877L323.777 284.379L328.279 288.881ZM336.842 279.242L334.108 290.179C333.925 290.91 333.185 291.357 332.45 291.174C331.717 290.991 331.272 290.249 331.455 289.516L334.189 278.578C334.372 277.846 335.115 277.401 335.847 277.584C336.58 277.767 337.025 278.509 336.842 279.242ZM340.018 290.814C339.484 290.281 339.484 289.415 340.018 288.881L344.52 284.379L340.017 279.877C339.484 279.343 339.484 278.477 340.017 277.943C340.551 277.409 341.417 277.409 341.951 277.943L347.42 283.412C347.954 283.946 347.954 284.812 347.42 285.346L341.951 290.814C341.417 291.348 340.552 291.348 340.018 290.814ZM375.164 302.152H347.82C347.065 302.152 346.453 301.54 346.453 300.785C346.453 300.03 347.065 299.418 347.82 299.418H349.188V295.316C349.188 294.561 349.8 293.949 350.555 293.949C351.31 293.949 351.922 294.561 351.922 295.316V299.418H354.656V291.215C354.656 290.46 355.268 289.848 356.023 289.848C356.778 289.848 357.391 290.46 357.391 291.215V299.418H360.125V293.949C360.125 293.194 360.737 292.582 361.492 292.582C362.247 292.582 362.859 293.194 362.859 293.949V299.418H365.594V285.746C365.594 284.991 366.206 284.379 366.961 284.379C367.716 284.379 368.328 284.991 368.328 285.746V299.418H371.062V288.48C371.062 287.725 371.675 287.113 372.43 287.113C373.185 287.113 373.797 287.725 373.797 288.48V299.418H375.164C375.919 299.418 376.531 300.03 376.531 300.785C376.531 301.54 375.919 302.152 375.164 302.152ZM349.188 274.809C349.188 274.053 349.8 273.441 350.555 273.441H366.961C367.716 273.441 368.328 274.053 368.328 274.809C368.328 275.564 367.716 276.176 366.961 276.176H350.555C349.8 276.176 349.188 275.564 349.188 274.809ZM375.164 270.707H350.555C349.8 270.707 349.188 270.095 349.188 269.34C349.188 268.585 349.8 267.973 350.555 267.973H375.164C375.919 267.973 376.531 268.585 376.531 269.34C376.531 270.095 375.919 270.707 375.164 270.707Z" fill="#009900"/>
<path d="M356.703 325.395H355.336V324.027C355.336 323.272 354.724 322.66 353.969 322.66H343.031C342.276 322.66 341.664 323.272 341.664 324.027V325.395H340.297C337.277 325.395 334.828 327.843 334.828 330.863H362.172C362.172 327.843 359.723 325.395 356.703 325.395Z" fill="#009900"/>
</g>
<path d="M307.103 357H304.853L308.95 345.364H311.552L315.654 357H313.404L310.296 347.75H310.205L307.103 357ZM307.177 352.438H313.313V354.131H307.177V352.438ZM317.096 360.273V348.273H319.119V349.716H319.238C319.344 349.504 319.494 349.278 319.687 349.04C319.88 348.797 320.141 348.591 320.471 348.42C320.8 348.246 321.221 348.159 321.732 348.159C322.406 348.159 323.014 348.331 323.556 348.676C324.102 349.017 324.533 349.523 324.852 350.193C325.174 350.86 325.335 351.678 325.335 352.648C325.335 353.606 325.177 354.42 324.863 355.091C324.549 355.761 324.121 356.273 323.579 356.625C323.037 356.977 322.424 357.153 321.738 357.153C321.238 357.153 320.823 357.07 320.494 356.903C320.164 356.737 319.899 356.536 319.698 356.301C319.501 356.062 319.348 355.837 319.238 355.625H319.153V360.273H317.096ZM319.113 352.636C319.113 353.201 319.192 353.695 319.352 354.119C319.514 354.544 319.747 354.875 320.05 355.114C320.357 355.348 320.728 355.466 321.164 355.466C321.619 355.466 321.999 355.345 322.306 355.102C322.613 354.856 322.844 354.521 322.999 354.097C323.158 353.669 323.238 353.182 323.238 352.636C323.238 352.095 323.16 351.614 323.005 351.193C322.85 350.773 322.619 350.443 322.312 350.205C322.005 349.966 321.622 349.847 321.164 349.847C320.725 349.847 320.352 349.962 320.045 350.193C319.738 350.424 319.505 350.748 319.346 351.165C319.191 351.581 319.113 352.072 319.113 352.636ZM327.096 360.273V348.273H329.119V349.716H329.238C329.344 349.504 329.494 349.278 329.687 349.04C329.88 348.797 330.141 348.591 330.471 348.42C330.8 348.246 331.221 348.159 331.732 348.159C332.406 348.159 333.014 348.331 333.556 348.676C334.102 349.017 334.533 349.523 334.852 350.193C335.174 350.86 335.335 351.678 335.335 352.648C335.335 353.606 335.177 354.42 334.863 355.091C334.549 355.761 334.121 356.273 333.579 356.625C333.037 356.977 332.424 357.153 331.738 357.153C331.238 357.153 330.823 357.07 330.494 356.903C330.164 356.737 329.899 356.536 329.698 356.301C329.501 356.062 329.348 355.837 329.238 355.625H329.153V360.273H327.096ZM329.113 352.636C329.113 353.201 329.192 353.695 329.352 354.119C329.514 354.544 329.747 354.875 330.05 355.114C330.357 355.348 330.728 355.466 331.164 355.466C331.619 355.466 331.999 355.345 332.306 355.102C332.613 354.856 332.844 354.521 332.999 354.097C333.158 353.669 333.238 353.182 333.238 352.636C333.238 352.095 333.16 351.614 333.005 351.193C332.85 350.773 332.619 350.443 332.312 350.205C332.005 349.966 331.622 349.847 331.164 349.847C330.725 349.847 330.352 349.962 330.045 350.193C329.738 350.424 329.505 350.748 329.346 351.165C329.191 351.581 329.113 352.072 329.113 352.636ZM339.153 345.364V357H337.096V345.364H339.153ZM341.268 357V348.273H343.325V357H341.268ZM342.302 347.034C341.976 347.034 341.696 346.926 341.461 346.71C341.226 346.491 341.109 346.227 341.109 345.92C341.109 345.61 341.226 345.347 341.461 345.131C341.696 344.911 341.976 344.801 342.302 344.801C342.631 344.801 342.912 344.911 343.143 345.131C343.378 345.347 343.495 345.61 343.495 345.92C343.495 346.227 343.378 346.491 343.143 346.71C342.912 346.926 342.631 347.034 342.302 347.034ZM349.246 357.17C348.375 357.17 347.627 356.979 347.002 356.597C346.381 356.214 345.902 355.686 345.565 355.011C345.231 354.333 345.065 353.553 345.065 352.67C345.065 351.784 345.235 351.002 345.576 350.324C345.917 349.642 346.398 349.112 347.019 348.733C347.644 348.35 348.383 348.159 349.235 348.159C349.943 348.159 350.57 348.29 351.116 348.551C351.665 348.809 352.103 349.174 352.428 349.648C352.754 350.117 352.94 350.667 352.985 351.295H351.019C350.94 350.875 350.75 350.525 350.451 350.244C350.156 349.96 349.76 349.818 349.263 349.818C348.843 349.818 348.474 349.932 348.156 350.159C347.837 350.383 347.589 350.705 347.411 351.125C347.237 351.545 347.15 352.049 347.15 352.636C347.15 353.231 347.237 353.742 347.411 354.17C347.585 354.595 347.83 354.922 348.144 355.153C348.462 355.381 348.835 355.494 349.263 355.494C349.567 355.494 349.837 355.437 350.076 355.324C350.318 355.206 350.521 355.038 350.684 354.818C350.847 354.598 350.959 354.331 351.019 354.017H352.985C352.936 354.634 352.754 355.182 352.44 355.659C352.125 356.133 351.697 356.504 351.156 356.773C350.614 357.038 349.978 357.17 349.246 357.17ZM357.185 357.176C356.632 357.176 356.134 357.078 355.691 356.881C355.252 356.68 354.903 356.384 354.646 355.994C354.392 355.604 354.265 355.123 354.265 354.551C354.265 354.059 354.356 353.652 354.538 353.33C354.719 353.008 354.968 352.75 355.282 352.557C355.596 352.364 355.951 352.218 356.344 352.119C356.742 352.017 357.153 351.943 357.577 351.898C358.089 351.845 358.504 351.797 358.822 351.756C359.14 351.71 359.371 351.642 359.515 351.551C359.663 351.456 359.737 351.311 359.737 351.114V351.08C359.737 350.652 359.61 350.32 359.356 350.085C359.102 349.85 358.737 349.733 358.259 349.733C357.755 349.733 357.356 349.843 357.06 350.062C356.769 350.282 356.572 350.542 356.469 350.841L354.549 350.568C354.701 350.038 354.951 349.595 355.299 349.239C355.647 348.879 356.074 348.61 356.577 348.432C357.081 348.25 357.638 348.159 358.248 348.159C358.668 348.159 359.087 348.208 359.504 348.307C359.92 348.405 360.301 348.568 360.646 348.795C360.99 349.019 361.267 349.324 361.475 349.71C361.687 350.097 361.793 350.58 361.793 351.159V357H359.816V355.801H359.748C359.623 356.044 359.447 356.271 359.219 356.483C358.996 356.691 358.714 356.86 358.373 356.989C358.036 357.114 357.64 357.176 357.185 357.176ZM357.719 355.665C358.132 355.665 358.49 355.583 358.793 355.42C359.096 355.254 359.329 355.034 359.492 354.761C359.659 354.489 359.742 354.191 359.742 353.869V352.841C359.678 352.894 359.568 352.943 359.413 352.989C359.261 353.034 359.091 353.074 358.901 353.108C358.712 353.142 358.524 353.172 358.339 353.199C358.153 353.225 357.992 353.248 357.856 353.267C357.549 353.309 357.274 353.377 357.032 353.472C356.79 353.566 356.598 353.699 356.458 353.869C356.318 354.036 356.248 354.252 356.248 354.517C356.248 354.896 356.386 355.182 356.663 355.375C356.939 355.568 357.291 355.665 357.719 355.665ZM368.219 348.273V349.864H363.202V348.273H368.219ZM364.441 346.182H366.498V354.375C366.498 354.652 366.54 354.864 366.623 355.011C366.71 355.155 366.824 355.254 366.964 355.307C367.104 355.36 367.259 355.386 367.43 355.386C367.558 355.386 367.676 355.377 367.782 355.358C367.892 355.339 367.975 355.322 368.032 355.307L368.379 356.915C368.269 356.953 368.112 356.994 367.907 357.04C367.706 357.085 367.46 357.112 367.168 357.119C366.653 357.134 366.189 357.057 365.776 356.886C365.363 356.712 365.036 356.443 364.793 356.08C364.555 355.716 364.437 355.261 364.441 354.716V346.182ZM369.94 357V348.273H371.996V357H369.94ZM370.974 347.034C370.648 347.034 370.368 346.926 370.133 346.71C369.898 346.491 369.781 346.227 369.781 345.92C369.781 345.61 369.898 345.347 370.133 345.131C370.368 344.911 370.648 344.801 370.974 344.801C371.303 344.801 371.584 344.911 371.815 345.131C372.049 345.347 372.167 345.61 372.167 345.92C372.167 346.227 372.049 346.491 371.815 346.71C371.584 346.926 371.303 347.034 370.974 347.034ZM377.918 357.17C377.066 357.17 376.327 356.983 375.702 356.608C375.077 356.233 374.593 355.708 374.248 355.034C373.907 354.36 373.737 353.572 373.737 352.67C373.737 351.769 373.907 350.979 374.248 350.301C374.593 349.623 375.077 349.097 375.702 348.722C376.327 348.347 377.066 348.159 377.918 348.159C378.771 348.159 379.509 348.347 380.134 348.722C380.759 349.097 381.242 349.623 381.583 350.301C381.928 350.979 382.1 351.769 382.1 352.67C382.1 353.572 381.928 354.36 381.583 355.034C381.242 355.708 380.759 356.233 380.134 356.608C379.509 356.983 378.771 357.17 377.918 357.17ZM377.93 355.523C378.392 355.523 378.778 355.396 379.089 355.142C379.399 354.884 379.63 354.54 379.782 354.108C379.937 353.676 380.015 353.195 380.015 352.665C380.015 352.131 379.937 351.648 379.782 351.216C379.63 350.78 379.399 350.434 379.089 350.176C378.778 349.919 378.392 349.79 377.93 349.79C377.456 349.79 377.062 349.919 376.748 350.176C376.437 350.434 376.204 350.78 376.049 351.216C375.897 351.648 375.822 352.131 375.822 352.665C375.822 353.195 375.897 353.676 376.049 354.108C376.204 354.54 376.437 354.884 376.748 355.142C377.062 355.396 377.456 355.523 377.93 355.523ZM385.903 351.886V357H383.846V348.273H385.812V349.756H385.914C386.115 349.267 386.435 348.879 386.874 348.591C387.317 348.303 387.865 348.159 388.516 348.159C389.119 348.159 389.643 348.288 390.09 348.545C390.541 348.803 390.889 349.176 391.136 349.665C391.386 350.153 391.509 350.746 391.505 351.443V357H389.448V351.761C389.448 351.178 389.297 350.722 388.994 350.392C388.694 350.062 388.28 349.898 387.749 349.898C387.389 349.898 387.069 349.977 386.789 350.136C386.513 350.292 386.295 350.517 386.136 350.812C385.98 351.108 385.903 351.466 385.903 351.886Z" fill="#212121"/>
<g clip-path="url(#clip1_958_5967)">
<path d="M486.4 437.167C487.56 427.25 496.26 419.667 506.7 419.667C509.6 419.667 511.92 420.25 514.24 421.417C519.46 413.25 528.74 408 538.6 408C554.84 408 567.6 420.833 567.6 437.167V437.75C577.46 438.917 585 447.667 585 457.583C585 468.667 575.72 478 564.7 478H489.3C478.28 478 469 468.667 469 457.583C469 447.083 476.54 438.917 486.4 437.167Z" fill="white"/>
<path d="M498.275 446V435.818H502.093C502.875 435.818 503.531 435.954 504.062 436.226C504.595 436.498 504.998 436.879 505.27 437.369C505.545 437.857 505.682 438.425 505.682 439.075C505.682 439.728 505.543 440.294 505.265 440.775C504.99 441.252 504.584 441.622 504.047 441.884C503.51 442.142 502.85 442.271 502.068 442.271H499.349V440.74H501.82C502.277 440.74 502.651 440.677 502.943 440.551C503.235 440.422 503.45 440.235 503.589 439.989C503.732 439.741 503.803 439.436 503.803 439.075C503.803 438.713 503.732 438.405 503.589 438.15C503.447 437.891 503.23 437.696 502.938 437.563C502.646 437.427 502.27 437.359 501.81 437.359H500.119V446H498.275ZM503.535 441.386L506.055 446H503.997L501.521 441.386H503.535ZM512.168 442.788V438.364H513.968V446H512.223V444.643H512.143C511.971 445.07 511.687 445.42 511.293 445.692C510.902 445.964 510.42 446.099 509.846 446.099C509.346 446.099 508.903 445.988 508.519 445.766C508.138 445.541 507.839 445.214 507.624 444.787C507.408 444.356 507.301 443.836 507.301 443.226V438.364H509.1V442.947C509.1 443.431 509.233 443.816 509.498 444.101C509.763 444.386 510.111 444.528 510.542 444.528C510.807 444.528 511.064 444.464 511.313 444.335C511.561 444.205 511.765 444.013 511.924 443.758C512.087 443.499 512.168 443.176 512.168 442.788ZM517.618 441.526V446H515.818V438.364H517.538V439.661H517.628C517.804 439.234 518.084 438.894 518.468 438.642C518.856 438.39 519.335 438.264 519.905 438.264C520.432 438.264 520.891 438.377 521.282 438.602C521.676 438.828 521.981 439.154 522.197 439.582C522.416 440.009 522.523 440.528 522.52 441.138V446H520.72V441.416C520.72 440.906 520.588 440.506 520.323 440.218C520.061 439.93 519.698 439.786 519.234 439.786C518.919 439.786 518.639 439.855 518.394 439.994C518.152 440.13 517.961 440.327 517.822 440.586C517.686 440.844 517.618 441.158 517.618 441.526ZM528.163 438.364V439.756H523.773V438.364H528.163ZM524.857 436.534H526.656V443.703C526.656 443.945 526.693 444.131 526.766 444.26C526.842 444.386 526.941 444.472 527.064 444.518C527.187 444.565 527.323 444.588 527.472 444.588C527.584 444.588 527.687 444.58 527.78 444.563C527.876 444.547 527.949 444.532 527.999 444.518L528.302 445.925C528.206 445.959 528.068 445.995 527.889 446.035C527.714 446.075 527.498 446.098 527.243 446.104C526.792 446.118 526.386 446.05 526.025 445.901C525.664 445.748 525.377 445.513 525.165 445.195C524.956 444.876 524.853 444.479 524.857 444.001V436.534ZM529.668 446V438.364H531.468V446H529.668ZM530.573 437.28C530.288 437.28 530.042 437.185 529.837 436.996C529.631 436.804 529.529 436.574 529.529 436.305C529.529 436.034 529.631 435.803 529.837 435.614C530.042 435.422 530.288 435.326 530.573 435.326C530.861 435.326 531.106 435.422 531.309 435.614C531.514 435.803 531.617 436.034 531.617 436.305C531.617 436.574 531.514 436.804 531.309 436.996C531.106 437.185 530.861 437.28 530.573 437.28ZM533.318 446V438.364H535.038V439.661H535.128C535.287 439.224 535.551 438.882 535.918 438.637C536.286 438.388 536.725 438.264 537.236 438.264C537.753 438.264 538.189 438.39 538.543 438.642C538.901 438.891 539.153 439.23 539.299 439.661H539.379C539.548 439.237 539.833 438.899 540.234 438.647C540.638 438.392 541.117 438.264 541.671 438.264C542.373 438.264 542.947 438.486 543.391 438.93C543.835 439.375 544.057 440.022 544.057 440.874V446H542.252V441.153C542.252 440.679 542.126 440.332 541.874 440.114C541.622 439.892 541.314 439.781 540.95 439.781C540.515 439.781 540.176 439.916 539.93 440.188C539.689 440.457 539.568 440.806 539.568 441.237V446H537.803V441.078C537.803 440.684 537.683 440.369 537.445 440.134C537.209 439.898 536.901 439.781 536.52 439.781C536.261 439.781 536.026 439.847 535.814 439.979C535.602 440.109 535.433 440.293 535.307 440.531C535.181 440.767 535.118 441.042 535.118 441.357V446H533.318ZM549.263 446.149C548.498 446.149 547.837 445.99 547.28 445.672C546.726 445.35 546.3 444.896 546.002 444.31C545.704 443.72 545.555 443.025 545.555 442.227C545.555 441.441 545.704 440.752 546.002 440.158C546.304 439.562 546.725 439.098 547.265 438.766C547.805 438.432 548.44 438.264 549.169 438.264C549.64 438.264 550.084 438.34 550.501 438.493C550.922 438.642 551.293 438.874 551.615 439.189C551.94 439.504 552.195 439.905 552.381 440.392C552.566 440.876 552.659 441.453 552.659 442.122V442.674H546.4V441.461H550.934C550.931 441.116 550.856 440.81 550.71 440.541C550.564 440.269 550.36 440.056 550.099 439.9C549.84 439.744 549.539 439.666 549.194 439.666C548.826 439.666 548.503 439.756 548.224 439.935C547.946 440.11 547.729 440.342 547.573 440.631C547.421 440.916 547.343 441.229 547.339 441.57V442.629C547.339 443.073 547.421 443.455 547.583 443.773C547.745 444.088 547.972 444.33 548.264 444.499C548.556 444.664 548.897 444.747 549.288 444.747C549.55 444.747 549.787 444.711 549.999 444.638C550.211 444.562 550.395 444.451 550.551 444.305C550.707 444.159 550.824 443.978 550.904 443.763L552.584 443.952C552.478 444.396 552.276 444.784 551.978 445.115C551.683 445.443 551.305 445.698 550.844 445.881C550.384 446.06 549.857 446.149 549.263 446.149ZM516.765 460.254H514.906C514.853 459.949 514.755 459.679 514.613 459.443C514.47 459.205 514.293 459.002 514.081 458.837C513.869 458.671 513.627 458.547 513.355 458.464C513.086 458.378 512.796 458.335 512.485 458.335C511.931 458.335 511.441 458.474 511.013 458.752C510.586 459.027 510.251 459.432 510.009 459.965C509.767 460.496 509.646 461.143 509.646 461.909C509.646 462.688 509.767 463.344 510.009 463.878C510.254 464.408 510.589 464.809 511.013 465.081C511.441 465.349 511.93 465.484 512.48 465.484C512.785 465.484 513.07 465.444 513.335 465.364C513.603 465.281 513.844 465.161 514.056 465.001C514.271 464.842 514.452 464.647 514.598 464.415C514.747 464.183 514.85 463.918 514.906 463.619L516.765 463.629C516.696 464.113 516.545 464.567 516.313 464.991C516.084 465.416 515.784 465.79 515.413 466.115C515.042 466.437 514.608 466.688 514.111 466.871C513.613 467.05 513.062 467.139 512.455 467.139C511.56 467.139 510.761 466.932 510.059 466.518C509.356 466.103 508.803 465.505 508.398 464.723C507.994 463.941 507.792 463.003 507.792 461.909C507.792 460.812 507.995 459.874 508.403 459.095C508.811 458.313 509.366 457.715 510.069 457.3C510.771 456.886 511.567 456.679 512.455 456.679C513.022 456.679 513.549 456.759 514.036 456.918C514.523 457.077 514.957 457.31 515.339 457.619C515.72 457.924 516.033 458.298 516.278 458.742C516.527 459.183 516.689 459.687 516.765 460.254ZM520.175 456.818V467H518.375V456.818H520.175ZM525.356 467.149C524.611 467.149 523.964 466.985 523.417 466.657C522.87 466.329 522.446 465.87 522.145 465.28C521.846 464.69 521.697 464 521.697 463.212C521.697 462.423 521.846 461.732 522.145 461.138C522.446 460.545 522.87 460.085 523.417 459.756C523.964 459.428 524.611 459.264 525.356 459.264C526.102 459.264 526.748 459.428 527.295 459.756C527.842 460.085 528.265 460.545 528.563 461.138C528.865 461.732 529.015 462.423 529.015 463.212C529.015 464 528.865 464.69 528.563 465.28C528.265 465.87 527.842 466.329 527.295 466.657C526.748 466.985 526.102 467.149 525.356 467.149ZM525.366 465.707C525.771 465.707 526.109 465.596 526.38 465.374C526.652 465.149 526.854 464.847 526.987 464.469C527.123 464.092 527.191 463.671 527.191 463.207C527.191 462.739 527.123 462.317 526.987 461.939C526.854 461.558 526.652 461.254 526.38 461.029C526.109 460.804 525.771 460.691 525.366 460.691C524.952 460.691 524.607 460.804 524.332 461.029C524.06 461.254 523.857 461.558 523.721 461.939C523.588 462.317 523.522 462.739 523.522 463.207C523.522 463.671 523.588 464.092 523.721 464.469C523.857 464.847 524.06 465.149 524.332 465.374C524.607 465.596 524.952 465.707 525.366 465.707ZM535.41 463.788V459.364H537.21V467H535.465V465.643H535.385C535.213 466.07 534.929 466.42 534.535 466.692C534.144 466.964 533.662 467.099 533.088 467.099C532.588 467.099 532.145 466.988 531.761 466.766C531.38 466.541 531.081 466.214 530.866 465.787C530.651 465.356 530.543 464.836 530.543 464.226V459.364H532.343V463.947C532.343 464.431 532.475 464.816 532.74 465.101C533.005 465.386 533.353 465.528 533.784 465.528C534.05 465.528 534.306 465.464 534.555 465.335C534.804 465.205 535.007 465.013 535.166 464.758C535.329 464.499 535.41 464.176 535.41 463.788ZM541.894 467.134C541.294 467.134 540.757 466.98 540.283 466.672C539.81 466.364 539.435 465.916 539.16 465.33C538.885 464.743 538.747 464.03 538.747 463.192C538.747 462.343 538.886 461.627 539.165 461.044C539.447 460.457 539.826 460.015 540.303 459.717C540.781 459.415 541.313 459.264 541.899 459.264C542.347 459.264 542.715 459.34 543.003 459.493C543.291 459.642 543.52 459.823 543.689 460.035C543.858 460.244 543.989 460.441 544.082 460.626H544.156V456.818H545.961V467H544.191V465.797H544.082C543.989 465.982 543.855 466.18 543.679 466.388C543.503 466.594 543.271 466.77 542.983 466.915C542.695 467.061 542.332 467.134 541.894 467.134ZM542.396 465.658C542.778 465.658 543.102 465.555 543.371 465.349C543.639 465.141 543.843 464.851 543.982 464.479C544.122 464.108 544.191 463.676 544.191 463.182C544.191 462.688 544.122 462.259 543.982 461.894C543.846 461.53 543.644 461.246 543.376 461.044C543.111 460.842 542.784 460.741 542.396 460.741C541.995 460.741 541.661 460.845 541.392 461.054C541.124 461.263 540.921 461.551 540.786 461.919C540.65 462.287 540.582 462.708 540.582 463.182C540.582 463.659 540.65 464.085 540.786 464.46C540.925 464.831 541.129 465.124 541.397 465.339C541.669 465.552 542.002 465.658 542.396 465.658Z" fill="#212121"/>
</g>
<path d="M459.293 284.707C458.902 284.317 458.902 283.683 459.293 283.293L465.657 276.929C466.047 276.538 466.681 276.538 467.071 276.929C467.462 277.319 467.462 277.953 467.071 278.343L461.414 284L467.071 289.657C467.462 290.047 467.462 290.681 467.071 291.071C466.681 291.462 466.047 291.462 465.657 291.071L459.293 284.707ZM530 300L531 300L530 300ZM529 408L529 405.923L531 405.923L531 408L529 408ZM529 401.769L529 397.615L531 397.615L531 401.769L529 401.769ZM529 393.462L529 389.308L531 389.308L531 393.462L529 393.462ZM529 385.154L529 381L531 381L531 385.154L529 385.154ZM529 376.846L529 372.692L531 372.692L531 376.846L529 376.846ZM529 368.538L529 364.385L531 364.385L531 368.538L529 368.538ZM529 360.231L529 356.077L531 356.077L531 360.231L529 360.231ZM529 351.923L529 347.769L531 347.769L531 351.923L529 351.923ZM529 343.615L529 339.462L531 339.462L531 343.615L529 343.615ZM529 335.308L529 331.154L531 331.154L531 335.308L529 335.308ZM529 327L529 322.846L531 322.846L531 327L529 327ZM529 318.692L529 314.538L531 314.538L531 318.692L529 318.692ZM529 310.385L529 306.231L531 306.231L531 310.385L529 310.385ZM529 302.077L529 300L531 300L531 302.077L529 302.077ZM529 300C529 299.335 528.957 298.681 528.873 298.04L530.856 297.781C530.951 298.508 531 299.248 531 300L529 300ZM527.862 294.258C527.357 293.04 526.695 291.901 525.901 290.869L527.487 289.65C528.386 290.82 529.136 292.11 529.71 293.492L527.862 294.258ZM523.131 288.099C522.099 287.305 520.96 286.643 519.742 286.138L520.508 284.29C521.89 284.864 523.18 285.614 524.35 286.513L523.131 288.099ZM515.96 285.127C515.319 285.043 514.665 285 514 285L514 283C514.752 283 515.492 283.049 516.219 283.144L515.96 285.127ZM514 285L512.071 285L512.071 283L514 283L514 285ZM508.214 285L504.357 285L504.357 283L508.214 283L508.214 285ZM500.5 285L496.643 285L496.643 283L500.5 283L500.5 285ZM492.786 285L488.929 285L488.929 283L492.786 283L492.786 285ZM485.071 285L481.214 285L481.214 283L485.071 283L485.071 285ZM477.357 285L473.5 285L473.5 283L477.357 283L477.357 285ZM469.643 285L465.786 285L465.786 283L469.643 283L469.643 285ZM461.929 285L460 285L460 283L461.929 283L461.929 285ZM459.293 284.707C458.902 284.317 458.902 283.683 459.293 283.293L465.657 276.929C466.047 276.538 466.681 276.538 467.071 276.929C467.462 277.319 467.462 277.953 467.071 278.343L461.414 284L467.071 289.657C467.462 290.047 467.462 290.681 467.071 291.071C466.681 291.462 466.047 291.462 465.657 291.071L459.293 284.707ZM530 300L531 300L530 300ZM529 408L529 405.923L531 405.923L531 408L529 408ZM529 401.769L529 397.615L531 397.615L531 401.769L529 401.769ZM529 393.462L529 389.308L531 389.308L531 393.462L529 393.462ZM529 385.154L529 381L531 381L531 385.154L529 385.154ZM529 376.846L529 372.692L531 372.692L531 376.846L529 376.846ZM529 368.538L529 364.385L531 364.385L531 368.538L529 368.538ZM529 360.231L529 356.077L531 356.077L531 360.231L529 360.231ZM529 351.923L529 347.769L531 347.769L531 351.923L529 351.923ZM529 343.615L529 339.462L531 339.462L531 343.615L529 343.615ZM529 335.308L529 331.154L531 331.154L531 335.308L529 335.308ZM529 327L529 322.846L531 322.846L531 327L529 327ZM529 318.692L529 314.538L531 314.538L531 318.692L529 318.692ZM529 310.385L529 306.231L531 306.231L531 310.385L529 310.385ZM529 302.077L529 300L531 300L531 302.077L529 302.077ZM529 300C529 299.335 528.957 298.681 528.873 298.04L530.856 297.781C530.951 298.508 531 299.248 531 300L529 300ZM527.862 294.258C527.357 293.04 526.695 291.901 525.901 290.869L527.487 289.65C528.386 290.82 529.136 292.11 529.71 293.492L527.862 294.258ZM523.131 288.099C522.099 287.305 520.96 286.643 519.742 286.138L520.508 284.29C521.89 284.864 523.18 285.614 524.35 286.513L523.131 288.099ZM515.96 285.127C515.319 285.043 514.665 285 514 285L514 283C514.752 283 515.492 283.049 516.219 283.144L515.96 285.127ZM514 285L512.071 285L512.071 283L514 283L514 285ZM508.214 285L504.357 285L504.357 283L508.214 283L508.214 285ZM500.5 285L496.643 285L496.643 283L500.5 283L500.5 285ZM492.786 285L488.929 285L488.929 283L492.786 283L492.786 285ZM485.071 285L481.214 285L481.214 283L485.071 283L485.071 285ZM477.357 285L473.5 285L473.5 283L477.357 283L477.357 285ZM469.643 285L465.786 285L465.786 283L469.643 283L469.643 285ZM461.929 285L460 285L460 283L461.929 283L461.929 285Z" fill="white"/>
<g clip-path="url(#clip2_958_5967)">
<path d="M208.6 437.167C207.44 427.25 198.74 419.667 188.3 419.667C185.4 419.667 183.08 420.25 180.76 421.417C175.54 413.25 166.26 408 156.4 408C140.16 408 127.4 420.833 127.4 437.167V437.75C117.54 438.917 110 447.667 110 457.583C110 468.667 119.28 478 130.3 478H205.7C216.72 478 226 468.667 226 457.583C226 447.083 218.46 438.917 208.6 437.167Z" fill="white"/>
<path d="M148.903 444.617C148.856 444.183 148.661 443.845 148.316 443.603C147.975 443.361 147.531 443.24 146.984 443.24C146.599 443.24 146.27 443.298 145.994 443.414C145.719 443.53 145.509 443.687 145.363 443.886C145.217 444.085 145.143 444.312 145.139 444.567C145.139 444.78 145.187 444.964 145.284 445.119C145.383 445.275 145.517 445.408 145.686 445.517C145.855 445.623 146.043 445.713 146.248 445.786C146.454 445.858 146.661 445.92 146.869 445.969L147.824 446.208C148.209 446.298 148.578 446.419 148.933 446.571C149.291 446.723 149.61 446.916 149.892 447.148C150.177 447.38 150.403 447.66 150.568 447.988C150.734 448.316 150.817 448.701 150.817 449.141C150.817 449.738 150.664 450.263 150.36 450.717C150.055 451.168 149.614 451.521 149.037 451.776C148.464 452.028 147.769 452.154 146.954 452.154C146.162 452.154 145.474 452.031 144.891 451.786C144.311 451.541 143.857 451.183 143.529 450.712C143.204 450.242 143.028 449.668 143.002 448.992H144.816C144.843 449.347 144.952 449.642 145.144 449.877C145.337 450.112 145.587 450.288 145.895 450.404C146.207 450.52 146.555 450.578 146.939 450.578C147.34 450.578 147.691 450.518 147.993 450.399C148.298 450.277 148.537 450.107 148.709 449.892C148.881 449.673 148.969 449.418 148.972 449.126C148.969 448.861 148.891 448.643 148.739 448.47C148.586 448.295 148.373 448.149 148.097 448.033C147.826 447.913 147.508 447.807 147.143 447.714L145.985 447.416C145.146 447.201 144.483 446.874 143.996 446.437C143.512 445.996 143.27 445.411 143.27 444.682C143.27 444.082 143.432 443.557 143.757 443.106C144.085 442.655 144.531 442.305 145.095 442.057C145.658 441.805 146.296 441.679 147.009 441.679C147.731 441.679 148.364 441.805 148.908 442.057C149.455 442.305 149.884 442.652 150.195 443.096C150.507 443.537 150.668 444.044 150.678 444.617H148.903ZM155.762 452.149C154.997 452.149 154.336 451.99 153.779 451.672C153.225 451.35 152.799 450.896 152.501 450.31C152.203 449.72 152.054 449.025 152.054 448.227C152.054 447.441 152.203 446.752 152.501 446.158C152.803 445.562 153.224 445.098 153.764 444.766C154.304 444.432 154.939 444.264 155.668 444.264C156.139 444.264 156.583 444.34 157 444.493C157.421 444.642 157.792 444.874 158.114 445.189C158.439 445.504 158.694 445.905 158.88 446.392C159.065 446.876 159.158 447.453 159.158 448.122V448.674H152.899V447.461H157.433C157.43 447.116 157.355 446.81 157.209 446.541C157.063 446.269 156.859 446.056 156.598 445.9C156.339 445.744 156.038 445.666 155.693 445.666C155.325 445.666 155.002 445.756 154.723 445.935C154.445 446.11 154.228 446.342 154.072 446.631C153.92 446.916 153.842 447.229 153.838 447.57V448.629C153.838 449.073 153.92 449.455 154.082 449.773C154.244 450.088 154.471 450.33 154.763 450.499C155.055 450.664 155.396 450.747 155.787 450.747C156.049 450.747 156.286 450.711 156.498 450.638C156.71 450.562 156.894 450.451 157.05 450.305C157.206 450.159 157.324 449.978 157.403 449.763L159.083 449.952C158.977 450.396 158.775 450.784 158.477 451.115C158.182 451.443 157.804 451.698 157.343 451.881C156.883 452.06 156.356 452.149 155.762 452.149ZM160.681 452V444.364H162.426V445.636H162.505C162.644 445.196 162.883 444.856 163.221 444.617C163.562 444.375 163.952 444.254 164.389 444.254C164.489 444.254 164.6 444.259 164.722 444.269C164.848 444.276 164.953 444.287 165.036 444.304V445.96C164.959 445.933 164.838 445.91 164.673 445.89C164.51 445.867 164.353 445.855 164.2 445.855C163.872 445.855 163.577 445.926 163.316 446.069C163.057 446.208 162.853 446.402 162.704 446.651C162.555 446.899 162.48 447.186 162.48 447.511V452H160.681ZM173.285 444.364L170.565 452H168.577L165.857 444.364H167.776L169.531 450.036H169.611L171.371 444.364H173.285ZM174.53 452V444.364H176.33V452H174.53ZM175.435 443.28C175.15 443.28 174.905 443.185 174.699 442.996C174.494 442.804 174.391 442.574 174.391 442.305C174.391 442.034 174.494 441.803 174.699 441.614C174.905 441.422 175.15 441.326 175.435 441.326C175.723 441.326 175.969 441.422 176.171 441.614C176.376 441.803 176.479 442.034 176.479 442.305C176.479 442.574 176.376 442.804 176.171 442.996C175.969 443.185 175.723 443.28 175.435 443.28ZM181.512 452.149C180.749 452.149 180.095 451.982 179.548 451.647C179.004 451.312 178.585 450.85 178.29 450.26C177.998 449.667 177.852 448.984 177.852 448.212C177.852 447.436 178.002 446.752 178.3 446.158C178.598 445.562 179.019 445.098 179.563 444.766C180.11 444.432 180.756 444.264 181.502 444.264C182.121 444.264 182.67 444.379 183.147 444.607C183.628 444.833 184.011 445.152 184.296 445.567C184.581 445.978 184.743 446.458 184.783 447.009H183.063C182.993 446.641 182.827 446.334 182.566 446.089C182.307 445.84 181.961 445.716 181.526 445.716C181.159 445.716 180.835 445.815 180.557 446.014C180.279 446.21 180.061 446.491 179.906 446.859C179.753 447.227 179.677 447.668 179.677 448.182C179.677 448.702 179.753 449.15 179.906 449.524C180.058 449.895 180.272 450.182 180.547 450.384C180.825 450.583 181.152 450.683 181.526 450.683C181.792 450.683 182.029 450.633 182.237 450.533C182.45 450.431 182.627 450.283 182.769 450.091C182.912 449.899 183.01 449.665 183.063 449.39H184.783C184.74 449.93 184.581 450.409 184.306 450.827C184.03 451.241 183.656 451.566 183.182 451.801C182.708 452.033 182.151 452.149 181.512 452.149ZM189.641 452.149C188.876 452.149 188.214 451.99 187.658 451.672C187.104 451.35 186.678 450.896 186.38 450.31C186.082 449.72 185.933 449.025 185.933 448.227C185.933 447.441 186.082 446.752 186.38 446.158C186.682 445.562 187.103 445.098 187.643 444.766C188.183 444.432 188.818 444.264 189.547 444.264C190.018 444.264 190.462 444.34 190.879 444.493C191.3 444.642 191.671 444.874 191.993 445.189C192.318 445.504 192.573 445.905 192.759 446.392C192.944 446.876 193.037 447.453 193.037 448.122V448.674H186.778V447.461H191.312C191.308 447.116 191.234 446.81 191.088 446.541C190.942 446.269 190.738 446.056 190.477 445.9C190.218 445.744 189.916 445.666 189.572 445.666C189.204 445.666 188.881 445.756 188.602 445.935C188.324 446.11 188.107 446.342 187.951 446.631C187.799 446.916 187.721 447.229 187.717 447.57V448.629C187.717 449.073 187.799 449.455 187.961 449.773C188.123 450.088 188.35 450.33 188.642 450.499C188.934 450.664 189.275 450.747 189.666 450.747C189.928 450.747 190.165 450.711 190.377 450.638C190.589 450.562 190.773 450.451 190.929 450.305C191.085 450.159 191.202 449.978 191.282 449.763L192.962 449.952C192.856 450.396 192.654 450.784 192.356 451.115C192.061 451.443 191.683 451.698 191.222 451.881C190.762 452.06 190.235 452.149 189.641 452.149Z" fill="#212121"/>
</g>
<path d="M235.707 284.707C236.098 284.317 236.098 283.683 235.707 283.293L229.343 276.929C228.953 276.538 228.319 276.538 227.929 276.929C227.538 277.319 227.538 277.953 227.929 278.343L233.586 284L227.929 289.657C227.538 290.047 227.538 290.681 227.929 291.071C228.319 291.462 228.953 291.462 229.343 291.071L235.707 284.707ZM165 300L164 300L165 300ZM166 408L166 405.923L164 405.923L164 408L166 408ZM166 401.769L166 397.615L164 397.615L164 401.769L166 401.769ZM166 393.462L166 389.308L164 389.308L164 393.462L166 393.462ZM166 385.154L166 381L164 381L164 385.154L166 385.154ZM166 376.846L166 372.692L164 372.692L164 376.846L166 376.846ZM166 368.538L166 364.385L164 364.385L164 368.538L166 368.538ZM166 360.231L166 356.077L164 356.077L164 360.231L166 360.231ZM166 351.923L166 347.769L164 347.769L164 351.923L166 351.923ZM166 343.615L166 339.462L164 339.462L164 343.615L166 343.615ZM166 335.308L166 331.154L164 331.154L164 335.308L166 335.308ZM166 327L166 322.846L164 322.846L164 327L166 327ZM166 318.692L166 314.538L164 314.538L164 318.692L166 318.692ZM166 310.385L166 306.231L164 306.231L164 310.385L166 310.385ZM166 302.077L166 300L164 300L164 302.077L166 302.077ZM166 300C166 299.335 166.043 298.681 166.127 298.04L164.144 297.781C164.049 298.508 164 299.248 164 300L166 300ZM167.138 294.258C167.643 293.04 168.305 291.901 169.099 290.869L167.513 289.65C166.614 290.82 165.864 292.11 165.29 293.492L167.138 294.258ZM171.869 288.099C172.901 287.305 174.04 286.643 175.258 286.138L174.492 284.29C173.11 284.864 171.82 285.614 170.65 286.513L171.869 288.099ZM179.04 285.127C179.681 285.043 180.335 285 181 285L181 283C180.248 283 179.508 283.049 178.781 283.144L179.04 285.127ZM181 285L182.929 285L182.929 283L181 283L181 285ZM186.786 285L190.643 285L190.643 283L186.786 283L186.786 285ZM194.5 285L198.357 285L198.357 283L194.5 283L194.5 285ZM202.214 285L206.071 285L206.071 283L202.214 283L202.214 285ZM209.929 285L213.786 285L213.786 283L209.929 283L209.929 285ZM217.643 285L221.5 285L221.5 283L217.643 283L217.643 285ZM225.357 285L229.214 285L229.214 283L225.357 283L225.357 285ZM233.071 285L235 285L235 283L233.071 283L233.071 285ZM235.707 284.707C236.098 284.317 236.098 283.683 235.707 283.293L229.343 276.929C228.953 276.538 228.319 276.538 227.929 276.929C227.538 277.319 227.538 277.953 227.929 278.343L233.586 284L227.929 289.657C227.538 290.047 227.538 290.681 227.929 291.071C228.319 291.462 228.953 291.462 229.343 291.071L235.707 284.707ZM165 300L164 300L165 300ZM166 408L166 405.923L164 405.923L164 408L166 408ZM166 401.769L166 397.615L164 397.615L164 401.769L166 401.769ZM166 393.462L166 389.308L164 389.308L164 393.462L166 393.462ZM166 385.154L166 381L164 381L164 385.154L166 385.154ZM166 376.846L166 372.692L164 372.692L164 376.846L166 376.846ZM166 368.538L166 364.385L164 364.385L164 368.538L166 368.538ZM166 360.231L166 356.077L164 356.077L164 360.231L166 360.231ZM166 351.923L166 347.769L164 347.769L164 351.923L166 351.923ZM166 343.615L166 339.462L164 339.462L164 343.615L166 343.615ZM166 335.308L166 331.154L164 331.154L164 335.308L166 335.308ZM166 327L166 322.846L164 322.846L164 327L166 327ZM166 318.692L166 314.538L164 314.538L164 318.692L166 318.692ZM166 310.385L166 306.231L164 306.231L164 310.385L166 310.385ZM166 302.077L166 300L164 300L164 302.077L166 302.077ZM166 300C166 299.335 166.043 298.681 166.127 298.04L164.144 297.781C164.049 298.508 164 299.248 164 300L166 300ZM167.138 294.258C167.643 293.04 168.305 291.901 169.099 290.869L167.513 289.65C166.614 290.82 165.864 292.11 165.29 293.492L167.138 294.258ZM171.869 288.099C172.901 287.305 174.04 286.643 175.258 286.138L174.492 284.29C173.11 284.864 171.82 285.614 170.65 286.513L171.869 288.099ZM179.04 285.127C179.681 285.043 180.335 285 181 285L181 283C180.248 283 179.508 283.049 178.781 283.144L179.04 285.127ZM181 285L182.929 285L182.929 283L181 283L181 285ZM186.786 285L190.643 285L190.643 283L186.786 283L186.786 285ZM194.5 285L198.357 285L198.357 283L194.5 283L194.5 285ZM202.214 285L206.071 285L206.071 283L202.214 283L202.214 285ZM209.929 285L213.786 285L213.786 283L209.929 283L209.929 285ZM217.643 285L221.5 285L221.5 283L217.643 283L217.643 285ZM225.357 285L229.214 285L229.214 283L225.357 283L225.357 285ZM233.071 285L235 285L235 283L233.071 283L233.071 285Z" fill="white"/>
<rect x="122" y="343" width="93" height="26" rx="13" fill="#212121"/>
<path d="M135.411 352H136.567L139.286 358.641H139.379L142.098 352H143.254V360H142.348V353.922H142.27L139.77 360H138.895L136.395 353.922H136.317V360H135.411V352ZM146.837 360.141C146.457 360.141 146.112 360.069 145.802 359.926C145.492 359.78 145.246 359.57 145.064 359.297C144.882 359.021 144.791 358.687 144.791 358.297C144.791 357.953 144.858 357.674 144.994 357.461C145.129 357.245 145.31 357.076 145.537 356.953C145.763 356.831 146.013 356.74 146.287 356.68C146.563 356.617 146.84 356.568 147.119 356.531C147.483 356.484 147.779 356.449 148.005 356.426C148.235 356.4 148.401 356.357 148.505 356.297C148.612 356.237 148.666 356.133 148.666 355.984V355.953C148.666 355.568 148.56 355.268 148.349 355.055C148.141 354.841 147.824 354.734 147.4 354.734C146.96 354.734 146.615 354.831 146.365 355.023C146.115 355.216 145.939 355.422 145.837 355.641L144.962 355.328C145.119 354.964 145.327 354.68 145.587 354.477C145.85 354.271 146.137 354.128 146.447 354.047C146.759 353.964 147.067 353.922 147.369 353.922C147.561 353.922 147.783 353.945 148.033 353.992C148.285 354.036 148.529 354.129 148.763 354.27C149 354.41 149.197 354.622 149.353 354.906C149.509 355.19 149.587 355.57 149.587 356.047V360H148.666V359.187H148.619C148.556 359.318 148.452 359.457 148.306 359.605C148.16 359.754 147.966 359.88 147.724 359.984C147.482 360.089 147.186 360.141 146.837 360.141ZM146.978 359.312C147.343 359.312 147.65 359.241 147.9 359.098C148.153 358.954 148.343 358.77 148.47 358.543C148.6 358.316 148.666 358.078 148.666 357.828V356.984C148.626 357.031 148.541 357.074 148.408 357.113C148.278 357.15 148.126 357.182 147.955 357.211C147.785 357.237 147.62 357.26 147.458 357.281C147.3 357.299 147.171 357.315 147.072 357.328C146.832 357.359 146.608 357.41 146.4 357.48C146.194 357.548 146.028 357.651 145.9 357.789C145.775 357.924 145.712 358.109 145.712 358.344C145.712 358.664 145.831 358.906 146.068 359.07C146.307 359.232 146.611 359.312 146.978 359.312ZM152.192 356.391V360H151.27V354H152.161V354.937H152.239C152.379 354.633 152.593 354.388 152.879 354.203C153.166 354.016 153.536 353.922 153.989 353.922C154.395 353.922 154.75 354.005 155.055 354.172C155.36 354.336 155.597 354.586 155.766 354.922C155.935 355.255 156.02 355.677 156.02 356.188V360H155.098V356.25C155.098 355.779 154.976 355.411 154.731 355.148C154.486 354.883 154.15 354.75 153.723 354.75C153.429 354.75 153.166 354.814 152.934 354.941C152.705 355.069 152.524 355.255 152.391 355.5C152.258 355.745 152.192 356.042 152.192 356.391ZM159.47 360.141C159.09 360.141 158.745 360.069 158.435 359.926C158.125 359.78 157.879 359.57 157.697 359.297C157.514 359.021 157.423 358.687 157.423 358.297C157.423 357.953 157.491 357.674 157.626 357.461C157.762 357.245 157.943 357.076 158.169 356.953C158.396 356.831 158.646 356.74 158.919 356.68C159.195 356.617 159.473 356.568 159.751 356.531C160.116 356.484 160.412 356.449 160.638 356.426C160.867 356.4 161.034 356.357 161.138 356.297C161.245 356.237 161.298 356.133 161.298 355.984V355.953C161.298 355.568 161.193 355.268 160.982 355.055C160.774 354.841 160.457 354.734 160.033 354.734C159.593 354.734 159.248 354.831 158.998 355.023C158.748 355.216 158.572 355.422 158.47 355.641L157.595 355.328C157.751 354.964 157.96 354.68 158.22 354.477C158.483 354.271 158.77 354.128 159.08 354.047C159.392 353.964 159.699 353.922 160.001 353.922C160.194 353.922 160.416 353.945 160.666 353.992C160.918 354.036 161.162 354.129 161.396 354.27C161.633 354.41 161.83 354.622 161.986 354.906C162.142 355.19 162.22 355.57 162.22 356.047V360H161.298V359.187H161.251C161.189 359.318 161.085 359.457 160.939 359.605C160.793 359.754 160.599 359.88 160.357 359.984C160.115 360.089 159.819 360.141 159.47 360.141ZM159.611 359.312C159.975 359.312 160.283 359.241 160.533 359.098C160.785 358.954 160.975 358.77 161.103 358.543C161.233 358.316 161.298 358.078 161.298 357.828V356.984C161.259 357.031 161.173 357.074 161.041 357.113C160.91 357.15 160.759 357.182 160.587 357.211C160.418 357.237 160.253 357.26 160.091 357.281C159.932 357.299 159.804 357.315 159.705 357.328C159.465 357.359 159.241 357.41 159.033 357.48C158.827 357.548 158.66 357.651 158.533 357.789C158.408 357.924 158.345 358.109 158.345 358.344C158.345 358.664 158.464 358.906 158.701 359.07C158.94 359.232 159.244 359.312 159.611 359.312ZM166.325 362.375C165.879 362.375 165.497 362.318 165.176 362.203C164.856 362.091 164.589 361.943 164.375 361.758C164.165 361.576 163.997 361.38 163.872 361.172L164.606 360.656C164.689 360.766 164.795 360.891 164.922 361.031C165.05 361.174 165.224 361.298 165.446 361.402C165.67 361.509 165.963 361.562 166.325 361.562C166.809 361.562 167.209 361.445 167.524 361.211C167.839 360.977 167.997 360.609 167.997 360.109V358.891H167.918C167.851 359 167.754 359.135 167.629 359.297C167.507 359.456 167.33 359.598 167.098 359.723C166.869 359.845 166.559 359.906 166.168 359.906C165.684 359.906 165.249 359.792 164.864 359.563C164.481 359.333 164.178 359 163.954 358.562C163.732 358.125 163.622 357.594 163.622 356.969C163.622 356.354 163.73 355.819 163.946 355.363C164.162 354.905 164.463 354.551 164.848 354.301C165.234 354.048 165.679 353.922 166.184 353.922C166.575 353.922 166.885 353.987 167.114 354.117C167.346 354.245 167.523 354.391 167.645 354.555C167.77 354.716 167.866 354.849 167.934 354.953H168.028V354H168.918V360.172C168.918 360.688 168.801 361.107 168.567 361.43C168.335 361.755 168.023 361.993 167.629 362.145C167.239 362.298 166.804 362.375 166.325 362.375ZM166.293 359.078C166.663 359.078 166.976 358.993 167.231 358.824C167.486 358.655 167.68 358.411 167.813 358.094C167.946 357.776 168.012 357.396 168.012 356.953C168.012 356.521 167.947 356.139 167.817 355.809C167.687 355.478 167.494 355.219 167.239 355.031C166.984 354.844 166.668 354.75 166.293 354.75C165.903 354.75 165.577 354.849 165.317 355.047C165.059 355.245 164.865 355.51 164.735 355.844C164.607 356.177 164.543 356.547 164.543 356.953C164.543 357.37 164.609 357.738 164.739 358.059C164.872 358.376 165.067 358.626 165.325 358.809C165.585 358.988 165.908 359.078 166.293 359.078ZM173.122 360.125C172.543 360.125 172.045 359.997 171.625 359.742C171.209 359.484 170.887 359.125 170.661 358.664C170.437 358.201 170.325 357.661 170.325 357.047C170.325 356.432 170.437 355.891 170.661 355.422C170.887 354.951 171.202 354.583 171.606 354.32C172.012 354.055 172.486 353.922 173.028 353.922C173.34 353.922 173.649 353.974 173.954 354.078C174.258 354.182 174.536 354.352 174.786 354.586C175.036 354.818 175.235 355.125 175.383 355.508C175.532 355.891 175.606 356.362 175.606 356.922V357.312H170.981V356.516H174.668C174.668 356.177 174.601 355.875 174.465 355.609C174.333 355.344 174.142 355.134 173.895 354.98C173.65 354.827 173.361 354.75 173.028 354.75C172.661 354.75 172.343 354.841 172.075 355.023C171.809 355.203 171.605 355.437 171.461 355.727C171.318 356.016 171.247 356.326 171.247 356.656V357.188C171.247 357.641 171.325 358.025 171.481 358.34C171.64 358.652 171.86 358.891 172.141 359.055C172.422 359.216 172.749 359.297 173.122 359.297C173.364 359.297 173.583 359.263 173.778 359.195C173.976 359.125 174.146 359.021 174.29 358.883C174.433 358.742 174.543 358.568 174.622 358.359L175.512 358.609C175.418 358.911 175.261 359.177 175.04 359.406C174.818 359.633 174.545 359.81 174.219 359.937C173.894 360.063 173.528 360.125 173.122 360.125ZM177.008 360V354H177.899V354.937H177.977C178.102 354.617 178.304 354.368 178.583 354.191C178.861 354.012 179.196 353.922 179.586 353.922C179.982 353.922 180.312 354.012 180.575 354.191C180.84 354.368 181.047 354.617 181.196 354.937H181.258C181.412 354.628 181.642 354.382 181.95 354.199C182.257 354.014 182.625 353.922 183.055 353.922C183.592 353.922 184.03 354.09 184.372 354.426C184.713 354.759 184.883 355.279 184.883 355.984V360H183.961V355.984C183.961 355.542 183.84 355.225 183.598 355.035C183.356 354.845 183.071 354.75 182.743 354.75C182.321 354.75 181.994 354.878 181.762 355.133C181.53 355.385 181.415 355.706 181.415 356.094V360H180.477V355.891C180.477 355.549 180.366 355.275 180.145 355.066C179.924 354.855 179.639 354.75 179.29 354.75C179.05 354.75 178.826 354.814 178.618 354.941C178.412 355.069 178.245 355.246 178.118 355.473C177.993 355.697 177.93 355.956 177.93 356.25V360H177.008ZM189.084 360.125C188.506 360.125 188.008 359.997 187.588 359.742C187.172 359.484 186.85 359.125 186.624 358.664C186.4 358.201 186.288 357.661 186.288 357.047C186.288 356.432 186.4 355.891 186.624 355.422C186.85 354.951 187.165 354.583 187.569 354.32C187.975 354.055 188.449 353.922 188.991 353.922C189.303 353.922 189.612 353.974 189.917 354.078C190.221 354.182 190.499 354.352 190.749 354.586C190.999 354.818 191.198 355.125 191.346 355.508C191.495 355.891 191.569 356.362 191.569 356.922V357.312H186.944V356.516H190.631C190.631 356.177 190.564 355.875 190.428 355.609C190.295 355.344 190.105 355.134 189.858 354.98C189.613 354.827 189.324 354.75 188.991 354.75C188.624 354.75 188.306 354.841 188.038 355.023C187.772 355.203 187.568 355.437 187.424 355.727C187.281 356.016 187.209 356.326 187.209 356.656V357.188C187.209 357.641 187.288 358.025 187.444 358.34C187.603 358.652 187.823 358.891 188.104 359.055C188.385 359.216 188.712 359.297 189.084 359.297C189.327 359.297 189.545 359.263 189.741 359.195C189.939 359.125 190.109 359.021 190.252 358.883C190.396 358.742 190.506 358.568 190.584 358.359L191.475 358.609C191.381 358.911 191.224 359.177 191.002 359.406C190.781 359.633 190.508 359.81 190.182 359.937C189.857 360.063 189.491 360.125 189.084 360.125ZM193.893 356.391V360H192.971V354H193.862V354.937H193.94C194.081 354.633 194.294 354.388 194.581 354.203C194.867 354.016 195.237 353.922 195.69 353.922C196.096 353.922 196.452 354.005 196.756 354.172C197.061 354.336 197.298 354.586 197.467 354.922C197.637 355.255 197.721 355.677 197.721 356.188V360H196.799V356.25C196.799 355.779 196.677 355.411 196.432 355.148C196.187 354.883 195.851 354.75 195.424 354.75C195.13 354.75 194.867 354.814 194.635 354.941C194.406 355.069 194.225 355.255 194.092 355.5C193.959 355.745 193.893 356.042 193.893 356.391ZM202.015 354V354.781H198.906V354H202.015ZM199.812 352.562H200.734V358.281C200.734 358.542 200.772 358.737 200.847 358.867C200.925 358.995 201.024 359.081 201.144 359.125C201.266 359.167 201.395 359.187 201.531 359.187C201.632 359.187 201.716 359.182 201.781 359.172C201.846 359.159 201.898 359.148 201.937 359.141L202.125 359.969C202.062 359.992 201.975 360.016 201.863 360.039C201.751 360.065 201.609 360.078 201.437 360.078C201.177 360.078 200.921 360.022 200.671 359.91C200.424 359.798 200.218 359.628 200.054 359.398C199.893 359.169 199.812 358.88 199.812 358.531V352.562Z" fill="white"/>
<rect x="480" y="343" width="93" height="26" rx="13" fill="#212121"/>
<path d="M510.456 354C510.409 353.604 510.219 353.297 509.886 353.078C509.552 352.859 509.144 352.75 508.659 352.75C508.305 352.75 507.995 352.807 507.729 352.922C507.466 353.036 507.261 353.194 507.112 353.395C506.966 353.595 506.894 353.823 506.894 354.078C506.894 354.292 506.944 354.475 507.046 354.629C507.15 354.78 507.283 354.906 507.444 355.008C507.606 355.107 507.775 355.189 507.952 355.254C508.129 355.316 508.292 355.367 508.44 355.406L509.253 355.625C509.461 355.68 509.693 355.755 509.948 355.852C510.206 355.948 510.452 356.079 510.687 356.246C510.924 356.41 511.119 356.621 511.272 356.879C511.426 357.137 511.503 357.453 511.503 357.828C511.503 358.26 511.39 358.651 511.163 359C510.939 359.349 510.611 359.626 510.179 359.832C509.749 360.038 509.227 360.141 508.612 360.141C508.039 360.141 507.543 360.048 507.124 359.863C506.707 359.678 506.379 359.421 506.14 359.09C505.903 358.759 505.769 358.375 505.737 357.938H506.737C506.763 358.24 506.865 358.49 507.042 358.687C507.222 358.883 507.448 359.029 507.722 359.125C507.998 359.219 508.295 359.266 508.612 359.266C508.982 359.266 509.314 359.206 509.608 359.086C509.903 358.964 510.136 358.794 510.308 358.578C510.479 358.359 510.565 358.104 510.565 357.812C510.565 357.547 510.491 357.331 510.343 357.164C510.194 356.997 509.999 356.862 509.757 356.758C509.515 356.654 509.253 356.562 508.972 356.484L507.987 356.203C507.362 356.023 506.868 355.767 506.503 355.434C506.138 355.1 505.956 354.664 505.956 354.125C505.956 353.677 506.077 353.286 506.319 352.953C506.564 352.617 506.892 352.357 507.304 352.172C507.718 351.984 508.18 351.891 508.69 351.891C509.206 351.891 509.664 351.983 510.065 352.168C510.466 352.35 510.784 352.6 511.019 352.918C511.256 353.236 511.381 353.596 511.394 354H510.456ZM515.486 360.125C514.908 360.125 514.41 359.997 513.99 359.742C513.574 359.484 513.252 359.125 513.025 358.664C512.801 358.201 512.689 357.661 512.689 357.047C512.689 356.432 512.801 355.891 513.025 355.422C513.252 354.951 513.567 354.583 513.971 354.32C514.377 354.055 514.851 353.922 515.393 353.922C515.705 353.922 516.014 353.974 516.318 354.078C516.623 354.182 516.9 354.352 517.15 354.586C517.4 354.818 517.6 355.125 517.748 355.508C517.896 355.891 517.971 356.362 517.971 356.922V357.312H513.346V356.516H517.033C517.033 356.177 516.965 355.875 516.83 355.609C516.697 355.344 516.507 355.134 516.26 354.98C516.015 354.827 515.726 354.75 515.393 354.75C515.025 354.75 514.708 354.841 514.439 355.023C514.174 355.203 513.969 355.437 513.826 355.727C513.683 356.016 513.611 356.326 513.611 356.656V357.188C513.611 357.641 513.689 358.025 513.846 358.34C514.005 358.652 514.225 358.891 514.506 359.055C514.787 359.216 515.114 359.297 515.486 359.297C515.729 359.297 515.947 359.263 516.143 359.195C516.34 359.125 516.511 359.021 516.654 358.883C516.798 358.742 516.908 358.568 516.986 358.359L517.877 358.609C517.783 358.911 517.626 359.177 517.404 359.406C517.183 359.633 516.91 359.81 516.584 359.937C516.258 360.063 515.893 360.125 515.486 360.125ZM521.811 360.125C521.248 360.125 520.764 359.992 520.357 359.727C519.951 359.461 519.639 359.095 519.42 358.629C519.201 358.163 519.092 357.63 519.092 357.031C519.092 356.422 519.204 355.884 519.428 355.418C519.654 354.949 519.969 354.583 520.373 354.32C520.779 354.055 521.253 353.922 521.795 353.922C522.217 353.922 522.597 354 522.936 354.156C523.274 354.312 523.551 354.531 523.768 354.812C523.984 355.094 524.118 355.422 524.17 355.797H523.248C523.178 355.523 523.021 355.281 522.779 355.07C522.54 354.857 522.217 354.75 521.811 354.75C521.451 354.75 521.136 354.844 520.865 355.031C520.597 355.216 520.387 355.478 520.236 355.816C520.088 356.152 520.014 356.547 520.014 357C520.014 357.464 520.087 357.867 520.232 358.211C520.381 358.555 520.589 358.822 520.857 359.012C521.128 359.202 521.446 359.297 521.811 359.297C522.05 359.297 522.268 359.255 522.463 359.172C522.658 359.089 522.824 358.969 522.959 358.812C523.094 358.656 523.191 358.469 523.248 358.25H524.17C524.118 358.604 523.989 358.923 523.783 359.207C523.58 359.488 523.311 359.712 522.975 359.879C522.641 360.043 522.253 360.125 521.811 360.125ZM529.299 357.547V354H530.221V360H529.299V358.984H529.236C529.096 359.289 528.877 359.548 528.58 359.762C528.283 359.973 527.908 360.078 527.455 360.078C527.08 360.078 526.747 359.996 526.455 359.832C526.163 359.665 525.934 359.415 525.768 359.082C525.601 358.746 525.518 358.323 525.518 357.812V354H526.439V357.75C526.439 358.187 526.562 358.536 526.807 358.797C527.054 359.057 527.369 359.187 527.752 359.187C527.981 359.187 528.214 359.129 528.451 359.012C528.691 358.895 528.891 358.715 529.053 358.473C529.217 358.23 529.299 357.922 529.299 357.547ZM531.909 360V354H532.8V354.906H532.862C532.972 354.609 533.17 354.368 533.456 354.184C533.743 353.999 534.065 353.906 534.425 353.906C534.493 353.906 534.577 353.908 534.679 353.91C534.78 353.913 534.857 353.917 534.909 353.922V354.859C534.878 354.852 534.806 354.84 534.694 354.824C534.585 354.806 534.469 354.797 534.347 354.797C534.055 354.797 533.795 354.858 533.565 354.98C533.339 355.1 533.159 355.267 533.026 355.48C532.896 355.691 532.831 355.932 532.831 356.203V360H531.909ZM536.002 360V354H536.924V360H536.002ZM536.471 353C536.291 353 536.136 352.939 536.006 352.816C535.878 352.694 535.814 352.547 535.814 352.375C535.814 352.203 535.878 352.056 536.006 351.934C536.136 351.811 536.291 351.75 536.471 351.75C536.65 351.75 536.804 351.811 536.932 351.934C537.062 352.056 537.127 352.203 537.127 352.375C537.127 352.547 537.062 352.694 536.932 352.816C536.804 352.939 536.65 353 536.471 353ZM541.222 354V354.781H538.112V354H541.222ZM539.019 352.562H539.94V358.281C539.94 358.542 539.978 358.737 540.054 358.867C540.132 358.995 540.231 359.081 540.351 359.125C540.473 359.167 540.602 359.187 540.737 359.187C540.839 359.187 540.922 359.182 540.987 359.172C541.052 359.159 541.104 359.148 541.144 359.141L541.331 359.969C541.269 359.992 541.181 360.016 541.069 360.039C540.957 360.065 540.815 360.078 540.644 360.078C540.383 360.078 540.128 360.022 539.878 359.91C539.631 359.798 539.425 359.628 539.261 359.398C539.099 359.169 539.019 358.88 539.019 358.531V352.562ZM543.202 362.25C543.046 362.25 542.907 362.237 542.784 362.211C542.662 362.188 542.577 362.164 542.53 362.141L542.765 361.328C542.989 361.385 543.187 361.406 543.358 361.391C543.53 361.375 543.683 361.298 543.815 361.16C543.951 361.025 544.075 360.805 544.187 360.5L544.358 360.031L542.14 354H543.14L544.796 358.781H544.858L546.515 354H547.515L544.968 360.875C544.853 361.185 544.711 361.441 544.542 361.645C544.373 361.85 544.176 362.003 543.952 362.102C543.731 362.201 543.481 362.25 543.202 362.25Z" fill="white"/>
<path d="M349.707 140.293C349.317 139.902 348.683 139.902 348.293 140.293L341.929 146.657C341.538 147.047 341.538 147.681 341.929 148.071C342.319 148.462 342.953 148.462 343.343 148.071L349 142.414L354.657 148.071C355.047 148.462 355.681 148.462 356.071 148.071C356.462 147.681 356.462 147.047 356.071 146.657L349.707 140.293ZM348.293 233.707C348.683 234.098 349.317 234.098 349.707 233.707L356.071 227.343C356.462 226.953 356.462 226.319 356.071 225.929C355.681 225.538 355.047 225.538 354.657 225.929L349 231.586L343.343 225.929C342.953 225.538 342.319 225.538 341.929 225.929C341.538 226.319 341.538 226.953 341.929 227.343L348.293 233.707ZM348 141L348 142.917L350 142.917L350 141L348 141ZM348 146.75L348 150.583L350 150.583L350 146.75L348 146.75ZM348 154.417L348 158.25L350 158.25L350 154.417L348 154.417ZM348 162.083L348 165.917L350 165.917L350 162.083L348 162.083ZM348 169.75L348 173.583L350 173.583L350 169.75L348 169.75ZM348 177.417L348 181.25L350 181.25L350 177.417L348 177.417ZM348 185.083L348 188.917L350 188.917L350 185.083L348 185.083ZM348 192.75L348 196.583L350 196.583L350 192.75L348 192.75ZM348 200.417L348 204.25L350 204.25L350 200.417L348 200.417ZM348 208.083L348 211.917L350 211.917L350 208.083L348 208.083ZM348 215.75L348 219.583L350 219.583L350 215.75L348 215.75ZM348 223.417L348 227.25L350 227.25L350 223.417L348 223.417ZM348 231.083L348 233L350 233L350 231.083L348 231.083ZM349.707 140.293C349.317 139.902 348.683 139.902 348.293 140.293L341.929 146.657C341.538 147.047 341.538 147.681 341.929 148.071C342.319 148.462 342.953 148.462 343.343 148.071L349 142.414L354.657 148.071C355.047 148.462 355.681 148.462 356.071 148.071C356.462 147.681 356.462 147.047 356.071 146.657L349.707 140.293ZM348.293 233.707C348.683 234.098 349.317 234.098 349.707 233.707L356.071 227.343C356.462 226.953 356.462 226.319 356.071 225.929C355.681 225.538 355.047 225.538 354.657 225.929L349 231.586L343.343 225.929C342.953 225.538 342.319 225.538 341.929 225.929C341.538 226.319 341.538 226.953 341.929 227.343L348.293 233.707ZM348 141L348 142.917L350 142.917L350 141L348 141ZM348 146.75L348 150.583L350 150.583L350 146.75L348 146.75ZM348 154.417L348 158.25L350 158.25L350 154.417L348 154.417ZM348 162.083L348 165.917L350 165.917L350 162.083L348 162.083ZM348 169.75L348 173.583L350 173.583L350 169.75L348 169.75ZM348 177.417L348 181.25L350 181.25L350 177.417L348 177.417ZM348 185.083L348 188.917L350 188.917L350 185.083L348 185.083ZM348 192.75L348 196.583L350 196.583L350 192.75L348 192.75ZM348 200.417L348 204.25L350 204.25L350 200.417L348 200.417ZM348 208.083L348 211.917L350 211.917L350 208.083L348 208.083ZM348 215.75L348 219.583L350 219.583L350 215.75L348 215.75ZM348 223.417L348 227.25L350 227.25L350 223.417L348 223.417ZM348 231.083L348 233L350 233L350 231.083L348 231.083Z" fill="white"/>
<defs>
<linearGradient id="paint0_linear_958_5967" x1="41.1513" y1="330" x2="656.135" y2="330" gradientUnits="userSpaceOnUse">
<stop/>
<stop offset="1" stop-color="#3432CA"/>
</linearGradient>
<linearGradient id="paint1_linear_958_5967" x1="41.1513" y1="330" x2="656.135" y2="330" gradientUnits="userSpaceOnUse">
<stop/>
<stop offset="1" stop-color="#3432CA"/>
</linearGradient>
<linearGradient id="paint2_linear_958_5967" x1="348.162" y1="330.421" x2="347.493" y2="386.994" gradientUnits="userSpaceOnUse">
<stop stop-color="white"/>
<stop offset="1" stop-color="white" stop-opacity="0"/>
</linearGradient>
<linearGradient id="paint3_linear_958_5967" x1="348.134" y1="379.93" x2="349.042" y2="264.401" gradientUnits="userSpaceOnUse">
<stop stop-color="white" stop-opacity="0"/>
<stop offset="1" stop-color="white"/>
</linearGradient>
<clipPath id="clip0_958_5967">
<rect width="70" height="70" fill="white" transform="translate(313.5 261)"/>
</clipPath>
<clipPath id="clip1_958_5967">
<rect width="116" height="70" fill="white" transform="translate(469 408)"/>
</clipPath>
<clipPath id="clip2_958_5967">
<rect width="116" height="70" fill="white" transform="translate(110 408)"/>
</clipPath>
</defs>
</svg>
