<svg width="695" height="550" viewBox="0 0 695 550" fill="none" xmlns="http://www.w3.org/2000/svg">
<rect width="695" height="550" rx="24" fill="url(#paint0_linear_958_5910)"/>
<mask id="mask0_958_5910" style="mask-type:alpha" maskUnits="userSpaceOnUse" x="0" y="0" width="695" height="550">
<rect width="695" height="550" rx="24" fill="url(#paint1_linear_958_5910)"/>
</mask>
<g mask="url(#mask0_958_5910)">
<path fill-rule="evenodd" clip-rule="evenodd" d="M17.8892 383.5L-72 331.583L-5.74652 216.917L84.195 268.745L84.2457 165H216.754L216.805 268.745L306.746 216.917L373 331.583L283.11 383.5L373 435.417L306.746 550.083L216.805 498.255L216.754 602H84.2457L84.195 498.255L-5.74652 550.083L-72 435.417L17.8892 383.5Z" fill="#3432CA" fill-opacity="0.3"/>
</g>
<path d="M229.2 111.333C227.68 98.3 216.28 88.3333 202.6 88.3333C198.8 88.3333 195.76 89.1 192.72 90.6333C185.88 79.9 173.72 73 160.8 73C139.52 73 122.8 89.8667 122.8 111.333V112.1C109.88 113.633 100 125.133 100 138.167C100 152.733 112.16 165 126.6 165H225.4C239.84 165 252 152.733 252 138.167C252 124.367 242.12 113.633 229.2 111.333Z" fill="white"/>
<path d="M151.32 125V113.364H155.683C156.577 113.364 157.327 113.53 157.933 113.864C158.543 114.197 159.003 114.655 159.314 115.239C159.628 115.818 159.786 116.477 159.786 117.216C159.786 117.962 159.628 118.625 159.314 119.205C159 119.784 158.536 120.241 157.922 120.574C157.308 120.903 156.553 121.068 155.655 121.068H152.763V119.335H155.371C155.893 119.335 156.321 119.244 156.655 119.062C156.988 118.881 157.234 118.631 157.393 118.312C157.556 117.994 157.638 117.629 157.638 117.216C157.638 116.803 157.556 116.439 157.393 116.125C157.234 115.811 156.986 115.566 156.649 115.392C156.316 115.214 155.886 115.125 155.359 115.125H153.428V125H151.32ZM167.088 121.33V116.273H169.145V125H167.151V123.449H167.06C166.863 123.937 166.539 124.337 166.088 124.648C165.641 124.958 165.09 125.114 164.435 125.114C163.863 125.114 163.357 124.987 162.918 124.733C162.482 124.475 162.141 124.102 161.895 123.614C161.649 123.121 161.526 122.527 161.526 121.83V116.273H163.582V121.511C163.582 122.064 163.734 122.504 164.037 122.83C164.34 123.155 164.738 123.318 165.23 123.318C165.533 123.318 165.827 123.244 166.111 123.097C166.395 122.949 166.628 122.729 166.81 122.438C166.995 122.142 167.088 121.773 167.088 121.33ZM171.351 125V113.364H173.408V117.716H173.493C173.599 117.504 173.749 117.278 173.942 117.04C174.135 116.797 174.396 116.591 174.726 116.42C175.055 116.246 175.476 116.159 175.987 116.159C176.661 116.159 177.269 116.331 177.811 116.676C178.357 117.017 178.788 117.523 179.107 118.193C179.429 118.86 179.589 119.678 179.589 120.648C179.589 121.606 179.432 122.42 179.118 123.091C178.804 123.761 178.375 124.273 177.834 124.625C177.292 124.977 176.679 125.153 175.993 125.153C175.493 125.153 175.078 125.07 174.749 124.903C174.419 124.737 174.154 124.536 173.953 124.301C173.756 124.062 173.603 123.837 173.493 123.625H173.374V125H171.351ZM173.368 120.636C173.368 121.201 173.447 121.695 173.607 122.119C173.769 122.544 174.002 122.875 174.305 123.114C174.612 123.348 174.983 123.466 175.419 123.466C175.874 123.466 176.254 123.345 176.561 123.102C176.868 122.856 177.099 122.521 177.254 122.097C177.413 121.669 177.493 121.182 177.493 120.636C177.493 120.095 177.415 119.614 177.26 119.193C177.105 118.773 176.874 118.443 176.567 118.205C176.26 117.966 175.877 117.847 175.419 117.847C174.98 117.847 174.607 117.962 174.3 118.193C173.993 118.424 173.76 118.748 173.601 119.165C173.446 119.581 173.368 120.072 173.368 120.636ZM183.395 113.364V125H181.338V113.364H183.395ZM185.51 125V116.273H187.567V125H185.51ZM186.544 115.034C186.218 115.034 185.938 114.926 185.703 114.71C185.468 114.491 185.351 114.227 185.351 113.92C185.351 113.61 185.468 113.347 185.703 113.131C185.938 112.911 186.218 112.801 186.544 112.801C186.874 112.801 187.154 112.911 187.385 113.131C187.62 113.347 187.737 113.61 187.737 113.92C187.737 114.227 187.62 114.491 187.385 114.71C187.154 114.926 186.874 115.034 186.544 115.034ZM193.489 125.17C192.617 125.17 191.869 124.979 191.244 124.597C190.623 124.214 190.144 123.686 189.807 123.011C189.473 122.333 189.307 121.553 189.307 120.67C189.307 119.784 189.477 119.002 189.818 118.324C190.159 117.642 190.64 117.112 191.261 116.733C191.886 116.35 192.625 116.159 193.477 116.159C194.186 116.159 194.813 116.29 195.358 116.551C195.907 116.809 196.345 117.174 196.67 117.648C196.996 118.117 197.182 118.667 197.227 119.295H195.261C195.182 118.875 194.992 118.525 194.693 118.244C194.398 117.96 194.002 117.818 193.506 117.818C193.085 117.818 192.716 117.932 192.398 118.159C192.08 118.383 191.831 118.705 191.653 119.125C191.479 119.545 191.392 120.049 191.392 120.636C191.392 121.231 191.479 121.742 191.653 122.17C191.828 122.595 192.072 122.922 192.386 123.153C192.705 123.381 193.078 123.494 193.506 123.494C193.809 123.494 194.08 123.437 194.318 123.324C194.561 123.206 194.763 123.038 194.926 122.818C195.089 122.598 195.201 122.331 195.261 122.017H197.227C197.178 122.634 196.996 123.182 196.682 123.659C196.367 124.133 195.939 124.504 195.398 124.773C194.856 125.038 194.22 125.17 193.489 125.17ZM164.303 141.29H162.178C162.118 140.941 162.006 140.633 161.843 140.364C161.68 140.091 161.478 139.86 161.235 139.67C160.993 139.481 160.716 139.339 160.406 139.244C160.099 139.146 159.767 139.097 159.411 139.097C158.779 139.097 158.218 139.256 157.729 139.574C157.241 139.888 156.858 140.35 156.582 140.96C156.305 141.566 156.167 142.307 156.167 143.182C156.167 144.072 156.305 144.822 156.582 145.432C156.862 146.038 157.245 146.496 157.729 146.807C158.218 147.114 158.777 147.267 159.406 147.267C159.754 147.267 160.08 147.222 160.383 147.131C160.69 147.036 160.964 146.898 161.207 146.716C161.453 146.534 161.659 146.311 161.826 146.045C161.996 145.78 162.114 145.477 162.178 145.136L164.303 145.148C164.224 145.701 164.051 146.22 163.786 146.705C163.525 147.189 163.182 147.617 162.758 147.989C162.334 148.356 161.837 148.644 161.269 148.852C160.701 149.057 160.07 149.159 159.377 149.159C158.354 149.159 157.442 148.922 156.638 148.449C155.835 147.975 155.203 147.292 154.741 146.398C154.279 145.504 154.048 144.432 154.048 143.182C154.048 141.928 154.281 140.856 154.746 139.966C155.212 139.072 155.847 138.388 156.65 137.915C157.453 137.441 158.362 137.205 159.377 137.205C160.025 137.205 160.627 137.295 161.184 137.477C161.741 137.659 162.237 137.926 162.673 138.278C163.108 138.627 163.466 139.055 163.746 139.562C164.031 140.066 164.216 140.642 164.303 141.29ZM168.2 137.364V149H166.143V137.364H168.2ZM174.121 149.17C173.269 149.17 172.531 148.983 171.906 148.608C171.281 148.233 170.796 147.708 170.451 147.034C170.11 146.36 169.94 145.572 169.94 144.67C169.94 143.769 170.11 142.979 170.451 142.301C170.796 141.623 171.281 141.097 171.906 140.722C172.531 140.347 173.269 140.159 174.121 140.159C174.974 140.159 175.712 140.347 176.337 140.722C176.962 141.097 177.445 141.623 177.786 142.301C178.131 142.979 178.303 143.769 178.303 144.67C178.303 145.572 178.131 146.36 177.786 147.034C177.445 147.708 176.962 148.233 176.337 148.608C175.712 148.983 174.974 149.17 174.121 149.17ZM174.133 147.523C174.595 147.523 174.981 147.396 175.292 147.142C175.603 146.884 175.834 146.54 175.985 146.108C176.14 145.676 176.218 145.195 176.218 144.665C176.218 144.131 176.14 143.648 175.985 143.216C175.834 142.78 175.603 142.434 175.292 142.176C174.981 141.919 174.595 141.79 174.133 141.79C173.659 141.79 173.265 141.919 172.951 142.176C172.64 142.434 172.407 142.78 172.252 143.216C172.101 143.648 172.025 144.131 172.025 144.665C172.025 145.195 172.101 145.676 172.252 146.108C172.407 146.54 172.64 146.884 172.951 147.142C173.265 147.396 173.659 147.523 174.133 147.523ZM185.612 145.33V140.273H187.668V149H185.674V147.449H185.583C185.386 147.937 185.062 148.337 184.612 148.648C184.165 148.958 183.613 149.114 182.958 149.114C182.386 149.114 181.88 148.987 181.441 148.733C181.005 148.475 180.665 148.102 180.418 147.614C180.172 147.121 180.049 146.527 180.049 145.83V140.273H182.106V145.511C182.106 146.064 182.257 146.504 182.56 146.83C182.863 147.155 183.261 147.318 183.754 147.318C184.057 147.318 184.35 147.244 184.634 147.097C184.918 146.949 185.151 146.729 185.333 146.438C185.519 146.142 185.612 145.773 185.612 145.33ZM193.022 149.153C192.336 149.153 191.723 148.977 191.181 148.625C190.639 148.273 190.211 147.761 189.897 147.091C189.583 146.42 189.425 145.606 189.425 144.648C189.425 143.678 189.585 142.86 189.903 142.193C190.225 141.523 190.658 141.017 191.204 140.676C191.749 140.331 192.357 140.159 193.028 140.159C193.539 140.159 193.96 140.246 194.289 140.42C194.619 140.591 194.88 140.797 195.073 141.04C195.266 141.278 195.416 141.504 195.522 141.716H195.607V137.364H197.67V149H195.647V147.625H195.522C195.416 147.837 195.263 148.062 195.062 148.301C194.861 148.536 194.596 148.737 194.266 148.903C193.937 149.07 193.522 149.153 193.022 149.153ZM193.596 147.466C194.031 147.466 194.403 147.348 194.71 147.114C195.016 146.875 195.249 146.544 195.408 146.119C195.567 145.695 195.647 145.201 195.647 144.636C195.647 144.072 195.567 143.581 195.408 143.165C195.253 142.748 195.022 142.424 194.715 142.193C194.412 141.962 194.039 141.847 193.596 141.847C193.138 141.847 192.755 141.966 192.448 142.205C192.141 142.443 191.91 142.773 191.755 143.193C191.6 143.614 191.522 144.095 191.522 144.636C191.522 145.182 191.6 145.669 191.755 146.097C191.914 146.521 192.147 146.856 192.454 147.102C192.764 147.345 193.145 147.466 193.596 147.466Z" fill="#212121"/>
<path d="M572.2 111.333C570.68 98.3 559.28 88.3333 545.6 88.3333C541.8 88.3333 538.76 89.1 535.72 90.6333C528.88 79.9 516.72 73 503.8 73C482.52 73 465.8 89.8667 465.8 111.333V112.1C452.88 113.633 443 125.133 443 138.167C443 152.733 455.16 165 469.6 165H568.4C582.84 165 595 152.733 595 138.167C595 124.367 585.12 113.633 572.2 111.333Z" fill="white"/>
<path d="M490.445 125V113.364H494.808C495.702 113.364 496.452 113.53 497.058 113.864C497.668 114.197 498.128 114.655 498.439 115.239C498.753 115.818 498.911 116.477 498.911 117.216C498.911 117.962 498.753 118.625 498.439 119.205C498.125 119.784 497.661 120.241 497.047 120.574C496.433 120.903 495.678 121.068 494.78 121.068H491.888V119.335H494.496C495.018 119.335 495.446 119.244 495.78 119.062C496.113 118.881 496.359 118.631 496.518 118.312C496.681 117.994 496.763 117.629 496.763 117.216C496.763 116.803 496.681 116.439 496.518 116.125C496.359 115.811 496.111 115.566 495.774 115.392C495.441 115.214 495.011 115.125 494.484 115.125H492.553V125H490.445ZM500.651 125V116.273H502.645V117.727H502.736C502.895 117.223 503.168 116.835 503.554 116.562C503.944 116.286 504.389 116.148 504.889 116.148C505.003 116.148 505.13 116.153 505.27 116.165C505.414 116.172 505.533 116.186 505.628 116.205V118.097C505.541 118.066 505.402 118.04 505.213 118.017C505.027 117.991 504.848 117.977 504.673 117.977C504.298 117.977 503.961 118.059 503.662 118.222C503.366 118.381 503.134 118.602 502.963 118.886C502.793 119.17 502.707 119.498 502.707 119.869V125H500.651ZM506.994 125V116.273H509.051V125H506.994ZM508.028 115.034C507.703 115.034 507.422 114.926 507.188 114.71C506.953 114.491 506.835 114.227 506.835 113.92C506.835 113.61 506.953 113.347 507.188 113.131C507.422 112.911 507.703 112.801 508.028 112.801C508.358 112.801 508.638 112.911 508.869 113.131C509.104 113.347 509.222 113.61 509.222 113.92C509.222 114.227 509.104 114.491 508.869 114.71C508.638 114.926 508.358 115.034 508.028 115.034ZM518.962 116.273L515.854 125H513.581L510.473 116.273H512.666L514.672 122.756H514.763L516.774 116.273H518.962ZM522.646 125.176C522.093 125.176 521.595 125.078 521.152 124.881C520.713 124.68 520.364 124.384 520.107 123.994C519.853 123.604 519.726 123.123 519.726 122.551C519.726 122.059 519.817 121.652 519.999 121.33C520.18 121.008 520.429 120.75 520.743 120.557C521.057 120.364 521.411 120.218 521.805 120.119C522.203 120.017 522.614 119.943 523.038 119.898C523.55 119.845 523.964 119.797 524.283 119.756C524.601 119.71 524.832 119.642 524.976 119.551C525.124 119.456 525.197 119.311 525.197 119.114V119.08C525.197 118.652 525.071 118.32 524.817 118.085C524.563 117.85 524.197 117.733 523.72 117.733C523.216 117.733 522.817 117.843 522.521 118.062C522.23 118.282 522.033 118.542 521.93 118.841L520.01 118.568C520.161 118.038 520.411 117.595 520.76 117.239C521.108 116.879 521.535 116.61 522.038 116.432C522.542 116.25 523.099 116.159 523.709 116.159C524.129 116.159 524.548 116.208 524.964 116.307C525.381 116.405 525.762 116.568 526.107 116.795C526.451 117.019 526.728 117.324 526.936 117.71C527.148 118.097 527.254 118.58 527.254 119.159V125H525.277V123.801H525.209C525.084 124.044 524.908 124.271 524.68 124.483C524.457 124.691 524.175 124.86 523.834 124.989C523.497 125.114 523.101 125.176 522.646 125.176ZM523.18 123.665C523.593 123.665 523.951 123.583 524.254 123.42C524.557 123.254 524.79 123.034 524.953 122.761C525.12 122.489 525.203 122.191 525.203 121.869V120.841C525.139 120.894 525.029 120.943 524.874 120.989C524.722 121.034 524.552 121.074 524.362 121.108C524.173 121.142 523.985 121.172 523.8 121.199C523.614 121.225 523.453 121.248 523.317 121.267C523.01 121.309 522.735 121.377 522.493 121.472C522.25 121.566 522.059 121.699 521.919 121.869C521.779 122.036 521.709 122.252 521.709 122.517C521.709 122.896 521.847 123.182 522.124 123.375C522.4 123.568 522.752 123.665 523.18 123.665ZM533.68 116.273V117.864H528.663V116.273H533.68ZM529.902 114.182H531.959V122.375C531.959 122.652 532 122.864 532.084 123.011C532.171 123.155 532.285 123.254 532.425 123.307C532.565 123.36 532.72 123.386 532.891 123.386C533.019 123.386 533.137 123.377 533.243 123.358C533.353 123.339 533.436 123.322 533.493 123.307L533.839 124.915C533.73 124.953 533.572 124.994 533.368 125.04C533.167 125.085 532.921 125.112 532.629 125.119C532.114 125.134 531.65 125.057 531.237 124.886C530.824 124.712 530.497 124.443 530.254 124.08C530.016 123.716 529.898 123.261 529.902 122.716V114.182ZM539.17 125.17C538.295 125.17 537.54 124.989 536.903 124.625C536.271 124.258 535.784 123.739 535.443 123.068C535.102 122.394 534.932 121.6 534.932 120.688C534.932 119.79 535.102 119.002 535.443 118.324C535.788 117.642 536.269 117.112 536.886 116.733C537.504 116.35 538.229 116.159 539.062 116.159C539.6 116.159 540.108 116.246 540.585 116.42C541.066 116.591 541.491 116.856 541.858 117.216C542.229 117.576 542.521 118.034 542.733 118.591C542.945 119.144 543.051 119.803 543.051 120.568V121.199H535.898V119.812H541.08C541.076 119.419 540.991 119.068 540.824 118.761C540.657 118.451 540.424 118.206 540.125 118.028C539.83 117.85 539.485 117.761 539.091 117.761C538.67 117.761 538.301 117.864 537.983 118.068C537.665 118.269 537.417 118.534 537.239 118.864C537.064 119.189 536.975 119.547 536.972 119.938V121.148C536.972 121.655 537.064 122.091 537.25 122.455C537.436 122.814 537.695 123.091 538.028 123.284C538.362 123.473 538.752 123.568 539.199 123.568C539.498 123.568 539.769 123.527 540.011 123.443C540.254 123.356 540.464 123.229 540.642 123.062C540.82 122.896 540.955 122.689 541.045 122.443L542.966 122.659C542.845 123.167 542.614 123.61 542.273 123.989C541.936 124.364 541.504 124.655 540.977 124.864C540.451 125.068 539.848 125.17 539.17 125.17ZM506.803 141.29H504.678C504.618 140.941 504.506 140.633 504.343 140.364C504.18 140.091 503.978 139.86 503.735 139.67C503.493 139.481 503.216 139.339 502.906 139.244C502.599 139.146 502.267 139.097 501.911 139.097C501.279 139.097 500.718 139.256 500.229 139.574C499.741 139.888 499.358 140.35 499.082 140.96C498.805 141.566 498.667 142.307 498.667 143.182C498.667 144.072 498.805 144.822 499.082 145.432C499.362 146.038 499.745 146.496 500.229 146.807C500.718 147.114 501.277 147.267 501.906 147.267C502.254 147.267 502.58 147.222 502.883 147.131C503.19 147.036 503.464 146.898 503.707 146.716C503.953 146.534 504.159 146.311 504.326 146.045C504.496 145.78 504.614 145.477 504.678 145.136L506.803 145.148C506.724 145.701 506.551 146.22 506.286 146.705C506.025 147.189 505.682 147.617 505.258 147.989C504.834 148.356 504.337 148.644 503.769 148.852C503.201 149.057 502.57 149.159 501.877 149.159C500.854 149.159 499.942 148.922 499.138 148.449C498.335 147.975 497.703 147.292 497.241 146.398C496.779 145.504 496.548 144.432 496.548 143.182C496.548 141.928 496.781 140.856 497.246 139.966C497.712 139.072 498.347 138.388 499.15 137.915C499.953 137.441 500.862 137.205 501.877 137.205C502.525 137.205 503.127 137.295 503.684 137.477C504.241 137.659 504.737 137.926 505.173 138.278C505.608 138.627 505.966 139.055 506.246 139.562C506.531 140.066 506.716 140.642 506.803 141.29ZM510.7 137.364V149H508.643V137.364H510.7ZM516.621 149.17C515.769 149.17 515.031 148.983 514.406 148.608C513.781 148.233 513.296 147.708 512.951 147.034C512.61 146.36 512.44 145.572 512.44 144.67C512.44 143.769 512.61 142.979 512.951 142.301C513.296 141.623 513.781 141.097 514.406 140.722C515.031 140.347 515.769 140.159 516.621 140.159C517.474 140.159 518.212 140.347 518.837 140.722C519.462 141.097 519.945 141.623 520.286 142.301C520.631 142.979 520.803 143.769 520.803 144.67C520.803 145.572 520.631 146.36 520.286 147.034C519.945 147.708 519.462 148.233 518.837 148.608C518.212 148.983 517.474 149.17 516.621 149.17ZM516.633 147.523C517.095 147.523 517.481 147.396 517.792 147.142C518.103 146.884 518.334 146.54 518.485 146.108C518.64 145.676 518.718 145.195 518.718 144.665C518.718 144.131 518.64 143.648 518.485 143.216C518.334 142.78 518.103 142.434 517.792 142.176C517.481 141.919 517.095 141.79 516.633 141.79C516.159 141.79 515.765 141.919 515.451 142.176C515.14 142.434 514.907 142.78 514.752 143.216C514.601 143.648 514.525 144.131 514.525 144.665C514.525 145.195 514.601 145.676 514.752 146.108C514.907 146.54 515.14 146.884 515.451 147.142C515.765 147.396 516.159 147.523 516.633 147.523ZM528.112 145.33V140.273H530.168V149H528.174V147.449H528.083C527.886 147.937 527.562 148.337 527.112 148.648C526.665 148.958 526.113 149.114 525.458 149.114C524.886 149.114 524.38 148.987 523.941 148.733C523.505 148.475 523.165 148.102 522.918 147.614C522.672 147.121 522.549 146.527 522.549 145.83V140.273H524.606V145.511C524.606 146.064 524.757 146.504 525.06 146.83C525.363 147.155 525.761 147.318 526.254 147.318C526.557 147.318 526.85 147.244 527.134 147.097C527.418 146.949 527.651 146.729 527.833 146.438C528.019 146.142 528.112 145.773 528.112 145.33ZM535.522 149.153C534.836 149.153 534.223 148.977 533.681 148.625C533.139 148.273 532.711 147.761 532.397 147.091C532.083 146.42 531.925 145.606 531.925 144.648C531.925 143.678 532.085 142.86 532.403 142.193C532.725 141.523 533.158 141.017 533.704 140.676C534.249 140.331 534.857 140.159 535.528 140.159C536.039 140.159 536.46 140.246 536.789 140.42C537.119 140.591 537.38 140.797 537.573 141.04C537.766 141.278 537.916 141.504 538.022 141.716H538.107V137.364H540.17V149H538.147V147.625H538.022C537.916 147.837 537.763 148.062 537.562 148.301C537.361 148.536 537.096 148.737 536.766 148.903C536.437 149.07 536.022 149.153 535.522 149.153ZM536.096 147.466C536.531 147.466 536.903 147.348 537.21 147.114C537.516 146.875 537.749 146.544 537.908 146.119C538.067 145.695 538.147 145.201 538.147 144.636C538.147 144.072 538.067 143.581 537.908 143.165C537.753 142.748 537.522 142.424 537.215 142.193C536.912 141.962 536.539 141.847 536.096 141.847C535.638 141.847 535.255 141.966 534.948 142.205C534.641 142.443 534.41 142.773 534.255 143.193C534.1 143.614 534.022 144.095 534.022 144.636C534.022 145.182 534.1 145.669 534.255 146.097C534.414 146.521 534.647 146.856 534.954 147.102C535.264 147.345 535.645 147.466 536.096 147.466Z" fill="#212121"/>
<path d="M439.707 125.707C440.098 125.317 440.098 124.683 439.707 124.293L433.343 117.929C432.953 117.538 432.319 117.538 431.929 117.929C431.538 118.319 431.538 118.953 431.929 119.343L437.586 125L431.929 130.657C431.538 131.047 431.538 131.681 431.929 132.071C432.319 132.462 432.953 132.462 433.343 132.071L439.707 125.707ZM255.293 124.293C254.902 124.683 254.902 125.317 255.293 125.707L261.657 132.071C262.047 132.462 262.681 132.462 263.071 132.071C263.462 131.681 263.462 131.047 263.071 130.657L257.414 125L263.071 119.343C263.462 118.953 263.462 118.319 263.071 117.929C262.681 117.538 262.047 117.538 261.657 117.929L255.293 124.293ZM439 124H437.011V126H439V124ZM433.033 124H429.054V126H433.033V124ZM425.076 124H421.098V126H425.076V124ZM417.12 124H413.141V126H417.12V124ZM409.163 124H405.185V126H409.163V124ZM401.207 124H397.228V126H401.207V124ZM393.25 124H389.272V126H393.25V124ZM385.293 124H381.315V126H385.293V124ZM377.337 124H373.359V126H377.337V124ZM369.38 124H365.402V126H369.38V124ZM361.424 124H357.446V126H361.424V124ZM353.467 124H349.489V126H353.467V124ZM345.511 124H341.533V126H345.511V124ZM337.554 124H333.576V126H337.554V124ZM329.598 124H325.62V126H329.598V124ZM321.641 124H317.663V126H321.641V124ZM313.685 124H309.706V126H313.685V124ZM305.728 124H301.75V126H305.728V124ZM297.772 124H293.793V126H297.772V124ZM289.815 124H285.837V126H289.815V124ZM281.859 124H277.88V126H281.859V124ZM273.902 124H269.924V126H273.902V124ZM265.946 124L261.967 124V126L265.946 126V124ZM257.989 124H256V126H257.989V124ZM439.707 125.707C440.098 125.317 440.098 124.683 439.707 124.293L433.343 117.929C432.953 117.538 432.319 117.538 431.929 117.929C431.538 118.319 431.538 118.953 431.929 119.343L437.586 125L431.929 130.657C431.538 131.047 431.538 131.681 431.929 132.071C432.319 132.462 432.953 132.462 433.343 132.071L439.707 125.707ZM255.293 124.293C254.902 124.683 254.902 125.317 255.293 125.707L261.657 132.071C262.047 132.462 262.681 132.462 263.071 132.071C263.462 131.681 263.462 131.047 263.071 130.657L257.414 125L263.071 119.343C263.462 118.953 263.462 118.319 263.071 117.929C262.681 117.538 262.047 117.538 261.657 117.929L255.293 124.293ZM439 124H437.011V126H439V124ZM433.033 124H429.054V126H433.033V124ZM425.076 124H421.098V126H425.076V124ZM417.12 124H413.141V126H417.12V124ZM409.163 124H405.185V126H409.163V124ZM401.207 124H397.228V126H401.207V124ZM393.25 124H389.272V126H393.25V124ZM385.293 124H381.315V126H385.293V124ZM377.337 124H373.359V126H377.337V124ZM369.38 124H365.402V126H369.38V124ZM361.424 124H357.446V126H361.424V124ZM353.467 124H349.489V126H353.467V124ZM345.511 124H341.533V126H345.511V124ZM337.554 124H333.576V126H337.554V124ZM329.598 124H325.62V126H329.598V124ZM321.641 124H317.663V126H321.641V124ZM313.685 124H309.706V126H313.685V124ZM305.728 124H301.75V126H305.728V124ZM297.772 124H293.793V126H297.772V124ZM289.815 124H285.837V126H289.815V124ZM281.859 124H277.88V126H281.859V124ZM273.902 124H269.924V126H273.902V124ZM265.946 124L261.967 124V126L265.946 126V124ZM257.989 124H256V126H257.989V124Z" fill="white"/>
<rect x="305" y="110" width="86" height="26" rx="13" fill="#212121"/>
<path d="M316.417 128L313.633 117.818H314.886L317.014 126.111H317.113L319.281 117.818H320.673L322.841 126.111H322.94L325.068 117.818H326.321L323.537 128H322.264L320.017 119.886H319.937L317.69 128H316.417ZM330.089 128.159C329.4 128.159 328.795 127.995 328.275 127.667C327.758 127.339 327.353 126.88 327.062 126.29C326.773 125.7 326.629 125.01 326.629 124.222C326.629 123.426 326.773 122.732 327.062 122.138C327.353 121.545 327.758 121.085 328.275 120.756C328.795 120.428 329.4 120.264 330.089 120.264C330.779 120.264 331.382 120.428 331.899 120.756C332.419 121.085 332.824 121.545 333.112 122.138C333.404 122.732 333.549 123.426 333.549 124.222C333.549 125.01 333.404 125.7 333.112 126.29C332.824 126.88 332.419 127.339 331.899 127.667C331.382 127.995 330.779 128.159 330.089 128.159ZM330.089 127.105C330.613 127.105 331.044 126.971 331.382 126.702C331.72 126.434 331.97 126.081 332.133 125.643C332.295 125.206 332.376 124.732 332.376 124.222C332.376 123.711 332.295 123.236 332.133 122.795C331.97 122.354 331.72 121.998 331.382 121.726C331.044 121.454 330.613 121.318 330.089 121.318C329.566 121.318 329.135 121.454 328.797 121.726C328.459 121.998 328.208 122.354 328.046 122.795C327.883 123.236 327.802 123.711 327.802 124.222C327.802 124.732 327.883 125.206 328.046 125.643C328.208 126.081 328.459 126.434 328.797 126.702C329.135 126.971 329.566 127.105 330.089 127.105ZM335.34 128V120.364H336.474V121.517H336.554C336.693 121.139 336.945 120.833 337.309 120.597C337.674 120.362 338.085 120.244 338.542 120.244C338.628 120.244 338.736 120.246 338.865 120.249C338.995 120.253 339.092 120.258 339.159 120.264V121.457C339.119 121.447 339.028 121.433 338.885 121.413C338.746 121.389 338.599 121.378 338.443 121.378C338.072 121.378 337.74 121.456 337.448 121.612C337.16 121.764 336.931 121.976 336.762 122.248C336.597 122.516 336.514 122.823 336.514 123.168V128H335.34ZM341.643 125.216L341.623 123.764H341.862L345.203 120.364H346.655L343.095 123.963H342.995L341.643 125.216ZM340.549 128V117.818H341.723V128H340.549ZM345.402 128L342.419 124.222L343.254 123.406L346.893 128H345.402ZM349.338 117.818V128H348.165V117.818H349.338ZM354.589 128.159C353.9 128.159 353.295 127.995 352.775 127.667C352.258 127.339 351.853 126.88 351.562 126.29C351.273 125.7 351.129 125.01 351.129 124.222C351.129 123.426 351.273 122.732 351.562 122.138C351.853 121.545 352.258 121.085 352.775 120.756C353.295 120.428 353.9 120.264 354.589 120.264C355.279 120.264 355.882 120.428 356.399 120.756C356.919 121.085 357.324 121.545 357.612 122.138C357.904 122.732 358.049 123.426 358.049 124.222C358.049 125.01 357.904 125.7 357.612 126.29C357.324 126.88 356.919 127.339 356.399 127.667C355.882 127.995 355.279 128.159 354.589 128.159ZM354.589 127.105C355.113 127.105 355.544 126.971 355.882 126.702C356.22 126.434 356.47 126.081 356.633 125.643C356.795 125.206 356.876 124.732 356.876 124.222C356.876 123.711 356.795 123.236 356.633 122.795C356.47 122.354 356.22 121.998 355.882 121.726C355.544 121.454 355.113 121.318 354.589 121.318C354.066 121.318 353.635 121.454 353.297 121.726C352.959 121.998 352.708 122.354 352.546 122.795C352.383 123.236 352.302 123.711 352.302 124.222C352.302 124.732 352.383 125.206 352.546 125.643C352.708 126.081 352.959 126.434 353.297 126.702C353.635 126.971 354.066 127.105 354.589 127.105ZM362.088 128.179C361.604 128.179 361.165 128.088 360.77 127.906C360.376 127.72 360.063 127.453 359.831 127.105C359.599 126.754 359.483 126.33 359.483 125.832C359.483 125.395 359.569 125.04 359.741 124.768C359.913 124.493 360.144 124.278 360.432 124.122C360.72 123.966 361.039 123.85 361.387 123.774C361.738 123.695 362.091 123.632 362.446 123.585C362.91 123.526 363.286 123.481 363.574 123.451C363.866 123.418 364.078 123.363 364.21 123.287C364.346 123.211 364.414 123.078 364.414 122.889V122.849C364.414 122.359 364.28 121.978 364.012 121.706C363.746 121.434 363.344 121.298 362.804 121.298C362.243 121.298 361.804 121.421 361.486 121.666C361.168 121.911 360.944 122.173 360.815 122.452L359.701 122.054C359.9 121.59 360.165 121.229 360.497 120.97C360.831 120.708 361.196 120.526 361.59 120.423C361.988 120.317 362.379 120.264 362.764 120.264C363.009 120.264 363.291 120.294 363.609 120.354C363.93 120.41 364.24 120.528 364.539 120.707C364.84 120.886 365.09 121.156 365.289 121.517C365.488 121.878 365.588 122.362 365.588 122.969V128H364.414V126.966H364.355C364.275 127.132 364.143 127.309 363.957 127.498C363.771 127.687 363.524 127.848 363.216 127.98C362.908 128.113 362.532 128.179 362.088 128.179ZM362.267 127.125C362.731 127.125 363.122 127.034 363.44 126.852C363.761 126.669 364.003 126.434 364.166 126.146C364.331 125.857 364.414 125.554 364.414 125.236V124.162C364.365 124.222 364.255 124.276 364.086 124.326C363.92 124.372 363.728 124.414 363.509 124.45C363.294 124.483 363.084 124.513 362.878 124.54C362.676 124.563 362.512 124.583 362.386 124.599C362.081 124.639 361.796 124.704 361.531 124.793C361.269 124.879 361.057 125.01 360.894 125.186C360.735 125.358 360.656 125.594 360.656 125.892C360.656 126.3 360.807 126.608 361.108 126.817C361.413 127.022 361.799 127.125 362.267 127.125ZM370.613 128.159C369.976 128.159 369.415 127.998 368.927 127.677C368.44 127.352 368.059 126.895 367.784 126.305C367.509 125.711 367.371 125.01 367.371 124.202C367.371 123.4 367.509 122.704 367.784 122.114C368.059 121.524 368.442 121.068 368.932 120.746C369.423 120.425 369.99 120.264 370.633 120.264C371.13 120.264 371.522 120.347 371.811 120.513C372.102 120.675 372.325 120.861 372.477 121.07C372.633 121.275 372.754 121.444 372.84 121.577H372.939V117.818H374.113V128H372.979V126.827H372.84C372.754 126.966 372.631 127.142 372.472 127.354C372.313 127.562 372.086 127.75 371.791 127.915C371.496 128.078 371.103 128.159 370.613 128.159ZM370.772 127.105C371.242 127.105 371.64 126.982 371.965 126.737C372.29 126.489 372.537 126.146 372.706 125.708C372.875 125.267 372.959 124.759 372.959 124.182C372.959 123.612 372.876 123.113 372.711 122.685C372.545 122.254 372.3 121.92 371.975 121.681C371.65 121.439 371.249 121.318 370.772 121.318C370.275 121.318 369.86 121.446 369.529 121.701C369.201 121.953 368.954 122.296 368.788 122.73C368.626 123.161 368.544 123.645 368.544 124.182C368.544 124.725 368.627 125.219 368.793 125.663C368.962 126.104 369.211 126.455 369.539 126.717C369.87 126.976 370.281 127.105 370.772 127.105ZM381.834 122.074L380.78 122.372C380.713 122.196 380.616 122.026 380.486 121.86C380.36 121.691 380.188 121.552 379.969 121.442C379.75 121.333 379.47 121.278 379.129 121.278C378.662 121.278 378.272 121.386 377.961 121.602C377.652 121.814 377.498 122.084 377.498 122.412C377.498 122.704 377.604 122.934 377.816 123.103C378.029 123.272 378.36 123.413 378.811 123.526L379.944 123.804C380.627 123.97 381.136 124.223 381.471 124.565C381.805 124.903 381.973 125.339 381.973 125.872C381.973 126.31 381.847 126.701 381.595 127.045C381.346 127.39 380.998 127.662 380.551 127.861C380.103 128.06 379.583 128.159 378.99 128.159C378.211 128.159 377.566 127.99 377.056 127.652C376.545 127.314 376.222 126.82 376.086 126.17L377.2 125.892C377.306 126.303 377.507 126.611 377.802 126.817C378.1 127.022 378.489 127.125 378.97 127.125C379.517 127.125 379.951 127.009 380.272 126.777C380.597 126.542 380.76 126.26 380.76 125.932C380.76 125.667 380.667 125.445 380.481 125.266C380.296 125.083 380.011 124.947 379.626 124.858L378.353 124.56C377.654 124.394 377.14 124.137 376.812 123.789C376.487 123.438 376.325 122.999 376.325 122.472C376.325 122.041 376.446 121.66 376.688 121.328C376.933 120.997 377.266 120.737 377.687 120.548C378.111 120.359 378.592 120.264 379.129 120.264C379.885 120.264 380.478 120.43 380.909 120.761C381.343 121.093 381.651 121.53 381.834 122.074Z" fill="white"/>
<path d="M246.707 367.293C247.098 367.683 247.098 368.317 246.707 368.707L240.343 375.071C239.953 375.462 239.319 375.462 238.929 375.071C238.538 374.681 238.538 374.047 238.929 373.657L244.586 368L238.929 362.343C238.538 361.953 238.538 361.319 238.929 360.929C239.319 360.538 239.953 360.538 240.343 360.929L246.707 367.293ZM176 352L175 352L176 352ZM177 169L177 170.989L175 170.989L175 169L177 169ZM177 174.967L177 178.946L175 178.946L175 174.967L177 174.967ZM177 182.924L177 186.902L175 186.902L175 182.924L177 182.924ZM177 190.88L177 194.859L175 194.859L175 190.88L177 190.88ZM177 198.837L177 202.815L175 202.815L175 198.837L177 198.837ZM177 206.793L177 210.772L175 210.772L175 206.793L177 206.793ZM177 214.75L177 218.728L175 218.728L175 214.75L177 214.75ZM177 222.707L177 226.685L175 226.685L175 222.707L177 222.707ZM177 230.663L177 234.641L175 234.641L175 230.663L177 230.663ZM177 238.62L177 242.598L175 242.598L175 238.62L177 238.62ZM177 246.576L177 250.554L175 250.554L175 246.576L177 246.576ZM177 254.533L177 258.511L175 258.511L175 254.533L177 254.533ZM177 262.489L177 266.467L175 266.467L175 262.489L177 262.489ZM177 270.446L177 274.424L175 274.424L175 270.446L177 270.446ZM177 278.402L177 282.38L175 282.38L175 278.402L177 278.402ZM177 286.359L177 290.337L175 290.337L175 286.359L177 286.359ZM177 294.315L177 298.294L175 298.294L175 294.315L177 294.315ZM177 302.272L177 306.25L175 306.25L175 302.272L177 302.272ZM177 310.228L177 314.207L175 314.207L175 310.228L177 310.228ZM177 318.185L177 322.163L175 322.163L175 318.185L177 318.185ZM177 326.141L177 330.12L175 330.12L175 326.141L177 326.141ZM177 334.098L177 338.076L175 338.076L175 334.098L177 334.098ZM177 342.054L177 346.033L175 346.033L175 342.054L177 342.054ZM177 350.011L177 352L175 352L175 350.011L177 350.011ZM177 352C177 352.665 177.043 353.319 177.127 353.96L175.144 354.219C175.049 353.492 175 352.752 175 352L177 352ZM178.138 357.742C178.643 358.96 179.305 360.099 180.099 361.131L178.513 362.35C177.614 361.18 176.864 359.89 176.29 358.508L178.138 357.742ZM182.869 363.901C183.901 364.695 185.04 365.357 186.258 365.862L185.492 367.71C184.11 367.136 182.82 366.386 181.65 365.487L182.869 363.901ZM190.04 366.873C190.681 366.957 191.335 367 192 367L192 369C191.248 369 190.508 368.951 189.781 368.856L190.04 366.873ZM192 367L193.929 367L193.929 369L192 369L192 367ZM197.786 367L201.643 367L201.643 369L197.786 369L197.786 367ZM205.5 367L209.357 367L209.357 369L205.5 369L205.5 367ZM213.214 367L217.071 367L217.071 369L213.214 369L213.214 367ZM220.929 367L224.786 367L224.786 369L220.929 369L220.929 367ZM228.643 367L232.5 367L232.5 369L228.643 369L228.643 367ZM236.357 367L240.214 367L240.214 369L236.357 369L236.357 367ZM244.071 367L246 367L246 369L244.071 369L244.071 367ZM246.707 367.293C247.098 367.683 247.098 368.317 246.707 368.707L240.343 375.071C239.953 375.462 239.319 375.462 238.929 375.071C238.538 374.681 238.538 374.047 238.929 373.657L244.586 368L238.929 362.343C238.538 361.953 238.538 361.319 238.929 360.929C239.319 360.538 239.953 360.538 240.343 360.929L246.707 367.293ZM176 352L175 352L176 352ZM177 169L177 170.989L175 170.989L175 169L177 169ZM177 174.967L177 178.946L175 178.946L175 174.967L177 174.967ZM177 182.924L177 186.902L175 186.902L175 182.924L177 182.924ZM177 190.88L177 194.859L175 194.859L175 190.88L177 190.88ZM177 198.837L177 202.815L175 202.815L175 198.837L177 198.837ZM177 206.793L177 210.772L175 210.772L175 206.793L177 206.793ZM177 214.75L177 218.728L175 218.728L175 214.75L177 214.75ZM177 222.707L177 226.685L175 226.685L175 222.707L177 222.707ZM177 230.663L177 234.641L175 234.641L175 230.663L177 230.663ZM177 238.62L177 242.598L175 242.598L175 238.62L177 238.62ZM177 246.576L177 250.554L175 250.554L175 246.576L177 246.576ZM177 254.533L177 258.511L175 258.511L175 254.533L177 254.533ZM177 262.489L177 266.467L175 266.467L175 262.489L177 262.489ZM177 270.446L177 274.424L175 274.424L175 270.446L177 270.446ZM177 278.402L177 282.38L175 282.38L175 278.402L177 278.402ZM177 286.359L177 290.337L175 290.337L175 286.359L177 286.359ZM177 294.315L177 298.294L175 298.294L175 294.315L177 294.315ZM177 302.272L177 306.25L175 306.25L175 302.272L177 302.272ZM177 310.228L177 314.207L175 314.207L175 310.228L177 310.228ZM177 318.185L177 322.163L175 322.163L175 318.185L177 318.185ZM177 326.141L177 330.12L175 330.12L175 326.141L177 326.141ZM177 334.098L177 338.076L175 338.076L175 334.098L177 334.098ZM177 342.054L177 346.033L175 346.033L175 342.054L177 342.054ZM177 350.011L177 352L175 352L175 350.011L177 350.011ZM177 352C177 352.665 177.043 353.319 177.127 353.96L175.144 354.219C175.049 353.492 175 352.752 175 352L177 352ZM178.138 357.742C178.643 358.96 179.305 360.099 180.099 361.131L178.513 362.35C177.614 361.18 176.864 359.89 176.29 358.508L178.138 357.742ZM182.869 363.901C183.901 364.695 185.04 365.357 186.258 365.862L185.492 367.71C184.11 367.136 182.82 366.386 181.65 365.487L182.869 363.901ZM190.04 366.873C190.681 366.957 191.335 367 192 367L192 369C191.248 369 190.508 368.951 189.781 368.856L190.04 366.873ZM192 367L193.929 367L193.929 369L192 369L192 367ZM197.786 367L201.643 367L201.643 369L197.786 369L197.786 367ZM205.5 367L209.357 367L209.357 369L205.5 369L205.5 367ZM213.214 367L217.071 367L217.071 369L213.214 369L213.214 367ZM220.929 367L224.786 367L224.786 369L220.929 369L220.929 367ZM228.643 367L232.5 367L232.5 369L228.643 369L228.643 367ZM236.357 367L240.214 367L240.214 369L236.357 369L236.357 367ZM244.071 367L246 367L246 369L244.071 369L244.071 367Z" fill="white"/>
<path d="M448.293 367.293C447.902 367.683 447.902 368.317 448.293 368.707L454.657 375.071C455.047 375.462 455.681 375.462 456.071 375.071C456.462 374.681 456.462 374.047 456.071 373.657L450.414 368L456.071 362.343C456.462 361.953 456.462 361.319 456.071 360.929C455.681 360.538 455.047 360.538 454.657 360.929L448.293 367.293ZM519 352L520 352L519 352ZM518 169L518 170.989L520 170.989L520 169L518 169ZM518 174.967L518 178.946L520 178.946L520 174.967L518 174.967ZM518 182.924L518 186.902L520 186.902L520 182.924L518 182.924ZM518 190.88L518 194.859L520 194.859L520 190.88L518 190.88ZM518 198.837L518 202.815L520 202.815L520 198.837L518 198.837ZM518 206.793L518 210.772L520 210.772L520 206.793L518 206.793ZM518 214.75L518 218.728L520 218.728L520 214.75L518 214.75ZM518 222.707L518 226.685L520 226.685L520 222.707L518 222.707ZM518 230.663L518 234.641L520 234.641L520 230.663L518 230.663ZM518 238.62L518 242.598L520 242.598L520 238.62L518 238.62ZM518 246.576L518 250.554L520 250.554L520 246.576L518 246.576ZM518 254.533L518 258.511L520 258.511L520 254.533L518 254.533ZM518 262.489L518 266.467L520 266.467L520 262.489L518 262.489ZM518 270.446L518 274.424L520 274.424L520 270.446L518 270.446ZM518 278.402L518 282.38L520 282.38L520 278.402L518 278.402ZM518 286.359L518 290.337L520 290.337L520 286.359L518 286.359ZM518 294.315L518 298.294L520 298.294L520 294.315L518 294.315ZM518 302.272L518 306.25L520 306.25L520 302.272L518 302.272ZM518 310.228L518 314.207L520 314.207L520 310.228L518 310.228ZM518 318.185L518 322.163L520 322.163L520 318.185L518 318.185ZM518 326.141L518 330.12L520 330.12L520 326.141L518 326.141ZM518 334.098L518 338.076L520 338.076L520 334.098L518 334.098ZM518 342.054L518 346.033L520 346.033L520 342.054L518 342.054ZM518 350.011L518 352L520 352L520 350.011L518 350.011ZM518 352C518 352.665 517.957 353.319 517.873 353.96L519.856 354.219C519.951 353.492 520 352.752 520 352L518 352ZM516.862 357.742C516.357 358.96 515.695 360.099 514.901 361.131L516.487 362.35C517.386 361.18 518.136 359.89 518.71 358.508L516.862 357.742ZM512.131 363.901C511.099 364.695 509.96 365.357 508.742 365.862L509.508 367.71C510.89 367.136 512.18 366.386 513.35 365.487L512.131 363.901ZM504.96 366.873C504.319 366.957 503.665 367 503 367L503 369C503.752 369 504.492 368.951 505.219 368.856L504.96 366.873ZM503 367L501.071 367L501.071 369L503 369L503 367ZM497.214 367L493.357 367L493.357 369L497.214 369L497.214 367ZM489.5 367L485.643 367L485.643 369L489.5 369L489.5 367ZM481.786 367L477.929 367L477.929 369L481.786 369L481.786 367ZM474.071 367L470.214 367L470.214 369L474.071 369L474.071 367ZM466.357 367L462.5 367L462.5 369L466.357 369L466.357 367ZM458.643 367L454.786 367L454.786 369L458.643 369L458.643 367ZM450.929 367L449 367L449 369L450.929 369L450.929 367ZM448.293 367.293C447.902 367.683 447.902 368.317 448.293 368.707L454.657 375.071C455.047 375.462 455.681 375.462 456.071 375.071C456.462 374.681 456.462 374.047 456.071 373.657L450.414 368L456.071 362.343C456.462 361.953 456.462 361.319 456.071 360.929C455.681 360.538 455.047 360.538 454.657 360.929L448.293 367.293ZM519 352L520 352L519 352ZM518 169L518 170.989L520 170.989L520 169L518 169ZM518 174.967L518 178.946L520 178.946L520 174.967L518 174.967ZM518 182.924L518 186.902L520 186.902L520 182.924L518 182.924ZM518 190.88L518 194.859L520 194.859L520 190.88L518 190.88ZM518 198.837L518 202.815L520 202.815L520 198.837L518 198.837ZM518 206.793L518 210.772L520 210.772L520 206.793L518 206.793ZM518 214.75L518 218.728L520 218.728L520 214.75L518 214.75ZM518 222.707L518 226.685L520 226.685L520 222.707L518 222.707ZM518 230.663L518 234.641L520 234.641L520 230.663L518 230.663ZM518 238.62L518 242.598L520 242.598L520 238.62L518 238.62ZM518 246.576L518 250.554L520 250.554L520 246.576L518 246.576ZM518 254.533L518 258.511L520 258.511L520 254.533L518 254.533ZM518 262.489L518 266.467L520 266.467L520 262.489L518 262.489ZM518 270.446L518 274.424L520 274.424L520 270.446L518 270.446ZM518 278.402L518 282.38L520 282.38L520 278.402L518 278.402ZM518 286.359L518 290.337L520 290.337L520 286.359L518 286.359ZM518 294.315L518 298.294L520 298.294L520 294.315L518 294.315ZM518 302.272L518 306.25L520 306.25L520 302.272L518 302.272ZM518 310.228L518 314.207L520 314.207L520 310.228L518 310.228ZM518 318.185L518 322.163L520 322.163L520 318.185L518 318.185ZM518 326.141L518 330.12L520 330.12L520 326.141L518 326.141ZM518 334.098L518 338.076L520 338.076L520 334.098L518 334.098ZM518 342.054L518 346.033L520 346.033L520 342.054L518 342.054ZM518 350.011L518 352L520 352L520 350.011L518 350.011ZM518 352C518 352.665 517.957 353.319 517.873 353.96L519.856 354.219C519.951 353.492 520 352.752 520 352L518 352ZM516.862 357.742C516.357 358.96 515.695 360.099 514.901 361.131L516.487 362.35C517.386 361.18 518.136 359.89 518.71 358.508L516.862 357.742ZM512.131 363.901C511.099 364.695 509.96 365.357 508.742 365.862L509.508 367.71C510.89 367.136 512.18 366.386 513.35 365.487L512.131 363.901ZM504.96 366.873C504.319 366.957 503.665 367 503 367L503 369C503.752 369 504.492 368.951 505.219 368.856L504.96 366.873ZM503 367L501.071 367L501.071 369L503 369L503 367ZM497.214 367L493.357 367L493.357 369L497.214 369L497.214 367ZM489.5 367L485.643 367L485.643 369L489.5 369L489.5 367ZM481.786 367L477.929 367L477.929 369L481.786 369L481.786 367ZM474.071 367L470.214 367L470.214 369L474.071 369L474.071 367ZM466.357 367L462.5 367L462.5 369L466.357 369L466.357 367ZM458.643 367L454.786 367L454.786 369L458.643 369L458.643 367ZM450.929 367L449 367L449 369L450.929 369L450.929 367Z" fill="white"/>
<rect x="281" y="322" width="133" height="96" rx="12" fill="white"/>
<path d="M335.759 344.261C336.191 344.261 336.542 343.91 336.542 343.478C336.542 343.046 336.191 342.695 335.759 342.695C335.327 342.695 334.977 343.046 334.977 343.478C334.977 343.91 335.327 344.261 335.759 344.261Z" fill="#009900"/>
<path d="M342.017 344.261C342.449 344.261 342.8 343.91 342.8 343.478C342.8 343.046 342.449 342.695 342.017 342.695C341.585 342.695 341.234 343.046 341.234 343.478C341.234 343.91 341.585 344.261 342.017 344.261Z" fill="#009900"/>
<path d="M363.152 338H331.848C331.225 338.001 330.629 338.248 330.188 338.688C329.748 339.129 329.501 339.725 329.5 340.348V346.609C329.501 347.231 329.748 347.828 330.188 348.268C330.629 348.708 331.225 348.956 331.848 348.956H363.152C363.774 348.956 364.371 348.708 364.811 348.268C365.251 347.828 365.499 347.231 365.499 346.609V340.348C365.499 339.725 365.251 339.129 364.811 338.688C364.371 338.248 363.774 338.001 363.152 338ZM335.761 345.826C335.296 345.826 334.842 345.688 334.456 345.43C334.07 345.172 333.769 344.806 333.592 344.377C333.414 343.948 333.367 343.476 333.458 343.02C333.549 342.565 333.772 342.146 334.101 341.818C334.429 341.49 334.847 341.266 335.303 341.175C335.758 341.085 336.23 341.131 336.659 341.309C337.088 341.487 337.455 341.788 337.713 342.174C337.971 342.56 338.109 343.014 338.109 343.478C338.108 344.101 337.86 344.697 337.42 345.138C336.98 345.578 336.383 345.825 335.761 345.826ZM342.022 345.826C341.557 345.826 341.103 345.688 340.717 345.43C340.331 345.172 340.03 344.806 339.852 344.377C339.675 343.948 339.628 343.476 339.719 343.02C339.809 342.565 340.033 342.146 340.361 341.818C340.69 341.49 341.108 341.266 341.563 341.175C342.019 341.085 342.491 341.131 342.92 341.309C343.349 341.487 343.716 341.788 343.974 342.174C344.232 342.56 344.369 343.014 344.369 343.478C344.369 344.101 344.121 344.697 343.681 345.138C343.241 345.578 342.644 345.825 342.022 345.826Z" fill="#009900"/>
<path d="M342.017 356.782C342.449 356.782 342.8 356.432 342.8 355.999C342.8 355.567 342.449 355.217 342.017 355.217C341.585 355.217 341.234 355.567 341.234 355.999C341.234 356.432 341.585 356.782 342.017 356.782Z" fill="#009900"/>
<path d="M335.759 356.782C336.191 356.782 336.542 356.432 336.542 355.999C336.542 355.567 336.191 355.217 335.759 355.217C335.327 355.217 334.977 355.567 334.977 355.999C334.977 356.432 335.327 356.782 335.759 356.782Z" fill="#009900"/>
<path d="M363.152 350.521H331.848C331.225 350.522 330.629 350.77 330.188 351.21C329.748 351.65 329.501 352.247 329.5 352.869V359.13C329.501 359.752 329.748 360.349 330.188 360.789C330.629 361.23 331.225 361.477 331.848 361.478H363.152C363.774 361.477 364.371 361.23 364.811 360.789C365.251 360.349 365.499 359.752 365.499 359.13V352.869C365.499 352.247 365.251 351.65 364.811 351.21C364.371 350.77 363.774 350.522 363.152 350.521ZM335.761 358.347C335.296 358.347 334.842 358.21 334.456 357.952C334.07 357.694 333.769 357.327 333.592 356.898C333.414 356.469 333.367 355.997 333.458 355.542C333.549 355.086 333.772 354.668 334.101 354.34C334.429 354.011 334.847 353.788 335.303 353.697C335.758 353.606 336.23 353.653 336.659 353.831C337.088 354.008 337.455 354.309 337.713 354.695C337.971 355.081 338.109 355.535 338.109 356C338.108 356.622 337.86 357.219 337.42 357.659C336.98 358.099 336.383 358.347 335.761 358.347ZM342.022 358.347C341.557 358.347 341.103 358.21 340.717 357.952C340.331 357.694 340.03 357.327 339.852 356.898C339.675 356.469 339.628 355.997 339.719 355.542C339.809 355.086 340.033 354.668 340.361 354.34C340.69 354.011 341.108 353.788 341.563 353.697C342.019 353.606 342.491 353.653 342.92 353.831C343.349 354.008 343.716 354.309 343.974 354.695C344.232 355.081 344.369 355.535 344.369 356C344.369 356.622 344.121 357.219 343.681 357.659C343.241 358.099 342.644 358.347 342.022 358.347Z" fill="#009900"/>
<path d="M335.759 369.304C336.191 369.304 336.542 368.954 336.542 368.522C336.542 368.09 336.191 367.739 335.759 367.739C335.327 367.739 334.977 368.09 334.977 368.522C334.977 368.954 335.327 369.304 335.759 369.304Z" fill="#009900"/>
<path d="M342.017 369.304C342.449 369.304 342.8 368.954 342.8 368.522C342.8 368.09 342.449 367.739 342.017 367.739C341.585 367.739 341.234 368.09 341.234 368.522C341.234 368.954 341.585 369.304 342.017 369.304Z" fill="#009900"/>
<path d="M363.152 363.043H331.848C331.225 363.044 330.629 363.291 330.188 363.731C329.748 364.172 329.501 364.768 329.5 365.391V371.652C329.501 372.274 329.748 372.871 330.188 373.311C330.629 373.751 331.225 373.999 331.848 373.999H363.152C363.774 373.999 364.371 373.751 364.811 373.311C365.251 372.871 365.499 372.274 365.499 371.652V365.391C365.499 364.768 365.251 364.172 364.811 363.731C364.371 363.291 363.774 363.044 363.152 363.043ZM335.761 370.869C335.296 370.869 334.842 370.731 334.456 370.473C334.07 370.215 333.769 369.849 333.592 369.42C333.414 368.991 333.367 368.519 333.458 368.063C333.549 367.608 333.772 367.189 334.101 366.861C334.429 366.533 334.847 366.309 335.303 366.218C335.758 366.128 336.23 366.174 336.659 366.352C337.088 366.53 337.455 366.831 337.713 367.217C337.971 367.603 338.109 368.057 338.109 368.521C338.108 369.144 337.86 369.74 337.42 370.181C336.98 370.621 336.383 370.868 335.761 370.869ZM342.022 370.869C341.557 370.869 341.103 370.731 340.717 370.473C340.331 370.215 340.03 369.849 339.852 369.42C339.675 368.991 339.628 368.519 339.719 368.063C339.809 367.608 340.033 367.189 340.361 366.861C340.69 366.533 341.108 366.309 341.563 366.218C342.019 366.128 342.491 366.174 342.92 366.352C343.349 366.53 343.716 366.831 343.974 367.217C344.232 367.603 344.369 368.057 344.369 368.521C344.369 369.144 344.121 369.74 343.681 370.181C343.241 370.621 342.644 370.868 342.022 370.869Z" fill="#009900"/>
<path d="M304.255 397.112C303.989 397.112 303.781 397.037 303.631 396.888C303.493 396.739 303.423 396.531 303.423 396.264V387.112H300.031C299.807 387.112 299.631 387.053 299.503 386.936C299.375 386.808 299.311 386.632 299.311 386.408C299.311 386.184 299.375 386.013 299.503 385.896C299.631 385.779 299.807 385.72 300.031 385.72H308.463C308.698 385.72 308.879 385.779 309.007 385.896C309.135 386.013 309.199 386.184 309.199 386.408C309.199 386.632 309.135 386.808 309.007 386.936C308.879 387.053 308.698 387.112 308.463 387.112H305.071V396.264C305.071 396.531 305.002 396.739 304.863 396.888C304.735 397.037 304.533 397.112 304.255 397.112ZM309.858 397.112C309.592 397.112 309.389 397.043 309.25 396.904C309.112 396.755 309.042 396.552 309.042 396.296V389.896C309.042 389.629 309.112 389.427 309.25 389.288C309.389 389.149 309.581 389.08 309.826 389.08C310.082 389.08 310.274 389.149 310.402 389.288C310.541 389.427 310.61 389.629 310.61 389.896V391.064H310.45C310.621 390.424 310.936 389.939 311.394 389.608C311.853 389.277 312.44 389.085 313.154 389.032C313.346 389.021 313.496 389.069 313.602 389.176C313.72 389.283 313.784 389.448 313.794 389.672C313.816 389.896 313.768 390.077 313.65 390.216C313.533 390.344 313.352 390.419 313.106 390.44L312.802 390.472C312.109 390.536 311.581 390.755 311.218 391.128C310.856 391.501 310.674 392.013 310.674 392.664V396.296C310.674 396.552 310.605 396.755 310.466 396.904C310.338 397.043 310.136 397.112 309.858 397.112ZM317.429 397.144C316.885 397.144 316.394 397.037 315.957 396.824C315.53 396.611 315.194 396.323 314.949 395.96C314.704 395.597 314.581 395.187 314.581 394.728C314.581 394.152 314.725 393.699 315.013 393.368C315.312 393.027 315.797 392.787 316.469 392.648C317.152 392.499 318.069 392.424 319.221 392.424H319.973V393.416H319.237C318.469 393.416 317.861 393.453 317.413 393.528C316.965 393.603 316.645 393.731 316.453 393.912C316.272 394.083 316.181 394.323 316.181 394.632C316.181 395.037 316.32 395.368 316.597 395.624C316.874 395.869 317.258 395.992 317.749 395.992C318.144 395.992 318.49 395.901 318.789 395.72C319.088 395.528 319.322 395.272 319.493 394.952C319.674 394.632 319.765 394.264 319.765 393.848V392.008C319.765 391.4 319.637 390.963 319.381 390.696C319.125 390.429 318.704 390.296 318.117 390.296C317.776 390.296 317.418 390.339 317.045 390.424C316.682 390.509 316.304 390.653 315.909 390.856C315.728 390.941 315.573 390.968 315.445 390.936C315.317 390.904 315.216 390.835 315.141 390.728C315.066 390.611 315.024 390.488 315.013 390.36C315.013 390.221 315.045 390.088 315.109 389.96C315.184 389.832 315.306 389.736 315.477 389.672C315.946 389.448 316.41 389.288 316.869 389.192C317.328 389.096 317.76 389.048 318.165 389.048C318.88 389.048 319.466 389.16 319.925 389.384C320.394 389.608 320.741 389.949 320.965 390.408C321.189 390.867 321.301 391.459 321.301 392.184V396.296C321.301 396.552 321.237 396.755 321.109 396.904C320.981 397.043 320.794 397.112 320.549 397.112C320.314 397.112 320.128 397.043 319.989 396.904C319.85 396.755 319.781 396.552 319.781 396.296V395.256H319.925C319.84 395.651 319.68 395.992 319.445 396.28C319.221 396.557 318.938 396.771 318.597 396.92C318.256 397.069 317.866 397.144 317.429 397.144ZM326.503 397.144C325.82 397.144 325.217 396.984 324.695 396.664C324.183 396.333 323.783 395.864 323.495 395.256C323.207 394.637 323.063 393.917 323.063 393.096C323.063 392.253 323.207 391.533 323.495 390.936C323.783 390.339 324.183 389.875 324.695 389.544C325.217 389.213 325.82 389.048 326.503 389.048C327.185 389.048 327.772 389.219 328.263 389.56C328.764 389.891 329.1 390.339 329.271 390.904H329.095V386.424C329.095 386.157 329.164 385.955 329.303 385.816C329.441 385.677 329.639 385.608 329.895 385.608C330.151 385.608 330.348 385.677 330.487 385.816C330.636 385.955 330.711 386.157 330.711 386.424V396.296C330.711 396.552 330.641 396.755 330.503 396.904C330.364 397.043 330.167 397.112 329.911 397.112C329.655 397.112 329.457 397.043 329.319 396.904C329.18 396.755 329.111 396.552 329.111 396.296V394.888L329.287 395.24C329.116 395.816 328.78 396.28 328.279 396.632C327.788 396.973 327.196 397.144 326.503 397.144ZM326.919 395.896C327.356 395.896 327.74 395.789 328.071 395.576C328.401 395.363 328.657 395.048 328.839 394.632C329.031 394.216 329.127 393.704 329.127 393.096C329.127 392.179 328.924 391.485 328.519 391.016C328.113 390.547 327.58 390.312 326.919 390.312C326.471 390.312 326.081 390.419 325.751 390.632C325.42 390.835 325.159 391.144 324.967 391.56C324.785 391.976 324.695 392.488 324.695 393.096C324.695 394.003 324.897 394.696 325.303 395.176C325.708 395.656 326.247 395.896 326.919 395.896ZM333.78 397.096C333.524 397.096 333.326 397.021 333.188 396.872C333.049 396.712 332.98 396.493 332.98 396.216V389.976C332.98 389.699 333.049 389.485 333.188 389.336C333.326 389.187 333.524 389.112 333.78 389.112C334.036 389.112 334.233 389.187 334.372 389.336C334.521 389.485 334.596 389.699 334.596 389.976V396.216C334.596 396.493 334.526 396.712 334.388 396.872C334.249 397.021 334.046 397.096 333.78 397.096ZM333.78 387.448C333.46 387.448 333.209 387.368 333.028 387.208C332.857 387.048 332.772 386.824 332.772 386.536C332.772 386.237 332.857 386.013 333.028 385.864C333.209 385.704 333.46 385.624 333.78 385.624C334.1 385.624 334.345 385.704 334.516 385.864C334.697 386.013 334.788 386.237 334.788 386.536C334.788 386.824 334.697 387.048 334.516 387.208C334.345 387.368 334.1 387.448 333.78 387.448ZM340.198 397.144C339.558 397.144 339.02 397.032 338.582 396.808C338.145 396.584 337.82 396.253 337.606 395.816C337.393 395.379 337.286 394.845 337.286 394.216V390.44H336.326C336.113 390.44 335.948 390.387 335.83 390.28C335.713 390.163 335.654 390.008 335.654 389.816C335.654 389.613 335.713 389.459 335.83 389.352C335.948 389.245 336.113 389.192 336.326 389.192H337.286V387.544C337.286 387.277 337.356 387.075 337.494 386.936C337.644 386.797 337.846 386.728 338.102 386.728C338.358 386.728 338.556 386.797 338.694 386.936C338.833 387.075 338.902 387.277 338.902 387.544V389.192H340.774C340.988 389.192 341.153 389.245 341.27 389.352C341.388 389.459 341.446 389.613 341.446 389.816C341.446 390.008 341.388 390.163 341.27 390.28C341.153 390.387 340.988 390.44 340.774 390.44H338.902V394.088C338.902 394.653 339.02 395.08 339.254 395.368C339.5 395.656 339.894 395.8 340.438 395.8C340.63 395.8 340.796 395.784 340.934 395.752C341.084 395.709 341.206 395.683 341.302 395.672C341.42 395.672 341.516 395.715 341.59 395.8C341.665 395.875 341.702 396.024 341.702 396.248C341.702 396.408 341.67 396.557 341.606 396.696C341.553 396.835 341.452 396.925 341.302 396.968C341.174 397.011 340.998 397.048 340.774 397.08C340.561 397.123 340.369 397.144 340.198 397.144ZM343.655 397.096C343.399 397.096 343.201 397.021 343.063 396.872C342.924 396.712 342.855 396.493 342.855 396.216V389.976C342.855 389.699 342.924 389.485 343.063 389.336C343.201 389.187 343.399 389.112 343.655 389.112C343.911 389.112 344.108 389.187 344.247 389.336C344.396 389.485 344.471 389.699 344.471 389.976V396.216C344.471 396.493 344.401 396.712 344.263 396.872C344.124 397.021 343.921 397.096 343.655 397.096ZM343.655 387.448C343.335 387.448 343.084 387.368 342.903 387.208C342.732 387.048 342.647 386.824 342.647 386.536C342.647 386.237 342.732 386.013 342.903 385.864C343.084 385.704 343.335 385.624 343.655 385.624C343.975 385.624 344.22 385.704 344.391 385.864C344.572 386.013 344.663 386.237 344.663 386.536C344.663 386.824 344.572 387.048 344.391 387.208C344.22 387.368 343.975 387.448 343.655 387.448ZM350.137 397.144C349.348 397.144 348.665 396.979 348.089 396.648C347.524 396.317 347.081 395.848 346.761 395.24C346.441 394.632 346.281 393.917 346.281 393.096C346.281 392.467 346.372 391.907 346.553 391.416C346.735 390.925 346.991 390.504 347.321 390.152C347.663 389.789 348.068 389.517 348.537 389.336C349.017 389.144 349.551 389.048 350.137 389.048C350.916 389.048 351.588 389.213 352.153 389.544C352.729 389.875 353.177 390.344 353.497 390.952C353.817 391.549 353.977 392.264 353.977 393.096C353.977 393.715 353.887 394.275 353.705 394.776C353.524 395.277 353.263 395.704 352.921 396.056C352.591 396.408 352.185 396.68 351.705 396.872C351.236 397.053 350.713 397.144 350.137 397.144ZM350.137 395.896C350.575 395.896 350.959 395.789 351.289 395.576C351.62 395.363 351.876 395.048 352.057 394.632C352.249 394.216 352.345 393.704 352.345 393.096C352.345 392.179 352.143 391.485 351.737 391.016C351.332 390.547 350.799 390.312 350.137 390.312C349.689 390.312 349.3 390.419 348.969 390.632C348.639 390.835 348.377 391.144 348.185 391.56C348.004 391.976 347.913 392.488 347.913 393.096C347.913 394.003 348.116 394.696 348.521 395.176C348.927 395.656 349.465 395.896 350.137 395.896ZM356.592 397.112C356.336 397.112 356.139 397.043 356 396.904C355.862 396.755 355.792 396.552 355.792 396.296V389.896C355.792 389.629 355.862 389.427 356 389.288C356.139 389.149 356.331 389.08 356.576 389.08C356.832 389.08 357.024 389.149 357.152 389.288C357.291 389.427 357.36 389.629 357.36 389.896V391.144L357.184 390.856C357.419 390.259 357.787 389.811 358.288 389.512C358.79 389.203 359.366 389.048 360.016 389.048C360.635 389.048 361.147 389.165 361.552 389.4C361.968 389.624 362.278 389.971 362.48 390.44C362.683 390.899 362.784 391.48 362.784 392.184V396.296C362.784 396.552 362.715 396.755 362.576 396.904C362.438 397.043 362.24 397.112 361.984 397.112C361.718 397.112 361.515 397.043 361.376 396.904C361.238 396.755 361.168 396.552 361.168 396.296V392.28C361.168 391.608 361.035 391.117 360.768 390.808C360.512 390.499 360.107 390.344 359.552 390.344C358.902 390.344 358.379 390.547 357.984 390.952C357.6 391.357 357.408 391.901 357.408 392.584V396.296C357.408 396.84 357.136 397.112 356.592 397.112ZM367.507 397.144C366.963 397.144 366.472 397.037 366.035 396.824C365.608 396.611 365.272 396.323 365.027 395.96C364.782 395.597 364.659 395.187 364.659 394.728C364.659 394.152 364.803 393.699 365.091 393.368C365.39 393.027 365.875 392.787 366.547 392.648C367.23 392.499 368.147 392.424 369.299 392.424H370.051V393.416H369.315C368.547 393.416 367.939 393.453 367.491 393.528C367.043 393.603 366.723 393.731 366.531 393.912C366.35 394.083 366.259 394.323 366.259 394.632C366.259 395.037 366.398 395.368 366.675 395.624C366.952 395.869 367.336 395.992 367.827 395.992C368.222 395.992 368.568 395.901 368.867 395.72C369.166 395.528 369.4 395.272 369.571 394.952C369.752 394.632 369.843 394.264 369.843 393.848V392.008C369.843 391.4 369.715 390.963 369.459 390.696C369.203 390.429 368.782 390.296 368.195 390.296C367.854 390.296 367.496 390.339 367.123 390.424C366.76 390.509 366.382 390.653 365.987 390.856C365.806 390.941 365.651 390.968 365.523 390.936C365.395 390.904 365.294 390.835 365.219 390.728C365.144 390.611 365.102 390.488 365.091 390.36C365.091 390.221 365.123 390.088 365.187 389.96C365.262 389.832 365.384 389.736 365.555 389.672C366.024 389.448 366.488 389.288 366.947 389.192C367.406 389.096 367.838 389.048 368.243 389.048C368.958 389.048 369.544 389.16 370.003 389.384C370.472 389.608 370.819 389.949 371.043 390.408C371.267 390.867 371.379 391.459 371.379 392.184V396.296C371.379 396.552 371.315 396.755 371.187 396.904C371.059 397.043 370.872 397.112 370.627 397.112C370.392 397.112 370.206 397.043 370.067 396.904C369.928 396.755 369.859 396.552 369.859 396.296V395.256H370.003C369.918 395.651 369.758 395.992 369.523 396.28C369.299 396.557 369.016 396.771 368.675 396.92C368.334 397.069 367.944 397.144 367.507 397.144ZM376.117 397.144C375.285 397.144 374.655 396.904 374.229 396.424C373.813 395.933 373.605 395.229 373.605 394.312V386.424C373.605 386.157 373.674 385.955 373.813 385.816C373.951 385.677 374.149 385.608 374.405 385.608C374.661 385.608 374.858 385.677 374.997 385.816C375.146 385.955 375.221 386.157 375.221 386.424V394.216C375.221 394.749 375.327 395.149 375.541 395.416C375.765 395.672 376.085 395.8 376.501 395.8C376.597 395.8 376.682 395.8 376.757 395.8C376.831 395.789 376.906 395.779 376.981 395.768C377.109 395.757 377.199 395.795 377.253 395.88C377.306 395.955 377.333 396.115 377.333 396.36C377.333 396.584 377.285 396.76 377.189 396.888C377.093 397.005 376.938 397.08 376.725 397.112C376.629 397.123 376.527 397.128 376.421 397.128C376.314 397.139 376.213 397.144 376.117 397.144ZM383.722 397.112C383.455 397.112 383.247 397.037 383.098 396.888C382.959 396.739 382.89 396.531 382.89 396.264V386.456C382.89 386.179 382.959 385.971 383.098 385.832C383.247 385.683 383.455 385.608 383.722 385.608C383.989 385.608 384.191 385.683 384.33 385.832C384.479 385.971 384.554 386.179 384.554 386.456V396.264C384.554 396.531 384.485 396.739 384.346 396.888C384.207 397.037 383.999 397.112 383.722 397.112ZM390.755 397.112C390.489 397.112 390.281 397.037 390.131 396.888C389.993 396.739 389.923 396.531 389.923 396.264V387.112H386.531C386.307 387.112 386.131 387.053 386.003 386.936C385.875 386.808 385.811 386.632 385.811 386.408C385.811 386.184 385.875 386.013 386.003 385.896C386.131 385.779 386.307 385.72 386.531 385.72H394.963C395.198 385.72 395.379 385.779 395.507 385.896C395.635 386.013 395.699 386.184 395.699 386.408C395.699 386.632 395.635 386.808 395.507 386.936C395.379 387.053 395.198 387.112 394.963 387.112H391.571V396.264C391.571 396.531 391.502 396.739 391.363 396.888C391.235 397.037 391.033 397.112 390.755 397.112Z" fill="#212121"/>
<rect x="133" y="249" width="86" height="26" rx="13" fill="#212121"/>
<path d="M144.417 267L141.633 256.818H142.886L145.014 265.111H145.113L147.281 256.818H148.673L150.841 265.111H150.94L153.068 256.818H154.321L151.537 267H150.264L148.017 258.886H147.937L145.69 267H144.417ZM158.089 267.159C157.4 267.159 156.795 266.995 156.275 266.667C155.758 266.339 155.353 265.88 155.062 265.29C154.773 264.7 154.629 264.01 154.629 263.222C154.629 262.426 154.773 261.732 155.062 261.138C155.353 260.545 155.758 260.085 156.275 259.756C156.795 259.428 157.4 259.264 158.089 259.264C158.779 259.264 159.382 259.428 159.899 259.756C160.419 260.085 160.824 260.545 161.112 261.138C161.404 261.732 161.549 262.426 161.549 263.222C161.549 264.01 161.404 264.7 161.112 265.29C160.824 265.88 160.419 266.339 159.899 266.667C159.382 266.995 158.779 267.159 158.089 267.159ZM158.089 266.105C158.613 266.105 159.044 265.971 159.382 265.702C159.72 265.434 159.97 265.081 160.133 264.643C160.295 264.206 160.376 263.732 160.376 263.222C160.376 262.711 160.295 262.236 160.133 261.795C159.97 261.354 159.72 260.998 159.382 260.726C159.044 260.454 158.613 260.318 158.089 260.318C157.566 260.318 157.135 260.454 156.797 260.726C156.459 260.998 156.208 261.354 156.046 261.795C155.883 262.236 155.802 262.711 155.802 263.222C155.802 263.732 155.883 264.206 156.046 264.643C156.208 265.081 156.459 265.434 156.797 265.702C157.135 265.971 157.566 266.105 158.089 266.105ZM163.34 267V259.364H164.474V260.517H164.554C164.693 260.139 164.945 259.833 165.309 259.597C165.674 259.362 166.085 259.244 166.542 259.244C166.628 259.244 166.736 259.246 166.865 259.249C166.995 259.253 167.092 259.258 167.159 259.264V260.457C167.119 260.447 167.028 260.433 166.885 260.413C166.746 260.389 166.599 260.378 166.443 260.378C166.072 260.378 165.74 260.456 165.448 260.612C165.16 260.764 164.931 260.976 164.762 261.248C164.597 261.516 164.514 261.823 164.514 262.168V267H163.34ZM169.643 264.216L169.623 262.764H169.862L173.203 259.364H174.655L171.095 262.963H170.995L169.643 264.216ZM168.549 267V256.818H169.723V267H168.549ZM173.402 267L170.419 263.222L171.254 262.406L174.893 267H173.402ZM177.338 256.818V267H176.165V256.818H177.338ZM182.589 267.159C181.9 267.159 181.295 266.995 180.775 266.667C180.258 266.339 179.853 265.88 179.562 265.29C179.273 264.7 179.129 264.01 179.129 263.222C179.129 262.426 179.273 261.732 179.562 261.138C179.853 260.545 180.258 260.085 180.775 259.756C181.295 259.428 181.9 259.264 182.589 259.264C183.279 259.264 183.882 259.428 184.399 259.756C184.919 260.085 185.324 260.545 185.612 261.138C185.904 261.732 186.049 262.426 186.049 263.222C186.049 264.01 185.904 264.7 185.612 265.29C185.324 265.88 184.919 266.339 184.399 266.667C183.882 266.995 183.279 267.159 182.589 267.159ZM182.589 266.105C183.113 266.105 183.544 265.971 183.882 265.702C184.22 265.434 184.47 265.081 184.633 264.643C184.795 264.206 184.876 263.732 184.876 263.222C184.876 262.711 184.795 262.236 184.633 261.795C184.47 261.354 184.22 260.998 183.882 260.726C183.544 260.454 183.113 260.318 182.589 260.318C182.066 260.318 181.635 260.454 181.297 260.726C180.959 260.998 180.708 261.354 180.546 261.795C180.383 262.236 180.302 262.711 180.302 263.222C180.302 263.732 180.383 264.206 180.546 264.643C180.708 265.081 180.959 265.434 181.297 265.702C181.635 265.971 182.066 266.105 182.589 266.105ZM190.088 267.179C189.604 267.179 189.165 267.088 188.77 266.906C188.376 266.72 188.063 266.453 187.831 266.105C187.599 265.754 187.483 265.33 187.483 264.832C187.483 264.395 187.569 264.04 187.741 263.768C187.913 263.493 188.144 263.278 188.432 263.122C188.72 262.966 189.039 262.85 189.387 262.774C189.738 262.695 190.091 262.632 190.446 262.585C190.91 262.526 191.286 262.481 191.574 262.451C191.866 262.418 192.078 262.363 192.21 262.287C192.346 262.211 192.414 262.078 192.414 261.889V261.849C192.414 261.359 192.28 260.978 192.012 260.706C191.746 260.434 191.344 260.298 190.804 260.298C190.243 260.298 189.804 260.421 189.486 260.666C189.168 260.911 188.944 261.173 188.815 261.452L187.701 261.054C187.9 260.59 188.165 260.229 188.497 259.97C188.831 259.708 189.196 259.526 189.59 259.423C189.988 259.317 190.379 259.264 190.764 259.264C191.009 259.264 191.291 259.294 191.609 259.354C191.93 259.41 192.24 259.528 192.539 259.707C192.84 259.886 193.09 260.156 193.289 260.517C193.488 260.878 193.588 261.362 193.588 261.969V267H192.414V265.966H192.355C192.275 266.132 192.143 266.309 191.957 266.498C191.771 266.687 191.524 266.848 191.216 266.98C190.908 267.113 190.532 267.179 190.088 267.179ZM190.267 266.125C190.731 266.125 191.122 266.034 191.44 265.852C191.761 265.669 192.003 265.434 192.166 265.146C192.331 264.857 192.414 264.554 192.414 264.236V263.162C192.365 263.222 192.255 263.276 192.086 263.326C191.92 263.372 191.728 263.414 191.509 263.45C191.294 263.483 191.084 263.513 190.878 263.54C190.676 263.563 190.512 263.583 190.386 263.599C190.081 263.639 189.796 263.704 189.531 263.793C189.269 263.879 189.057 264.01 188.894 264.186C188.735 264.358 188.656 264.594 188.656 264.892C188.656 265.3 188.807 265.608 189.108 265.817C189.413 266.022 189.799 266.125 190.267 266.125ZM198.613 267.159C197.976 267.159 197.415 266.998 196.927 266.677C196.44 266.352 196.059 265.895 195.784 265.305C195.509 264.711 195.371 264.01 195.371 263.202C195.371 262.4 195.509 261.704 195.784 261.114C196.059 260.524 196.442 260.068 196.932 259.746C197.423 259.425 197.99 259.264 198.633 259.264C199.13 259.264 199.522 259.347 199.811 259.513C200.102 259.675 200.325 259.861 200.477 260.07C200.633 260.275 200.754 260.444 200.84 260.577H200.939V256.818H202.113V267H200.979V265.827H200.84C200.754 265.966 200.631 266.142 200.472 266.354C200.313 266.562 200.086 266.75 199.791 266.915C199.496 267.078 199.103 267.159 198.613 267.159ZM198.772 266.105C199.242 266.105 199.64 265.982 199.965 265.737C200.29 265.489 200.537 265.146 200.706 264.708C200.875 264.267 200.959 263.759 200.959 263.182C200.959 262.612 200.876 262.113 200.711 261.685C200.545 261.254 200.3 260.92 199.975 260.681C199.65 260.439 199.249 260.318 198.772 260.318C198.275 260.318 197.86 260.446 197.529 260.701C197.201 260.953 196.954 261.296 196.788 261.73C196.626 262.161 196.544 262.645 196.544 263.182C196.544 263.725 196.627 264.219 196.793 264.663C196.962 265.104 197.211 265.455 197.539 265.717C197.87 265.976 198.281 266.105 198.772 266.105ZM209.834 261.074L208.78 261.372C208.713 261.196 208.616 261.026 208.486 260.86C208.36 260.691 208.188 260.552 207.969 260.442C207.75 260.333 207.47 260.278 207.129 260.278C206.662 260.278 206.272 260.386 205.961 260.602C205.652 260.814 205.498 261.084 205.498 261.412C205.498 261.704 205.604 261.934 205.816 262.103C206.029 262.272 206.36 262.413 206.811 262.526L207.944 262.804C208.627 262.97 209.136 263.223 209.471 263.565C209.805 263.903 209.973 264.339 209.973 264.872C209.973 265.31 209.847 265.701 209.595 266.045C209.346 266.39 208.998 266.662 208.551 266.861C208.103 267.06 207.583 267.159 206.99 267.159C206.211 267.159 205.566 266.99 205.056 266.652C204.545 266.314 204.222 265.82 204.086 265.17L205.2 264.892C205.306 265.303 205.507 265.611 205.802 265.817C206.1 266.022 206.489 266.125 206.97 266.125C207.517 266.125 207.951 266.009 208.272 265.777C208.597 265.542 208.76 265.26 208.76 264.932C208.76 264.667 208.667 264.445 208.481 264.266C208.296 264.083 208.011 263.947 207.626 263.858L206.353 263.56C205.654 263.394 205.14 263.137 204.812 262.789C204.487 262.438 204.325 261.999 204.325 261.472C204.325 261.041 204.446 260.66 204.688 260.328C204.933 259.997 205.266 259.737 205.687 259.548C206.111 259.359 206.592 259.264 207.129 259.264C207.885 259.264 208.478 259.43 208.909 259.761C209.343 260.093 209.651 260.53 209.834 261.074Z" fill="white"/>
<rect x="476" y="249" width="86" height="26" rx="13" fill="#212121"/>
<path d="M487.417 267L484.633 256.818H485.886L488.014 265.111H488.113L490.281 256.818H491.673L493.841 265.111H493.94L496.068 256.818H497.321L494.537 267H493.264L491.017 258.886H490.937L488.69 267H487.417ZM501.089 267.159C500.4 267.159 499.795 266.995 499.275 266.667C498.758 266.339 498.353 265.88 498.062 265.29C497.773 264.7 497.629 264.01 497.629 263.222C497.629 262.426 497.773 261.732 498.062 261.138C498.353 260.545 498.758 260.085 499.275 259.756C499.795 259.428 500.4 259.264 501.089 259.264C501.779 259.264 502.382 259.428 502.899 259.756C503.419 260.085 503.824 260.545 504.112 261.138C504.404 261.732 504.549 262.426 504.549 263.222C504.549 264.01 504.404 264.7 504.112 265.29C503.824 265.88 503.419 266.339 502.899 266.667C502.382 266.995 501.779 267.159 501.089 267.159ZM501.089 266.105C501.613 266.105 502.044 265.971 502.382 265.702C502.72 265.434 502.97 265.081 503.133 264.643C503.295 264.206 503.376 263.732 503.376 263.222C503.376 262.711 503.295 262.236 503.133 261.795C502.97 261.354 502.72 260.998 502.382 260.726C502.044 260.454 501.613 260.318 501.089 260.318C500.566 260.318 500.135 260.454 499.797 260.726C499.459 260.998 499.208 261.354 499.046 261.795C498.883 262.236 498.802 262.711 498.802 263.222C498.802 263.732 498.883 264.206 499.046 264.643C499.208 265.081 499.459 265.434 499.797 265.702C500.135 265.971 500.566 266.105 501.089 266.105ZM506.34 267V259.364H507.474V260.517H507.554C507.693 260.139 507.945 259.833 508.309 259.597C508.674 259.362 509.085 259.244 509.542 259.244C509.628 259.244 509.736 259.246 509.865 259.249C509.995 259.253 510.092 259.258 510.159 259.264V260.457C510.119 260.447 510.028 260.433 509.885 260.413C509.746 260.389 509.599 260.378 509.443 260.378C509.072 260.378 508.74 260.456 508.448 260.612C508.16 260.764 507.931 260.976 507.762 261.248C507.597 261.516 507.514 261.823 507.514 262.168V267H506.34ZM512.643 264.216L512.623 262.764H512.862L516.203 259.364H517.655L514.095 262.963H513.995L512.643 264.216ZM511.549 267V256.818H512.723V267H511.549ZM516.402 267L513.419 263.222L514.254 262.406L517.893 267H516.402ZM520.338 256.818V267H519.165V256.818H520.338ZM525.589 267.159C524.9 267.159 524.295 266.995 523.775 266.667C523.258 266.339 522.853 265.88 522.562 265.29C522.273 264.7 522.129 264.01 522.129 263.222C522.129 262.426 522.273 261.732 522.562 261.138C522.853 260.545 523.258 260.085 523.775 259.756C524.295 259.428 524.9 259.264 525.589 259.264C526.279 259.264 526.882 259.428 527.399 259.756C527.919 260.085 528.324 260.545 528.612 261.138C528.904 261.732 529.049 262.426 529.049 263.222C529.049 264.01 528.904 264.7 528.612 265.29C528.324 265.88 527.919 266.339 527.399 266.667C526.882 266.995 526.279 267.159 525.589 267.159ZM525.589 266.105C526.113 266.105 526.544 265.971 526.882 265.702C527.22 265.434 527.47 265.081 527.633 264.643C527.795 264.206 527.876 263.732 527.876 263.222C527.876 262.711 527.795 262.236 527.633 261.795C527.47 261.354 527.22 260.998 526.882 260.726C526.544 260.454 526.113 260.318 525.589 260.318C525.066 260.318 524.635 260.454 524.297 260.726C523.959 260.998 523.708 261.354 523.546 261.795C523.383 262.236 523.302 262.711 523.302 263.222C523.302 263.732 523.383 264.206 523.546 264.643C523.708 265.081 523.959 265.434 524.297 265.702C524.635 265.971 525.066 266.105 525.589 266.105ZM533.088 267.179C532.604 267.179 532.165 267.088 531.77 266.906C531.376 266.72 531.063 266.453 530.831 266.105C530.599 265.754 530.483 265.33 530.483 264.832C530.483 264.395 530.569 264.04 530.741 263.768C530.913 263.493 531.144 263.278 531.432 263.122C531.72 262.966 532.039 262.85 532.387 262.774C532.738 262.695 533.091 262.632 533.446 262.585C533.91 262.526 534.286 262.481 534.574 262.451C534.866 262.418 535.078 262.363 535.21 262.287C535.346 262.211 535.414 262.078 535.414 261.889V261.849C535.414 261.359 535.28 260.978 535.012 260.706C534.746 260.434 534.344 260.298 533.804 260.298C533.243 260.298 532.804 260.421 532.486 260.666C532.168 260.911 531.944 261.173 531.815 261.452L530.701 261.054C530.9 260.59 531.165 260.229 531.497 259.97C531.831 259.708 532.196 259.526 532.59 259.423C532.988 259.317 533.379 259.264 533.764 259.264C534.009 259.264 534.291 259.294 534.609 259.354C534.93 259.41 535.24 259.528 535.539 259.707C535.84 259.886 536.09 260.156 536.289 260.517C536.488 260.878 536.588 261.362 536.588 261.969V267H535.414V265.966H535.355C535.275 266.132 535.143 266.309 534.957 266.498C534.771 266.687 534.524 266.848 534.216 266.98C533.908 267.113 533.532 267.179 533.088 267.179ZM533.267 266.125C533.731 266.125 534.122 266.034 534.44 265.852C534.761 265.669 535.003 265.434 535.166 265.146C535.331 264.857 535.414 264.554 535.414 264.236V263.162C535.365 263.222 535.255 263.276 535.086 263.326C534.92 263.372 534.728 263.414 534.509 263.45C534.294 263.483 534.084 263.513 533.878 263.54C533.676 263.563 533.512 263.583 533.386 263.599C533.081 263.639 532.796 263.704 532.531 263.793C532.269 263.879 532.057 264.01 531.894 264.186C531.735 264.358 531.656 264.594 531.656 264.892C531.656 265.3 531.807 265.608 532.108 265.817C532.413 266.022 532.799 266.125 533.267 266.125ZM541.613 267.159C540.976 267.159 540.415 266.998 539.927 266.677C539.44 266.352 539.059 265.895 538.784 265.305C538.509 264.711 538.371 264.01 538.371 263.202C538.371 262.4 538.509 261.704 538.784 261.114C539.059 260.524 539.442 260.068 539.932 259.746C540.423 259.425 540.99 259.264 541.633 259.264C542.13 259.264 542.522 259.347 542.811 259.513C543.102 259.675 543.325 259.861 543.477 260.07C543.633 260.275 543.754 260.444 543.84 260.577H543.939V256.818H545.113V267H543.979V265.827H543.84C543.754 265.966 543.631 266.142 543.472 266.354C543.313 266.562 543.086 266.75 542.791 266.915C542.496 267.078 542.103 267.159 541.613 267.159ZM541.772 266.105C542.242 266.105 542.64 265.982 542.965 265.737C543.29 265.489 543.537 265.146 543.706 264.708C543.875 264.267 543.959 263.759 543.959 263.182C543.959 262.612 543.876 262.113 543.711 261.685C543.545 261.254 543.3 260.92 542.975 260.681C542.65 260.439 542.249 260.318 541.772 260.318C541.275 260.318 540.86 260.446 540.529 260.701C540.201 260.953 539.954 261.296 539.788 261.73C539.626 262.161 539.544 262.645 539.544 263.182C539.544 263.725 539.627 264.219 539.793 264.663C539.962 265.104 540.211 265.455 540.539 265.717C540.87 265.976 541.281 266.105 541.772 266.105ZM552.834 261.074L551.78 261.372C551.713 261.196 551.616 261.026 551.486 260.86C551.36 260.691 551.188 260.552 550.969 260.442C550.75 260.333 550.47 260.278 550.129 260.278C549.662 260.278 549.272 260.386 548.961 260.602C548.652 260.814 548.498 261.084 548.498 261.412C548.498 261.704 548.604 261.934 548.816 262.103C549.029 262.272 549.36 262.413 549.811 262.526L550.944 262.804C551.627 262.97 552.136 263.223 552.471 263.565C552.805 263.903 552.973 264.339 552.973 264.872C552.973 265.31 552.847 265.701 552.595 266.045C552.346 266.39 551.998 266.662 551.551 266.861C551.103 267.06 550.583 267.159 549.99 267.159C549.211 267.159 548.566 266.99 548.056 266.652C547.545 266.314 547.222 265.82 547.086 265.17L548.2 264.892C548.306 265.303 548.507 265.611 548.802 265.817C549.1 266.022 549.489 266.125 549.97 266.125C550.517 266.125 550.951 266.009 551.272 265.777C551.597 265.542 551.76 265.26 551.76 264.932C551.76 264.667 551.667 264.445 551.481 264.266C551.296 264.083 551.011 263.947 550.626 263.858L549.353 263.56C548.654 263.394 548.14 263.137 547.812 262.789C547.487 262.438 547.325 261.999 547.325 261.472C547.325 261.041 547.446 260.66 547.688 260.328C547.933 259.997 548.266 259.737 548.687 259.548C549.111 259.359 549.592 259.264 550.129 259.264C550.885 259.264 551.478 259.43 551.909 259.761C552.343 260.093 552.651 260.53 552.834 261.074Z" fill="white"/>
<rect x="251" y="461" width="193" height="56" rx="8" fill="white"/>
<path fill-rule="evenodd" clip-rule="evenodd" d="M278.112 480.919C278.025 480.827 278.012 480.692 278.08 480.586C279.614 478.153 282.658 477.058 285.422 478.026C285.558 478.072 285.707 478.007 285.764 477.873L286.054 477.19C286.099 477.085 286.194 477.023 286.308 477.023C286.421 477.025 286.517 477.089 286.559 477.193L287.943 480.622C288 480.76 287.931 480.921 287.792 480.976L284.366 482.362C284.262 482.404 284.148 482.379 284.069 482.3C283.989 482.218 283.968 482.105 284.012 482.002L284.294 481.338C284.324 481.267 284.324 481.194 284.294 481.125C284.264 481.055 284.214 481.005 284.141 480.977C282.091 480.174 280.678 479.731 278.444 480.972C278.332 481.03 278.199 481.011 278.112 480.919ZM287.557 497.03C285.321 498.27 283.909 497.828 281.858 497.025C281.787 496.997 281.735 496.947 281.705 496.877C281.677 496.807 281.677 496.735 281.707 496.664L281.989 496C282.033 495.897 282.01 495.783 281.932 495.702C281.852 495.622 281.739 495.598 281.634 495.64L278.208 497.026C278.068 497.081 278.001 497.242 278.057 497.38L279.441 500.808C279.484 500.913 279.579 500.977 279.693 500.978C279.804 500.978 279.902 500.917 279.946 500.812L280.236 500.128C280.293 499.995 280.442 499.93 280.578 499.976C283.342 500.943 286.386 499.848 287.92 497.416C287.987 497.31 287.975 497.175 287.888 497.083C287.801 496.99 287.666 496.97 287.557 497.03ZM283.094 489.919C283.094 488.302 281.866 486.957 280.296 486.771C279.969 485.523 278.833 484.604 277.484 484.604C276.946 484.604 276.443 484.749 276.012 485.005C275.394 483.875 274.192 483.107 272.814 483.107C270.803 483.107 269.171 484.737 269.171 486.748C269.171 486.803 269.173 486.856 269.175 486.909C267.916 487.329 267 488.523 267 489.919C267 491.664 268.426 493.092 270.171 493.092H279.921C281.666 493.092 283.094 491.664 283.094 489.919ZM299 487.476V488.722C299 488.911 298.883 489.07 298.704 489.129L297.888 489.395C297.76 489.435 297.666 489.526 297.618 489.653C297.578 489.763 297.533 489.873 297.484 489.98C297.427 490.103 297.429 490.233 297.491 490.353L297.881 491.119C297.966 491.287 297.936 491.482 297.801 491.615L296.92 492.496C296.787 492.63 296.593 492.661 296.424 492.576L295.658 492.186C295.538 492.124 295.408 492.122 295.284 492.179C295.178 492.228 295.068 492.273 294.958 492.313C294.831 492.362 294.74 492.455 294.699 492.583L294.434 493.4C294.375 493.578 294.216 493.695 294.026 493.695H292.781C292.594 493.695 292.433 493.578 292.374 493.4L292.11 492.583C292.068 492.455 291.977 492.362 291.849 492.313C291.739 492.273 291.629 492.228 291.523 492.179C291.401 492.122 291.27 492.124 291.149 492.186L290.384 492.576C290.218 492.661 290.021 492.631 289.888 492.496L289.007 491.615C288.872 491.482 288.842 491.288 288.927 491.119L289.317 490.353C289.379 490.233 289.381 490.103 289.324 489.98C289.274 489.873 289.23 489.763 289.189 489.653C289.141 489.526 289.048 489.435 288.92 489.395L288.103 489.129C287.924 489.07 287.808 488.911 287.808 488.722V487.476C287.808 487.288 287.924 487.127 288.103 487.068L288.92 486.805C289.048 486.762 289.141 486.672 289.189 486.544C289.23 486.434 289.274 486.325 289.324 486.218C289.381 486.095 289.379 485.965 289.317 485.844L288.927 485.078C288.842 484.912 288.872 484.715 289.007 484.582L289.888 483.702C290.021 483.567 290.217 483.537 290.384 483.622L291.149 484.012C291.27 484.073 291.401 484.075 291.523 484.018C291.629 483.969 291.739 483.925 291.849 483.884C291.977 483.836 292.068 483.744 292.11 483.615L292.374 482.798C292.433 482.619 292.593 482.502 292.781 482.502H294.027C294.216 482.502 294.376 482.619 294.434 482.798L294.7 483.615C294.741 483.744 294.831 483.836 294.959 483.884C295.069 483.925 295.178 483.969 295.285 484.018C295.409 484.075 295.538 484.073 295.659 484.012L296.424 483.622C296.593 483.537 296.788 483.567 296.921 483.702L297.801 484.582C297.936 484.715 297.966 484.912 297.881 485.078L297.491 485.844C297.429 485.965 297.427 486.096 297.484 486.218C297.534 486.324 297.578 486.434 297.619 486.544C297.667 486.672 297.761 486.762 297.888 486.805L298.705 487.068C298.883 487.127 299 487.288 299 487.476ZM295.885 488.1C295.885 486.728 294.774 485.618 293.404 485.618C292.033 485.618 290.923 486.728 290.923 488.1C290.923 489.469 292.033 490.58 293.404 490.58C294.774 490.58 295.885 489.469 295.885 488.1Z" fill="#3432CA"/>
<path d="M311.642 494.644C311.27 494.644 310.982 494.542 310.778 494.338C310.586 494.122 310.49 493.828 310.49 493.456V482.854C310.49 482.47 310.586 482.176 310.778 481.972C310.982 481.768 311.27 481.666 311.642 481.666C312.014 481.666 312.296 481.768 312.488 481.972C312.692 482.176 312.794 482.47 312.794 482.854V487.102H319.328V482.854C319.328 482.47 319.424 482.176 319.616 481.972C319.82 481.768 320.108 481.666 320.48 481.666C320.852 481.666 321.134 481.768 321.326 481.972C321.53 482.176 321.632 482.47 321.632 482.854V493.456C321.632 493.828 321.53 494.122 321.326 494.338C321.134 494.542 320.852 494.644 320.48 494.644C320.108 494.644 319.82 494.542 319.616 494.338C319.424 494.122 319.328 493.828 319.328 493.456V489.028H312.794V493.456C312.794 493.828 312.698 494.122 312.506 494.338C312.314 494.542 312.026 494.644 311.642 494.644ZM326.427 497.884C326.163 497.884 325.947 497.812 325.779 497.668C325.611 497.536 325.509 497.356 325.473 497.128C325.449 496.9 325.491 496.66 325.599 496.408L326.823 493.69V494.626L323.547 487.048C323.439 486.784 323.403 486.538 323.439 486.31C323.475 486.082 323.583 485.902 323.763 485.77C323.955 485.626 324.213 485.554 324.537 485.554C324.813 485.554 325.035 485.62 325.203 485.752C325.371 485.872 325.521 486.106 325.653 486.454L328.083 492.52H327.543L330.027 486.436C330.159 486.1 330.315 485.872 330.495 485.752C330.675 485.62 330.915 485.554 331.215 485.554C331.479 485.554 331.689 485.626 331.845 485.77C332.001 485.902 332.097 486.082 332.133 486.31C332.169 486.526 332.127 486.766 332.007 487.03L327.633 497.02C327.477 497.356 327.309 497.584 327.129 497.704C326.949 497.824 326.715 497.884 326.427 497.884ZM338.746 494.68C338.002 494.68 337.348 494.494 336.784 494.122C336.232 493.75 335.866 493.252 335.686 492.628L335.884 492.178V493.492C335.884 493.864 335.788 494.152 335.596 494.356C335.404 494.548 335.134 494.644 334.786 494.644C334.426 494.644 334.15 494.548 333.958 494.356C333.766 494.152 333.67 493.864 333.67 493.492V482.8C333.67 482.428 333.766 482.146 333.958 481.954C334.15 481.762 334.426 481.666 334.786 481.666C335.146 481.666 335.422 481.762 335.614 481.954C335.818 482.146 335.92 482.428 335.92 482.8V487.48H335.704C335.896 486.892 336.268 486.418 336.82 486.058C337.372 485.698 338.014 485.518 338.746 485.518C339.526 485.518 340.204 485.704 340.78 486.076C341.356 486.448 341.806 486.976 342.13 487.66C342.454 488.332 342.616 489.142 342.616 490.09C342.616 491.026 342.454 491.842 342.13 492.538C341.806 493.222 341.35 493.75 340.762 494.122C340.186 494.494 339.514 494.68 338.746 494.68ZM338.116 492.97C338.56 492.97 338.95 492.862 339.286 492.646C339.622 492.43 339.88 492.112 340.06 491.692C340.252 491.26 340.348 490.726 340.348 490.09C340.348 489.13 340.144 488.416 339.736 487.948C339.328 487.468 338.788 487.228 338.116 487.228C337.672 487.228 337.282 487.336 336.946 487.552C336.61 487.756 336.346 488.074 336.154 488.506C335.974 488.926 335.884 489.454 335.884 490.09C335.884 491.038 336.088 491.758 336.496 492.25C336.904 492.73 337.444 492.97 338.116 492.97ZM345.615 494.644C345.243 494.644 344.955 494.548 344.751 494.356C344.559 494.152 344.463 493.864 344.463 493.492V486.688C344.463 486.316 344.559 486.034 344.751 485.842C344.943 485.65 345.213 485.554 345.561 485.554C345.909 485.554 346.179 485.65 346.371 485.842C346.563 486.034 346.659 486.316 346.659 486.688V487.822H346.479C346.647 487.102 346.977 486.556 347.469 486.184C347.961 485.812 348.615 485.59 349.431 485.518C349.683 485.494 349.881 485.56 350.025 485.716C350.181 485.86 350.271 486.088 350.295 486.4C350.319 486.7 350.247 486.946 350.079 487.138C349.923 487.318 349.683 487.426 349.359 487.462L348.963 487.498C348.231 487.57 347.679 487.798 347.307 488.182C346.935 488.554 346.749 489.082 346.749 489.766V493.492C346.749 493.864 346.653 494.152 346.461 494.356C346.269 494.548 345.987 494.644 345.615 494.644ZM352.628 494.626C352.268 494.626 351.992 494.518 351.8 494.302C351.608 494.086 351.512 493.786 351.512 493.402V486.796C351.512 486.4 351.608 486.1 351.8 485.896C351.992 485.68 352.268 485.572 352.628 485.572C352.988 485.572 353.264 485.68 353.456 485.896C353.66 486.1 353.762 486.4 353.762 486.796V493.402C353.762 493.786 353.666 494.086 353.474 494.302C353.282 494.518 353 494.626 352.628 494.626ZM352.628 483.898C352.208 483.898 351.878 483.796 351.638 483.592C351.41 483.376 351.296 483.082 351.296 482.71C351.296 482.326 351.41 482.032 351.638 481.828C351.878 481.624 352.208 481.522 352.628 481.522C353.06 481.522 353.39 481.624 353.618 481.828C353.846 482.032 353.96 482.326 353.96 482.71C353.96 483.082 353.846 483.376 353.618 483.592C353.39 483.796 353.06 483.898 352.628 483.898ZM359.484 494.68C358.716 494.68 358.038 494.494 357.45 494.122C356.874 493.75 356.424 493.222 356.1 492.538C355.776 491.842 355.614 491.026 355.614 490.09C355.614 489.142 355.776 488.332 356.1 487.66C356.424 486.976 356.874 486.448 357.45 486.076C358.038 485.704 358.716 485.518 359.484 485.518C360.216 485.518 360.852 485.698 361.392 486.058C361.944 486.418 362.316 486.892 362.508 487.48H362.31V482.8C362.31 482.428 362.406 482.146 362.598 481.954C362.79 481.762 363.066 481.666 363.426 481.666C363.786 481.666 364.062 481.762 364.254 481.954C364.458 482.146 364.56 482.428 364.56 482.8V493.492C364.56 493.864 364.464 494.152 364.272 494.356C364.08 494.548 363.804 494.644 363.444 494.644C363.084 494.644 362.808 494.548 362.616 494.356C362.424 494.152 362.328 493.864 362.328 493.492V492.088L362.526 492.628C362.346 493.252 361.98 493.75 361.428 494.122C360.876 494.494 360.228 494.68 359.484 494.68ZM360.114 492.97C360.558 492.97 360.948 492.862 361.284 492.646C361.62 492.43 361.878 492.112 362.058 491.692C362.25 491.26 362.346 490.726 362.346 490.09C362.346 489.13 362.142 488.416 361.734 487.948C361.326 487.468 360.786 487.228 360.114 487.228C359.67 487.228 359.28 487.336 358.944 487.552C358.608 487.756 358.344 488.074 358.152 488.506C357.972 488.926 357.882 489.454 357.882 490.09C357.882 491.038 358.086 491.758 358.494 492.25C358.902 492.73 359.442 492.97 360.114 492.97ZM367.721 490.576C367.457 490.576 367.235 490.492 367.055 490.324C366.887 490.144 366.803 489.928 366.803 489.676C366.803 489.412 366.887 489.196 367.055 489.028C367.235 488.86 367.457 488.776 367.721 488.776H371.555C371.807 488.776 372.017 488.86 372.185 489.028C372.365 489.196 372.455 489.412 372.455 489.676C372.455 489.928 372.365 490.144 372.185 490.324C372.017 490.492 371.807 490.576 371.555 490.576H367.721ZM385.704 494.68C384.384 494.68 383.25 494.416 382.302 493.888C381.366 493.348 380.646 492.592 380.142 491.62C379.638 490.636 379.386 489.478 379.386 488.146C379.386 487.15 379.53 486.256 379.818 485.464C380.106 484.66 380.52 483.976 381.06 483.412C381.6 482.836 382.26 482.398 383.04 482.098C383.832 481.786 384.72 481.63 385.704 481.63C386.364 481.63 387.012 481.714 387.648 481.882C388.284 482.05 388.842 482.29 389.322 482.602C389.574 482.758 389.742 482.95 389.826 483.178C389.91 483.394 389.928 483.61 389.88 483.826C389.832 484.03 389.73 484.204 389.574 484.348C389.43 484.492 389.244 484.576 389.016 484.6C388.8 484.612 388.56 484.534 388.296 484.366C387.924 484.126 387.522 483.952 387.09 483.844C386.658 483.736 386.22 483.682 385.776 483.682C384.924 483.682 384.204 483.856 383.616 484.204C383.028 484.552 382.584 485.056 382.284 485.716C381.984 486.376 381.834 487.186 381.834 488.146C381.834 489.094 381.984 489.904 382.284 490.576C382.584 491.248 383.028 491.758 383.616 492.106C384.204 492.454 384.924 492.628 385.776 492.628C386.232 492.628 386.682 492.574 387.126 492.466C387.57 492.346 387.99 492.166 388.386 491.926C388.65 491.77 388.884 491.704 389.088 491.728C389.304 491.74 389.484 491.812 389.628 491.944C389.772 492.076 389.868 492.244 389.916 492.448C389.964 492.64 389.952 492.844 389.88 493.06C389.808 493.264 389.664 493.444 389.448 493.6C388.968 493.948 388.392 494.218 387.72 494.41C387.06 494.59 386.388 494.68 385.704 494.68ZM394.824 494.68C393.828 494.68 393.078 494.398 392.574 493.834C392.07 493.258 391.818 492.418 391.818 491.314V482.8C391.818 482.428 391.914 482.146 392.106 481.954C392.298 481.762 392.574 481.666 392.934 481.666C393.294 481.666 393.57 481.762 393.762 481.954C393.966 482.146 394.068 482.428 394.068 482.8V491.206C394.068 491.758 394.182 492.166 394.41 492.43C394.65 492.694 394.986 492.826 395.418 492.826C395.514 492.826 395.604 492.826 395.688 492.826C395.772 492.814 395.856 492.802 395.94 492.79C396.108 492.766 396.222 492.814 396.282 492.934C396.342 493.042 396.372 493.27 396.372 493.618C396.372 493.918 396.312 494.152 396.192 494.32C396.072 494.488 395.874 494.59 395.598 494.626C395.478 494.638 395.352 494.65 395.22 494.662C395.088 494.674 394.956 494.68 394.824 494.68ZM401.493 494.68C400.581 494.68 399.789 494.494 399.117 494.122C398.445 493.75 397.923 493.222 397.551 492.538C397.179 491.842 396.993 491.026 396.993 490.09C396.993 489.382 397.095 488.752 397.299 488.2C397.515 487.636 397.821 487.156 398.217 486.76C398.613 486.352 399.087 486.046 399.639 485.842C400.191 485.626 400.809 485.518 401.493 485.518C402.405 485.518 403.197 485.704 403.869 486.076C404.541 486.448 405.063 486.976 405.435 487.66C405.807 488.344 405.993 489.154 405.993 490.09C405.993 490.798 405.885 491.434 405.669 491.998C405.465 492.562 405.165 493.048 404.769 493.456C404.373 493.852 403.899 494.158 403.347 494.374C402.795 494.578 402.177 494.68 401.493 494.68ZM401.493 492.97C401.937 492.97 402.327 492.862 402.663 492.646C402.999 492.43 403.257 492.112 403.437 491.692C403.629 491.26 403.725 490.726 403.725 490.09C403.725 489.13 403.521 488.416 403.113 487.948C402.705 487.468 402.165 487.228 401.493 487.228C401.049 487.228 400.659 487.336 400.323 487.552C399.987 487.756 399.723 488.074 399.531 488.506C399.351 488.926 399.261 489.454 399.261 490.09C399.261 491.038 399.465 491.758 399.873 492.25C400.281 492.73 400.821 492.97 401.493 492.97ZM411.036 494.68C410.304 494.68 409.698 494.548 409.218 494.284C408.738 494.008 408.378 493.6 408.138 493.06C407.91 492.52 407.796 491.848 407.796 491.044V486.688C407.796 486.304 407.892 486.022 408.084 485.842C408.276 485.65 408.552 485.554 408.912 485.554C409.272 485.554 409.548 485.65 409.74 485.842C409.944 486.022 410.046 486.304 410.046 486.688V491.08C410.046 491.704 410.172 492.166 410.424 492.466C410.676 492.766 411.078 492.916 411.63 492.916C412.23 492.916 412.722 492.712 413.106 492.304C413.49 491.884 413.682 491.332 413.682 490.648V486.688C413.682 486.304 413.778 486.022 413.97 485.842C414.162 485.65 414.438 485.554 414.798 485.554C415.158 485.554 415.434 485.65 415.626 485.842C415.83 486.022 415.932 486.304 415.932 486.688V493.492C415.932 494.26 415.566 494.644 414.834 494.644C414.486 494.644 414.216 494.548 414.024 494.356C413.832 494.152 413.736 493.864 413.736 493.492V492.124L413.988 492.664C413.736 493.312 413.352 493.81 412.836 494.158C412.332 494.506 411.732 494.68 411.036 494.68ZM421.658 494.68C420.89 494.68 420.212 494.494 419.624 494.122C419.048 493.75 418.598 493.222 418.274 492.538C417.95 491.842 417.788 491.026 417.788 490.09C417.788 489.142 417.95 488.332 418.274 487.66C418.598 486.976 419.048 486.448 419.624 486.076C420.212 485.704 420.89 485.518 421.658 485.518C422.39 485.518 423.026 485.698 423.566 486.058C424.118 486.418 424.49 486.892 424.682 487.48H424.484V482.8C424.484 482.428 424.58 482.146 424.772 481.954C424.964 481.762 425.24 481.666 425.6 481.666C425.96 481.666 426.236 481.762 426.428 481.954C426.632 482.146 426.734 482.428 426.734 482.8V493.492C426.734 493.864 426.638 494.152 426.446 494.356C426.254 494.548 425.978 494.644 425.618 494.644C425.258 494.644 424.982 494.548 424.79 494.356C424.598 494.152 424.502 493.864 424.502 493.492V492.088L424.7 492.628C424.52 493.252 424.154 493.75 423.602 494.122C423.05 494.494 422.402 494.68 421.658 494.68ZM422.288 492.97C422.732 492.97 423.122 492.862 423.458 492.646C423.794 492.43 424.052 492.112 424.232 491.692C424.424 491.26 424.52 490.726 424.52 490.09C424.52 489.13 424.316 488.416 423.908 487.948C423.5 487.468 422.96 487.228 422.288 487.228C421.844 487.228 421.454 487.336 421.118 487.552C420.782 487.756 420.518 488.074 420.326 488.506C420.146 488.926 420.056 489.454 420.056 490.09C420.056 491.038 420.26 491.758 420.668 492.25C421.076 492.73 421.616 492.97 422.288 492.97Z" fill="#212121"/>
<defs>
<linearGradient id="paint0_linear_958_5910" x1="41.1513" y1="330" x2="656.135" y2="330" gradientUnits="userSpaceOnUse">
<stop/>
<stop offset="1" stop-color="#3432CA"/>
</linearGradient>
<linearGradient id="paint1_linear_958_5910" x1="41.1513" y1="330" x2="656.135" y2="330" gradientUnits="userSpaceOnUse">
<stop/>
<stop offset="1" stop-color="#3432CA"/>
</linearGradient>
</defs>
</svg>
