<svg width="48" height="48" viewBox="0 0 48 48" fill="none" xmlns="http://www.w3.org/2000/svg">
<path fill-rule="evenodd" clip-rule="evenodd" d="M43.3137 30.5128L36.5686 26.4699V16.8421C36.5686 16.5423 36.4101 16.2653 36.1504 16.1145L26.451 10.464V2.31749L43.3137 12.2704V30.5128ZM44.5861 11.0645L26.037 0.117093C25.7756 -0.0370367 25.4544 -0.0387209 25.1896 0.110356C24.9275 0.26025 24.7647 0.539829 24.7647 0.84212V10.9474C24.7647 11.2464 24.924 11.5234 25.1829 11.675L34.8824 17.3255V26.9474C34.8824 27.243 35.0385 27.5175 35.2924 27.6691L43.7237 32.7218C43.8567 32.8017 44.0065 32.8421 44.1569 32.8421C44.3004 32.8421 44.4435 32.806 44.5727 32.7329C44.8372 32.5837 45 32.3032 45 32V11.7895C45 11.4914 44.8434 11.216 44.5861 11.0645ZM23.4536 46.2003L3.68627 35.7043V12.2704L20.549 2.31749V10.4851L11.6649 16.1314C11.422 16.2863 11.2745 16.5541 11.2745 16.8421V31.1579C11.2745 31.4721 11.4499 31.7599 11.7281 31.9047L23.0709 37.7995C23.3145 37.926 23.6045 37.927 23.8474 37.8004L34.852 32.1213L41.6241 36.1802L23.4536 46.2003ZM43.7478 35.4882L35.3164 30.4354C35.0654 30.2855 34.7552 30.2754 34.4955 30.4101L23.4621 36.1037L12.9608 30.6468V17.3045L21.8449 11.6581C22.0877 11.5032 22.2353 11.2354 22.2353 10.9474V0.84212C22.2353 0.539829 22.0734 0.26025 21.8104 0.110356C21.5473 -0.0387209 21.2252 -0.0370367 20.963 0.117093L2.414 11.0645C2.15769 11.216 2 11.4914 2 11.7895V36.2105C2 36.5214 2.172 36.8077 2.44686 36.954L23.0649 47.9014C23.1889 47.9673 23.3246 48 23.4604 48C23.6012 48 23.7411 47.9644 23.8685 47.8946L43.7218 36.9473C43.9858 36.8019 44.1511 36.5262 44.1569 36.2259C44.1622 35.9242 44.0061 35.6432 43.7478 35.4882Z" fill="#009900"/>
</svg>
