<svg width="48" height="48" viewBox="0 0 48 48" fill="none" xmlns="http://www.w3.org/2000/svg">
<path fill-rule="evenodd" clip-rule="evenodd" d="M16.6246 10.3067C21.9938 8.06087 25.7962 11.0147 27.1813 12.3879C28.3111 13.5099 29.1922 14.9431 29.8008 16.6455C29.9063 16.942 30.1677 17.1572 30.4788 17.2043C30.7943 17.2481 31.1037 17.1246 31.2923 16.8726C31.9675 15.9743 32.9569 15.4591 34.0036 15.4591C35.568 15.4591 37.464 16.6463 37.6599 19.9919C37.6824 20.3785 37.9611 20.7007 38.3398 20.7805C42.2253 21.5965 44.1958 23.7523 44.1958 27.1852C44.1958 30.3757 42.7352 32.3471 39.8562 33.0456L40.2588 34.7113C43.9038 33.8282 45.91 31.1557 45.91 27.1852C45.91 23.1437 43.5737 20.3442 39.3135 19.2479C38.8491 15.4523 36.3659 13.7448 34.0036 13.7448C32.8746 13.7448 31.798 14.1288 30.91 14.8291C30.2577 13.4148 29.4134 12.189 28.3899 11.1707C24.9922 7.80627 20.3489 6.89167 15.9628 8.72518C12.2119 10.2989 9.38331 14.6371 9.38331 18.8184C9.38331 19.0241 9.39017 19.2359 9.403 19.4544C5.95984 20.5876 3.92748 23.4103 3.92748 27.1355C3.92748 27.3233 3.93605 27.5101 3.94633 27.6918C4.12379 30.9131 6.27527 33.6989 9.42789 34.7878L9.98674 33.1665C7.49672 32.3069 5.79698 30.1202 5.65812 27.601C5.65038 27.4501 5.64181 27.2932 5.64181 27.1355C5.64181 22.7785 8.70446 21.3668 10.5293 20.9133C10.9485 20.8087 11.2245 20.4084 11.1739 19.979C11.1225 19.5547 11.0976 19.175 11.0976 18.8184C11.0976 15.3451 13.526 11.607 16.6246 10.3067ZM34.2852 28.2867C34.2852 27.9464 34.2127 27.6901 34.079 27.565C33.9321 27.4287 33.6769 27.4158 33.4859 27.4278L22.2853 27.4296C21.8121 27.4296 21.4281 27.0456 21.4281 26.5724C21.4281 26.3401 21.3415 25.6895 21.2421 25.2858H18.2772C18.1461 25.68 18.0055 26.3495 17.9995 26.5758C17.9875 27.0404 17.6069 27.4296 17.1423 27.4296H14.5708C14.3197 27.4133 14.0668 27.4287 13.9211 27.565C13.7874 27.6901 13.7137 27.9464 13.7137 28.2867V40.2872H34.2852V28.2867ZM36 30.0011V36.1969L38.2129 30.0011H36ZM35.95 41.4333L35.9422 41.4309C35.8242 41.7615 35.5156 42.0015 35.1429 42.0015H12.8565C12.3834 42.0015 11.9994 41.6175 11.9994 41.1443V28.2867C11.9994 27.2358 12.4074 26.6332 12.7494 26.3127C13.0776 26.0058 13.6605 25.6466 14.6282 25.7178L16.3854 25.716C16.538 24.8289 16.9186 23.5714 17.8349 23.5714H21.7367C21.789 23.5714 21.8421 23.5766 21.8944 23.586C22.701 23.7368 22.9864 24.8812 23.0876 25.7152H33.4281C34.3342 25.6526 34.9215 26.0058 35.2496 26.3127C35.5925 26.6332 36 27.2358 36 28.2867H39.4286C39.7078 28.2867 39.9683 28.4222 40.1295 28.6502C40.2896 28.8782 40.3293 29.1696 40.2358 29.4319L35.95 41.4333ZM46.2857 45.0744L39.766 38.5548L38.5543 39.767L45.073 46.2857H40.3558V48H47.1429C47.617 48 48 47.616 48 47.1429V40.3558H46.2857V45.0744ZM9.12186 38.5249L1.71433 45.2136V40.3558H0V47.1429C0 47.616 0.384 48 0.857143 48H8.50217V46.2857H3.08493L10.2705 39.7969L9.12186 38.5249ZM47.1429 0H39.4986V1.71433H45.2136L38.5239 9.12206L39.7959 10.2706L46.2857 3.08498V8.50232H48V0.857191C48 0.384 47.617 0 47.1429 0ZM1.71433 8.50232H0V0.857191C0 0.384 0.384 0 0.857143 0H8.50217V1.71433H2.92634L10.3022 9.09032L9.09017 10.3024L1.71433 2.92727V8.50232Z" fill="#009900"/>
</svg>
