<svg width="48" height="48" viewBox="0 0 48 48" fill="none" xmlns="http://www.w3.org/2000/svg">
<path fill-rule="evenodd" clip-rule="evenodd" d="M4.34545 22.3077C5.26799 22.3077 6.01818 23.0667 6.01818 24C6.01818 24.9333 5.26799 25.6923 4.34545 25.6923C3.42292 25.6923 2.67273 24.9333 2.67273 24C2.67273 23.0667 3.42292 22.3077 4.34545 22.3077ZM24.4182 44.3077C14.6444 44.3077 6.25991 37.0864 4.50771 27.3677C5.98893 27.2949 7.2117 26.2499 7.57133 24.8462H12.7091V23.1538H7.57133C7.2117 21.7509 5.98975 20.7059 4.50852 20.6323C6.25652 11.0623 14.8092 3.69231 24.4182 3.69231C28.0254 3.69231 31.8049 5.06477 35.6498 7.77159L36.6047 6.38226C32.475 3.47487 28.3742 2 24.4182 2C13.7713 2 4.30278 10.3473 2.72539 21.0562C1.70168 21.6367 1 22.7308 1 24C1 25.2692 1.70168 26.3633 2.72539 26.9429C4.32036 37.8271 13.5923 46 24.4182 46C28.9404 46 33.5694 44.4407 37.453 41.6092L36.4742 40.237C32.8741 42.8625 28.5925 44.3077 24.4182 44.3077ZM15.3026 20.9894C16.8532 21.3727 18.7936 21.4615 20.2364 21.4615C21.6097 21.4615 23.4338 21.3812 24.9443 21.0435L21.1605 28.6987C21.1028 28.8155 21.0727 28.9457 21.0727 29.0769V32.845C20.4028 33.2772 19.2604 33.9948 18.5636 34.1422V29.0769C18.5636 28.9652 18.5419 28.8544 18.4993 28.7512L15.3026 20.9894ZM20.2364 18.0769C23.6028 18.0769 25.4001 18.588 25.9579 18.9231C25.4001 19.2582 23.6028 19.7692 20.2364 19.7692C16.87 19.7692 15.0727 19.2582 14.5148 18.9231C15.0727 18.588 16.87 18.0769 20.2364 18.0769ZM17.7273 35.8462H18.5636C18.5996 35.8462 18.6356 35.8437 18.6707 35.8394C19.6944 35.705 20.9966 34.9043 22.1366 34.165L22.3565 34.0228C22.5983 33.8671 22.7455 33.5973 22.7455 33.3077V29.2766L27.3948 19.8708C27.6239 19.6008 27.7636 19.2903 27.7636 18.9231C27.7636 16.7146 23.0474 16.3846 20.2364 16.3846C17.4253 16.3846 12.7091 16.7146 12.7091 18.9231C12.7091 19.2328 12.8095 19.5018 12.9767 19.7413L16.8909 29.2462V35C16.8909 35.4671 17.2648 35.8462 17.7273 35.8462ZM41.9818 35C42.9042 35 43.6545 35.7591 43.6545 36.6923C43.6545 37.6255 42.9042 38.3846 41.9818 38.3846C41.0594 38.3846 40.3091 37.6255 40.3091 36.6923C40.3091 35.7591 41.0594 35 41.9818 35ZM41.9818 9.61538C42.9042 9.61538 43.6545 10.3744 43.6545 11.3077C43.6545 12.241 42.9042 13 41.9818 13C41.0594 13 40.3091 12.241 40.3091 11.3077C40.3091 10.3744 41.0594 9.61538 41.9818 9.61538ZM43.6545 22.3077C44.5769 22.3077 45.3273 23.0667 45.3273 24C45.3273 24.9333 44.5769 25.6923 43.6545 25.6923C42.7322 25.6923 41.9818 24.9333 41.9818 24C41.9818 23.0667 42.7322 22.3077 43.6545 22.3077ZM35.2909 24.8462H40.4286C40.8018 26.3015 42.1003 27.3846 43.6545 27.3846C45.4998 27.3846 47 25.8666 47 24C47 22.1334 45.4998 20.6154 43.6545 20.6154C42.1003 20.6154 40.8018 21.6985 40.4286 23.1538H35.2909V12.1538H38.7558C39.1291 13.6092 40.4276 14.6923 41.9818 14.6923C43.8271 14.6923 45.3273 13.1743 45.3273 11.3077C45.3273 9.44108 43.8271 7.92308 41.9818 7.92308C40.4276 7.92308 39.1291 9.00615 38.7558 10.4615H34.4545C33.9919 10.4615 33.6182 10.8406 33.6182 11.3077V23.1538H27.7636V24.8462H33.6182V36.6923C33.6182 37.1594 33.9919 37.5385 34.4545 37.5385H38.7558C39.1291 38.9938 40.4276 40.0769 41.9818 40.0769C43.8271 40.0769 45.3273 38.5592 45.3273 36.6923C45.3273 34.8255 43.8271 33.3077 41.9818 33.3077C40.4276 33.3077 39.1291 34.3908 38.7558 35.8462H35.2909V24.8462Z" fill="#009900"/>
</svg>
