<svg width="48" height="48" viewBox="0 0 48 48" fill="none" xmlns="http://www.w3.org/2000/svg">
<g clip-path="url(#clip0_711_6173)">
<path fill-rule="evenodd" clip-rule="evenodd" d="M31.4503 24.5825C32.0837 25.1681 32.4009 25.9527 32.4009 26.9379C32.4009 28.0098 32.0151 28.8655 31.2446 29.5052C30.4731 30.1457 29.4369 30.4656 28.1366 30.4656C27.1089 30.4656 26.0914 30.246 25.0851 29.8088V28.496C26.2774 28.8904 27.294 29.0867 28.1366 29.0867C28.968 29.0867 29.6074 28.9006 30.0557 28.5294C30.504 28.1572 30.7277 27.6265 30.7277 26.9379C30.7277 25.614 29.892 24.952 28.218 24.952C27.6934 24.952 27.174 24.9795 26.6597 25.0334V23.9514L30.1054 20.193H25.2497V18.8477H31.926V20.1442L28.5463 23.7216C28.602 23.7104 28.6551 23.7052 28.7109 23.7052H28.8746C29.958 23.7052 30.816 23.9977 31.4503 24.5825ZM21.9206 24.2961C22.5866 24.9194 22.92 25.7778 22.92 26.871C22.92 27.9437 22.5326 28.8106 21.7551 29.4726C20.9786 30.1346 19.9569 30.4656 18.6883 30.4656C17.574 30.4656 16.5291 30.246 15.5554 29.8088V28.496C16.7691 28.8904 17.808 29.0867 18.672 29.0867C19.5034 29.0867 20.1403 28.8989 20.5826 28.5208C21.0257 28.1435 21.2477 27.5999 21.2477 26.8882C21.2477 26.1113 21.0394 25.548 20.6237 25.1981C20.208 24.8483 19.53 24.6725 18.5897 24.6725C17.9117 24.6725 17.0649 24.7282 16.0474 24.8371V23.7541L16.3594 18.8477H22.3466V20.193H17.7369L17.5234 23.5243C18.1251 23.4154 18.666 23.3605 19.1469 23.3605C20.328 23.3605 21.2529 23.6718 21.9206 24.2961ZM34.2491 36.3237C30.0883 37.0715 26.4446 38.7659 24 40.1467C21.5546 38.7659 17.9109 37.0715 13.7511 36.3237C12.5803 36.1136 6.74485 34.8955 6.74485 31.522C6.74485 29.9588 7.30459 28.9221 8.37941 27.0708C9.66341 24.8569 11.2611 22.1009 11.2611 18.1334C11.2611 15.2977 10.518 12.5787 9.05056 10.0415C9.22288 9.82881 9.39856 9.61356 9.57515 9.3966C11.7489 10.483 14.0117 11.0336 16.3123 11.0336C19.1237 11.0336 21.7071 10.2953 24 8.83841C26.292 10.2953 28.8754 11.0336 31.6869 11.0336C33.9872 11.0336 36.2512 10.483 38.4251 9.3966C38.6005 9.61356 38.7765 9.82881 38.9488 10.0415C37.4811 12.5787 36.7381 15.2977 36.7381 18.1334C36.7381 22.1009 38.3355 24.8569 39.6224 27.0742C40.6944 28.9221 41.2544 29.9588 41.2544 31.522C41.2544 34.8955 35.4187 36.1136 34.2491 36.3237ZM38.4523 18.1334C38.4523 15.4264 39.216 12.8316 40.7205 10.4213C40.9157 10.11 40.8907 9.70961 40.6576 9.42492C40.2224 8.89158 39.7653 8.32993 39.3147 7.77169C39.0533 7.44844 38.5989 7.35927 38.2336 7.55991C36.1227 8.72694 33.9205 9.31857 31.6869 9.31857C28.992 9.31857 26.6374 8.59404 24.4877 7.1046C24.1946 6.9014 23.8046 6.9014 23.5114 7.1046C21.3617 8.59404 19.0071 9.31857 16.3123 9.31857C14.0786 9.31857 11.8766 8.72694 9.76544 7.55991C9.40112 7.35927 8.94597 7.44844 8.68459 7.77169C8.23371 8.32993 7.77685 8.89158 7.34144 9.42492C7.10912 9.70961 7.08341 10.11 7.27888 10.4213C8.784 12.8316 9.54688 15.4264 9.54688 18.1334C9.54688 21.6396 8.07685 24.1734 6.89573 26.2125C5.73856 28.2035 5.03056 29.5258 5.03056 31.522C5.03056 36.1413 11.4729 37.6581 13.4477 38.0123C17.6134 38.7605 21.2511 40.5264 23.5689 41.8752C23.7017 41.9531 23.8509 41.9915 24 41.9915C24.1483 41.9915 24.2974 41.9531 24.4312 41.8752C26.7489 40.5264 30.3857 38.7605 34.5515 38.0123C36.5264 37.6581 42.9685 36.1413 42.9685 31.522C42.9685 29.5258 42.2608 28.2035 41.1035 26.2099C39.9221 24.1734 38.4523 21.6396 38.4523 18.1334ZM35.1376 41.2773C29.8826 42.2224 25.4769 45.0485 24 46.0837C22.5223 45.0485 18.1166 42.2224 12.8614 41.2773C2.51744 39.4192 1.71429 33.3408 1.71429 31.522C1.71429 28.5302 2.88944 26.5058 4.02603 24.5464C5.10944 22.6797 6.22971 20.7487 6.22971 18.1334C6.22971 14.0021 3.84427 11.0841 2.66741 9.89654C3.90512 8.39078 7.032 4.57847 8.57397 2.59175C10.9106 4.79713 13.6269 6.00017 16.3123 6.00017C19.2934 6.00017 21.7586 4.78684 24 2.19815C26.2406 4.78684 28.7057 6.00017 31.6869 6.00017C34.3723 6.00017 37.0885 4.79713 39.4261 2.59175C40.968 4.57847 44.0939 8.39078 45.3317 9.89654C44.1547 11.0841 41.7696 14.0021 41.7696 18.1334C41.7696 20.7487 42.8907 22.6797 43.9733 24.5464C45.1104 26.5058 46.2859 28.5302 46.2859 31.522C46.2859 33.3408 45.4816 39.4192 35.1376 41.2773ZM45.456 23.6864C44.3973 21.8617 43.4837 20.2865 43.4837 18.1334C43.4837 13.6008 47.0117 10.6691 47.0459 10.6417C47.2235 10.4976 47.3365 10.2884 47.3605 10.0603C47.3829 9.83222 47.3141 9.60497 47.1685 9.42833C47.1109 9.35974 41.4928 2.54801 40.2053 0.78332C40.0544 0.576654 39.8203 0.448067 39.5648 0.4326C39.3088 0.41372 39.0619 0.5158 38.8869 0.702734C36.7269 3.01276 34.1707 4.28524 31.6869 4.28524C28.9406 4.28524 26.7806 3.06161 24.6806 0.31772C24.3557 -0.105907 23.6443 -0.105907 23.3194 0.31772C21.2186 3.06161 19.0586 4.28524 16.3123 4.28524C13.8283 4.28524 11.2723 3.01276 9.11227 0.702734C8.93744 0.5158 8.68885 0.409454 8.43429 0.4326C8.17973 0.448067 7.94485 0.576654 7.79403 0.78332C6.50656 2.54801 0.888 9.35974 0.83056 9.42833C0.685707 9.60497 0.61712 9.83222 0.640267 10.0594C0.66256 10.2867 0.774881 10.4959 0.951414 10.64C0.987414 10.6691 4.51541 13.6008 4.51541 18.1334C4.51541 20.2865 3.60171 21.8617 2.54315 23.6864C1.35088 25.7409 0 28.0689 0 31.522C0 37.2747 4.69456 41.5525 12.5589 42.9659C18.4791 44.0299 23.4291 47.7845 23.478 47.8235C23.6314 47.9408 23.8157 48 24 48C24.1834 48 24.3677 47.9408 24.522 47.8224C24.5717 47.7845 29.5046 44.0325 35.4405 42.9659C43.3045 41.5525 48 37.2747 48 31.522C48 28.0689 46.6485 25.7409 45.456 23.6864Z" fill="#009900"/>
</g>
<defs>
<clipPath id="clip0_711_6173">
<rect width="48" height="48" fill="white"/>
</clipPath>
</defs>
</svg>
