<svg width="48" height="48" viewBox="0 0 48 48" fill="none" xmlns="http://www.w3.org/2000/svg">
<g clip-path="url(#clip0_711_6157)">
<path fill-rule="evenodd" clip-rule="evenodd" d="M27.7867 34.0709C23.8604 34.0709 20.6667 30.8773 20.6667 26.952C20.6667 23.0258 23.8604 19.832 27.7867 19.832C31.7129 19.832 34.9067 23.0258 34.9067 26.952C34.9067 30.8773 31.7129 34.0709 27.7867 34.0709ZM27.7867 18.0542C22.88 18.0542 18.8889 22.0453 18.8889 26.952C18.8889 31.8578 22.88 35.8491 27.7867 35.8491C32.6933 35.8491 36.6843 31.8578 36.6843 26.952C36.6843 22.0453 32.6933 18.0542 27.7867 18.0542ZM45.8203 42.9744C45.2416 43.6149 44.2464 43.6683 43.6016 43.0907L36.1883 36.4037C36.9717 35.7067 37.6747 34.9243 38.2656 34.056L45.7029 40.7563C46.3456 41.336 46.3973 42.3323 45.8203 42.9744ZM16.8987 26.952C16.8987 20.9476 21.7831 16.0631 27.7867 16.0631C33.7904 16.0631 38.6747 20.9476 38.6747 26.952C38.6747 32.9557 33.7904 37.84 27.7867 37.84C21.7831 37.84 16.8987 32.9557 16.8987 26.952ZM39.1669 32.4757C39.9824 30.8036 40.4523 28.9333 40.4523 26.952C40.4523 19.9671 34.7707 14.2853 27.7867 14.2853C20.8027 14.2853 15.1209 19.9671 15.1209 26.952C15.1209 33.936 20.8027 39.6176 27.7867 39.6176C30.3636 39.6176 32.7611 38.84 34.7637 37.5131L42.4123 44.4123C43.0507 44.9856 43.8517 45.2683 44.6507 45.2677C45.5669 45.2677 46.48 44.896 47.1413 44.1643C48.3733 42.7936 48.2629 40.6731 46.8944 39.4363L39.1669 32.4757ZM48 6.22224V36.4443H46.2224V7.11109H39.1109V16.8889H37.3333V6.22224C37.3333 5.73157 37.7317 5.33333 38.2224 5.33333H47.1109C47.6027 5.33333 48 5.73157 48 6.22224ZM33.7776 42.6667H35.5557V47.1109C35.5557 47.6027 35.1584 48 34.6667 48H25.7778C25.2862 48 24.8889 47.6027 24.8889 47.1109V41.7776H26.6667V46.2224H33.7776V42.6667ZM26.6667 11.5556H24.8889V0.888906C24.8889 0.398239 25.2862 0 25.7778 0H34.6667C35.1584 0 35.5557 0.398239 35.5557 0.888906V13.3333H33.7776V1.77776H26.6667V11.5556ZM21.3333 40.8891H23.1111V47.1109C23.1111 47.6027 22.7138 48 22.2222 48H13.3333C12.8427 48 12.4444 47.6027 12.4444 47.1109V33.7776H14.2222V46.2224H21.3333V40.8891ZM14.2222 20.4444H12.4444V8.88891C12.4444 8.39824 12.8427 8 13.3333 8H22.2222C22.7138 8 23.1111 8.39824 23.1111 8.88891V12.4444H21.3333V9.77776H14.2222V20.4444ZM1.77776 46.2224H8.88891V16H1.77776V46.2224ZM9.77776 14.2222H0.888906C0.398239 14.2222 0 14.6204 0 15.1111V47.1109C0 47.6027 0.398239 48 0.888906 48H9.77776C10.2693 48 10.6667 47.6027 10.6667 47.1109V15.1111C10.6667 14.6204 10.2693 14.2222 9.77776 14.2222Z" fill="#009900"/>
</g>
<defs>
<clipPath id="clip0_711_6157">
<rect width="48" height="48" fill="white"/>
</clipPath>
</defs>
</svg>
