<svg width="46" height="47" viewBox="0 0 46 47" fill="none" xmlns="http://www.w3.org/2000/svg">
<path fill-rule="evenodd" clip-rule="evenodd" d="M40.8954 25.9281L41.2236 23.6587C44.251 25.4388 44.2901 26.174 44.2896 26.1941C44.2842 26.1983 43.7678 26.6213 40.8954 25.9281ZM39.2344 25.4749C34.0024 23.9205 26.7159 20.6389 23.7673 19.2709C23.7673 19.2591 23.7707 19.2482 23.7707 19.2364C23.7707 18.1244 22.8491 17.2197 21.7155 17.2197C20.5836 17.2197 19.662 18.1244 19.662 19.2364C19.662 20.3485 20.5836 21.2533 21.7155 21.2533C22.2131 21.2533 22.6645 21.0711 23.021 20.7816C26.4902 22.3938 33.72 25.6276 38.9906 27.1551L36.9061 41.596C36.9003 41.6353 36.8978 41.6746 36.8978 41.7144C36.8978 42.9858 31.1641 45.3214 21.795 45.3214C12.3269 45.3214 6.53233 42.9858 6.53233 41.7144C6.53233 41.6756 6.52978 41.6377 6.52465 41.6003L2.16976 10.3728C5.93907 12.92 14.0461 14.2679 21.8001 14.2679C29.5422 14.2679 37.6355 12.925 41.4127 10.3853L39.2344 25.4749ZM1.70982 7.11546C1.77137 6.01096 8.23618 1.67857 21.8001 1.67857C35.3624 1.67857 41.8279 6.01015 41.8905 7.11546V7.49233C41.1465 9.96904 32.7684 12.5893 21.8001 12.5893C10.8129 12.5893 2.43048 9.96064 1.70982 7.48058V7.11546ZM43.6003 7.13393C43.6003 4.22583 35.1074 0 21.8001 0C8.49265 0 0 4.22583 0 7.13393L0.0803619 7.76675L4.82339 41.7782C4.93712 45.5819 15.2695 47 21.795 47C29.8925 47 38.4958 45.1723 38.6067 41.7806L40.655 27.5991C41.7947 27.8668 42.7327 28.0036 43.4855 28.0036C44.4972 28.0036 45.1811 27.7611 45.5954 27.276C45.9359 26.8782 46.0658 26.3964 45.9686 25.8836C45.7468 24.722 44.3424 23.4698 41.4816 21.8676L43.5128 7.79951L43.6003 7.13393Z" fill="#009900"/>
</svg>
