<svg width="48" height="48" viewBox="0 0 48 48" fill="none" xmlns="http://www.w3.org/2000/svg">
<path fill-rule="evenodd" clip-rule="evenodd" d="M33.8232 35.9636C30.9722 38.2287 24.9905 39.4258 19.2667 39.4258C13.5421 39.4258 7.55866 38.2278 4.70833 35.9627V40.5246H4.70916C4.70916 42.7997 10.6875 45.3353 19.2667 45.3353C27.8391 45.3353 33.8139 42.8031 33.8232 40.5294V35.9636ZM33.8241 27.2955L35.5325 27.2863V27.2955C35.5325 28.3094 35.0156 29.2559 34.0096 30.1222C35.2294 31.1773 35.5325 32.2118 35.5325 32.9484C35.5325 32.9537 35.5315 32.9576 35.5315 32.9628V40.5246H35.5325C35.5325 44.7301 27.1515 47 19.2667 47C11.4007 47 3.04271 44.7402 3.00259 40.5538C3.00259 40.5495 3 40.5452 3 40.5413V32.946C3 32.9446 3.00171 32.9417 3.00171 32.9393C3.0043 32.2027 3.30833 31.172 4.52637 30.1198C3.31604 29.0694 3.00854 28.0447 3.00083 27.3138H3.00171C3.00171 27.3105 3 27.308 3 27.3046V19.7095C3 19.707 3.00171 19.7045 3.00171 19.702C3.0043 18.9653 3.30921 17.9348 4.52725 16.8842C3.31604 15.8329 3.00854 14.8073 3.00083 14.0773H3.00171C3.00171 14.074 3 14.0706 3 14.0673V6.473C3 6.47051 3.00171 6.46802 3.00171 6.46552C3.01625 2.26588 11.3879 0 19.2667 0C23.7178 0 27.9937 0.695073 30.9976 1.9071L30.3445 3.44544C27.5401 2.31418 23.5025 1.66486 19.2667 1.66486C10.6875 1.66486 4.70916 4.20046 4.70916 6.47718C4.70916 8.75303 10.6875 11.2886 19.2667 11.2886C19.4982 11.2911 19.7246 11.2886 19.9535 11.2803L20.0252 12.9435C19.7724 12.9535 19.5196 12.9535 19.2667 12.9535C13.5421 12.9535 7.55866 11.7556 4.70833 9.49055V14.0498H4.70916V14.069C4.7177 14.9422 5.62912 15.7047 6.39274 16.1892C8.69045 17.6285 12.8075 18.6115 17.3986 18.8155L17.3209 20.4787C12.67 20.2714 8.59732 19.3233 5.97591 17.8698C5.33016 18.3443 4.70916 18.9861 4.70916 19.7137C4.70916 21.9896 10.6875 24.5251 19.2667 24.5251C20.1081 24.5251 20.9434 24.4976 21.7506 24.4427L21.8693 26.1034C21.0237 26.1609 20.1473 26.19 19.2667 26.19C13.5421 26.19 7.55866 24.9922 4.70833 22.7271V27.2863H4.70916C4.7177 28.1787 5.62912 28.9403 6.39274 29.4257C9.02016 31.0732 13.9538 32.0986 19.2667 32.0986H19.6426V33.7633H19.2667C13.8692 33.7633 8.96378 32.7787 5.96395 31.1145C5.32162 31.5883 4.70916 32.2267 4.70916 32.9484C4.70916 35.2246 10.6875 37.7607 19.2667 37.7607C27.8391 37.7607 33.8139 35.2284 33.8232 32.9542V32.946V32.9451C33.8217 32.2219 33.2067 31.5835 32.5624 31.1097C32.1456 31.3418 31.699 31.5658 31.1909 31.7715L30.5363 30.233C31.1567 29.9826 31.6946 29.712 32.1363 29.4273C32.907 28.9337 33.8241 28.162 33.8241 27.2955ZM41.1412 15.1211H36.3544C36.0713 15.1211 35.8058 14.9846 35.6477 14.7566C35.4881 14.5285 35.4558 14.2379 35.5598 13.9824L38.4718 6.83011H27.4453L22.3203 16.8193H27.7716C28.0441 16.8193 28.3003 16.9467 28.4619 17.1606C28.6215 17.3754 28.6684 17.6509 28.5854 17.9048L23.7203 32.807L41.1412 15.1211ZM43.7622 14.8656L22.4092 36.542C22.2426 36.7104 22.0188 36.7976 21.7925 36.7976C21.6421 36.7976 21.4909 36.7602 21.356 36.6811C21.0143 36.483 20.858 36.0826 20.9785 35.7128L26.604 18.4842H20.9383C20.6419 18.4842 20.3677 18.3352 20.2114 18.0896C20.056 17.844 20.0414 17.5377 20.1747 17.2796L26.1538 5.62556C26.2982 5.34337 26.5937 5.16525 26.9175 5.16525H39.7301C40.0127 5.16525 40.2782 5.30261 40.4364 5.52984C40.596 5.7588 40.6287 6.04847 40.5242 6.30486L37.6122 13.4563H43.1458C43.4874 13.4563 43.7974 13.656 43.9316 13.9624C44.0658 14.2696 43.999 14.625 43.7622 14.8656ZM5.95112 40.8516C7.16149 41.5216 8.68532 42.0851 10.4799 42.5249L10.8967 40.9101C9.2747 40.513 7.85678 39.9917 6.79503 39.4042L5.95112 40.8516ZM10.4799 29.2059L10.8967 27.5918C9.2747 27.1939 7.85678 26.6728 6.79503 26.0851L5.95112 27.5327C7.16149 28.2028 8.68444 28.7664 10.4799 29.2059ZM5.95112 14.2138L6.79503 12.7662C7.85507 13.3539 9.27382 13.8742 10.8967 14.2729L10.4799 15.887C8.68274 15.4466 7.15978 14.8831 5.95112 14.2138Z" fill="#009900"/>
</svg>
