<svg width="48" height="48" viewBox="0 0 48 48" fill="none" xmlns="http://www.w3.org/2000/svg">
<path fill-rule="evenodd" clip-rule="evenodd" d="M33.0357 41.48V36.6212C30.9542 37.9804 27.2069 38.6222 23.6353 38.6222C19.7417 38.6222 16.7066 37.9358 14.9643 36.7583V41.48C14.9643 42.8856 18.2073 44.3396 23.6353 44.3396C29.175 44.3396 33.0357 42.8325 33.0357 41.48ZM23.6353 31.2397C19.7417 31.2397 16.7066 30.5537 14.9643 29.3764V34.1174C14.9897 35.5178 18.2278 36.9619 23.6353 36.9619C29.1577 36.9619 33.0104 35.4637 33.0357 34.1141V29.2386C30.9542 30.5985 27.2069 31.2397 23.6353 31.2397ZM33.0357 26.732V21.1185C30.9542 22.4777 27.2069 23.1195 23.6353 23.1195C19.7417 23.1195 16.7066 22.4337 14.9643 21.2564V26.7353C14.9897 28.136 18.2278 29.579 23.6353 29.579C29.1577 29.579 33.0104 28.0812 33.0357 26.732ZM14.9618 18.5978C14.9618 18.6004 14.9626 18.6029 14.9626 18.6053H14.9643V18.6145C14.9897 20.0151 18.2278 21.459 23.6353 21.459C29.6662 21.459 33.0104 19.7802 33.0357 18.612V18.6053H33.0371C33.0371 18.6029 33.0381 18.6004 33.0381 18.5978C33.0381 17.4288 29.69 15.7368 23.6353 15.7368C18.2056 15.7368 14.9618 17.1914 14.9618 18.5978ZM34.6786 18.6186V26.7179H34.6809C34.6809 26.7253 34.6786 26.7312 34.6786 26.7386V34.1008H34.6809C34.6809 34.1079 34.6786 34.1141 34.6786 34.1212V41.48C34.6786 44.5858 28.954 46 23.6353 46C17.3702 46 13.3214 44.2258 13.3214 41.48V34.1264C13.3214 34.1174 13.3189 34.1098 13.3189 34.1008H13.3214V26.7436C13.3214 26.7353 13.3189 26.727 13.3189 26.7179H13.3214V18.6236C13.3214 18.6145 13.3189 18.607 13.3189 18.5978C13.3189 15.8513 17.3686 14.0763 23.6353 14.0763C28.9549 14.0763 34.6809 15.491 34.6809 18.5978C34.6809 18.6053 34.6786 18.6112 34.6786 18.6186ZM46.1786 7.91151C46.6329 7.91151 47 7.53954 47 7.08123V2.83028C47 2.37112 46.6329 2 46.1786 2H1.82143C1.3672 2 1 2.37112 1 2.83028V7.08123C1 7.53954 1.3672 7.91151 1.82143 7.91151C2.82437 7.91151 3.64007 8.73098 3.64007 9.73807C3.64007 10.7452 2.82437 11.5647 1.82143 11.5647C1.3672 11.5647 1 11.9366 1 12.395V29.3988C1 29.8571 1.3672 30.2291 1.82143 30.2291H10.0357V28.5686H5.92857V26.0777H10.0357V24.4172H5.10714C4.65292 24.4172 4.28571 24.7883 4.28571 25.2475V28.5686H2.64286V13.1256C4.15677 12.7528 5.28293 11.3754 5.28293 9.73807C5.28293 8.09999 4.15677 6.72254 2.64286 6.34976V3.66052H45.3571V6.34976C43.8434 6.72254 42.7168 8.09999 42.7168 9.73807C42.7168 11.3754 43.8434 12.7528 45.3571 13.1256V28.5686H43.7143V25.2475C43.7143 24.7883 43.3472 24.4172 42.8929 24.4172H37.9643V26.0777H42.0714V28.5686H37.9643V30.2291H46.1786C46.6329 30.2291 47 29.8571 47 29.3988V12.395C47 11.9366 46.6329 11.5647 46.1786 11.5647C45.1755 11.5647 44.3602 10.7452 44.3602 9.73807C44.3602 8.73098 45.1755 7.91151 46.1786 7.91151ZM14.1429 13.6237V6.98161C14.1429 6.52249 13.7757 6.15132 13.3214 6.15132H8.39286C7.93863 6.15132 7.57143 6.52249 7.57143 6.98161V21.0961C7.57143 21.5545 7.93863 21.9264 8.39286 21.9264H10.8571V20.2659H9.21429V7.81189H12.5V13.6237H14.1429ZM38.7857 20.2659H37.9643V21.9264H39.6071C40.0615 21.9264 40.4286 21.5545 40.4286 21.0961V6.98161C40.4286 6.52249 40.0615 6.15132 39.6071 6.15132H34.6786C34.2242 6.15132 33.8571 6.52249 33.8571 6.98161V13.6237H35.5V7.81189H38.7857V20.2659ZM32.2143 12.7934V6.98161C32.2143 6.52249 31.8472 6.15132 31.3929 6.15132H25.6429C25.1886 6.15132 24.8214 6.52249 24.8214 6.98161V11.9632H26.4643V7.81189H30.5714V12.7934H32.2143ZM21.5357 11.9632V7.81189H17.4286V12.7934H15.7857V6.98161C15.7857 6.52249 16.1529 6.15132 16.6071 6.15132H22.3571C22.8114 6.15132 23.1786 6.52249 23.1786 6.98161V11.9632H21.5357Z" fill="#009900"/>
</svg>
