<svg width="48" height="48" viewBox="0 0 48 48" fill="none" xmlns="http://www.w3.org/2000/svg">
<path fill-rule="evenodd" clip-rule="evenodd" d="M14.4 36.48C7.51872 36.48 1.92 30.8813 1.92 24C1.92 17.1187 7.51872 11.52 14.4 11.52C21.2813 11.52 26.88 17.1187 26.88 24C26.88 30.8813 21.2813 36.48 14.4 36.48ZM43.2 42.24C43.2 44.358 41.478 46.08 39.36 46.08C37.242 46.08 35.52 44.358 35.52 42.24C35.52 40.122 37.242 38.4 39.36 38.4C41.478 38.4 43.2 40.122 43.2 42.24ZM39.36 1.92C41.478 1.92 43.2 3.64224 43.2 5.76C43.2 7.87776 41.478 9.6 39.36 9.6C37.242 9.6 35.52 7.87776 35.52 5.76C35.52 3.64224 37.242 1.92 39.36 1.92ZM42.24 20.16C44.358 20.16 46.08 21.8822 46.08 24C46.08 26.1178 44.358 27.84 42.24 27.84C40.122 27.84 38.4 26.1178 38.4 24C38.4 21.8822 40.122 20.16 42.24 20.16ZM28.7511 24.96H36.5667C37.0253 27.6797 39.3918 29.76 42.24 29.76C45.4168 29.76 48 27.1767 48 24C48 20.8233 45.4168 18.24 42.24 18.24C39.3918 18.24 37.0253 20.3203 36.5667 23.04H28.7511C28.6301 21.215 28.1702 19.4851 27.4291 17.9078L35.9484 10.3901C36.9046 11.0967 38.0824 11.52 39.36 11.52C42.5368 11.52 45.12 8.93667 45.12 5.76C45.12 2.58333 42.5368 0 39.36 0C36.1832 0 33.6 2.58333 33.6 5.76C33.6 6.96576 33.9736 8.08413 34.6088 9.01056L26.4778 16.1846C23.9078 12.2285 19.4601 9.6 14.4 9.6C6.45987 9.6 0 16.0599 0 24C0 31.9401 6.45987 38.4 14.4 38.4C19.4601 38.4 23.9078 35.7712 26.4778 31.8153L34.6088 38.9892C33.9736 39.9157 33.6 41.0342 33.6 42.24C33.6 45.4168 36.1832 48 39.36 48C42.5368 48 45.12 45.4168 45.12 42.24C45.12 39.0632 42.5368 36.48 39.36 36.48C38.0824 36.48 36.9046 36.9035 35.9484 37.6101L27.4291 30.0922C28.1702 28.5149 28.6301 26.785 28.7511 24.96Z" fill="#009900"/>
</svg>
