<svg width="48" height="48" viewBox="0 0 48 48" fill="none" xmlns="http://www.w3.org/2000/svg">
<path fill-rule="evenodd" clip-rule="evenodd" d="M14.7318 27.0463L17.1977 24.5963C17.3522 24.4427 17.4394 24.2341 17.4402 24.0164C17.441 23.7988 17.3547 23.5893 17.201 23.4349L14.7351 20.9569L13.5696 22.115L14.6275 23.1787H10.8645V24.8213H14.6406L13.5729 25.8817L14.7318 27.0463ZM33.5517 27.1211L36.8393 24.6554C37.0448 24.5002 37.1674 24.2571 37.1674 23.9992C37.1674 23.7405 37.0448 23.4965 36.8383 23.3413L33.5507 20.8789L32.5641 22.193L33.8793 23.1787H30.5915V24.8213H33.8783L32.5636 25.807L33.5517 27.1211ZM20.0639 24C20.0639 25.7437 19.7639 27.388 19.2033 28.8188C20.682 28.2471 22.3498 27.9613 24.0159 27.9613C25.682 27.9613 27.3498 28.2471 28.8276 28.8188C28.2679 27.388 27.9678 25.7437 27.9678 24C27.9678 22.2563 28.2679 20.6128 28.8276 19.1812C25.871 20.3237 22.1607 20.3237 19.2033 19.1812C19.7639 20.6128 20.0639 22.2563 20.0639 24ZM16.0371 31.9729C15.8769 31.8124 15.7963 31.6024 15.7963 31.3918C15.7963 31.1818 15.8769 30.9717 16.0371 30.8113C17.529 29.3206 18.42 26.7737 18.42 24C18.42 21.2263 17.529 18.6794 16.0371 17.1887C15.8769 17.0285 15.7963 16.8182 15.7963 16.608C15.7963 16.3977 15.8769 16.1874 16.0371 16.0273C16.3585 15.7061 16.878 15.7061 17.1994 16.0273C20.3844 19.21 27.6473 19.21 30.8324 16.0273C31.1535 15.7061 31.6732 15.7061 31.9947 16.0273C32.1548 16.1874 32.2355 16.3977 32.2355 16.608C32.2355 16.8182 32.1548 17.0285 31.9947 17.1887C30.5028 18.6794 29.6118 21.2263 29.6118 24C29.6118 26.7737 30.5028 29.3206 31.9947 30.8113C32.1548 30.9717 32.2355 31.1818 32.2355 31.3918C32.2355 31.6024 32.1548 31.8124 31.9947 31.9729C31.8342 32.1329 31.6239 32.2132 31.4136 32.2132C31.2033 32.2132 30.9927 32.1329 30.8324 31.9729C27.6473 28.79 20.3844 28.79 17.1994 31.9729C16.878 32.2939 16.3585 32.2939 16.0371 31.9729ZM45.3582 24.0041C45.3582 23.2386 45.0597 22.5191 44.518 21.9779C43.9589 21.4185 43.2243 21.1401 42.4902 21.1401C41.7561 21.1401 41.0215 21.4185 40.4625 21.9779C39.3439 23.0949 39.3439 24.9125 40.4625 26.0303C41.5806 27.1473 43.3985 27.1482 44.518 26.0303C45.0597 25.4891 45.3582 24.7696 45.3582 24.0041ZM45.6802 27.1917C44.8006 28.0705 43.6459 28.51 42.4902 28.51C41.3346 28.51 40.1799 28.0705 39.3003 27.1917C37.5405 25.434 37.5405 22.5742 39.3003 20.8165C41.06 19.0572 43.9219 19.0588 45.6802 20.8165C47.4399 22.5742 47.4399 25.434 45.6802 27.1917ZM8.37645 24.023C8.37645 23.2575 8.0781 22.538 7.53643 21.9968C6.99475 21.4555 6.27471 21.1574 5.50867 21.1574C4.74342 21.1574 4.02338 21.4555 3.48086 21.9968C2.93919 22.538 2.64164 23.2575 2.64164 24.023C2.64164 24.7877 2.93919 25.5072 3.48086 26.0492C4.56506 27.1309 6.45308 27.1309 7.53643 26.0492C8.0781 25.5072 8.37645 24.7877 8.37645 24.023ZM8.69868 27.2106C7.81919 28.0895 6.6643 28.5288 5.50867 28.5288C4.35378 28.5288 3.19895 28.0895 2.31861 27.2106C0.560464 25.4529 0.560464 22.5931 2.31861 20.8354C4.07844 19.0777 6.93969 19.0777 8.69868 20.8354C10.4577 22.5931 10.4577 25.4529 8.69868 27.2106ZM36.2361 36.2723C32.9546 39.5522 28.5909 41.3573 23.9501 41.3573C19.3077 41.3573 14.9447 39.5522 11.6635 36.2723C9.41295 34.0244 8.17428 31.338 7.5315 29.4808L5.97801 30.0179C6.67749 32.0385 8.02961 34.9648 10.5012 37.4336C14.0932 41.024 18.8688 43 23.9501 43C29.0306 43 33.8061 41.024 37.3983 37.4336C39.4735 35.3618 41.1267 32.7268 42.0546 30.0155L40.4995 29.4832C39.6514 31.9621 38.1371 34.3733 36.2361 36.2723ZM7.53066 18.52L5.97881 17.9812C6.9734 15.1197 8.58115 12.4849 10.5062 10.5621C14.0965 6.97534 18.8704 5 23.9501 5C29.0298 5 33.8037 6.97534 37.3931 10.5621C39.4195 12.5867 41.1182 15.2905 42.0528 17.9812L40.501 18.52C39.6439 16.056 38.0878 13.5789 36.2309 11.7235C32.9522 8.44634 28.5901 6.64269 23.9501 6.64269C19.3094 6.64269 14.948 8.44634 11.6684 11.7235C9.91599 13.4754 8.44634 15.8893 7.53066 18.52Z" fill="#009900"/>
</svg>
