<svg width="48" height="48" viewBox="0 0 48 48" fill="none" xmlns="http://www.w3.org/2000/svg">
<path fill-rule="evenodd" clip-rule="evenodd" d="M22.2247 31.4803H26.5741V27.2205H22.2247V31.4803ZM27.4312 25.5166H21.3676C20.8937 25.5166 20.5107 25.8982 20.5107 26.3685V32.3325C20.5107 32.8026 20.8937 33.1842 21.3676 33.1842H27.4312C27.9051 33.1842 28.2882 32.8026 28.2882 32.3325V26.3685C28.2882 25.8982 27.9051 25.5166 27.4312 25.5166ZM39.3678 38.2961L32.5734 38.2893V28.9244H46.1187C46.225 29.4475 46.2857 30.0124 46.2857 30.6284C46.2857 37.2908 39.9825 38.222 39.3678 38.2961ZM8.40843 38.0429L16.2897 30.8609V38.272L9.47119 38.2648C9.10865 38.2128 8.75643 38.1344 8.40843 38.0429ZM1.71586 30.3455L1.72017 30.1155C1.72017 26.291 3.48824 23.885 6.97206 22.9606H16.2897V24.2778L3.7299 35.2034C2.56865 33.8955 1.82641 32.2873 1.71846 30.5738C1.7116 30.4707 1.71415 30.4153 1.71586 30.3455ZM14.4214 10.5705C15.0367 10.3106 15.6624 10.1181 16.2897 9.97668V16.1449H8.82412C10.0248 13.704 12.0834 11.5545 14.4214 10.5705ZM22.289 35.7404H26.5741V38.2826L22.289 38.2783V35.7404ZM41.425 21.7466L40.8627 23.3568C42.3007 23.8535 44.4255 24.9483 45.5393 27.2205H31.7162C31.2432 27.2205 30.8593 27.6022 30.8593 28.0725V38.2874L28.2882 38.284V34.8882C28.2882 34.418 27.9051 34.0365 27.4312 34.0365H21.432C20.9589 34.0365 20.5749 34.418 20.5749 34.8882V38.2763L18.0038 38.2739V28.9244C18.0038 28.587 17.8033 28.2803 17.4921 28.144C17.1819 28.0094 16.8185 28.0673 16.5674 28.2965L6.60182 37.3774C6.02504 37.095 5.48685 36.7548 4.98887 36.3722L17.7107 25.3053C17.8975 25.1443 18.0038 24.9108 18.0038 24.6646V22.1087C18.0038 21.6384 17.6207 21.2567 17.1468 21.2567H7.70224C7.70484 21.1903 7.70484 21.1272 7.70739 21.0608C7.71341 20.8742 7.71939 20.691 7.71939 20.5223C7.71939 19.6448 7.8771 18.7408 8.14962 17.8488H17.1468C17.6207 17.8488 18.0038 17.4671 18.0038 16.9969V9.73724C18.866 9.68787 19.7264 9.7458 20.5749 9.9085V23.8126C20.5749 24.2829 20.9589 24.6646 21.432 24.6646H27.4312C27.9051 24.6646 28.2882 24.2829 28.2882 23.8126V18.7008H26.5741V22.9606H22.289V10.3847C23.9096 10.982 25.4523 11.9694 26.8244 13.3385L28.038 12.1356C23.9979 8.10658 18.6577 6.93601 13.7529 9.00114C9.4086 10.8303 6.00535 15.891 6.00535 20.5223C6.00535 20.6723 5.99932 20.8358 5.99418 21.0028C5.98904 21.1579 5.98306 21.3163 5.98135 21.4731C3.48824 22.2825 0.00608343 24.4303 0.00608343 30.1155L0.00265488 30.2927C-0.000773695 30.4128 -0.00248894 30.5074 0.00779678 30.6812C0.298344 35.2861 4.29042 39.2748 9.29379 39.961C9.33233 39.9658 9.37176 39.9682 9.41031 39.9682L21.3386 39.9812C21.3702 39.9846 21.3985 40 21.432 40H27.4312C27.4535 40 27.4715 39.9889 27.4938 39.987L39.4158 40H39.4168C39.4457 40 39.4741 39.9981 39.5035 39.9957C39.5882 39.987 48 39.0371 48 30.6284C48 24.6612 43.4018 22.429 41.425 21.7466ZM33.4305 15.2929C33.4305 14.4486 34.296 13.589 35.1443 13.589C35.9931 13.589 36.8586 14.4486 36.8586 15.2929C36.8586 16.1372 35.9931 16.9969 35.1443 16.9969C34.296 16.9969 33.4305 16.1372 33.4305 15.2929ZM38.5724 15.2929C38.5724 13.5098 36.9389 11.8851 35.1443 11.8851C33.3497 11.8851 31.7162 13.5098 31.7162 15.2929C31.7162 17.0761 33.3497 18.7008 35.1443 18.7008C36.9389 18.7008 38.5724 17.0761 38.5724 15.2929ZM35.1443 11.0331C37.5879 11.0331 39.4296 12.864 39.4296 15.2929C39.4296 17.1536 36.7739 21.5447 35.1443 23.9975C33.5162 21.5455 30.8593 17.1553 30.8593 15.2929C30.8593 12.864 32.7017 11.0331 35.1443 11.0331ZM35.1443 26.3685C35.424 26.3685 35.687 26.2322 35.8472 26.0047C36.3889 25.2337 41.1438 18.3822 41.1438 15.2929C41.1438 11.8927 38.5641 9.32918 35.1443 9.32918C31.7251 9.32918 29.1453 11.8927 29.1453 15.2929C29.1453 18.3822 33.9002 25.2337 34.4425 26.0047C34.6021 26.2322 34.8651 26.3685 35.1443 26.3685Z" fill="#009900"/>
</svg>
