<svg width="48" height="48" viewBox="0 0 48 48" fill="none" xmlns="http://www.w3.org/2000/svg">
<path fill-rule="evenodd" clip-rule="evenodd" d="M42.1226 26.001L37.5068 24.1399V41.0175C38.8544 40.8821 39.9415 40.4355 40.7136 39.6451C42.1403 38.1833 42.1235 36.0404 42.1226 36.0196V26.001ZM35.8283 41.0281V24.1399L31.2125 26.001V36.0027C31.2183 36.1777 31.4091 40.5341 35.8283 41.0281ZM43.8011 36.0027C43.8035 36.0979 43.8457 38.834 41.9255 40.8159C40.67 42.1128 38.8999 42.7703 36.6675 42.7703C31.1513 42.7703 29.5886 38.3559 29.534 36.023V25.4282C29.534 25.0823 29.743 24.7709 30.0619 24.6424L36.3563 22.1045C36.5558 22.0241 36.7793 22.0241 36.9788 22.1045L43.2731 24.6424C43.592 24.7709 43.8011 25.0823 43.8011 25.4282V36.0027ZM46.3197 34.3393L46.3188 23.0401L36.6675 19.1488L27.0163 23.0401V34.3108C27.0147 34.3877 26.9031 39.5794 29.9822 42.7737C31.6038 44.4554 33.8525 45.3081 36.6675 45.3081C39.5018 45.3081 41.762 44.4491 43.3848 42.7567C46.4598 39.5489 46.3212 34.391 46.3197 34.3393ZM44.5919 43.9314C42.6405 45.9679 39.9741 47 36.6675 47C33.3768 47 30.7199 45.9713 28.7703 43.9425C25.196 40.2261 25.3303 34.5245 25.3379 34.2842V22.4674C25.3379 22.1214 25.5468 21.8101 25.8658 21.6815L36.3563 17.4518C36.5558 17.3714 36.7793 17.3714 36.9788 17.4518L47.4692 21.6815C47.7882 21.8101 47.9972 22.1214 47.9972 22.4674V34.3108C48.0049 34.5221 48.156 40.2136 44.5919 43.9314ZM10.2778 30.9269H22.8201V32.6189H10.2778C5.1769 32.6189 1.28285 29.191 1.02014 24.4681C1.00168 24.2752 1 24.0502 1 23.8252C1 18.0143 5.03083 15.875 7.38155 15.1221C7.36477 14.8505 7.35638 14.5756 7.35638 14.299C7.35638 9.68604 10.621 4.85989 14.949 3.07325C20.0314 0.975301 25.3899 1.99131 29.278 5.78622C30.5881 7.07288 31.5866 8.4467 32.3093 9.96012C33.3216 9.08454 34.5436 8.6142 35.8528 8.6142C38.6261 8.6142 41.5601 10.8086 42.0646 15.0121C43.8965 15.4774 46.1965 16.4654 47.8193 18.5634L46.4967 19.6039C45.0009 17.6701 42.7446 16.8647 41.1155 16.528C40.7419 16.4519 40.4676 16.1321 40.4455 15.7498C40.2269 12.0098 37.9111 10.3061 35.8528 10.3061C34.6256 10.3061 33.5379 10.8898 32.7064 11.9938C32.5208 12.2408 32.2186 12.3685 31.9132 12.3194C31.6101 12.2729 31.3549 12.064 31.2504 11.7738C30.6066 10.0058 29.5794 8.44418 28.109 7.00013C24.7151 3.6891 20.0305 2.80511 15.5851 4.63912C11.8513 6.18043 9.03485 10.3332 9.03485 14.299C9.03485 14.7566 9.06084 15.2092 9.11374 15.6432C9.16491 16.067 8.89304 16.4629 8.48182 16.5661C6.31491 17.1067 2.67847 18.7698 2.67847 23.8252C2.67847 23.9961 2.6768 24.1678 2.69358 24.3395C2.90675 28.17 6.09584 30.9269 10.2778 30.9269Z" fill="#009900"/>
</svg>
