<svg width="48" height="48" viewBox="0 0 48 48" fill="none" xmlns="http://www.w3.org/2000/svg">
<path fill-rule="evenodd" clip-rule="evenodd" d="M27.9218 6.71483H25.5381V5.11562H27.9218V2.7168H29.511V5.11562H31.8948V6.71483H29.511V9.11366H27.9218V6.71483ZM37.4569 15.5105H35.0732V13.9113H37.4569V11.5124H39.0459V13.9113H41.4296V15.5105H39.0459V17.9093H37.4569V15.5105ZM33.3185 40.7812C31.801 36.9254 28.2985 33.401 24.4654 31.8727C28.2985 30.3456 31.801 26.8209 33.3185 22.9644C34.8364 26.8209 38.3386 30.3456 42.1709 31.8727C38.3386 33.401 34.8364 36.9254 33.3185 40.7812ZM46.0738 31.073C40.485 31.073 34.1132 24.6612 34.1132 19.0368C34.1132 18.5953 33.7582 18.2371 33.3185 18.2371C32.8792 18.2371 32.5242 18.5953 32.5242 19.0368C32.5242 24.6612 26.1515 31.073 20.5625 31.073C20.1239 31.073 19.7679 31.4312 19.7679 31.8727C19.7679 32.3151 20.1239 32.6724 20.5625 32.6724C26.1515 32.6724 32.5242 39.0845 32.5242 44.7095C32.5242 45.1511 32.8792 45.5093 33.3185 45.5093C33.7582 45.5093 34.1132 45.1511 34.1132 44.7095C34.1132 39.0845 40.485 32.6724 46.0738 32.6724C46.5126 32.6724 46.8685 32.3151 46.8685 31.8727C46.8685 31.4312 46.5126 31.073 46.0738 31.073ZM2.49541 15.3194C4.80919 17.0129 9.30494 17.9093 13.6195 17.9093C17.934 17.9093 22.4297 17.0129 24.7435 15.3194V22.978C23.5986 24.51 19.3881 26.0197 13.7784 26.0197C7.32086 26.0197 2.49541 23.9887 2.49541 22.1728V15.3194ZM13.6195 9.11366C20.5116 9.11366 24.7435 11.2094 24.7435 12.7118C24.7435 14.2143 20.5116 16.3101 13.6195 16.3101C6.72734 16.3101 2.49541 14.2143 2.49541 12.7118C2.49541 11.2094 6.72734 9.11366 13.6195 9.11366ZM24.7435 39.1234C24.7435 40.9669 19.9848 43.0291 13.6155 43.0291C7.25094 43.0291 2.49541 40.9669 2.49541 39.1234V34.0142C4.83781 35.8019 9.42331 36.7488 13.8237 36.7488C16.8836 36.7488 19.8426 36.3136 22.1524 35.5239L21.6423 34.0092C19.4922 34.7441 16.7151 35.1494 13.8237 35.1494C7.33993 35.1494 2.49541 33.1185 2.49541 31.3026V24.889C4.83147 26.6738 9.39709 27.6189 13.7784 27.6189C18.4728 27.6189 22.4989 26.6458 24.7435 25.1049V27.5045H26.3327V12.7118C26.3327 9.33591 19.783 7.51444 13.6195 7.51444C7.70704 7.51444 1.45449 9.19521 0.955517 12.312H0.90625V39.1234C0.90625 42.6985 7.45436 44.628 13.6155 44.628C19.7806 44.628 26.3327 42.6985 26.3327 39.1234V36.3H24.7435V39.1234Z" fill="#009900"/>
</svg>
