<svg width="48" height="48" viewBox="0 0 48 48" fill="none" xmlns="http://www.w3.org/2000/svg">
<path fill-rule="evenodd" clip-rule="evenodd" d="M4.25447 20.4529H15.3161V18.7753H4.25447V20.4529ZM42.3218 32.6569L43.5253 33.8429L37.2064 40.0716C37.0394 40.235 36.8219 40.3172 36.6049 40.3172C36.387 40.3172 36.169 40.235 36.003 40.0716L32.8242 36.9389L34.0271 35.7528L36.6049 38.2927L42.3218 32.6569ZM46.2377 37.2793C46.0438 38.856 45.3938 40.323 44.3545 41.5226C43.6168 42.3751 42.6853 43.0796 41.6606 43.5592C40.2867 44.2023 38.76 44.4465 37.2397 44.2637C35.7605 44.0858 34.367 43.5104 33.2052 42.6004C30.9743 40.8515 29.8477 38.14 30.1906 35.3462C30.5148 32.7057 32.136 30.4023 34.5262 29.1844C35.6714 28.6015 36.9257 28.302 38.2026 28.302C38.5303 28.302 38.8604 28.3222 39.1896 28.3616C41.858 28.6828 44.1855 30.2924 45.4124 32.667C46.1486 34.091 46.4337 35.6866 46.2377 37.2793ZM46.9288 31.906C45.4438 29.0326 42.6275 27.085 39.3958 26.6966C37.441 26.461 35.4882 26.8065 33.745 27.6939C30.8535 29.1668 28.893 31.9524 28.5008 35.1446C28.0873 38.5205 29.4495 41.7997 32.1468 43.9141C33.5535 45.016 35.2433 45.7133 37.0325 45.9289C37.4293 45.9763 37.826 46 38.2213 46C39.6613 46 41.0831 45.6862 42.3909 45.0741C43.6306 44.4934 44.7581 43.6414 45.649 42.6115C46.9058 41.1605 47.6934 39.3865 47.9275 37.4804C48.1641 35.5556 47.8188 33.6283 46.9288 31.906ZM12.7635 25.4855H16.167V23.8079H12.7635V25.4855ZM4.25447 25.4855H11.0617V23.8079H4.25447V25.4855ZM3.51933 3.67751H41.5783C42.5804 3.67751 43.3959 4.65639 43.3959 5.85919V12.0652H40.8431V7.87134C40.8431 7.40837 40.4626 7.03258 39.9924 7.03258H20.4215C19.951 7.03258 19.5706 7.40837 19.5706 7.87134V12.0652H1.7018V5.85919C1.7018 4.6765 2.53484 3.67751 3.51933 3.67751ZM30.2196 11.822C32.1953 11.822 33.8028 13.3904 33.8028 15.3179C33.8028 16.5887 33.0921 17.7579 31.9484 18.3702C30.8629 18.9515 29.5542 18.9439 28.4829 18.371C27.3436 17.7571 26.6365 16.5878 26.6365 15.3179C26.6365 13.3904 28.243 11.822 30.2196 11.822ZM1.7018 30.0148V13.7427H19.5706V28.0018C19.5706 28.4656 19.951 28.8405 20.4215 28.8405H29.3168V27.163H22.2101C22.2841 23.8063 24.545 20.9066 27.8005 19.9806C29.3049 20.6743 31.1011 20.681 32.6283 19.9798C34.4817 20.5082 36.1034 21.7303 37.1084 23.3684L38.5641 22.4995C37.5331 20.8211 35.9682 19.5109 34.1535 18.7493C35.0043 17.8183 35.5043 16.6071 35.5043 15.3179C35.5043 12.4653 33.1332 10.1444 30.2196 10.1444C27.3053 10.1444 24.9347 12.4653 24.9347 15.3179C24.9347 16.6021 25.4299 17.8091 26.2748 18.7401C24.0004 19.6846 22.2237 21.4552 21.2724 23.6385V8.71014H39.1411V22.1304H40.8431V13.7427H43.3959L43.3964 26.3242H45.0985L45.0975 5.85919C45.0975 3.73123 43.5189 2 41.5783 2H3.51933C1.57842 2 0 3.73123 0 5.85919V30.0148C0 32.1429 1.57842 33.8729 3.51933 33.8729H26.3778V32.1956H3.51933C2.53484 32.1956 1.7018 31.1976 1.7018 30.0148Z" fill="#009900"/>
</svg>
