<svg width="48" height="48" viewBox="0 0 48 48" fill="none" xmlns="http://www.w3.org/2000/svg">
<g clip-path="url(#clip0_711_6165)">
<path fill-rule="evenodd" clip-rule="evenodd" d="M2.92629 1.71429L10.8917 9.67969L9.67969 10.8917L1.71429 2.92629V9.42857H0V0.857143C0 0.384 0.383167 0 0.857143 0H9.42857V1.71429H2.92629ZM48 0.857143V9.42857H46.2857V2.92629L38.3202 10.8917L37.1084 9.67969L45.0735 1.71429H38.5714V0H47.1429C47.617 0 48 0.384 48 0.857143ZM46.2857 38.5714H48V47.1429C48 47.616 47.617 48 47.1429 48H38.5714V46.2857H45.0735L37.1084 38.3202L38.3202 37.1084L46.2857 45.0735V38.5714ZM45.8571 23.3255C45.8571 20.4806 42.5726 17.67 37.0717 15.8074L37.6207 14.184C43.944 16.3243 47.5714 19.656 47.5714 23.3255C47.5714 26.9957 43.944 30.3283 37.6198 32.4676L37.0707 30.8434C42.5726 28.9817 45.8571 26.172 45.8571 23.3255ZM2.19086 23.3255C2.19086 26.0512 5.26545 28.7871 10.416 30.6454L9.83398 32.2575C3.88712 30.1123 0.476571 26.8569 0.476571 23.3255C0.476571 19.7949 3.88712 16.5394 9.83398 14.3931L10.416 16.0055C5.26545 17.8646 2.19086 20.6006 2.19086 23.3255ZM10.8917 38.3202L2.92629 46.2857H9.42857V48H0.857143C0.383167 48 0 47.616 0 47.1429V38.5714H1.71429V45.0735L9.67969 37.1084L10.8917 38.3202ZM24 16.5309C17.8749 16.5309 14.5714 14.9486 14.5714 14.3023C14.5714 13.6552 17.8749 12.0737 24 12.0737C30.1243 12.0737 33.4286 13.6552 33.4286 14.3023C33.4286 14.9486 30.1243 16.5309 24 16.5309ZM24.0248 23.1694C18.1603 23.1694 14.5714 21.5674 14.5714 20.6957V16.5291C16.6826 17.694 20.4274 18.2451 24 18.2451C27.5726 18.2451 31.3174 17.694 33.4286 16.5291V20.6957C33.4286 21.5683 29.8585 23.1694 24.0248 23.1694ZM24.0248 29.7145C18.1603 29.7145 14.5714 28.1126 14.5714 27.2408V23.0246C16.6551 24.2494 20.3503 24.8837 24.0248 24.8837C27.6789 24.8837 31.3528 24.2503 33.4286 23.0289V27.2408C33.4286 28.1134 29.8585 29.7145 24.0248 29.7145ZM24 35.5871C17.8997 35.5871 14.5714 33.9473 14.5714 33.1048V29.5697C16.6551 30.7946 20.3503 31.4287 24.0248 31.4287C27.6789 31.4287 31.3528 30.7963 33.4286 29.574V33.1048C33.4286 33.9473 30.1003 35.5871 24 35.5871ZM24 10.3594C18.6334 10.3594 12.8571 11.5929 12.8571 14.3023V33.1048C12.8571 35.8594 18.4629 37.3014 24 37.3014C29.5371 37.3014 35.1429 35.8594 35.1429 33.1048V14.3023C35.1429 11.5929 29.3666 10.3594 24 10.3594Z" fill="#009900"/>
</g>
<defs>
<clipPath id="clip0_711_6165">
<rect width="48" height="48" fill="white"/>
</clipPath>
</defs>
</svg>
