<svg width="48" height="48" viewBox="0 0 48 48" fill="none" xmlns="http://www.w3.org/2000/svg">
<path fill-rule="evenodd" clip-rule="evenodd" d="M35.6406 46.2859C33.8177 46.2859 32.327 44.7856 32.327 42.9344C32.327 41.0827 33.8091 39.5829 35.6406 39.5829C37.472 39.5829 38.9542 41.0827 38.9542 42.9344C38.9542 44.7856 37.472 46.2859 35.6406 46.2859ZM28.3828 31.7143H19.5831L15.1791 24L19.5831 16.2857H28.3828L32.7869 24L28.3828 31.7143ZM13.4584 8.41712C11.6354 8.41712 10.1446 6.91712 10.1446 5.06571C10.1446 3.21429 11.6269 1.71429 13.4584 1.71429C15.2898 1.71429 16.772 3.21429 16.772 5.06571C16.772 6.91712 15.2898 8.41712 13.4584 8.41712ZM35.6406 37.8688C35.0099 37.8688 34.4141 37.9888 33.8599 38.2027L30.2654 32.0571L30.0779 32.1685L34.4991 24.42C34.6526 24.1543 34.6526 23.8286 34.4991 23.5629L29.6094 14.9914C29.4561 14.7257 29.175 14.5629 28.8768 14.5629H19.975L20.0091 14.5457L16.7124 8.91429C17.7857 7.98859 18.4757 6.6 18.4757 5.06571C18.4757 2.27141 16.2269 0 13.4669 0C10.7069 0 8.45794 2.27141 8.45794 5.06571C8.45794 7.86 10.7069 10.1314 13.4669 10.1314C14.0972 10.1314 14.6935 10.0114 15.2472 9.79712L18.3224 15.0514L13.4584 23.5714C13.305 23.8371 13.305 24.1629 13.4584 24.4286L18.3479 33C18.5013 33.2656 18.7824 33.4288 19.0806 33.4288H28.8598C28.9279 33.4288 28.9961 33.4197 29.0643 33.4027L32.3949 39.0859C31.3131 40.0112 30.6316 41.4 30.6316 42.9344C30.6316 45.7285 32.8806 48 35.6406 48C38.4005 48 40.6492 45.7285 40.6492 42.9344C40.6492 40.1397 38.4005 37.8688 35.6406 37.8688ZM40.692 17.2286C38.8691 17.2286 37.3784 15.7286 37.3784 13.8771C37.3784 12.0257 38.8605 10.5257 40.692 10.5257C42.5234 10.5257 44.0056 12.0257 44.0056 13.8771C44.0056 15.7286 42.5234 17.2286 40.692 17.2286ZM46.8934 23.5714L43.682 17.9314C44.8999 17.0057 45.7006 15.5314 45.7006 13.8771C45.7006 11.0829 43.452 8.81141 40.692 8.81141C39.9934 8.81141 39.3205 8.95712 38.7156 9.22288L36.092 4.62859C35.9385 4.36288 35.6577 4.2 35.3592 4.2H24.8561V5.91429H34.8655L37.2933 10.1657C36.3049 11.0914 35.6833 12.4114 35.6833 13.8771C35.6833 16.6714 37.932 18.9429 40.6834 18.9429C41.1948 18.9429 41.697 18.8657 42.1656 18.72L45.1813 24L40.9477 31.4143L42.4127 32.2715L46.8849 24.4286C47.0384 24.1629 47.0384 23.8371 46.8849 23.5714H46.8934ZM8.01501 37.0715C6.19202 37.0715 4.7013 35.5712 4.7013 33.72C4.7013 31.8686 6.18351 30.3686 8.01501 30.3686C9.8465 30.3686 11.3287 31.8686 11.3287 33.72C11.3287 35.5712 9.8465 37.0715 8.01501 37.0715ZM10.7835 37.9371C12.1294 37.0288 13.0239 35.4773 13.0239 33.72C13.0239 30.9257 10.775 28.6543 8.01501 28.6543C7.21423 28.6543 6.46465 28.8514 5.79166 29.1857L2.82723 24L7.73387 15.4029L6.26872 14.5457L1.11501 23.5714C0.961662 23.8371 0.961662 24.1629 1.11501 24.4286L4.41166 30.2057C3.54279 31.1143 3.00609 32.3573 3.00609 33.72C3.00609 36.5141 5.25501 38.7856 8.01501 38.7856C8.43243 38.7856 8.83279 38.7259 9.22465 38.6315L11.925 43.3627C12.0784 43.6288 12.3594 43.7915 12.6576 43.7915H23.1609V42.0773H13.1517L10.792 37.9371H10.7835Z" fill="#009900"/>
</svg>
