<svg width="48" height="48" viewBox="0 0 48 48" fill="none" xmlns="http://www.w3.org/2000/svg">
<path fill-rule="evenodd" clip-rule="evenodd" d="M22.0566 21.5391C21.6395 21.7815 21.38 22.2316 21.38 22.7147V46.0795L3.68521 36.1971V13.2275L23.548 1.73378L41.1929 10.466L22.0566 21.5391ZM43.2468 10.444C43.2468 9.96009 42.988 9.50915 42.5212 9.24228L24.2137 0.180745C23.7958 -0.0599522 23.2767 -0.0608177 22.8596 0.181564L2.67663 11.8602C2.25954 12.1026 2 12.5527 2 13.0358V36.3924C2 36.8755 2.25954 37.3255 2.68925 37.5747L21.0328 47.8191C21.2418 47.9398 21.4769 48 21.7112 48C21.9445 48 22.1796 47.9398 22.3877 47.8191C22.8057 47.578 23.0652 47.1276 23.0652 46.6435V22.9064L42.5698 11.6196C42.988 11.378 43.2468 10.9279 43.2468 10.444ZM43.2877 36.2505L27.2783 46.0304V37.273L35.6258 31.8927L35.6831 31.5154C35.6985 31.4163 35.7043 31.4163 35.7043 30.9613L35.7303 20.5139L43.3137 16.125L43.2877 36.2505ZM44.3226 14.376C43.9039 14.132 43.3845 14.1328 42.9668 14.376L34.8939 19.047C34.641 19.1847 34.046 19.5081 34.046 20.1753L34.019 30.9199L26.3253 35.879C25.866 36.1523 25.5931 36.5859 25.5931 37.0435V46.5752C25.5931 47.0525 25.85 47.4875 26.2806 47.7363C26.5056 47.8657 26.7559 47.9317 27.0052 47.9317C27.2505 47.9317 27.4957 47.8691 27.7173 47.7406L44.298 37.6118C44.7153 37.3693 44.973 36.9193 44.973 36.4386L45 15.5507C45 15.0677 44.7403 14.6176 44.3226 14.376Z" fill="#009900"/>
</svg>
