<svg width="48" height="48" viewBox="0 0 48 48" fill="none" xmlns="http://www.w3.org/2000/svg">
<path fill-rule="evenodd" clip-rule="evenodd" d="M13.006 34.9918H33.4523V14.5456H13.006V34.9918ZM35.088 14.5456H38.3594V16.1813H35.088V19.4527H38.3594V21.0884H35.088V23.5419H38.3594V25.1776H35.088V28.449H38.3594V30.0847H35.088V33.3561H38.3594V34.9918H35.088V35.103C35.088 35.9438 34.4043 36.6275 33.5635 36.6275H33.4523V39.8989H31.8166V36.6275H28.5452V39.8989H26.9095V36.6275H24.4559V39.8989H22.8202V36.6275H19.5488V39.8989H17.9131V36.6275H14.6417V39.8989H13.006V36.6275H12.8948C12.0541 36.6275 11.3703 35.9438 11.3703 35.103V34.9918H8.91678V33.3561H11.3703V30.0847H8.91678V28.449H11.3703V25.1776H8.91678V23.5419H11.3703V21.0884H8.91678V19.4527H11.3703V16.1813H8.91678V14.5456H11.3703V14.4343C11.3703 13.5936 12.0541 12.9099 12.8948 12.9099H13.006V9.63846H14.6417V12.9099H17.9131V9.63846H19.5488V12.9099H22.8202V9.63846H24.4559V12.9099H26.9095V9.63846H28.5452V12.9099H31.8166V9.63846H33.4523V12.9099H33.5635C34.4043 12.9099 35.088 13.5936 35.088 14.4343V14.5456ZM24.4559 45.5224C24.4559 45.5781 24.4101 45.6239 24.3545 45.6239H2.47539C2.41978 45.6239 2.37398 45.5781 2.37398 45.5224V23.6433C2.37398 23.5877 2.41978 23.5419 2.47539 23.5419H7.28108V21.9062H2.47539C1.51767 21.9062 0.738281 22.6856 0.738281 23.6433V45.5224C0.738281 46.48 1.51767 47.2596 2.47539 47.2596H24.3545C25.3122 47.2596 26.0916 46.48 26.0916 45.5224V41.5346H24.4559V45.5224ZM46.5379 3.19707V25.0762C46.5379 26.0339 45.7584 26.8133 44.8008 26.8133H39.9951V25.1776H44.8008C44.8564 25.1776 44.9022 25.1318 44.9022 25.0762V3.19707C44.9022 3.14146 44.8564 3.09566 44.8008 3.09566H22.9216C22.866 3.09566 22.8202 3.14146 22.8202 3.19707V8.00276H21.1845V3.19707C21.1845 2.23935 21.964 1.45996 22.9216 1.45996H44.8008C45.7584 1.45996 46.5379 2.23935 46.5379 3.19707Z" fill="#009900"/>
</svg>
