<svg width="48" height="48" viewBox="0 0 48 48" fill="none" xmlns="http://www.w3.org/2000/svg">
<path fill-rule="evenodd" clip-rule="evenodd" d="M29.8756 16.3641L24.1692 23.2803L30.1678 30.5686H27.6688L22.3076 24.0003V30.5457H20.0512V16.3641H22.3076V22.0814L27.3428 16.3641H29.8756ZM43.7435 28.7806L36.9742 25.5079V16.3641C36.9742 15.9681 36.7519 15.6026 36.3934 15.4106L26.8204 10.2682V2.99952L43.7435 12.6245V28.7806ZM45.4435 11.0602L26.2642 0.1512C25.9167 -0.0462398 25.4835 -0.0494928 25.1326 0.144694C24.7806 0.338827 24.564 0.699946 24.564 1.09157V10.9096C24.564 11.3056 24.7863 11.671 25.1451 11.863L34.7177 17.0055V26.1821C34.7177 26.5956 34.9593 26.973 35.3416 27.1585L44.3674 31.522C44.5262 31.5984 44.6989 31.6366 44.8715 31.6366C45.0783 31.6366 45.2835 31.582 45.4639 31.474C45.797 31.2744 46 30.9242 46 30.5457V12.0005C46 11.6143 45.7876 11.2565 45.4435 11.0602ZM23.4358 45.6304L4.2564 34.2971V12.6049L20.0512 3.05952V10.3053L11.5559 15.439C11.2264 15.6386 11.0256 15.9877 11.0256 16.3641V30.5457C11.0256 30.9286 11.2343 31.2842 11.5728 31.4806L22.8548 38.0261C23.1978 38.2256 23.6242 38.2341 23.9762 38.0491L35.8324 31.7958L41.5263 34.9408L23.4358 45.6304ZM44.3028 33.9621L36.4055 29.5988C36.0647 29.4101 35.6488 29.4068 35.3057 29.5879L23.4618 35.8341L13.282 29.9283V16.9684L21.7774 11.8347C22.1068 11.635 22.3076 11.286 22.3076 10.9096V1.09157C22.3076 0.694506 22.0854 0.330134 21.7255 0.137014C21.369 -0.056053 20.9289 -0.0440542 20.5815 0.166506L2.53027 11.0754C2.20082 11.275 2 11.6242 2 12.0005V34.9093C2 35.2891 2.20535 35.6411 2.54042 35.8411L22.8481 47.8405C23.0285 47.9467 23.2316 48 23.4358 48C23.64 48 23.8431 47.9467 24.0236 47.8405L44.331 35.8411C44.6718 35.6389 44.877 35.2789 44.8715 34.8928C44.866 34.5077 44.6492 34.1531 44.3028 33.9621Z" fill="#009900"/>
</svg>
