<svg width="48" height="48" viewBox="0 0 48 48" fill="none" xmlns="http://www.w3.org/2000/svg">
<path fill-rule="evenodd" clip-rule="evenodd" d="M20.3091 23.3639C20.5234 23.5772 20.6143 23.8885 20.5517 24.1885L19.6731 28.3541L23.5517 25.9002C23.8269 25.725 24.1731 25.725 24.4491 25.901L28.2994 28.3488L27.4465 24.1761C27.3865 23.8797 27.4766 23.5727 27.6857 23.3613L31.1477 19.8635L26.634 19.1912C26.3529 19.1488 26.1112 18.9665 25.986 18.7038L23.9923 14.4912L21.9514 18.7144C21.8272 18.9736 21.5863 19.1532 21.3086 19.1948L16.8077 19.8732L20.3091 23.3639ZM17.5706 30.0039L18.7749 24.2937L14.3623 19.8945C14.1266 19.6601 14.0417 19.3089 14.1411 18.9869C14.2414 18.6658 14.5097 18.4314 14.8329 18.3836L20.6169 17.5105L23.2328 12.0975C23.3777 11.7968 23.652 11.5897 24.0034 11.6074C24.3291 11.6092 24.6265 11.8021 24.7697 12.1037L27.3274 17.5069L33.1078 18.3694C33.431 18.4172 33.6985 18.6498 33.7998 18.9701C33.9007 19.2903 33.8185 19.6415 33.5843 19.8768L29.2208 24.2858L30.3891 30.0004C30.4594 30.3471 30.324 30.7036 30.0429 30.9071C29.7634 31.1105 29.3931 31.122 29.1009 30.9372L23.9992 27.6924L18.8563 30.946C18.7192 31.0336 18.5632 31.0769 18.408 31.0769C18.234 31.0769 18.06 31.0221 17.9117 30.9132C17.6323 30.708 17.4977 30.3498 17.5706 30.0039ZM1.71429 7.21086H46.2857V2.76923H1.71429V7.21086ZM48 1.88462V46.1154C48 46.6037 47.616 47 47.1429 47H42V45.2308H46.2857V8.981H1.71429V45.2308H34.2857V47H0.857143C0.383167 47 0 46.6037 0 46.1154V1.88462C0 1.39631 0.383167 1 0.857143 1H47.1429C47.616 1 48 1.39631 48 1.88462ZM10.2857 40.8077H15.4286V39.0385H10.2857V40.8077ZM18.8571 40.8077H30.8571V39.0385H18.8571V40.8077ZM10.2857 36.3846H15.4286V34.6154H10.2857V36.3846ZM18.8571 36.3846H37.7143V34.6154H18.8571V36.3846Z" fill="#009900"/>
</svg>
