<svg width="48" height="48" viewBox="0 0 48 48" fill="none" xmlns="http://www.w3.org/2000/svg">
<path fill-rule="evenodd" clip-rule="evenodd" d="M36.3825 27.3952L30.5533 35.5614H33.182L37.5663 29.0856L36.3825 27.3952ZM44.2288 35.5614H47L40.1092 25.6492L46.3842 16.8037H43.7922L38.8324 23.963L37.5055 25.8211L44.2288 35.5614ZM37.7318 22.3748L33.8732 16.8037H31.1368L36.3509 24.2346L37.7318 22.3748ZM19.9665 23.884C18.2917 23.2245 17.0616 22.4379 16.2779 21.5242C15.4942 20.6113 15.1033 19.4833 15.1033 18.1401C15.1033 16.3144 15.7507 14.8342 17.0455 13.7004C18.3395 12.5674 20.0431 12 22.1549 12C23.1124 12 24.1184 12.1154 25.1747 12.3472C26.2293 12.5781 27.2251 12.9029 28.1613 13.3207V15.0045C25.9413 14.212 23.9719 13.8158 22.252 13.8158C20.5764 13.8158 19.2927 14.1846 18.4008 14.9214C17.5081 15.6598 17.0616 16.7098 17.0616 18.0745C17.0616 18.8453 17.1979 19.4667 17.4705 19.9393C17.7414 20.4128 18.1887 20.8422 18.808 21.2268C19.429 21.6122 20.3157 22.0251 21.4691 22.4645L24.9626 23.8184C26.5292 24.4348 27.6715 25.1882 28.3896 26.0803C29.1077 26.9708 29.4672 28.088 29.4672 29.4303C29.4672 31.3897 28.7542 32.9741 27.329 34.184C25.903 35.3943 24.0256 36 21.6975 36C19.2816 36 17.1273 35.5372 15.2336 34.6126V32.9299C17.5182 33.7663 19.6189 34.184 21.5339 34.184C23.3398 34.184 24.7828 33.7549 25.8596 32.8967C26.9372 32.0385 27.4756 30.8723 27.4756 29.3979C27.4756 28.495 27.1817 27.725 26.5947 27.0862C26.0061 26.4483 25.0597 25.8768 23.7547 25.3701L19.9665 23.884ZM1 35.4385V12.5615H13.6985V14.3117H2.92606V23.0592H12.034V24.8086H2.92606V35.4385H1Z" fill="#009900"/>
</svg>
