<svg width="48" height="48" viewBox="0 0 48 48" fill="none" xmlns="http://www.w3.org/2000/svg">
<path fill-rule="evenodd" clip-rule="evenodd" d="M36.9081 29.693C36.9081 26.4091 34.1638 23.7376 30.7904 23.7376C27.4171 23.7376 24.6736 26.4091 24.6736 29.693C24.6736 32.977 27.4171 35.6482 30.7904 35.6482C34.1638 35.6482 36.9081 32.977 36.9081 29.693ZM38.6312 29.693C38.6312 33.9019 35.114 37.3258 30.7904 37.3258C26.4676 37.3258 22.9504 33.9019 22.9504 29.693C22.9504 25.484 26.4676 22.06 30.7904 22.06C35.114 22.06 38.6312 25.484 38.6312 29.693ZM45.8655 41.1979L39.8582 35.9304C39.3733 36.5952 38.812 37.2029 38.1894 37.7453L44.188 43.0118C44.6998 43.4616 45.4957 43.4198 45.9586 42.9216C46.4185 42.4234 46.3774 41.6491 45.8655 41.1979ZM30.7904 38.8358C35.9697 38.8358 40.1829 34.7342 40.1829 29.693C40.1829 24.651 35.9697 20.5502 30.7904 20.5502C25.612 20.5502 21.3986 24.651 21.3986 29.693C21.3986 34.7342 25.612 38.8358 30.7904 38.8358ZM47.2389 44.0448C46.6512 44.6779 45.8386 45 45.0245 45C44.3143 45 43.6027 44.7552 43.035 44.2584L36.7974 38.783C35.0631 39.8731 33.0049 40.5134 30.7904 40.5134C24.6616 40.5134 19.6753 35.6592 19.6753 29.693C19.6753 23.7267 24.6616 18.8726 30.7904 18.8726C36.9199 18.8726 41.9065 23.7267 41.9065 29.693C41.9065 31.405 41.4848 33.0187 40.7545 34.4592L47.019 39.9523C48.2356 41.0232 48.3341 42.8578 47.2389 44.0448ZM7.95459 15.0897C7.95459 15.5259 7.98217 15.9604 8.03472 16.3806C8.06484 16.6197 7.98902 16.8587 7.82533 17.039C7.69524 17.1825 7.52034 17.2773 7.32902 17.3091C5.21026 17.8418 1.72325 19.4539 1.72325 24.2903C1.72325 27.9424 3.79205 29.958 5.52824 31.0065C6.12104 31.3704 6.82238 31.5643 7.56256 31.572L17.953 31.5811L17.9512 33.2587L7.55305 33.2496C6.48549 33.2386 5.4722 32.9549 4.61491 32.4293C2.89421 31.3901 0 28.9473 0 24.2903C0 18.6764 3.94281 16.6012 6.25715 15.8681C6.23991 15.6098 6.23134 15.3497 6.23134 15.0897C6.23134 10.5033 9.42711 5.74646 13.6646 4.02614C18.6207 2.00466 23.8715 3.007 27.7083 6.70521C28.8974 7.85097 29.8753 9.24254 30.6258 10.8522C31.634 10.0394 32.8766 9.59063 34.1858 9.59063C36.7597 9.59063 39.6564 11.4922 40.1726 15.6509C42.5824 16.1919 47.6748 18.0825 47.6748 24.355C47.6748 26.8595 46.8686 28.928 45.2768 30.5033L44.0484 29.3265C45.3116 28.0766 45.9517 26.4041 45.9517 24.355C45.9517 18.8685 41.2335 17.5037 39.2033 17.1724C38.9726 17.1347 38.7684 17.0072 38.6366 16.8193C38.5078 16.6381 38.4588 16.4159 38.4975 16.2003C38.2159 12.7948 36.1377 11.2682 34.1858 11.2682C32.955 11.2682 31.8 11.852 31.0178 12.8703C30.8274 13.1169 30.5181 13.2427 30.201 13.1974C29.8883 13.1521 29.6254 12.9424 29.5177 12.653C28.8121 10.7498 27.7954 9.14942 26.496 7.89796C23.171 4.69295 18.6242 3.82396 14.3289 5.57452C10.754 7.02561 7.95459 11.2044 7.95459 15.0897Z" fill="#009900"/>
</svg>
