<svg width="48" height="48" viewBox="0 0 48 48" fill="none" xmlns="http://www.w3.org/2000/svg">
<g clip-path="url(#clip0_711_5451)">
<path fill-rule="evenodd" clip-rule="evenodd" d="M18.9129 37.3989H21.4286V35.6704H18.9129V37.3989ZM23.1429 37.3989H25.7143V35.6704H23.1429V37.3989ZM12.8571 2.25381L1.71429 7.78464V42.1659L12.8571 45.9339V2.25381ZM14.5714 13.1944V35.6704H17.1429V37.3989H14.5714V47.1355C14.5714 47.4139 14.4386 47.6752 14.2149 47.8373C14.0674 47.9445 13.8917 48 13.7143 48C13.6234 48 13.5309 47.9851 13.4417 47.9552L0.584587 43.6075C0.23488 43.4891 0 43.1589 0 42.7883V7.24608C0 6.91754 0.186026 6.61589 0.479146 6.47066L13.3363 0.0892246C13.6011 -0.0430421 13.9157 -0.0274704 14.1669 0.130716C14.418 0.28805 14.5714 0.565544 14.5714 0.864638V11.4655H17.1429V13.1944H14.5714ZM27.4286 37.3989H30V35.6704H27.4286V37.3989ZM27.4843 13.1944H30V11.4655H27.4843V13.1944ZM23.1986 13.1944H25.7143V11.4655H23.1986V13.1944ZM18.9129 13.1944H21.4286V11.4655H18.9129V13.1944ZM46.2859 7.78464L35.1429 2.25381V45.9339L46.2859 42.1659V7.78464ZM48 42.7883C48 43.1589 47.7653 43.4891 47.4155 43.6075L34.5584 47.9552C34.4693 47.9851 34.3765 48 34.2859 48C34.1083 48 33.9328 47.9445 33.7851 47.8373C33.5616 47.6752 33.4288 47.4139 33.4288 47.1355V37.3989H31.77V35.6704H33.4288V13.1944H31.77V11.4655H33.4288V0.864638C33.4288 0.565544 33.5819 0.28805 33.8331 0.130716C34.0843 -0.0274704 34.3979 -0.0430421 34.6635 0.0892246L47.5211 6.47066C47.8139 6.61589 48 6.91754 48 7.24608V42.7883ZM26.5149 18.6915L24.9137 18.0708L20.628 29.3087L22.2291 29.9294L26.5149 18.6915ZM32.3205 24.179C32.6555 23.841 32.6555 23.2938 32.3205 22.9567L28.8917 19.4989L27.6797 20.7212L30.5023 23.5678L27.6797 26.4145L28.8917 27.6369L32.3205 24.179ZM19.1083 27.6369L15.6797 24.179C15.3446 23.841 15.3446 23.2938 15.6797 22.9567L19.1083 19.4989L20.3203 20.7212L17.4977 23.5678L20.3203 26.4145L19.1083 27.6369Z" fill="#009900"/>
</g>
<defs>
<clipPath id="clip0_711_5451">
<rect width="48" height="48" fill="white"/>
</clipPath>
</defs>
</svg>
