<svg width="48" height="48" viewBox="0 0 48 48" fill="none" xmlns="http://www.w3.org/2000/svg">
<path d="M36.7412 16.1882C36.4138 13.3318 35.1401 10.6767 33.0666 8.58861C30.6306 6.17016 27.4109 4.83789 24 4.83789C17.4272 4.83789 11.9927 9.80883 11.2595 16.1882C5.81397 16.5691 1.5 21.1218 1.5 26.6626C1.5 31.8115 5.32544 36.2668 10.3982 37.0256C11.2156 37.1494 11.9802 36.584 12.1033 35.7644C12.2263 34.9455 11.6616 34.1816 10.842 34.0593C7.2268 33.5181 4.5 30.3379 4.5 26.6626C4.5 22.5273 7.86474 19.1626 12 19.1626H12.6753C13.5037 19.1626 14.1753 18.491 14.1753 17.6626C14.1753 12.2456 18.583 7.83789 24 7.83789C26.6133 7.83789 29.083 8.86035 30.9456 10.7097C32.8022 12.5796 33.8247 15.0493 33.8247 17.6626C33.8247 18.491 34.4963 19.1626 35.3247 19.1626H36C40.1353 19.1626 43.5 22.5273 43.5 26.6626C43.5 30.3379 40.7732 33.5181 37.158 34.0593C36.3384 34.1816 35.7737 34.9455 35.8967 35.7644C36.0081 36.5085 36.6475 37.0425 37.3777 37.0425C37.4517 37.0425 37.5264 37.0373 37.6018 37.0256C42.6746 36.2668 46.5 31.8115 46.5 26.6626C46.5 21.1218 42.186 16.5698 36.7412 16.1882Z" fill="#009900"/>
<path d="M24.0017 20.7168C20.4868 20.7168 17.6267 23.5769 17.6267 27.0918V28.5918H15.6602C14.8318 28.5918 14.1602 29.2634 14.1602 30.0918V41.6626C14.1602 42.491 14.8318 43.1626 15.6602 43.1626H32.3433C33.1716 43.1626 33.8433 42.491 33.8433 41.6626V30.0918C33.8433 29.2634 33.1716 28.5918 32.3433 28.5918H30.3767V27.0918C30.3767 23.5769 27.5166 20.7168 24.0017 20.7168ZM20.6267 27.0918C20.6267 25.2307 22.1406 23.7168 24.0017 23.7168C25.8628 23.7168 27.3767 25.2307 27.3767 27.0918V28.5918H20.6267V27.0918ZM30.8433 40.1626H17.1602V31.5918H19.1267H28.8767H30.8433V40.1626Z" fill="#009900"/>
</svg>
