<svg width="48" height="48" viewBox="0 0 48 48" fill="none" xmlns="http://www.w3.org/2000/svg">
<mask id="path-1-outside-1_537_1465" maskUnits="userSpaceOnUse" x="13.0703" y="22.5713" width="22" height="22" fill="black">
<rect fill="white" x="13.0703" y="22.5713" width="22" height="22"/>
<path d="M33.7362 31.2574L31.9657 30.9349C31.895 30.7426 31.8172 30.5531 31.7327 30.3684L32.756 28.8903C32.8797 28.7115 32.9368 28.495 32.9173 28.2784C32.8977 28.0618 32.8028 27.859 32.649 27.7052L30.3647 25.4218C30.2112 25.2678 30.0084 25.1726 29.7918 25.1531C29.5752 25.1335 29.3586 25.1908 29.18 25.3149L27.7017 26.337C27.5168 26.2527 27.3277 26.175 27.1345 26.104L26.813 24.3339C26.7741 24.12 26.6614 23.9265 26.4945 23.7871C26.3276 23.6477 26.1171 23.5714 25.8997 23.5713H22.6695C22.4521 23.5713 22.2415 23.6477 22.0745 23.787C21.9076 23.9264 21.7949 24.12 21.756 24.3339L21.4345 26.104C21.2414 26.1747 21.0523 26.2524 20.8673 26.337L19.3887 25.3142C19.21 25.1903 18.9935 25.1332 18.777 25.1527C18.5604 25.1723 18.3576 25.2673 18.204 25.4212L15.9202 27.7045C15.7664 27.8583 15.6715 28.0611 15.6519 28.2777C15.6324 28.4943 15.6895 28.7109 15.8132 28.8897L16.8365 30.3678C16.7522 30.5528 16.6742 30.7424 16.6035 30.9342L14.8329 31.257C14.6189 31.2957 14.4253 31.4084 14.2859 31.5754C14.1465 31.7423 14.0702 31.953 14.0703 32.1705V35.4006C14.0703 35.6181 14.1466 35.8287 14.286 35.9956C14.4254 36.1625 14.619 36.2751 14.8329 36.3138L16.6035 36.6366C16.6742 36.8288 16.752 37.0183 16.8365 37.203L15.8132 38.6802C15.6895 38.859 15.6324 39.0756 15.6519 39.2922C15.6715 39.5088 15.7664 39.7116 15.9202 39.8654L18.204 42.1497C18.3579 42.3032 18.5606 42.3979 18.777 42.4175C18.9934 42.437 19.2099 42.3801 19.3887 42.2567L20.8675 41.2341C21.0524 41.3184 21.2415 41.3961 21.4347 41.4672L21.7562 43.2372C21.795 43.4512 21.9078 43.6447 22.0747 43.7841C22.2416 43.9234 22.4521 43.9998 22.6695 43.9999H25.8997C26.1171 43.9998 26.3277 43.9235 26.4946 43.7841C26.6616 43.6447 26.7743 43.4512 26.8132 43.2372L27.1347 41.4672C27.3278 41.3964 27.5169 41.3187 27.7019 41.2341L29.1805 42.2569C29.3593 42.3804 29.5758 42.4373 29.7922 42.4177C30.0086 42.3982 30.2113 42.3034 30.3652 42.15L32.6494 39.8657C32.8033 39.7119 32.8982 39.509 32.9178 39.2924C32.9373 39.0758 32.8802 38.8593 32.7564 38.6804L31.7331 37.2033C31.8174 37.0182 31.8954 36.8287 31.9662 36.6368L33.7367 36.3141C33.9507 36.2753 34.1442 36.1626 34.2835 35.9956C34.4228 35.8287 34.499 35.6181 34.4989 35.4006V32.1705C34.4989 31.9531 34.4226 31.7425 34.2832 31.5756C34.1438 31.4087 33.9502 31.2961 33.7362 31.2574ZM32.6417 34.6253L31.091 34.9082C30.9212 34.9389 30.7632 35.0163 30.635 35.1318C30.5067 35.2473 30.4133 35.3963 30.3651 35.562C30.2377 36.0033 30.0625 36.4294 29.8424 36.8325C29.7593 36.9838 29.72 37.1552 29.729 37.3275C29.7379 37.4999 29.7948 37.6663 29.8932 37.8081L30.7881 39.1003L29.6002 40.2889L28.3067 39.3941C28.1649 39.296 27.9986 39.2393 27.8264 39.2303C27.6542 39.2214 27.4829 39.2605 27.3317 39.3434C26.9284 39.5639 26.5021 39.7393 26.0604 39.8666C25.8947 39.9148 25.7457 40.0082 25.6301 40.1364C25.5146 40.2645 25.437 40.4223 25.4061 40.5921L25.1248 42.1427H23.4441L23.1625 40.592C23.1316 40.4222 23.0541 40.2644 22.9385 40.1363C22.8229 40.0081 22.6739 39.9147 22.5082 39.8665C22.0666 39.7392 21.6402 39.5638 21.2369 39.3434C21.0857 39.2604 20.9144 39.2213 20.7422 39.2302C20.57 39.2392 20.4037 39.2959 20.2619 39.3941L18.9688 40.2891L17.7809 39.1005L18.676 37.8081C18.7743 37.6663 18.8311 37.4998 18.84 37.3275C18.8489 37.1551 18.8095 36.9837 18.7264 36.8325C18.5063 36.4294 18.331 36.0033 18.2037 35.562C18.1555 35.3963 18.062 35.2473 17.9338 35.1318C17.8055 35.0163 17.6476 34.9389 17.4777 34.9082L15.9275 34.6253V32.9459L17.4782 32.6629C17.648 32.6323 17.806 32.5549 17.9342 32.4394C18.0625 32.3239 18.1559 32.1749 18.2041 32.0091C18.3314 31.5678 18.5067 31.1418 18.7268 30.7387C18.8099 30.5875 18.8492 30.416 18.8402 30.2436C18.8313 30.0713 18.7744 29.9048 18.676 29.763L17.7811 28.4699L18.969 27.282L20.2621 28.177C20.4041 28.2747 20.5703 28.3312 20.7425 28.3402C20.9146 28.3491 21.0858 28.3102 21.2371 28.2277C21.6405 28.0073 22.0668 27.8319 22.5084 27.7045C22.6741 27.6564 22.8231 27.5629 22.9387 27.4348C23.0542 27.3066 23.1318 27.1488 23.1627 26.9791L23.4444 25.4284H25.1251L25.4067 26.9791C25.4376 27.1489 25.5151 27.3067 25.6307 27.4349C25.7463 27.563 25.8953 27.6564 26.061 27.7046C26.5026 27.8319 26.9289 28.0074 27.3323 28.2278C27.4836 28.3102 27.6548 28.3491 27.8269 28.3402C27.999 28.3312 28.1653 28.2748 28.3073 28.1771L29.6004 27.282L30.7883 28.47L29.8932 29.763C29.7949 29.9049 29.7381 30.0713 29.7292 30.2437C29.7203 30.4161 29.7597 30.5875 29.8428 30.7387C30.0629 31.1418 30.2382 31.5678 30.3655 32.0091C30.4137 32.1749 30.5072 32.3239 30.6354 32.4394C30.7637 32.5549 30.9216 32.6323 31.0915 32.6629L32.6422 32.9459L32.6417 34.6253Z"/>
</mask>
<path d="M33.7362 31.2574L31.9657 30.9349C31.895 30.7426 31.8172 30.5531 31.7327 30.3684L32.756 28.8903C32.8797 28.7115 32.9368 28.495 32.9173 28.2784C32.8977 28.0618 32.8028 27.859 32.649 27.7052L30.3647 25.4218C30.2112 25.2678 30.0084 25.1726 29.7918 25.1531C29.5752 25.1335 29.3586 25.1908 29.18 25.3149L27.7017 26.337C27.5168 26.2527 27.3277 26.175 27.1345 26.104L26.813 24.3339C26.7741 24.12 26.6614 23.9265 26.4945 23.7871C26.3276 23.6477 26.1171 23.5714 25.8997 23.5713H22.6695C22.4521 23.5713 22.2415 23.6477 22.0745 23.787C21.9076 23.9264 21.7949 24.12 21.756 24.3339L21.4345 26.104C21.2414 26.1747 21.0523 26.2524 20.8673 26.337L19.3887 25.3142C19.21 25.1903 18.9935 25.1332 18.777 25.1527C18.5604 25.1723 18.3576 25.2673 18.204 25.4212L15.9202 27.7045C15.7664 27.8583 15.6715 28.0611 15.6519 28.2777C15.6324 28.4943 15.6895 28.7109 15.8132 28.8897L16.8365 30.3678C16.7522 30.5528 16.6742 30.7424 16.6035 30.9342L14.8329 31.257C14.6189 31.2957 14.4253 31.4084 14.2859 31.5754C14.1465 31.7423 14.0702 31.953 14.0703 32.1705V35.4006C14.0703 35.6181 14.1466 35.8287 14.286 35.9956C14.4254 36.1625 14.619 36.2751 14.8329 36.3138L16.6035 36.6366C16.6742 36.8288 16.752 37.0183 16.8365 37.203L15.8132 38.6802C15.6895 38.859 15.6324 39.0756 15.6519 39.2922C15.6715 39.5088 15.7664 39.7116 15.9202 39.8654L18.204 42.1497C18.3579 42.3032 18.5606 42.3979 18.777 42.4175C18.9934 42.437 19.2099 42.3801 19.3887 42.2567L20.8675 41.2341C21.0524 41.3184 21.2415 41.3961 21.4347 41.4672L21.7562 43.2372C21.795 43.4512 21.9078 43.6447 22.0747 43.7841C22.2416 43.9234 22.4521 43.9998 22.6695 43.9999H25.8997C26.1171 43.9998 26.3277 43.9235 26.4946 43.7841C26.6616 43.6447 26.7743 43.4512 26.8132 43.2372L27.1347 41.4672C27.3278 41.3964 27.5169 41.3187 27.7019 41.2341L29.1805 42.2569C29.3593 42.3804 29.5758 42.4373 29.7922 42.4177C30.0086 42.3982 30.2113 42.3034 30.3652 42.15L32.6494 39.8657C32.8033 39.7119 32.8982 39.509 32.9178 39.2924C32.9373 39.0758 32.8802 38.8593 32.7564 38.6804L31.7331 37.2033C31.8174 37.0182 31.8954 36.8287 31.9662 36.6368L33.7367 36.3141C33.9507 36.2753 34.1442 36.1626 34.2835 35.9956C34.4228 35.8287 34.499 35.6181 34.4989 35.4006V32.1705C34.4989 31.9531 34.4226 31.7425 34.2832 31.5756C34.1438 31.4087 33.9502 31.2961 33.7362 31.2574ZM32.6417 34.6253L31.091 34.9082C30.9212 34.9389 30.7632 35.0163 30.635 35.1318C30.5067 35.2473 30.4133 35.3963 30.3651 35.562C30.2377 36.0033 30.0625 36.4294 29.8424 36.8325C29.7593 36.9838 29.72 37.1552 29.729 37.3275C29.7379 37.4999 29.7948 37.6663 29.8932 37.8081L30.7881 39.1003L29.6002 40.2889L28.3067 39.3941C28.1649 39.296 27.9986 39.2393 27.8264 39.2303C27.6542 39.2214 27.4829 39.2605 27.3317 39.3434C26.9284 39.5639 26.5021 39.7393 26.0604 39.8666C25.8947 39.9148 25.7457 40.0082 25.6301 40.1364C25.5146 40.2645 25.437 40.4223 25.4061 40.5921L25.1248 42.1427H23.4441L23.1625 40.592C23.1316 40.4222 23.0541 40.2644 22.9385 40.1363C22.8229 40.0081 22.6739 39.9147 22.5082 39.8665C22.0666 39.7392 21.6402 39.5638 21.2369 39.3434C21.0857 39.2604 20.9144 39.2213 20.7422 39.2302C20.57 39.2392 20.4037 39.2959 20.2619 39.3941L18.9688 40.2891L17.7809 39.1005L18.676 37.8081C18.7743 37.6663 18.8311 37.4998 18.84 37.3275C18.8489 37.1551 18.8095 36.9837 18.7264 36.8325C18.5063 36.4294 18.331 36.0033 18.2037 35.562C18.1555 35.3963 18.062 35.2473 17.9338 35.1318C17.8055 35.0163 17.6476 34.9389 17.4777 34.9082L15.9275 34.6253V32.9459L17.4782 32.6629C17.648 32.6323 17.806 32.5549 17.9342 32.4394C18.0625 32.3239 18.1559 32.1749 18.2041 32.0091C18.3314 31.5678 18.5067 31.1418 18.7268 30.7387C18.8099 30.5875 18.8492 30.416 18.8402 30.2436C18.8313 30.0713 18.7744 29.9048 18.676 29.763L17.7811 28.4699L18.969 27.282L20.2621 28.177C20.4041 28.2747 20.5703 28.3312 20.7425 28.3402C20.9146 28.3491 21.0858 28.3102 21.2371 28.2277C21.6405 28.0073 22.0668 27.8319 22.5084 27.7045C22.6741 27.6564 22.8231 27.5629 22.9387 27.4348C23.0542 27.3066 23.1318 27.1488 23.1627 26.9791L23.4444 25.4284H25.1251L25.4067 26.9791C25.4376 27.1489 25.5151 27.3067 25.6307 27.4349C25.7463 27.563 25.8953 27.6564 26.061 27.7046C26.5026 27.8319 26.9289 28.0074 27.3323 28.2278C27.4836 28.3102 27.6548 28.3491 27.8269 28.3402C27.999 28.3312 28.1653 28.2748 28.3073 28.1771L29.6004 27.282L30.7883 28.47L29.8932 29.763C29.7949 29.9049 29.7381 30.0713 29.7292 30.2437C29.7203 30.4161 29.7597 30.5875 29.8428 30.7387C30.0629 31.1418 30.2382 31.5678 30.3655 32.0091C30.4137 32.1749 30.5072 32.3239 30.6354 32.4394C30.7637 32.5549 30.9216 32.6323 31.0915 32.6629L32.6422 32.9459L32.6417 34.6253Z" fill="#009900"/>
<path d="M33.7362 31.2574L31.9657 30.9349C31.895 30.7426 31.8172 30.5531 31.7327 30.3684L32.756 28.8903C32.8797 28.7115 32.9368 28.495 32.9173 28.2784C32.8977 28.0618 32.8028 27.859 32.649 27.7052L30.3647 25.4218C30.2112 25.2678 30.0084 25.1726 29.7918 25.1531C29.5752 25.1335 29.3586 25.1908 29.18 25.3149L27.7017 26.337C27.5168 26.2527 27.3277 26.175 27.1345 26.104L26.813 24.3339C26.7741 24.12 26.6614 23.9265 26.4945 23.7871C26.3276 23.6477 26.1171 23.5714 25.8997 23.5713H22.6695C22.4521 23.5713 22.2415 23.6477 22.0745 23.787C21.9076 23.9264 21.7949 24.12 21.756 24.3339L21.4345 26.104C21.2414 26.1747 21.0523 26.2524 20.8673 26.337L19.3887 25.3142C19.21 25.1903 18.9935 25.1332 18.777 25.1527C18.5604 25.1723 18.3576 25.2673 18.204 25.4212L15.9202 27.7045C15.7664 27.8583 15.6715 28.0611 15.6519 28.2777C15.6324 28.4943 15.6895 28.7109 15.8132 28.8897L16.8365 30.3678C16.7522 30.5528 16.6742 30.7424 16.6035 30.9342L14.8329 31.257C14.6189 31.2957 14.4253 31.4084 14.2859 31.5754C14.1465 31.7423 14.0702 31.953 14.0703 32.1705V35.4006C14.0703 35.6181 14.1466 35.8287 14.286 35.9956C14.4254 36.1625 14.619 36.2751 14.8329 36.3138L16.6035 36.6366C16.6742 36.8288 16.752 37.0183 16.8365 37.203L15.8132 38.6802C15.6895 38.859 15.6324 39.0756 15.6519 39.2922C15.6715 39.5088 15.7664 39.7116 15.9202 39.8654L18.204 42.1497C18.3579 42.3032 18.5606 42.3979 18.777 42.4175C18.9934 42.437 19.2099 42.3801 19.3887 42.2567L20.8675 41.2341C21.0524 41.3184 21.2415 41.3961 21.4347 41.4672L21.7562 43.2372C21.795 43.4512 21.9078 43.6447 22.0747 43.7841C22.2416 43.9234 22.4521 43.9998 22.6695 43.9999H25.8997C26.1171 43.9998 26.3277 43.9235 26.4946 43.7841C26.6616 43.6447 26.7743 43.4512 26.8132 43.2372L27.1347 41.4672C27.3278 41.3964 27.5169 41.3187 27.7019 41.2341L29.1805 42.2569C29.3593 42.3804 29.5758 42.4373 29.7922 42.4177C30.0086 42.3982 30.2113 42.3034 30.3652 42.15L32.6494 39.8657C32.8033 39.7119 32.8982 39.509 32.9178 39.2924C32.9373 39.0758 32.8802 38.8593 32.7564 38.6804L31.7331 37.2033C31.8174 37.0182 31.8954 36.8287 31.9662 36.6368L33.7367 36.3141C33.9507 36.2753 34.1442 36.1626 34.2835 35.9956C34.4228 35.8287 34.499 35.6181 34.4989 35.4006V32.1705C34.4989 31.9531 34.4226 31.7425 34.2832 31.5756C34.1438 31.4087 33.9502 31.2961 33.7362 31.2574ZM32.6417 34.6253L31.091 34.9082C30.9212 34.9389 30.7632 35.0163 30.635 35.1318C30.5067 35.2473 30.4133 35.3963 30.3651 35.562C30.2377 36.0033 30.0625 36.4294 29.8424 36.8325C29.7593 36.9838 29.72 37.1552 29.729 37.3275C29.7379 37.4999 29.7948 37.6663 29.8932 37.8081L30.7881 39.1003L29.6002 40.2889L28.3067 39.3941C28.1649 39.296 27.9986 39.2393 27.8264 39.2303C27.6542 39.2214 27.4829 39.2605 27.3317 39.3434C26.9284 39.5639 26.5021 39.7393 26.0604 39.8666C25.8947 39.9148 25.7457 40.0082 25.6301 40.1364C25.5146 40.2645 25.437 40.4223 25.4061 40.5921L25.1248 42.1427H23.4441L23.1625 40.592C23.1316 40.4222 23.0541 40.2644 22.9385 40.1363C22.8229 40.0081 22.6739 39.9147 22.5082 39.8665C22.0666 39.7392 21.6402 39.5638 21.2369 39.3434C21.0857 39.2604 20.9144 39.2213 20.7422 39.2302C20.57 39.2392 20.4037 39.2959 20.2619 39.3941L18.9688 40.2891L17.7809 39.1005L18.676 37.8081C18.7743 37.6663 18.8311 37.4998 18.84 37.3275C18.8489 37.1551 18.8095 36.9837 18.7264 36.8325C18.5063 36.4294 18.331 36.0033 18.2037 35.562C18.1555 35.3963 18.062 35.2473 17.9338 35.1318C17.8055 35.0163 17.6476 34.9389 17.4777 34.9082L15.9275 34.6253V32.9459L17.4782 32.6629C17.648 32.6323 17.806 32.5549 17.9342 32.4394C18.0625 32.3239 18.1559 32.1749 18.2041 32.0091C18.3314 31.5678 18.5067 31.1418 18.7268 30.7387C18.8099 30.5875 18.8492 30.416 18.8402 30.2436C18.8313 30.0713 18.7744 29.9048 18.676 29.763L17.7811 28.4699L18.969 27.282L20.2621 28.177C20.4041 28.2747 20.5703 28.3312 20.7425 28.3402C20.9146 28.3491 21.0858 28.3102 21.2371 28.2277C21.6405 28.0073 22.0668 27.8319 22.5084 27.7045C22.6741 27.6564 22.8231 27.5629 22.9387 27.4348C23.0542 27.3066 23.1318 27.1488 23.1627 26.9791L23.4444 25.4284H25.1251L25.4067 26.9791C25.4376 27.1489 25.5151 27.3067 25.6307 27.4349C25.7463 27.563 25.8953 27.6564 26.061 27.7046C26.5026 27.8319 26.9289 28.0074 27.3323 28.2278C27.4836 28.3102 27.6548 28.3491 27.8269 28.3402C27.999 28.3312 28.1653 28.2748 28.3073 28.1771L29.6004 27.282L30.7883 28.47L29.8932 29.763C29.7949 29.9049 29.7381 30.0713 29.7292 30.2437C29.7203 30.4161 29.7597 30.5875 29.8428 30.7387C30.0629 31.1418 30.2382 31.5678 30.3655 32.0091C30.4137 32.1749 30.5072 32.3239 30.6354 32.4394C30.7637 32.5549 30.9216 32.6323 31.0915 32.6629L32.6422 32.9459L32.6417 34.6253Z" stroke="#009900" stroke-width="0.4" mask="url(#path-1-outside-1_537_1465)"/>
<path d="M24.2875 29.0426H24.2874C23.3493 29.0426 22.4324 29.3207 21.6524 29.8419C20.8724 30.363 20.2645 31.1038 19.9056 31.9704C19.5466 32.8371 19.4527 33.7907 19.6357 34.7107C19.8187 35.6307 20.2704 36.4758 20.9337 37.1391C21.597 37.8024 22.4421 38.2542 23.3621 38.4372C24.2821 38.6202 25.2358 38.5262 26.1024 38.1673C26.969 37.8083 27.7098 37.2004 28.2309 36.4204C28.7521 35.6405 29.0302 34.7235 29.0302 33.7854V33.7853C29.0288 32.5279 28.5286 31.3224 27.6395 30.4333C26.7504 29.5442 25.5449 29.0441 24.2875 29.0426ZM24.2873 36.4711C23.7561 36.4711 23.2369 36.3136 22.7953 36.0185C22.3536 35.7234 22.0094 35.304 21.8061 34.8132C21.6028 34.3225 21.5497 33.7825 21.6533 33.2615C21.7569 32.7405 22.0127 32.262 22.3883 31.8863C22.7639 31.5107 23.2425 31.255 23.7634 31.1513C24.2844 31.0477 24.8244 31.1009 25.3152 31.3042C25.8059 31.5074 26.2254 31.8517 26.5205 32.2933C26.8156 32.735 26.9731 33.2542 26.9731 33.7853C26.9723 34.4974 26.6891 35.1801 26.1856 35.6836C25.6821 36.1871 24.9994 36.4704 24.2873 36.4711Z" fill="#009900" stroke="#009900" stroke-width="0.2"/>
<path d="M32.6427 9.54283H32.6429C34.5507 9.54516 36.3868 10.2708 37.7807 11.5734C39.1581 12.8605 40.0026 14.6164 40.1493 16.4941C42.2631 17.171 44.0693 18.5756 45.246 20.4593C46.4347 22.3623 46.9022 24.6282 46.5637 26.8462C46.2253 29.0642 45.1032 31.0876 43.4011 32.5494C41.6989 34.0112 39.5293 34.8147 37.2856 34.8143C37.0128 34.8143 36.7512 34.7059 36.5583 34.513C36.3654 34.3201 36.257 34.0585 36.257 33.7857C36.257 33.5129 36.3654 33.2513 36.5583 33.0584C36.7512 32.8655 37.0128 32.7571 37.2856 32.7571C39.0879 32.7577 40.8272 32.0939 42.1708 30.8927C43.5144 29.6915 44.368 28.0372 44.5685 26.2461C44.769 24.455 44.3022 22.6529 43.2574 21.1844C42.2126 19.7158 40.6631 18.684 38.9053 18.2861C38.6711 18.2331 38.4628 18.0999 38.3165 17.9095C38.1704 17.7194 38.0953 17.4841 38.1043 17.2445M32.6427 9.54283L30.7478 11.9445C31.5791 11.6342 32.4734 11.5313 33.3534 11.6448C34.2335 11.7582 35.0726 12.0847 35.798 12.5958C36.5233 13.1069 37.1131 13.7872 37.5161 14.5778C37.9191 15.3684 38.1231 16.2453 38.1106 17.1326V17.134C38.1106 17.1326 38.1104 17.1363 38.1097 17.1485L38.1076 17.1843L38.1054 17.221C38.105 17.2285 38.1044 17.2381 38.1043 17.2445M32.6427 9.54283C32.0872 9.5431 31.5337 9.60564 30.9923 9.72922C30.2139 8.08758 28.9267 6.73984 27.3208 5.88701C25.6909 5.02143 23.8224 4.71329 22.0009 5.0097C20.1794 5.30611 18.505 6.19075 17.2337 7.52844C15.9829 8.8445 15.1898 10.5279 14.9707 12.3286C12.8069 12.3386 10.7285 13.1768 9.16286 14.6715C7.60563 16.1583 6.67381 18.1818 6.55542 20.3299C4.96068 20.988 3.63975 22.1744 2.81481 23.691C1.97967 25.2265 1.70492 27.0046 2.03769 28.7205C2.37047 30.4364 3.29003 31.9829 4.6386 33.0948C5.98716 34.2067 7.68065 34.8146 9.42848 34.8143H11.2856C11.5584 34.8143 11.82 34.7059 12.0129 34.513C12.2058 34.3201 12.3142 34.0585 12.3142 33.7857C12.3142 33.5129 12.2058 33.2513 12.0129 33.0584C11.82 32.8655 11.5584 32.7571 11.2856 32.7571H9.42846C8.11335 32.7574 6.84218 32.2838 5.84776 31.4233C4.85334 30.5627 4.20225 29.3726 4.01372 28.0711C3.8252 26.7696 4.11188 25.4438 4.82125 24.3364C5.53061 23.229 6.61518 22.4143 7.8763 22.0414C8.09509 21.9768 8.28621 21.8413 8.41958 21.6562C8.55295 21.4711 8.621 21.2469 8.61302 21.0189L8.61304 21.0189M32.6427 9.54283L8.61304 21.0189M38.1043 17.2445C38.1043 17.2442 38.1043 17.2439 38.1043 17.2435L38.2042 17.2474H38.1042C38.1042 17.2465 38.1042 17.2456 38.1043 17.2445ZM8.61304 21.0189L8.61292 21.0168M8.61304 21.0189L8.61292 21.0168M8.61292 21.0168L8.59987 20.7826C8.59447 19.8736 8.78401 18.974 9.15572 18.1444C9.52776 17.3141 10.0736 16.5733 10.7565 15.9721C11.4394 15.3708 12.2433 14.923 13.114 14.6591C13.9847 14.3951 14.902 14.321 15.8037 14.4419L15.8037 14.4421M8.61292 21.0168L15.8037 14.4421M15.8037 14.4421L15.8092 14.4425M15.8037 14.4421L15.8092 14.4425M15.8092 14.4425C15.9557 14.454 16.103 14.4346 16.2416 14.3856C16.3801 14.3365 16.5069 14.259 16.6135 14.1579C16.7225 14.0549 16.8092 13.9308 16.8683 13.793C16.9274 13.6552 16.9576 13.5067 16.957 13.3567L16.857 13.3571L16.957 13.3571C16.9564 11.8398 17.4951 10.3716 18.4769 9.21483C19.4587 8.05801 20.8197 7.28782 22.3169 7.04179C23.8141 6.79576 25.35 7.08989 26.6504 7.87168C27.9508 8.65347 28.931 9.87201 29.4159 11.3097L29.4159 11.3098L15.8092 14.4425ZM29.9904 11.8183L29.9469 11.9083C29.947 11.9084 29.9472 11.9085 29.9473 11.9085L29.9904 11.8183Z" fill="#009900" stroke="#009900" stroke-width="0.2"/>
</svg>
