<svg width="48" height="48" viewBox="0 0 48 48" fill="none" xmlns="http://www.w3.org/2000/svg">
<path fill-rule="evenodd" clip-rule="evenodd" d="M1.71429 40.2857H46.2857V7.71429H1.71429V40.2857ZM48 6.85714V41.1429C48 41.616 47.617 42 47.1429 42H0.857143C0.383167 42 0 41.616 0 41.1429V6.85714C0 6.384 0.383167 6 0.857143 6H47.1429C47.617 6 48 6.384 48 6.85714ZM27.4286 30.8571H40.2857V29.1429H27.4286V30.8571ZM38.5714 25.7143H42.8571V24H38.5714V25.7143ZM27.4286 25.7143H34.2857V24H27.4286V25.7143ZM14.5714 29.1429C14.5714 28.6706 14.1874 28.2857 13.7143 28.2857C13.2411 28.2857 12.8571 28.6706 12.8571 29.1429C12.8571 29.6151 13.2411 30 13.7143 30C14.1874 30 14.5714 29.6151 14.5714 29.1429ZM16.2857 29.1429C16.2857 30.2589 15.5666 31.2009 14.5714 31.5566V33.4286H12.8571V31.5556C11.862 31.2008 11.1429 30.2589 11.1429 29.1429C11.1429 27.7251 12.2966 26.5714 13.7143 26.5714C15.132 26.5714 16.2857 27.7251 16.2857 29.1429ZM6 35.9941L21.4234 36L21.4251 32.5714H18V30.8571H21.4251L21.4269 28.2857H18V26.5714H21.4277L21.4286 24.006L6.00514 24L6 35.9941ZM8.57143 22.2865L18.8571 22.2909V16.2857C18.858 14.3117 16.4546 12.5803 13.7143 12.5785H13.7109C10.9749 12.5785 8.57486 14.3109 8.57314 16.2857L8.57143 22.2865ZM4.28571 36.8503L4.29086 23.1429C4.29086 22.9149 4.38083 22.6971 4.54198 22.536C4.70229 22.3757 4.92088 22.2857 5.148 22.2857L6.85714 22.2865L6.85886 16.2857C6.86057 13.296 9.93429 10.8643 13.7109 10.8643H13.7143C17.496 10.866 20.5723 13.2986 20.5714 16.2857V22.2917L22.2857 22.2926C22.7597 22.2926 23.1429 22.6766 23.1429 23.1497L23.1377 36.8571C23.1377 37.0854 23.0477 37.3029 22.8866 37.464C22.7263 37.6242 22.5077 37.7143 22.2806 37.7143L5.14286 37.7074C4.66888 37.7074 4.28571 37.3234 4.28571 36.8503ZM41.1429 20.5714H42.8571V18.8571H41.1429V20.5714ZM27.4286 20.5714H36.8571V18.8571H27.4286V20.5714Z" fill="#009900"/>
</svg>
