<svg width="48" height="48" viewBox="0 0 48 48" fill="none" xmlns="http://www.w3.org/2000/svg">
<g clip-path="url(#clip0_711_6213)">
<path fill-rule="evenodd" clip-rule="evenodd" d="M30 36.8555H41.1429V38.5701H30V40.2848H28.2857V38.5701H24.8571V36.8555H28.2857V35.9984H30V36.8555ZM33.4288 31.7118H41.1429V33.4261H33.4288V35.1408H31.7143V33.4261H24.8571V31.7118H31.7143V30.8546H33.4288V31.7118ZM37.7141 26.5682H41.1429V28.2828H37.7141V29.9973H36V28.2828H24.8571V26.5682H36V25.7109H37.7141V26.5682ZM7.71429 29.9973H15.4286V31.7118H7.71429C6.63856 31.7118 5.48912 31.3886 4.63973 30.8477C2.90827 29.7513 0 27.1846 0 22.3213C0 16.4233 3.99856 14.2587 6.32571 13.5L6.27941 12.7147C6.27771 7.85659 9.492 2.87499 13.7537 1.07729C18.7449 -1.04447 24.0309 0.00656433 27.8957 3.88912C29.0949 5.09019 30.0823 6.55526 30.8383 8.25521C32.3563 6.99073 34.4229 6.55782 36.3429 7.1879C38.7829 7.98859 40.3019 10.2441 40.4805 13.2805C42.9131 13.8626 48 15.8643 48 22.3985C48 22.6428 47.9904 22.8785 47.9813 23.104L46.2677 23.0586C46.2763 22.8297 46.2859 22.6188 46.2859 22.3985C46.2859 16.6265 41.5227 15.1768 39.4747 14.8219C39.2432 14.7816 39.0395 14.6496 38.9093 14.455C38.7797 14.2621 38.7344 14.0255 38.7824 13.7984C38.7573 11.2428 37.6768 9.42966 35.808 8.81675C34.1339 8.2655 32.2944 8.87329 31.2291 10.3238C31.0406 10.5784 30.7311 10.7113 30.4131 10.6633C30.0994 10.6179 29.8371 10.4018 29.7309 10.1026C29.0169 8.09403 27.9909 6.4112 26.682 5.10048C23.328 1.73051 18.7431 0.818406 14.4223 2.65638C10.8154 4.17718 7.992 8.57329 7.992 12.6642L8.07685 14.0821C8.10085 14.4918 7.83088 14.8613 7.43227 14.9625C5.29712 15.506 1.71429 17.1845 1.71429 22.3213C1.71429 26.161 3.804 28.2897 5.55856 29.3998C6.13712 29.7693 6.96256 29.9973 7.71429 29.9973ZM46.2859 34.5579L44.7739 34.4715C44.3685 34.4501 43.9819 34.7296 43.8891 35.1392C43.5995 36.4235 43.0955 37.6405 42.3909 38.7568C42.1669 39.112 42.2325 39.5755 42.5461 39.8549L43.6747 40.8613L40.8624 43.6752L39.8587 42.5493C39.5792 42.2347 39.1141 42.1712 38.7616 42.3952C37.6459 43.0997 36.4277 43.6048 35.1403 43.8955C34.7323 43.9877 34.4496 44.3627 34.4741 44.7808L34.56 46.2853H30.5829L30.6686 44.7792C30.6934 44.3611 30.4106 43.9861 30.0026 43.8939C28.7186 43.6037 27.5006 43.0981 26.3829 42.3925C26.0289 42.168 25.5643 42.2325 25.2857 42.5467L24.2794 43.6741L21.468 40.8613L22.5951 39.8565C22.908 39.5771 22.9731 39.1136 22.7494 38.7595C22.0457 37.6432 21.5417 36.4261 21.252 35.1392C21.1603 34.7296 20.7506 34.4501 20.3674 34.4715L18.8571 34.5579V30.5803L20.3726 30.6668C20.7711 30.6891 21.1637 30.4088 21.2571 29.9999C21.5477 28.7182 22.0526 27.5027 22.7571 26.3874C22.9809 26.0324 22.9149 25.5678 22.6029 25.2892L21.468 24.2767L24.2803 21.4641L25.2926 22.5982C25.572 22.9102 26.0366 22.9746 26.3889 22.7517C27.5031 22.0495 28.7186 21.5464 30.0026 21.2566C30.4106 21.164 30.6934 20.7894 30.6686 20.371L30.5829 18.8528H34.56L34.4741 20.3727C34.4496 20.7911 34.7323 21.1649 35.1403 21.2574C36.4219 21.5481 37.6363 22.0513 38.7525 22.7542C39.1045 22.978 39.5701 22.9128 39.8485 22.6008L40.8624 21.4641L43.6747 24.2767L42.5424 25.2866C42.2304 25.5661 42.1648 26.0299 42.3883 26.3847C43.0928 27.5001 43.5979 28.7165 43.8875 29.9999C43.9797 30.4079 44.3685 30.6891 44.7717 30.6668L46.2859 30.5803V34.5579ZM47.0939 28.8169L45.3787 28.9146C45.1003 27.933 44.7088 26.9892 44.2107 26.0959L45.4939 24.9514C45.6693 24.7946 45.7733 24.5725 45.7803 24.3359C45.7867 24.101 45.696 23.8721 45.5291 23.7058L41.4336 19.6098C41.2672 19.4426 41.0299 19.3466 40.8032 19.3594C40.5669 19.3663 40.3451 19.4692 40.1883 19.6449L39.0395 20.9325C38.1472 20.4353 37.2053 20.0453 36.2256 19.7658L36.3232 18.0444C36.3371 17.8086 36.2528 17.578 36.0901 17.4066C35.9291 17.2351 35.7035 17.1382 35.4677 17.1382H29.6751C29.4394 17.1382 29.214 17.2351 29.0529 17.4066C28.89 17.578 28.806 17.8086 28.8197 18.0444L28.9174 19.7641C27.936 20.0427 26.9931 20.4336 26.1017 20.93L24.9549 19.6449C24.798 19.4692 24.576 19.3663 24.3394 19.3594C24.0969 19.3483 23.8757 19.4426 23.7094 19.6098L19.614 23.7058C19.4469 23.8721 19.356 24.101 19.3629 24.3359C19.3697 24.5716 19.4734 24.7946 19.6491 24.9514L20.9349 26.0985C20.4369 26.9917 20.0451 27.9339 19.7657 28.9146L18.0489 28.8169C17.8191 28.8014 17.5826 28.888 17.4111 29.0492C17.2397 29.2112 17.1429 29.4366 17.1429 29.6724V35.4656C17.1429 35.7013 17.2397 35.9269 17.4111 36.0891C17.5826 36.2501 17.82 36.3344 18.0489 36.3216L19.7597 36.2235C20.0383 37.208 20.4291 38.1525 20.9271 39.0464L19.6491 40.1861C19.4734 40.3429 19.3697 40.5659 19.3629 40.8016C19.356 41.0373 19.4469 41.2661 19.614 41.4325L23.7094 45.5285C23.8757 45.6955 24.1183 45.7872 24.3394 45.7797C24.576 45.7728 24.7989 45.6693 24.9549 45.4933L26.0949 44.2144C26.9889 44.7141 27.9343 45.1067 28.9166 45.3861L28.8197 47.0939C28.806 47.3285 28.89 47.5595 29.0529 47.7317C29.214 47.9029 29.4394 48 29.6751 48H35.4677C35.7035 48 35.9291 47.9029 36.0907 47.7317C36.2528 47.5595 36.3371 47.3285 36.3232 47.0939L36.2261 45.3877C37.2101 45.1077 38.1557 44.7157 39.0496 44.2171L40.1883 45.4933C40.344 45.6693 40.5669 45.7728 40.8032 45.7797C41.0325 45.7899 41.2672 45.6955 41.4336 45.5285L45.5291 41.4325C45.696 41.2661 45.7867 41.0373 45.7803 40.8016C45.7733 40.5659 45.6693 40.3429 45.4928 40.1861L44.2133 39.0448C44.7109 38.1509 45.1019 37.2059 45.3813 36.2235L47.0939 36.3216C47.3253 36.3344 47.5605 36.2501 47.7317 36.0891C47.9029 35.9269 48 35.7013 48 35.4656V29.6724C48 29.4366 47.9029 29.2112 47.7317 29.0492C47.5605 28.888 47.3264 28.8023 47.0939 28.8169Z" fill="#009900"/>
</g>
<defs>
<clipPath id="clip0_711_6213">
<rect width="48" height="48" fill="white"/>
</clipPath>
</defs>
</svg>
