<svg width="48" height="48" viewBox="0 0 48 48" fill="none" xmlns="http://www.w3.org/2000/svg">
<g clip-path="url(#clip0_711_6181)">
<path fill-rule="evenodd" clip-rule="evenodd" d="M22.9371 26.88C22.9371 27.4663 23.4146 27.9429 24 27.9429C24.5863 27.9429 25.0629 27.4663 25.0629 26.88C25.0629 26.2937 24.5863 25.8171 24 25.8171C23.4146 25.8171 22.9371 26.2937 22.9371 26.88ZM21.2229 26.88C21.2229 25.3483 22.4683 24.1029 24 24.1029C25.5317 24.1029 26.7771 25.3483 26.7771 26.88C26.7771 28.1109 25.968 29.1446 24.8571 29.508V31.7143H23.1429V29.508C22.032 29.1446 21.2229 28.1109 21.2229 26.88ZM31.7143 22.2857H16.2857V33.4288H31.7143V30.8571H29.1429V29.1429H31.7143V26.5714H29.1429V24.8571H31.7143V22.2857ZM18.8571 20.5714H29.142L29.1429 16.2857C29.1437 14.0434 26.694 12.0017 24.0034 12H24.0009C22.6903 12 21.3669 12.492 20.3683 13.35C19.4083 14.1746 18.8571 15.2451 18.8571 16.2866V20.5714ZM30.8571 16.2866L30.8563 20.5714H32.5712C33.0453 20.5714 33.4288 20.9554 33.4288 21.4286V34.2859C33.4288 34.7589 33.0453 35.1429 32.5712 35.1429H15.4286C14.9546 35.1429 14.5714 34.7589 14.5714 34.2859V21.4286C14.5714 20.9554 14.9546 20.5714 15.4286 20.5714H17.1429V16.2857C17.1437 14.7446 17.9117 13.2009 19.2506 12.0497C20.556 10.9286 22.2866 10.2857 24.0009 10.2857H24.0034C27.6557 10.2874 30.858 13.0911 30.8571 16.2866ZM6.17744 36.8992L7.56688 35.8944C5.22256 32.6544 3.92656 28.8531 3.768 24.8571H6V23.1429H3.77056C3.94112 19.1709 5.23541 15.3917 7.56688 12.1697L6.17744 11.1643C3.63344 14.6811 2.22773 18.8074 2.05627 23.1429H0V24.8571H2.05371C2.21312 29.2166 3.62059 33.3653 6.17744 36.8992ZM35.8613 40.464C32.6304 42.8021 28.8411 44.0965 24.8571 44.2619V42H23.1429V44.2619C19.1589 44.0976 15.3686 42.8032 12.1363 40.464L11.1326 41.8528C14.6571 44.4043 18.7954 45.8101 23.1429 45.9765V48H24.8571V45.9765C29.2046 45.8101 33.3413 44.4043 36.8656 41.8528L35.8613 40.464ZM12.1363 7.59941C15.3686 5.26112 19.1589 3.96688 23.1429 3.80229V6H24.8571V3.80229C28.8411 3.96688 32.6304 5.26112 35.8613 7.59941L36.8656 6.21088C33.3413 3.66 29.2046 2.25429 24.8571 2.088V0H23.1429V2.088C18.7954 2.25344 14.6571 3.65915 11.1326 6.21088L12.1363 7.59941ZM45.9419 23.1429C45.7707 18.8074 44.3648 14.6811 41.8197 11.1643L40.4304 12.1697C42.7627 15.3917 44.0571 19.1709 44.2277 23.1429H42V24.8571H44.2304C44.0709 28.8531 42.7755 32.6544 40.4304 35.8944L41.8197 36.8992C44.3776 33.3653 45.7845 29.2166 45.9445 24.8571H48V23.1429H45.9419ZM38.0453 11.1977L44.7653 4.47771L43.5531 3.26571L36.8331 9.98571L38.0453 11.1977ZM9.95312 36.8656L3.23312 43.5856L4.44512 44.7979L11.1651 38.0779L9.95312 36.8656ZM14.2851 13.074L1.56427 0.354026L0.352266 1.56597L13.0731 14.286L14.2851 13.074ZM36.1653 34.9541L47.6453 46.4341L46.4331 47.6459L34.9536 36.1664L36.1653 34.9541Z" fill="#009900"/>
</g>
<defs>
<clipPath id="clip0_711_6181">
<rect width="48" height="48" fill="white"/>
</clipPath>
</defs>
</svg>
