<svg width="48" height="44" viewBox="0 0 48 44" fill="none" xmlns="http://www.w3.org/2000/svg">
<path fill-rule="evenodd" clip-rule="evenodd" d="M33.0447 27.112C33.0447 25.5602 31.8275 24.2973 30.3312 24.2973C28.8353 24.2973 27.6179 25.5602 27.6179 27.112C27.6179 28.6638 28.8353 29.9266 30.3312 29.9266C31.8275 29.9266 33.0447 28.6638 33.0447 27.112ZM23.0955 17.7297C24.5915 17.7297 25.8089 16.4669 25.8089 14.9151C25.8089 13.3633 24.5915 12.1004 23.0955 12.1004C21.5995 12.1004 20.3821 13.3633 20.3821 14.9151C20.3821 16.4669 21.5995 17.7297 23.0955 17.7297ZM14.9554 28.0502C16.4513 28.0502 17.6688 26.7874 17.6688 25.2355C17.6688 23.6837 16.4513 22.4208 14.9554 22.4208C13.4594 22.4208 12.2419 23.6837 12.2419 25.2355C12.2419 26.7874 13.4594 28.0502 14.9554 28.0502ZM34.8534 27.112C34.8534 29.3778 33.2972 31.2718 31.2357 31.7084V37.4324C31.2357 37.9502 30.8314 38.3707 30.3312 38.3707H24V44H22.1911V33.6797H14.9554C14.4552 33.6797 14.0509 33.2592 14.0509 32.7413V29.8319C11.9896 29.3956 10.433 27.5014 10.433 25.2355C10.433 22.6488 12.4617 20.5444 14.9554 20.5444C17.449 20.5444 19.4776 22.6488 19.4776 25.2355C19.4776 27.5014 17.9211 29.3956 15.8598 29.8319V31.803H22.1911V19.5114C20.1298 19.0751 18.5732 17.1809 18.5732 14.9151C18.5732 12.3284 20.6019 10.2239 23.0955 10.2239C25.5891 10.2239 27.6179 12.3284 27.6179 14.9151C27.6179 17.1809 26.0613 19.0751 24 19.5114V36.4941H29.4268V31.7084C27.3655 31.2718 25.8089 29.3778 25.8089 27.112C25.8089 24.5253 27.8377 22.4208 30.3312 22.4208C32.8248 22.4208 34.8534 24.5253 34.8534 27.112ZM48 22.479C48 29.3534 43.0587 31.803 38.4352 31.803V29.9266C40.7671 29.9266 46.1913 29.2005 46.1913 22.479C46.1913 17.4502 42.5044 15.6272 39.4123 14.9836C39.0086 14.9001 38.711 14.5445 38.6867 14.1195C38.4626 10.1808 36.2502 8.78282 34.4223 8.78282C33.1865 8.78282 32.0283 9.39363 31.2439 10.4594C31.044 10.7325 30.7148 10.8713 30.3891 10.8188C30.0635 10.7681 29.7895 10.5364 29.6755 10.2146C28.9673 8.21898 27.9507 6.54703 26.6528 5.2448C23.318 1.89063 18.7568 0.980567 14.4497 2.81295C10.8735 4.32344 8.07326 8.69092 8.07326 12.7562C8.07326 13.2056 8.0995 13.6569 8.15286 14.0979C8.20891 14.5698 7.91676 15.0108 7.47268 15.1243C5.35716 15.6675 1.80894 17.3357 1.80894 22.4086C1.80894 22.601 1.81706 22.7849 1.82612 22.9585C2.03774 26.8643 5.37341 29.9266 9.42094 29.9266H10.433V31.803H9.42094C4.41471 31.803 0.284894 27.9629 0.0198721 23.0607C0.00993574 22.8524 0 22.6357 0 22.4086C0 16.5138 3.94076 14.3118 6.28606 13.5256C6.27064 13.2694 6.26432 13.0123 6.26432 12.7562C6.26432 7.90277 9.48966 2.88142 13.7669 1.07627C18.7559 -1.04504 24.0443 0.0076457 27.9109 3.89655C29.1003 5.08907 30.0807 6.54051 30.836 8.22364C31.8554 7.37456 33.1063 6.90642 34.4223 6.90642C37.1021 6.90642 39.9184 8.88981 40.4313 13.2966C45.3192 14.5332 48 17.7729 48 22.479Z" fill="#009900"/>
</svg>
