<svg width="48" height="48" viewBox="0 0 48 48" fill="none" xmlns="http://www.w3.org/2000/svg">
<g clip-path="url(#clip0_711_6229)">
<path fill-rule="evenodd" clip-rule="evenodd" d="M2.05371 24.8571H0V23.1429H2.05627C2.22773 18.8066 3.63344 14.6811 6.17829 11.1643L7.56773 12.1697C5.23541 15.3917 3.94112 19.1709 3.77056 23.1429H6V24.8571H3.768C3.92741 28.8531 5.22256 32.6544 7.56773 35.8939L6.17829 36.8992C3.62059 33.3653 2.21403 29.2157 2.05371 24.8571ZM36.8656 41.8528C33.3413 44.4043 29.2046 45.8101 24.8571 45.9765V48H23.1429V45.9765C18.7954 45.8101 14.6571 44.4043 11.1326 41.8528L12.1371 40.464C15.3686 42.8032 19.1589 44.0976 23.1429 44.2619V42H24.8571V44.2619C28.8411 44.0965 32.6304 42.8021 35.8613 40.464L36.8656 41.8528ZM11.1326 6.21088C14.6571 3.65915 18.7954 2.25344 23.1429 2.088V0H24.8571V2.088C29.2046 2.25344 33.3413 3.66 36.8656 6.21088L35.8613 7.59941C32.6304 5.26112 28.8411 3.96688 24.8571 3.80229V6H23.1429V3.80229C19.1589 3.96597 15.3686 5.26112 12.1371 7.59941L11.1326 6.21088ZM48 23.1429V24.8571H45.9445C45.7851 29.2157 44.3776 33.3653 41.8208 36.8992L40.4304 35.8939C42.7755 32.6544 44.0715 28.8531 44.2304 24.8571H42V23.1429H44.2277C44.0571 19.1709 42.7627 15.3917 40.4304 12.1697L41.8208 11.1643C44.3648 14.6811 45.7707 18.8066 45.9419 23.1429H48ZM36.8331 9.98571L43.5531 3.26571L44.7653 4.47771L38.0453 11.1977L36.8331 9.98571ZM11.1651 38.0779L4.44512 44.7979L3.23312 43.5856L9.95312 36.8656L11.1651 38.0779ZM13.0731 14.286L0.353121 1.56603L1.56512 0.354026L14.286 13.074L13.0731 14.286ZM34.8917 33.6795L47.6453 46.4341L46.4331 47.6459L33.6789 34.8928L34.8917 33.6795ZM16.8549 24.63C16.9191 24.516 16.9886 24.4011 17.0614 24.2863C18.5023 22.0226 18.0891 18.9334 17.6314 17.0674C18.8666 17.8792 19.98 19.5566 20.3597 20.2611C20.5217 20.5594 20.8363 20.7403 21.1817 20.7094C21.5203 20.6829 21.8109 20.46 21.924 20.1403C23.2003 16.5146 22.5514 13.7889 21.6514 12.0223C22.7426 12.6574 23.5877 13.5711 24.1474 14.736C25.3611 17.2577 25.0912 20.7094 23.4411 23.7429C21.1877 27.888 21.6394 32.2336 22.152 34.5717C20.8654 34.0176 19.7203 33.3909 18.732 32.7019C16.1374 30.8931 15.312 27.3489 16.8549 24.63ZM28.3663 24.3411C28.3106 24.6917 28.4751 25.0406 28.782 25.2189C29.088 25.3963 29.4737 25.368 29.7506 25.1451C29.82 25.0894 31.2257 23.9289 31.9063 21.1217C32.7264 22.3149 33.5845 24.7226 32.4427 29.1454C31.3131 33.5211 25.9543 34.752 24.042 35.0544C23.58 33.3979 22.6431 28.7991 24.948 24.5614C26.5834 21.5529 27.0171 18.1509 26.1977 15.3437C27.7491 17.166 29.058 20.034 28.3663 24.3411ZM15.3617 23.7857C13.3886 27.2657 14.4377 31.7992 17.7514 34.1083C19.2514 35.1541 21.0686 36.0619 23.1514 36.8064C23.2466 36.8411 23.3434 36.8571 23.4403 36.8571C23.4583 36.8571 23.4737 36.8475 23.4909 36.8469L23.4917 36.8544C23.856 36.8261 32.4224 36.0821 34.1024 29.574C36.264 21.2031 31.9346 18.72 31.7494 18.618C31.4983 18.4809 31.194 18.4774 30.9394 18.6103C30.6849 18.744 30.5143 18.996 30.4851 19.2814C30.4243 19.86 30.3291 20.3751 30.2143 20.8303C29.6211 14.2577 24.4106 11.5834 23.3571 11.1077C22.2771 10.2806 20.964 9.71227 19.4417 9.44229C19.0594 9.37285 18.6806 9.57259 18.5177 9.924C18.3531 10.2746 18.4466 10.6946 18.7431 10.944C18.8717 11.0529 21.5426 13.3689 20.7806 17.7763C19.7854 16.4709 18.2014 14.8971 16.338 14.8971C16.0551 14.8971 15.7911 15.0369 15.6317 15.27C15.4714 15.5031 15.4371 15.8006 15.5383 16.0637C15.5571 16.11 17.304 20.7137 15.6146 23.3666C15.5254 23.5071 15.4406 23.6477 15.3617 23.7857Z" fill="#009900"/>
</g>
<defs>
<clipPath id="clip0_711_6229">
<rect width="48" height="48" fill="white"/>
</clipPath>
</defs>
</svg>
