<svg width="48" height="48" viewBox="0 0 48 48" fill="none" xmlns="http://www.w3.org/2000/svg">
<path d="M38.9998 35.9997C38.0739 36.0054 37.1723 36.2965 36.418 36.8334C35.6637 37.3703 35.0934 38.1268 34.7848 38.9997H32.9998V29.9997H36.8098C37.85 30.0087 38.8811 29.8059 39.8404 29.4036C40.7997 29.0013 41.6671 28.4079 42.3898 27.6597C43.2491 26.7812 43.923 25.739 44.3713 24.5948C44.8197 23.4507 45.0334 22.2281 44.9998 20.9997C44.6848 16.2747 40.3948 12.4947 35.1748 12.1197C34.2211 9.34787 32.3836 6.96593 29.9446 5.33995C27.5056 3.71397 24.6001 2.93391 21.6748 3.11968C18.5415 3.38859 15.6044 4.75742 13.3835 6.98386C11.1625 9.21031 9.80093 12.1508 9.53976 15.2847C8.13227 15.5553 6.8227 16.1972 5.74668 17.144C4.67065 18.0908 3.86728 19.3081 3.41976 20.6697C3.32894 20.9604 3.25383 21.2559 3.19476 21.5547C3.00814 22.5589 3.04584 23.5921 3.30516 24.5801C3.56448 25.568 4.039 26.4865 4.69476 27.2697C5.44703 28.1324 6.3764 28.8228 7.41956 29.2939C8.46272 29.765 9.59517 30.0057 10.7398 29.9997H14.9998V38.9997H13.2298C12.8759 37.9989 12.1797 37.1553 11.264 36.6182C10.3484 36.0811 9.2724 35.885 8.22616 36.0645C7.17991 36.244 6.23081 36.7876 5.5466 37.5992C4.86239 38.4108 4.48712 39.4381 4.48712 40.4997C4.48712 41.5612 4.86239 42.5886 5.5466 43.4002C6.23081 44.2118 7.17991 44.7554 8.22616 44.9349C9.2724 45.1144 10.3484 44.9182 11.264 44.3811C12.1797 43.844 12.8759 43.0005 13.2298 41.9997H14.9998C15.7954 41.9997 16.5585 41.6836 17.1211 41.121C17.6837 40.5584 17.9998 39.7953 17.9998 38.9997V29.9997H22.4998V33.2397C21.4989 33.5935 20.6554 34.2898 20.1183 35.2054C19.5812 36.121 19.3851 37.197 19.5646 38.2433C19.7441 39.2895 20.2877 40.2386 21.0993 40.9228C21.9109 41.607 22.9382 41.9823 23.9998 41.9823C25.0613 41.9823 26.0886 41.607 26.9002 40.9228C27.7119 40.2386 28.2554 39.2895 28.435 38.2433C28.6145 37.197 28.4183 36.121 27.8812 35.2054C27.3441 34.2898 26.5006 33.5935 25.4998 33.2397V29.9997H29.9998V38.9997C29.9998 39.7953 30.3158 40.5584 30.8784 41.121C31.441 41.6836 32.2041 41.9997 32.9998 41.9997H34.7248C34.9993 42.7762 35.4817 43.4624 36.1194 43.9837C36.7571 44.5049 37.5256 44.8412 38.3412 44.9558C39.1568 45.0704 39.9882 44.959 40.7448 44.6336C41.5015 44.3083 42.1543 43.7816 42.6323 43.1108C43.1102 42.44 43.3948 41.651 43.4552 40.8296C43.5156 40.0082 43.3495 39.186 42.9748 38.4525C42.6001 37.719 42.0313 37.1025 41.3304 36.67C40.6295 36.2375 39.8234 36.0056 38.9998 35.9997ZM8.99976 41.9997C8.70309 41.9997 8.41308 41.9117 8.1664 41.7469C7.91973 41.5821 7.72747 41.3478 7.61394 41.0737C7.50041 40.7996 7.4707 40.498 7.52858 40.207C7.58646 39.9161 7.72932 39.6488 7.9391 39.439C8.14888 39.2292 8.41615 39.0864 8.70712 39.0285C8.99809 38.9706 9.29969 39.0003 9.57378 39.1139C9.84787 39.2274 10.0821 39.4196 10.247 39.6663C10.4118 39.913 10.4998 40.203 10.4998 40.4997C10.4998 40.8975 10.3417 41.279 10.0604 41.5603C9.77911 41.8416 9.39758 41.9997 8.99976 41.9997ZM23.9998 38.9997C23.7031 38.9997 23.4131 38.9117 23.1664 38.7469C22.9197 38.5821 22.7275 38.3478 22.6139 38.0737C22.5004 37.7996 22.4707 37.498 22.5286 37.207C22.5865 36.9161 22.7293 36.6488 22.9391 36.439C23.1489 36.2292 23.4162 36.0864 23.7071 36.0285C23.9981 35.9706 24.2997 36.0003 24.5738 36.1139C24.8479 36.2274 25.0821 36.4196 25.247 36.6663C25.4118 36.913 25.4998 37.203 25.4998 37.4997C25.4998 37.8975 25.3417 38.279 25.0604 38.5603C24.7791 38.8416 24.3976 38.9997 23.9998 38.9997ZM6.95976 25.2747C6.57613 24.8341 6.29723 24.3124 6.14396 23.7487C5.99069 23.185 5.96703 22.5938 6.07476 22.0197C6.07476 21.8397 6.07476 21.6597 6.19476 21.4797C6.53917 20.4789 7.18299 19.6082 8.03894 18.9857C8.89489 18.3632 9.92156 18.019 10.9798 17.9997C11.3776 17.9997 11.7591 17.8416 12.0404 17.5603C12.3217 17.279 12.4798 16.8975 12.4798 16.4997C12.4055 13.8807 13.3374 11.3329 15.0839 9.37988C16.8304 7.42691 19.2588 6.21728 21.8698 5.99968H22.6198C24.9233 6.01558 27.1558 6.79837 28.9649 8.22443C30.774 9.6505 32.0564 11.6386 32.6098 13.8747C32.6889 14.2103 32.8813 14.5083 33.1545 14.7187C33.4277 14.9291 33.7651 15.0389 34.1098 15.0297C38.6098 14.9397 41.8348 18.0297 42.0298 21.1347C42.053 21.9666 41.9068 22.7946 41.5999 23.5682C41.293 24.3418 40.832 25.0449 40.2448 25.6347C39.8032 26.0841 39.2752 26.4394 38.6925 26.6791C38.1099 26.9189 37.4847 27.0381 36.8548 27.0297H31.6648L31.4998 26.9997H31.3348H16.6648H16.4998H16.3348H10.7398C10.0223 27.0033 9.31269 26.8508 8.66 26.553C8.00731 26.2551 7.42717 25.819 6.95976 25.2747ZM38.9998 41.9997C38.7031 41.9997 38.4131 41.9117 38.1664 41.7469C37.9197 41.5821 37.7275 41.3478 37.6139 41.0737C37.5004 40.7996 37.4707 40.498 37.5286 40.207C37.5865 39.9161 37.7293 39.6488 37.9391 39.439C38.1489 39.2292 38.4161 39.0864 38.7071 39.0285C38.9981 38.9706 39.2997 39.0003 39.5738 39.1139C39.8479 39.2274 40.0821 39.4196 40.247 39.6663C40.4118 39.913 40.4998 40.203 40.4998 40.4997C40.4998 40.8975 40.3417 41.279 40.0604 41.5603C39.7791 41.8416 39.3976 41.9997 38.9998 41.9997Z" fill="#009900"/>
</svg>
