<svg width="48" height="48" viewBox="0 0 48 48" fill="none" xmlns="http://www.w3.org/2000/svg">
<g clip-path="url(#clip0_537_1474)">
<path d="M32.5604 9.43947C31.9745 8.85351 31.0253 8.85351 30.4394 9.43947L0.439468 39.4394C-0.146489 40.0253 -0.146489 40.9745 0.439468 41.5604L6.43947 47.5604C6.7324 47.8534 7.11622 47.9999 7.50005 47.9999C7.88387 47.9999 8.2676 47.8534 8.56063 47.5604L38.5604 17.5605C39.1464 16.9746 39.1464 16.0254 38.5604 15.4395L32.5604 9.43947ZM7.49995 44.3789L3.62111 40.5L23.9999 20.1211L27.8789 24.0001C27.8789 24 7.49995 44.3789 7.49995 44.3789ZM29.9999 21.8789L26.121 18L31.4999 12.6211L35.3788 16.5L29.9999 21.8789Z" fill="#009900"/>
<path d="M21 12C22.5 9.00005 24 7.50002 27 6C24 4.49998 22.5 3.00005 21 0C19.5 2.99995 17.9999 4.49998 15 6C18 7.50002 19.5 9.00005 21 12Z" fill="#009900"/>
<path d="M44.9999 21C44.25 22.5 43.4997 23.25 42 23.9999C43.5 24.7499 44.25 25.5 44.9999 26.9999C45.7499 25.4999 46.5 24.7499 47.9999 23.9999C46.5 23.25 45.75 22.4999 44.9999 21Z" fill="#009900"/>
<path d="M44.9999 4.49998C42.75 3.37493 41.6249 2.24999 40.5 0C39.3749 2.24999 38.2498 3.37503 36 4.49998C38.25 5.62502 39.375 6.74996 40.5 8.99995C41.625 6.74996 42.75 5.62492 44.9999 4.49998Z" fill="#009900"/>
</g>
<defs>
<clipPath id="clip0_537_1474">
<rect width="48" height="48" fill="white"/>
</clipPath>
</defs>
</svg>
