<svg width="48" height="48" viewBox="0 0 48 48" fill="none" xmlns="http://www.w3.org/2000/svg">
<path d="M41.1777 9.95216H34.9082V8.1753C34.9082 7.34621 34.2373 6.6753 33.4082 6.6753H29.3096C29.2378 3.80859 26.8838 1.5 24.001 1.5C21.1182 1.5 18.7649 3.80859 18.6931 6.6753H14.593C13.7646 6.6753 13.093 7.34621 13.093 8.1753V9.95216H6.82422C5.99584 9.95216 5.32422 10.6231 5.32422 11.4522V45C5.32422 45.8291 5.99584 46.5 6.82422 46.5H41.1777C42.0068 46.5 42.6777 45.8291 42.6777 45V11.4522C42.6777 10.623 42.0068 9.95216 41.1777 9.95216ZM16.093 9.6753H20.1917C21.02 9.6753 21.6917 9.0044 21.6917 8.1753V6.81006C21.6917 5.53565 22.7273 4.5 24.001 4.5C25.2747 4.5 26.311 5.53565 26.311 6.81006V8.1753C26.311 9.0044 26.9819 9.6753 27.811 9.6753H31.9082V13.2422H16.093V9.6753ZM39.6777 43.5H8.32422V12.9522H13.093V14.7422C13.093 15.5713 13.7646 16.2422 14.593 16.2422H33.4082C34.2373 16.2422 34.9082 15.5713 34.9082 14.7422V12.9522H39.6777L39.6777 43.5Z" fill="#009900"/>
<path d="M11.5312 29.8711H14.5312V38.0641H11.5312V29.8711Z" fill="#009900"/>
<path d="M18.8438 24.4092H21.8438V38.0637H18.8438V24.4092Z" fill="#009900"/>
<path d="M26.1562 27.1406H29.1562V38.0636H26.1562V27.1406Z" fill="#009900"/>
<path d="M33.4727 21.6777H36.4727V38.0637H33.4727V21.6777Z" fill="#009900"/>
</svg>
