<svg width="695" height="471" viewBox="0 0 695 471" fill="none" xmlns="http://www.w3.org/2000/svg">
<rect width="695" height="471" rx="24" fill="url(#paint0_linear_2212_5896)"/>
<mask id="mask0_2212_5896" style="mask-type:alpha" maskUnits="userSpaceOnUse" x="0" y="0" width="695" height="471">
<rect width="695" height="471" rx="24" fill="url(#paint1_linear_2212_5896)"/>
</mask>
<g mask="url(#mask0_2212_5896)">
<path fill-rule="evenodd" clip-rule="evenodd" d="M17.8892 344.5L-72 292.583L-5.74652 177.917L84.195 229.745L84.2457 126H216.754L216.805 229.745L306.746 177.917L373 292.583L283.11 344.5L373 396.417L306.746 511.083L216.805 459.255L216.754 563H84.2457L84.195 459.255L-5.74652 511.083L-72 396.417L17.8892 344.5Z" fill="#3432CA" fill-opacity="0.3"/>
</g>
<rect x="60.75" y="183.75" width="573.5" height="226.5" rx="23.25" fill="url(#paint2_linear_2212_5896)" stroke="url(#paint3_linear_2212_5896)" stroke-width="1.5"/>
<path d="M311.776 311C311.584 311 311.445 310.904 311.36 310.712L302.784 289.752C302.656 289.411 302.485 289.165 302.272 289.016C302.059 288.845 301.803 288.717 301.504 288.632L300.416 288.44C300.224 288.376 300.128 288.237 300.128 288.024V287.352C300.128 287.139 300.235 287.032 300.448 287.032H312C312.192 287.032 312.288 287.139 312.288 287.352V288.056C312.288 288.248 312.181 288.365 311.968 288.408L310.048 288.696C309.408 288.803 309.024 288.984 308.896 289.24C308.768 289.496 308.789 289.891 308.96 290.424L314.976 306.776L311.936 308.632L319.136 287.32C319.2 287.128 319.339 287.032 319.552 287.032H321.344C321.536 287.032 321.685 287.128 321.792 287.32L328.736 306.232L325.824 308.568L332.224 290.52C332.437 289.901 332.459 289.475 332.288 289.24C332.117 288.984 331.765 288.813 331.232 288.728L329.088 288.408C328.875 288.365 328.768 288.237 328.768 288.024V287.352C328.768 287.139 328.875 287.032 329.088 287.032H338.08C338.293 287.032 338.4 287.139 338.4 287.352V288.056C338.4 288.248 338.293 288.365 338.08 288.408L336.704 288.664C336.341 288.728 336.064 288.856 335.872 289.048C335.68 289.219 335.531 289.453 335.424 289.752L327.776 310.712C327.712 310.904 327.573 311 327.36 311H325.568C325.376 311 325.227 310.904 325.12 310.712L318.784 293.848L320.832 290.808L314.016 310.712C313.931 310.904 313.792 311 313.6 311H311.776ZM342.724 311V287.032H348.132V311H342.724ZM342.724 297.176C344.388 297.325 346.127 297.443 347.94 297.528C349.753 297.613 351.577 297.656 353.412 297.656C355.247 297.656 357.071 297.613 358.884 297.528C360.697 297.443 362.436 297.325 364.1 297.176V299.736C362.436 299.885 360.697 300.003 358.884 300.088C357.071 300.173 355.247 300.216 353.412 300.216C351.577 300.216 349.753 300.173 347.94 300.088C346.127 300.003 344.388 299.885 342.724 299.736V297.176ZM358.724 311V287.032H364.1V311H358.724ZM355.652 311C355.46 311 355.364 310.893 355.364 310.68V309.976C355.364 309.784 355.46 309.656 355.652 309.592L357.892 308.984C358.255 308.856 358.479 308.728 358.564 308.6C358.671 308.472 358.724 308.248 358.724 307.928V304.376H364.1V307.864C364.1 308.248 364.153 308.504 364.26 308.632C364.367 308.76 364.559 308.867 364.836 308.952L367.236 309.592C367.428 309.677 367.524 309.816 367.524 310.008V310.68C367.524 310.893 367.417 311 367.204 311H355.652ZM339.684 311C339.471 311 339.364 310.893 339.364 310.68V309.976C339.364 309.784 339.471 309.656 339.684 309.592L341.924 308.984C342.287 308.856 342.511 308.728 342.596 308.6C342.681 308.472 342.724 308.248 342.724 307.928V304.376H348.132V307.864C348.132 308.248 348.185 308.504 348.292 308.632C348.399 308.76 348.591 308.867 348.868 308.952L351.268 309.592C351.46 309.677 351.556 309.816 351.556 310.008V310.68C351.556 310.893 351.449 311 351.236 311H339.684ZM355.364 287.352C355.364 287.139 355.46 287.032 355.652 287.032H367.204C367.417 287.032 367.524 287.139 367.524 287.352V288.024C367.524 288.216 367.428 288.355 367.236 288.44L364.836 289.08C364.559 289.165 364.367 289.272 364.26 289.4C364.153 289.528 364.1 289.784 364.1 290.168V293.656H358.724V290.104C358.724 289.784 358.671 289.56 358.564 289.432C358.479 289.283 358.255 289.155 357.892 289.048L355.652 288.44C355.46 288.376 355.364 288.248 355.364 288.056V287.352ZM339.364 287.352C339.364 287.139 339.471 287.032 339.684 287.032H351.236C351.449 287.032 351.556 287.139 351.556 287.352V288.024C351.556 288.216 351.46 288.355 351.268 288.44L348.868 289.08C348.591 289.165 348.399 289.272 348.292 289.4C348.185 289.528 348.132 289.784 348.132 290.168V293.656H342.724V290.104C342.724 289.784 342.681 289.56 342.596 289.432C342.511 289.283 342.287 289.155 341.924 289.048L339.684 288.44C339.471 288.376 339.364 288.248 339.364 288.056V287.352ZM372.63 311V287.032H378.038V311H372.63ZM369.59 311C369.377 311 369.27 310.893 369.27 310.68V309.976C369.27 309.784 369.377 309.656 369.59 309.592L371.83 308.984C372.193 308.856 372.417 308.728 372.502 308.6C372.588 308.472 372.63 308.248 372.63 307.928V304.376H378.038V307.864C378.038 308.248 378.092 308.504 378.198 308.632C378.305 308.76 378.497 308.867 378.774 308.952L381.174 309.592C381.366 309.677 381.462 309.816 381.462 310.008V310.68C381.462 310.893 381.356 311 381.142 311H369.59ZM369.27 287.352C369.27 287.139 369.377 287.032 369.59 287.032H381.142C381.356 287.032 381.462 287.139 381.462 287.352V288.024C381.462 288.216 381.366 288.355 381.174 288.44L378.774 289.08C378.497 289.165 378.305 289.272 378.198 289.4C378.092 289.528 378.038 289.784 378.038 290.168V293.656H372.63V290.104C372.63 289.784 372.588 289.56 372.502 289.432C372.417 289.283 372.193 289.155 371.83 289.048L369.59 288.44C369.377 288.376 369.27 288.248 369.27 288.056V287.352ZM391.145 311V287.032H396.521V311H391.145ZM403.817 286.712C404.115 286.648 404.339 286.637 404.489 286.68C404.638 286.723 404.734 286.872 404.777 287.128C404.841 287.363 404.883 287.757 404.905 288.312L405.065 293.688C405.065 293.88 404.958 293.987 404.745 294.008L403.817 294.136C403.625 294.179 403.486 294.093 403.401 293.88L402.057 290.456C401.886 290.115 401.694 289.88 401.481 289.752C401.289 289.624 401.033 289.56 400.713 289.56H387.049C386.665 289.56 386.377 289.635 386.185 289.784C385.993 289.933 385.833 290.157 385.705 290.456L384.297 293.88C384.233 294.093 384.083 294.179 383.849 294.136L382.953 294.008C382.739 293.965 382.633 293.848 382.633 293.656L382.793 287.608C382.814 287.288 382.857 287.053 382.921 286.904C382.985 286.755 383.145 286.68 383.401 286.68C383.657 286.68 384.051 286.723 384.585 286.808L385.417 286.904C386.27 286.925 387.102 286.947 387.913 286.968C388.723 286.989 389.598 287.011 390.536 287.032C391.475 287.032 392.585 287.032 393.865 287.032C395.123 287.032 396.233 287.032 397.193 287.032C398.174 287.011 399.07 286.989 399.881 286.968C400.691 286.947 401.491 286.925 402.281 286.904L403.817 286.712ZM388.105 311C387.891 311 387.785 310.893 387.785 310.68V309.976C387.785 309.784 387.891 309.656 388.105 309.592L390.345 308.984C390.686 308.856 390.899 308.728 390.985 308.6C391.091 308.472 391.145 308.248 391.145 307.928V304.376H396.521V307.864C396.521 308.248 396.574 308.504 396.681 308.632C396.809 308.76 397.011 308.867 397.289 308.952L399.689 309.592C399.881 309.677 399.977 309.816 399.977 310.008V310.68C399.977 310.893 399.87 311 399.657 311H388.105ZM409.599 311V287.032H415.007V307.48C415.007 307.864 415.082 308.131 415.231 308.28C415.38 308.408 415.615 308.472 415.935 308.472H423.167C423.551 308.472 423.85 308.408 424.063 308.28C424.298 308.152 424.511 307.96 424.703 307.704L426.687 304.728C426.772 304.557 426.932 304.504 427.167 304.568L428.127 304.824C428.319 304.888 428.404 305.027 428.383 305.24L427.615 310.136C427.572 310.435 427.498 310.669 427.391 310.84C427.306 310.989 427.135 311.075 426.879 311.096C426.644 311.117 426.25 311.117 425.695 311.096L423.743 311H409.599ZM423.743 302.968C423.551 302.968 423.402 302.872 423.295 302.68L422.687 301.08C422.538 300.739 422.346 300.515 422.111 300.408C421.898 300.28 421.631 300.216 421.311 300.216H415.007V297.656H421.247C421.631 297.656 421.93 297.592 422.143 297.464C422.356 297.315 422.527 297.101 422.655 296.824L423.295 295.416C423.402 295.224 423.562 295.128 423.775 295.128H424.639C424.852 295.128 424.959 295.235 424.959 295.448V302.68C424.959 302.872 424.852 302.968 424.639 302.968H423.743ZM426.463 293.336C426.271 293.379 426.111 293.315 425.983 293.144L424.543 290.424C424.351 290.104 424.138 289.88 423.903 289.752C423.69 289.624 423.434 289.56 423.135 289.56H415.007V287.032H423.871L426.495 286.776C426.836 286.755 427.071 286.776 427.199 286.84C427.348 286.883 427.444 287.021 427.487 287.256C427.551 287.491 427.583 287.896 427.583 288.472L427.711 292.824C427.711 293.037 427.604 293.165 427.391 293.208L426.463 293.336ZM406.559 311C406.346 311 406.239 310.893 406.239 310.68V309.976C406.239 309.784 406.346 309.656 406.559 309.592L408.799 308.984C409.162 308.856 409.386 308.728 409.471 308.6C409.556 308.472 409.599 308.248 409.599 307.928V304.376H415.007V311H406.559ZM406.239 287.352C406.239 287.139 406.346 287.032 406.559 287.032H415.007V293.656H409.599V290.104C409.599 289.784 409.556 289.56 409.471 289.432C409.386 289.283 409.162 289.155 408.799 289.048L406.559 288.44C406.346 288.376 406.239 288.248 406.239 288.056V287.352ZM442.63 311V287.032H448.038V311H442.63ZM439.59 311C439.377 311 439.27 310.893 439.27 310.68V309.976C439.27 309.784 439.377 309.656 439.59 309.592L441.83 308.984C442.193 308.856 442.417 308.728 442.502 308.6C442.588 308.472 442.63 308.248 442.63 307.928V304.376H448.038V307.736C448.038 308.099 448.092 308.344 448.198 308.472C448.305 308.579 448.508 308.664 448.806 308.728L452.55 309.592C452.764 309.656 452.87 309.795 452.87 310.008V310.68C452.87 310.893 452.764 311 452.55 311H439.59ZM439.27 287.352C439.27 287.139 439.377 287.032 439.59 287.032H448.038V293.656H442.63V290.104C442.63 289.784 442.588 289.56 442.502 289.432C442.417 289.283 442.193 289.155 441.83 289.048L439.59 288.44C439.377 288.376 439.27 288.248 439.27 288.056V287.352ZM448.038 299.064C448.337 299.085 448.657 299.107 448.998 299.128C449.34 299.149 449.681 299.16 450.022 299.16C451.665 299.16 452.881 298.755 453.67 297.944C454.46 297.133 454.854 295.896 454.854 294.232C454.854 291.117 453.34 289.56 450.31 289.56H448.038V287.032H450.886C453.852 287.032 456.166 287.672 457.83 288.952C459.494 290.211 460.326 291.971 460.326 294.232C460.326 296.6 459.548 298.435 457.99 299.736C456.433 301.037 454.236 301.688 451.398 301.688C450.844 301.688 450.278 301.677 449.702 301.656C449.148 301.613 448.593 301.56 448.038 301.496V299.064ZM458.385 311C458.171 311 458.065 310.893 458.065 310.68V309.976C458.065 309.763 458.161 309.624 458.353 309.56L459.665 309.176C460.027 309.048 460.305 308.888 460.497 308.696C460.689 308.504 460.849 308.269 460.977 307.992L469.809 287.576C469.873 287.384 470.011 287.277 470.225 287.256L472.529 286.744C472.742 286.701 472.87 286.787 472.913 287L473.361 288.824L482.289 307.96C482.438 308.28 482.619 308.536 482.833 308.728C483.046 308.92 483.291 309.059 483.569 309.144L484.817 309.56C485.009 309.645 485.105 309.795 485.105 310.008V310.68C485.105 310.893 484.998 311 484.785 311H473.233C473.041 311 472.945 310.893 472.945 310.68V309.976C472.945 309.805 473.041 309.677 473.233 309.592L475.057 309.144C475.697 308.973 476.07 308.749 476.177 308.472C476.283 308.195 476.219 307.8 475.985 307.288L468.817 291.192L471.857 289.368L464.401 307.192C464.145 307.811 464.091 308.248 464.241 308.504C464.411 308.76 464.763 308.952 465.297 309.08L467.377 309.592C467.59 309.656 467.697 309.795 467.697 310.008V310.68C467.697 310.893 467.59 311 467.377 311H458.385ZM464.817 301.176C466.865 301.304 468.955 301.368 471.089 301.368C473.243 301.347 475.334 301.283 477.361 301.176V303.704C475.334 303.832 473.243 303.896 471.089 303.896C468.955 303.896 466.865 303.843 464.817 303.736V301.176ZM489.443 311V287.032H494.851V311H489.443ZM486.403 311C486.189 311 486.083 310.893 486.083 310.68V309.976C486.083 309.784 486.189 309.656 486.403 309.592L488.643 308.984C489.005 308.856 489.229 308.728 489.315 308.6C489.4 308.472 489.443 308.248 489.443 307.928V304.376H494.851V307.736C494.851 308.099 494.904 308.344 495.011 308.472C495.117 308.579 495.32 308.664 495.619 308.728L499.363 309.592C499.576 309.656 499.683 309.795 499.683 310.008V310.68C499.683 310.893 499.576 311 499.363 311H486.403ZM486.083 287.352C486.083 287.139 486.189 287.032 486.403 287.032H494.851V293.656H489.443V290.104C489.443 289.784 489.4 289.56 489.315 289.432C489.229 289.283 489.005 289.155 488.643 289.048L486.403 288.44C486.189 288.376 486.083 288.248 486.083 288.056V287.352ZM494.851 299.064C495.149 299.085 495.469 299.107 495.811 299.128C496.152 299.149 496.493 299.16 496.835 299.16C498.477 299.16 499.693 298.755 500.483 297.944C501.272 297.133 501.667 295.896 501.667 294.232C501.667 291.117 500.152 289.56 497.123 289.56H494.851V287.032H497.699C500.664 287.032 502.979 287.672 504.643 288.952C506.307 290.211 507.139 291.971 507.139 294.232C507.139 296.6 506.36 298.435 504.803 299.736C503.245 301.037 501.048 301.688 498.211 301.688C497.656 301.688 497.091 301.677 496.515 301.656C495.96 301.613 495.405 301.56 494.851 301.496V299.064ZM512.474 311V287.032H517.882V307.48C517.882 307.864 517.957 308.131 518.106 308.28C518.255 308.408 518.49 308.472 518.81 308.472H526.042C526.426 308.472 526.725 308.408 526.938 308.28C527.173 308.152 527.386 307.96 527.578 307.704L529.562 304.728C529.647 304.557 529.807 304.504 530.042 304.568L531.002 304.824C531.194 304.888 531.279 305.027 531.258 305.24L530.49 310.136C530.447 310.435 530.373 310.669 530.266 310.84C530.181 310.989 530.01 311.075 529.754 311.096C529.519 311.117 529.125 311.117 528.57 311.096L526.618 311H512.474ZM526.618 302.968C526.426 302.968 526.277 302.872 526.17 302.68L525.562 301.08C525.413 300.739 525.221 300.515 524.986 300.408C524.773 300.28 524.506 300.216 524.186 300.216H517.882V297.656H524.122C524.506 297.656 524.805 297.592 525.018 297.464C525.231 297.315 525.402 297.101 525.53 296.824L526.17 295.416C526.277 295.224 526.437 295.128 526.65 295.128H527.514C527.727 295.128 527.834 295.235 527.834 295.448V302.68C527.834 302.872 527.727 302.968 527.514 302.968H526.618ZM529.338 293.336C529.146 293.379 528.986 293.315 528.858 293.144L527.418 290.424C527.226 290.104 527.013 289.88 526.778 289.752C526.565 289.624 526.309 289.56 526.01 289.56H517.882V287.032H526.746L529.37 286.776C529.711 286.755 529.946 286.776 530.074 286.84C530.223 286.883 530.319 287.021 530.362 287.256C530.426 287.491 530.458 287.896 530.458 288.472L530.586 292.824C530.586 293.037 530.479 293.165 530.266 293.208L529.338 293.336ZM509.434 311C509.221 311 509.114 310.893 509.114 310.68V309.976C509.114 309.784 509.221 309.656 509.434 309.592L511.674 308.984C512.037 308.856 512.261 308.728 512.346 308.6C512.431 308.472 512.474 308.248 512.474 307.928V304.376H517.882V311H509.434ZM509.114 287.352C509.114 287.139 509.221 287.032 509.434 287.032H517.882V293.656H512.474V290.104C512.474 289.784 512.431 289.56 512.346 289.432C512.261 289.283 512.037 289.155 511.674 289.048L509.434 288.44C509.221 288.376 509.114 288.248 509.114 288.056V287.352ZM542.663 300.888V298.328H545.319C546.642 298.328 547.666 297.944 548.391 297.176C549.117 296.387 549.479 295.267 549.479 293.816C549.479 292.408 549.127 291.352 548.423 290.648C547.719 289.923 546.685 289.56 545.319 289.56H542.663V287.032H545.319C548.455 287.032 550.823 287.608 552.423 288.76C554.023 289.891 554.823 291.576 554.823 293.816C554.823 296.077 554.002 297.827 552.359 299.064C550.738 300.28 548.391 300.888 545.319 300.888H542.663ZM537.255 311V287.032H542.663V311H537.255ZM552.391 311C552.071 311 551.815 310.979 551.623 310.936C551.431 310.872 551.25 310.733 551.079 310.52C550.909 310.307 550.663 309.965 550.343 309.496L545.831 302.648C545.49 302.115 545.191 301.731 544.935 301.496C544.679 301.24 544.445 301.08 544.231 301.016C544.018 300.931 543.783 300.888 543.527 300.888L545.799 299.832C546.674 299.875 547.442 300.035 548.103 300.312C548.765 300.568 549.383 300.952 549.959 301.464C550.557 301.955 551.165 302.605 551.783 303.416L555.367 307.96C555.623 308.259 555.869 308.493 556.103 308.664C556.338 308.813 556.594 308.941 556.871 309.048L558.311 309.56C558.503 309.645 558.599 309.795 558.599 310.008V310.68C558.599 310.893 558.493 311 558.279 311H552.391ZM534.215 311C534.002 311 533.895 310.893 533.895 310.68V309.976C533.895 309.784 534.002 309.656 534.215 309.592L536.455 308.984C536.818 308.856 537.042 308.728 537.127 308.6C537.213 308.472 537.255 308.248 537.255 307.928V304.376H542.663V307.864C542.663 308.248 542.717 308.504 542.823 308.632C542.93 308.76 543.122 308.867 543.399 308.952L545.799 309.592C545.991 309.677 546.087 309.816 546.087 310.008V310.68C546.087 310.893 545.981 311 545.767 311H534.215ZM533.895 287.352C533.895 287.139 534.002 287.032 534.215 287.032H542.663V293.656H537.255V290.104C537.255 289.784 537.213 289.56 537.127 289.432C537.042 289.283 536.818 289.155 536.455 289.048L534.215 288.44C534.002 288.376 533.895 288.248 533.895 288.056V287.352Z" fill="#212121"/>
<circle cx="182" cy="297" r="70" fill="#3432CA"/>
<path d="M207.103 293.295C206.372 286.996 200.886 282.18 194.302 282.18C192.473 282.18 191.01 282.55 189.547 283.291C186.256 278.104 180.404 274.77 174.186 274.77C163.945 274.77 155.898 282.921 155.898 293.295V293.665C149.681 294.406 144.926 299.964 144.926 306.262C144.926 313.302 150.778 319.23 157.727 319.23H205.275C212.224 319.23 218.076 313.302 218.076 306.262C218.076 299.593 213.321 294.406 207.103 293.295Z" fill="white"/>
<rect x="202.75" y="73.75" width="289.5" height="127.5" rx="23.25" fill="url(#paint4_linear_2212_5896)" stroke="url(#paint5_linear_2212_5896)" stroke-width="1.5"/>
<path d="M273.939 114.776C273.939 115.899 272.998 116.809 271.837 116.809C270.676 116.809 269.735 115.899 269.735 114.776C269.735 113.653 270.676 112.742 271.837 112.742C272.998 112.742 273.939 113.653 273.939 114.776Z" fill="black"/>
<path d="M273.7 121.385C273.7 122.38 272.866 123.187 271.837 123.187C270.808 123.187 269.974 122.38 269.974 121.385C269.974 120.389 270.808 119.582 271.837 119.582C272.866 119.582 273.7 120.389 273.7 121.385Z" fill="black"/>
<path d="M273.509 127.647C273.509 128.553 272.75 129.288 271.813 129.288C270.877 129.288 270.118 128.553 270.118 127.647C270.118 126.741 270.877 126.007 271.813 126.007C272.75 126.007 273.509 126.741 273.509 127.647Z" fill="black"/>
<path d="M273.27 133.517C273.27 134.295 272.618 134.926 271.813 134.926C271.009 134.926 270.356 134.295 270.356 133.517C270.356 132.738 271.009 132.107 271.813 132.107C272.618 132.107 273.27 132.738 273.27 133.517Z" fill="black"/>
<path d="M273.031 138.924C273.031 139.575 272.486 140.103 271.813 140.103C271.141 140.103 270.595 139.575 270.595 138.924C270.595 138.273 271.141 137.746 271.813 137.746C272.486 137.746 273.031 138.273 273.031 138.924Z" fill="black"/>
<path d="M272.793 143.87C272.793 144.393 272.354 144.817 271.813 144.817C271.273 144.817 270.834 144.393 270.834 143.87C270.834 143.346 271.273 142.922 271.813 142.922C272.354 142.922 272.793 143.346 272.793 143.87Z" fill="black"/>
<path d="M272.554 148.353C272.554 148.748 272.222 149.069 271.813 149.069C271.404 149.069 271.073 148.748 271.073 148.353C271.073 147.957 271.404 147.636 271.813 147.636C272.222 147.636 272.554 147.957 272.554 148.353Z" fill="black"/>
<path d="M280.674 121.385C280.674 122.38 279.84 123.187 278.811 123.187C277.783 123.187 276.948 122.38 276.948 121.385C276.948 120.389 277.783 119.582 278.811 119.582C279.84 119.582 280.674 120.389 280.674 121.385Z" fill="black"/>
<path d="M266.726 121.385C266.726 122.38 265.892 123.187 264.863 123.187C263.834 123.187 263 122.38 263 121.385C263 120.389 263.834 119.582 264.863 119.582C265.892 119.582 266.726 120.389 266.726 121.385Z" fill="black"/>
<path d="M280.483 127.647C280.483 128.553 279.724 129.288 278.788 129.288C277.851 129.288 277.092 128.553 277.092 127.647C277.092 126.741 277.851 126.007 278.788 126.007C279.724 126.007 280.483 126.741 280.483 127.647Z" fill="black"/>
<path d="M266.535 127.647C266.535 128.553 265.776 129.288 264.839 129.288C263.903 129.288 263.143 128.553 263.143 127.647C263.143 126.741 263.903 126.007 264.839 126.007C265.776 126.007 266.535 126.741 266.535 127.647Z" fill="black"/>
<path d="M280.245 133.517C280.245 134.295 279.592 134.926 278.788 134.926C277.983 134.926 277.331 134.295 277.331 133.517C277.331 132.738 277.983 132.107 278.788 132.107C279.592 132.107 280.245 132.738 280.245 133.517Z" fill="black"/>
<path d="M266.296 133.517C266.296 134.295 265.644 134.926 264.839 134.926C264.034 134.926 263.382 134.295 263.382 133.517C263.382 132.738 264.034 132.107 264.839 132.107C265.644 132.107 266.296 132.738 266.296 133.517Z" fill="black"/>
<path d="M280.006 138.924C280.006 139.575 279.46 140.103 278.788 140.103C278.115 140.103 277.569 139.575 277.569 138.924C277.569 138.273 278.115 137.746 278.788 137.746C279.46 137.746 280.006 138.273 280.006 138.924Z" fill="black"/>
<path d="M266.057 138.924C266.057 139.575 265.512 140.103 264.839 140.103C264.166 140.103 263.621 139.575 263.621 138.924C263.621 138.273 264.166 137.746 264.839 137.746C265.512 137.746 266.057 138.273 266.057 138.924Z" fill="black"/>
<path d="M279.767 143.87C279.767 144.393 279.328 144.817 278.788 144.817C278.247 144.817 277.808 144.393 277.808 143.87C277.808 143.346 278.247 142.922 278.788 142.922C279.328 142.922 279.767 143.346 279.767 143.87Z" fill="black"/>
<path d="M265.818 143.87C265.818 144.393 265.38 144.817 264.839 144.817C264.298 144.817 263.86 144.393 263.86 143.87C263.86 143.346 264.298 142.922 264.839 142.922C265.38 142.922 265.818 143.346 265.818 143.87Z" fill="black"/>
<path d="M279.528 148.353C279.528 148.748 279.197 149.069 278.788 149.069C278.379 149.069 278.047 148.748 278.047 148.353C278.047 147.957 278.379 147.636 278.788 147.636C279.197 147.636 279.528 147.957 279.528 148.353Z" fill="black"/>
<path d="M265.58 148.353C265.58 148.748 265.248 149.069 264.839 149.069C264.43 149.069 264.099 148.748 264.099 148.353C264.099 147.957 264.43 147.636 264.839 147.636C265.248 147.636 265.58 147.957 265.58 148.353Z" fill="black"/>
<path d="M294.862 147.035C294.862 145.912 293.921 145.002 292.76 145.002C291.599 145.002 290.658 145.912 290.658 147.035C290.658 148.158 291.599 149.069 292.76 149.069C293.921 149.069 294.862 148.158 294.862 147.035Z" fill="#3432CA"/>
<path d="M294.623 140.426C294.623 139.431 293.789 138.624 292.76 138.624C291.731 138.624 290.897 139.431 290.897 140.426C290.897 141.422 291.731 142.229 292.76 142.229C293.789 142.229 294.623 141.422 294.623 140.426Z" fill="#3432CA"/>
<path d="M294.432 134.164C294.432 133.258 293.673 132.523 292.736 132.523C291.8 132.523 291.04 133.258 291.04 134.164C291.04 135.07 291.8 135.805 292.736 135.805C293.673 135.805 294.432 135.07 294.432 134.164Z" fill="#3432CA"/>
<path d="M294.193 128.294C294.193 127.516 293.541 126.885 292.736 126.885C291.931 126.885 291.279 127.516 291.279 128.294C291.279 129.073 291.931 129.704 292.736 129.704C293.541 129.704 294.193 129.073 294.193 128.294Z" fill="#3432CA"/>
<path d="M293.954 122.887C293.954 122.236 293.409 121.708 292.736 121.708C292.063 121.708 291.518 122.236 291.518 122.887C291.518 123.538 292.063 124.065 292.736 124.065C293.409 124.065 293.954 123.538 293.954 122.887Z" fill="#3432CA"/>
<path d="M293.715 117.942C293.715 117.418 293.277 116.994 292.736 116.994C292.195 116.994 291.757 117.418 291.757 117.942C291.757 118.465 292.195 118.889 292.736 118.889C293.277 118.889 293.715 118.465 293.715 117.942Z" fill="#3432CA"/>
<path d="M293.476 113.459C293.476 113.063 293.145 112.742 292.736 112.742C292.327 112.742 291.996 113.063 291.996 113.459C291.996 113.854 292.327 114.175 292.736 114.175C293.145 114.175 293.476 113.854 293.476 113.459Z" fill="#3432CA"/>
<path d="M301.597 140.426C301.597 139.431 300.763 138.624 299.734 138.624C298.705 138.624 297.871 139.431 297.871 140.426C297.871 141.422 298.705 142.229 299.734 142.229C300.763 142.229 301.597 141.422 301.597 140.426Z" fill="#3432CA"/>
<path d="M287.649 140.426C287.649 139.431 286.815 138.624 285.786 138.624C284.757 138.624 283.923 139.431 283.923 140.426C283.923 141.422 284.757 142.229 285.786 142.229C286.815 142.229 287.649 141.422 287.649 140.426Z" fill="#3432CA"/>
<path d="M301.406 134.164C301.406 133.258 300.647 132.523 299.71 132.523C298.774 132.523 298.015 133.258 298.015 134.164C298.015 135.07 298.774 135.805 299.71 135.805C300.647 135.805 301.406 135.07 301.406 134.164Z" fill="#3432CA"/>
<path d="M287.458 134.164C287.458 133.258 286.698 132.523 285.762 132.523C284.825 132.523 284.066 133.258 284.066 134.164C284.066 135.07 284.825 135.805 285.762 135.805C286.698 135.805 287.458 135.07 287.458 134.164Z" fill="#3432CA"/>
<path d="M301.167 128.294C301.167 127.516 300.515 126.885 299.71 126.885C298.906 126.885 298.253 127.516 298.253 128.294C298.253 129.073 298.906 129.704 299.71 129.704C300.515 129.704 301.167 129.073 301.167 128.294Z" fill="#3432CA"/>
<path d="M287.219 128.294C287.219 127.516 286.566 126.885 285.762 126.885C284.957 126.885 284.305 127.516 284.305 128.294C284.305 129.073 284.957 129.704 285.762 129.704C286.566 129.704 287.219 129.073 287.219 128.294Z" fill="#3432CA"/>
<path d="M300.928 122.887C300.928 122.236 300.383 121.708 299.71 121.708C299.038 121.708 298.492 122.236 298.492 122.887C298.492 123.538 299.038 124.065 299.71 124.065C300.383 124.065 300.928 123.538 300.928 122.887Z" fill="#3432CA"/>
<path d="M286.98 122.887C286.98 122.236 286.435 121.708 285.762 121.708C285.089 121.708 284.544 122.236 284.544 122.887C284.544 123.538 285.089 124.065 285.762 124.065C286.435 124.065 286.98 123.538 286.98 122.887Z" fill="#3432CA"/>
<path d="M300.69 117.942C300.69 117.418 300.251 116.994 299.71 116.994C299.169 116.994 298.731 117.418 298.731 117.942C298.731 118.465 299.169 118.889 299.71 118.889C300.251 118.889 300.69 118.465 300.69 117.942Z" fill="#3432CA"/>
<path d="M286.741 117.942C286.741 117.418 286.303 116.994 285.762 116.994C285.221 116.994 284.783 117.418 284.783 117.942C284.783 118.465 285.221 118.889 285.762 118.889C286.303 118.889 286.741 118.465 286.741 117.942Z" fill="#3432CA"/>
<path d="M300.451 113.459C300.451 113.063 300.119 112.742 299.71 112.742C299.301 112.742 298.97 113.063 298.97 113.459C298.97 113.854 299.301 114.175 299.71 114.175C300.119 114.175 300.451 113.854 300.451 113.459Z" fill="#3432CA"/>
<path d="M286.502 113.459C286.502 113.063 286.171 112.742 285.762 112.742C285.353 112.742 285.021 113.063 285.021 113.459C285.021 113.854 285.353 114.175 285.762 114.175C286.171 114.175 286.502 113.854 286.502 113.459Z" fill="#3432CA"/>
<path d="M335.18 119.606V120.241C334.46 120.262 333.909 120.368 333.527 120.559C333.167 120.75 332.924 121.057 332.796 121.481C332.669 121.905 332.606 122.509 332.606 123.293V142.269C332.478 142.269 332.351 142.269 332.224 142.269C332.118 142.269 332.002 142.269 331.875 142.269L318.524 121.64V138.423C318.524 139.186 318.588 139.79 318.715 140.235C318.864 140.658 319.139 140.966 319.542 141.156C319.965 141.326 320.591 141.432 321.417 141.474V142.11C321.036 142.068 320.538 142.046 319.923 142.046C319.309 142.025 318.726 142.015 318.175 142.015C317.645 142.015 317.105 142.025 316.554 142.046C316.024 142.046 315.579 142.068 315.219 142.11V141.474C315.939 141.432 316.48 141.326 316.84 141.156C317.221 140.966 317.476 140.658 317.603 140.235C317.73 139.79 317.793 139.186 317.793 138.423V122.975C317.793 122.191 317.73 121.619 317.603 121.258C317.476 120.877 317.221 120.623 316.84 120.496C316.48 120.347 315.939 120.262 315.219 120.241V119.606C315.579 119.627 316.024 119.648 316.554 119.669C317.105 119.69 317.645 119.701 318.175 119.701C318.641 119.701 319.086 119.69 319.51 119.669C319.934 119.648 320.315 119.627 320.654 119.606L331.875 136.897V123.293C331.875 122.509 331.8 121.905 331.652 121.481C331.525 121.057 331.249 120.75 330.826 120.559C330.423 120.368 329.808 120.262 328.982 120.241V119.606C329.363 119.627 329.861 119.648 330.476 119.669C331.112 119.69 331.694 119.701 332.224 119.701C332.775 119.701 333.316 119.69 333.845 119.669C334.396 119.648 334.841 119.627 335.18 119.606Z" fill="black"/>
<path d="M345.767 119.606V120.241C345.046 120.262 344.495 120.347 344.114 120.496C343.754 120.623 343.51 120.877 343.383 121.258C343.256 121.619 343.192 122.191 343.192 122.975V138.741C343.192 139.503 343.256 140.076 343.383 140.457C343.51 140.838 343.754 141.093 344.114 141.22C344.495 141.347 345.046 141.432 345.767 141.474V142.11C345.279 142.068 344.665 142.046 343.923 142.046C343.203 142.025 342.472 142.015 341.73 142.015C340.904 142.015 340.13 142.025 339.41 142.046C338.689 142.046 338.106 142.068 337.661 142.11V141.474C338.382 141.432 338.922 141.347 339.282 141.22C339.664 141.093 339.918 140.838 340.045 140.457C340.172 140.076 340.236 139.503 340.236 138.741V122.975C340.236 122.191 340.172 121.619 340.045 121.258C339.918 120.877 339.664 120.623 339.282 120.496C338.922 120.347 338.382 120.262 337.661 120.241V119.606C338.106 119.627 338.689 119.648 339.41 119.669C340.13 119.69 340.904 119.701 341.73 119.701C342.472 119.701 343.203 119.69 343.923 119.669C344.665 119.648 345.279 119.627 345.767 119.606Z" fill="black"/>
<path d="M373.448 119.606V120.241C372.728 120.262 372.177 120.347 371.795 120.496C371.435 120.623 371.191 120.877 371.064 121.258C370.937 121.619 370.873 122.191 370.873 122.975V138.741C370.873 139.503 370.937 140.076 371.064 140.457C371.191 140.838 371.435 141.093 371.795 141.22C372.177 141.347 372.728 141.432 373.448 141.474V142.11C372.961 142.068 372.346 142.046 371.604 142.046C370.884 142.025 370.153 142.015 369.411 142.015C368.585 142.015 367.811 142.025 367.091 142.046C366.37 142.046 365.788 142.068 365.343 142.11V141.474C366.063 141.432 366.603 141.347 366.964 141.22C367.345 141.093 367.599 140.838 367.727 140.457C367.854 140.076 367.917 139.503 367.917 138.741V121.258L368.044 121.354L360.257 142.269H359.748L351.738 121.64V138.423C351.738 139.186 351.802 139.79 351.929 140.235C352.077 140.658 352.353 140.966 352.755 141.156C353.179 141.326 353.804 141.432 354.631 141.474V142.11C354.249 142.068 353.751 142.046 353.137 142.046C352.522 142.025 351.94 142.015 351.389 142.015C350.859 142.015 350.319 142.025 349.768 142.046C349.238 142.046 348.793 142.068 348.433 142.11V141.474C349.153 141.432 349.693 141.326 350.054 141.156C350.435 140.966 350.689 140.658 350.816 140.235C350.944 139.79 351.007 139.186 351.007 138.423V122.975C351.007 122.191 350.944 121.619 350.816 121.258C350.689 120.877 350.435 120.623 350.054 120.496C349.693 120.347 349.153 120.262 348.433 120.241V119.606C348.793 119.627 349.238 119.648 349.768 119.669C350.319 119.69 350.859 119.701 351.389 119.701C351.855 119.701 352.332 119.69 352.819 119.669C353.328 119.648 353.751 119.627 354.09 119.606L361.306 138.613L360.765 138.868L367.917 119.701C368.172 119.701 368.415 119.701 368.648 119.701C368.903 119.701 369.157 119.701 369.411 119.701C370.153 119.701 370.884 119.69 371.604 119.669C372.346 119.648 372.961 119.627 373.448 119.606Z" fill="black"/>
<path d="M391.982 119.606C391.897 120.347 391.834 121.068 391.792 121.767C391.77 122.466 391.76 122.996 391.76 123.356C391.76 123.738 391.77 124.109 391.792 124.469C391.813 124.808 391.834 125.094 391.855 125.327H391.124C390.997 124.077 390.817 123.091 390.584 122.371C390.351 121.629 389.948 121.11 389.376 120.813C388.825 120.496 387.988 120.337 386.865 120.337H384.226C383.506 120.337 382.955 120.4 382.574 120.527C382.213 120.633 381.97 120.877 381.843 121.258C381.715 121.619 381.652 122.191 381.652 122.975V138.741C381.652 139.503 381.715 140.076 381.843 140.457C381.97 140.838 382.213 141.093 382.574 141.22C382.955 141.326 383.506 141.379 384.226 141.379H386.547C387.882 141.379 388.888 141.199 389.566 140.838C390.266 140.478 390.764 139.896 391.06 139.09C391.378 138.264 391.611 137.151 391.76 135.753H392.491C392.427 136.325 392.395 137.088 392.395 138.041C392.395 138.444 392.406 139.027 392.427 139.79C392.47 140.531 392.533 141.305 392.618 142.11C391.537 142.068 390.319 142.046 388.963 142.046C387.606 142.025 386.398 142.015 385.339 142.015C384.873 142.015 384.269 142.015 383.527 142.015C382.807 142.015 382.023 142.025 381.175 142.046C380.327 142.046 379.469 142.057 378.6 142.078C377.732 142.078 376.905 142.089 376.121 142.11V141.474C376.842 141.432 377.382 141.347 377.742 141.22C378.124 141.093 378.378 140.838 378.505 140.457C378.632 140.076 378.696 139.503 378.696 138.741V122.975C378.696 122.191 378.632 121.619 378.505 121.258C378.378 120.877 378.124 120.623 377.742 120.496C377.382 120.347 376.842 120.262 376.121 120.241V119.606C376.905 119.627 377.732 119.648 378.6 119.669C379.469 119.669 380.327 119.68 381.175 119.701C382.023 119.701 382.807 119.701 383.527 119.701C384.269 119.701 384.873 119.701 385.339 119.701C386.314 119.701 387.416 119.701 388.645 119.701C389.895 119.68 391.007 119.648 391.982 119.606ZM386.515 130.476C386.515 130.476 386.515 130.582 386.515 130.794C386.515 131.006 386.515 131.112 386.515 131.112H380.698C380.698 131.112 380.698 131.006 380.698 130.794C380.698 130.582 380.698 130.476 380.698 130.476H386.515ZM387.437 126.281C387.352 127.488 387.31 128.41 387.31 129.046C387.331 129.682 387.341 130.264 387.341 130.794C387.341 131.324 387.352 131.907 387.373 132.542C387.394 133.178 387.447 134.1 387.532 135.308H386.801C386.716 134.63 386.61 133.973 386.483 133.337C386.377 132.68 386.123 132.15 385.72 131.748C385.339 131.324 384.682 131.112 383.75 131.112V130.476C384.449 130.476 384.979 130.339 385.339 130.063C385.72 129.766 385.996 129.396 386.165 128.951C386.335 128.506 386.451 128.05 386.515 127.584C386.579 127.096 386.642 126.662 386.706 126.281H387.437Z" fill="black"/>
<path d="M402.293 119.256C403.352 119.256 404.158 119.383 404.709 119.637C405.259 119.87 405.747 120.135 406.171 120.432C406.425 120.58 406.626 120.697 406.775 120.782C406.944 120.845 407.103 120.877 407.251 120.877C407.463 120.877 407.612 120.76 407.696 120.527C407.802 120.294 407.887 119.945 407.951 119.478H408.682C408.661 119.839 408.629 120.273 408.586 120.782C408.565 121.269 408.544 121.926 408.523 122.752C408.523 123.558 408.523 124.628 408.523 125.963H407.792C407.728 124.946 407.506 123.971 407.124 123.038C406.743 122.106 406.181 121.343 405.44 120.75C404.719 120.156 403.766 119.86 402.579 119.86C401.456 119.86 400.523 120.199 399.782 120.877C399.061 121.555 398.701 122.445 398.701 123.547C398.701 124.501 398.945 125.306 399.432 125.963C399.919 126.598 400.566 127.181 401.371 127.711C402.197 128.219 403.087 128.77 404.041 129.364C405.143 130.042 406.118 130.72 406.965 131.398C407.834 132.055 408.512 132.786 409 133.591C409.508 134.397 409.762 135.371 409.762 136.516C409.762 137.872 409.455 138.995 408.841 139.885C408.226 140.775 407.41 141.442 406.393 141.887C405.376 142.332 404.253 142.555 403.024 142.555C401.901 142.555 401.011 142.428 400.354 142.174C399.697 141.919 399.135 141.654 398.669 141.379C398.203 141.082 397.843 140.934 397.588 140.934C397.377 140.934 397.218 141.05 397.112 141.283C397.027 141.517 396.953 141.866 396.889 142.332H396.158C396.2 141.887 396.222 141.368 396.222 140.775C396.243 140.16 396.253 139.366 396.253 138.391C396.275 137.416 396.285 136.187 396.285 134.704H397.016C397.101 135.975 397.334 137.162 397.716 138.264C398.118 139.366 398.722 140.256 399.527 140.934C400.354 141.591 401.445 141.919 402.801 141.919C403.501 141.919 404.158 141.781 404.772 141.506C405.408 141.209 405.927 140.754 406.33 140.139C406.732 139.503 406.934 138.688 406.934 137.692C406.934 136.823 406.722 136.071 406.298 135.435C405.895 134.778 405.323 134.174 404.581 133.623C403.84 133.051 402.971 132.468 401.975 131.875C400.979 131.26 400.047 130.635 399.178 129.999C398.309 129.364 397.61 128.633 397.08 127.806C396.571 126.959 396.317 125.941 396.317 124.755C396.317 123.505 396.593 122.477 397.143 121.672C397.716 120.845 398.457 120.241 399.368 119.86C400.28 119.457 401.254 119.256 402.293 119.256Z" fill="black"/>
<path d="M421.433 119.447L429.189 139.44C429.506 140.245 429.867 140.786 430.269 141.061C430.672 141.315 431.043 141.453 431.382 141.474V142.11C430.958 142.068 430.439 142.046 429.824 142.046C429.21 142.025 428.595 142.015 427.981 142.015C427.154 142.015 426.381 142.025 425.66 142.046C424.94 142.046 424.357 142.068 423.912 142.11V141.474C424.993 141.432 425.682 141.252 425.978 140.934C426.275 140.595 426.211 139.885 425.788 138.804L419.875 123.007L420.384 122.593L414.853 136.961C414.514 137.808 414.313 138.529 414.249 139.122C414.186 139.694 414.239 140.15 414.408 140.489C414.599 140.828 414.906 141.072 415.33 141.22C415.775 141.368 416.326 141.453 416.983 141.474V142.11C416.389 142.068 415.764 142.046 415.107 142.046C414.472 142.025 413.878 142.015 413.327 142.015C412.798 142.015 412.342 142.025 411.961 142.046C411.6 142.046 411.261 142.068 410.944 142.11V141.474C411.367 141.368 411.802 141.125 412.247 140.743C412.692 140.341 413.094 139.662 413.455 138.709L420.924 119.447C421.009 119.447 421.094 119.447 421.179 119.447C421.263 119.447 421.348 119.447 421.433 119.447ZM425.311 132.956V133.591H415.839L416.156 132.956H425.311Z" fill="black"/>
<defs>
<linearGradient id="paint0_linear_2212_5896" x1="41.1513" y1="282.6" x2="656.135" y2="282.6" gradientUnits="userSpaceOnUse">
<stop/>
<stop offset="1" stop-color="#3432CA"/>
</linearGradient>
<linearGradient id="paint1_linear_2212_5896" x1="41.1513" y1="282.6" x2="656.135" y2="282.6" gradientUnits="userSpaceOnUse">
<stop/>
<stop offset="1" stop-color="#3432CA"/>
</linearGradient>
<linearGradient id="paint2_linear_2212_5896" x1="348" y1="325" x2="347.5" y2="411" gradientUnits="userSpaceOnUse">
<stop stop-color="white"/>
<stop offset="1" stop-color="white" stop-opacity="0"/>
</linearGradient>
<linearGradient id="paint3_linear_2212_5896" x1="347.914" y1="400.254" x2="348.592" y2="224.641" gradientUnits="userSpaceOnUse">
<stop stop-color="white" stop-opacity="0"/>
<stop offset="1" stop-color="white"/>
</linearGradient>
<linearGradient id="paint4_linear_2212_5896" x1="347.753" y1="153.342" x2="347.437" y2="202" gradientUnits="userSpaceOnUse">
<stop stop-color="white"/>
<stop offset="1" stop-color="white" stop-opacity="0"/>
</linearGradient>
<linearGradient id="paint5_linear_2212_5896" x1="347.709" y1="195.92" x2="348.139" y2="96.5603" gradientUnits="userSpaceOnUse">
<stop stop-color="white" stop-opacity="0"/>
<stop offset="1" stop-color="white"/>
</linearGradient>
</defs>
</svg>
