<svg width="48" height="48" viewBox="0 0 48 48" fill="none" xmlns="http://www.w3.org/2000/svg">
<path d="M13.5 8.58279V10.5C13.5 10.8977 13.6582 11.2793 13.9395 11.5605L16.5 14.1211V19.0356C15.5542 20.4599 15 22.1658 15 24C15 28.9629 19.0371 33 24 33C28.9629 33 33 28.9629 33 24C33 22.1658 32.4458 20.4599 31.5 19.0356V14.1211L34.0605 11.5605C34.3418 11.2793 34.5 10.8977 34.5 10.5V8.58261C35.3922 8.06223 36 7.1055 36 6C36 4.34546 34.6538 3 33 3C31.3462 3 30 4.34546 30 6C30 7.1055 30.6078 8.06223 31.5 8.58261V9.87891L28.9395 12.4395C28.6582 12.7207 28.5 13.1023 28.5 13.5V16.2177C27.5808 15.6841 26.5605 15.3116 25.4734 15.1314C25.4776 15.0859 25.5 15.0466 25.5 15V8.58261C26.3922 8.06223 27 7.1055 27 6C27 4.34546 25.6538 3 24 3C22.3455 3 21 4.34546 21 6C21 7.10568 21.6076 8.0625 22.5 8.58279V15C22.5 15.0466 22.5224 15.0859 22.5266 15.1314C21.4395 15.3116 20.4192 15.6841 19.5 16.2177V13.5C19.5 13.1023 19.3418 12.7207 19.0605 12.4395L16.5 9.87891V8.58279C17.3924 8.0625 18 7.10568 18 6C18 4.34546 16.6545 3 15 3C13.3455 3 12 4.34546 12 6C12 7.10568 12.6076 8.0625 13.5 8.58279ZM24 18C27.3091 18 30 20.6917 30 24C30 27.3083 27.3091 30 24 30C20.6917 30 18 27.3083 18 24C18 20.6917 20.6917 18 24 18Z" fill="#009900"/>
<path d="M43.8633 19.5447L41.2456 18.8899C40.8896 17.6873 40.4077 16.5264 39.8057 15.4211L40.9752 13.4722C41.0675 13.479 41.1559 13.5 41.25 13.5C43.3184 13.5 45 11.8176 45 9.75C45 7.68237 43.3184 6 41.25 6C39.1816 6 37.5 7.68237 37.5 9.75C37.5 10.6272 37.8152 11.4244 38.3216 12.0638L36.7793 14.6345C36.4922 15.1143 36.4951 15.7134 36.7866 16.1902C37.604 17.5247 38.2031 18.969 38.5664 20.4822C38.6982 21.0256 39.1201 21.4512 39.6621 21.5867L42 22.1711V25.8289L39.6621 26.4133C39.1201 26.5488 38.6982 26.9744 38.5664 27.5178C38.2031 29.031 37.604 30.4753 36.7866 31.8098C36.4951 32.2866 36.4922 32.8857 36.7793 33.3655L38.0215 35.4346L35.4346 38.0208L33.3662 36.7793C32.8872 36.49 32.2852 36.4937 31.812 36.7859C30.4761 37.6033 29.0317 38.2024 27.5171 38.5671C26.9736 38.6982 26.5488 39.1194 26.4141 39.6614L25.8281 42H22.1711L21.5867 39.6614C21.4512 39.1194 21.0256 38.6982 20.4829 38.5671C18.9675 38.2024 17.5232 37.6025 16.1902 36.7866C15.7141 36.4951 15.115 36.4915 14.6345 36.7793L12.5654 38.0208L9.97925 35.4346L11.2207 33.3655C11.5085 32.8857 11.5056 32.2866 11.2134 31.8098C10.3975 30.4768 9.79761 29.0325 9.43286 27.5171C9.30176 26.9744 8.88062 26.5488 8.33862 26.4133L6 25.8289V22.1711L8.33862 21.5867C8.88062 21.4512 9.30176 21.0256 9.43286 20.4829C9.79761 18.9675 10.3975 17.5232 11.2134 16.1902C11.5056 15.7134 11.5085 15.1143 11.2207 14.6345L9.67831 12.0636C10.1847 11.4242 10.5 10.6271 10.5 9.75C10.5 7.68237 8.81763 6 6.75 6C4.68237 6 3 7.68237 3 9.75C3 11.8176 4.68237 13.5 6.75 13.5C6.84412 13.5 6.93246 13.479 7.02484 13.4722L8.19434 15.4211C7.59302 16.5256 7.11182 17.6865 6.75513 18.8899L4.13599 19.5447C3.46875 19.7117 3 20.3115 3 21V27C3 27.6885 3.46875 28.2883 4.13599 28.4553L6.75513 29.1101C7.11182 30.3135 7.59302 31.4744 8.19434 32.5789L6.8042 34.8955C6.44971 35.4858 6.54272 36.2417 7.02979 36.728L11.272 40.9702C11.759 41.4573 12.5142 41.551 13.1045 41.1958L15.4211 39.8057C16.5256 40.407 17.6865 40.8882 18.8899 41.2449L19.5447 43.864C19.7117 44.5312 20.3115 45 21 45H27C27.6885 45 28.2876 44.5312 28.4546 43.864L29.1094 41.2449C30.312 40.8889 31.4736 40.407 32.5796 39.8057L34.8955 41.1958C35.4873 41.5488 36.2417 41.458 36.728 40.9702L40.9702 36.728C41.4565 36.2417 41.5503 35.4858 41.1958 34.8955L39.8057 32.5789C40.4077 31.4736 40.8896 30.3127 41.2456 29.1101L43.8633 28.4553C44.5312 28.2883 45 27.6885 45 27V21C45 20.3115 44.5312 19.7117 43.8633 19.5447ZM41.25 9C41.6631 9 42 9.33618 42 9.75C42 10.1638 41.6631 10.5 41.25 10.5C40.8369 10.5 40.5 10.1638 40.5 9.75C40.5 9.33618 40.8369 9 41.25 9ZM6 9.75C6 9.33618 6.33618 9 6.75 9C7.16382 9 7.5 9.33618 7.5 9.75C7.5 10.1638 7.16382 10.5 6.75 10.5C6.33618 10.5 6 10.1638 6 9.75Z" fill="#009900"/>
</svg>
