<svg width="48" height="48" viewBox="0 0 48 48" fill="none" xmlns="http://www.w3.org/2000/svg">
<g clip-path="url(#clip0_721_9845)">
<path d="M39.2692 28.923C39.1974 29.154 39.1724 29.3971 39.1957 29.638C39.2189 29.8788 39.2899 30.1126 39.4044 30.3257C39.519 30.5388 39.6749 30.727 39.863 30.8792C40.0511 31.0314 40.2676 31.1446 40.5 31.2122L44.3892 32.3937C44.5689 32.4172 44.751 32.4172 44.9307 32.3937C45.3292 32.3898 45.716 32.2588 46.0348 32.0197C46.3536 31.7806 46.5877 31.4459 46.703 31.0645L47.8846 27.1753C47.9819 26.7277 47.9095 26.26 47.6812 25.8628C47.453 25.4657 47.0853 25.1677 46.6496 25.0265C46.2138 24.8854 45.7412 24.9112 45.3234 25.0991C44.9057 25.2869 44.5727 25.6233 44.3892 26.043C42.7023 24.2759 40.539 23.036 38.1615 22.4738V9.23073C38.1615 3.96306 29.9646 0 19.0847 0C8.2047 0 0.0078125 3.96306 0.0078125 9.23073V38.7691C0.0078125 44.0368 8.2047 47.9998 19.0847 47.9998C22.5476 48.0252 25.9962 47.5527 29.3246 46.5967C31.1109 47.5019 33.0822 47.9821 35.0846 47.9998C37.4934 48.0092 39.8561 47.3399 41.9022 46.0687C43.9483 44.7976 45.595 42.9758 46.6538 40.8121C46.7662 40.5967 46.8338 40.3606 46.8524 40.1183C46.871 39.876 46.8403 39.6324 46.7621 39.4023C46.6838 39.1722 46.5597 38.9603 46.3973 38.7796C46.2348 38.5988 46.0374 38.4529 45.8169 38.3506C45.6007 38.2416 45.365 38.1768 45.1236 38.16C44.8821 38.1432 44.6397 38.1746 44.4105 38.2526C44.1813 38.3305 43.97 38.4533 43.7888 38.6138C43.6076 38.7744 43.4603 38.9694 43.3553 39.1875C42.5146 40.8936 41.1686 42.2993 39.5005 43.2132C37.8325 44.1271 35.9233 44.5049 34.0329 44.2952C32.1425 44.0855 30.3626 43.2985 28.9354 42.0412C27.5082 40.784 26.5029 39.1175 26.0565 37.2686C25.6101 35.4197 25.7442 33.4782 26.4404 31.7082C27.1367 29.9382 28.3614 28.4257 29.9478 27.3765C31.5343 26.3273 33.4055 25.7923 35.3068 25.8444C37.2081 25.8965 39.0472 26.5331 40.5738 27.6676C40.2679 27.7493 39.9877 27.9074 39.7595 28.1269C39.5313 28.3465 39.3626 28.6204 39.2692 28.923ZM19.0847 44.3075C9.68162 44.3075 3.70011 41.0337 3.70011 38.7691V29.5876C8.39327 32.1999 13.7184 33.4609 19.0847 33.2306C20.2416 33.2306 21.3247 33.2306 22.3585 33.083C22.243 33.7417 22.1771 34.4082 22.1616 35.0768C22.1793 38.2672 23.381 41.3374 25.5339 43.6921C23.4071 44.0913 21.2486 44.2972 19.0847 44.3075ZM34.4692 22.1538C32.2014 22.2598 30.0021 22.9649 28.0953 24.1972C26.1884 25.4295 24.6422 27.145 23.6139 29.1691C22.113 29.3747 20.5995 29.4734 19.0847 29.4645C9.68162 29.4645 3.70011 26.1907 3.70011 23.9261V14.8184C8.39327 17.4307 13.7184 18.6917 19.0847 18.4615C24.4509 18.6917 29.7761 17.4307 34.4692 14.8184V22.1538ZM19.0847 14.7692C9.68162 14.7692 3.70011 11.4953 3.70011 9.23073C3.70011 6.96613 9.68162 3.69229 19.0847 3.69229C28.4877 3.69229 34.4692 6.96613 34.4692 9.23073C34.4692 11.4953 28.4877 14.7692 19.0847 14.7692Z" fill="#009900"/>
</g>
<defs>
<clipPath id="clip0_721_9845">
<rect width="48" height="48" fill="white"/>
</clipPath>
</defs>
</svg>
