<svg width="40" height="48" viewBox="0 0 40 48" fill="none" xmlns="http://www.w3.org/2000/svg">
<path d="M23.9778 30.8895L25.4289 33.1874H21.8645L19.5352 34.9687L21.9141 36.9374H26.2843C27.4797 36.9374 28.5805 36.2875 29.1573 35.2412C29.7333 34.1961 29.6952 32.92 29.058 31.9111L27.2136 28.9902L23.9778 30.8895Z" fill="#009900"/>
<path d="M15.9275 31.0546L15.5993 27.9375L12.8697 28.8734L10.9514 31.9111C10.3142 32.92 10.276 34.1962 10.8521 35.2412C11.4289 36.2875 12.5297 36.9375 13.7251 36.9375H17.3805V33.1875H14.5805L15.9275 31.0546Z" fill="#009900"/>
<path d="M25.7 0H6.59766C3.49603 0 0.972656 2.52338 0.972656 5.625V42.375C0.972656 45.4766 3.49603 48 6.59766 48H33.3997C36.5014 48 39.0247 45.4766 39.0247 42.375V13.3927L25.7 0ZM26.7433 6.36563L32.6393 12.2917H28.6183C27.5844 12.2917 26.7433 11.4505 26.7433 10.4167V6.36563ZM35.2747 42.375C35.2747 43.4089 34.4335 44.25 33.3997 44.25H6.59766C5.56378 44.25 4.72266 43.4089 4.72266 42.375V5.625C4.72266 4.59113 5.56378 3.75 6.59766 3.75H22.9935V10.4167C22.9935 13.5183 25.5169 16.0417 28.6185 16.0417H35.2747V42.375Z" fill="#009900"/>
<path d="M21.5126 26.9874L24.5028 28.2188L24.9474 25.4034L22.7766 21.9659C22.1721 21.0088 21.1352 20.4375 20.0028 20.4375C18.8704 20.4375 17.8334 21.0088 17.229 21.9659L15.1719 25.2235L18.4017 27.1321L20.0028 24.5967L21.5126 26.9874Z" fill="#009900"/>
</svg>
