<svg width="48" height="48" viewBox="0 0 48 48" fill="none" xmlns="http://www.w3.org/2000/svg">
<path d="M40 8.5H20.8282C20.6964 8.5 20.5684 8.4472 20.4746 8.3536L17.6464 5.5254C16.9852 4.8632 16.1064 4.5 15.1718 4.5H8C4.9668 4.5 2.5 6.9668 2.5 10V38C2.5 41.0332 4.9668 43.5 8 43.5H40C43.0332 43.5 45.5 41.0332 45.5 38V14C45.5 10.9668 43.0332 8.5 40 8.5ZM42.5 38C42.5 39.379 41.379 40.5 40 40.5H8C6.621 40.5 5.5 39.379 5.5 38V10C5.5 8.621 6.621 7.5 8 7.5H15.1718C15.3036 7.5 15.4316 7.5528 15.5254 7.6464L18.3536 10.4746C19.0148 11.1368 19.8936 11.5 20.8282 11.5H40C41.379 11.5 42.5 12.621 42.5 14V38Z" fill="#009900"/>
<path d="M24.0002 16.5008C22.409 16.5008 20.8716 16.9188 19.5072 17.6594L19.6868 16.237C19.7904 15.4148 19.2082 14.6648 18.386 14.5612C17.5656 14.4654 16.8148 15.0398 16.7102 15.862L16.048 21.11C15.9982 21.5046 16.1076 21.903 16.3518 22.2174C16.595 22.5318 16.9544 22.737 17.3488 22.7858L22.5958 23.446C22.6592 23.4538 22.7228 23.4578 22.7852 23.4578C23.5304 23.4578 24.1758 22.9032 24.2716 22.1454C24.3752 21.3232 23.7922 20.5732 22.9708 20.4696L21.111 20.2358C21.9966 19.7764 22.9744 19.501 24.0002 19.501C27.5842 19.501 30.5002 22.417 30.5002 26.001C30.5002 29.585 27.5842 32.501 24.0002 32.501C21.718 32.501 19.6418 31.335 18.4484 29.38C18.0148 28.675 17.091 28.4464 16.386 28.884C15.679 29.3156 15.4564 30.2394 15.888 30.9464C17.6322 33.798 20.6644 35.501 24.0004 35.501C29.2386 35.501 33.5004 31.2392 33.5004 26.001C33.5004 20.7628 29.2384 16.5008 24.0002 16.5008Z" fill="#009900"/>
</svg>
