<svg width="48" height="48" viewBox="0 0 48 48" fill="none" xmlns="http://www.w3.org/2000/svg">
<path d="M21.8167 22.7425L19.0042 21.3362C18.3098 20.989 17.4649 21.2704 17.1175 21.9651C16.7702 22.6598 17.0517 23.5045 17.7464 23.8518L20.5589 25.2581C21.2544 25.6058 22.0987 25.3229 22.4455 24.6292C22.7929 23.9345 22.5113 23.0898 21.8167 22.7425Z" fill="#009900"/>
<path d="M30.883 21.9651C30.5358 21.2706 29.6912 20.9889 28.9964 21.3363L26.1839 22.7425C25.4892 23.0899 25.2077 23.9346 25.555 24.6292C25.9017 25.3226 26.7458 25.6059 27.4417 25.2581L30.2542 23.8519C30.9488 23.5045 31.2304 22.6598 30.883 21.9651Z" fill="#009900"/>
<path d="M46.5938 38.0632H45.1875V19.782C45.1875 17.4557 43.295 15.5632 40.9688 15.5632H31.4405C29.2963 13.6742 26.5907 12.7136 23.8125 12.7552C21.0728 12.7963 18.5642 13.7631 16.5378 15.5632H7.03125C4.70503 15.5632 2.8125 17.4557 2.8125 19.782V38.0632H1.40625C0.629625 38.0632 0 38.6928 0 39.4695C0 43.3465 3.15422 46.5007 7.03125 46.5007H40.9688C44.8458 46.5007 48 43.3465 48 39.4695C48 38.6928 47.3704 38.0632 46.5938 38.0632ZM15.7413 22.2316C16.4649 18.6375 19.7026 15.5673 23.9799 15.5673C28.688 15.5673 32.4375 19.3498 32.4375 24.0007C32.4375 25.5371 32.0211 27.0404 31.233 28.3481C31.101 28.5672 31.0312 28.818 31.0312 29.0739V31.032C31.0312 31.8074 30.4004 32.4382 29.625 32.4382H28.2188V31.032C28.2188 30.2553 27.5891 29.6257 26.8125 29.6257C26.0359 29.6257 25.4062 30.2553 25.4062 31.032V32.4382H22.5938V31.032C22.5938 30.2553 21.9641 29.6257 21.1875 29.6257C20.4109 29.6257 19.7812 30.2553 19.7812 31.032V32.4382H18.375C17.5996 32.4382 16.9688 31.8074 16.9688 31.032V29.0739C16.9688 28.8181 16.899 28.5672 16.767 28.3481C15.6758 26.5374 15.3116 24.3651 15.7413 22.2316ZM5.625 19.782C5.625 19.0065 6.25584 18.3663 7.03125 18.3663H14.2399C13.651 19.3839 13.2197 20.506 12.984 21.6765C12.4425 24.3659 12.859 27.1101 14.1562 29.4507V31.032C14.1562 33.3582 16.0488 35.2507 18.375 35.2507H29.625C31.9512 35.2507 33.8438 33.3582 33.8438 31.032V29.4507C34.7649 27.789 35.25 25.9135 35.25 24.0007C35.25 21.9906 34.7225 20.0613 33.7479 18.3757H40.9688C41.7442 18.3757 42.375 19.0065 42.375 19.782V38.0632H5.625V19.782ZM40.9688 43.6882H7.03125C5.19778 43.6882 3.63384 42.5127 3.05344 40.8757C4.87491 40.8757 42.91 40.8757 44.9465 40.8757C44.3662 42.5127 42.8022 43.6882 40.9688 43.6882Z" fill="#009900"/>
<path d="M36.9257 6.85444C33.4729 3.40153 28.882 1.5 23.9989 1.5C19.1157 1.5 14.5249 3.40153 11.072 6.85444C10.5229 7.40363 10.5229 8.29397 11.072 8.84316C11.6211 9.39234 12.5116 9.39225 13.0608 8.84316C15.9824 5.92153 19.867 4.3125 23.9989 4.3125C28.1307 4.3125 32.0153 5.92153 34.937 8.84316C35.486 9.39234 36.3765 9.39234 36.9257 8.84316C37.4749 8.29397 37.4749 7.40363 36.9257 6.85444Z" fill="#009900"/>
<path d="M32.9436 10.8357C30.5508 8.44284 27.3739 7.125 23.998 7.125C20.6223 7.125 17.4454 8.44284 15.0525 10.8357C14.5033 11.3849 14.5033 12.2753 15.0525 12.8244C15.6015 13.3736 16.492 13.3736 17.0412 12.8244C18.9029 10.9628 21.3736 9.9375 23.998 9.9375C26.6226 9.9375 29.0933 10.9628 30.9549 12.8244C31.504 13.3736 32.3944 13.3736 32.9436 12.8244C33.4928 12.2753 33.4928 11.3849 32.9436 10.8357Z" fill="#009900"/>
</svg>
