<svg width="48" height="48" viewBox="0 0 48 48" fill="none" xmlns="http://www.w3.org/2000/svg">
<path d="M13.5 25.5C14.3283 25.5 15 24.8283 15 24C15 23.1717 14.3283 22.5 13.5 22.5C11.0185 22.5 9 20.4814 9 18C9 15.5185 11.0185 13.5 13.5 13.5C13.5 14.3283 14.1717 15 15 15C15.8283 15 16.5 14.3283 16.5 13.5C16.5 9.3648 19.8648 6 24 6C28.1352 6 31.5 9.3648 31.5 13.5C31.5 14.3283 32.1717 15 33 15C33.8283 15 34.5 14.3283 34.5 13.5C36.9814 13.5 39 15.5185 39 18C39 20.4814 36.9814 22.5 34.5 22.5C33.6717 22.5 33 23.1717 33 24C33 24.8283 33.6717 25.5 34.5 25.5C38.6352 25.5 42 22.1352 42 18C42 13.8648 38.6352 10.5 34.5 10.5C34.3509 10.5 34.2156 10.5444 34.0797 10.5849C32.8122 6.21045 28.7777 3 24 3C19.2224 3 15.1878 6.21045 13.9203 10.5849C13.7844 10.5444 13.6491 10.5 13.5 10.5C9.3648 10.5 6 13.8648 6 18C6 22.1352 9.3648 25.5 13.5 25.5Z" fill="#009900"/>
<path d="M37.5 34.5C37.5 35.3283 38.1717 36 39 36C39.8283 36 40.5 35.3283 40.5 34.5V30C40.5 29.1717 39.8283 28.5 39 28.5H31.5V22.5C31.5 21.6717 30.8283 21 30 21C29.1717 21 28.5 21.6717 28.5 22.5V30C28.5 30.8283 29.1717 31.5 30 31.5H37.5V34.5Z" fill="#009900"/>
<path d="M18.75 30V22.5C18.75 21.6717 18.0783 21 17.25 21C16.4217 21 15.75 21.6717 15.75 22.5V28.5H9C8.1717 28.5 7.5 29.1717 7.5 30V34.5C7.5 35.3283 8.1717 36 9 36C9.8283 36 10.5 35.3283 10.5 34.5V31.5H17.25C18.0783 31.5 18.75 30.8283 18.75 30Z" fill="#009900"/>
<path d="M22.5 18V34.5C22.5 35.3283 23.1717 36 24 36C24.8283 36 25.5 35.3283 25.5 34.5V18C25.5 17.1717 24.8283 16.5 24 16.5C23.1717 16.5 22.5 17.1717 22.5 18Z" fill="#009900"/>
<path d="M28.5 42V39C28.5 38.1717 27.8283 37.5 27 37.5H21C20.1717 37.5 19.5 38.1717 19.5 39V42C18.6717 42 18 42.6717 18 43.5C18 44.3283 18.6717 45 19.5 45H28.5C29.3283 45 30 44.3283 30 43.5C30 42.6717 29.3283 42 28.5 42ZM22.5 42V40.5H25.5V42H22.5Z" fill="#009900"/>
<path d="M13.5 42V39C13.5 38.1717 12.8283 37.5 12 37.5H6C5.1717 37.5 4.5 38.1717 4.5 39V42C3.6717 42 3 42.6717 3 43.5C3 44.3283 3.6717 45 4.5 45H13.5C14.3283 45 15 44.3283 15 43.5C15 42.6717 14.3283 42 13.5 42ZM7.5 42V40.5H10.5V42H7.5Z" fill="#009900"/>
<path d="M43.5 42V39C43.5 38.1717 42.8283 37.5 42 37.5H36C35.1717 37.5 34.5 38.1717 34.5 39V42C33.6717 42 33 42.6717 33 43.5C33 44.3283 33.6717 45 34.5 45H43.5C44.3283 45 45 44.3283 45 43.5C45 42.6717 44.3283 42 43.5 42ZM37.5 42V40.5H40.5V42H37.5Z" fill="#009900"/>
</svg>
