<svg width="695" height="550" viewBox="0 0 695 550" fill="none" xmlns="http://www.w3.org/2000/svg">
<rect width="695" height="550" rx="24" fill="url(#paint0_linear_2207_5895)"/>
<mask id="mask0_2207_5895" style="mask-type:alpha" maskUnits="userSpaceOnUse" x="0" y="0" width="695" height="550">
<rect width="695" height="550" rx="24" fill="url(#paint1_linear_2207_5895)"/>
</mask>
<g mask="url(#mask0_2207_5895)">
<path fill-rule="evenodd" clip-rule="evenodd" d="M170 181H0V351.488V521.977H170V692.466H340V521.977V351.488H170V181Z" fill="#3432CA" fill-opacity="0.3"/>
<g filter="url(#filter0_f_2207_5895)">
<rect x="273" y="201" width="230" height="230" rx="115" fill="#3432CA"/>
</g>
<path d="M367.874 426.177C349.505 422.821 332.267 414.927 317.727 403.211C303.187 391.495 291.807 376.329 284.623 359.094C277.438 341.859 274.676 323.101 276.589 304.527C278.502 285.952 285.029 268.151 295.575 252.742C306.121 237.333 320.353 224.805 336.975 216.298C353.598 207.791 372.083 203.575 390.75 204.034C409.417 204.492 427.673 209.611 443.858 218.923C460.043 228.236 473.642 241.447 483.419 257.356L469.106 266.152C460.796 252.63 449.236 241.401 435.479 233.485C421.722 225.569 406.205 221.218 390.338 220.829C374.471 220.439 358.758 224.022 344.629 231.253C330.5 238.484 318.403 249.133 309.439 262.23C300.474 275.328 294.927 290.459 293.301 306.248C291.675 322.036 294.022 337.98 300.129 352.63C306.236 367.28 315.909 380.17 328.268 390.129C340.627 400.088 355.279 406.798 370.893 409.65L367.874 426.177Z" fill="#156150"/>
<path d="M490.819 253.473C490.564 253.26 490.242 253.215 490.001 253.359L463.6 269.165C463.359 269.309 463.246 269.615 463.314 269.94C463.381 270.266 463.617 270.549 463.91 270.658L486.978 279.237C487.175 279.311 487.378 279.298 487.54 279.201C487.702 279.104 487.809 278.931 487.838 278.723L491.171 254.338C491.213 254.027 491.075 253.687 490.819 253.473Z" fill="#156150"/>
<path d="M363.022 452.737C344.163 449.292 326.22 441.983 310.322 431.27C294.424 420.556 280.914 406.67 270.641 390.484C260.368 374.297 253.554 356.161 250.628 337.214C247.702 318.268 248.728 298.921 253.639 280.389C258.55 261.858 267.242 244.543 279.168 229.533C291.094 214.522 305.995 202.141 322.937 193.168C339.878 184.194 358.492 178.822 377.61 177.389C396.727 175.956 415.935 178.493 434.024 184.841L428.041 201.891C412.303 196.369 395.593 194.162 378.961 195.408C362.328 196.655 346.134 201.329 331.395 209.136C316.656 216.943 303.691 227.715 293.316 240.773C282.941 253.832 275.379 268.896 271.106 285.019C266.833 301.141 265.941 317.973 268.487 334.456C271.032 350.94 276.96 366.718 285.897 380.801C294.835 394.883 306.589 406.964 320.42 416.285C334.252 425.605 349.862 431.964 366.269 434.961L363.022 452.737Z" fill="#116D43"/>
<path d="M436.715 178.217C436.383 178.22 436.108 178.396 436.019 178.662L426.223 207.831C426.134 208.098 426.247 208.403 426.51 208.607C426.773 208.811 427.135 208.873 427.429 208.765L450.537 200.296C450.735 200.224 450.881 200.082 450.941 199.903C451.001 199.724 450.97 199.523 450.857 199.346L437.544 178.646C437.374 178.382 437.048 178.213 436.715 178.217Z" fill="#116D43"/>
<path d="M358.17 479.298C329.561 474.072 302.827 461.421 280.645 442.613C258.463 423.805 241.611 399.5 231.778 372.13C221.944 344.761 219.473 315.288 224.613 286.664C229.752 258.039 242.322 231.267 261.063 209.028L275.026 220.795C258.347 240.588 247.16 264.415 242.585 289.891C238.011 315.367 240.21 341.597 248.962 365.956C257.714 390.315 272.712 411.947 292.454 428.686C312.196 445.425 335.989 456.684 361.451 461.335L358.17 479.298Z" fill="#0E7835"/>
<path d="M255.375 204.673C255.257 204.984 255.321 205.303 255.536 205.484L279.136 225.229C279.351 225.409 279.677 225.415 279.963 225.244C280.248 225.074 280.438 224.759 280.445 224.445L280.972 199.84C280.977 199.63 280.897 199.442 280.753 199.321C280.608 199.2 280.409 199.155 280.203 199.197L256.077 204.057C255.769 204.119 255.493 204.362 255.375 204.673Z" fill="#0E7835"/>
<path d="M353.318 505.858C315.358 498.924 280.348 480.77 252.808 453.74C225.269 426.709 206.464 392.045 198.822 354.221L215.848 350.781C222.802 385.201 239.915 416.746 264.976 441.343C290.037 465.94 321.896 482.461 356.439 488.771L353.318 505.858Z" fill="#009900"/>
<path d="M191.06 355.303C191.229 355.59 191.517 355.74 191.793 355.685L221.963 349.637C222.238 349.582 222.447 349.332 222.492 349.002C222.538 348.672 222.411 348.327 222.171 348.126L203.311 332.315C203.149 332.18 202.954 332.124 202.769 332.161C202.583 332.198 202.424 332.325 202.328 332.512L191.018 354.371C190.874 354.649 190.891 355.016 191.06 355.303Z" fill="#009900"/>
<circle cx="388" cy="316" r="70" stroke="#009900" stroke-width="10"/>
<path d="M337.652 310V298.364H342.243C343.122 298.364 343.872 298.521 344.493 298.835C345.118 299.146 345.593 299.587 345.919 300.159C346.249 300.727 346.413 301.396 346.413 302.165C346.413 302.937 346.247 303.602 345.913 304.159C345.58 304.712 345.097 305.136 344.464 305.432C343.836 305.727 343.074 305.875 342.18 305.875H339.107V303.898H341.783C342.252 303.898 342.643 303.833 342.953 303.705C343.264 303.576 343.495 303.383 343.646 303.125C343.802 302.867 343.879 302.547 343.879 302.165C343.879 301.778 343.802 301.453 343.646 301.188C343.495 300.922 343.262 300.722 342.947 300.585C342.637 300.445 342.245 300.375 341.771 300.375H340.112V310H337.652ZM343.936 304.705L346.828 310H344.112L341.283 304.705H343.936ZM350.595 310.165C350.038 310.165 349.542 310.068 349.107 309.875C348.671 309.678 348.326 309.388 348.072 309.006C347.822 308.619 347.697 308.138 347.697 307.562C347.697 307.078 347.786 306.67 347.964 306.341C348.143 306.011 348.385 305.746 348.692 305.545C348.999 305.345 349.347 305.193 349.737 305.091C350.131 304.989 350.544 304.917 350.976 304.875C351.483 304.822 351.893 304.773 352.203 304.727C352.514 304.678 352.739 304.606 352.879 304.511C353.019 304.417 353.089 304.277 353.089 304.091V304.057C353.089 303.697 352.976 303.419 352.749 303.222C352.525 303.025 352.207 302.926 351.794 302.926C351.358 302.926 351.012 303.023 350.754 303.216C350.497 303.405 350.326 303.644 350.243 303.932L348.004 303.75C348.118 303.22 348.341 302.761 348.675 302.375C349.008 301.985 349.438 301.686 349.964 301.477C350.495 301.265 351.108 301.159 351.805 301.159C352.29 301.159 352.754 301.216 353.197 301.33C353.644 301.443 354.04 301.619 354.385 301.858C354.733 302.097 355.008 302.403 355.209 302.778C355.41 303.15 355.51 303.595 355.51 304.114V310H353.214V308.79H353.146C353.006 309.062 352.819 309.303 352.584 309.511C352.349 309.716 352.067 309.877 351.737 309.994C351.408 310.108 351.027 310.165 350.595 310.165ZM351.288 308.494C351.644 308.494 351.959 308.424 352.232 308.284C352.504 308.14 352.718 307.947 352.874 307.705C353.029 307.462 353.107 307.187 353.107 306.881V305.955C353.031 306.004 352.927 306.049 352.794 306.091C352.665 306.129 352.519 306.165 352.357 306.199C352.194 306.229 352.031 306.258 351.868 306.284C351.705 306.307 351.557 306.328 351.425 306.347C351.141 306.388 350.893 306.455 350.68 306.545C350.468 306.636 350.304 306.759 350.186 306.915C350.069 307.066 350.01 307.256 350.01 307.483C350.01 307.812 350.129 308.064 350.368 308.239C350.61 308.409 350.917 308.494 351.288 308.494ZM359.808 304.955V310H357.388V301.273H359.695V302.812H359.797C359.99 302.305 360.314 301.903 360.768 301.608C361.223 301.309 361.774 301.159 362.422 301.159C363.028 301.159 363.556 301.292 364.007 301.557C364.458 301.822 364.808 302.201 365.058 302.693C365.308 303.182 365.433 303.765 365.433 304.443V310H363.013V304.875C363.017 304.341 362.88 303.924 362.604 303.625C362.327 303.322 361.946 303.17 361.462 303.17C361.136 303.17 360.848 303.241 360.598 303.381C360.352 303.521 360.159 303.725 360.018 303.994C359.882 304.259 359.812 304.58 359.808 304.955ZM374.602 303.761L372.386 303.898C372.348 303.708 372.267 303.538 372.142 303.386C372.017 303.231 371.852 303.108 371.648 303.017C371.447 302.922 371.206 302.875 370.926 302.875C370.551 302.875 370.235 302.955 369.977 303.114C369.72 303.269 369.591 303.477 369.591 303.739C369.591 303.947 369.674 304.123 369.841 304.267C370.008 304.411 370.294 304.527 370.699 304.614L372.278 304.932C373.127 305.106 373.759 305.386 374.176 305.773C374.593 306.159 374.801 306.667 374.801 307.295C374.801 307.867 374.633 308.369 374.295 308.801C373.962 309.233 373.504 309.57 372.92 309.812C372.341 310.051 371.672 310.17 370.915 310.17C369.759 310.17 368.839 309.93 368.153 309.449C367.472 308.964 367.072 308.305 366.955 307.472L369.335 307.347C369.407 307.699 369.581 307.968 369.858 308.153C370.134 308.335 370.489 308.426 370.92 308.426C371.345 308.426 371.686 308.345 371.943 308.182C372.205 308.015 372.337 307.801 372.341 307.54C372.337 307.32 372.244 307.14 372.062 307C371.881 306.856 371.6 306.746 371.222 306.67L369.71 306.369C368.858 306.199 368.223 305.903 367.807 305.483C367.394 305.062 367.188 304.527 367.188 303.875C367.188 303.314 367.339 302.831 367.642 302.426C367.949 302.021 368.379 301.708 368.932 301.489C369.489 301.269 370.14 301.159 370.886 301.159C371.989 301.159 372.856 301.392 373.489 301.858C374.125 302.324 374.496 302.958 374.602 303.761ZM380.268 310.17C379.386 310.17 378.623 309.983 377.979 309.608C377.339 309.229 376.844 308.703 376.496 308.028C376.147 307.35 375.973 306.564 375.973 305.67C375.973 304.769 376.147 303.981 376.496 303.307C376.844 302.629 377.339 302.102 377.979 301.727C378.623 301.348 379.386 301.159 380.268 301.159C381.151 301.159 381.912 301.348 382.553 301.727C383.196 302.102 383.693 302.629 384.041 303.307C384.39 303.981 384.564 304.769 384.564 305.67C384.564 306.564 384.39 307.35 384.041 308.028C383.693 308.703 383.196 309.229 382.553 309.608C381.912 309.983 381.151 310.17 380.268 310.17ZM380.28 308.295C380.681 308.295 381.017 308.182 381.286 307.955C381.554 307.723 381.757 307.409 381.893 307.011C382.034 306.614 382.104 306.161 382.104 305.653C382.104 305.146 382.034 304.693 381.893 304.295C381.757 303.898 381.554 303.583 381.286 303.352C381.017 303.121 380.681 303.006 380.28 303.006C379.875 303.006 379.534 303.121 379.257 303.352C378.984 303.583 378.778 303.898 378.638 304.295C378.501 304.693 378.433 305.146 378.433 305.653C378.433 306.161 378.501 306.614 378.638 307.011C378.778 307.409 378.984 307.723 379.257 307.955C379.534 308.182 379.875 308.295 380.28 308.295ZM386.138 310V301.273H388.445V302.812H388.547C388.729 302.301 389.032 301.898 389.456 301.602C389.88 301.307 390.388 301.159 390.979 301.159C391.577 301.159 392.087 301.309 392.507 301.608C392.928 301.903 393.208 302.305 393.348 302.812H393.439C393.617 302.312 393.939 301.913 394.405 301.614C394.875 301.311 395.429 301.159 396.07 301.159C396.884 301.159 397.545 301.419 398.053 301.938C398.564 302.453 398.82 303.184 398.82 304.131V310H396.405V304.608C396.405 304.123 396.276 303.759 396.018 303.517C395.761 303.275 395.439 303.153 395.053 303.153C394.613 303.153 394.27 303.294 394.024 303.574C393.778 303.85 393.655 304.216 393.655 304.67V310H391.308V304.557C391.308 304.129 391.185 303.788 390.939 303.534C390.696 303.28 390.376 303.153 389.979 303.153C389.71 303.153 389.467 303.222 389.251 303.358C389.039 303.491 388.871 303.678 388.746 303.92C388.621 304.159 388.558 304.439 388.558 304.761V310H386.138ZM402.453 310L400.078 301.273H402.527L403.879 307.136H403.959L405.368 301.273H407.771L409.203 307.102H409.277L410.607 301.273H413.05L410.68 310H408.118L406.618 304.511H406.51L405.01 310H402.453ZM416.83 310.165C416.273 310.165 415.777 310.068 415.341 309.875C414.905 309.678 414.561 309.388 414.307 309.006C414.057 308.619 413.932 308.138 413.932 307.562C413.932 307.078 414.021 306.67 414.199 306.341C414.377 306.011 414.619 305.746 414.926 305.545C415.233 305.345 415.581 305.193 415.972 305.091C416.366 304.989 416.778 304.917 417.21 304.875C417.718 304.822 418.127 304.773 418.438 304.727C418.748 304.678 418.973 304.606 419.114 304.511C419.254 304.417 419.324 304.277 419.324 304.091V304.057C419.324 303.697 419.21 303.419 418.983 303.222C418.759 303.025 418.441 302.926 418.028 302.926C417.593 302.926 417.246 303.023 416.989 303.216C416.731 303.405 416.561 303.644 416.477 303.932L414.239 303.75C414.352 303.22 414.576 302.761 414.909 302.375C415.242 301.985 415.672 301.686 416.199 301.477C416.729 301.265 417.343 301.159 418.04 301.159C418.525 301.159 418.989 301.216 419.432 301.33C419.879 301.443 420.275 301.619 420.619 301.858C420.968 302.097 421.242 302.403 421.443 302.778C421.644 303.15 421.744 303.595 421.744 304.114V310H419.449V308.79H419.381C419.241 309.062 419.053 309.303 418.818 309.511C418.583 309.716 418.301 309.877 417.972 309.994C417.642 310.108 417.261 310.165 416.83 310.165ZM417.523 308.494C417.879 308.494 418.193 308.424 418.466 308.284C418.739 308.14 418.953 307.947 419.108 307.705C419.263 307.462 419.341 307.187 419.341 306.881V305.955C419.265 306.004 419.161 306.049 419.028 306.091C418.9 306.129 418.754 306.165 418.591 306.199C418.428 306.229 418.265 306.258 418.102 306.284C417.939 306.307 417.792 306.328 417.659 306.347C417.375 306.388 417.127 306.455 416.915 306.545C416.703 306.636 416.538 306.759 416.42 306.915C416.303 307.066 416.244 307.256 416.244 307.483C416.244 307.812 416.364 308.064 416.602 308.239C416.845 308.409 417.152 308.494 417.523 308.494ZM423.622 310V301.273H425.969V302.795H426.06C426.219 302.254 426.486 301.845 426.861 301.568C427.236 301.288 427.668 301.148 428.156 301.148C428.277 301.148 428.408 301.155 428.548 301.17C428.688 301.186 428.812 301.206 428.918 301.233V303.381C428.804 303.347 428.647 303.316 428.446 303.29C428.245 303.263 428.062 303.25 427.895 303.25C427.539 303.25 427.221 303.328 426.94 303.483C426.664 303.634 426.444 303.847 426.281 304.119C426.122 304.392 426.043 304.706 426.043 305.062V310H423.622ZM433.74 310.17C432.842 310.17 432.07 309.989 431.422 309.625C430.778 309.258 430.282 308.739 429.933 308.068C429.585 307.394 429.411 306.597 429.411 305.676C429.411 304.778 429.585 303.991 429.933 303.312C430.282 302.634 430.772 302.106 431.405 301.727C432.041 301.348 432.787 301.159 433.643 301.159C434.219 301.159 434.755 301.252 435.251 301.438C435.751 301.619 436.187 301.894 436.558 302.261C436.933 302.629 437.225 303.091 437.433 303.648C437.642 304.201 437.746 304.848 437.746 305.591V306.256H430.376V304.756H435.467C435.467 304.407 435.392 304.098 435.24 303.83C435.089 303.561 434.878 303.35 434.609 303.199C434.344 303.044 434.036 302.966 433.683 302.966C433.316 302.966 432.99 303.051 432.706 303.222C432.426 303.388 432.206 303.614 432.047 303.898C431.888 304.178 431.806 304.491 431.803 304.835V306.261C431.803 306.693 431.882 307.066 432.041 307.381C432.204 307.695 432.433 307.938 432.729 308.108C433.024 308.278 433.375 308.364 433.78 308.364C434.049 308.364 434.295 308.326 434.518 308.25C434.742 308.174 434.933 308.061 435.092 307.909C435.251 307.758 435.373 307.572 435.456 307.352L437.695 307.5C437.581 308.038 437.348 308.508 436.996 308.909C436.647 309.307 436.196 309.617 435.643 309.841C435.094 310.061 434.46 310.17 433.74 310.17ZM348.379 334V322.364H352.969C353.848 322.364 354.598 322.521 355.219 322.835C355.844 323.146 356.32 323.587 356.646 324.159C356.975 324.727 357.14 325.396 357.14 326.165C357.14 326.937 356.973 327.602 356.64 328.159C356.307 328.712 355.824 329.136 355.191 329.432C354.562 329.727 353.801 329.875 352.907 329.875H349.833V327.898H352.509C352.979 327.898 353.369 327.833 353.68 327.705C353.99 327.576 354.221 327.383 354.373 327.125C354.528 326.867 354.606 326.547 354.606 326.165C354.606 325.778 354.528 325.453 354.373 325.188C354.221 324.922 353.988 324.722 353.674 324.585C353.363 324.445 352.971 324.375 352.498 324.375H350.839V334H348.379ZM354.663 328.705L357.555 334H354.839L352.009 328.705H354.663ZM362.67 334.17C361.772 334.17 360.999 333.989 360.352 333.625C359.708 333.258 359.211 332.739 358.863 332.068C358.514 331.394 358.34 330.597 358.34 329.676C358.34 328.778 358.514 327.991 358.863 327.312C359.211 326.634 359.702 326.106 360.335 325.727C360.971 325.348 361.717 325.159 362.573 325.159C363.149 325.159 363.685 325.252 364.181 325.438C364.681 325.619 365.117 325.894 365.488 326.261C365.863 326.629 366.155 327.091 366.363 327.648C366.571 328.201 366.675 328.848 366.675 329.591V330.256H359.306V328.756H364.397C364.397 328.407 364.321 328.098 364.17 327.83C364.018 327.561 363.808 327.35 363.539 327.199C363.274 327.044 362.965 326.966 362.613 326.966C362.246 326.966 361.92 327.051 361.636 327.222C361.355 327.388 361.136 327.614 360.977 327.898C360.817 328.178 360.736 328.491 360.732 328.835V330.261C360.732 330.693 360.812 331.066 360.971 331.381C361.134 331.695 361.363 331.938 361.658 332.108C361.954 332.278 362.304 332.364 362.71 332.364C362.978 332.364 363.225 332.326 363.448 332.25C363.672 332.174 363.863 332.061 364.022 331.909C364.181 331.758 364.302 331.572 364.386 331.352L366.624 331.5C366.511 332.038 366.278 332.508 365.925 332.909C365.577 333.307 365.126 333.617 364.573 333.841C364.024 334.061 363.389 334.17 362.67 334.17ZM375.516 327.761L373.3 327.898C373.263 327.708 373.181 327.538 373.056 327.386C372.931 327.231 372.766 327.108 372.562 327.017C372.361 326.922 372.121 326.875 371.84 326.875C371.465 326.875 371.149 326.955 370.891 327.114C370.634 327.269 370.505 327.477 370.505 327.739C370.505 327.947 370.588 328.123 370.755 328.267C370.922 328.411 371.208 328.527 371.613 328.614L373.192 328.932C374.041 329.106 374.674 329.386 375.09 329.773C375.507 330.159 375.715 330.667 375.715 331.295C375.715 331.867 375.547 332.369 375.21 332.801C374.876 333.233 374.418 333.57 373.835 333.812C373.255 334.051 372.586 334.17 371.829 334.17C370.674 334.17 369.753 333.93 369.067 333.449C368.386 332.964 367.986 332.305 367.869 331.472L370.249 331.347C370.321 331.699 370.496 331.968 370.772 332.153C371.049 332.335 371.403 332.426 371.835 332.426C372.259 332.426 372.6 332.345 372.857 332.182C373.119 332.015 373.251 331.801 373.255 331.54C373.251 331.32 373.158 331.14 372.977 331C372.795 330.856 372.514 330.746 372.136 330.67L370.624 330.369C369.772 330.199 369.138 329.903 368.721 329.483C368.308 329.062 368.102 328.527 368.102 327.875C368.102 327.314 368.253 326.831 368.556 326.426C368.863 326.021 369.293 325.708 369.846 325.489C370.403 325.269 371.054 325.159 371.8 325.159C372.903 325.159 373.77 325.392 374.403 325.858C375.039 326.324 375.41 326.958 375.516 327.761ZM377.239 334V325.273H379.66V334H377.239ZM378.455 324.148C378.095 324.148 377.787 324.028 377.529 323.79C377.275 323.547 377.148 323.258 377.148 322.92C377.148 322.587 377.275 322.301 377.529 322.062C377.787 321.82 378.095 321.699 378.455 321.699C378.815 321.699 379.122 321.82 379.376 322.062C379.633 322.301 379.762 322.587 379.762 322.92C379.762 323.258 379.633 323.547 379.376 323.79C379.122 324.028 378.815 324.148 378.455 324.148ZM384.019 322.364V334H381.599V322.364H384.019ZM385.958 334V325.273H388.379V334H385.958ZM387.174 324.148C386.814 324.148 386.505 324.028 386.248 323.79C385.994 323.547 385.867 323.258 385.867 322.92C385.867 322.587 385.994 322.301 386.248 322.062C386.505 321.82 386.814 321.699 387.174 321.699C387.534 321.699 387.841 321.82 388.094 322.062C388.352 322.301 388.481 322.587 388.481 322.92C388.481 323.258 388.352 323.547 388.094 323.79C387.841 324.028 387.534 324.148 387.174 324.148ZM394.295 334.17C393.397 334.17 392.624 333.989 391.977 333.625C391.333 333.258 390.836 332.739 390.488 332.068C390.139 331.394 389.965 330.597 389.965 329.676C389.965 328.778 390.139 327.991 390.488 327.312C390.836 326.634 391.327 326.106 391.96 325.727C392.596 325.348 393.342 325.159 394.198 325.159C394.774 325.159 395.31 325.252 395.806 325.438C396.306 325.619 396.742 325.894 397.113 326.261C397.488 326.629 397.78 327.091 397.988 327.648C398.196 328.201 398.3 328.848 398.3 329.591V330.256H390.931V328.756H396.022C396.022 328.407 395.946 328.098 395.795 327.83C395.643 327.561 395.433 327.35 395.164 327.199C394.899 327.044 394.59 326.966 394.238 326.966C393.871 326.966 393.545 327.051 393.261 327.222C392.98 327.388 392.761 327.614 392.602 327.898C392.442 328.178 392.361 328.491 392.357 328.835V330.261C392.357 330.693 392.437 331.066 392.596 331.381C392.759 331.695 392.988 331.938 393.283 332.108C393.579 332.278 393.929 332.364 394.335 332.364C394.603 332.364 394.85 332.326 395.073 332.25C395.297 332.174 395.488 332.061 395.647 331.909C395.806 331.758 395.927 331.572 396.011 331.352L398.249 331.5C398.136 332.038 397.903 332.508 397.55 332.909C397.202 333.307 396.751 333.617 396.198 333.841C395.649 334.061 395.014 334.17 394.295 334.17ZM402.3 328.955V334H399.88V325.273H402.187V326.812H402.289C402.482 326.305 402.806 325.903 403.261 325.608C403.715 325.309 404.266 325.159 404.914 325.159C405.52 325.159 406.049 325.292 406.499 325.557C406.95 325.822 407.3 326.201 407.55 326.693C407.8 327.182 407.925 327.765 407.925 328.443V334H405.505V328.875C405.509 328.341 405.372 327.924 405.096 327.625C404.819 327.322 404.439 327.17 403.954 327.17C403.628 327.17 403.34 327.241 403.09 327.381C402.844 327.521 402.651 327.725 402.511 327.994C402.374 328.259 402.304 328.58 402.3 328.955ZM413.776 334.17C412.882 334.17 412.113 333.981 411.469 333.602C410.829 333.22 410.337 332.689 409.992 332.011C409.651 331.333 409.481 330.553 409.481 329.67C409.481 328.777 409.653 327.992 409.998 327.318C410.346 326.64 410.841 326.112 411.481 325.733C412.121 325.35 412.882 325.159 413.765 325.159C414.526 325.159 415.193 325.297 415.765 325.574C416.337 325.85 416.79 326.239 417.123 326.739C417.456 327.239 417.64 327.826 417.674 328.5H415.39C415.326 328.064 415.155 327.714 414.879 327.449C414.606 327.18 414.248 327.045 413.805 327.045C413.43 327.045 413.102 327.148 412.822 327.352C412.545 327.553 412.329 327.847 412.174 328.233C412.019 328.619 411.941 329.087 411.941 329.636C411.941 330.193 412.017 330.667 412.168 331.057C412.324 331.447 412.541 331.744 412.822 331.949C413.102 332.153 413.43 332.256 413.805 332.256C414.081 332.256 414.329 332.199 414.549 332.085C414.772 331.972 414.956 331.807 415.1 331.591C415.248 331.371 415.344 331.108 415.39 330.801H417.674C417.636 331.468 417.454 332.055 417.129 332.562C416.807 333.066 416.362 333.46 415.793 333.744C415.225 334.028 414.553 334.17 413.776 334.17ZM420.718 337.273C420.411 337.273 420.123 337.248 419.854 337.199C419.589 337.153 419.37 337.095 419.195 337.023L419.741 335.216C420.025 335.303 420.281 335.35 420.508 335.358C420.739 335.366 420.938 335.313 421.104 335.199C421.275 335.085 421.413 334.892 421.519 334.619L421.661 334.25L418.531 325.273H421.076L422.883 331.682H422.974L424.798 325.273H427.36L423.968 334.943C423.805 335.413 423.584 335.822 423.303 336.17C423.027 336.523 422.676 336.794 422.252 336.983C421.828 337.176 421.317 337.273 420.718 337.273Z" fill="white"/>
<rect x="513.75" y="102.75" width="78.5" height="78.5" rx="39.25" fill="url(#paint2_linear_2207_5895)" stroke="url(#paint3_linear_2207_5895)" stroke-width="1.5"/>
<g clip-path="url(#clip0_2207_5895)">
<path d="M570.886 142.232C570.888 143.799 570.338 145.317 569.331 146.519C568.324 147.72 566.926 148.528 565.383 148.8C565.022 145.776 563.559 142.991 561.275 140.978C558.991 138.964 556.044 137.863 552.999 137.884C550.546 137.88 548.148 138.615 546.12 139.994C545.385 139.727 544.591 139.669 543.826 139.829C543.298 139.956 542.801 140.186 542.362 140.505C541.923 140.825 541.551 141.228 541.268 141.692C540.985 142.155 540.796 142.67 540.713 143.207C540.629 143.743 540.652 144.291 540.781 144.819L541.331 147.516L541.441 148.029C541.509 148.32 541.607 148.603 541.735 148.873C539.972 148.868 538.283 148.165 537.038 146.916C535.793 145.668 535.094 143.977 535.094 142.214V141.095C535.096 139.084 535.874 137.152 537.265 135.7C538.655 134.248 540.552 133.387 542.56 133.298C542.876 130.618 544.209 128.162 546.283 126.436C548.357 124.71 551.015 123.846 553.707 124.023C556.4 124.199 558.922 125.402 560.753 127.384C562.584 129.366 563.585 131.976 563.548 134.674C563.557 134.832 563.557 134.992 563.548 135.151C564.072 135.086 564.602 135.086 565.126 135.151C566.772 135.452 568.257 136.33 569.313 137.628C570.369 138.927 570.927 140.559 570.886 142.232ZM552.999 140.636C551.693 140.635 550.401 140.901 549.202 141.418C548.003 141.936 546.923 142.694 546.028 143.645V143.535C545.941 143.178 545.717 142.87 545.404 142.678C545.092 142.486 544.716 142.424 544.358 142.507C544.182 142.55 544.016 142.628 543.87 142.735C543.724 142.842 543.601 142.977 543.507 143.132C543.413 143.287 543.351 143.46 543.324 143.639C543.297 143.818 543.305 144.001 543.349 144.177L544.12 147.406C544.19 147.708 544.361 147.978 544.604 148.171C544.847 148.364 545.149 148.469 545.459 148.47H545.771L549.018 147.699C549.372 147.608 549.677 147.383 549.869 147.072C550.06 146.76 550.124 146.387 550.046 146.03C549.965 145.721 549.781 145.45 549.523 145.263C549.266 145.076 548.951 144.983 548.633 145.002C549.74 144.101 551.1 143.567 552.524 143.474C553.948 143.38 555.366 143.732 556.582 144.48C557.797 145.228 558.75 146.336 559.307 147.65C559.865 148.963 560.001 150.418 559.695 151.812C559.389 153.206 558.658 154.471 557.601 155.431C556.545 156.39 555.216 156.998 553.799 157.169C552.382 157.34 550.947 157.066 549.693 156.385C548.438 155.704 547.427 154.649 546.798 153.368C546.638 153.039 546.353 152.788 546.008 152.67C545.662 152.551 545.283 152.574 544.955 152.735C544.626 152.896 544.375 153.18 544.256 153.526C544.138 153.872 544.161 154.25 544.322 154.579C545.088 156.11 546.249 157.409 547.684 158.342C549.12 159.275 550.778 159.809 552.489 159.888C554.199 159.968 555.9 159.59 557.415 158.793C558.931 157.996 560.207 156.81 561.111 155.356C562.016 153.903 562.517 152.234 562.562 150.523C562.608 148.811 562.196 147.118 561.37 145.619C560.543 144.119 559.332 142.867 557.861 141.991C556.39 141.115 554.711 140.647 552.999 140.636Z" fill="#009900"/>
</g>
<path d="M527.561 196V187.273H530.51C531.191 187.273 531.751 187.389 532.189 187.622C532.626 187.852 532.95 188.169 533.16 188.572C533.37 188.976 533.475 189.435 533.475 189.949C533.475 190.463 533.37 190.919 533.16 191.317C532.95 191.714 532.627 192.027 532.193 192.254C531.758 192.479 531.203 192.591 530.527 192.591H528.14V191.636H530.493C530.958 191.636 531.333 191.568 531.618 191.432C531.904 191.295 532.112 191.102 532.24 190.852C532.37 190.599 532.436 190.298 532.436 189.949C532.436 189.599 532.37 189.294 532.24 189.033C532.109 188.771 531.9 188.57 531.613 188.428C531.326 188.283 530.947 188.21 530.475 188.21H528.618V196H527.561ZM531.669 192.08L533.816 196H532.589L530.475 192.08H531.669ZM537.774 196.136C537.143 196.136 536.599 195.997 536.142 195.719C535.688 195.438 535.337 195.045 535.089 194.543C534.845 194.037 534.723 193.449 534.723 192.778C534.723 192.108 534.845 191.517 535.089 191.006C535.337 190.491 535.68 190.091 536.121 189.804C536.564 189.514 537.081 189.369 537.672 189.369C538.013 189.369 538.349 189.426 538.682 189.54C539.014 189.653 539.317 189.838 539.589 190.094C539.862 190.347 540.08 190.682 540.241 191.099C540.403 191.517 540.484 192.031 540.484 192.642V193.068H535.439V192.199H539.462C539.462 191.83 539.388 191.5 539.24 191.21C539.095 190.92 538.888 190.692 538.618 190.524C538.351 190.357 538.036 190.273 537.672 190.273C537.271 190.273 536.925 190.372 536.632 190.571C536.342 190.767 536.119 191.023 535.963 191.338C535.807 191.653 535.729 191.991 535.729 192.352V192.932C535.729 193.426 535.814 193.845 535.984 194.189C536.158 194.53 536.398 194.79 536.705 194.969C537.011 195.145 537.368 195.233 537.774 195.233C538.038 195.233 538.277 195.196 538.49 195.122C538.706 195.045 538.892 194.932 539.048 194.781C539.205 194.628 539.325 194.437 539.411 194.21L540.382 194.483C540.28 194.812 540.108 195.102 539.866 195.352C539.625 195.599 539.327 195.793 538.972 195.932C538.616 196.068 538.217 196.136 537.774 196.136ZM544.673 196.136C544.06 196.136 543.531 195.991 543.088 195.702C542.645 195.412 542.304 195.013 542.065 194.504C541.827 193.996 541.707 193.415 541.707 192.761C541.707 192.097 541.83 191.51 542.074 191.001C542.321 190.49 542.665 190.091 543.105 189.804C543.548 189.514 544.065 189.369 544.656 189.369C545.116 189.369 545.531 189.455 545.901 189.625C546.27 189.795 546.572 190.034 546.808 190.341C547.044 190.648 547.19 191.006 547.247 191.415H546.241C546.165 191.116 545.994 190.852 545.73 190.622C545.469 190.389 545.116 190.273 544.673 190.273C544.281 190.273 543.938 190.375 543.642 190.58C543.349 190.781 543.121 191.067 542.956 191.436C542.794 191.803 542.713 192.233 542.713 192.727C542.713 193.233 542.793 193.673 542.952 194.048C543.114 194.423 543.341 194.714 543.634 194.922C543.929 195.129 544.276 195.233 544.673 195.233C544.935 195.233 545.172 195.188 545.385 195.097C545.598 195.006 545.778 194.875 545.926 194.705C546.074 194.534 546.179 194.33 546.241 194.091H547.247C547.19 194.477 547.05 194.825 546.825 195.135C546.604 195.442 546.31 195.686 545.943 195.868C545.58 196.047 545.156 196.136 544.673 196.136ZM551.376 196.136C550.786 196.136 550.267 195.996 549.821 195.714C549.378 195.433 549.031 195.04 548.781 194.534C548.534 194.028 548.411 193.437 548.411 192.761C548.411 192.08 548.534 191.484 548.781 190.976C549.031 190.467 549.378 190.072 549.821 189.791C550.267 189.51 550.786 189.369 551.376 189.369C551.967 189.369 552.484 189.51 552.928 189.791C553.374 190.072 553.72 190.467 553.967 190.976C554.217 191.484 554.342 192.08 554.342 192.761C554.342 193.437 554.217 194.028 553.967 194.534C553.72 195.04 553.374 195.433 552.928 195.714C552.484 195.996 551.967 196.136 551.376 196.136ZM551.376 195.233C551.825 195.233 552.195 195.118 552.484 194.888C552.774 194.658 552.989 194.355 553.128 193.98C553.267 193.605 553.337 193.199 553.337 192.761C553.337 192.324 553.267 191.916 553.128 191.538C552.989 191.161 552.774 190.855 552.484 190.622C552.195 190.389 551.825 190.273 551.376 190.273C550.928 190.273 550.558 190.389 550.268 190.622C549.979 190.855 549.764 191.161 549.625 191.538C549.486 191.916 549.416 192.324 549.416 192.761C549.416 193.199 549.486 193.605 549.625 193.98C549.764 194.355 549.979 194.658 550.268 194.888C550.558 195.118 550.928 195.233 551.376 195.233ZM560.995 189.455L558.575 196H557.552L555.132 189.455H556.223L558.029 194.67H558.098L559.904 189.455H560.995ZM564.833 196.136C564.202 196.136 563.658 195.997 563.201 195.719C562.746 195.438 562.395 195.045 562.148 194.543C561.904 194.037 561.782 193.449 561.782 192.778C561.782 192.108 561.904 191.517 562.148 191.006C562.395 190.491 562.739 190.091 563.179 189.804C563.623 189.514 564.14 189.369 564.73 189.369C565.071 189.369 565.408 189.426 565.74 189.54C566.073 189.653 566.375 189.838 566.648 190.094C566.921 190.347 567.138 190.682 567.3 191.099C567.462 191.517 567.543 192.031 567.543 192.642V193.068H562.498V192.199H566.52C566.52 191.83 566.446 191.5 566.299 191.21C566.154 190.92 565.946 190.692 565.676 190.524C565.409 190.357 565.094 190.273 564.73 190.273C564.33 190.273 563.983 190.372 563.691 190.571C563.401 190.767 563.178 191.023 563.022 191.338C562.865 191.653 562.787 191.991 562.787 192.352V192.932C562.787 193.426 562.873 193.845 563.043 194.189C563.216 194.53 563.456 194.79 563.763 194.969C564.07 195.145 564.426 195.233 564.833 195.233C565.097 195.233 565.336 195.196 565.549 195.122C565.765 195.045 565.951 194.932 566.107 194.781C566.263 194.628 566.384 194.437 566.469 194.21L567.441 194.483C567.338 194.812 567.167 195.102 566.925 195.352C566.684 195.599 566.385 195.793 566.03 195.932C565.675 196.068 565.276 196.136 564.833 196.136ZM569.073 196V189.455H570.044V190.443H570.113C570.232 190.119 570.448 189.857 570.76 189.655C571.073 189.453 571.425 189.352 571.817 189.352C571.891 189.352 571.983 189.354 572.094 189.357C572.205 189.359 572.289 189.364 572.346 189.369V190.392C572.311 190.384 572.233 190.371 572.111 190.354C571.992 190.334 571.865 190.324 571.732 190.324C571.414 190.324 571.13 190.391 570.88 190.524C570.632 190.655 570.436 190.837 570.292 191.07C570.15 191.3 570.078 191.562 570.078 191.858V196H569.073ZM574.385 198.455C574.214 198.455 574.062 198.44 573.929 198.412C573.795 198.386 573.703 198.361 573.652 198.335L573.907 197.449C574.152 197.511 574.368 197.534 574.555 197.517C574.743 197.5 574.909 197.416 575.054 197.266C575.201 197.118 575.336 196.878 575.458 196.545L575.646 196.034L573.225 189.455H574.316L576.123 194.67H576.191L577.998 189.455H579.089L576.311 196.955C576.186 197.293 576.031 197.572 575.846 197.794C575.662 198.018 575.447 198.185 575.203 198.293C574.961 198.401 574.689 198.455 574.385 198.455Z" fill="white"/>
<rect x="302.75" y="41.75" width="78.5" height="78.5" rx="39.25" fill="url(#paint4_linear_2207_5895)" stroke="url(#paint5_linear_2207_5895)" stroke-width="1.5"/>
<g clip-path="url(#clip1_2207_5895)">
<path d="M342 63C332.073 63 324 71.073 324 81C324 90.927 332.073 99 342 99C351.927 99 360 90.927 360 81C360 71.073 351.927 63 342 63ZM351.9 83.7C351.9 84.195 351.495 84.6 351 84.6H343.8V88.2C343.8 88.524 343.62 88.83 343.341 88.983C343.206 89.064 343.053 89.1 342.9 89.1C342.738 89.1 342.576 89.055 342.432 88.965L330.732 81.765C330.462 81.603 330.3 81.315 330.3 81C330.3 80.685 330.462 80.397 330.732 80.235L342.432 73.035C342.711 72.864 343.062 72.855 343.341 73.017C343.62 73.179 343.8 73.476 343.8 73.8V77.4H351C351.495 77.4 351.9 77.805 351.9 78.3V83.7Z" fill="#009900"/>
<path d="M342.003 78.3001V75.4111L332.922 81.0001L342.003 86.5891V83.7001C342.003 83.2051 342.408 82.8001 342.903 82.8001H350.103V79.2001H342.903C342.408 79.2001 342.003 78.7951 342.003 78.3001Z" fill="#009900"/>
</g>
<path d="M318.154 135V126.273H321.103C321.785 126.273 322.345 126.389 322.782 126.622C323.22 126.852 323.544 127.169 323.754 127.572C323.964 127.976 324.069 128.435 324.069 128.949C324.069 129.463 323.964 129.919 323.754 130.317C323.544 130.714 323.221 131.027 322.787 131.254C322.352 131.479 321.797 131.591 321.12 131.591H318.734V130.636H321.086C321.552 130.636 321.927 130.568 322.211 130.432C322.498 130.295 322.706 130.102 322.833 129.852C322.964 129.599 323.029 129.298 323.029 128.949C323.029 128.599 322.964 128.294 322.833 128.033C322.703 127.771 322.494 127.57 322.207 127.428C321.92 127.283 321.541 127.21 321.069 127.21H319.211V135H318.154ZM322.262 131.08L324.41 135H323.183L321.069 131.08H322.262ZM328.368 135.136C327.737 135.136 327.193 134.997 326.736 134.719C326.281 134.438 325.93 134.045 325.683 133.543C325.439 133.037 325.317 132.449 325.317 131.778C325.317 131.108 325.439 130.517 325.683 130.006C325.93 129.491 326.274 129.091 326.714 128.804C327.158 128.514 327.675 128.369 328.266 128.369C328.607 128.369 328.943 128.426 329.276 128.54C329.608 128.653 329.911 128.838 330.183 129.094C330.456 129.347 330.673 129.682 330.835 130.099C330.997 130.517 331.078 131.031 331.078 131.642V132.068H326.033V131.199H330.055C330.055 130.83 329.982 130.5 329.834 130.21C329.689 129.92 329.482 129.692 329.212 129.524C328.945 129.357 328.629 129.273 328.266 129.273C327.865 129.273 327.518 129.372 327.226 129.571C326.936 129.767 326.713 130.023 326.557 130.338C326.401 130.653 326.322 130.991 326.322 131.352V131.932C326.322 132.426 326.408 132.845 326.578 133.189C326.751 133.53 326.991 133.79 327.298 133.969C327.605 134.145 327.962 134.233 328.368 134.233C328.632 134.233 328.871 134.196 329.084 134.122C329.3 134.045 329.486 133.932 329.642 133.781C329.798 133.628 329.919 133.437 330.004 133.21L330.976 133.483C330.874 133.812 330.702 134.102 330.46 134.352C330.219 134.599 329.92 134.793 329.565 134.932C329.21 135.068 328.811 135.136 328.368 135.136ZM337.244 129.92L336.341 130.176C336.284 130.026 336.2 129.879 336.089 129.737C335.982 129.592 335.834 129.473 335.646 129.379C335.459 129.286 335.219 129.239 334.926 129.239C334.526 129.239 334.192 129.331 333.925 129.516C333.661 129.697 333.528 129.929 333.528 130.21C333.528 130.46 333.619 130.658 333.801 130.803C333.983 130.947 334.267 131.068 334.653 131.165L335.625 131.403C336.21 131.545 336.646 131.763 336.933 132.055C337.22 132.345 337.364 132.719 337.364 133.176C337.364 133.551 337.256 133.886 337.04 134.182C336.827 134.477 336.528 134.71 336.145 134.881C335.761 135.051 335.315 135.136 334.807 135.136C334.139 135.136 333.587 134.991 333.149 134.702C332.712 134.412 332.435 133.989 332.318 133.432L333.273 133.193C333.364 133.545 333.536 133.81 333.788 133.986C334.044 134.162 334.378 134.25 334.79 134.25C335.259 134.25 335.631 134.151 335.906 133.952C336.185 133.75 336.324 133.509 336.324 133.227C336.324 133 336.244 132.81 336.085 132.656C335.926 132.5 335.682 132.384 335.352 132.307L334.261 132.051C333.662 131.909 333.222 131.689 332.94 131.391C332.662 131.089 332.523 130.713 332.523 130.261C332.523 129.892 332.626 129.565 332.834 129.281C333.044 128.997 333.33 128.774 333.69 128.612C334.054 128.45 334.466 128.369 334.926 128.369C335.574 128.369 336.082 128.511 336.452 128.795C336.824 129.08 337.088 129.455 337.244 129.92ZM338.877 137.455V128.455H339.849V129.494H339.968C340.042 129.381 340.145 129.236 340.275 129.06C340.409 128.881 340.599 128.722 340.846 128.582C341.096 128.44 341.434 128.369 341.86 128.369C342.412 128.369 342.897 128.507 343.318 128.783C343.738 129.058 344.066 129.449 344.302 129.955C344.538 130.46 344.656 131.057 344.656 131.744C344.656 132.438 344.538 133.038 344.302 133.547C344.066 134.053 343.74 134.445 343.322 134.723C342.904 134.999 342.423 135.136 341.877 135.136C341.457 135.136 341.12 135.067 340.868 134.928C340.615 134.786 340.42 134.625 340.284 134.446C340.147 134.264 340.042 134.114 339.968 133.994H339.883V137.455H338.877ZM339.866 131.727C339.866 132.222 339.939 132.658 340.083 133.036C340.228 133.411 340.44 133.705 340.718 133.918C340.997 134.128 341.338 134.233 341.741 134.233C342.162 134.233 342.512 134.122 342.794 133.901C343.078 133.676 343.291 133.375 343.433 132.997C343.578 132.616 343.65 132.193 343.65 131.727C343.65 131.267 343.579 130.852 343.437 130.483C343.298 130.111 343.086 129.817 342.802 129.601C342.521 129.382 342.167 129.273 341.741 129.273C341.332 129.273 340.988 129.376 340.71 129.584C340.431 129.788 340.221 130.075 340.079 130.445C339.937 130.811 339.866 131.239 339.866 131.727ZM348.849 135.136C348.258 135.136 347.74 134.996 347.294 134.714C346.85 134.433 346.504 134.04 346.254 133.534C346.007 133.028 345.883 132.437 345.883 131.761C345.883 131.08 346.007 130.484 346.254 129.976C346.504 129.467 346.85 129.072 347.294 128.791C347.74 128.51 348.258 128.369 348.849 128.369C349.44 128.369 349.957 128.51 350.4 128.791C350.846 129.072 351.193 129.467 351.44 129.976C351.69 130.484 351.815 131.08 351.815 131.761C351.815 132.437 351.69 133.028 351.44 133.534C351.193 134.04 350.846 134.433 350.4 134.714C349.957 134.996 349.44 135.136 348.849 135.136ZM348.849 134.233C349.298 134.233 349.667 134.118 349.957 133.888C350.247 133.658 350.461 133.355 350.6 132.98C350.74 132.605 350.809 132.199 350.809 131.761C350.809 131.324 350.74 130.916 350.6 130.538C350.461 130.161 350.247 129.855 349.957 129.622C349.667 129.389 349.298 129.273 348.849 129.273C348.4 129.273 348.031 129.389 347.741 129.622C347.451 129.855 347.237 130.161 347.098 130.538C346.958 130.916 346.889 131.324 346.889 131.761C346.889 132.199 346.958 132.605 347.098 132.98C347.237 133.355 347.451 133.658 347.741 133.888C348.031 134.118 348.4 134.233 348.849 134.233ZM354.356 131.062V135H353.35V128.455H354.322V129.477H354.407C354.56 129.145 354.793 128.878 355.106 128.676C355.418 128.472 355.822 128.369 356.316 128.369C356.759 128.369 357.147 128.46 357.479 128.642C357.812 128.821 358.07 129.094 358.255 129.46C358.44 129.824 358.532 130.284 358.532 130.841V135H357.526V130.909C357.526 130.395 357.393 129.994 357.126 129.707C356.859 129.418 356.492 129.273 356.026 129.273C355.705 129.273 355.418 129.342 355.165 129.482C354.915 129.621 354.718 129.824 354.573 130.091C354.428 130.358 354.356 130.682 354.356 131.062ZM362.841 135.136C362.296 135.136 361.814 134.999 361.397 134.723C360.979 134.445 360.652 134.053 360.417 133.547C360.181 133.038 360.063 132.438 360.063 131.744C360.063 131.057 360.181 130.46 360.417 129.955C360.652 129.449 360.98 129.058 361.401 128.783C361.821 128.507 362.307 128.369 362.858 128.369C363.284 128.369 363.621 128.44 363.868 128.582C364.118 128.722 364.309 128.881 364.439 129.06C364.573 129.236 364.676 129.381 364.75 129.494H364.836V126.273H365.841V135H364.87V133.994H364.75C364.676 134.114 364.571 134.264 364.435 134.446C364.299 134.625 364.104 134.786 363.851 134.928C363.598 135.067 363.262 135.136 362.841 135.136ZM362.978 134.233C363.381 134.233 363.722 134.128 364 133.918C364.279 133.705 364.49 133.411 364.635 133.036C364.78 132.658 364.853 132.222 364.853 131.727C364.853 131.239 364.782 130.811 364.64 130.445C364.498 130.075 364.287 129.788 364.009 129.584C363.73 129.376 363.387 129.273 362.978 129.273C362.551 129.273 362.196 129.382 361.912 129.601C361.631 129.817 361.419 130.111 361.277 130.483C361.138 130.852 361.069 131.267 361.069 131.727C361.069 132.193 361.14 132.616 361.282 132.997C361.426 133.375 361.64 133.676 361.921 133.901C362.205 134.122 362.557 134.233 362.978 134.233Z" fill="white"/>
<rect x="103.75" y="370.75" width="78.5" height="78.5" rx="39.25" fill="url(#paint6_linear_2207_5895)" stroke="url(#paint7_linear_2207_5895)" stroke-width="1.5"/>
<path d="M158.112 401.266C158.069 400.319 158.069 399.415 158.069 398.511C158.069 397.779 157.509 397.22 156.777 397.22C151.396 397.22 147.306 395.67 143.905 392.355C143.389 391.882 142.614 391.882 142.097 392.355C138.696 395.67 134.607 397.22 129.225 397.22C128.494 397.22 127.934 397.779 127.934 398.511C127.934 399.415 127.934 400.319 127.891 401.266C127.719 410.307 127.46 422.705 142.571 427.914L143.001 428L143.432 427.914C158.499 422.705 158.284 410.35 158.112 401.266ZM141.968 413.794C141.71 414.009 141.408 414.138 141.064 414.138H141.021C140.677 414.138 140.332 413.966 140.117 413.708L136.113 409.274L138.051 407.552L141.193 411.039L148.167 404.409L149.932 406.303L141.968 413.794Z" fill="#009900"/>
<path d="M114.854 464V455.273H117.803C118.487 455.273 119.047 455.396 119.482 455.643C119.919 455.888 120.243 456.219 120.453 456.636C120.663 457.054 120.768 457.52 120.768 458.034C120.768 458.548 120.663 459.016 120.453 459.436C120.246 459.857 119.925 460.192 119.49 460.442C119.055 460.689 118.499 460.812 117.82 460.812H115.706V459.875H117.786C118.254 459.875 118.631 459.794 118.915 459.632C119.199 459.47 119.405 459.251 119.533 458.976C119.663 458.697 119.729 458.384 119.729 458.034C119.729 457.685 119.663 457.372 119.533 457.097C119.405 456.821 119.197 456.605 118.911 456.449C118.624 456.29 118.243 456.21 117.768 456.21H115.911V464H114.854ZM122.335 464V457.455H123.306V458.443H123.374C123.494 458.119 123.71 457.857 124.022 457.655C124.335 457.453 124.687 457.352 125.079 457.352C125.153 457.352 125.245 457.354 125.356 457.357C125.467 457.359 125.55 457.364 125.607 457.369V458.392C125.573 458.384 125.495 458.371 125.373 458.354C125.254 458.334 125.127 458.324 124.994 458.324C124.675 458.324 124.391 458.391 124.141 458.524C123.894 458.655 123.698 458.837 123.553 459.07C123.411 459.3 123.34 459.562 123.34 459.858V464H122.335ZM129.259 464.136C128.668 464.136 128.15 463.996 127.704 463.714C127.261 463.433 126.914 463.04 126.664 462.534C126.417 462.028 126.293 461.437 126.293 460.761C126.293 460.08 126.417 459.484 126.664 458.976C126.914 458.467 127.261 458.072 127.704 457.791C128.15 457.51 128.668 457.369 129.259 457.369C129.85 457.369 130.367 457.51 130.81 457.791C131.256 458.072 131.603 458.467 131.85 458.976C132.1 459.484 132.225 460.08 132.225 460.761C132.225 461.437 132.1 462.028 131.85 462.534C131.603 463.04 131.256 463.433 130.81 463.714C130.367 463.996 129.85 464.136 129.259 464.136ZM129.259 463.233C129.708 463.233 130.077 463.118 130.367 462.888C130.657 462.658 130.871 462.355 131.011 461.98C131.15 461.605 131.219 461.199 131.219 460.761C131.219 460.324 131.15 459.916 131.011 459.538C130.871 459.161 130.657 458.855 130.367 458.622C130.077 458.389 129.708 458.273 129.259 458.273C128.81 458.273 128.441 458.389 128.151 458.622C127.862 458.855 127.647 459.161 127.508 459.538C127.369 459.916 127.299 460.324 127.299 460.761C127.299 461.199 127.369 461.605 127.508 461.98C127.647 462.355 127.862 462.658 128.151 462.888C128.441 463.118 128.81 463.233 129.259 463.233ZM136.607 457.455V458.307H133.215V457.455H136.607ZM134.203 455.886H135.209V462.125C135.209 462.409 135.25 462.622 135.333 462.764C135.418 462.903 135.526 462.997 135.657 463.045C135.79 463.091 135.931 463.114 136.078 463.114C136.189 463.114 136.28 463.108 136.351 463.097C136.422 463.082 136.479 463.071 136.522 463.062L136.726 463.966C136.658 463.991 136.563 464.017 136.441 464.043C136.319 464.071 136.164 464.085 135.976 464.085C135.692 464.085 135.414 464.024 135.141 463.902C134.871 463.78 134.647 463.594 134.468 463.344C134.292 463.094 134.203 462.778 134.203 462.398V455.886ZM140.794 464.136C140.163 464.136 139.619 463.997 139.162 463.719C138.707 463.438 138.356 463.045 138.109 462.543C137.865 462.037 137.743 461.449 137.743 460.778C137.743 460.108 137.865 459.517 138.109 459.006C138.356 458.491 138.7 458.091 139.14 457.804C139.583 457.514 140.1 457.369 140.691 457.369C141.032 457.369 141.369 457.426 141.701 457.54C142.034 457.653 142.336 457.838 142.609 458.094C142.882 458.347 143.099 458.682 143.261 459.099C143.423 459.517 143.504 460.031 143.504 460.642V461.068H138.458V460.199H142.481C142.481 459.83 142.407 459.5 142.26 459.21C142.115 458.92 141.907 458.692 141.637 458.524C141.37 458.357 141.055 458.273 140.691 458.273C140.291 458.273 139.944 458.372 139.652 458.571C139.362 458.767 139.139 459.023 138.983 459.338C138.826 459.653 138.748 459.991 138.748 460.352V460.932C138.748 461.426 138.833 461.845 139.004 462.189C139.177 462.53 139.417 462.79 139.724 462.969C140.031 463.145 140.387 463.233 140.794 463.233C141.058 463.233 141.297 463.196 141.51 463.122C141.725 463.045 141.912 462.932 142.068 462.781C142.224 462.628 142.345 462.437 142.43 462.21L143.402 462.483C143.299 462.812 143.127 463.102 142.886 463.352C142.645 463.599 142.346 463.793 141.991 463.932C141.636 464.068 141.237 464.136 140.794 464.136ZM147.693 464.136C147.079 464.136 146.551 463.991 146.108 463.702C145.664 463.412 145.324 463.013 145.085 462.504C144.846 461.996 144.727 461.415 144.727 460.761C144.727 460.097 144.849 459.51 145.093 459.001C145.341 458.49 145.684 458.091 146.125 457.804C146.568 457.514 147.085 457.369 147.676 457.369C148.136 457.369 148.551 457.455 148.92 457.625C149.289 457.795 149.592 458.034 149.828 458.341C150.064 458.648 150.21 459.006 150.267 459.415H149.261C149.184 459.116 149.014 458.852 148.75 458.622C148.488 458.389 148.136 458.273 147.693 458.273C147.301 458.273 146.957 458.375 146.662 458.58C146.369 458.781 146.14 459.067 145.975 459.436C145.814 459.803 145.733 460.233 145.733 460.727C145.733 461.233 145.812 461.673 145.971 462.048C146.133 462.423 146.36 462.714 146.653 462.922C146.949 463.129 147.295 463.233 147.693 463.233C147.954 463.233 148.191 463.188 148.404 463.097C148.618 463.006 148.798 462.875 148.946 462.705C149.093 462.534 149.199 462.33 149.261 462.091H150.267C150.21 462.477 150.069 462.825 149.845 463.135C149.623 463.442 149.329 463.686 148.963 463.868C148.599 464.047 148.176 464.136 147.693 464.136ZM154.583 457.455V458.307H151.191V457.455H154.583ZM152.18 455.886H153.186V462.125C153.186 462.409 153.227 462.622 153.309 462.764C153.395 462.903 153.502 462.997 153.633 463.045C153.767 463.091 153.907 463.114 154.055 463.114C154.166 463.114 154.257 463.108 154.328 463.097C154.399 463.082 154.456 463.071 154.498 463.062L154.703 463.966C154.635 463.991 154.539 464.017 154.417 464.043C154.295 464.071 154.14 464.085 153.953 464.085C153.669 464.085 153.39 464.024 153.118 463.902C152.848 463.78 152.623 463.594 152.444 463.344C152.268 463.094 152.18 462.778 152.18 462.398V455.886ZM156.096 464V457.455H157.102V464H156.096ZM156.608 456.364C156.412 456.364 156.243 456.297 156.1 456.163C155.961 456.03 155.892 455.869 155.892 455.682C155.892 455.494 155.961 455.334 156.1 455.2C156.243 455.067 156.412 455 156.608 455C156.804 455 156.971 455.067 157.11 455.2C157.252 455.334 157.324 455.494 157.324 455.682C157.324 455.869 157.252 456.03 157.11 456.163C156.971 456.297 156.804 456.364 156.608 456.364ZM161.603 464.136C161.012 464.136 160.494 463.996 160.048 463.714C159.604 463.433 159.258 463.04 159.008 462.534C158.761 462.028 158.637 461.437 158.637 460.761C158.637 460.08 158.761 459.484 159.008 458.976C159.258 458.467 159.604 458.072 160.048 457.791C160.494 457.51 161.012 457.369 161.603 457.369C162.194 457.369 162.711 457.51 163.154 457.791C163.6 458.072 163.947 458.467 164.194 458.976C164.444 459.484 164.569 460.08 164.569 460.761C164.569 461.437 164.444 462.028 164.194 462.534C163.947 463.04 163.6 463.433 163.154 463.714C162.711 463.996 162.194 464.136 161.603 464.136ZM161.603 463.233C162.052 463.233 162.421 463.118 162.711 462.888C163.001 462.658 163.215 462.355 163.354 461.98C163.494 461.605 163.563 461.199 163.563 460.761C163.563 460.324 163.494 459.916 163.354 459.538C163.215 459.161 163.001 458.855 162.711 458.622C162.421 458.389 162.052 458.273 161.603 458.273C161.154 458.273 160.785 458.389 160.495 458.622C160.205 458.855 159.991 459.161 159.852 459.538C159.712 459.916 159.643 460.324 159.643 460.761C159.643 461.199 159.712 461.605 159.852 461.98C159.991 462.355 160.205 462.658 160.495 462.888C160.785 463.118 161.154 463.233 161.603 463.233ZM167.11 460.062V464H166.104V457.455H167.076V458.477H167.161C167.314 458.145 167.547 457.878 167.86 457.676C168.172 457.472 168.576 457.369 169.07 457.369C169.513 457.369 169.901 457.46 170.233 457.642C170.566 457.821 170.824 458.094 171.009 458.46C171.194 458.824 171.286 459.284 171.286 459.841V464H170.28V459.909C170.28 459.395 170.147 458.994 169.88 458.707C169.613 458.418 169.246 458.273 168.78 458.273C168.459 458.273 168.172 458.342 167.919 458.482C167.669 458.621 167.472 458.824 167.327 459.091C167.182 459.358 167.11 459.682 167.11 460.062Z" fill="white"/>
<rect x="112.75" y="160.75" width="78.5" height="78.5" rx="39.25" fill="url(#paint8_linear_2207_5895)" stroke="url(#paint9_linear_2207_5895)" stroke-width="1.5"/>
<path d="M167.67 209.534C166.767 208.641 163.355 205.998 160.102 203.976L160.068 204.01C163.378 198.859 162.983 191.743 158.272 187.044C152.963 181.735 144.345 181.735 139.036 187.044C133.738 192.353 133.727 200.972 139.036 206.28C143.656 210.912 150.761 211.454 155.979 208.11C158.001 211.375 160.633 214.763 161.537 215.667C163.231 217.361 165.976 217.361 167.67 215.667C169.365 213.973 169.365 211.228 167.67 209.534ZM154.816 202.824C151.439 206.201 145.904 206.258 142.481 202.835C139.081 199.435 139.081 193.901 142.481 190.489C145.881 187.078 151.416 187.067 154.827 190.489C158.34 193.98 158.092 199.56 154.816 202.824ZM165.456 213.453C164.993 213.916 164.293 213.894 163.852 213.453C163.401 213.001 163.434 212.278 163.852 211.86C164.282 211.443 165.038 211.443 165.456 211.86C165.886 212.267 165.897 213.035 165.456 213.453Z" fill="#009900"/>
<path d="M148.649 191.589C148.025 191.589 147.52 192.095 147.52 192.718V197.054C147.52 197.678 148.025 198.184 148.649 198.184C149.273 198.184 149.779 197.678 149.779 197.054V192.718C149.779 192.095 149.273 191.589 148.649 191.589Z" fill="#009900"/>
<path d="M147.846 199.797C147.422 200.222 147.399 200.941 147.846 201.39C148.282 201.825 149.013 201.827 149.45 201.39C149.897 200.943 149.875 200.221 149.45 199.797C149.021 199.379 148.276 199.379 147.846 199.797Z" fill="#009900"/>
<path d="M128.264 254H125.57V245.273H128.383C129.23 245.273 129.954 245.447 130.556 245.797C131.159 246.143 131.62 246.642 131.941 247.293C132.262 247.94 132.423 248.716 132.423 249.619C132.423 250.528 132.261 251.311 131.937 251.967C131.613 252.621 131.142 253.124 130.522 253.476C129.903 253.825 129.15 254 128.264 254ZM126.627 253.062H128.195C128.917 253.062 129.515 252.923 129.99 252.645C130.464 252.366 130.818 251.97 131.051 251.456C131.284 250.942 131.4 250.33 131.4 249.619C131.4 248.915 131.285 248.308 131.055 247.8C130.825 247.288 130.481 246.896 130.024 246.624C129.566 246.348 128.997 246.21 128.315 246.21H126.627V253.062ZM136.803 254.136C136.173 254.136 135.629 253.997 135.171 253.719C134.717 253.438 134.366 253.045 134.119 252.543C133.874 252.037 133.752 251.449 133.752 250.778C133.752 250.108 133.874 249.517 134.119 249.006C134.366 248.491 134.71 248.091 135.15 247.804C135.593 247.514 136.11 247.369 136.701 247.369C137.042 247.369 137.379 247.426 137.711 247.54C138.044 247.653 138.346 247.838 138.619 248.094C138.892 248.347 139.109 248.682 139.271 249.099C139.433 249.517 139.514 250.031 139.514 250.642V251.068H134.468V250.199H138.491C138.491 249.83 138.417 249.5 138.269 249.21C138.124 248.92 137.917 248.692 137.647 248.524C137.38 248.357 137.065 248.273 136.701 248.273C136.301 248.273 135.954 248.372 135.661 248.571C135.372 248.767 135.149 249.023 134.992 249.338C134.836 249.653 134.758 249.991 134.758 250.352V250.932C134.758 251.426 134.843 251.845 135.014 252.189C135.187 252.53 135.427 252.79 135.734 252.969C136.041 253.145 136.397 253.233 136.803 253.233C137.068 253.233 137.306 253.196 137.519 253.122C137.735 253.045 137.921 252.932 138.078 252.781C138.234 252.628 138.355 252.437 138.44 252.21L139.411 252.483C139.309 252.812 139.137 253.102 138.896 253.352C138.654 253.599 138.356 253.793 138.001 253.932C137.646 254.068 137.247 254.136 136.803 254.136ZM143.89 247.455V248.307H140.498V247.455H143.89ZM141.487 245.886H142.492V252.125C142.492 252.409 142.534 252.622 142.616 252.764C142.701 252.903 142.809 252.997 142.94 253.045C143.073 253.091 143.214 253.114 143.362 253.114C143.472 253.114 143.563 253.108 143.634 253.097C143.705 253.082 143.762 253.071 143.805 253.062L144.009 253.966C143.941 253.991 143.846 254.017 143.724 254.043C143.602 254.071 143.447 254.085 143.259 254.085C142.975 254.085 142.697 254.024 142.424 253.902C142.154 253.78 141.93 253.594 141.751 253.344C141.575 253.094 141.487 252.778 141.487 252.398V245.886ZM148.077 254.136C147.446 254.136 146.902 253.997 146.445 253.719C145.99 253.438 145.639 253.045 145.392 252.543C145.148 252.037 145.026 251.449 145.026 250.778C145.026 250.108 145.148 249.517 145.392 249.006C145.639 248.491 145.983 248.091 146.423 247.804C146.867 247.514 147.384 247.369 147.975 247.369C148.316 247.369 148.652 247.426 148.985 247.54C149.317 247.653 149.619 247.838 149.892 248.094C150.165 248.347 150.382 248.682 150.544 249.099C150.706 249.517 150.787 250.031 150.787 250.642V251.068H145.742V250.199H149.764C149.764 249.83 149.691 249.5 149.543 249.21C149.398 248.92 149.191 248.692 148.921 248.524C148.654 248.357 148.338 248.273 147.975 248.273C147.574 248.273 147.227 248.372 146.935 248.571C146.645 248.767 146.422 249.023 146.266 249.338C146.11 249.653 146.031 249.991 146.031 250.352V250.932C146.031 251.426 146.117 251.845 146.287 252.189C146.46 252.53 146.7 252.79 147.007 252.969C147.314 253.145 147.671 253.233 148.077 253.233C148.341 253.233 148.58 253.196 148.793 253.122C149.009 253.045 149.195 252.932 149.351 252.781C149.507 252.628 149.628 252.437 149.713 252.21L150.685 252.483C150.583 252.812 150.411 253.102 150.169 253.352C149.928 253.599 149.629 253.793 149.274 253.932C148.919 254.068 148.52 254.136 148.077 254.136ZM154.976 254.136C154.362 254.136 153.834 253.991 153.391 253.702C152.948 253.412 152.607 253.013 152.368 252.504C152.129 251.996 152.01 251.415 152.01 250.761C152.01 250.097 152.132 249.51 152.377 249.001C152.624 248.49 152.968 248.091 153.408 247.804C153.851 247.514 154.368 247.369 154.959 247.369C155.419 247.369 155.834 247.455 156.203 247.625C156.573 247.795 156.875 248.034 157.111 248.341C157.347 248.648 157.493 249.006 157.55 249.415H156.544C156.468 249.116 156.297 248.852 156.033 248.622C155.771 248.389 155.419 248.273 154.976 248.273C154.584 248.273 154.24 248.375 153.945 248.58C153.652 248.781 153.423 249.067 153.259 249.436C153.097 249.803 153.016 250.233 153.016 250.727C153.016 251.233 153.095 251.673 153.254 252.048C153.416 252.423 153.644 252.714 153.936 252.922C154.232 253.129 154.578 253.233 154.976 253.233C155.237 253.233 155.475 253.188 155.688 253.097C155.901 253.006 156.081 252.875 156.229 252.705C156.377 252.534 156.482 252.33 156.544 252.091H157.55C157.493 252.477 157.352 252.825 157.128 253.135C156.906 253.442 156.612 253.686 156.246 253.868C155.882 254.047 155.459 254.136 154.976 254.136ZM161.867 247.455V248.307H158.475V247.455H161.867ZM159.463 245.886H160.469V252.125C160.469 252.409 160.51 252.622 160.593 252.764C160.678 252.903 160.786 252.997 160.916 253.045C161.05 253.091 161.191 253.114 161.338 253.114C161.449 253.114 161.54 253.108 161.611 253.097C161.682 253.082 161.739 253.071 161.781 253.062L161.986 253.966C161.918 253.991 161.823 254.017 161.7 254.043C161.578 254.071 161.423 254.085 161.236 254.085C160.952 254.085 160.673 254.024 160.401 253.902C160.131 253.78 159.906 253.594 159.727 253.344C159.551 253.094 159.463 252.778 159.463 252.398V245.886ZM163.379 254V247.455H164.385V254H163.379ZM163.891 246.364C163.695 246.364 163.526 246.297 163.384 246.163C163.244 246.03 163.175 245.869 163.175 245.682C163.175 245.494 163.244 245.334 163.384 245.2C163.526 245.067 163.695 245 163.891 245C164.087 245 164.254 245.067 164.394 245.2C164.536 245.334 164.607 245.494 164.607 245.682C164.607 245.869 164.536 246.03 164.394 246.163C164.254 246.297 164.087 246.364 163.891 246.364ZM168.886 254.136C168.295 254.136 167.777 253.996 167.331 253.714C166.888 253.433 166.541 253.04 166.291 252.534C166.044 252.028 165.92 251.437 165.92 250.761C165.92 250.08 166.044 249.484 166.291 248.976C166.541 248.467 166.888 248.072 167.331 247.791C167.777 247.51 168.295 247.369 168.886 247.369C169.477 247.369 169.994 247.51 170.437 247.791C170.883 248.072 171.23 248.467 171.477 248.976C171.727 249.484 171.852 250.08 171.852 250.761C171.852 251.437 171.727 252.028 171.477 252.534C171.23 253.04 170.883 253.433 170.437 253.714C169.994 253.996 169.477 254.136 168.886 254.136ZM168.886 253.233C169.335 253.233 169.704 253.118 169.994 252.888C170.284 252.658 170.498 252.355 170.638 251.98C170.777 251.605 170.846 251.199 170.846 250.761C170.846 250.324 170.777 249.916 170.638 249.538C170.498 249.161 170.284 248.855 169.994 248.622C169.704 248.389 169.335 248.273 168.886 248.273C168.437 248.273 168.068 248.389 167.778 248.622C167.488 248.855 167.274 249.161 167.135 249.538C166.996 249.916 166.926 250.324 166.926 250.761C166.926 251.199 166.996 251.605 167.135 251.98C167.274 252.355 167.488 252.658 167.778 252.888C168.068 253.118 168.437 253.233 168.886 253.233ZM174.393 250.062V254H173.387V247.455H174.359V248.477H174.444C174.597 248.145 174.83 247.878 175.143 247.676C175.455 247.472 175.859 247.369 176.353 247.369C176.796 247.369 177.184 247.46 177.517 247.642C177.849 247.821 178.107 248.094 178.292 248.46C178.477 248.824 178.569 249.284 178.569 249.841V254H177.563V249.909C177.563 249.395 177.43 248.994 177.163 248.707C176.896 248.418 176.529 248.273 176.063 248.273C175.742 248.273 175.455 248.342 175.203 248.482C174.953 248.621 174.755 248.824 174.61 249.091C174.465 249.358 174.393 249.682 174.393 250.062Z" fill="white"/>
<g filter="url(#filter1_d_2207_5895)">
<rect x="369.488" y="409" width="9.06112" height="99.8178" transform="rotate(10.0893 369.488 409)" fill="#1E1D71"/>
</g>
</g>
<defs>
<filter id="filter0_f_2207_5895" x="197" y="125" width="382" height="382" filterUnits="userSpaceOnUse" color-interpolation-filters="sRGB">
<feFlood flood-opacity="0" result="BackgroundImageFix"/>
<feBlend mode="normal" in="SourceGraphic" in2="BackgroundImageFix" result="shape"/>
<feGaussianBlur stdDeviation="38" result="effect1_foregroundBlur_2207_5895"/>
</filter>
<filter id="filter1_d_2207_5895" x="348" y="407" width="30.4102" height="103.861" filterUnits="userSpaceOnUse" color-interpolation-filters="sRGB">
<feFlood flood-opacity="0" result="BackgroundImageFix"/>
<feColorMatrix in="SourceAlpha" type="matrix" values="0 0 0 0 0 0 0 0 0 0 0 0 0 0 0 0 0 0 127 0" result="hardAlpha"/>
<feOffset dx="-2"/>
<feGaussianBlur stdDeviation="1"/>
<feComposite in2="hardAlpha" operator="out"/>
<feColorMatrix type="matrix" values="0 0 0 0 0 0 0 0 0 0 0 0 0 0 0 0 0 0 0.25 0"/>
<feBlend mode="normal" in2="BackgroundImageFix" result="effect1_dropShadow_2207_5895"/>
<feBlend mode="normal" in="SourceGraphic" in2="effect1_dropShadow_2207_5895" result="shape"/>
</filter>
<linearGradient id="paint0_linear_2207_5895" x1="41.1513" y1="330" x2="656.135" y2="330" gradientUnits="userSpaceOnUse">
<stop/>
<stop offset="1" stop-color="#3432CA"/>
</linearGradient>
<linearGradient id="paint1_linear_2207_5895" x1="41.1513" y1="330" x2="656.135" y2="330" gradientUnits="userSpaceOnUse">
<stop/>
<stop offset="1" stop-color="#3432CA"/>
</linearGradient>
<linearGradient id="paint2_linear_2207_5895" x1="553.07" y1="151.825" x2="552.627" y2="181.995" gradientUnits="userSpaceOnUse">
<stop stop-color="white"/>
<stop offset="1" stop-color="white" stop-opacity="0"/>
</linearGradient>
<linearGradient id="paint3_linear_2207_5895" x1="553.058" y1="178.23" x2="553.658" y2="116.616" gradientUnits="userSpaceOnUse">
<stop stop-color="white" stop-opacity="0"/>
<stop offset="1" stop-color="white"/>
</linearGradient>
<linearGradient id="paint4_linear_2207_5895" x1="342.07" y1="90.8246" x2="341.627" y2="120.995" gradientUnits="userSpaceOnUse">
<stop stop-color="white"/>
<stop offset="1" stop-color="white" stop-opacity="0"/>
</linearGradient>
<linearGradient id="paint5_linear_2207_5895" x1="342.058" y1="117.23" x2="342.658" y2="55.6158" gradientUnits="userSpaceOnUse">
<stop stop-color="white" stop-opacity="0"/>
<stop offset="1" stop-color="white"/>
</linearGradient>
<linearGradient id="paint6_linear_2207_5895" x1="143.07" y1="419.825" x2="142.627" y2="449.995" gradientUnits="userSpaceOnUse">
<stop stop-color="white"/>
<stop offset="1" stop-color="white" stop-opacity="0"/>
</linearGradient>
<linearGradient id="paint7_linear_2207_5895" x1="143.058" y1="446.23" x2="143.658" y2="384.616" gradientUnits="userSpaceOnUse">
<stop stop-color="white" stop-opacity="0"/>
<stop offset="1" stop-color="white"/>
</linearGradient>
<linearGradient id="paint8_linear_2207_5895" x1="152.07" y1="209.825" x2="151.627" y2="239.995" gradientUnits="userSpaceOnUse">
<stop stop-color="white"/>
<stop offset="1" stop-color="white" stop-opacity="0"/>
</linearGradient>
<linearGradient id="paint9_linear_2207_5895" x1="152.058" y1="236.23" x2="152.658" y2="174.616" gradientUnits="userSpaceOnUse">
<stop stop-color="white" stop-opacity="0"/>
<stop offset="1" stop-color="white"/>
</linearGradient>
<clipPath id="clip0_2207_5895">
<rect width="36" height="36" fill="white" transform="translate(535 124)"/>
</clipPath>
<clipPath id="clip1_2207_5895">
<rect width="36" height="36" fill="white" transform="translate(324 63)"/>
</clipPath>
</defs>
</svg>
