<svg width="695" height="550" viewBox="0 0 695 550" fill="none" xmlns="http://www.w3.org/2000/svg">
<rect width="695" height="550" rx="24" fill="url(#paint0_linear_819_6483)"/>
<mask id="mask0_819_6483" style="mask-type:alpha" maskUnits="userSpaceOnUse" x="0" y="0" width="695" height="550">
<rect width="695" height="550" rx="24" fill="url(#paint1_linear_819_6483)"/>
</mask>
<g mask="url(#mask0_819_6483)">
<path d="M347 209C347 209.552 347.448 210 348 210C348.552 210 349 209.552 349 209L347 209ZM348.707 140.293C348.317 139.902 347.683 139.902 347.293 140.293L340.929 146.657C340.538 147.047 340.538 147.681 340.929 148.071C341.319 148.462 341.953 148.462 342.343 148.071L348 142.414L353.657 148.071C354.047 148.462 354.681 148.462 355.071 148.071C355.462 147.681 355.462 147.047 355.071 146.657L348.707 140.293ZM349 209L349 207.111L347 207.111L347 209L349 209ZM349 203.333L349 199.556L347 199.556L347 203.333L349 203.333ZM349 195.778L349 192L347 192L347 195.778L349 195.778ZM349 188.222L349 184.444L347 184.444L347 188.222L349 188.222ZM349 180.667L349 176.889L347 176.889L347 180.667L349 180.667ZM349 173.111L349 169.333L347 169.333L347 173.111L349 173.111ZM349 165.556L349 161.778L347 161.778L347 165.556L349 165.556ZM349 158L349 154.222L347 154.222L347 158L349 158ZM349 150.444L349 146.667L347 146.667L347 150.444L349 150.444ZM349 142.889L349 141L347 141L347 142.889L349 142.889ZM347 209C347 209.552 347.448 210 348 210C348.552 210 349 209.552 349 209L347 209ZM348.707 140.293C348.317 139.902 347.683 139.902 347.293 140.293L340.929 146.657C340.538 147.047 340.538 147.681 340.929 148.071C341.319 148.462 341.953 148.462 342.343 148.071L348 142.414L353.657 148.071C354.047 148.462 354.681 148.462 355.071 148.071C355.462 147.681 355.462 147.047 355.071 146.657L348.707 140.293ZM349 209L349 207.111L347 207.111L347 209L349 209ZM349 203.333L349 199.556L347 199.556L347 203.333L349 203.333ZM349 195.778L349 192L347 192L347 195.778L349 195.778ZM349 188.222L349 184.444L347 184.444L347 188.222L349 188.222ZM349 180.667L349 176.889L347 176.889L347 180.667L349 180.667ZM349 173.111L349 169.333L347 169.333L347 173.111L349 173.111ZM349 165.556L349 161.778L347 161.778L347 165.556L349 165.556ZM349 158L349 154.222L347 154.222L347 158L349 158ZM349 150.444L349 146.667L347 146.667L347 150.444L349 150.444ZM349 142.889L349 141L347 141L347 142.889L349 142.889Z" fill="white"/>
<path fill-rule="evenodd" clip-rule="evenodd" d="M17.8892 383.5L-72 331.583L-5.74652 216.917L84.195 268.745L84.2457 165H216.754L216.805 268.745L306.746 216.917L373 331.583L283.11 383.5L373 435.417L306.746 550.083L216.805 498.255L216.754 602H84.2457L84.195 498.255L-5.74652 550.083L-72 435.417L17.8892 383.5Z" fill="#3432CA" fill-opacity="0.3"/>
<rect x="255.75" y="212.75" width="184.5" height="124.5" rx="19.25" fill="url(#paint2_linear_819_6483)" stroke="url(#paint3_linear_819_6483)" stroke-width="1.5"/>
<g clip-path="url(#clip0_819_6483)">
<path d="M326.333 255.5H365.333C367.722 255.5 369.667 253.556 369.667 251.166V244.666C369.667 242.277 367.722 240.333 365.333 240.333H326.333C323.945 240.333 322 242.277 322 244.666V251.166C322 253.556 323.945 255.5 326.333 255.5ZM361 245.75C362.195 245.75 363.167 246.722 363.167 247.916C363.167 249.111 362.195 250.083 361 250.083C359.805 250.083 358.833 249.111 358.833 247.916C358.833 246.722 359.805 245.75 361 245.75ZM354.5 245.75C355.695 245.75 356.667 246.722 356.667 247.916C356.667 249.111 355.695 250.083 354.5 250.083C353.305 250.083 352.333 249.111 352.333 247.916C352.333 246.722 353.305 245.75 354.5 245.75ZM337.167 245.75C337.167 245.151 337.651 244.666 338.25 244.666C338.849 244.666 339.333 245.151 339.333 245.75V250.083C339.333 250.682 338.849 251.166 338.25 251.166C337.651 251.166 337.167 250.682 337.167 250.083V245.75ZM332.833 245.75C332.833 245.151 333.318 244.666 333.917 244.666C334.515 244.666 335 245.151 335 245.75V250.083C335 250.682 334.515 251.166 333.917 251.166C333.318 251.166 332.833 250.682 332.833 250.083L332.833 245.75ZM328.5 245.75C328.5 245.151 328.985 244.666 329.583 244.666C330.182 244.666 330.667 245.151 330.667 245.75V250.083C330.667 250.682 330.182 251.166 329.583 251.166C328.985 251.166 328.5 250.682 328.5 250.083V245.75Z" fill="#009900"/>
<path d="M354.858 259.678C355.277 259.428 355.475 258.929 355.344 258.461C355.215 257.991 354.788 257.666 354.301 257.666H326.333C323.945 257.666 322 259.61 322 261.999V268.499C322 270.889 323.945 272.833 326.333 272.833H346.917C347.516 272.833 348 272.348 348 271.749C348 266.768 350.564 262.255 354.858 259.678ZM330.667 267.416C330.667 268.015 330.182 268.499 329.583 268.499C328.985 268.499 328.5 268.015 328.5 267.416V263.083C328.5 262.484 328.985 261.999 329.583 261.999C330.182 261.999 330.667 262.484 330.667 263.083L330.667 267.416ZM335 267.416C335 268.015 334.515 268.499 333.917 268.499C333.318 268.499 332.833 268.015 332.833 267.416V263.083C332.833 262.484 333.318 261.999 333.917 261.999C334.515 261.999 335 262.484 335 263.083V267.416ZM339.333 267.416C339.333 268.015 338.849 268.499 338.25 268.499C337.651 268.499 337.167 268.015 337.167 267.416V263.083C337.167 262.484 337.651 261.999 338.25 261.999C338.849 261.999 339.333 262.484 339.333 263.083V267.416Z" fill="#009900"/>
<path d="M362.085 259.833C355.515 259.833 350.168 265.179 350.168 271.75C350.168 278.321 355.515 283.666 362.085 283.666C368.654 283.666 374.001 278.321 374.001 271.75C374.001 265.179 368.654 259.833 362.085 259.833ZM355.586 272.833L355.586 272.833L355.585 272.833C354.986 272.833 354.501 272.348 354.501 271.75C354.501 267.569 357.904 264.166 362.085 264.166C364.608 264.166 366.959 265.416 368.372 267.509C368.707 268.005 368.577 268.678 368.081 269.013C367.587 269.349 366.911 269.217 366.578 268.722C365.566 267.226 363.887 266.333 362.084 266.333C360.538 266.333 359.15 266.992 358.162 268.035L359.319 268.614C359.664 268.786 359.891 269.13 359.916 269.515C359.94 269.901 359.757 270.271 359.435 270.484L356.185 272.651C356.166 272.664 356.142 272.659 356.121 272.67C355.962 272.764 355.786 272.832 355.588 272.832C355.588 272.832 355.586 272.833 355.586 272.833ZM362.085 279.333C359.561 279.333 357.211 278.084 355.797 275.99C355.462 275.495 355.592 274.821 356.088 274.487C356.581 274.151 357.257 274.281 357.592 274.778C358.603 276.273 360.282 277.166 362.085 277.166C363.631 277.166 365.019 276.507 366.007 275.464L364.85 274.885C364.505 274.713 364.278 274.369 364.253 273.984C364.229 273.598 364.412 273.229 364.734 273.015L367.984 270.848C368.009 270.832 368.018 270.846 368.04 270.834C368.202 270.737 368.382 270.666 368.585 270.666C369.184 270.666 369.668 271.151 369.668 271.75C369.668 275.931 366.266 279.333 362.085 279.333Z" fill="#009900"/>
</g>
<path d="M304.098 307C303.842 307 303.644 306.931 303.506 306.792C303.367 306.653 303.298 306.456 303.298 306.2V296.52C303.298 296.264 303.367 296.067 303.506 295.928C303.644 295.789 303.842 295.72 304.098 295.72H307.89C308.668 295.72 309.33 295.837 309.874 296.072C310.428 296.307 310.85 296.643 311.138 297.08C311.426 297.517 311.57 298.045 311.57 298.664C311.57 299.357 311.367 299.939 310.962 300.408C310.556 300.877 310.002 301.192 309.298 301.352V301.112C310.087 301.208 310.706 301.501 311.154 301.992C311.612 302.472 311.842 303.101 311.842 303.88C311.842 304.883 311.511 305.656 310.85 306.2C310.199 306.733 309.276 307 308.082 307H304.098ZM304.738 305.832H307.922C308.754 305.832 309.372 305.672 309.778 305.352C310.183 305.021 310.385 304.52 310.385 303.848C310.385 303.176 310.183 302.68 309.778 302.36C309.372 302.04 308.754 301.88 307.922 301.88H304.738V305.832ZM304.738 300.696H307.666C308.476 300.696 309.084 300.536 309.49 300.216C309.906 299.885 310.114 299.411 310.114 298.792C310.114 298.173 309.906 297.704 309.49 297.384C309.084 297.053 308.476 296.888 307.666 296.888H304.738V300.696ZM316.445 307.144C315.912 307.144 315.426 307.037 314.989 306.824C314.562 306.611 314.226 306.323 313.981 305.96C313.746 305.597 313.629 305.192 313.629 304.744C313.629 304.168 313.773 303.715 314.061 303.384C314.349 303.053 314.834 302.819 315.517 302.68C316.2 302.531 317.117 302.456 318.269 302.456H319.021V303.384H318.301C317.48 303.384 316.829 303.421 316.349 303.496C315.88 303.571 315.549 303.704 315.357 303.896C315.165 304.077 315.069 304.333 315.069 304.664C315.069 305.08 315.213 305.421 315.501 305.688C315.8 305.955 316.205 306.088 316.717 306.088C317.122 306.088 317.48 305.992 317.789 305.8C318.098 305.597 318.344 305.331 318.525 305C318.706 304.659 318.797 304.269 318.797 303.832V301.992C318.797 301.363 318.669 300.909 318.413 300.632C318.157 300.344 317.725 300.2 317.117 300.2C316.765 300.2 316.402 300.248 316.029 300.344C315.656 300.44 315.266 300.589 314.861 300.792C314.701 300.867 314.562 300.893 314.445 300.872C314.328 300.84 314.232 300.776 314.157 300.68C314.093 300.573 314.056 300.461 314.045 300.344C314.045 300.216 314.072 300.093 314.125 299.976C314.189 299.859 314.296 299.773 314.445 299.72C314.914 299.485 315.378 299.32 315.837 299.224C316.306 299.117 316.744 299.064 317.149 299.064C317.842 299.064 318.413 299.176 318.861 299.4C319.309 299.613 319.645 299.949 319.869 300.408C320.093 300.856 320.205 301.432 320.205 302.136V306.36C320.205 306.605 320.146 306.792 320.029 306.92C319.912 307.048 319.741 307.112 319.517 307.112C319.304 307.112 319.133 307.048 319.005 306.92C318.888 306.792 318.829 306.605 318.829 306.36V305.224H318.973C318.888 305.619 318.728 305.96 318.493 306.248C318.258 306.536 317.965 306.76 317.613 306.92C317.272 307.069 316.882 307.144 316.445 307.144ZM325.872 307.144C325.083 307.144 324.4 306.979 323.824 306.648C323.248 306.307 322.805 305.832 322.496 305.224C322.187 304.605 322.032 303.88 322.032 303.048C322.032 302.429 322.117 301.875 322.288 301.384C322.469 300.893 322.725 300.477 323.056 300.136C323.387 299.784 323.787 299.517 324.256 299.336C324.736 299.155 325.275 299.064 325.872 299.064C326.245 299.064 326.64 299.123 327.056 299.24C327.472 299.357 327.856 299.549 328.208 299.816C328.325 299.901 328.4 300.003 328.432 300.12C328.464 300.227 328.464 300.339 328.432 300.456C328.411 300.573 328.357 300.675 328.272 300.76C328.197 300.835 328.096 300.877 327.968 300.888C327.851 300.899 327.723 300.861 327.584 300.776C327.328 300.584 327.056 300.445 326.768 300.36C326.491 300.275 326.224 300.232 325.968 300.232C325.573 300.232 325.221 300.296 324.912 300.424C324.613 300.552 324.357 300.739 324.144 300.984C323.941 301.219 323.787 301.512 323.68 301.864C323.573 302.205 323.52 302.605 323.52 303.064C323.52 303.971 323.733 304.685 324.16 305.208C324.587 305.72 325.189 305.976 325.968 305.976C326.224 305.976 326.491 305.939 326.768 305.864C327.045 305.779 327.317 305.64 327.584 305.448C327.723 305.363 327.851 305.331 327.968 305.352C328.085 305.363 328.181 305.411 328.256 305.496C328.341 305.571 328.395 305.667 328.416 305.784C328.437 305.891 328.427 306.003 328.384 306.12C328.352 306.237 328.277 306.333 328.16 306.408C327.819 306.664 327.445 306.851 327.04 306.968C326.635 307.085 326.245 307.144 325.872 307.144ZM330.654 307.112C330.43 307.112 330.254 307.048 330.126 306.92C329.998 306.792 329.934 306.605 329.934 306.36V296.344C329.934 296.099 329.998 295.917 330.126 295.8C330.254 295.672 330.43 295.608 330.654 295.608C330.888 295.608 331.07 295.672 331.198 295.8C331.326 295.917 331.39 296.099 331.39 296.344V302.648H331.422L334.558 299.592C334.718 299.432 334.862 299.309 334.99 299.224C335.118 299.139 335.283 299.096 335.486 299.096C335.688 299.096 335.843 299.149 335.95 299.256C336.056 299.352 336.11 299.48 336.11 299.64C336.11 299.789 336.035 299.939 335.886 300.088L332.558 303.32V302.6L336.19 306.104C336.339 306.253 336.408 306.408 336.398 306.568C336.398 306.728 336.339 306.861 336.222 306.968C336.115 307.064 335.971 307.112 335.79 307.112C335.576 307.112 335.4 307.069 335.262 306.984C335.134 306.899 334.984 306.765 334.814 306.584L331.422 303.384H331.39V306.36C331.39 306.861 331.144 307.112 330.654 307.112ZM340.843 307.144C340.213 307.144 339.685 307.027 339.259 306.792C338.843 306.557 338.533 306.211 338.331 305.752C338.128 305.293 338.027 304.717 338.027 304.024V299.832C338.027 299.587 338.085 299.405 338.203 299.288C338.331 299.16 338.512 299.096 338.747 299.096C338.981 299.096 339.163 299.16 339.291 299.288C339.419 299.405 339.483 299.587 339.483 299.832V304.024C339.483 304.685 339.616 305.176 339.883 305.496C340.149 305.805 340.571 305.96 341.147 305.96C341.787 305.96 342.304 305.747 342.699 305.32C343.104 304.893 343.307 304.328 343.307 303.624V299.832C343.307 299.587 343.365 299.405 343.483 299.288C343.611 299.16 343.792 299.096 344.027 299.096C344.261 299.096 344.443 299.16 344.571 299.288C344.699 299.405 344.763 299.587 344.763 299.832V306.36C344.763 306.861 344.528 307.112 344.059 307.112C343.824 307.112 343.643 307.048 343.515 306.92C343.397 306.792 343.339 306.605 343.339 306.36V304.968L343.547 305.24C343.333 305.859 342.987 306.333 342.507 306.664C342.037 306.984 341.483 307.144 340.843 307.144ZM347.826 309.992C347.602 309.992 347.426 309.928 347.298 309.8C347.17 309.672 347.106 309.491 347.106 309.256V299.832C347.106 299.587 347.17 299.405 347.298 299.288C347.426 299.16 347.602 299.096 347.826 299.096C348.06 299.096 348.236 299.16 348.354 299.288C348.482 299.405 348.546 299.587 348.546 299.832V301.288L348.37 301C348.54 300.413 348.876 299.944 349.378 299.592C349.879 299.24 350.482 299.064 351.186 299.064C351.879 299.064 352.482 299.229 352.994 299.56C353.506 299.88 353.906 300.344 354.194 300.952C354.482 301.549 354.626 302.264 354.626 303.096C354.626 303.917 354.482 304.637 354.194 305.256C353.916 305.864 353.516 306.333 352.994 306.664C352.482 306.984 351.879 307.144 351.186 307.144C350.492 307.144 349.895 306.968 349.394 306.616C348.892 306.264 348.556 305.8 348.386 305.224H348.562V309.256C348.562 309.491 348.498 309.672 348.37 309.8C348.242 309.928 348.06 309.992 347.826 309.992ZM350.85 305.992C351.308 305.992 351.708 305.88 352.05 305.656C352.402 305.432 352.674 305.107 352.866 304.68C353.058 304.253 353.154 303.725 353.154 303.096C353.154 302.157 352.946 301.443 352.53 300.952C352.114 300.461 351.554 300.216 350.85 300.216C350.38 300.216 349.97 300.328 349.618 300.552C349.276 300.765 349.01 301.085 348.818 301.512C348.636 301.939 348.546 302.467 348.546 303.096C348.546 304.035 348.754 304.755 349.17 305.256C349.586 305.747 350.146 305.992 350.85 305.992ZM361.596 307.112C361.361 307.112 361.18 307.048 361.052 306.92C360.924 306.781 360.86 306.589 360.86 306.344V296.376C360.86 296.12 360.924 295.928 361.052 295.8C361.18 295.672 361.361 295.608 361.596 295.608C361.841 295.608 362.028 295.672 362.156 295.8C362.284 295.928 362.348 296.12 362.348 296.376V300.648H368.876V296.376C368.876 296.12 368.94 295.928 369.068 295.8C369.196 295.672 369.383 295.608 369.628 295.608C369.863 295.608 370.044 295.672 370.172 295.8C370.3 295.928 370.364 296.12 370.364 296.376V306.344C370.364 306.589 370.3 306.781 370.172 306.92C370.044 307.048 369.863 307.112 369.628 307.112C369.383 307.112 369.196 307.048 369.068 306.92C368.94 306.781 368.876 306.589 368.876 306.344V301.912H362.348V306.344C362.348 306.589 362.284 306.781 362.156 306.92C362.039 307.048 361.852 307.112 361.596 307.112ZM376.199 307.144C375.431 307.144 374.764 306.979 374.199 306.648C373.633 306.317 373.196 305.848 372.887 305.24C372.577 304.632 372.423 303.917 372.423 303.096C372.423 302.477 372.508 301.923 372.679 301.432C372.86 300.931 373.116 300.504 373.447 300.152C373.777 299.8 374.172 299.533 374.631 299.352C375.1 299.16 375.623 299.064 376.199 299.064C376.967 299.064 377.633 299.229 378.199 299.56C378.764 299.891 379.201 300.36 379.511 300.968C379.82 301.565 379.975 302.275 379.975 303.096C379.975 303.715 379.884 304.275 379.703 304.776C379.532 305.277 379.281 305.704 378.951 306.056C378.62 306.408 378.22 306.68 377.751 306.872C377.292 307.053 376.775 307.144 376.199 307.144ZM376.199 305.992C376.668 305.992 377.073 305.88 377.415 305.656C377.767 305.432 378.033 305.107 378.215 304.68C378.407 304.253 378.503 303.725 378.503 303.096C378.503 302.157 378.295 301.443 377.879 300.952C377.463 300.461 376.903 300.216 376.199 300.216C375.74 300.216 375.335 300.328 374.983 300.552C374.641 300.765 374.375 301.085 374.183 301.512C373.991 301.939 373.895 302.467 373.895 303.096C373.895 304.035 374.103 304.755 374.519 305.256C374.945 305.747 375.505 305.992 376.199 305.992ZM384.528 307.144C384.048 307.144 383.563 307.091 383.072 306.984C382.592 306.867 382.139 306.669 381.712 306.392C381.595 306.317 381.509 306.227 381.456 306.12C381.413 306.003 381.397 305.891 381.408 305.784C381.429 305.667 381.477 305.565 381.552 305.48C381.627 305.395 381.717 305.347 381.824 305.336C381.941 305.315 382.064 305.341 382.192 305.416C382.608 305.651 383.008 305.816 383.392 305.912C383.787 306.008 384.176 306.056 384.56 306.056C385.147 306.056 385.589 305.949 385.888 305.736C386.187 305.523 386.336 305.24 386.336 304.888C386.336 304.589 386.235 304.36 386.032 304.2C385.84 304.029 385.536 303.901 385.12 303.816L383.632 303.512C382.971 303.363 382.469 303.117 382.128 302.776C381.797 302.424 381.632 301.976 381.632 301.432C381.632 300.952 381.76 300.536 382.016 300.184C382.283 299.821 382.651 299.544 383.12 299.352C383.589 299.16 384.128 299.064 384.736 299.064C385.205 299.064 385.648 299.128 386.064 299.256C386.491 299.373 386.875 299.555 387.216 299.8C387.344 299.875 387.424 299.971 387.456 300.088C387.499 300.195 387.504 300.307 387.472 300.424C387.451 300.531 387.403 300.621 387.328 300.696C387.253 300.771 387.157 300.819 387.04 300.84C386.923 300.851 386.795 300.819 386.656 300.744C386.347 300.531 386.027 300.381 385.696 300.296C385.376 300.2 385.056 300.152 384.736 300.152C384.16 300.152 383.723 300.264 383.424 300.488C383.136 300.712 382.992 301.005 382.992 301.368C382.992 301.645 383.077 301.875 383.248 302.056C383.429 302.237 383.712 302.371 384.096 302.456L385.584 302.76C386.277 302.909 386.8 303.149 387.152 303.48C387.504 303.8 387.68 304.237 387.68 304.792C387.68 305.517 387.392 306.093 386.816 306.52C386.251 306.936 385.488 307.144 384.528 307.144ZM392.728 307.144C392.099 307.144 391.571 307.032 391.144 306.808C390.728 306.584 390.413 306.259 390.2 305.832C389.997 305.405 389.896 304.883 389.896 304.264V300.328H388.872C388.68 300.328 388.531 300.28 388.424 300.184C388.317 300.077 388.264 299.939 388.264 299.768C388.264 299.587 388.317 299.448 388.424 299.352C388.531 299.256 388.68 299.208 388.872 299.208H389.896V297.464C389.896 297.219 389.96 297.037 390.088 296.92C390.216 296.792 390.397 296.728 390.632 296.728C390.867 296.728 391.043 296.792 391.16 296.92C391.288 297.037 391.352 297.219 391.352 297.464V299.208H393.288C393.491 299.208 393.645 299.256 393.752 299.352C393.859 299.448 393.912 299.587 393.912 299.768C393.912 299.939 393.859 300.077 393.752 300.184C393.645 300.28 393.491 300.328 393.288 300.328H391.352V304.136C391.352 304.723 391.475 305.165 391.72 305.464C391.965 305.763 392.371 305.912 392.936 305.912C393.139 305.912 393.309 305.896 393.448 305.864C393.587 305.821 393.709 305.8 393.816 305.8C393.912 305.789 393.992 305.821 394.056 305.896C394.131 305.971 394.168 306.109 394.168 306.312C394.168 306.461 394.141 306.6 394.088 306.728C394.045 306.845 393.955 306.925 393.816 306.968C393.688 307.011 393.517 307.048 393.304 307.08C393.091 307.123 392.899 307.144 392.728 307.144Z" fill="#212121"/>
<circle cx="348" cy="90" r="50" fill="white"/>
<path d="M366.622 87.34C366.09 82.818 362.1 79.36 357.312 79.36C355.982 79.36 354.918 79.626 353.854 80.158C351.46 76.434 347.204 74.04 342.682 74.04C335.234 74.04 329.382 79.892 329.382 87.34V87.606C324.86 88.138 321.402 92.128 321.402 96.65C321.402 101.704 325.658 105.96 330.712 105.96H365.292C370.346 105.96 374.602 101.704 374.602 96.65C374.602 91.862 371.144 88.138 366.622 87.34Z" fill="#3432CA"/>
<rect x="86" y="387" width="123" height="92" rx="12" fill="white"/>
<path d="M136.259 411.261C136.691 411.261 137.042 410.91 137.042 410.478C137.042 410.046 136.691 409.695 136.259 409.695C135.827 409.695 135.477 410.046 135.477 410.478C135.477 410.91 135.827 411.261 136.259 411.261Z" fill="#009900"/>
<path d="M142.521 411.261C142.953 411.261 143.303 410.91 143.303 410.478C143.303 410.046 142.953 409.695 142.521 409.695C142.089 409.695 141.738 410.046 141.738 410.478C141.738 410.91 142.089 411.261 142.521 411.261Z" fill="#009900"/>
<path d="M163.652 405H132.348C131.725 405.001 131.129 405.248 130.688 405.688C130.248 406.129 130.001 406.725 130 407.348V413.609C130.001 414.231 130.248 414.828 130.688 415.268C131.129 415.708 131.725 415.956 132.348 415.956H163.652C164.274 415.956 164.871 415.708 165.311 415.268C165.751 414.828 165.999 414.231 165.999 413.609V407.348C165.999 406.725 165.751 406.129 165.311 405.688C164.871 405.248 164.274 405.001 163.652 405ZM136.261 412.826C135.796 412.826 135.342 412.688 134.956 412.43C134.57 412.172 134.269 411.806 134.092 411.377C133.914 410.948 133.867 410.476 133.958 410.02C134.049 409.565 134.272 409.146 134.601 408.818C134.929 408.49 135.347 408.266 135.803 408.175C136.258 408.085 136.73 408.131 137.159 408.309C137.588 408.487 137.955 408.788 138.213 409.174C138.471 409.56 138.609 410.014 138.609 410.478C138.608 411.101 138.36 411.697 137.92 412.138C137.48 412.578 136.883 412.825 136.261 412.826ZM142.522 412.826C142.057 412.826 141.603 412.688 141.217 412.43C140.831 412.172 140.53 411.806 140.352 411.377C140.175 410.948 140.128 410.476 140.219 410.02C140.309 409.565 140.533 409.146 140.861 408.818C141.19 408.49 141.608 408.266 142.063 408.175C142.519 408.085 142.991 408.131 143.42 408.309C143.849 408.487 144.216 408.788 144.474 409.174C144.732 409.56 144.869 410.014 144.869 410.478C144.869 411.101 144.621 411.697 144.181 412.138C143.741 412.578 143.144 412.825 142.522 412.826Z" fill="#009900"/>
<path d="M142.521 423.782C142.953 423.782 143.303 423.432 143.303 422.999C143.303 422.567 142.953 422.217 142.521 422.217C142.089 422.217 141.738 422.567 141.738 422.999C141.738 423.432 142.089 423.782 142.521 423.782Z" fill="#009900"/>
<path d="M136.259 423.782C136.691 423.782 137.042 423.432 137.042 422.999C137.042 422.567 136.691 422.217 136.259 422.217C135.827 422.217 135.477 422.567 135.477 422.999C135.477 423.432 135.827 423.782 136.259 423.782Z" fill="#009900"/>
<path d="M163.652 417.521H132.348C131.725 417.522 131.129 417.77 130.688 418.21C130.248 418.65 130.001 419.247 130 419.869V426.13C130.001 426.752 130.248 427.349 130.688 427.789C131.129 428.23 131.725 428.477 132.348 428.478H163.652C164.274 428.477 164.871 428.23 165.311 427.789C165.751 427.349 165.999 426.752 165.999 426.13V419.869C165.999 419.247 165.751 418.65 165.311 418.21C164.871 417.77 164.274 417.522 163.652 417.521ZM136.261 425.347C135.796 425.347 135.342 425.21 134.956 424.952C134.57 424.694 134.269 424.327 134.092 423.898C133.914 423.469 133.867 422.997 133.958 422.542C134.049 422.086 134.272 421.668 134.601 421.34C134.929 421.011 135.347 420.788 135.803 420.697C136.258 420.606 136.73 420.653 137.159 420.831C137.588 421.008 137.955 421.309 138.213 421.695C138.471 422.081 138.609 422.535 138.609 423C138.608 423.622 138.36 424.219 137.92 424.659C137.48 425.099 136.883 425.347 136.261 425.347ZM142.522 425.347C142.057 425.347 141.603 425.21 141.217 424.952C140.831 424.694 140.53 424.327 140.352 423.898C140.175 423.469 140.128 422.997 140.219 422.542C140.309 422.086 140.533 421.668 140.861 421.34C141.19 421.011 141.608 420.788 142.063 420.697C142.519 420.606 142.991 420.653 143.42 420.831C143.849 421.008 144.216 421.309 144.474 421.695C144.732 422.081 144.869 422.535 144.869 423C144.869 423.622 144.621 424.219 144.181 424.659C143.741 425.099 143.144 425.347 142.522 425.347Z" fill="#009900"/>
<path d="M136.259 436.304C136.691 436.304 137.042 435.954 137.042 435.522C137.042 435.09 136.691 434.739 136.259 434.739C135.827 434.739 135.477 435.09 135.477 435.522C135.477 435.954 135.827 436.304 136.259 436.304Z" fill="#009900"/>
<path d="M142.521 436.304C142.953 436.304 143.303 435.954 143.303 435.522C143.303 435.09 142.953 434.739 142.521 434.739C142.089 434.739 141.738 435.09 141.738 435.522C141.738 435.954 142.089 436.304 142.521 436.304Z" fill="#009900"/>
<path d="M163.652 430.043H132.348C131.725 430.044 131.129 430.291 130.688 430.731C130.248 431.172 130.001 431.768 130 432.391V438.652C130.001 439.274 130.248 439.871 130.688 440.311C131.129 440.751 131.725 440.999 132.348 440.999H163.652C164.274 440.999 164.871 440.751 165.311 440.311C165.751 439.871 165.999 439.274 165.999 438.652V432.391C165.999 431.768 165.751 431.172 165.311 430.731C164.871 430.291 164.274 430.044 163.652 430.043ZM136.261 437.869C135.796 437.869 135.342 437.731 134.956 437.473C134.57 437.215 134.269 436.849 134.092 436.42C133.914 435.991 133.867 435.519 133.958 435.063C134.049 434.608 134.272 434.189 134.601 433.861C134.929 433.533 135.347 433.309 135.803 433.218C136.258 433.128 136.73 433.174 137.159 433.352C137.588 433.53 137.955 433.831 138.213 434.217C138.471 434.603 138.609 435.057 138.609 435.521C138.608 436.144 138.36 436.74 137.92 437.181C137.48 437.621 136.883 437.868 136.261 437.869ZM142.522 437.869C142.057 437.869 141.603 437.731 141.217 437.473C140.831 437.215 140.53 436.849 140.352 436.42C140.175 435.991 140.128 435.519 140.219 435.063C140.309 434.608 140.533 434.189 140.861 433.861C141.19 433.533 141.608 433.309 142.063 433.218C142.519 433.128 142.991 433.174 143.42 433.352C143.849 433.53 144.216 433.831 144.474 434.217C144.732 434.603 144.869 435.057 144.869 435.521C144.869 436.144 144.621 436.74 144.181 437.181C143.741 437.621 143.144 437.868 142.522 437.869Z" fill="#009900"/>
<path d="M133.942 452.638C133.905 452.302 133.748 452.041 133.474 451.857C133.199 451.67 132.853 451.576 132.437 451.576C132.138 451.576 131.88 451.623 131.663 451.718C131.445 451.81 131.275 451.938 131.155 452.102C131.036 452.263 130.977 452.446 130.977 452.652C130.977 452.825 131.017 452.974 131.098 453.099C131.181 453.225 131.289 453.33 131.421 453.415C131.556 453.498 131.7 453.568 131.854 453.625C132.008 453.679 132.156 453.724 132.298 453.76L133.008 453.945C133.24 454.001 133.478 454.078 133.722 454.175C133.966 454.272 134.192 454.4 134.4 454.559C134.609 454.718 134.777 454.914 134.905 455.148C135.035 455.383 135.1 455.663 135.1 455.99C135.1 456.402 134.994 456.768 134.78 457.087C134.57 457.407 134.263 457.659 133.861 457.844C133.461 458.028 132.976 458.121 132.408 458.121C131.864 458.121 131.393 458.034 130.995 457.862C130.597 457.689 130.286 457.444 130.061 457.126C129.836 456.807 129.712 456.428 129.688 455.99H130.789C130.81 456.253 130.896 456.472 131.045 456.647C131.196 456.82 131.389 456.949 131.623 457.034C131.86 457.117 132.119 457.158 132.401 457.158C132.711 457.158 132.987 457.11 133.229 457.013C133.472 456.913 133.664 456.776 133.804 456.601C133.944 456.423 134.013 456.216 134.013 455.979C134.013 455.764 133.952 455.588 133.829 455.45C133.708 455.313 133.543 455.199 133.335 455.109C133.129 455.019 132.896 454.94 132.636 454.871L131.776 454.637C131.194 454.478 130.732 454.245 130.391 453.938C130.053 453.63 129.883 453.223 129.883 452.716C129.883 452.297 129.997 451.931 130.224 451.619C130.452 451.306 130.759 451.063 131.148 450.891C131.536 450.715 131.974 450.628 132.462 450.628C132.954 450.628 133.388 450.714 133.765 450.887C134.144 451.06 134.442 451.298 134.66 451.601C134.878 451.902 134.991 452.247 135.001 452.638H133.942ZM138.872 452.545V453.398H135.893V452.545H138.872ZM136.692 451.239H137.754V456.398C137.754 456.604 137.784 456.759 137.846 456.864C137.908 456.965 137.987 457.035 138.084 457.073C138.183 457.109 138.291 457.126 138.407 457.126C138.492 457.126 138.567 457.121 138.631 457.109C138.695 457.097 138.744 457.087 138.78 457.08L138.972 457.957C138.91 457.981 138.823 458.005 138.709 458.028C138.595 458.054 138.453 458.069 138.283 458.071C138.003 458.076 137.743 458.026 137.502 457.922C137.26 457.818 137.065 457.657 136.916 457.439C136.766 457.221 136.692 456.948 136.692 456.619V451.239ZM142.286 458.11C141.774 458.11 141.328 457.993 140.947 457.759C140.566 457.524 140.27 457.196 140.059 456.775C139.849 456.353 139.743 455.861 139.743 455.298C139.743 454.732 139.849 454.237 140.059 453.813C140.27 453.389 140.566 453.06 140.947 452.826C141.328 452.592 141.774 452.474 142.286 452.474C142.797 452.474 143.243 452.592 143.625 452.826C144.006 453.06 144.302 453.389 144.512 453.813C144.723 454.237 144.828 454.732 144.828 455.298C144.828 455.861 144.723 456.353 144.512 456.775C144.302 457.196 144.006 457.524 143.625 457.759C143.243 457.993 142.797 458.11 142.286 458.11ZM142.289 457.219C142.621 457.219 142.895 457.131 143.113 456.956C143.331 456.781 143.492 456.548 143.596 456.256C143.703 455.965 143.756 455.644 143.756 455.294C143.756 454.946 143.703 454.626 143.596 454.335C143.492 454.042 143.331 453.806 143.113 453.629C142.895 453.451 142.621 453.362 142.289 453.362C141.956 453.362 141.679 453.451 141.458 453.629C141.241 453.806 141.078 454.042 140.972 454.335C140.868 454.626 140.816 454.946 140.816 455.294C140.816 455.644 140.868 455.965 140.972 456.256C141.078 456.548 141.241 456.781 141.458 456.956C141.679 457.131 141.956 457.219 142.289 457.219ZM146.014 458V452.545H147.04V453.412H147.097C147.196 453.118 147.371 452.888 147.622 452.719C147.876 452.549 148.162 452.464 148.482 452.464C148.548 452.464 148.626 452.466 148.716 452.471C148.808 452.476 148.881 452.482 148.933 452.489V453.504C148.89 453.492 148.814 453.479 148.705 453.465C148.596 453.449 148.488 453.44 148.379 453.44C148.128 453.44 147.904 453.494 147.707 453.6C147.513 453.704 147.359 453.85 147.246 454.037C147.132 454.222 147.075 454.432 147.075 454.669V458H146.014ZM151.39 458.121C151.044 458.121 150.732 458.057 150.453 457.929C150.173 457.799 149.952 457.611 149.788 457.364C149.627 457.118 149.547 456.816 149.547 456.459C149.547 456.151 149.606 455.898 149.725 455.699C149.843 455.5 150.003 455.343 150.204 455.227C150.405 455.111 150.63 455.023 150.879 454.964C151.127 454.905 151.381 454.86 151.639 454.829C151.965 454.791 152.23 454.76 152.434 454.737C152.638 454.71 152.786 454.669 152.878 454.612C152.97 454.555 153.016 454.463 153.016 454.335V454.31C153.016 454 152.929 453.76 152.754 453.589C152.581 453.419 152.323 453.334 151.979 453.334C151.622 453.334 151.34 453.413 151.134 453.572C150.931 453.728 150.79 453.902 150.712 454.094L149.714 453.866C149.832 453.535 150.005 453.268 150.232 453.064C150.462 452.858 150.726 452.709 151.024 452.616C151.323 452.522 151.636 452.474 151.965 452.474C152.183 452.474 152.414 452.5 152.658 452.553C152.904 452.602 153.134 452.695 153.347 452.83C153.562 452.964 153.738 453.157 153.876 453.408C154.013 453.657 154.082 453.98 154.082 454.378V458H153.045V457.254H153.002C152.934 457.392 152.831 457.527 152.693 457.659C152.556 457.792 152.38 457.902 152.164 457.989C151.949 458.077 151.691 458.121 151.39 458.121ZM151.621 457.268C151.914 457.268 152.165 457.21 152.374 457.094C152.584 456.978 152.744 456.827 152.853 456.64C152.964 456.451 153.02 456.248 153.02 456.033V455.33C152.982 455.367 152.909 455.403 152.8 455.436C152.693 455.467 152.571 455.494 152.434 455.518C152.297 455.539 152.163 455.559 152.033 455.578C151.903 455.595 151.794 455.609 151.706 455.621C151.5 455.647 151.312 455.691 151.141 455.752C150.973 455.814 150.838 455.902 150.737 456.018C150.637 456.132 150.587 456.284 150.587 456.473C150.587 456.736 150.685 456.935 150.879 457.07C151.073 457.202 151.32 457.268 151.621 457.268ZM157.783 460.159C157.35 460.159 156.977 460.102 156.664 459.989C156.354 459.875 156.101 459.725 155.904 459.538C155.708 459.351 155.561 459.146 155.464 458.923L156.377 458.547C156.441 458.651 156.526 458.761 156.632 458.877C156.741 458.996 156.888 459.096 157.073 459.179C157.26 459.262 157.5 459.303 157.794 459.303C158.196 459.303 158.529 459.205 158.791 459.009C159.054 458.814 159.186 458.504 159.186 458.078V457.006H159.118C159.054 457.122 158.962 457.251 158.841 457.393C158.723 457.535 158.559 457.658 158.351 457.762C158.143 457.866 157.872 457.918 157.538 457.918C157.107 457.918 156.719 457.818 156.373 457.616C156.03 457.413 155.758 457.113 155.556 456.718C155.358 456.32 155.258 455.831 155.258 455.251C155.258 454.671 155.356 454.174 155.553 453.76C155.752 453.346 156.024 453.028 156.37 452.808C156.715 452.586 157.107 452.474 157.545 452.474C157.884 452.474 158.157 452.531 158.365 452.645C158.574 452.756 158.736 452.886 158.852 453.036C158.97 453.185 159.061 453.316 159.125 453.43H159.203V452.545H160.244V458.121C160.244 458.589 160.135 458.974 159.917 459.275C159.699 459.576 159.405 459.798 159.033 459.942C158.664 460.087 158.247 460.159 157.783 460.159ZM157.772 457.038C158.078 457.038 158.336 456.967 158.546 456.825C158.759 456.68 158.92 456.474 159.029 456.207C159.141 455.937 159.196 455.614 159.196 455.237C159.196 454.87 159.142 454.547 159.033 454.268C158.924 453.988 158.764 453.771 158.554 453.614C158.343 453.456 158.082 453.376 157.772 453.376C157.453 453.376 157.186 453.459 156.973 453.625C156.76 453.788 156.599 454.011 156.49 454.293C156.384 454.574 156.331 454.889 156.331 455.237C156.331 455.595 156.385 455.908 156.494 456.178C156.603 456.448 156.764 456.659 156.977 456.81C157.192 456.962 157.457 457.038 157.772 457.038ZM164.019 458.11C163.481 458.11 163.018 457.995 162.63 457.766C162.244 457.534 161.946 457.208 161.735 456.789C161.527 456.368 161.423 455.874 161.423 455.308C161.423 454.75 161.527 454.257 161.735 453.831C161.946 453.405 162.24 453.072 162.616 452.833C162.995 452.594 163.438 452.474 163.944 452.474C164.252 452.474 164.55 452.525 164.839 452.627C165.128 452.729 165.387 452.889 165.617 453.107C165.846 453.324 166.027 453.607 166.16 453.955C166.293 454.301 166.359 454.721 166.359 455.216V455.592H162.023V454.797H165.318C165.318 454.518 165.262 454.27 165.148 454.055C165.034 453.837 164.875 453.665 164.669 453.54C164.465 453.414 164.226 453.352 163.951 453.352C163.653 453.352 163.393 453.425 163.17 453.572C162.95 453.716 162.779 453.906 162.659 454.14C162.54 454.372 162.481 454.624 162.481 454.896V455.518C162.481 455.882 162.545 456.192 162.673 456.448C162.803 456.704 162.984 456.899 163.216 457.034C163.448 457.167 163.719 457.233 164.029 457.233C164.231 457.233 164.414 457.205 164.58 457.148C164.746 457.089 164.889 457.001 165.009 456.885C165.13 456.769 165.223 456.626 165.286 456.455L166.291 456.636C166.211 456.932 166.067 457.192 165.858 457.414C165.652 457.634 165.393 457.806 165.081 457.929C164.77 458.05 164.416 458.11 164.019 458.11Z" fill="#212121"/>
<rect x="286" y="387" width="123" height="92" rx="12" fill="white"/>
<path d="M366.263 426.302C365.17 425.428 363.786 424.894 362.28 424.894H333.721C332.215 424.894 330.831 425.428 329.738 426.302L334.45 407.36C334.644 406.559 335.372 406 336.174 406H359.803C360.629 406 361.333 406.559 361.528 407.36L366.263 426.302Z" fill="#009900"/>
<path d="M362.279 427.079H333.72C331.413 427.079 329.543 428.949 329.543 431.256V435.822C329.543 438.129 331.413 439.999 333.72 439.999H362.279C364.586 439.999 366.456 438.129 366.456 435.822V431.256C366.456 428.949 364.586 427.079 362.279 427.079ZM355.14 434.607C355.14 435.045 354.8 435.385 354.362 435.385H352.225C351.788 435.385 351.448 435.045 351.448 434.607V432.47C351.448 432.033 351.788 431.693 352.225 431.693H354.362C354.8 431.693 355.14 432.033 355.14 432.47V434.607ZM360.677 434.607C360.677 435.045 360.337 435.385 359.899 435.385H357.762C357.325 435.385 356.985 435.045 356.985 434.607V432.47C356.985 432.033 357.325 431.693 357.762 431.693H359.899C360.337 431.693 360.677 432.033 360.677 432.47V434.607Z" fill="#009900"/>
<path d="M317.976 452.638C317.938 452.302 317.781 452.041 317.507 451.857C317.232 451.67 316.887 451.576 316.47 451.576C316.172 451.576 315.914 451.623 315.696 451.718C315.478 451.81 315.309 451.938 315.188 452.102C315.07 452.263 315.01 452.446 315.01 452.652C315.01 452.825 315.051 452.974 315.131 453.099C315.214 453.225 315.322 453.33 315.454 453.415C315.589 453.498 315.734 453.568 315.888 453.625C316.041 453.679 316.189 453.724 316.331 453.76L317.042 453.945C317.274 454.001 317.512 454.078 317.755 454.175C317.999 454.272 318.225 454.4 318.434 454.559C318.642 454.718 318.81 454.914 318.938 455.148C319.068 455.383 319.133 455.663 319.133 455.99C319.133 456.402 319.027 456.768 318.814 457.087C318.603 457.407 318.296 457.659 317.894 457.844C317.494 458.028 317.01 458.121 316.441 458.121C315.897 458.121 315.426 458.034 315.028 457.862C314.63 457.689 314.319 457.444 314.094 457.126C313.869 456.807 313.745 456.428 313.721 455.99H314.822C314.843 456.253 314.929 456.472 315.078 456.647C315.229 456.82 315.422 456.949 315.657 457.034C315.893 457.117 316.153 457.158 316.434 457.158C316.745 457.158 317.02 457.11 317.262 457.013C317.506 456.913 317.697 456.776 317.837 456.601C317.977 456.423 318.047 456.216 318.047 455.979C318.047 455.764 317.985 455.588 317.862 455.45C317.741 455.313 317.577 455.199 317.368 455.109C317.162 455.019 316.929 454.94 316.669 454.871L315.809 454.637C315.227 454.478 314.765 454.245 314.424 453.938C314.086 453.63 313.917 453.223 313.917 452.716C313.917 452.297 314.03 451.931 314.258 451.619C314.485 451.306 314.793 451.063 315.181 450.891C315.569 450.715 316.007 450.628 316.495 450.628C316.987 450.628 317.422 450.714 317.798 450.887C318.177 451.06 318.475 451.298 318.693 451.601C318.911 451.902 319.024 452.247 319.034 452.638H317.976ZM322.905 452.545V453.398H319.926V452.545H322.905ZM320.725 451.239H321.787V456.398C321.787 456.604 321.818 456.759 321.879 456.864C321.941 456.965 322.02 457.035 322.117 457.073C322.217 457.109 322.324 457.126 322.44 457.126C322.525 457.126 322.6 457.121 322.664 457.109C322.728 457.097 322.778 457.087 322.813 457.08L323.005 457.957C322.943 457.981 322.856 458.005 322.742 458.028C322.628 458.054 322.486 458.069 322.316 458.071C322.037 458.076 321.776 458.026 321.535 457.922C321.293 457.818 321.098 457.657 320.949 457.439C320.8 457.221 320.725 456.948 320.725 456.619V451.239ZM326.319 458.11C325.808 458.11 325.361 457.993 324.98 457.759C324.599 457.524 324.303 457.196 324.092 456.775C323.882 456.353 323.776 455.861 323.776 455.298C323.776 454.732 323.882 454.237 324.092 453.813C324.303 453.389 324.599 453.06 324.98 452.826C325.361 452.592 325.808 452.474 326.319 452.474C326.83 452.474 327.277 452.592 327.658 452.826C328.039 453.06 328.335 453.389 328.546 453.813C328.756 454.237 328.862 454.732 328.862 455.298C328.862 455.861 328.756 456.353 328.546 456.775C328.335 457.196 328.039 457.524 327.658 457.759C327.277 457.993 326.83 458.11 326.319 458.11ZM326.323 457.219C326.654 457.219 326.929 457.131 327.146 456.956C327.364 456.781 327.525 456.548 327.629 456.256C327.736 455.965 327.789 455.644 327.789 455.294C327.789 454.946 327.736 454.626 327.629 454.335C327.525 454.042 327.364 453.806 327.146 453.629C326.929 453.451 326.654 453.362 326.323 453.362C325.989 453.362 325.712 453.451 325.492 453.629C325.274 453.806 325.112 454.042 325.005 454.335C324.901 454.626 324.849 454.946 324.849 455.294C324.849 455.644 324.901 455.965 325.005 456.256C325.112 456.548 325.274 456.781 325.492 456.956C325.712 457.131 325.989 457.219 326.323 457.219ZM330.047 458V452.545H331.073V453.412H331.13C331.229 453.118 331.405 452.888 331.655 452.719C331.909 452.549 332.195 452.464 332.515 452.464C332.581 452.464 332.659 452.466 332.749 452.471C332.842 452.476 332.914 452.482 332.966 452.489V453.504C332.923 453.492 332.847 453.479 332.739 453.465C332.63 453.449 332.521 453.44 332.412 453.44C332.161 453.44 331.937 453.494 331.741 453.6C331.547 453.704 331.393 453.85 331.279 454.037C331.165 454.222 331.109 454.432 331.109 454.669V458H330.047ZM335.423 458.121C335.078 458.121 334.765 458.057 334.486 457.929C334.206 457.799 333.985 457.611 333.822 457.364C333.661 457.118 333.58 456.816 333.58 456.459C333.58 456.151 333.639 455.898 333.758 455.699C333.876 455.5 334.036 455.343 334.237 455.227C334.438 455.111 334.663 455.023 334.912 454.964C335.16 454.905 335.414 454.86 335.672 454.829C335.998 454.791 336.264 454.76 336.467 454.737C336.671 454.71 336.819 454.669 336.911 454.612C337.003 454.555 337.05 454.463 337.05 454.335V454.31C337.05 454 336.962 453.76 336.787 453.589C336.614 453.419 336.356 453.334 336.013 453.334C335.655 453.334 335.373 453.413 335.168 453.572C334.964 453.728 334.823 453.902 334.745 454.094L333.747 453.866C333.865 453.535 334.038 453.268 334.266 453.064C334.495 452.858 334.759 452.709 335.057 452.616C335.356 452.522 335.669 452.474 335.998 452.474C336.216 452.474 336.447 452.5 336.691 452.553C336.937 452.602 337.167 452.695 337.38 452.83C337.595 452.964 337.772 453.157 337.909 453.408C338.046 453.657 338.115 453.98 338.115 454.378V458H337.078V457.254H337.035C336.967 457.392 336.864 457.527 336.726 457.659C336.589 457.792 336.413 457.902 336.197 457.989C335.982 458.077 335.724 458.121 335.423 458.121ZM335.654 457.268C335.948 457.268 336.199 457.21 336.407 457.094C336.618 456.978 336.777 456.827 336.886 456.64C336.998 456.451 337.053 456.248 337.053 456.033V455.33C337.015 455.367 336.942 455.403 336.833 455.436C336.726 455.467 336.605 455.494 336.467 455.518C336.33 455.539 336.196 455.559 336.066 455.578C335.936 455.595 335.827 455.609 335.739 455.621C335.533 455.647 335.345 455.691 335.175 455.752C335.007 455.814 334.872 455.902 334.77 456.018C334.67 456.132 334.621 456.284 334.621 456.473C334.621 456.736 334.718 456.935 334.912 457.07C335.106 457.202 335.353 457.268 335.654 457.268ZM341.816 460.159C341.383 460.159 341.01 460.102 340.698 459.989C340.387 459.875 340.134 459.725 339.938 459.538C339.741 459.351 339.594 459.146 339.497 458.923L340.41 458.547C340.474 458.651 340.559 458.761 340.666 458.877C340.774 458.996 340.921 459.096 341.106 459.179C341.293 459.262 341.533 459.303 341.827 459.303C342.229 459.303 342.562 459.205 342.825 459.009C343.087 458.814 343.219 458.504 343.219 458.078V457.006H343.151C343.087 457.122 342.995 457.251 342.874 457.393C342.756 457.535 342.593 457.658 342.384 457.762C342.176 457.866 341.905 457.918 341.571 457.918C341.14 457.918 340.752 457.818 340.406 457.616C340.063 457.413 339.791 457.113 339.59 456.718C339.391 456.32 339.291 455.831 339.291 455.251C339.291 454.671 339.39 454.174 339.586 453.76C339.785 453.346 340.057 453.028 340.403 452.808C340.748 452.586 341.14 452.474 341.578 452.474C341.917 452.474 342.19 452.531 342.399 452.645C342.607 452.756 342.769 452.886 342.885 453.036C343.003 453.185 343.095 453.316 343.158 453.43H343.237V452.545H344.277V458.121C344.277 458.589 344.168 458.974 343.95 459.275C343.733 459.576 343.438 459.798 343.066 459.942C342.697 460.087 342.28 460.159 341.816 460.159ZM341.805 457.038C342.111 457.038 342.369 456.967 342.58 456.825C342.793 456.68 342.954 456.474 343.063 456.207C343.174 455.937 343.229 455.614 343.229 455.237C343.229 454.87 343.175 454.547 343.066 454.268C342.957 453.988 342.797 453.771 342.587 453.614C342.376 453.456 342.116 453.376 341.805 453.376C341.486 453.376 341.22 453.459 341.006 453.625C340.793 453.788 340.632 454.011 340.524 454.293C340.417 454.574 340.364 454.889 340.364 455.237C340.364 455.595 340.418 455.908 340.527 456.178C340.636 456.448 340.797 456.659 341.01 456.81C341.225 456.962 341.491 457.038 341.805 457.038ZM348.052 458.11C347.515 458.11 347.052 457.995 346.663 457.766C346.278 457.534 345.979 457.208 345.769 456.789C345.56 456.368 345.456 455.874 345.456 455.308C345.456 454.75 345.56 454.257 345.769 453.831C345.979 453.405 346.273 453.072 346.649 452.833C347.028 452.594 347.471 452.474 347.977 452.474C348.285 452.474 348.583 452.525 348.872 452.627C349.161 452.729 349.42 452.889 349.65 453.107C349.88 453.324 350.061 453.607 350.193 453.955C350.326 454.301 350.392 454.721 350.392 455.216V455.592H346.056V454.797H349.352C349.352 454.518 349.295 454.27 349.181 454.055C349.068 453.837 348.908 453.665 348.702 453.54C348.498 453.414 348.259 453.352 347.984 453.352C347.686 453.352 347.426 453.425 347.203 453.572C346.983 453.716 346.813 453.906 346.692 454.14C346.573 454.372 346.514 454.624 346.514 454.896V455.518C346.514 455.882 346.578 456.192 346.706 456.448C346.836 456.704 347.017 456.899 347.249 457.034C347.481 457.167 347.752 457.233 348.063 457.233C348.264 457.233 348.447 457.205 348.613 457.148C348.779 457.089 348.922 457.001 349.043 456.885C349.163 456.769 349.256 456.626 349.32 456.455L350.325 456.636C350.244 456.932 350.1 457.192 349.891 457.414C349.685 457.634 349.426 457.806 349.114 457.929C348.804 458.05 348.45 458.11 348.052 458.11ZM354.302 450.727H355.634L357.949 456.381H358.034L360.35 450.727H361.681V458H360.637V452.737H360.57L358.425 457.989H357.558L355.413 452.734H355.346V458H354.302V450.727ZM365.542 458.11C365.005 458.11 364.542 457.995 364.154 457.766C363.768 457.534 363.469 457.208 363.259 456.789C363.05 456.368 362.946 455.874 362.946 455.308C362.946 454.75 363.05 454.257 363.259 453.831C363.469 453.405 363.763 453.072 364.139 452.833C364.518 452.594 364.961 452.474 365.468 452.474C365.775 452.474 366.074 452.525 366.362 452.627C366.651 452.729 366.911 452.889 367.14 453.107C367.37 453.324 367.551 453.607 367.684 453.955C367.816 454.301 367.882 454.721 367.882 455.216V455.592H363.546V454.797H366.842C366.842 454.518 366.785 454.27 366.671 454.055C366.558 453.837 366.398 453.665 366.192 453.54C365.988 453.414 365.749 453.352 365.475 453.352C365.176 453.352 364.916 453.425 364.693 453.572C364.473 453.716 364.303 453.906 364.182 454.14C364.064 454.372 364.005 454.624 364.005 454.896V455.518C364.005 455.882 364.068 456.192 364.196 456.448C364.326 456.704 364.508 456.899 364.74 457.034C364.972 457.167 365.243 457.233 365.553 457.233C365.754 457.233 365.938 457.205 366.103 457.148C366.269 457.089 366.412 457.001 366.533 456.885C366.654 456.769 366.746 456.626 366.81 456.455L367.815 456.636C367.734 456.932 367.59 457.192 367.382 457.414C367.176 457.634 366.916 457.806 366.604 457.929C366.294 458.05 365.94 458.11 365.542 458.11ZM371.102 458.107C370.662 458.107 370.269 457.994 369.923 457.769C369.58 457.542 369.31 457.219 369.114 456.8C368.92 456.378 368.823 455.873 368.823 455.283C368.823 454.694 368.921 454.19 369.117 453.771C369.316 453.352 369.588 453.031 369.934 452.808C370.28 452.586 370.671 452.474 371.109 452.474C371.448 452.474 371.72 452.531 371.926 452.645C372.135 452.756 372.296 452.886 372.409 453.036C372.525 453.185 372.615 453.316 372.679 453.43H372.743V450.727H373.805V458H372.768V457.151H372.679C372.615 457.267 372.523 457.4 372.402 457.549C372.284 457.698 372.12 457.828 371.912 457.94C371.704 458.051 371.434 458.107 371.102 458.107ZM371.337 457.201C371.642 457.201 371.9 457.121 372.111 456.96C372.324 456.796 372.485 456.57 372.594 456.281C372.705 455.992 372.761 455.656 372.761 455.273C372.761 454.894 372.706 454.562 372.597 454.278C372.488 453.994 372.329 453.773 372.118 453.614C371.907 453.456 371.647 453.376 371.337 453.376C371.017 453.376 370.751 453.459 370.538 453.625C370.325 453.791 370.164 454.017 370.055 454.303C369.948 454.59 369.895 454.913 369.895 455.273C369.895 455.637 369.949 455.965 370.058 456.256C370.167 456.548 370.328 456.778 370.541 456.949C370.757 457.117 371.022 457.201 371.337 457.201ZM375.32 458V452.545H376.382V458H375.32ZM375.856 451.704C375.672 451.704 375.513 451.642 375.381 451.519C375.25 451.394 375.185 451.245 375.185 451.072C375.185 450.897 375.25 450.747 375.381 450.624C375.513 450.499 375.672 450.436 375.856 450.436C376.041 450.436 376.199 450.499 376.329 450.624C376.461 450.747 376.528 450.897 376.528 451.072C376.528 451.245 376.461 451.394 376.329 451.519C376.199 451.642 376.041 451.704 375.856 451.704ZM379.398 458.121C379.052 458.121 378.74 458.057 378.46 457.929C378.181 457.799 377.96 457.611 377.796 457.364C377.635 457.118 377.555 456.816 377.555 456.459C377.555 456.151 377.614 455.898 377.732 455.699C377.851 455.5 378.011 455.343 378.212 455.227C378.413 455.111 378.638 455.023 378.886 454.964C379.135 454.905 379.388 454.86 379.646 454.829C379.973 454.791 380.238 454.76 380.442 454.737C380.645 454.71 380.793 454.669 380.886 454.612C380.978 454.555 381.024 454.463 381.024 454.335V454.31C381.024 454 380.937 453.76 380.761 453.589C380.589 453.419 380.331 453.334 379.987 453.334C379.63 453.334 379.348 453.413 379.142 453.572C378.939 453.728 378.798 453.902 378.72 454.094L377.722 453.866C377.84 453.535 378.013 453.268 378.24 453.064C378.47 452.858 378.734 452.709 379.032 452.616C379.33 452.522 379.644 452.474 379.973 452.474C380.191 452.474 380.422 452.5 380.666 452.553C380.912 452.602 381.141 452.695 381.354 452.83C381.57 452.964 381.746 453.157 381.884 453.408C382.021 453.657 382.09 453.98 382.09 454.378V458H381.053V457.254H381.01C380.941 457.392 380.838 457.527 380.701 457.659C380.564 457.792 380.387 457.902 380.172 457.989C379.957 458.077 379.698 458.121 379.398 458.121ZM379.629 457.268C379.922 457.268 380.173 457.21 380.381 457.094C380.592 456.978 380.752 456.827 380.861 456.64C380.972 456.451 381.028 456.248 381.028 456.033V455.33C380.99 455.367 380.917 455.403 380.808 455.436C380.701 455.467 380.579 455.494 380.442 455.518C380.305 455.539 380.171 455.559 380.041 455.578C379.91 455.595 379.801 455.609 379.714 455.621C379.508 455.647 379.32 455.691 379.149 455.752C378.981 455.814 378.846 455.902 378.744 456.018C378.645 456.132 378.595 456.284 378.595 456.473C378.595 456.736 378.692 456.935 378.886 457.07C379.081 457.202 379.328 457.268 379.629 457.268Z" fill="#212121"/>
<rect x="486" y="387" width="123" height="92" rx="12" fill="white"/>
<g clip-path="url(#clip1_819_6483)">
<path d="M557.691 424.04H552.916C552.536 424.04 552.228 424.348 552.228 424.728V434.289C552.228 434.669 551.919 434.977 551.539 434.977H550.616C550.039 434.977 549.718 435.645 550.079 436.095L554.766 441.949C554.904 442.122 555.103 442.208 555.303 442.208C555.503 442.208 555.703 442.122 555.841 441.949L560.528 436.095C560.888 435.645 560.568 434.977 559.99 434.977H559.067C558.687 434.977 558.379 434.669 558.379 434.289V424.728C558.379 424.348 558.071 424.04 557.691 424.04Z" fill="#009900"/>
<path d="M541.234 422.557C541.097 422.385 540.897 422.299 540.697 422.299C540.497 422.299 540.298 422.385 540.16 422.557L535.473 428.411C535.112 428.861 535.433 429.529 536.01 429.529H536.933C537.313 429.529 537.621 429.837 537.621 430.217V439.778C537.621 440.158 537.93 440.466 538.31 440.466H543.085C543.465 440.466 543.773 440.158 543.773 439.778V430.217C543.773 429.837 544.081 429.529 544.461 429.529H545.384C545.962 429.529 546.282 428.861 545.922 428.411L541.234 422.557Z" fill="#009900"/>
<path d="M563.624 413.684C563.442 413.619 563.307 413.464 563.271 413.273C562.446 408.992 558.679 405.758 554.157 405.758C552.557 405.758 551.052 406.163 549.738 406.876C549.519 406.995 549.248 406.944 549.079 406.761C547.384 404.935 544.963 403.792 542.275 403.792C537.149 403.792 532.994 407.947 532.994 413.073V413.078C532.994 413.316 532.845 413.53 532.618 413.602C529.94 414.453 528 416.958 528 419.917C528 423.362 530.63 426.192 533.991 426.511L538.33 421.092C538.909 420.369 539.771 419.955 540.697 419.955C541.623 419.955 542.485 420.369 543.064 421.092L547.428 426.542H549.884V424.728C549.884 423.053 551.241 421.696 552.916 421.696H557.691C559.365 421.696 560.723 423.053 560.723 424.728V426.542H561.287C564.938 426.542 567.968 423.626 568 419.976C568.025 417.081 566.193 414.611 563.624 413.684Z" fill="#009900"/>
</g>
<path d="M539.991 458H537.637V450.727H540.066C540.778 450.727 541.39 450.873 541.902 451.164C542.413 451.453 542.805 451.868 543.077 452.411C543.352 452.95 543.489 453.598 543.489 454.353C543.489 455.111 543.351 455.762 543.074 456.306C542.799 456.851 542.401 457.27 541.881 457.563C541.36 457.854 540.73 458 539.991 458ZM538.734 457.041H539.931C540.485 457.041 540.945 456.937 541.312 456.729C541.679 456.518 541.954 456.214 542.136 455.816C542.318 455.416 542.41 454.928 542.41 454.353C542.41 453.782 542.318 453.298 542.136 452.901C541.956 452.503 541.688 452.201 541.33 451.995C540.973 451.789 540.529 451.686 539.998 451.686H538.734V457.041ZM546.356 458.121C546.01 458.121 545.698 458.057 545.418 457.929C545.139 457.799 544.918 457.611 544.754 457.364C544.593 457.118 544.513 456.816 544.513 456.459C544.513 456.151 544.572 455.898 544.69 455.699C544.809 455.5 544.969 455.343 545.17 455.227C545.371 455.111 545.596 455.023 545.844 454.964C546.093 454.905 546.346 454.86 546.604 454.829C546.931 454.791 547.196 454.76 547.4 454.737C547.603 454.71 547.751 454.669 547.844 454.612C547.936 454.555 547.982 454.463 547.982 454.335V454.31C547.982 454 547.895 453.76 547.719 453.589C547.547 453.419 547.289 453.334 546.945 453.334C546.588 453.334 546.306 453.413 546.1 453.572C545.897 453.728 545.756 453.902 545.678 454.094L544.68 453.866C544.798 453.535 544.971 453.268 545.198 453.064C545.428 452.858 545.692 452.709 545.99 452.616C546.288 452.522 546.602 452.474 546.931 452.474C547.149 452.474 547.38 452.5 547.624 452.553C547.87 452.602 548.099 452.695 548.312 452.83C548.528 452.964 548.704 453.157 548.842 453.408C548.979 453.657 549.048 453.98 549.048 454.378V458H548.011V457.254H547.968C547.899 457.392 547.796 457.527 547.659 457.659C547.522 457.792 547.345 457.902 547.13 457.989C546.915 458.077 546.656 458.121 546.356 458.121ZM546.587 457.268C546.88 457.268 547.131 457.21 547.339 457.094C547.55 456.978 547.71 456.827 547.819 456.64C547.93 456.451 547.986 456.248 547.986 456.033V455.33C547.948 455.367 547.875 455.403 547.766 455.436C547.659 455.467 547.537 455.494 547.4 455.518C547.263 455.539 547.129 455.559 546.999 455.578C546.868 455.595 546.759 455.609 546.672 455.621C546.466 455.647 546.278 455.691 546.107 455.752C545.939 455.814 545.804 455.902 545.702 456.018C545.603 456.132 545.553 456.284 545.553 456.473C545.553 456.736 545.65 456.935 545.844 457.07C546.039 457.202 546.286 457.268 546.587 457.268ZM553.008 452.545V453.398H550.029V452.545H553.008ZM550.828 451.239H551.889V456.398C551.889 456.604 551.92 456.759 551.982 456.864C552.043 456.965 552.123 457.035 552.22 457.073C552.319 457.109 552.427 457.126 552.543 457.126C552.628 457.126 552.703 457.121 552.767 457.109C552.83 457.097 552.88 457.087 552.916 457.08L553.107 457.957C553.046 457.981 552.958 458.005 552.845 458.028C552.731 458.054 552.589 458.069 552.419 458.071C552.139 458.076 551.879 458.026 551.637 457.922C551.396 457.818 551.2 457.657 551.051 457.439C550.902 457.221 550.828 456.948 550.828 456.619V451.239ZM555.77 458.121C555.424 458.121 555.112 458.057 554.832 457.929C554.553 457.799 554.332 457.611 554.168 457.364C554.007 457.118 553.927 456.816 553.927 456.459C553.927 456.151 553.986 455.898 554.104 455.699C554.223 455.5 554.383 455.343 554.584 455.227C554.785 455.111 555.01 455.023 555.259 454.964C555.507 454.905 555.76 454.86 556.018 454.829C556.345 454.791 556.61 454.76 556.814 454.737C557.018 454.71 557.165 454.669 557.258 454.612C557.35 454.555 557.396 454.463 557.396 454.335V454.31C557.396 454 557.309 453.76 557.134 453.589C556.961 453.419 556.703 453.334 556.359 453.334C556.002 453.334 555.72 453.413 555.514 453.572C555.311 453.728 555.17 453.902 555.092 454.094L554.094 453.866C554.212 453.535 554.385 453.268 554.612 453.064C554.842 452.858 555.106 452.709 555.404 452.616C555.702 452.522 556.016 452.474 556.345 452.474C556.563 452.474 556.794 452.5 557.038 452.553C557.284 452.602 557.513 452.695 557.727 452.83C557.942 452.964 558.118 453.157 558.256 453.408C558.393 453.657 558.462 453.98 558.462 454.378V458H557.425V457.254H557.382C557.313 457.392 557.21 457.527 557.073 457.659C556.936 457.792 556.759 457.902 556.544 457.989C556.329 458.077 556.071 458.121 555.77 458.121ZM556.001 457.268C556.294 457.268 556.545 457.21 556.754 457.094C556.964 456.978 557.124 456.827 557.233 456.64C557.344 456.451 557.4 456.248 557.4 456.033V455.33C557.362 455.367 557.289 455.403 557.18 455.436C557.073 455.467 556.951 455.494 556.814 455.518C556.677 455.539 556.543 455.559 556.413 455.578C556.282 455.595 556.174 455.609 556.086 455.621C555.88 455.647 555.692 455.691 555.521 455.752C555.353 455.814 555.218 455.902 555.116 456.018C555.017 456.132 554.967 456.284 554.967 456.473C554.967 456.736 555.064 456.935 555.259 457.07C555.453 457.202 555.7 457.268 556.001 457.268Z" fill="#212121"/>
<path d="M347.293 385.017C347.683 385.407 348.317 385.407 348.707 385.017L355.071 378.653C355.462 378.262 355.462 377.629 355.071 377.239C354.681 376.848 354.047 376.848 353.657 377.239L348 382.895L342.343 377.239C341.953 376.848 341.319 376.848 340.929 377.239C340.538 377.629 340.538 378.262 340.929 378.653L347.293 385.017ZM349 334.31C349 333.757 348.552 333.31 348 333.31C347.448 333.31 347 333.757 347 334.31L349 334.31ZM349 384.31L349 382.226L347 382.226L347 384.31L349 384.31ZM349 378.06L349 373.893L347 373.893L347 378.06L349 378.06ZM349 369.726L349 365.56L347 365.56L347 369.726L349 369.726ZM349 361.393L349 357.226L347 357.226L347 361.393L349 361.393ZM349 353.06L349 348.893L347 348.893L347 353.06L349 353.06ZM349 344.726L349 340.56L347 340.56L347 344.726L349 344.726ZM349 336.393L349 334.31L347 334.31L347 336.393L349 336.393ZM347.293 385.017C347.683 385.407 348.317 385.407 348.707 385.017L355.071 378.653C355.462 378.262 355.462 377.629 355.071 377.239C354.681 376.848 354.047 376.848 353.657 377.239L348 382.895L342.343 377.239C341.953 376.848 341.319 376.848 340.929 377.239C340.538 377.629 340.538 378.262 340.929 378.653L347.293 385.017ZM349 334.31C349 333.757 348.552 333.31 348 333.31C347.448 333.31 347 333.757 347 334.31L349 334.31ZM349 384.31L349 382.226L347 382.226L347 384.31L349 384.31ZM349 378.06L349 373.893L347 373.893L347 378.06L349 378.06ZM349 369.726L349 365.56L347 365.56L347 369.726L349 369.726ZM349 361.393L349 357.226L347 357.226L347 361.393L349 361.393ZM349 353.06L349 348.893L347 348.893L347 353.06L349 353.06ZM349 344.726L349 340.56L347 340.56L347 344.726L349 344.726ZM349 336.393L349 334.31L347 334.31L347 336.393L349 336.393Z" fill="white"/>
<path d="M549.293 381.017C549.683 381.407 550.317 381.407 550.707 381.017L557.071 374.653C557.462 374.262 557.462 373.629 557.071 373.239C556.681 372.848 556.047 372.848 555.657 373.239L550 378.895L544.343 373.239C543.953 372.848 543.319 372.848 542.929 373.239C542.538 373.629 542.538 374.262 542.929 374.653L549.293 381.017ZM550 344.31L551 344.31L550 344.31ZM538 332.31L538 333.31L538 332.31ZM353.002 331.31C352.449 331.31 352.002 331.757 352.002 332.31C352.002 332.862 352.449 333.31 353.002 333.31L353.002 331.31ZM551 380.31L551 378.06L549 378.06L549 380.31L551 380.31ZM551 373.56L551 369.06L549 369.06L549 373.56L551 373.56ZM551 364.56L551 360.06L549 360.06L549 364.56L551 364.56ZM551 355.56L551 351.06L549 351.06L549 355.56L551 355.56ZM551 346.56L551 344.31L549 344.31L549 346.56L551 346.56ZM551 344.31C551 343.443 550.915 342.595 550.753 341.774L548.791 342.162C548.928 342.856 549 343.574 549 344.31L551 344.31ZM548.81 337.086C547.861 335.669 546.641 334.449 545.224 333.5L544.111 335.162C545.311 335.965 546.344 336.999 547.148 338.199L548.81 337.086ZM540.536 331.557C539.715 331.395 538.867 331.31 538 331.31L538 333.31C538.736 333.31 539.454 333.382 540.148 333.519L540.536 331.557ZM538 331.31L535.989 331.31L535.989 333.31L538 333.31L538 331.31ZM531.967 331.31L527.946 331.31L527.946 333.31L531.967 333.31L531.967 331.31ZM523.924 331.31L519.902 331.31L519.902 333.31L523.924 333.31L523.924 331.31ZM515.881 331.31L511.859 331.31L511.859 333.31L515.881 333.31L515.881 331.31ZM507.837 331.31L503.816 331.31L503.816 333.31L507.837 333.31L507.837 331.31ZM499.794 331.31L495.772 331.31L495.772 333.31L499.794 333.31L499.794 331.31ZM491.75 331.31L487.729 331.31L487.729 333.31L491.75 333.31L491.75 331.31ZM483.707 331.31L479.685 331.31L479.685 333.31L483.707 333.31L483.707 331.31ZM475.664 331.31L471.642 331.31L471.642 333.31L475.664 333.31L475.664 331.31ZM467.62 331.31L463.599 331.31L463.599 333.31L467.62 333.31L467.62 331.31ZM459.577 331.31L455.555 331.31L455.555 333.31L459.577 333.31L459.577 331.31ZM451.533 331.31L447.512 331.31L447.512 333.31L451.533 333.31L451.533 331.31ZM443.49 331.31L439.468 331.31L439.468 333.31L443.49 333.31L443.49 331.31ZM435.447 331.31L431.425 331.31L431.425 333.31L435.447 333.31L435.447 331.31ZM427.403 331.31L423.382 331.31L423.382 333.31L427.403 333.31L427.403 331.31ZM419.36 331.31L415.338 331.31L415.338 333.31L419.36 333.31L419.36 331.31ZM411.316 331.31L407.295 331.31L407.295 333.31L411.316 333.31L411.316 331.31ZM403.273 331.31L399.251 331.31L399.251 333.31L403.273 333.31L403.273 331.31ZM395.23 331.31L391.208 331.31L391.208 333.31L395.23 333.31L395.23 331.31ZM387.186 331.31L383.165 331.31L383.165 333.31L387.186 333.31L387.186 331.31ZM379.143 331.31L375.121 331.31L375.121 333.31L379.143 333.31L379.143 331.31ZM371.099 331.31L367.078 331.31L367.078 333.31L371.099 333.31L371.099 331.31ZM363.056 331.31L359.034 331.31L359.034 333.31L363.056 333.31L363.056 331.31ZM355.013 331.31L353.002 331.31L353.002 333.31L355.013 333.31L355.013 331.31ZM549.293 381.017C549.683 381.407 550.317 381.407 550.707 381.017L557.071 374.653C557.462 374.262 557.462 373.629 557.071 373.239C556.681 372.848 556.047 372.848 555.657 373.239L550 378.895L544.343 373.239C543.953 372.848 543.319 372.848 542.929 373.239C542.538 373.629 542.538 374.262 542.929 374.653L549.293 381.017ZM550 344.31L551 344.31L550 344.31ZM538 332.31L538 333.31L538 332.31ZM353.002 331.31C352.449 331.31 352.002 331.757 352.002 332.31C352.002 332.862 352.449 333.31 353.002 333.31L353.002 331.31ZM551 380.31L551 378.06L549 378.06L549 380.31L551 380.31ZM551 373.56L551 369.06L549 369.06L549 373.56L551 373.56ZM551 364.56L551 360.06L549 360.06L549 364.56L551 364.56ZM551 355.56L551 351.06L549 351.06L549 355.56L551 355.56ZM551 346.56L551 344.31L549 344.31L549 346.56L551 346.56ZM551 344.31C551 343.443 550.915 342.595 550.753 341.774L548.791 342.162C548.928 342.856 549 343.574 549 344.31L551 344.31ZM548.81 337.086C547.861 335.669 546.641 334.449 545.224 333.5L544.111 335.162C545.311 335.965 546.344 336.999 547.148 338.199L548.81 337.086ZM540.536 331.557C539.715 331.395 538.867 331.31 538 331.31L538 333.31C538.736 333.31 539.454 333.382 540.148 333.519L540.536 331.557ZM538 331.31L535.989 331.31L535.989 333.31L538 333.31L538 331.31ZM531.967 331.31L527.946 331.31L527.946 333.31L531.967 333.31L531.967 331.31ZM523.924 331.31L519.902 331.31L519.902 333.31L523.924 333.31L523.924 331.31ZM515.881 331.31L511.859 331.31L511.859 333.31L515.881 333.31L515.881 331.31ZM507.837 331.31L503.816 331.31L503.816 333.31L507.837 333.31L507.837 331.31ZM499.794 331.31L495.772 331.31L495.772 333.31L499.794 333.31L499.794 331.31ZM491.75 331.31L487.729 331.31L487.729 333.31L491.75 333.31L491.75 331.31ZM483.707 331.31L479.685 331.31L479.685 333.31L483.707 333.31L483.707 331.31ZM475.664 331.31L471.642 331.31L471.642 333.31L475.664 333.31L475.664 331.31ZM467.62 331.31L463.599 331.31L463.599 333.31L467.62 333.31L467.62 331.31ZM459.577 331.31L455.555 331.31L455.555 333.31L459.577 333.31L459.577 331.31ZM451.533 331.31L447.512 331.31L447.512 333.31L451.533 333.31L451.533 331.31ZM443.49 331.31L439.468 331.31L439.468 333.31L443.49 333.31L443.49 331.31ZM435.447 331.31L431.425 331.31L431.425 333.31L435.447 333.31L435.447 331.31ZM427.403 331.31L423.382 331.31L423.382 333.31L427.403 333.31L427.403 331.31ZM419.36 331.31L415.338 331.31L415.338 333.31L419.36 333.31L419.36 331.31ZM411.316 331.31L407.295 331.31L407.295 333.31L411.316 333.31L411.316 331.31ZM403.273 331.31L399.251 331.31L399.251 333.31L403.273 333.31L403.273 331.31ZM395.23 331.31L391.208 331.31L391.208 333.31L395.23 333.31L395.23 331.31ZM387.186 331.31L383.165 331.31L383.165 333.31L387.186 333.31L387.186 331.31ZM379.143 331.31L375.121 331.31L375.121 333.31L379.143 333.31L379.143 331.31ZM371.099 331.31L367.078 331.31L367.078 333.31L371.099 333.31L371.099 331.31ZM363.056 331.31L359.034 331.31L359.034 333.31L363.056 333.31L363.056 331.31ZM355.013 331.31L353.002 331.31L353.002 333.31L355.013 333.31L355.013 331.31Z" fill="white"/>
<path d="M151.746 381.017C151.356 381.407 150.722 381.407 150.332 381.017L143.968 374.653C143.577 374.262 143.577 373.629 143.968 373.239C144.359 372.848 144.992 372.848 145.382 373.239L151.039 378.895L156.696 373.239C157.086 372.848 157.72 372.848 158.11 373.239C158.501 373.629 158.501 374.262 158.11 374.653L151.746 381.017ZM151.039 344.31L150.039 344.31L151.039 344.31ZM163.039 332.31L163.039 333.31L163.039 332.31ZM348.037 331.31C348.59 331.31 349.037 331.757 349.037 332.31C349.037 332.862 348.59 333.31 348.037 333.31L348.037 331.31ZM150.039 380.31L150.039 378.06L152.039 378.06L152.039 380.31L150.039 380.31ZM150.039 373.56L150.039 369.06L152.039 369.06L152.039 373.56L150.039 373.56ZM150.039 364.56L150.039 360.06L152.039 360.06L152.039 364.56L150.039 364.56ZM150.039 355.56L150.039 351.06L152.039 351.06L152.039 355.56L150.039 355.56ZM150.039 346.56L150.039 344.31L152.039 344.31L152.039 346.56L150.039 346.56ZM150.039 344.31C150.039 343.443 150.124 342.595 150.286 341.774L152.248 342.162C152.111 342.856 152.039 343.574 152.039 344.31L150.039 344.31ZM152.229 337.086C153.178 335.669 154.398 334.449 155.815 333.5L156.928 335.162C155.728 335.965 154.695 336.999 153.891 338.199L152.229 337.086ZM160.503 331.557C161.324 331.395 162.172 331.31 163.039 331.31L163.039 333.31C162.303 333.31 161.585 333.382 160.891 333.519L160.503 331.557ZM163.039 331.31L165.05 331.31L165.05 333.31L163.039 333.31L163.039 331.31ZM169.072 331.31L173.093 331.31L173.093 333.31L169.072 333.31L169.072 331.31ZM177.115 331.31L181.137 331.31L181.137 333.31L177.115 333.31L177.115 331.31ZM185.158 331.31L189.18 331.31L189.18 333.31L185.158 333.31L185.158 331.31ZM193.202 331.31L197.224 331.31L197.224 333.31L193.202 333.31L193.202 331.31ZM201.245 331.31L205.267 331.31L205.267 333.31L201.245 333.31L201.245 331.31ZM209.289 331.31L213.31 331.31L213.31 333.31L209.289 333.31L209.289 331.31ZM217.332 331.31L221.354 331.31L221.354 333.31L217.332 333.31L217.332 331.31ZM225.375 331.31L229.397 331.31L229.397 333.31L225.375 333.31L225.375 331.31ZM233.419 331.31L237.441 331.31L237.441 333.31L233.419 333.31L233.419 331.31ZM241.462 331.31L245.484 331.31L245.484 333.31L241.462 333.31L241.462 331.31ZM249.506 331.31L253.527 331.31L253.527 333.31L249.506 333.31L249.506 331.31ZM257.549 331.31L261.571 331.31L261.571 333.31L257.549 333.31L257.549 331.31ZM265.592 331.31L269.614 331.31L269.614 333.31L265.592 333.31L265.592 331.31ZM273.636 331.31L277.658 331.31L277.658 333.31L273.636 333.31L273.636 331.31ZM281.679 331.31L285.701 331.31L285.701 333.31L281.679 333.31L281.679 331.31ZM289.723 331.31L293.744 331.31L293.744 333.31L289.723 333.31L289.723 331.31ZM297.766 331.31L301.788 331.31L301.788 333.31L297.766 333.31L297.766 331.31ZM305.809 331.31L309.831 331.31L309.831 333.31L305.809 333.31L305.809 331.31ZM313.853 331.31L317.874 331.31L317.874 333.31L313.853 333.31L313.853 331.31ZM321.896 331.31L325.918 331.31L325.918 333.31L321.896 333.31L321.896 331.31ZM329.94 331.31L333.961 331.31L333.961 333.31L329.94 333.31L329.94 331.31ZM337.983 331.31L342.005 331.31L342.005 333.31L337.983 333.31L337.983 331.31ZM346.026 331.31L348.037 331.31L348.037 333.31L346.026 333.31L346.026 331.31ZM151.746 381.017C151.356 381.407 150.722 381.407 150.332 381.017L143.968 374.653C143.577 374.262 143.577 373.629 143.968 373.239C144.359 372.848 144.992 372.848 145.382 373.239L151.039 378.895L156.696 373.239C157.086 372.848 157.72 372.848 158.11 373.239C158.501 373.629 158.501 374.262 158.11 374.653L151.746 381.017ZM151.039 344.31L150.039 344.31L151.039 344.31ZM163.039 332.31L163.039 333.31L163.039 332.31ZM348.037 331.31C348.59 331.31 349.037 331.757 349.037 332.31C349.037 332.862 348.59 333.31 348.037 333.31L348.037 331.31ZM150.039 380.31L150.039 378.06L152.039 378.06L152.039 380.31L150.039 380.31ZM150.039 373.56L150.039 369.06L152.039 369.06L152.039 373.56L150.039 373.56ZM150.039 364.56L150.039 360.06L152.039 360.06L152.039 364.56L150.039 364.56ZM150.039 355.56L150.039 351.06L152.039 351.06L152.039 355.56L150.039 355.56ZM150.039 346.56L150.039 344.31L152.039 344.31L152.039 346.56L150.039 346.56ZM150.039 344.31C150.039 343.443 150.124 342.595 150.286 341.774L152.248 342.162C152.111 342.856 152.039 343.574 152.039 344.31L150.039 344.31ZM152.229 337.086C153.178 335.669 154.398 334.449 155.815 333.5L156.928 335.162C155.728 335.965 154.695 336.999 153.891 338.199L152.229 337.086ZM160.503 331.557C161.324 331.395 162.172 331.31 163.039 331.31L163.039 333.31C162.303 333.31 161.585 333.382 160.891 333.519L160.503 331.557ZM163.039 331.31L165.05 331.31L165.05 333.31L163.039 333.31L163.039 331.31ZM169.072 331.31L173.093 331.31L173.093 333.31L169.072 333.31L169.072 331.31ZM177.115 331.31L181.137 331.31L181.137 333.31L177.115 333.31L177.115 331.31ZM185.158 331.31L189.18 331.31L189.18 333.31L185.158 333.31L185.158 331.31ZM193.202 331.31L197.224 331.31L197.224 333.31L193.202 333.31L193.202 331.31ZM201.245 331.31L205.267 331.31L205.267 333.31L201.245 333.31L201.245 331.31ZM209.289 331.31L213.31 331.31L213.31 333.31L209.289 333.31L209.289 331.31ZM217.332 331.31L221.354 331.31L221.354 333.31L217.332 333.31L217.332 331.31ZM225.375 331.31L229.397 331.31L229.397 333.31L225.375 333.31L225.375 331.31ZM233.419 331.31L237.441 331.31L237.441 333.31L233.419 333.31L233.419 331.31ZM241.462 331.31L245.484 331.31L245.484 333.31L241.462 333.31L241.462 331.31ZM249.506 331.31L253.527 331.31L253.527 333.31L249.506 333.31L249.506 331.31ZM257.549 331.31L261.571 331.31L261.571 333.31L257.549 333.31L257.549 331.31ZM265.592 331.31L269.614 331.31L269.614 333.31L265.592 333.31L265.592 331.31ZM273.636 331.31L277.658 331.31L277.658 333.31L273.636 333.31L273.636 331.31ZM281.679 331.31L285.701 331.31L285.701 333.31L281.679 333.31L281.679 331.31ZM289.723 331.31L293.744 331.31L293.744 333.31L289.723 333.31L289.723 331.31ZM297.766 331.31L301.788 331.31L301.788 333.31L297.766 333.31L297.766 331.31ZM305.809 331.31L309.831 331.31L309.831 333.31L305.809 333.31L305.809 331.31ZM313.853 331.31L317.874 331.31L317.874 333.31L313.853 333.31L313.853 331.31ZM321.896 331.31L325.918 331.31L325.918 333.31L321.896 333.31L321.896 331.31ZM329.94 331.31L333.961 331.31L333.961 333.31L329.94 333.31L329.94 331.31ZM337.983 331.31L342.005 331.31L342.005 333.31L337.983 333.31L337.983 331.31ZM346.026 331.31L348.037 331.31L348.037 333.31L346.026 333.31L346.026 331.31Z" fill="white"/>
</g>
<defs>
<linearGradient id="paint0_linear_819_6483" x1="41.1513" y1="330" x2="656.135" y2="330" gradientUnits="userSpaceOnUse">
<stop/>
<stop offset="1" stop-color="#3432CA"/>
</linearGradient>
<linearGradient id="paint1_linear_819_6483" x1="41.1513" y1="330" x2="656.135" y2="330" gradientUnits="userSpaceOnUse">
<stop/>
<stop offset="1" stop-color="#3432CA"/>
</linearGradient>
<linearGradient id="paint2_linear_819_6483" x1="348.162" y1="290.474" x2="347.69" y2="337.997" gradientUnits="userSpaceOnUse">
<stop stop-color="white"/>
<stop offset="1" stop-color="white" stop-opacity="0"/>
</linearGradient>
<linearGradient id="paint3_linear_819_6483" x1="348.134" y1="332.061" x2="348.775" y2="235.015" gradientUnits="userSpaceOnUse">
<stop stop-color="white" stop-opacity="0"/>
<stop offset="1" stop-color="white"/>
</linearGradient>
<clipPath id="clip0_819_6483">
<rect width="52" height="52" fill="white" transform="translate(322 236)"/>
</clipPath>
<clipPath id="clip1_819_6483">
<rect width="40" height="40" fill="white" transform="translate(528 403)"/>
</clipPath>
</defs>
</svg>
