<svg width="1420" height="413" viewBox="0 0 1420 413" fill="none" xmlns="http://www.w3.org/2000/svg">
<mask id="mask0_928_6024" style="mask-type:alpha" maskUnits="userSpaceOnUse" x="0" y="0" width="1420" height="413">
<rect width="1420" height="413" rx="24" fill="#212121"/>
</mask>
<g mask="url(#mask0_928_6024)">
<rect width="1420" height="413" fill="#212121"/>
<g filter="url(#filter0_f_928_6024)">
<ellipse cx="698.32" cy="556.777" rx="354.175" ry="342.216" transform="rotate(6.43915 698.32 556.777)" fill="url(#paint0_linear_928_6024)"/>
</g>
<path opacity="0.2" d="M232.226 333.064L231.504 332.919C230.367 332.689 229.338 332.09 228.579 331.214C227.819 330.339 227.372 329.237 227.307 328.081C226.532 314.357 221.135 301.297 211.99 291.015C202.845 280.734 190.489 273.835 176.923 271.436C163.357 269.037 149.376 271.279 137.247 277.799C125.118 284.318 115.551 294.733 110.096 307.355L110.095 307.356C109.798 308.041 109.357 308.655 108.803 309.156C108.248 309.657 107.592 310.034 106.88 310.262C106.168 310.489 105.415 310.562 104.672 310.476C103.929 310.389 103.213 310.145 102.572 309.759L102.571 309.759C96.4554 306.065 89.4979 303.985 82.3538 303.715C75.2097 303.445 68.1143 304.993 61.7354 308.213C55.3566 311.434 49.9042 316.221 45.8916 322.124C41.8791 328.027 39.4382 334.851 38.7987 341.955C38.7362 342.669 38.5275 343.362 38.1854 343.993C37.8434 344.623 37.3753 345.177 36.8102 345.619M232.226 333.064L36.5016 345.226M232.226 333.064C238.069 334.329 243.579 336.817 248.39 340.368C253.399 344.066 257.526 348.824 260.474 354.3C263.423 359.777 265.12 365.837 265.443 372.045C265.767 378.253 264.709 384.456 262.346 390.208C259.983 395.961 256.373 401.12 251.775 405.316C247.177 409.511 241.705 412.64 235.752 414.477C229.799 416.313 223.512 416.813 217.343 415.939C211.173 415.065 205.274 412.839 200.069 409.422L200.068 409.421C199.382 408.973 198.601 408.691 197.786 408.599C196.972 408.506 196.147 408.605 195.378 408.888C194.609 409.171 193.916 409.63 193.357 410.228C192.797 410.826 192.386 411.547 192.156 412.333L192.156 412.333C189.431 421.691 184.103 430.087 176.789 436.547C169.476 443.007 160.477 447.266 150.836 448.831C141.195 450.396 131.307 449.202 122.318 445.388C113.329 441.574 105.608 435.296 100.051 427.282L100.05 427.281C99.2887 426.186 98.1374 425.423 96.8313 425.146C95.5252 424.868 94.1623 425.099 93.0203 425.789L93.0192 425.79C88.5555 428.505 83.5035 430.112 78.288 430.475C73.0725 430.837 67.8461 429.945 63.048 427.874C58.2499 425.802 54.0205 422.612 50.7154 418.57C47.4102 414.529 45.1259 409.755 44.0543 404.651C43.9033 403.931 43.6024 403.252 43.1711 402.657C42.7398 402.061 42.1878 401.563 41.5511 401.195L41.5487 401.193C40.911 400.829 40.2044 400.601 39.4737 400.524C38.7431 400.446 38.0043 400.521 37.3042 400.744L37.2985 400.746C33.2795 402.077 29.0102 402.481 24.812 401.927C20.6139 401.373 16.5966 399.875 13.0629 397.547C9.52921 395.219 6.57126 392.122 4.41186 388.488C2.25247 384.854 0.947952 380.778 0.596535 376.568C0.245118 372.358 0.855963 368.124 2.38307 364.183C3.91019 360.243 6.31376 356.7 9.41276 353.821C12.5118 350.942 16.2254 348.802 20.2738 347.563C24.3216 346.324 28.5986 346.017 32.7824 346.667M232.226 333.064L32.8607 346.173M36.8102 345.619C36.8101 345.619 36.8099 345.619 36.8098 345.619L36.5016 345.226M36.8102 345.619C36.8104 345.619 36.8106 345.619 36.8108 345.618L36.5016 345.226M36.8102 345.619C36.2477 346.061 35.5995 346.383 34.9064 346.563C34.2131 346.744 33.4899 346.779 32.7824 346.667M36.5016 345.226C35.9931 345.626 35.4071 345.916 34.7805 346.079C34.1539 346.242 33.5003 346.274 32.8607 346.173M32.7824 346.667C32.7829 346.667 32.7835 346.667 32.784 346.667L32.8607 346.173M32.7824 346.667L32.8607 346.173M197.73 409.095C198.467 409.179 199.174 409.434 199.794 409.84L37.4557 401.22C38.0899 401.019 38.7592 400.951 39.4211 401.021C40.083 401.091 40.723 401.298 41.3007 401.627C41.8767 401.961 42.3761 402.411 42.7662 402.95C43.1563 403.489 43.4284 404.103 43.5649 404.753C44.653 409.937 46.9725 414.784 50.3283 418.887C53.6842 422.99 57.9783 426.23 62.8498 428.333C67.7212 430.436 73.0276 431.342 78.3227 430.973C83.6179 430.605 88.7471 428.974 93.2791 426.217C94.3123 425.592 95.5456 425.384 96.7275 425.635C97.9094 425.885 98.951 426.576 99.6399 427.567C105.252 435.658 113.047 441.997 122.123 445.848C131.198 449.699 141.182 450.905 150.916 449.325C160.65 447.745 169.736 443.444 177.12 436.922C184.505 430.399 189.884 421.922 192.636 412.473C192.844 411.763 193.216 411.111 193.722 410.57C194.228 410.029 194.854 409.613 195.55 409.357C196.246 409.101 196.993 409.012 197.73 409.095Z" fill="url(#paint1_linear_928_6024)" stroke="#3432CA"/>
<path opacity="0.2" d="M1431.23 -26.9356L1430.5 -27.0812C1429.37 -27.3109 1428.34 -27.9102 1427.58 -28.7855C1426.82 -29.6609 1426.37 -30.763 1426.31 -31.9193C1425.53 -45.6429 1420.13 -58.7035 1410.99 -68.9846C1401.85 -79.2657 1389.49 -86.1648 1375.92 -88.5636C1362.36 -90.9625 1348.38 -88.7205 1336.25 -82.201C1324.12 -75.6816 1314.55 -65.2668 1309.1 -52.6447L1309.1 -52.644C1308.8 -51.9587 1308.36 -51.3449 1307.8 -50.8438C1307.25 -50.3426 1306.59 -49.9656 1305.88 -49.7381C1305.17 -49.5106 1304.41 -49.4377 1303.67 -49.5244C1302.93 -49.6111 1302.21 -49.8553 1301.57 -50.2407L1301.57 -50.2412C1295.46 -53.9346 1288.5 -56.0145 1281.35 -56.2849C1274.21 -56.5553 1267.11 -55.0073 1260.74 -51.7868C1254.36 -48.5662 1248.9 -43.7791 1244.89 -37.8761C1240.88 -31.9733 1238.44 -25.1488 1237.8 -18.0453C1237.74 -17.3312 1237.53 -16.6375 1237.19 -16.0073C1236.84 -15.377 1236.38 -14.8235 1235.81 -14.3811M1431.23 -26.9356L1235.5 -14.7745M1431.23 -26.9356C1437.07 -25.6714 1442.58 -23.1829 1447.39 -19.6317C1452.4 -15.9342 1456.53 -11.1763 1459.47 -5.6996C1462.42 -0.22287 1464.12 5.83699 1464.44 12.0452C1464.77 18.2534 1463.71 24.4562 1461.35 30.2084C1458.98 35.9606 1455.37 41.1198 1450.77 45.3156C1446.18 49.5115 1440.71 52.64 1434.75 54.4767C1428.8 56.3135 1422.51 56.8127 1416.34 55.9388C1410.17 55.0648 1404.27 52.8392 1399.07 49.4218L1399.07 49.4213C1398.38 48.973 1397.6 48.6912 1396.79 48.5986C1395.97 48.5061 1395.15 48.6052 1394.38 48.8882C1393.61 49.1711 1392.92 49.63 1392.36 50.2281C1391.8 50.8263 1391.39 51.547 1391.16 52.3326L1391.16 52.3333C1388.43 61.6913 1383.1 70.0871 1375.79 76.547C1368.48 83.0069 1359.48 87.2663 1349.84 88.8311C1340.19 90.3959 1330.31 89.202 1321.32 85.3879C1312.33 81.5738 1304.61 75.2958 1299.05 67.282L1299.05 67.2815C1298.29 66.1864 1297.14 65.4227 1295.83 65.1455C1294.53 64.8683 1293.16 65.0985 1292.02 65.7894L1292.02 65.79C1287.56 68.5055 1282.5 70.112 1277.29 70.4747C1272.07 70.8373 1266.85 69.9453 1262.05 67.8737C1257.25 65.8022 1253.02 62.6116 1249.72 58.5704C1246.41 54.5292 1244.13 49.7555 1243.05 44.6505C1242.9 43.9314 1242.6 43.2521 1242.17 42.6567C1241.74 42.0613 1241.19 41.5632 1240.55 41.1947L1240.55 41.1933C1239.91 40.829 1239.2 40.601 1238.47 40.5236C1237.74 40.4462 1237 40.5211 1236.3 40.7436L1236.3 40.7455C1232.28 42.0768 1228.01 42.4807 1223.81 41.9267C1219.61 41.3726 1215.6 39.8752 1212.06 37.5472C1208.53 35.2193 1205.57 32.1216 1203.41 28.4876C1201.25 24.8536 1199.95 20.7781 1199.6 16.5681C1199.25 12.3582 1199.86 8.12354 1201.38 4.18329C1202.91 0.243027 1205.31 -3.30013 1208.41 -6.17916C1211.51 -9.0582 1215.23 -11.198 1219.27 -12.4372C1223.32 -13.6763 1227.6 -13.9828 1231.78 -13.3334M1431.23 -26.9356L1231.86 -13.8272M1235.81 -14.3811C1235.81 -14.381 1235.81 -14.3808 1235.81 -14.3807L1235.5 -14.7745M1235.81 -14.3811C1235.81 -14.3812 1235.81 -14.3814 1235.81 -14.3815L1235.5 -14.7745M1235.81 -14.3811C1235.25 -13.9385 1234.6 -13.617 1233.91 -13.4367C1233.21 -13.2563 1232.49 -13.2212 1231.78 -13.3334M1235.5 -14.7745C1234.99 -14.3743 1234.41 -14.0836 1233.78 -13.9206C1233.15 -13.7576 1232.5 -13.7258 1231.86 -13.8272M1231.78 -13.3334C1231.78 -13.3333 1231.78 -13.3333 1231.78 -13.3332L1231.86 -13.8272M1231.78 -13.3334L1231.86 -13.8272M1396.73 49.0954C1397.47 49.1792 1398.17 49.4342 1398.79 49.8398L1236.46 41.2202C1237.09 41.0186 1237.76 40.9507 1238.42 41.0208C1239.08 41.0909 1239.72 41.2975 1240.3 41.6275C1240.88 41.9608 1241.38 42.4115 1241.77 42.95C1242.16 43.4885 1242.43 44.1029 1242.56 44.7533C1243.65 49.9367 1245.97 54.7838 1249.33 58.887C1252.68 62.9901 1256.98 66.2295 1261.85 68.3328C1266.72 70.436 1272.03 71.3416 1277.32 70.9734C1282.62 70.6053 1287.75 68.9742 1292.28 66.2172C1293.31 65.5921 1294.55 65.3838 1295.73 65.6346C1296.91 65.8854 1297.95 66.5765 1298.64 67.567C1304.25 75.6585 1312.05 81.9973 1321.12 85.8482C1330.2 89.6992 1340.18 90.9046 1349.92 89.3247C1359.65 87.7447 1368.74 83.4442 1376.12 76.9217C1383.5 70.3993 1388.88 61.922 1391.64 52.4731C1391.84 51.7627 1392.22 51.1108 1392.72 50.5697C1393.23 50.0286 1393.85 49.6134 1394.55 49.3574C1395.25 49.1014 1395.99 49.0117 1396.73 49.0954Z" fill="url(#paint2_linear_928_6024)" stroke="#3432CA"/>
<path opacity="0.2" d="M531.263 413L531.263 -44M588.928 413L588.928 -44M646.594 413L646.594 -44M704.26 413L704.26 -44M761.925 413L761.925 -44M819.591 413L819.591 -44M877.257 413L877.257 -44M476 11.2629H933M476 68.9285H933M476 126.594H933M476 184.26H933M476 241.925H933M476 299.591H933M476 357.257H933" stroke="url(#paint3_radial_928_6024)"/>
</g>
<defs>
<filter id="filter0_f_928_6024" x="44.2617" y="-85.625" width="1308.12" height="1284.8" filterUnits="userSpaceOnUse" color-interpolation-filters="sRGB">
<feFlood flood-opacity="0" result="BackgroundImageFix"/>
<feBlend mode="normal" in="SourceGraphic" in2="BackgroundImageFix" result="shape"/>
<feGaussianBlur stdDeviation="150" result="effect1_foregroundBlur_928_6024"/>
</filter>
<linearGradient id="paint0_linear_928_6024" x1="386.086" y1="625.221" x2="1012.65" y2="558.258" gradientUnits="userSpaceOnUse">
<stop stop-color="#3432CA"/>
<stop offset="1" stop-color="#009900"/>
</linearGradient>
<linearGradient id="paint1_linear_928_6024" x1="133" y1="270" x2="133" y2="367.404" gradientUnits="userSpaceOnUse">
<stop stop-color="#3432CA"/>
<stop offset="1" stop-color="#3432CA" stop-opacity="0"/>
</linearGradient>
<linearGradient id="paint2_linear_928_6024" x1="1332" y1="-90" x2="1332" y2="90" gradientUnits="userSpaceOnUse">
<stop offset="0.424345" stop-color="#3432CA" stop-opacity="0"/>
<stop offset="1" stop-color="#3432CA"/>
</linearGradient>
<radialGradient id="paint3_radial_928_6024" cx="0" cy="0" r="1" gradientUnits="userSpaceOnUse" gradientTransform="translate(704.5 184.5) rotate(90) scale(228.5)">
<stop stop-color="white"/>
<stop offset="1" stop-color="white" stop-opacity="0"/>
</radialGradient>
</defs>
</svg>
