<svg width="778" height="608" viewBox="0 0 778 608" fill="none" xmlns="http://www.w3.org/2000/svg">
<circle cx="517" cy="297" r="9" fill="white"/>
<path d="M59 297L326 297" stroke="url(#paint0_linear_705_8462)" stroke-linecap="round"/>
<path d="M699 297L387 297" stroke="url(#paint1_linear_705_8462)" stroke-linecap="round"/>
<g filter="url(#filter0_d_705_8462)">
<circle cx="620" cy="447" r="60" fill="#CAC9FF"/>
</g>
<g clip-path="url(#clip0_705_8462)">
<path d="M590 459.422V461.18C590 464.092 592.361 466.453 595.273 466.453H644.727C647.639 466.453 650 464.092 650 461.18V459.422H590Z" fill="black"/>
<path d="M634.063 473.484H631.633L629.876 469.969H610.124L608.367 473.484H605.938C604.966 473.484 604.18 474.271 604.18 475.242C604.18 476.214 604.966 477 605.938 477H634.063C635.034 477 635.82 476.214 635.82 475.242C635.82 474.271 635.034 473.484 634.063 473.484Z" fill="black"/>
<path d="M623.516 434.578H621.758V442.427L625.259 444.761C625.259 444.743 625.273 444.728 625.273 444.71V436.336C625.273 435.366 624.485 434.578 623.516 434.578Z" fill="black"/>
<path d="M616.484 434.578C615.515 434.578 614.727 435.366 614.727 436.336V444.71C614.727 444.728 614.741 444.743 614.741 444.761L618.242 442.427V434.578H616.484Z" fill="black"/>
<path d="M620 427.547C619.03 427.547 618.242 428.335 618.242 429.305V431.062H621.758V429.305C621.758 428.335 620.97 427.547 620 427.547Z" fill="black"/>
<path d="M619.999 445.48L617.469 447.168L619.213 448.04C619.701 448.285 620.29 448.285 620.787 448.04L622.531 447.168L619.999 445.48Z" fill="black"/>
<path d="M644.727 417H595.273C592.361 417 590 419.361 590 422.273V455.906H650V422.273C650 419.361 647.639 417 644.727 417ZM630.547 441.609C631.213 441.609 631.821 441.985 632.119 442.581L635.635 449.612C636.069 450.481 635.717 451.537 634.849 451.971C633.971 452.407 632.922 452.047 632.49 451.185L629.46 445.125H628.731C628.637 446.32 628.153 447.407 627.362 448.262C627.36 448.266 627.36 448.27 627.357 448.273C627.353 448.281 627.344 448.283 627.339 448.29C626.979 448.674 626.242 449.243 625.874 449.427L622.359 451.185C621.621 451.554 620.81 451.737 620 451.737C619.19 451.737 618.381 451.554 617.643 451.185L614.126 449.427C613.758 449.243 613.021 448.674 612.661 448.29C612.656 448.283 612.648 448.281 612.643 448.273C612.64 448.27 612.64 448.266 612.638 448.262C611.847 447.407 611.364 446.32 611.269 445.125H610.54L607.51 451.185C607.078 452.047 606.028 452.406 605.152 451.971C604.283 451.537 603.931 450.481 604.365 449.612L607.881 442.581C608.179 441.985 608.787 441.609 609.453 441.609H611.211V438.094H609.453C608.787 438.094 608.179 437.718 607.881 437.122L604.365 430.091C603.931 429.222 604.283 428.167 605.151 427.732C606.02 427.301 607.076 427.65 607.51 428.518L610.54 434.578H611.535C612.066 433.089 613.237 431.917 614.727 431.386V429.305C614.727 427.86 615.312 426.551 616.256 425.597L614.931 423.097C614.476 422.239 614.804 421.175 615.66 420.72C616.517 420.262 617.583 420.591 618.038 421.449L619.437 424.088C619.625 424.068 619.807 424.031 620 424.031C620.193 424.031 620.375 424.068 620.563 424.088L621.962 421.449C622.417 420.591 623.481 420.265 624.34 420.72C625.196 421.175 625.524 422.239 625.069 423.097L623.744 425.597C624.688 426.551 625.273 427.86 625.273 429.305V431.386C626.763 431.917 627.934 433.089 628.465 434.578H629.46L632.49 428.518C632.928 427.65 633.982 427.301 634.849 427.732C635.717 428.167 636.069 429.222 635.635 430.091L632.119 437.122C631.821 437.718 631.213 438.094 630.547 438.094H628.789V441.609H630.547Z" fill="black"/>
</g>
<g filter="url(#filter1_d_705_8462)">
<circle cx="157" cy="297" r="60" fill="#CAC9FF"/>
</g>
<path fill-rule="evenodd" clip-rule="evenodd" d="M158.015 300.563C158.015 300.834 157.906 301.094 157.712 301.286C157.518 301.477 157.255 301.585 156.981 301.585C156.706 301.585 156.443 301.477 156.249 301.286C156.055 301.094 155.946 300.834 155.946 300.563V300.547C155.946 300.276 156.055 300.016 156.249 299.825C156.443 299.633 156.706 299.525 156.981 299.525C157.255 299.525 157.518 299.633 157.712 299.825C157.906 300.016 158.015 300.276 158.015 300.547V300.563ZM156.041 287.2L147.325 302.118C147.228 302.284 147.177 302.473 147.178 302.665C147.178 302.857 147.229 303.045 147.326 303.212C147.423 303.378 147.563 303.516 147.731 303.612C147.9 303.708 148.09 303.759 148.285 303.759H165.716C165.91 303.759 166.101 303.709 166.269 303.613C166.438 303.517 166.578 303.379 166.675 303.212C166.772 303.046 166.823 302.857 166.823 302.665C166.823 302.473 166.771 302.284 166.674 302.118L157.959 287.2C157.862 287.034 157.722 286.896 157.554 286.8C157.385 286.704 157.195 286.653 157 286.653C156.806 286.653 156.615 286.704 156.446 286.8C156.278 286.896 156.138 287.034 156.041 287.2ZM158.054 292.295V297.738C158.054 298.01 157.945 298.27 157.751 298.461C157.557 298.653 157.294 298.761 157.02 298.761C156.745 298.761 156.482 298.653 156.288 298.461C156.094 298.27 155.985 298.01 155.985 297.738V292.295C155.985 292.024 156.094 291.764 156.288 291.572C156.482 291.38 156.745 291.272 157.02 291.272C157.294 291.272 157.557 291.38 157.751 291.572C157.945 291.764 158.054 292.024 158.054 292.295ZM159.751 286.177C159.472 285.7 159.071 285.304 158.588 285.029C158.105 284.753 157.558 284.608 157 284.608C156.443 284.608 155.895 284.753 155.412 285.029C154.929 285.304 154.528 285.7 154.25 286.177L145.534 301.095C145.255 301.572 145.108 302.114 145.108 302.665C145.108 303.216 145.255 303.757 145.534 304.234C145.812 304.711 146.213 305.108 146.696 305.383C147.179 305.659 147.727 305.804 148.284 305.803H165.716C166.273 305.803 166.821 305.658 167.303 305.383C167.786 305.107 168.187 304.711 168.466 304.234C168.745 303.757 168.891 303.216 168.891 302.665C168.891 302.114 168.745 301.573 168.466 301.096L159.75 286.178L159.751 286.177ZM130.789 310.236H183.211V281.214H130.789V310.236ZM163.22 312.281H150.619V314.219H163.22V312.281ZM165.289 312.281H186.422C186.575 312.283 186.721 312.344 186.828 312.45C186.936 312.557 186.998 312.701 187 312.852V316.517C186.999 317.175 186.734 317.806 186.263 318.272C185.792 318.737 185.154 318.999 184.487 319H129.513C128.847 318.999 128.208 318.737 127.737 318.272C127.266 317.806 127.001 317.175 127 316.517V312.852C127.002 312.701 127.064 312.557 127.172 312.451C127.28 312.344 127.425 312.283 127.578 312.281H148.55V315.242C148.55 315.513 148.659 315.773 148.853 315.965C149.047 316.156 149.31 316.264 149.584 316.264H164.254C164.529 316.264 164.792 316.156 164.986 315.965C165.18 315.773 165.289 315.513 165.289 315.242V312.281ZM130.789 279.17H183.211V276.367C183.211 276.005 183.065 275.657 182.806 275.401C182.546 275.145 182.194 275 181.828 275H132.172C131.806 275 131.454 275.145 131.194 275.401C130.935 275.657 130.789 276.005 130.789 276.367V279.17Z" fill="black"/>
<g filter="url(#filter2_d_705_8462)">
<circle cx="621" cy="153" r="60" fill="#CAC9FF"/>
</g>
<path d="M646.312 148.106L644.7 148.106C643.727 148.104 642.776 147.813 641.968 147.271C641.159 146.729 640.53 145.959 640.159 145.059C639.787 144.16 639.691 143.17 639.882 142.216C640.073 141.261 640.543 140.385 641.231 139.697L642.366 138.563C642.537 138.385 642.634 138.148 642.634 137.902C642.634 137.655 642.537 137.418 642.366 137.241L636.759 131.634C636.673 131.547 636.57 131.479 636.456 131.431C636.343 131.384 636.221 131.36 636.098 131.36C635.976 131.36 635.854 131.384 635.741 131.431C635.627 131.479 635.524 131.547 635.438 131.634L634.294 132.769C633.602 133.451 632.726 133.917 631.773 134.106C630.82 134.296 629.832 134.203 628.931 133.838C628.032 133.467 627.264 132.838 626.723 132.03C626.182 131.222 625.894 130.272 625.894 129.3V127.688C625.894 127.564 625.87 127.442 625.823 127.328C625.776 127.214 625.707 127.111 625.62 127.024C625.533 126.936 625.429 126.867 625.316 126.82C625.202 126.774 625.079 126.75 624.956 126.75H617.044C616.921 126.75 616.798 126.774 616.684 126.82C616.571 126.867 616.467 126.936 616.38 127.024C616.293 127.111 616.224 127.214 616.177 127.328C616.13 127.442 616.106 127.564 616.106 127.688V129.3C616.096 130.268 615.801 131.212 615.258 132.015C614.715 132.817 613.948 133.441 613.053 133.811C612.158 134.181 611.174 134.279 610.223 134.094C609.272 133.908 608.397 133.448 607.706 132.769L606.562 131.634C606.385 131.463 606.148 131.367 605.902 131.367C605.655 131.367 605.418 131.463 605.241 131.634L600.684 136.209C600.597 136.296 600.528 136.399 600.481 136.513C600.434 136.626 600.41 136.748 600.41 136.87C600.41 136.993 600.434 137.115 600.481 137.228C600.528 137.342 600.597 137.445 600.684 137.531L609.469 146.316C609.567 146.413 609.686 146.487 609.816 146.533C609.947 146.58 610.086 146.597 610.223 146.583C610.361 146.57 610.494 146.527 610.613 146.456C610.732 146.385 610.835 146.29 610.912 146.175C617.604 136.294 633.154 141.052 633.187 153C633.188 154.992 632.699 156.954 631.764 158.713C630.829 160.471 629.477 161.974 627.825 163.088C627.711 163.165 627.615 163.267 627.544 163.387C627.474 163.506 627.43 163.639 627.417 163.776C627.403 163.914 627.42 164.053 627.466 164.184C627.513 164.314 627.587 164.433 627.684 164.531L636.478 173.325C636.565 173.414 636.668 173.485 636.782 173.533C636.897 173.581 637.02 173.606 637.144 173.606C637.268 173.606 637.391 173.581 637.505 173.533C637.619 173.485 637.723 173.414 637.809 173.325L642.366 168.759C642.453 168.673 642.522 168.57 642.569 168.456C642.616 168.343 642.64 168.221 642.64 168.098C642.64 167.976 642.616 167.854 642.569 167.741C642.522 167.627 642.453 167.524 642.366 167.438L641.231 166.294C640.541 165.607 640.069 164.731 639.877 163.777C639.685 162.822 639.781 161.832 640.153 160.932C640.524 160.032 641.155 159.263 641.965 158.722C642.774 158.181 643.726 157.893 644.7 157.894H646.312C646.436 157.894 646.558 157.87 646.672 157.823C646.786 157.776 646.889 157.707 646.976 157.62C647.064 157.533 647.133 157.429 647.18 157.316C647.226 157.202 647.25 157.079 647.25 156.956V149.044C647.25 148.921 647.226 148.798 647.18 148.684C647.133 148.571 647.064 148.467 646.976 148.38C646.889 148.293 646.786 148.224 646.672 148.177C646.558 148.13 646.436 148.106 646.312 148.106Z" fill="black"/>
<path d="M623.231 165.375C623.13 165.277 623.009 165.202 622.877 165.155C622.744 165.108 622.603 165.091 622.463 165.103C620.63 165.314 618.773 165.109 617.031 164.502C615.289 163.895 613.707 162.902 612.402 161.598C611.098 160.293 610.105 158.711 609.498 156.969C608.891 155.227 608.686 153.37 608.897 151.538C608.909 151.397 608.892 151.256 608.845 151.124C608.798 150.991 608.723 150.87 608.625 150.769L603.131 145.284C603.028 145.183 602.903 145.106 602.765 145.061C602.627 145.016 602.481 145.003 602.337 145.024C602.193 145.045 602.057 145.099 601.938 145.181C601.818 145.264 601.72 145.373 601.65 145.5C601.226 146.285 600.598 146.942 599.833 147.401C599.067 147.859 598.192 148.103 597.3 148.106H595.688C595.564 148.106 595.442 148.13 595.328 148.177C595.214 148.224 595.111 148.293 595.024 148.38C594.936 148.467 594.867 148.571 594.82 148.685C594.774 148.799 594.75 148.921 594.75 149.044V156.956C594.75 157.08 594.774 157.202 594.82 157.316C594.867 157.43 594.936 157.533 595.024 157.62C595.111 157.707 595.214 157.776 595.328 157.823C595.442 157.87 595.564 157.894 595.688 157.894H597.3C601.573 157.802 603.879 163.342 600.769 166.294C600.229 166.951 598.74 167.791 599.634 168.759L605.241 174.366C605.327 174.453 605.43 174.522 605.544 174.569C605.657 174.616 605.779 174.64 605.902 174.64C606.024 174.64 606.146 174.616 606.259 174.569C606.373 174.522 606.476 174.453 606.562 174.366L607.706 173.231C608.397 172.554 609.273 172.094 610.223 171.909C611.173 171.725 612.157 171.823 613.051 172.193C613.946 172.562 614.713 173.186 615.256 173.988C615.799 174.789 616.095 175.732 616.106 176.7V178.313C616.106 178.436 616.13 178.558 616.177 178.672C616.224 178.786 616.293 178.889 616.38 178.976C616.467 179.064 616.571 179.133 616.684 179.18C616.798 179.227 616.921 179.251 617.044 179.25H624.956C625.079 179.251 625.202 179.227 625.316 179.18C625.429 179.133 625.533 179.064 625.62 178.976C625.707 178.889 625.776 178.786 625.823 178.672C625.87 178.558 625.894 178.436 625.894 178.313V176.7C625.901 175.807 626.148 174.933 626.608 174.168C627.068 173.403 627.724 172.775 628.509 172.35C628.636 172.279 628.744 172.179 628.825 172.058C628.907 171.938 628.959 171.8 628.978 171.656C629 171.514 628.987 171.368 628.942 171.231C628.896 171.094 628.819 170.97 628.716 170.869L623.231 165.375Z" fill="black"/>
<path d="M621 155.227C621.123 155.227 621.245 155.202 621.359 155.155C621.473 155.108 621.576 155.039 621.663 154.952C621.75 154.865 621.819 154.762 621.866 154.648C621.913 154.534 621.938 154.412 621.938 154.289V146.789C621.938 146.54 621.839 146.302 621.663 146.126C621.487 145.95 621.249 145.852 621 145.852C620.751 145.852 620.513 145.95 620.337 146.126C620.161 146.302 620.063 146.54 620.063 146.789V154.289C620.062 154.412 620.087 154.534 620.134 154.648C620.181 154.762 620.25 154.865 620.337 154.952C620.424 155.039 620.527 155.108 620.641 155.155C620.755 155.202 620.877 155.227 621 155.227Z" fill="black"/>
<path d="M622.172 158.981C622.172 158.671 622.048 158.373 621.829 158.153C621.609 157.933 621.311 157.81 621 157.81C620.689 157.81 620.391 157.933 620.171 158.153C619.952 158.373 619.828 158.671 619.828 158.981C619.828 159.292 619.952 159.59 620.171 159.81C620.391 160.03 620.689 160.153 621 160.153C621.311 160.153 621.609 160.03 621.829 159.81C622.048 159.59 622.172 159.292 622.172 158.981Z" fill="black"/>
<circle cx="389.001" cy="297" r="85.5396" stroke="white"/>
<circle cx="389" cy="297" r="97.5198" stroke="white"/>
<circle cx="389" cy="297" r="109.5" stroke="white"/>
<circle cx="388.999" cy="297" r="65.3465" fill="#E3F9E3"/>
<g clip-path="url(#clip1_705_8462)">
<path d="M388.997 283.599C386.851 283.599 384.754 284.235 382.97 285.427C381.186 286.619 379.795 288.314 378.974 290.296C378.153 292.278 377.938 294.459 378.357 296.564C378.775 298.668 379.809 300.601 381.326 302.118C382.843 303.636 384.776 304.669 386.881 305.088C388.985 305.506 391.166 305.291 393.149 304.47C395.131 303.649 396.825 302.259 398.017 300.475C399.209 298.691 399.846 296.593 399.846 294.447C399.842 291.571 398.698 288.814 396.664 286.78C394.631 284.746 391.873 283.602 388.997 283.599ZM395.418 292.966L389.352 298.709C388.996 299.045 388.525 299.233 388.036 299.233C387.546 299.233 387.076 299.045 386.72 298.709L382.576 294.787C382.209 294.437 381.996 293.957 381.983 293.45C381.97 292.944 382.158 292.453 382.506 292.085C382.854 291.717 383.334 291.502 383.841 291.487C384.347 291.473 384.838 291.659 385.208 292.006L388.036 294.686L392.786 290.19C392.968 290.01 393.183 289.869 393.419 289.774C393.656 289.679 393.909 289.632 394.164 289.636C394.419 289.64 394.671 289.695 394.904 289.798C395.138 289.901 395.348 290.049 395.523 290.234C395.699 290.419 395.835 290.638 395.925 290.876C396.015 291.115 396.056 291.369 396.046 291.624C396.036 291.879 395.976 292.129 395.868 292.36C395.76 292.591 395.607 292.798 395.418 292.969V292.966Z" fill="#009900"/>
<path d="M414.97 270.535C414.714 270.358 414.419 270.247 414.11 270.211C413.802 270.174 413.489 270.214 413.199 270.325C409.333 271.821 405.108 272.122 401.07 271.189C397.031 270.256 393.366 268.132 390.548 265.092L390.402 264.935C390.222 264.743 390.006 264.59 389.765 264.485C389.524 264.381 389.264 264.327 389.001 264.327C388.739 264.327 388.479 264.381 388.238 264.485C387.997 264.59 387.78 264.743 387.601 264.935L387.447 265.092C384.629 268.132 380.964 270.256 376.926 271.189C372.887 272.122 368.662 271.821 364.796 270.325C364.506 270.214 364.194 270.175 363.885 270.211C363.577 270.247 363.282 270.358 363.026 270.534C362.77 270.71 362.56 270.946 362.416 271.221C362.271 271.495 362.195 271.801 362.195 272.112V283.026C362.195 292.309 364.564 301.439 369.078 309.552C373.591 317.664 380.1 324.491 387.988 329.386C388.291 329.574 388.641 329.674 388.998 329.674C389.354 329.674 389.704 329.574 390.007 329.386C397.895 324.491 404.404 317.664 408.918 309.552C413.431 301.439 415.8 292.309 415.8 283.026V272.112C415.8 271.802 415.724 271.496 415.58 271.221C415.435 270.946 415.226 270.71 414.97 270.535ZM388.998 309.125C386.095 309.125 383.257 308.264 380.843 306.651C378.43 305.038 376.548 302.746 375.437 300.064C374.327 297.382 374.036 294.431 374.602 291.584C375.169 288.737 376.566 286.121 378.619 284.069C380.672 282.016 383.287 280.618 386.134 280.052C388.981 279.486 391.932 279.776 394.614 280.887C397.296 281.998 399.589 283.879 401.201 286.293C402.814 288.707 403.675 291.544 403.675 294.447C403.671 298.339 402.123 302.069 399.371 304.821C396.62 307.573 392.889 309.12 388.998 309.125Z" fill="#009900"/>
</g>
<path d="M618 384L618 297" stroke="url(#paint2_linear_705_8462)" stroke-linecap="round"/>
<path d="M516.5 296.5L516.5 198.5C516.5 173.647 536.647 153.5 561.5 153.5V153.5" stroke="url(#paint3_linear_705_8462)" stroke-linecap="round"/>
<defs>
<filter id="filter0_d_705_8462" x="463" y="294" width="314" height="314" filterUnits="userSpaceOnUse" color-interpolation-filters="sRGB">
<feFlood flood-opacity="0" result="BackgroundImageFix"/>
<feColorMatrix in="SourceAlpha" type="matrix" values="0 0 0 0 0 0 0 0 0 0 0 0 0 0 0 0 0 0 127 0" result="hardAlpha"/>
<feMorphology radius="17" operator="dilate" in="SourceAlpha" result="effect1_dropShadow_705_8462"/>
<feOffset dy="4"/>
<feGaussianBlur stdDeviation="40"/>
<feComposite in2="hardAlpha" operator="out"/>
<feColorMatrix type="matrix" values="0 0 0 0 1 0 0 0 0 1 0 0 0 0 1 0 0 0 0.2 0"/>
<feBlend mode="normal" in2="BackgroundImageFix" result="effect1_dropShadow_705_8462"/>
<feBlend mode="normal" in="SourceGraphic" in2="effect1_dropShadow_705_8462" result="shape"/>
</filter>
<filter id="filter1_d_705_8462" x="0" y="144" width="314" height="314" filterUnits="userSpaceOnUse" color-interpolation-filters="sRGB">
<feFlood flood-opacity="0" result="BackgroundImageFix"/>
<feColorMatrix in="SourceAlpha" type="matrix" values="0 0 0 0 0 0 0 0 0 0 0 0 0 0 0 0 0 0 127 0" result="hardAlpha"/>
<feMorphology radius="17" operator="dilate" in="SourceAlpha" result="effect1_dropShadow_705_8462"/>
<feOffset dy="4"/>
<feGaussianBlur stdDeviation="40"/>
<feComposite in2="hardAlpha" operator="out"/>
<feColorMatrix type="matrix" values="0 0 0 0 1 0 0 0 0 1 0 0 0 0 1 0 0 0 0.2 0"/>
<feBlend mode="normal" in2="BackgroundImageFix" result="effect1_dropShadow_705_8462"/>
<feBlend mode="normal" in="SourceGraphic" in2="effect1_dropShadow_705_8462" result="shape"/>
</filter>
<filter id="filter2_d_705_8462" x="464" y="0" width="314" height="314" filterUnits="userSpaceOnUse" color-interpolation-filters="sRGB">
<feFlood flood-opacity="0" result="BackgroundImageFix"/>
<feColorMatrix in="SourceAlpha" type="matrix" values="0 0 0 0 0 0 0 0 0 0 0 0 0 0 0 0 0 0 127 0" result="hardAlpha"/>
<feMorphology radius="17" operator="dilate" in="SourceAlpha" result="effect1_dropShadow_705_8462"/>
<feOffset dy="4"/>
<feGaussianBlur stdDeviation="40"/>
<feComposite in2="hardAlpha" operator="out"/>
<feColorMatrix type="matrix" values="0 0 0 0 1 0 0 0 0 1 0 0 0 0 1 0 0 0 0.2 0"/>
<feBlend mode="normal" in2="BackgroundImageFix" result="effect1_dropShadow_705_8462"/>
<feBlend mode="normal" in="SourceGraphic" in2="effect1_dropShadow_705_8462" result="shape"/>
</filter>
<linearGradient id="paint0_linear_705_8462" x1="59" y1="298" x2="326" y2="298" gradientUnits="userSpaceOnUse">
<stop stop-color="white" stop-opacity="0"/>
<stop offset="1" stop-color="white"/>
</linearGradient>
<linearGradient id="paint1_linear_705_8462" x1="699" y1="296" x2="387" y2="296" gradientUnits="userSpaceOnUse">
<stop stop-color="white" stop-opacity="0"/>
<stop offset="1" stop-color="white"/>
</linearGradient>
<linearGradient id="paint2_linear_705_8462" x1="619" y1="384" x2="619" y2="297" gradientUnits="userSpaceOnUse">
<stop stop-color="white" stop-opacity="0"/>
<stop offset="1" stop-color="white"/>
</linearGradient>
<linearGradient id="paint3_linear_705_8462" x1="521" y1="297" x2="521" y2="210" gradientUnits="userSpaceOnUse">
<stop stop-color="white" stop-opacity="0"/>
<stop offset="1" stop-color="white"/>
</linearGradient>
<clipPath id="clip0_705_8462">
<rect width="60" height="60" fill="white" transform="translate(590 417)"/>
</clipPath>
<clipPath id="clip1_705_8462">
<rect width="65.3465" height="65.3465" fill="white" transform="translate(356.324 264.327)"/>
</clipPath>
</defs>
</svg>
