<svg width="662" height="599" viewBox="0 0 662 599" fill="none" xmlns="http://www.w3.org/2000/svg">
<ellipse opacity="0.3" cx="331.251" cy="299.5" rx="299.274" ry="299.5" fill="url(#paint0_radial_693_8037)"/>
<circle cx="331.721" cy="299.721" r="56.1644" fill="white" stroke="white" stroke-width="1.11217"/>
<path d="M318.871 275.967C318.871 277.606 317.506 278.934 315.822 278.934C314.138 278.934 312.772 277.606 312.772 275.967C312.772 274.328 314.138 273 315.822 273C317.506 273 318.871 274.328 318.871 275.967Z" fill="black"/>
<path d="M318.525 285.609C318.525 287.062 317.315 288.239 315.822 288.239C314.329 288.239 313.119 287.062 313.119 285.609C313.119 284.157 314.329 282.98 315.822 282.98C317.315 282.98 318.525 284.157 318.525 285.609Z" fill="black"/>
<path d="M318.248 294.746C318.248 296.068 317.146 297.14 315.787 297.14C314.428 297.14 313.327 296.068 313.327 294.746C313.327 293.424 314.428 292.352 315.787 292.352C317.146 292.352 318.248 293.424 318.248 294.746Z" fill="black"/>
<path d="M317.901 303.31C317.901 304.446 316.955 305.366 315.787 305.366C314.62 305.366 313.673 304.446 313.673 303.31C313.673 302.174 314.62 301.253 315.787 301.253C316.955 301.253 317.901 302.174 317.901 303.31Z" fill="black"/>
<path d="M317.554 311.199C317.554 312.149 316.763 312.919 315.787 312.919C314.811 312.919 314.02 312.149 314.02 311.199C314.02 310.249 314.811 309.48 315.787 309.48C316.763 309.48 317.554 310.249 317.554 311.199Z" fill="black"/>
<path d="M317.208 318.414C317.208 319.178 316.572 319.796 315.787 319.796C315.002 319.796 314.366 319.178 314.366 318.414C314.366 317.651 315.002 317.032 315.787 317.032C316.572 317.032 317.208 317.651 317.208 318.414Z" fill="black"/>
<path d="M316.861 324.955C316.861 325.532 316.38 326 315.787 326C315.194 326 314.713 325.532 314.713 324.955C314.713 324.378 315.194 323.91 315.787 323.91C316.38 323.91 316.861 324.378 316.861 324.955Z" fill="black"/>
<path d="M328.644 285.609C328.644 287.062 327.433 288.239 325.941 288.239C324.448 288.239 323.238 287.062 323.238 285.609C323.238 284.157 324.448 282.98 325.941 282.98C327.433 282.98 328.644 284.157 328.644 285.609Z" fill="black"/>
<path d="M308.406 285.609C308.406 287.062 307.196 288.239 305.703 288.239C304.21 288.239 303 287.062 303 285.609C303 284.157 304.21 282.98 305.703 282.98C307.196 282.98 308.406 284.157 308.406 285.609Z" fill="black"/>
<path d="M328.366 294.746C328.366 296.068 327.265 297.14 325.906 297.14C324.547 297.14 323.446 296.068 323.446 294.746C323.446 293.424 324.547 292.352 325.906 292.352C327.265 292.352 328.366 293.424 328.366 294.746Z" fill="black"/>
<path d="M308.129 294.746C308.129 296.068 307.027 297.14 305.668 297.14C304.309 297.14 303.208 296.068 303.208 294.746C303.208 293.424 304.309 292.352 305.668 292.352C307.027 292.352 308.129 293.424 308.129 294.746Z" fill="black"/>
<path d="M328.02 303.31C328.02 304.446 327.073 305.366 325.906 305.366C324.738 305.366 323.792 304.446 323.792 303.31C323.792 302.174 324.738 301.253 325.906 301.253C327.073 301.253 328.02 302.174 328.02 303.31Z" fill="black"/>
<path d="M307.782 303.31C307.782 304.446 306.836 305.366 305.668 305.366C304.501 305.366 303.554 304.446 303.554 303.31C303.554 302.174 304.501 301.253 305.668 301.253C306.836 301.253 307.782 302.174 307.782 303.31Z" fill="black"/>
<path d="M327.673 311.199C327.673 312.149 326.882 312.919 325.906 312.919C324.93 312.919 324.139 312.149 324.139 311.199C324.139 310.249 324.93 309.48 325.906 309.48C326.882 309.48 327.673 310.249 327.673 311.199Z" fill="black"/>
<path d="M307.436 311.199C307.436 312.149 306.644 312.919 305.668 312.919C304.692 312.919 303.901 312.149 303.901 311.199C303.901 310.249 304.692 309.48 305.668 309.48C306.644 309.48 307.436 310.249 307.436 311.199Z" fill="black"/>
<path d="M327.327 318.414C327.327 319.178 326.691 319.796 325.906 319.796C325.121 319.796 324.485 319.178 324.485 318.414C324.485 317.651 325.121 317.032 325.906 317.032C326.691 317.032 327.327 317.651 327.327 318.414Z" fill="black"/>
<path d="M307.089 318.414C307.089 319.178 306.453 319.796 305.668 319.796C304.884 319.796 304.248 319.178 304.248 318.414C304.248 317.651 304.884 317.032 305.668 317.032C306.453 317.032 307.089 317.651 307.089 318.414Z" fill="black"/>
<path d="M326.98 324.955C326.98 325.532 326.499 326 325.906 326C325.313 326 324.832 325.532 324.832 324.955C324.832 324.378 325.313 323.91 325.906 323.91C326.499 323.91 326.98 324.378 326.98 324.955Z" fill="black"/>
<path d="M306.743 324.955C306.743 325.532 306.262 326 305.668 326C305.075 326 304.594 325.532 304.594 324.955C304.594 324.378 305.075 323.91 305.668 323.91C306.262 323.91 306.743 324.378 306.743 324.955Z" fill="black"/>
<path d="M349.228 323.033C349.228 321.394 347.862 320.066 346.178 320.066C344.494 320.066 343.129 321.394 343.129 323.033C343.129 324.672 344.494 326 346.178 326C347.862 326 349.228 324.672 349.228 323.033Z" fill="#3432CA"/>
<path d="M348.881 313.391C348.881 311.938 347.671 310.761 346.178 310.761C344.685 310.761 343.475 311.938 343.475 313.391C343.475 314.843 344.685 316.02 346.178 316.02C347.671 316.02 348.881 314.843 348.881 313.391Z" fill="#3432CA"/>
<path d="M348.604 304.254C348.604 302.932 347.502 301.86 346.144 301.86C344.785 301.86 343.683 302.932 343.683 304.254C343.683 305.576 344.785 306.648 346.144 306.648C347.502 306.648 348.604 305.576 348.604 304.254Z" fill="#3432CA"/>
<path d="M348.257 295.69C348.257 294.554 347.311 293.634 346.144 293.634C344.976 293.634 344.03 294.554 344.03 295.69C344.03 296.826 344.976 297.747 346.144 297.747C347.311 297.747 348.257 296.826 348.257 295.69Z" fill="#3432CA"/>
<path d="M347.911 287.801C347.911 286.851 347.12 286.081 346.144 286.081C345.167 286.081 344.376 286.851 344.376 287.801C344.376 288.751 345.167 289.52 346.144 289.52C347.12 289.52 347.911 288.751 347.911 287.801Z" fill="#3432CA"/>
<path d="M347.564 280.586C347.564 279.822 346.928 279.204 346.144 279.204C345.359 279.204 344.723 279.822 344.723 280.586C344.723 281.349 345.359 281.968 346.144 281.968C346.928 281.968 347.564 281.349 347.564 280.586Z" fill="#3432CA"/>
<path d="M347.218 274.045C347.218 273.468 346.737 273 346.144 273C345.55 273 345.069 273.468 345.069 274.045C345.069 274.622 345.55 275.09 346.144 275.09C346.737 275.09 347.218 274.622 347.218 274.045Z" fill="#3432CA"/>
<path d="M359 313.391C359 311.938 357.79 310.761 356.297 310.761C354.804 310.761 353.594 311.938 353.594 313.391C353.594 314.843 354.804 316.02 356.297 316.02C357.79 316.02 359 314.843 359 313.391Z" fill="#3432CA"/>
<path d="M338.762 313.391C338.762 311.938 337.552 310.761 336.059 310.761C334.567 310.761 333.356 311.938 333.356 313.391C333.356 314.843 334.567 316.02 336.059 316.02C337.552 316.02 338.762 314.843 338.762 313.391Z" fill="#3432CA"/>
<path d="M358.723 304.254C358.723 302.932 357.621 301.86 356.262 301.86C354.904 301.86 353.802 302.932 353.802 304.254C353.802 305.576 354.904 306.648 356.262 306.648C357.621 306.648 358.723 305.576 358.723 304.254Z" fill="#3432CA"/>
<path d="M338.485 304.254C338.485 302.932 337.384 301.86 336.025 301.86C334.666 301.86 333.564 302.932 333.564 304.254C333.564 305.576 334.666 306.648 336.025 306.648C337.384 306.648 338.485 305.576 338.485 304.254Z" fill="#3432CA"/>
<path d="M358.376 295.69C358.376 294.554 357.43 293.634 356.262 293.634C355.095 293.634 354.149 294.554 354.149 295.69C354.149 296.826 355.095 297.747 356.262 297.747C357.43 297.747 358.376 296.826 358.376 295.69Z" fill="#3432CA"/>
<path d="M338.139 295.69C338.139 294.554 337.192 293.634 336.025 293.634C334.857 293.634 333.911 294.554 333.911 295.69C333.911 296.826 334.857 297.747 336.025 297.747C337.192 297.747 338.139 296.826 338.139 295.69Z" fill="#3432CA"/>
<path d="M358.03 287.801C358.03 286.851 357.238 286.081 356.262 286.081C355.286 286.081 354.495 286.851 354.495 287.801C354.495 288.751 355.286 289.52 356.262 289.52C357.238 289.52 358.03 288.751 358.03 287.801Z" fill="#3432CA"/>
<path d="M337.792 287.801C337.792 286.851 337.001 286.081 336.025 286.081C335.049 286.081 334.257 286.851 334.257 287.801C334.257 288.751 335.049 289.52 336.025 289.52C337.001 289.52 337.792 288.751 337.792 287.801Z" fill="#3432CA"/>
<path d="M357.683 280.586C357.683 279.822 357.047 279.204 356.262 279.204C355.478 279.204 354.842 279.822 354.842 280.586C354.842 281.349 355.478 281.968 356.262 281.968C357.047 281.968 357.683 281.349 357.683 280.586Z" fill="#3432CA"/>
<path d="M337.446 280.586C337.446 279.822 336.809 279.204 336.025 279.204C335.24 279.204 334.604 279.822 334.604 280.586C334.604 281.349 335.24 281.968 336.025 281.968C336.809 281.968 337.446 281.349 337.446 280.586Z" fill="#3432CA"/>
<path d="M357.337 274.045C357.337 273.468 356.856 273 356.262 273C355.669 273 355.188 273.468 355.188 274.045C355.188 274.622 355.669 275.09 356.262 275.09C356.856 275.09 357.337 274.622 357.337 274.045Z" fill="#3432CA"/>
<path d="M337.099 274.045C337.099 273.468 336.618 273 336.025 273C335.431 273 334.95 273.468 334.95 274.045C334.95 274.622 335.431 275.09 336.025 275.09C336.618 275.09 337.099 274.622 337.099 274.045Z" fill="#3432CA"/>
<path d="M331.25 83L331.75 243" stroke="url(#paint1_linear_693_8037)" stroke-linecap="round"/>
<path d="M280.789 117L281.289 277" stroke="url(#paint2_linear_693_8037)" stroke-linecap="round"/>
<path d="M331.75 476L331.75 356" stroke="url(#paint3_linear_693_8037)" stroke-linecap="round"/>
<path d="M251.809 436H331.748" stroke="url(#paint4_linear_693_8037)" stroke-linecap="round"/>
<path d="M427.676 300H387.706" stroke="url(#paint5_linear_693_8037)" stroke-linecap="round"/>
<ellipse cx="173.868" cy="258" rx="39.9698" ry="40" fill="#CAC9FF"/>
<g clip-path="url(#clip0_693_8037)">
<path d="M173.866 249.797C172.554 249.797 171.271 250.186 170.18 250.916C169.088 251.646 168.238 252.683 167.736 253.896C167.233 255.11 167.102 256.445 167.358 257.733C167.614 259.021 168.246 260.204 169.174 261.133C170.102 262.062 171.284 262.694 172.572 262.951C173.859 263.207 175.193 263.075 176.405 262.573C177.618 262.07 178.654 261.219 179.383 260.127C180.113 259.035 180.502 257.751 180.502 256.437C180.5 254.677 179.8 252.989 178.556 251.744C177.312 250.499 175.625 249.799 173.866 249.797ZM177.794 255.53L174.083 259.046C173.866 259.252 173.578 259.367 173.278 259.367C172.979 259.367 172.691 259.252 172.473 259.046L169.939 256.645C169.714 256.431 169.584 256.137 169.576 255.827C169.568 255.517 169.683 255.217 169.896 254.992C170.109 254.766 170.402 254.635 170.712 254.626C171.022 254.617 171.322 254.731 171.548 254.943L173.278 256.584L176.184 253.831C176.295 253.721 176.426 253.635 176.571 253.577C176.716 253.518 176.871 253.49 177.027 253.492C177.183 253.495 177.336 253.529 177.479 253.591C177.622 253.654 177.751 253.745 177.858 253.858C177.965 253.972 178.049 254.105 178.104 254.251C178.159 254.398 178.184 254.553 178.178 254.709C178.172 254.865 178.135 255.018 178.069 255.16C178.003 255.301 177.909 255.428 177.794 255.533V255.53Z" fill="black"/>
<path d="M189.753 241.8C189.596 241.692 189.416 241.624 189.227 241.602C189.038 241.58 188.847 241.604 188.669 241.672C186.305 242.587 183.721 242.772 181.25 242.201C178.78 241.629 176.538 240.329 174.815 238.469L174.725 238.373C174.616 238.255 174.483 238.161 174.336 238.097C174.188 238.033 174.03 238 173.869 238C173.708 238 173.549 238.033 173.402 238.097C173.255 238.161 173.122 238.255 173.012 238.373L172.918 238.469C171.195 240.33 168.953 241.63 166.483 242.201C164.013 242.772 161.428 242.588 159.064 241.672C158.886 241.604 158.695 241.58 158.506 241.602C158.318 241.624 158.137 241.692 157.981 241.8C157.824 241.907 157.696 242.052 157.607 242.22C157.519 242.388 157.473 242.575 157.473 242.766V249.446C157.473 255.129 158.922 260.717 161.682 265.683C164.443 270.649 168.424 274.828 173.249 277.824C173.434 277.939 173.648 278 173.867 278C174.085 278 174.299 277.939 174.484 277.824C179.309 274.828 183.29 270.649 186.051 265.683C188.812 260.717 190.26 255.129 190.26 249.446V242.766C190.26 242.576 190.214 242.388 190.126 242.22C190.037 242.052 189.909 241.908 189.753 241.8ZM173.867 265.422C172.091 265.422 170.355 264.895 168.879 263.908C167.402 262.92 166.252 261.517 165.572 259.876C164.893 258.234 164.715 256.428 165.061 254.685C165.408 252.942 166.263 251.341 167.518 250.085C168.774 248.828 170.374 247.972 172.115 247.626C173.857 247.279 175.662 247.457 177.302 248.137C178.943 248.817 180.345 249.969 181.331 251.446C182.318 252.923 182.844 254.661 182.844 256.437C182.841 258.819 181.895 261.103 180.212 262.787C178.529 264.472 176.247 265.419 173.867 265.422Z" fill="black"/>
</g>
<ellipse cx="447.665" cy="168" rx="39.9698" ry="40" fill="#CAC9FF"/>
<g clip-path="url(#clip1_693_8037)">
<path d="M440.562 171.516C439.916 171.516 439.391 172.041 439.391 172.688C439.391 173.334 439.916 173.859 440.562 173.859C441.208 173.859 441.733 173.334 441.733 172.688C441.733 172.041 441.208 171.516 440.562 171.516Z" fill="black"/>
<path d="M449.929 164.484H431.193C429.256 164.484 427.68 166.061 427.68 168V182.062C427.68 184.001 429.256 185.578 431.193 185.578H449.929C451.866 185.578 453.441 184.001 453.441 182.062V168C453.441 166.061 451.866 164.484 449.929 164.484ZM441.732 175.987V179.719C441.732 180.366 441.208 180.891 440.561 180.891C439.913 180.891 439.39 180.366 439.39 179.719V175.987C438.03 175.502 437.048 174.213 437.048 172.688C437.048 170.749 438.623 169.172 440.561 169.172C442.498 169.172 444.074 170.749 444.074 172.688C444.074 174.213 443.092 175.502 441.732 175.987Z" fill="black"/>
<path d="M464.138 171.516C462.614 171.516 461.326 172.498 460.841 173.859H455.785V176.203H460.841C461.326 177.564 462.614 178.547 464.138 178.547C466.075 178.547 467.651 176.97 467.651 175.031C467.651 173.093 466.075 171.516 464.138 171.516Z" fill="black"/>
<path d="M464.138 180.891C463.496 180.891 462.902 181.076 462.384 181.378L460.35 178.963C460.127 178.699 459.8 178.547 459.454 178.547H455.785V180.891H458.91L460.853 183.197C460.713 183.576 460.625 183.98 460.625 184.406C460.625 186.345 462.201 188 464.138 188C466.075 188 467.651 186.345 467.651 184.406C467.651 182.468 466.075 180.891 464.138 180.891Z" fill="black"/>
<path d="M464.138 162.141C462.201 162.141 460.625 163.718 460.625 165.656C460.625 166.225 460.774 166.755 461.015 167.232L458.984 169.172H455.785V171.516H459.454C459.755 171.516 460.045 171.399 460.263 171.191L462.703 168.858C463.142 169.056 463.626 169.172 464.138 169.172C466.075 169.172 467.651 167.595 467.651 165.656C467.651 163.718 466.075 162.141 464.138 162.141Z" fill="black"/>
<path d="M440.559 148C435.394 148 431.191 152.206 431.191 157.375V162.141H435.875V157.375C435.875 154.79 437.976 152.688 440.559 152.688C443.143 152.688 445.243 154.79 445.243 157.375V162.141H449.927V157.375C449.927 152.206 445.725 148 440.559 148Z" fill="black"/>
</g>
<ellipse cx="407.692" cy="432" rx="39.9698" ry="40" fill="#CAC9FF"/>
<g clip-path="url(#clip2_693_8037)">
<path d="M425.097 439.329V438.89C425.097 436.671 423.73 434.723 421.693 434.052C419.707 433.406 417.696 433.871 416.303 435.264C415.336 436.206 414.782 437.548 414.782 438.916V439.329C413.286 439.871 412.203 441.29 412.203 442.968V448.129C412.203 450.258 413.944 452 416.071 452H423.807C425.935 452 427.675 450.258 427.675 448.129V442.968C427.675 441.29 426.592 439.871 425.097 439.329ZM421.126 446.865C421.216 447.174 420.996 447.497 420.687 447.497H419.191C418.882 447.497 418.663 447.174 418.753 446.865L418.972 446.09C418.676 445.768 418.508 445.303 418.598 444.787C418.702 444.207 419.14 443.729 419.694 443.626C420.558 443.471 421.306 444.168 421.306 445.058C421.306 445.471 421.151 445.819 420.906 446.09L421.126 446.865ZM422.518 439.097H417.361V438.916C417.361 438.232 417.631 437.574 418.121 437.097C418.818 436.387 419.862 436.168 420.893 436.503C421.848 436.826 422.518 437.806 422.518 438.89L422.518 439.097Z" fill="black"/>
<path d="M398.793 436.516C399.969 442.066 402.302 445.548 404.467 445.548C406.631 445.548 408.965 442.066 410.141 436.516H398.793Z" fill="black"/>
<path d="M398.023 428.774C398.023 430.606 398.141 432.334 398.351 433.936H410.59C410.799 432.334 410.917 430.606 410.917 428.774C410.917 426.942 410.799 425.215 410.59 423.613H398.351C398.141 425.215 398.023 426.942 398.023 428.774Z" fill="black"/>
<path d="M412.792 421.032H419.328C417.326 417.193 413.889 414.23 409.723 412.853C411.081 414.873 412.147 417.68 412.792 421.032Z" fill="black"/>
<path d="M404.467 412C402.303 412 399.969 415.482 398.793 421.032H410.141C408.965 415.482 406.631 412 404.467 412Z" fill="black"/>
<path d="M396.142 436.516H389.605C391.608 440.36 395.047 443.325 399.216 444.701C397.855 442.681 396.788 439.872 396.142 436.516Z" fill="black"/>
<path d="M396.145 421.032C396.79 417.68 397.856 414.873 399.215 412.853C395.049 414.23 391.611 417.193 389.609 421.032H396.145Z" fill="black"/>
<path d="M421.229 428.774C421.229 429.613 421.165 430.452 421.036 431.265C418.599 430.903 416.226 431.677 414.499 433.419C414.331 433.587 414.176 433.755 414.022 433.936H413.184C413.377 432.297 413.493 430.581 413.493 428.774C413.493 426.968 413.377 425.252 413.184 423.613H419.94C420.094 423.613 420.236 423.574 420.378 423.523C420.92 425.174 421.229 426.942 421.229 428.774Z" fill="black"/>
<path d="M388.996 433.936H395.752C395.556 432.301 395.443 430.579 395.443 428.774C395.443 426.97 395.556 425.248 395.752 423.613H388.996C388.84 423.613 388.695 423.575 388.556 423.524C388.012 425.177 387.707 426.939 387.707 428.774C387.707 430.608 388.018 432.369 388.563 434.023C388.7 433.974 388.843 433.936 388.996 433.936Z" fill="black"/>
</g>
<rect x="30.9766" y="84" width="284.785" height="72" rx="12" fill="#E3F9E3"/>
<circle cx="70.9766" cy="120" r="24" fill="#009900"/>
<path d="M60.2693 120.707L64.2694 124.707C64.3616 124.803 64.4719 124.879 64.5939 124.931C64.716 124.984 64.8472 125.011 64.9799 125.012C65.1127 125.013 65.2444 124.988 65.3673 124.938C65.4902 124.888 65.6019 124.813 65.6957 124.719C65.7896 124.626 65.8639 124.514 65.9142 124.391C65.9645 124.268 65.9898 124.136 65.9886 124.004C65.9874 123.871 65.9599 123.74 65.9075 123.618C65.855 123.496 65.7789 123.385 65.6834 123.293L62.3903 120L65.6834 116.707C65.7789 116.615 65.855 116.504 65.9075 116.382C65.9599 116.26 65.9874 116.129 65.9886 115.996C65.9898 115.864 65.9645 115.732 65.9142 115.609C65.8639 115.486 65.7896 115.375 65.6957 115.281C65.6019 115.187 65.4902 115.113 65.3673 115.062C65.2444 115.012 65.1127 114.987 64.9799 114.988C64.8472 114.989 64.716 115.017 64.5939 115.069C64.4719 115.121 64.3616 115.198 64.2694 115.293L60.2693 119.293C60.0819 119.481 59.9766 119.735 59.9766 120C59.9766 120.265 60.0819 120.52 60.2693 120.707Z" fill="white"/>
<path d="M77.6841 115.293C77.5919 115.198 77.4815 115.121 77.3595 115.069C77.2375 115.017 77.1063 114.989 76.9735 114.988C76.8408 114.987 76.7091 115.012 76.5862 115.062C76.4633 115.113 76.3516 115.187 76.2577 115.281C76.1638 115.375 76.0896 115.486 76.0393 115.609C75.989 115.732 75.9637 115.864 75.9649 115.996C75.966 116.129 75.9936 116.26 76.046 116.382C76.0984 116.504 76.1746 116.615 76.2701 116.707L79.5631 120L76.2701 123.293C76.1746 123.385 76.0984 123.496 76.046 123.618C75.9936 123.74 75.966 123.871 75.9649 124.004C75.9637 124.136 75.989 124.268 76.0393 124.391C76.0896 124.514 76.1638 124.626 76.2577 124.719C76.3516 124.813 76.4633 124.888 76.5862 124.938C76.7091 124.988 76.8408 125.013 76.9735 125.012C77.1063 125.011 77.2375 124.984 77.3595 124.931C77.4815 124.879 77.5919 124.803 77.6841 124.707L81.6841 120.707C81.8716 120.52 81.9769 120.265 81.9769 120C81.9769 119.735 81.8716 119.481 81.6841 119.293L77.6841 115.293Z" fill="white"/>
<path d="M72.015 112.726L68.015 126.726C67.9422 126.981 67.9736 127.254 68.1022 127.486C68.2308 127.718 68.4462 127.889 68.701 127.962C68.7906 127.987 68.8831 127.999 68.976 128C69.1934 128 69.4047 127.929 69.5781 127.798C69.7515 127.667 69.8775 127.483 69.937 127.274L73.937 113.274C73.9787 113.146 73.9942 113.011 73.9825 112.877C73.9709 112.743 73.9323 112.613 73.8692 112.494C73.806 112.375 73.7195 112.271 73.615 112.186C73.5104 112.102 73.3898 112.039 73.2605 112.002C73.1312 111.965 72.9958 111.955 72.8623 111.972C72.7289 111.988 72.6002 112.032 72.4839 112.099C72.3676 112.167 72.2662 112.257 72.1856 112.365C72.1051 112.472 72.047 112.595 72.015 112.726Z" fill="white"/>
<path d="M104.327 125.626C104.111 125.626 103.937 125.578 103.805 125.482C103.685 125.386 103.613 125.254 103.589 125.086C103.565 124.918 103.601 124.732 103.697 124.528L108.611 113.404C108.719 113.152 108.857 112.972 109.025 112.864C109.193 112.744 109.379 112.684 109.583 112.684C109.787 112.684 109.967 112.744 110.123 112.864C110.291 112.972 110.435 113.152 110.555 113.404L115.469 124.528C115.565 124.732 115.601 124.924 115.577 125.104C115.565 125.272 115.499 125.404 115.379 125.5C115.259 125.584 115.091 125.626 114.875 125.626C114.635 125.626 114.443 125.566 114.299 125.446C114.155 125.314 114.029 125.128 113.921 124.888L112.643 121.9L113.417 122.332H105.713L106.487 121.9L105.209 124.888C105.101 125.152 104.981 125.344 104.849 125.464C104.717 125.572 104.543 125.626 104.327 125.626ZM109.547 114.7L106.739 121.342L106.307 120.964H112.823L112.409 121.342L109.583 114.7H109.547ZM120.246 125.662C119.346 125.662 118.662 125.398 118.194 124.87C117.726 124.33 117.492 123.556 117.492 122.548V113.512C117.492 113.236 117.564 113.032 117.708 112.9C117.852 112.756 118.05 112.684 118.302 112.684C118.566 112.684 118.77 112.756 118.914 112.9C119.058 113.032 119.13 113.236 119.13 113.512V122.422C119.13 123.046 119.256 123.514 119.508 123.826C119.772 124.126 120.144 124.276 120.624 124.276C120.732 124.276 120.828 124.276 120.912 124.276C120.996 124.264 121.08 124.252 121.164 124.24C121.296 124.228 121.392 124.264 121.452 124.348C121.512 124.432 121.542 124.6 121.542 124.852C121.542 125.08 121.488 125.26 121.38 125.392C121.284 125.512 121.122 125.59 120.894 125.626C120.786 125.638 120.678 125.644 120.57 125.644C120.462 125.656 120.354 125.662 120.246 125.662ZM126.76 128.902C126.112 128.902 125.482 128.83 124.87 128.686C124.27 128.542 123.724 128.32 123.232 128.02C123.076 127.924 122.968 127.81 122.908 127.678C122.86 127.558 122.848 127.432 122.872 127.3C122.908 127.168 122.968 127.048 123.052 126.94C123.148 126.844 123.256 126.778 123.376 126.742C123.508 126.718 123.64 126.748 123.772 126.832C124.3 127.132 124.804 127.336 125.284 127.444C125.764 127.552 126.22 127.606 126.652 127.606C127.504 127.606 128.14 127.384 128.56 126.94C128.992 126.508 129.208 125.872 129.208 125.032V123.088H129.37C129.202 123.76 128.824 124.294 128.236 124.69C127.66 125.086 126.988 125.284 126.22 125.284C125.428 125.284 124.738 125.104 124.15 124.744C123.562 124.372 123.106 123.862 122.782 123.214C122.458 122.554 122.296 121.792 122.296 120.928C122.296 120.268 122.386 119.674 122.566 119.146C122.758 118.606 123.022 118.15 123.358 117.778C123.706 117.394 124.12 117.1 124.6 116.896C125.08 116.68 125.62 116.572 126.22 116.572C127 116.572 127.678 116.77 128.254 117.166C128.83 117.562 129.202 118.096 129.37 118.768L129.172 119.02V117.436C129.172 117.16 129.244 116.956 129.388 116.824C129.532 116.68 129.736 116.608 130 116.608C130.252 116.608 130.45 116.68 130.594 116.824C130.738 116.956 130.81 117.16 130.81 117.436V124.816C130.81 126.172 130.462 127.192 129.766 127.876C129.082 128.56 128.08 128.902 126.76 128.902ZM126.58 123.988C127.12 123.988 127.582 123.868 127.966 123.628C128.362 123.376 128.662 123.022 128.866 122.566C129.082 122.098 129.19 121.552 129.19 120.928C129.19 119.98 128.956 119.236 128.488 118.696C128.02 118.144 127.384 117.868 126.58 117.868C126.04 117.868 125.572 117.994 125.176 118.246C124.792 118.486 124.492 118.834 124.276 119.29C124.06 119.746 123.952 120.292 123.952 120.928C123.952 121.864 124.186 122.608 124.654 123.16C125.134 123.712 125.776 123.988 126.58 123.988ZM137.161 125.662C136.297 125.662 135.547 125.476 134.911 125.104C134.275 124.732 133.783 124.204 133.435 123.52C133.087 122.836 132.913 122.032 132.913 121.108C132.913 120.412 133.009 119.788 133.201 119.236C133.405 118.672 133.693 118.192 134.065 117.796C134.437 117.4 134.881 117.1 135.397 116.896C135.925 116.68 136.513 116.572 137.161 116.572C138.025 116.572 138.775 116.758 139.411 117.13C140.047 117.502 140.539 118.03 140.887 118.714C141.235 119.386 141.409 120.184 141.409 121.108C141.409 121.804 141.307 122.434 141.103 122.998C140.911 123.562 140.629 124.042 140.257 124.438C139.885 124.834 139.435 125.14 138.907 125.356C138.391 125.56 137.809 125.662 137.161 125.662ZM137.161 124.366C137.689 124.366 138.145 124.24 138.529 123.988C138.925 123.736 139.225 123.37 139.429 122.89C139.645 122.41 139.753 121.816 139.753 121.108C139.753 120.052 139.519 119.248 139.051 118.696C138.583 118.144 137.953 117.868 137.161 117.868C136.645 117.868 136.189 117.994 135.793 118.246C135.409 118.486 135.109 118.846 134.893 119.326C134.677 119.806 134.569 120.4 134.569 121.108C134.569 122.164 134.803 122.974 135.271 123.538C135.751 124.09 136.381 124.366 137.161 124.366ZM144.353 125.626C144.077 125.626 143.867 125.554 143.723 125.41C143.579 125.266 143.507 125.056 143.507 124.78V117.436C143.507 117.16 143.579 116.956 143.723 116.824C143.867 116.68 144.065 116.608 144.317 116.608C144.569 116.608 144.761 116.68 144.893 116.824C145.037 116.956 145.109 117.16 145.109 117.436V118.822H144.929C145.121 118.102 145.481 117.556 146.009 117.184C146.537 116.812 147.203 116.602 148.007 116.554C148.199 116.542 148.355 116.59 148.475 116.698C148.595 116.794 148.661 116.962 148.673 117.202C148.685 117.43 148.631 117.616 148.511 117.76C148.391 117.892 148.205 117.97 147.953 117.994L147.629 118.012C146.837 118.096 146.225 118.354 145.793 118.786C145.373 119.218 145.163 119.812 145.163 120.568V124.78C145.163 125.056 145.091 125.266 144.947 125.41C144.815 125.554 144.617 125.626 144.353 125.626ZM150.892 125.59C150.64 125.59 150.442 125.512 150.298 125.356C150.154 125.2 150.082 124.984 150.082 124.708V117.526C150.082 117.238 150.154 117.022 150.298 116.878C150.442 116.722 150.64 116.644 150.892 116.644C151.156 116.644 151.36 116.722 151.504 116.878C151.648 117.022 151.72 117.238 151.72 117.526V124.708C151.72 124.984 151.648 125.2 151.504 125.356C151.372 125.512 151.168 125.59 150.892 125.59ZM150.892 114.7C150.568 114.7 150.31 114.616 150.118 114.448C149.938 114.268 149.848 114.034 149.848 113.746C149.848 113.434 149.938 113.2 150.118 113.044C150.31 112.876 150.568 112.792 150.892 112.792C151.24 112.792 151.498 112.876 151.666 113.044C151.846 113.2 151.936 113.434 151.936 113.746C151.936 114.034 151.846 114.268 151.666 114.448C151.498 114.616 151.24 114.7 150.892 114.7ZM157.989 125.662C157.281 125.662 156.687 125.536 156.207 125.284C155.739 125.032 155.385 124.666 155.145 124.186C154.917 123.706 154.803 123.118 154.803 122.422V117.994H153.651C153.435 117.994 153.267 117.94 153.147 117.832C153.027 117.712 152.967 117.556 152.967 117.364C152.967 117.16 153.027 117.004 153.147 116.896C153.267 116.788 153.435 116.734 153.651 116.734H154.803V114.772C154.803 114.496 154.875 114.292 155.019 114.16C155.163 114.016 155.367 113.944 155.631 113.944C155.895 113.944 156.093 114.016 156.225 114.16C156.369 114.292 156.441 114.496 156.441 114.772V116.734H158.619C158.847 116.734 159.021 116.788 159.141 116.896C159.261 117.004 159.321 117.16 159.321 117.364C159.321 117.556 159.261 117.712 159.141 117.832C159.021 117.94 158.847 117.994 158.619 117.994H156.441V122.278C156.441 122.938 156.579 123.436 156.855 123.772C157.131 124.108 157.587 124.276 158.223 124.276C158.451 124.276 158.643 124.258 158.799 124.222C158.955 124.174 159.093 124.15 159.213 124.15C159.321 124.138 159.411 124.174 159.483 124.258C159.567 124.342 159.609 124.498 159.609 124.726C159.609 124.894 159.579 125.05 159.519 125.194C159.471 125.326 159.369 125.416 159.213 125.464C159.069 125.512 158.877 125.554 158.637 125.59C158.397 125.638 158.181 125.662 157.989 125.662ZM161.755 125.626C161.503 125.626 161.305 125.554 161.161 125.41C161.017 125.266 160.945 125.056 160.945 124.78V113.512C160.945 113.236 161.017 113.032 161.161 112.9C161.305 112.756 161.503 112.684 161.755 112.684C162.019 112.684 162.223 112.756 162.367 112.9C162.511 113.032 162.583 113.236 162.583 113.512V118.642H162.349C162.601 117.958 163.009 117.442 163.573 117.094C164.149 116.746 164.803 116.572 165.535 116.572C166.243 116.572 166.825 116.704 167.281 116.968C167.737 117.22 168.079 117.604 168.307 118.12C168.535 118.636 168.649 119.284 168.649 120.064V124.78C168.649 125.056 168.577 125.266 168.433 125.41C168.301 125.554 168.103 125.626 167.839 125.626C167.575 125.626 167.371 125.554 167.227 125.41C167.083 125.266 167.011 125.056 167.011 124.78V120.154C167.011 119.374 166.861 118.804 166.561 118.444C166.261 118.084 165.781 117.904 165.121 117.904C164.353 117.904 163.735 118.144 163.267 118.624C162.811 119.092 162.583 119.728 162.583 120.532V124.78C162.583 125.344 162.307 125.626 161.755 125.626ZM172.092 125.626C171.84 125.626 171.642 125.554 171.498 125.41C171.354 125.266 171.282 125.056 171.282 124.78V117.436C171.282 117.16 171.354 116.956 171.498 116.824C171.642 116.68 171.84 116.608 172.092 116.608C172.344 116.608 172.536 116.68 172.668 116.824C172.812 116.956 172.884 117.16 172.884 117.436V118.966L172.686 118.642C172.914 117.982 173.28 117.472 173.784 117.112C174.3 116.752 174.912 116.572 175.62 116.572C176.364 116.572 176.964 116.752 177.42 117.112C177.876 117.46 178.182 117.994 178.338 118.714H178.086C178.302 118.054 178.686 117.532 179.238 117.148C179.802 116.764 180.456 116.572 181.2 116.572C181.86 116.572 182.4 116.704 182.82 116.968C183.252 117.22 183.576 117.604 183.792 118.12C184.008 118.624 184.116 119.272 184.116 120.064V124.78C184.116 125.056 184.044 125.266 183.9 125.41C183.756 125.554 183.558 125.626 183.306 125.626C183.042 125.626 182.838 125.554 182.694 125.41C182.55 125.266 182.478 125.056 182.478 124.78V120.136C182.478 119.368 182.346 118.804 182.082 118.444C181.818 118.084 181.374 117.904 180.75 117.904C180.066 117.904 179.52 118.144 179.112 118.624C178.716 119.092 178.518 119.74 178.518 120.568V124.78C178.518 125.056 178.446 125.266 178.302 125.41C178.17 125.554 177.972 125.626 177.708 125.626C177.444 125.626 177.24 125.554 177.096 125.41C176.952 125.266 176.88 125.056 176.88 124.78V120.136C176.88 119.368 176.748 118.804 176.484 118.444C176.22 118.084 175.776 117.904 175.152 117.904C174.468 117.904 173.922 118.144 173.514 118.624C173.118 119.092 172.92 119.74 172.92 120.568V124.78C172.92 125.344 172.644 125.626 172.092 125.626ZM187.56 125.59C187.308 125.59 187.11 125.512 186.966 125.356C186.822 125.2 186.75 124.984 186.75 124.708V117.526C186.75 117.238 186.822 117.022 186.966 116.878C187.11 116.722 187.308 116.644 187.56 116.644C187.824 116.644 188.028 116.722 188.172 116.878C188.316 117.022 188.388 117.238 188.388 117.526V124.708C188.388 124.984 188.316 125.2 188.172 125.356C188.04 125.512 187.836 125.59 187.56 125.59ZM187.56 114.7C187.236 114.7 186.978 114.616 186.786 114.448C186.606 114.268 186.516 114.034 186.516 113.746C186.516 113.434 186.606 113.2 186.786 113.044C186.978 112.876 187.236 112.792 187.56 112.792C187.908 112.792 188.166 112.876 188.334 113.044C188.514 113.2 188.604 113.434 188.604 113.746C188.604 114.034 188.514 114.268 188.334 114.448C188.166 114.616 187.908 114.7 187.56 114.7ZM194.819 125.662C193.931 125.662 193.163 125.476 192.515 125.104C191.867 124.72 191.369 124.186 191.021 123.502C190.673 122.806 190.499 121.99 190.499 121.054C190.499 120.358 190.595 119.734 190.787 119.182C190.991 118.63 191.279 118.162 191.651 117.778C192.023 117.382 192.473 117.082 193.001 116.878C193.541 116.674 194.147 116.572 194.819 116.572C195.239 116.572 195.683 116.638 196.151 116.77C196.619 116.902 197.051 117.118 197.447 117.418C197.579 117.514 197.663 117.628 197.699 117.76C197.735 117.88 197.735 118.006 197.699 118.138C197.675 118.27 197.615 118.384 197.519 118.48C197.435 118.564 197.321 118.612 197.177 118.624C197.045 118.636 196.901 118.594 196.745 118.498C196.457 118.282 196.151 118.126 195.827 118.03C195.515 117.934 195.215 117.886 194.927 117.886C194.483 117.886 194.087 117.958 193.739 118.102C193.403 118.246 193.115 118.456 192.875 118.732C192.647 118.996 192.473 119.326 192.353 119.722C192.233 120.106 192.173 120.556 192.173 121.072C192.173 122.092 192.413 122.896 192.893 123.484C193.373 124.06 194.051 124.348 194.927 124.348C195.215 124.348 195.515 124.306 195.827 124.222C196.139 124.126 196.445 123.97 196.745 123.754C196.901 123.658 197.045 123.622 197.177 123.646C197.309 123.658 197.417 123.712 197.501 123.808C197.597 123.892 197.657 124 197.681 124.132C197.705 124.252 197.693 124.378 197.645 124.51C197.609 124.642 197.525 124.75 197.393 124.834C197.009 125.122 196.589 125.332 196.133 125.464C195.677 125.596 195.239 125.662 194.819 125.662ZM205.198 125.5C204.91 125.5 204.688 125.422 204.532 125.266C204.376 125.11 204.298 124.888 204.298 124.6V113.71C204.298 113.422 204.376 113.2 204.532 113.044C204.688 112.888 204.91 112.81 205.198 112.81H211.822C212.05 112.81 212.224 112.87 212.344 112.99C212.476 113.098 212.542 113.26 212.542 113.476C212.542 113.704 212.476 113.878 212.344 113.998C212.224 114.118 212.05 114.178 211.822 114.178H205.918V118.372H211.444C211.672 118.372 211.846 118.432 211.966 118.552C212.086 118.672 212.146 118.84 212.146 119.056C212.146 119.284 212.086 119.458 211.966 119.578C211.846 119.686 211.672 119.74 211.444 119.74H205.918V124.132H211.822C212.05 124.132 212.224 124.192 212.344 124.312C212.476 124.42 212.542 124.588 212.542 124.816C212.542 125.044 212.476 125.218 212.344 125.338C212.224 125.446 212.05 125.5 211.822 125.5H205.198ZM215.438 125.626C215.186 125.626 214.988 125.554 214.844 125.41C214.7 125.266 214.628 125.056 214.628 124.78V117.436C214.628 117.16 214.7 116.956 214.844 116.824C214.988 116.68 215.186 116.608 215.438 116.608C215.69 116.608 215.882 116.68 216.014 116.824C216.158 116.956 216.23 117.16 216.23 117.436V118.912L216.032 118.642C216.284 117.958 216.692 117.442 217.256 117.094C217.832 116.746 218.486 116.572 219.218 116.572C219.926 116.572 220.508 116.698 220.964 116.95C221.42 117.202 221.762 117.586 221.99 118.102C222.218 118.618 222.332 119.272 222.332 120.064V124.78C222.332 125.056 222.26 125.266 222.116 125.41C221.984 125.554 221.786 125.626 221.522 125.626C221.258 125.626 221.054 125.554 220.91 125.41C220.766 125.266 220.694 125.056 220.694 124.78V120.154C220.694 119.374 220.544 118.804 220.244 118.444C219.944 118.084 219.464 117.904 218.804 117.904C218.036 117.904 217.418 118.144 216.95 118.624C216.494 119.092 216.266 119.728 216.266 120.532V124.78C216.266 125.344 215.99 125.626 215.438 125.626ZM228.727 125.662C227.839 125.662 227.071 125.476 226.423 125.104C225.775 124.72 225.277 124.186 224.929 123.502C224.581 122.806 224.407 121.99 224.407 121.054C224.407 120.358 224.503 119.734 224.695 119.182C224.899 118.63 225.187 118.162 225.559 117.778C225.931 117.382 226.381 117.082 226.909 116.878C227.449 116.674 228.055 116.572 228.727 116.572C229.147 116.572 229.591 116.638 230.059 116.77C230.527 116.902 230.959 117.118 231.355 117.418C231.487 117.514 231.571 117.628 231.607 117.76C231.643 117.88 231.643 118.006 231.607 118.138C231.583 118.27 231.523 118.384 231.427 118.48C231.343 118.564 231.229 118.612 231.085 118.624C230.953 118.636 230.809 118.594 230.653 118.498C230.365 118.282 230.059 118.126 229.735 118.03C229.423 117.934 229.123 117.886 228.835 117.886C228.391 117.886 227.995 117.958 227.647 118.102C227.311 118.246 227.023 118.456 226.783 118.732C226.555 118.996 226.381 119.326 226.261 119.722C226.141 120.106 226.081 120.556 226.081 121.072C226.081 122.092 226.321 122.896 226.801 123.484C227.281 124.06 227.959 124.348 228.835 124.348C229.123 124.348 229.423 124.306 229.735 124.222C230.047 124.126 230.353 123.97 230.653 123.754C230.809 123.658 230.953 123.622 231.085 123.646C231.217 123.658 231.325 123.712 231.409 123.808C231.505 123.892 231.565 124 231.589 124.132C231.613 124.252 231.601 124.378 231.553 124.51C231.517 124.642 231.433 124.75 231.301 124.834C230.917 125.122 230.497 125.332 230.041 125.464C229.585 125.596 229.147 125.662 228.727 125.662ZM234.142 125.626C233.866 125.626 233.656 125.554 233.512 125.41C233.368 125.266 233.296 125.056 233.296 124.78V117.436C233.296 117.16 233.368 116.956 233.512 116.824C233.656 116.68 233.854 116.608 234.106 116.608C234.358 116.608 234.55 116.68 234.682 116.824C234.826 116.956 234.898 117.16 234.898 117.436V118.822H234.718C234.91 118.102 235.27 117.556 235.798 117.184C236.326 116.812 236.992 116.602 237.796 116.554C237.988 116.542 238.144 116.59 238.264 116.698C238.384 116.794 238.45 116.962 238.462 117.202C238.474 117.43 238.42 117.616 238.3 117.76C238.18 117.892 237.994 117.97 237.742 117.994L237.418 118.012C236.626 118.096 236.014 118.354 235.582 118.786C235.162 119.218 234.952 119.812 234.952 120.568V124.78C234.952 125.056 234.88 125.266 234.736 125.41C234.604 125.554 234.406 125.626 234.142 125.626ZM242.432 128.866C242.24 128.866 242.078 128.812 241.946 128.704C241.826 128.608 241.754 128.47 241.73 128.29C241.718 128.122 241.754 127.942 241.838 127.75L243.062 124.978V125.662L239.66 117.742C239.576 117.538 239.546 117.352 239.57 117.184C239.594 117.016 239.672 116.878 239.804 116.77C239.948 116.662 240.14 116.608 240.38 116.608C240.584 116.608 240.746 116.656 240.866 116.752C240.986 116.848 241.1 117.016 241.208 117.256L244.034 124.222H243.53L246.41 117.256C246.506 117.016 246.62 116.848 246.752 116.752C246.884 116.656 247.064 116.608 247.292 116.608C247.496 116.608 247.652 116.662 247.76 116.77C247.88 116.878 247.952 117.016 247.976 117.184C248 117.352 247.964 117.532 247.868 117.724L243.332 128.218C243.212 128.47 243.086 128.638 242.954 128.722C242.834 128.818 242.66 128.866 242.432 128.866ZM250.524 128.866C250.272 128.866 250.074 128.794 249.93 128.65C249.786 128.506 249.714 128.302 249.714 128.038V117.436C249.714 117.16 249.786 116.956 249.93 116.824C250.074 116.68 250.272 116.608 250.524 116.608C250.788 116.608 250.986 116.68 251.118 116.824C251.262 116.956 251.334 117.16 251.334 117.436V119.074L251.136 118.75C251.328 118.09 251.706 117.562 252.27 117.166C252.834 116.77 253.512 116.572 254.304 116.572C255.084 116.572 255.762 116.758 256.338 117.13C256.914 117.49 257.364 118.012 257.688 118.696C258.012 119.368 258.174 120.172 258.174 121.108C258.174 122.032 258.012 122.842 257.688 123.538C257.376 124.222 256.926 124.75 256.338 125.122C255.762 125.482 255.084 125.662 254.304 125.662C253.524 125.662 252.852 125.464 252.288 125.068C251.724 124.672 251.346 124.15 251.154 123.502H251.352V128.038C251.352 128.302 251.28 128.506 251.136 128.65C250.992 128.794 250.788 128.866 250.524 128.866ZM253.926 124.366C254.442 124.366 254.892 124.24 255.276 123.988C255.672 123.736 255.978 123.37 256.194 122.89C256.41 122.41 256.518 121.816 256.518 121.108C256.518 120.052 256.284 119.248 255.816 118.696C255.348 118.144 254.718 117.868 253.926 117.868C253.398 117.868 252.936 117.994 252.54 118.246C252.156 118.486 251.856 118.846 251.64 119.326C251.436 119.806 251.334 120.4 251.334 121.108C251.334 122.164 251.568 122.974 252.036 123.538C252.504 124.09 253.134 124.366 253.926 124.366ZM263.827 125.662C263.119 125.662 262.525 125.536 262.045 125.284C261.577 125.032 261.223 124.666 260.983 124.186C260.755 123.706 260.641 123.118 260.641 122.422V117.994H259.489C259.273 117.994 259.105 117.94 258.985 117.832C258.865 117.712 258.805 117.556 258.805 117.364C258.805 117.16 258.865 117.004 258.985 116.896C259.105 116.788 259.273 116.734 259.489 116.734H260.641V114.772C260.641 114.496 260.713 114.292 260.857 114.16C261.001 114.016 261.205 113.944 261.469 113.944C261.733 113.944 261.931 114.016 262.063 114.16C262.207 114.292 262.279 114.496 262.279 114.772V116.734H264.457C264.685 116.734 264.859 116.788 264.979 116.896C265.099 117.004 265.159 117.16 265.159 117.364C265.159 117.556 265.099 117.712 264.979 117.832C264.859 117.94 264.685 117.994 264.457 117.994H262.279V122.278C262.279 122.938 262.417 123.436 262.693 123.772C262.969 124.108 263.425 124.276 264.061 124.276C264.289 124.276 264.481 124.258 264.637 124.222C264.793 124.174 264.931 124.15 265.051 124.15C265.159 124.138 265.249 124.174 265.321 124.258C265.405 124.342 265.447 124.498 265.447 124.726C265.447 124.894 265.417 125.05 265.357 125.194C265.309 125.326 265.207 125.416 265.051 125.464C264.907 125.512 264.715 125.554 264.475 125.59C264.235 125.638 264.019 125.662 263.827 125.662ZM267.593 125.59C267.341 125.59 267.143 125.512 266.999 125.356C266.855 125.2 266.783 124.984 266.783 124.708V117.526C266.783 117.238 266.855 117.022 266.999 116.878C267.143 116.722 267.341 116.644 267.593 116.644C267.857 116.644 268.061 116.722 268.205 116.878C268.349 117.022 268.421 117.238 268.421 117.526V124.708C268.421 124.984 268.349 125.2 268.205 125.356C268.073 125.512 267.869 125.59 267.593 125.59ZM267.593 114.7C267.269 114.7 267.011 114.616 266.819 114.448C266.639 114.268 266.549 114.034 266.549 113.746C266.549 113.434 266.639 113.2 266.819 113.044C267.011 112.876 267.269 112.792 267.593 112.792C267.941 112.792 268.199 112.876 268.367 113.044C268.547 113.2 268.637 113.434 268.637 113.746C268.637 114.034 268.547 114.268 268.367 114.448C268.199 114.616 267.941 114.7 267.593 114.7ZM274.78 125.662C273.916 125.662 273.166 125.476 272.53 125.104C271.894 124.732 271.402 124.204 271.054 123.52C270.706 122.836 270.532 122.032 270.532 121.108C270.532 120.412 270.628 119.788 270.82 119.236C271.024 118.672 271.312 118.192 271.684 117.796C272.056 117.4 272.5 117.1 273.016 116.896C273.544 116.68 274.132 116.572 274.78 116.572C275.644 116.572 276.394 116.758 277.03 117.13C277.666 117.502 278.158 118.03 278.506 118.714C278.854 119.386 279.028 120.184 279.028 121.108C279.028 121.804 278.926 122.434 278.722 122.998C278.53 123.562 278.248 124.042 277.876 124.438C277.504 124.834 277.054 125.14 276.526 125.356C276.01 125.56 275.428 125.662 274.78 125.662ZM274.78 124.366C275.308 124.366 275.764 124.24 276.148 123.988C276.544 123.736 276.844 123.37 277.048 122.89C277.264 122.41 277.372 121.816 277.372 121.108C277.372 120.052 277.138 119.248 276.67 118.696C276.202 118.144 275.572 117.868 274.78 117.868C274.264 117.868 273.808 117.994 273.412 118.246C273.028 118.486 272.728 118.846 272.512 119.326C272.296 119.806 272.188 120.4 272.188 121.108C272.188 122.164 272.422 122.974 272.89 123.538C273.37 124.09 274 124.366 274.78 124.366ZM281.937 125.626C281.685 125.626 281.487 125.554 281.343 125.41C281.199 125.266 281.127 125.056 281.127 124.78V117.436C281.127 117.16 281.199 116.956 281.343 116.824C281.487 116.68 281.685 116.608 281.937 116.608C282.189 116.608 282.381 116.68 282.513 116.824C282.657 116.956 282.729 117.16 282.729 117.436V118.912L282.531 118.642C282.783 117.958 283.191 117.442 283.755 117.094C284.331 116.746 284.985 116.572 285.717 116.572C286.425 116.572 287.007 116.698 287.463 116.95C287.919 117.202 288.261 117.586 288.489 118.102C288.717 118.618 288.831 119.272 288.831 120.064V124.78C288.831 125.056 288.759 125.266 288.615 125.41C288.483 125.554 288.285 125.626 288.021 125.626C287.757 125.626 287.553 125.554 287.409 125.41C287.265 125.266 287.193 125.056 287.193 124.78V120.154C287.193 119.374 287.043 118.804 286.743 118.444C286.443 118.084 285.963 117.904 285.303 117.904C284.535 117.904 283.917 118.144 283.449 118.624C282.993 119.092 282.765 119.728 282.765 120.532V124.78C282.765 125.344 282.489 125.626 281.937 125.626Z" fill="#212121"/>
<rect y="404" width="252.809" height="72" rx="12" fill="#E3F9E3"/>
<circle cx="40" cy="440" r="24" fill="#009900"/>
<path d="M46.75 436.812H45.0608V432.958C45.0608 430.224 42.7897 428 39.9983 428C37.2068 428 34.9358 430.224 34.9358 432.958V436.812H33.25C31.6992 436.812 30.4375 438.074 30.4375 439.625V449.188C30.4375 450.738 31.6992 452 33.25 452H46.75C48.3008 452 49.5625 450.738 49.5625 449.188V439.625C49.5625 438.074 48.3008 436.812 46.75 436.812ZM36.8108 432.958C36.8108 431.258 38.2407 429.875 39.9983 429.875C41.7558 429.875 43.1858 431.258 43.1858 432.958V436.812H36.8108V432.958ZM47.6875 449.188C47.6875 449.704 47.2669 450.125 46.75 450.125H33.25C32.7331 450.125 32.3125 449.704 32.3125 449.188V439.625C32.3125 439.108 32.7331 438.688 33.25 438.688H46.75C47.2669 438.688 47.6875 439.108 47.6875 439.625V449.188Z" fill="white"/>
<path d="M40 441.406C39.0421 441.406 38.2656 442.183 38.2656 443.141C38.2656 443.752 38.5825 444.29 39.0608 444.598V446.656C39.0608 447.174 39.4805 447.594 39.9983 447.594C40.516 447.594 40.9358 447.174 40.9358 446.656V444.601C41.416 444.292 41.7344 443.754 41.7344 443.141C41.7344 442.183 40.9579 441.406 40 441.406Z" fill="white"/>
<path d="M74.358 445.626C74.094 445.626 73.89 445.554 73.746 445.41C73.602 445.254 73.53 445.038 73.53 444.762V433.548C73.53 433.26 73.602 433.044 73.746 432.9C73.89 432.756 74.094 432.684 74.358 432.684C74.634 432.684 74.844 432.756 74.988 432.9C75.132 433.044 75.204 433.26 75.204 433.548V444.762C75.204 445.038 75.132 445.254 74.988 445.41C74.856 445.554 74.646 445.626 74.358 445.626ZM78.8709 445.626C78.6189 445.626 78.4209 445.554 78.2769 445.41C78.1329 445.266 78.0609 445.056 78.0609 444.78V437.436C78.0609 437.16 78.1329 436.956 78.2769 436.824C78.4209 436.68 78.6189 436.608 78.8709 436.608C79.1229 436.608 79.3149 436.68 79.4469 436.824C79.5909 436.956 79.6629 437.16 79.6629 437.436V438.966L79.4649 438.642C79.6929 437.982 80.0589 437.472 80.5629 437.112C81.0789 436.752 81.6909 436.572 82.3989 436.572C83.1429 436.572 83.7429 436.752 84.1989 437.112C84.6549 437.46 84.9609 437.994 85.1169 438.714H84.8649C85.0809 438.054 85.4649 437.532 86.0169 437.148C86.5809 436.764 87.2349 436.572 87.9789 436.572C88.6389 436.572 89.1789 436.704 89.5989 436.968C90.0309 437.22 90.3549 437.604 90.5709 438.12C90.7869 438.624 90.8949 439.272 90.8949 440.064V444.78C90.8949 445.056 90.8229 445.266 90.6789 445.41C90.5349 445.554 90.3369 445.626 90.0849 445.626C89.8209 445.626 89.6169 445.554 89.4729 445.41C89.3289 445.266 89.2569 445.056 89.2569 444.78V440.136C89.2569 439.368 89.1249 438.804 88.8609 438.444C88.5969 438.084 88.1529 437.904 87.5289 437.904C86.8449 437.904 86.2989 438.144 85.8909 438.624C85.4949 439.092 85.2969 439.74 85.2969 440.568V444.78C85.2969 445.056 85.2249 445.266 85.0809 445.41C84.9489 445.554 84.7509 445.626 84.4869 445.626C84.2229 445.626 84.0189 445.554 83.8749 445.41C83.7309 445.266 83.6589 445.056 83.6589 444.78V440.136C83.6589 439.368 83.5269 438.804 83.2629 438.444C82.9989 438.084 82.5549 437.904 81.9309 437.904C81.2469 437.904 80.7009 438.144 80.2929 438.624C79.8969 439.092 79.6989 439.74 79.6989 440.568V444.78C79.6989 445.344 79.4229 445.626 78.8709 445.626ZM94.3748 445.626C94.1228 445.626 93.9248 445.554 93.7808 445.41C93.6368 445.266 93.5648 445.056 93.5648 444.78V437.436C93.5648 437.16 93.6368 436.956 93.7808 436.824C93.9248 436.68 94.1228 436.608 94.3748 436.608C94.6268 436.608 94.8188 436.68 94.9508 436.824C95.0948 436.956 95.1668 437.16 95.1668 437.436V438.966L94.9688 438.642C95.1968 437.982 95.5628 437.472 96.0668 437.112C96.5828 436.752 97.1948 436.572 97.9028 436.572C98.6468 436.572 99.2468 436.752 99.7028 437.112C100.159 437.46 100.465 437.994 100.621 438.714H100.369C100.585 438.054 100.969 437.532 101.521 437.148C102.085 436.764 102.739 436.572 103.483 436.572C104.143 436.572 104.683 436.704 105.103 436.968C105.535 437.22 105.859 437.604 106.075 438.12C106.291 438.624 106.399 439.272 106.399 440.064V444.78C106.399 445.056 106.327 445.266 106.183 445.41C106.039 445.554 105.841 445.626 105.589 445.626C105.325 445.626 105.121 445.554 104.977 445.41C104.833 445.266 104.761 445.056 104.761 444.78V440.136C104.761 439.368 104.629 438.804 104.365 438.444C104.101 438.084 103.657 437.904 103.033 437.904C102.349 437.904 101.803 438.144 101.395 438.624C100.999 439.092 100.801 439.74 100.801 440.568V444.78C100.801 445.056 100.729 445.266 100.585 445.41C100.453 445.554 100.255 445.626 99.9908 445.626C99.7268 445.626 99.5228 445.554 99.3788 445.41C99.2348 445.266 99.1628 445.056 99.1628 444.78V440.136C99.1628 439.368 99.0308 438.804 98.7668 438.444C98.5028 438.084 98.0588 437.904 97.4348 437.904C96.7508 437.904 96.2048 438.144 95.7968 438.624C95.4008 439.092 95.2028 439.74 95.2028 440.568V444.78C95.2028 445.344 94.9268 445.626 94.3748 445.626ZM112.165 445.662C111.457 445.662 110.863 445.53 110.383 445.266C109.915 445.002 109.567 444.612 109.339 444.096C109.111 443.58 108.997 442.932 108.997 442.152V437.436C108.997 437.16 109.063 436.956 109.195 436.824C109.339 436.68 109.543 436.608 109.807 436.608C110.071 436.608 110.275 436.68 110.419 436.824C110.563 436.956 110.635 437.16 110.635 437.436V442.152C110.635 442.896 110.785 443.448 111.085 443.808C111.385 444.156 111.859 444.33 112.507 444.33C113.227 444.33 113.809 444.09 114.253 443.61C114.709 443.13 114.937 442.494 114.937 441.702V437.436C114.937 437.16 115.003 436.956 115.135 436.824C115.279 436.68 115.483 436.608 115.747 436.608C116.011 436.608 116.215 436.68 116.359 436.824C116.503 436.956 116.575 437.16 116.575 437.436V444.78C116.575 445.344 116.311 445.626 115.783 445.626C115.519 445.626 115.315 445.554 115.171 445.41C115.039 445.266 114.973 445.056 114.973 444.78V443.214L115.207 443.52C114.967 444.216 114.577 444.75 114.037 445.122C113.509 445.482 112.885 445.662 112.165 445.662ZM122.846 445.662C122.138 445.662 121.544 445.536 121.064 445.284C120.596 445.032 120.242 444.666 120.002 444.186C119.774 443.706 119.66 443.118 119.66 442.422V437.994H118.508C118.292 437.994 118.124 437.94 118.004 437.832C117.884 437.712 117.824 437.556 117.824 437.364C117.824 437.16 117.884 437.004 118.004 436.896C118.124 436.788 118.292 436.734 118.508 436.734H119.66V434.772C119.66 434.496 119.732 434.292 119.876 434.16C120.02 434.016 120.224 433.944 120.488 433.944C120.752 433.944 120.95 434.016 121.082 434.16C121.226 434.292 121.298 434.496 121.298 434.772V436.734H123.476C123.704 436.734 123.878 436.788 123.998 436.896C124.118 437.004 124.178 437.16 124.178 437.364C124.178 437.556 124.118 437.712 123.998 437.832C123.878 437.94 123.704 437.994 123.476 437.994H121.298V442.278C121.298 442.938 121.436 443.436 121.712 443.772C121.988 444.108 122.444 444.276 123.08 444.276C123.308 444.276 123.5 444.258 123.656 444.222C123.812 444.174 123.95 444.15 124.07 444.15C124.178 444.138 124.268 444.174 124.34 444.258C124.424 444.342 124.466 444.498 124.466 444.726C124.466 444.894 124.436 445.05 124.376 445.194C124.328 445.326 124.226 445.416 124.07 445.464C123.926 445.512 123.734 445.554 123.494 445.59C123.254 445.638 123.038 445.662 122.846 445.662ZM128.452 445.662C127.852 445.662 127.306 445.542 126.814 445.302C126.334 445.062 125.956 444.738 125.68 444.33C125.416 443.922 125.284 443.466 125.284 442.962C125.284 442.314 125.446 441.804 125.77 441.432C126.094 441.06 126.64 440.796 127.408 440.64C128.176 440.472 129.208 440.388 130.504 440.388H131.35V441.432H130.54C129.616 441.432 128.884 441.474 128.344 441.558C127.816 441.642 127.444 441.792 127.228 442.008C127.012 442.212 126.904 442.5 126.904 442.872C126.904 443.34 127.066 443.724 127.39 444.024C127.726 444.324 128.182 444.474 128.758 444.474C129.214 444.474 129.616 444.366 129.964 444.15C130.312 443.922 130.588 443.622 130.792 443.25C130.996 442.866 131.098 442.428 131.098 441.936V439.866C131.098 439.158 130.954 438.648 130.666 438.336C130.378 438.012 129.892 437.85 129.208 437.85C128.812 437.85 128.404 437.904 127.984 438.012C127.564 438.12 127.126 438.288 126.67 438.516C126.49 438.6 126.334 438.63 126.202 438.606C126.07 438.57 125.962 438.498 125.878 438.39C125.806 438.27 125.764 438.144 125.752 438.012C125.752 437.868 125.782 437.73 125.842 437.598C125.914 437.466 126.034 437.37 126.202 437.31C126.73 437.046 127.252 436.86 127.768 436.752C128.296 436.632 128.788 436.572 129.244 436.572C130.024 436.572 130.666 436.698 131.17 436.95C131.674 437.19 132.052 437.568 132.304 438.084C132.556 438.588 132.682 439.236 132.682 440.028V444.78C132.682 445.056 132.616 445.266 132.484 445.41C132.352 445.554 132.16 445.626 131.908 445.626C131.668 445.626 131.476 445.554 131.332 445.41C131.2 445.266 131.134 445.056 131.134 444.78V443.502H131.296C131.2 443.946 131.02 444.33 130.756 444.654C130.492 444.978 130.162 445.23 129.766 445.41C129.382 445.578 128.944 445.662 128.452 445.662ZM139.849 445.662C139.057 445.662 138.379 445.464 137.815 445.068C137.251 444.672 136.873 444.138 136.681 443.466L136.879 443.196V444.78C136.879 445.056 136.807 445.266 136.663 445.41C136.531 445.554 136.333 445.626 136.069 445.626C135.817 445.626 135.619 445.554 135.475 445.41C135.331 445.266 135.259 445.056 135.259 444.78V433.512C135.259 433.236 135.331 433.032 135.475 432.9C135.619 432.756 135.817 432.684 136.069 432.684C136.333 432.684 136.537 432.756 136.681 432.9C136.825 433.032 136.897 433.236 136.897 433.512V438.714H136.699C136.891 438.066 137.269 437.55 137.833 437.166C138.397 436.77 139.069 436.572 139.849 436.572C140.629 436.572 141.307 436.758 141.883 437.13C142.471 437.49 142.921 438.012 143.233 438.696C143.557 439.368 143.719 440.172 143.719 441.108C143.719 442.032 143.557 442.842 143.233 443.538C142.909 444.222 142.459 444.75 141.883 445.122C141.307 445.482 140.629 445.662 139.849 445.662ZM139.471 444.366C139.987 444.366 140.437 444.24 140.821 443.988C141.217 443.736 141.523 443.37 141.739 442.89C141.955 442.41 142.063 441.816 142.063 441.108C142.063 440.052 141.829 439.248 141.361 438.696C140.893 438.144 140.263 437.868 139.471 437.868C138.943 437.868 138.481 437.994 138.085 438.246C137.701 438.486 137.401 438.846 137.185 439.326C136.981 439.806 136.879 440.4 136.879 441.108C136.879 442.164 137.113 442.974 137.581 443.538C138.049 444.09 138.679 444.366 139.471 444.366ZM148.578 445.662C147.678 445.662 146.994 445.398 146.526 444.87C146.058 444.33 145.824 443.556 145.824 442.548V433.512C145.824 433.236 145.896 433.032 146.04 432.9C146.184 432.756 146.382 432.684 146.634 432.684C146.898 432.684 147.102 432.756 147.246 432.9C147.39 433.032 147.462 433.236 147.462 433.512V442.422C147.462 443.046 147.588 443.514 147.84 443.826C148.104 444.126 148.476 444.276 148.956 444.276C149.064 444.276 149.16 444.276 149.244 444.276C149.328 444.264 149.412 444.252 149.496 444.24C149.628 444.228 149.724 444.264 149.784 444.348C149.844 444.432 149.874 444.6 149.874 444.852C149.874 445.08 149.82 445.26 149.712 445.392C149.616 445.512 149.454 445.59 149.226 445.626C149.118 445.638 149.01 445.644 148.902 445.644C148.794 445.656 148.686 445.662 148.578 445.662ZM155.2 445.662C154.252 445.662 153.436 445.482 152.752 445.122C152.08 444.75 151.558 444.228 151.186 443.556C150.814 442.872 150.628 442.068 150.628 441.144C150.628 440.232 150.808 439.434 151.168 438.75C151.54 438.066 152.044 437.532 152.68 437.148C153.328 436.764 154.066 436.572 154.894 436.572C155.482 436.572 156.01 436.674 156.478 436.878C156.958 437.07 157.366 437.352 157.702 437.724C158.038 438.096 158.29 438.552 158.458 439.092C158.638 439.62 158.728 440.22 158.728 440.892C158.728 441.084 158.668 441.234 158.548 441.342C158.44 441.438 158.278 441.486 158.062 441.486H151.906V440.442H157.648L157.342 440.694C157.342 440.07 157.246 439.542 157.054 439.11C156.874 438.666 156.604 438.33 156.244 438.102C155.896 437.874 155.458 437.76 154.93 437.76C154.354 437.76 153.862 437.898 153.454 438.174C153.046 438.438 152.734 438.816 152.518 439.308C152.302 439.788 152.194 440.346 152.194 440.982V441.09C152.194 442.17 152.452 442.986 152.968 443.538C153.484 444.09 154.228 444.366 155.2 444.366C155.584 444.366 155.974 444.318 156.37 444.222C156.778 444.126 157.168 443.952 157.54 443.7C157.72 443.592 157.882 443.544 158.026 443.556C158.182 443.556 158.308 443.604 158.404 443.7C158.5 443.784 158.56 443.892 158.584 444.024C158.608 444.144 158.59 444.276 158.53 444.42C158.47 444.564 158.356 444.69 158.188 444.798C157.792 445.074 157.318 445.29 156.766 445.446C156.226 445.59 155.704 445.662 155.2 445.662ZM166.575 445.5C166.287 445.5 166.065 445.422 165.909 445.266C165.753 445.11 165.675 444.888 165.675 444.6V433.71C165.675 433.422 165.753 433.2 165.909 433.044C166.065 432.888 166.287 432.81 166.575 432.81H170.841C171.717 432.81 172.461 432.942 173.073 433.206C173.697 433.47 174.171 433.848 174.495 434.34C174.819 434.832 174.981 435.426 174.981 436.122C174.981 436.902 174.753 437.556 174.297 438.084C173.841 438.612 173.217 438.966 172.425 439.146V438.876C173.313 438.984 174.009 439.314 174.513 439.866C175.029 440.406 175.287 441.114 175.287 441.99C175.287 443.118 174.915 443.988 174.171 444.6C173.439 445.2 172.401 445.5 171.057 445.5H166.575ZM167.295 444.186H170.877C171.813 444.186 172.509 444.006 172.965 443.646C173.421 443.274 173.649 442.71 173.649 441.954C173.649 441.198 173.421 440.64 172.965 440.28C172.509 439.92 171.813 439.74 170.877 439.74H167.295V444.186ZM167.295 438.408H170.589C171.501 438.408 172.185 438.228 172.641 437.868C173.109 437.496 173.343 436.962 173.343 436.266C173.343 435.57 173.109 435.042 172.641 434.682C172.185 434.31 171.501 434.124 170.589 434.124H167.295V438.408ZM180.807 445.662C180.099 445.662 179.505 445.53 179.025 445.266C178.557 445.002 178.209 444.612 177.981 444.096C177.753 443.58 177.639 442.932 177.639 442.152V437.436C177.639 437.16 177.705 436.956 177.837 436.824C177.981 436.68 178.185 436.608 178.449 436.608C178.713 436.608 178.917 436.68 179.061 436.824C179.205 436.956 179.277 437.16 179.277 437.436V442.152C179.277 442.896 179.427 443.448 179.727 443.808C180.027 444.156 180.501 444.33 181.149 444.33C181.869 444.33 182.451 444.09 182.895 443.61C183.351 443.13 183.579 442.494 183.579 441.702V437.436C183.579 437.16 183.645 436.956 183.777 436.824C183.921 436.68 184.125 436.608 184.389 436.608C184.653 436.608 184.857 436.68 185.001 436.824C185.145 436.956 185.217 437.16 185.217 437.436V444.78C185.217 445.344 184.953 445.626 184.425 445.626C184.161 445.626 183.957 445.554 183.813 445.41C183.681 445.266 183.615 445.056 183.615 444.78V443.214L183.849 443.52C183.609 444.216 183.219 444.75 182.679 445.122C182.151 445.482 181.527 445.662 180.807 445.662ZM191.651 445.662C190.763 445.662 189.995 445.476 189.347 445.104C188.699 444.72 188.201 444.186 187.853 443.502C187.505 442.806 187.331 441.99 187.331 441.054C187.331 440.358 187.427 439.734 187.619 439.182C187.823 438.63 188.111 438.162 188.483 437.778C188.855 437.382 189.305 437.082 189.833 436.878C190.373 436.674 190.979 436.572 191.651 436.572C192.071 436.572 192.515 436.638 192.983 436.77C193.451 436.902 193.883 437.118 194.279 437.418C194.411 437.514 194.495 437.628 194.531 437.76C194.567 437.88 194.567 438.006 194.531 438.138C194.507 438.27 194.447 438.384 194.351 438.48C194.267 438.564 194.153 438.612 194.009 438.624C193.877 438.636 193.733 438.594 193.577 438.498C193.289 438.282 192.983 438.126 192.659 438.03C192.347 437.934 192.047 437.886 191.759 437.886C191.315 437.886 190.919 437.958 190.571 438.102C190.235 438.246 189.947 438.456 189.707 438.732C189.479 438.996 189.305 439.326 189.185 439.722C189.065 440.106 189.005 440.556 189.005 441.072C189.005 442.092 189.245 442.896 189.725 443.484C190.205 444.06 190.883 444.348 191.759 444.348C192.047 444.348 192.347 444.306 192.659 444.222C192.971 444.126 193.277 443.97 193.577 443.754C193.733 443.658 193.877 443.622 194.009 443.646C194.141 443.658 194.249 443.712 194.333 443.808C194.429 443.892 194.489 444 194.513 444.132C194.537 444.252 194.525 444.378 194.477 444.51C194.441 444.642 194.357 444.75 194.225 444.834C193.841 445.122 193.421 445.332 192.965 445.464C192.509 445.596 192.071 445.662 191.651 445.662ZM197.03 445.626C196.778 445.626 196.58 445.554 196.436 445.41C196.292 445.266 196.22 445.056 196.22 444.78V433.512C196.22 433.236 196.292 433.032 196.436 432.9C196.58 432.756 196.778 432.684 197.03 432.684C197.294 432.684 197.498 432.756 197.642 432.9C197.786 433.032 197.858 433.236 197.858 433.512V440.604H197.894L201.422 437.166C201.602 436.986 201.764 436.848 201.908 436.752C202.052 436.656 202.238 436.608 202.466 436.608C202.694 436.608 202.868 436.668 202.988 436.788C203.108 436.896 203.168 437.04 203.168 437.22C203.168 437.388 203.084 437.556 202.916 437.724L199.172 441.36V440.55L203.258 444.492C203.426 444.66 203.504 444.834 203.492 445.014C203.492 445.194 203.426 445.344 203.294 445.464C203.174 445.572 203.012 445.626 202.808 445.626C202.568 445.626 202.37 445.578 202.214 445.482C202.07 445.386 201.902 445.236 201.71 445.032L197.894 441.432H197.858V444.78C197.858 445.344 197.582 445.626 197.03 445.626ZM209.2 445.662C208.252 445.662 207.436 445.482 206.752 445.122C206.08 444.75 205.558 444.228 205.186 443.556C204.814 442.872 204.628 442.068 204.628 441.144C204.628 440.232 204.808 439.434 205.168 438.75C205.54 438.066 206.044 437.532 206.68 437.148C207.328 436.764 208.066 436.572 208.894 436.572C209.482 436.572 210.01 436.674 210.478 436.878C210.958 437.07 211.366 437.352 211.702 437.724C212.038 438.096 212.29 438.552 212.458 439.092C212.638 439.62 212.728 440.22 212.728 440.892C212.728 441.084 212.668 441.234 212.548 441.342C212.44 441.438 212.278 441.486 212.062 441.486H205.906V440.442H211.648L211.342 440.694C211.342 440.07 211.246 439.542 211.054 439.11C210.874 438.666 210.604 438.33 210.244 438.102C209.896 437.874 209.458 437.76 208.93 437.76C208.354 437.76 207.862 437.898 207.454 438.174C207.046 438.438 206.734 438.816 206.518 439.308C206.302 439.788 206.194 440.346 206.194 440.982V441.09C206.194 442.17 206.452 442.986 206.968 443.538C207.484 444.09 208.228 444.366 209.2 444.366C209.584 444.366 209.974 444.318 210.37 444.222C210.778 444.126 211.168 443.952 211.54 443.7C211.72 443.592 211.882 443.544 212.026 443.556C212.182 443.556 212.308 443.604 212.404 443.7C212.5 443.784 212.56 443.892 212.584 444.024C212.608 444.144 212.59 444.276 212.53 444.42C212.47 444.564 212.356 444.69 212.188 444.798C211.792 445.074 211.318 445.29 210.766 445.446C210.226 445.59 209.704 445.662 209.2 445.662ZM218.384 445.662C217.676 445.662 217.082 445.536 216.602 445.284C216.134 445.032 215.78 444.666 215.54 444.186C215.312 443.706 215.198 443.118 215.198 442.422V437.994H214.046C213.83 437.994 213.662 437.94 213.542 437.832C213.422 437.712 213.362 437.556 213.362 437.364C213.362 437.16 213.422 437.004 213.542 436.896C213.662 436.788 213.83 436.734 214.046 436.734H215.198V434.772C215.198 434.496 215.27 434.292 215.414 434.16C215.558 434.016 215.762 433.944 216.026 433.944C216.29 433.944 216.488 434.016 216.62 434.16C216.764 434.292 216.836 434.496 216.836 434.772V436.734H219.014C219.242 436.734 219.416 436.788 219.536 436.896C219.656 437.004 219.716 437.16 219.716 437.364C219.716 437.556 219.656 437.712 219.536 437.832C219.416 437.94 219.242 437.994 219.014 437.994H216.836V442.278C216.836 442.938 216.974 443.436 217.25 443.772C217.526 444.108 217.982 444.276 218.618 444.276C218.846 444.276 219.038 444.258 219.194 444.222C219.35 444.174 219.488 444.15 219.608 444.15C219.716 444.138 219.806 444.174 219.878 444.258C219.962 444.342 220.004 444.498 220.004 444.726C220.004 444.894 219.974 445.05 219.914 445.194C219.866 445.326 219.764 445.416 219.608 445.464C219.464 445.512 219.272 445.554 219.032 445.59C218.792 445.638 218.576 445.662 218.384 445.662ZM224.223 445.662C223.683 445.662 223.137 445.602 222.585 445.482C222.045 445.35 221.535 445.128 221.055 444.816C220.923 444.732 220.827 444.63 220.767 444.51C220.719 444.378 220.701 444.252 220.713 444.132C220.737 444 220.791 443.886 220.875 443.79C220.959 443.694 221.061 443.64 221.181 443.628C221.313 443.604 221.451 443.634 221.595 443.718C222.063 443.982 222.513 444.168 222.945 444.276C223.389 444.384 223.827 444.438 224.259 444.438C224.919 444.438 225.417 444.318 225.753 444.078C226.089 443.838 226.257 443.52 226.257 443.124C226.257 442.788 226.143 442.53 225.915 442.35C225.699 442.158 225.357 442.014 224.889 441.918L223.215 441.576C222.471 441.408 221.907 441.132 221.523 440.748C221.151 440.352 220.965 439.848 220.965 439.236C220.965 438.696 221.109 438.228 221.397 437.832C221.697 437.424 222.111 437.112 222.639 436.896C223.167 436.68 223.773 436.572 224.457 436.572C224.985 436.572 225.483 436.644 225.951 436.788C226.431 436.92 226.863 437.124 227.247 437.4C227.391 437.484 227.481 437.592 227.517 437.724C227.565 437.844 227.571 437.97 227.535 438.102C227.511 438.222 227.457 438.324 227.373 438.408C227.289 438.492 227.181 438.546 227.049 438.57C226.917 438.582 226.773 438.546 226.617 438.462C226.269 438.222 225.909 438.054 225.537 437.958C225.177 437.85 224.817 437.796 224.457 437.796C223.809 437.796 223.317 437.922 222.981 438.174C222.657 438.426 222.495 438.756 222.495 439.164C222.495 439.476 222.591 439.734 222.783 439.938C222.987 440.142 223.305 440.292 223.737 440.388L225.411 440.73C226.191 440.898 226.779 441.168 227.175 441.54C227.571 441.9 227.769 442.392 227.769 443.016C227.769 443.832 227.445 444.48 226.797 444.96C226.161 445.428 225.303 445.662 224.223 445.662Z" fill="#212121"/>
<rect x="427.676" y="264" width="234.323" height="72" rx="12" fill="#E3F9E3"/>
<circle cx="467.676" cy="300" r="24" fill="#009900"/>
<path d="M475.736 300C475.736 299.933 475.736 299.873 475.736 299.805C475.736 299.738 475.736 299.73 475.736 299.693C475.739 299.66 475.739 299.627 475.736 299.595C475.662 298.173 475.212 296.795 474.432 295.603C473.652 294.411 472.57 293.447 471.297 292.81C470.023 292.172 468.603 291.884 467.181 291.974C465.76 292.065 464.387 292.53 463.204 293.324C462.022 294.117 461.07 295.21 460.447 296.491C459.825 297.772 459.553 299.196 459.659 300.616C459.766 302.037 460.247 303.403 461.054 304.577C461.861 305.751 462.965 306.69 464.253 307.298L464.396 307.358L464.973 307.59L465.243 307.673C465.408 307.725 465.581 307.778 465.753 307.815L466.053 307.89L466.578 307.973L466.863 308.01H467.613H467.673C468.435 308.01 469.193 307.899 469.923 307.68C470.114 307.624 470.275 307.495 470.371 307.321C470.467 307.146 470.489 306.941 470.433 306.75C470.378 306.559 470.248 306.398 470.074 306.302C469.9 306.207 469.694 306.184 469.503 306.24C468.84 306.438 468.148 306.527 467.456 306.503H467.096H466.856L466.511 306.45L466.256 306.398L465.941 306.323L465.663 306.24L465.423 306.158L465.108 306C464.459 305.731 463.858 305.356 463.331 304.89C462.514 304.17 461.889 303.259 461.512 302.237C461.135 301.216 461.018 300.117 461.172 299.039C461.326 297.961 461.745 296.939 462.392 296.063C463.04 295.188 463.895 294.488 464.88 294.025C465.866 293.562 466.951 293.352 468.038 293.413C469.125 293.475 470.18 293.805 471.107 294.376C472.034 294.946 472.805 295.738 473.35 296.681C473.895 297.623 474.197 298.687 474.228 299.775C474.242 300.244 474.075 300.7 473.763 301.05C473.45 301.4 473.016 301.618 472.548 301.658C472.061 301.614 471.611 301.38 471.295 301.006C470.979 300.633 470.823 300.15 470.861 299.663C470.861 299.562 470.84 299.463 470.801 299.37C470.714 298.914 470.529 298.483 470.258 298.106C469.987 297.73 469.637 297.416 469.233 297.189C468.829 296.961 468.38 296.825 467.917 296.789C467.455 296.753 466.99 296.818 466.555 296.98C466.12 297.143 465.726 297.398 465.401 297.728C465.075 298.058 464.825 298.456 464.669 298.893C464.512 299.329 464.453 299.795 464.495 300.257C464.538 300.719 464.68 301.166 464.913 301.568C464.98 301.681 465.076 301.774 465.19 301.839C465.305 301.903 465.434 301.936 465.566 301.935C465.697 301.934 465.826 301.899 465.939 301.833C466.053 301.767 466.147 301.672 466.212 301.558C466.277 301.444 466.312 301.315 466.311 301.184C466.311 301.053 466.276 300.924 466.211 300.81C466.062 300.555 465.984 300.265 465.986 299.97C465.986 299.522 466.164 299.093 466.48 298.777C466.797 298.46 467.226 298.283 467.673 298.283C468.121 298.283 468.55 298.46 468.867 298.777C469.183 299.093 469.361 299.522 469.361 299.97C469.363 300.057 469.381 300.144 469.413 300.225C469.499 301.008 469.862 301.734 470.437 302.272C471.012 302.81 471.761 303.124 472.548 303.158C473.335 303.124 474.084 302.81 474.659 302.272C475.235 301.734 475.598 301.008 475.683 300.225C475.712 300.153 475.73 300.077 475.736 300Z" fill="white"/>
<path d="M465.613 303.57C465.377 303.433 465.153 303.275 464.946 303.098C464.429 302.642 464.035 302.063 463.799 301.416C463.564 300.769 463.494 300.072 463.597 299.391C463.699 298.71 463.971 298.065 464.387 297.516C464.802 296.966 465.349 296.53 465.977 296.246C466.605 295.962 467.294 295.841 467.981 295.892C468.668 295.943 469.332 296.165 469.911 296.538C470.49 296.911 470.966 297.424 471.296 298.029C471.626 298.633 471.8 299.311 471.801 300C471.801 300.199 471.88 300.39 472.02 300.53C472.161 300.671 472.352 300.75 472.551 300.75C472.75 300.75 472.94 300.671 473.081 300.53C473.222 300.39 473.301 300.199 473.301 300C473.296 299.063 473.057 298.142 472.605 297.321C472.154 296.5 471.505 295.804 470.717 295.298C469.928 294.791 469.026 294.49 468.092 294.42C467.157 294.351 466.22 294.516 465.366 294.901C464.511 295.286 463.767 295.878 463.199 296.624C462.632 297.37 462.26 298.245 462.117 299.171C461.974 300.097 462.064 301.044 462.38 301.926C462.696 302.809 463.227 303.598 463.926 304.223C464.206 304.47 464.51 304.689 464.833 304.875C464.919 304.924 465.013 304.956 465.111 304.969C465.209 304.982 465.309 304.975 465.404 304.949C465.5 304.923 465.589 304.879 465.668 304.819C465.746 304.758 465.811 304.683 465.861 304.598C465.91 304.512 465.942 304.417 465.955 304.319C465.967 304.221 465.961 304.122 465.935 304.026C465.909 303.931 465.865 303.842 465.804 303.763C465.744 303.685 465.669 303.619 465.583 303.57H465.613Z" fill="white"/>
<path d="M472.243 304.125C471.231 304.123 470.262 303.72 469.546 303.005C468.831 302.289 468.428 301.319 468.426 300.308C468.426 300.109 468.347 299.918 468.206 299.777C468.065 299.637 467.875 299.558 467.676 299.558C467.477 299.558 467.286 299.637 467.145 299.777C467.005 299.918 466.926 300.109 466.926 300.308C466.928 301.717 467.489 303.069 468.485 304.065C469.482 305.062 470.834 305.623 472.243 305.625C472.442 305.625 472.633 305.546 472.774 305.405C472.914 305.265 472.993 305.074 472.993 304.875C472.993 304.676 472.914 304.485 472.774 304.345C472.633 304.204 472.442 304.125 472.243 304.125Z" fill="white"/>
<path d="M467.673 289.5C467.087 289.498 466.503 289.546 465.925 289.643C465.727 289.675 465.549 289.786 465.431 289.95C465.314 290.114 465.266 290.317 465.299 290.516C465.332 290.715 465.443 290.893 465.606 291.01C465.77 291.128 465.974 291.175 466.173 291.143C466.668 291.054 467.17 291.006 467.673 291C469.3 291 470.896 291.442 472.292 292.277C473.688 293.112 474.832 294.31 475.601 295.744C476.371 297.177 476.737 298.792 476.662 300.417C476.586 302.042 476.072 303.617 475.173 304.973C475.067 305.137 475.029 305.337 475.069 305.529C475.108 305.721 475.221 305.89 475.383 306C475.465 306.055 475.557 306.093 475.654 306.112C475.751 306.131 475.851 306.131 475.948 306.112C476.045 306.092 476.137 306.054 476.219 305.999C476.301 305.943 476.371 305.872 476.425 305.79C477.471 304.208 478.069 302.372 478.155 300.478C478.242 298.583 477.813 296.701 476.916 295.03C476.018 293.36 474.685 291.964 473.057 290.99C471.43 290.016 469.569 289.501 467.673 289.5Z" fill="white"/>
<path d="M463.175 307.8C461.743 306.975 460.566 305.771 459.772 304.321C458.979 302.872 458.601 301.231 458.678 299.58C458.756 297.929 459.286 296.332 460.212 294.962C461.137 293.593 462.422 292.505 463.925 291.818C464.014 291.776 464.095 291.718 464.162 291.645C464.229 291.573 464.282 291.488 464.316 291.395C464.35 291.303 464.365 291.204 464.361 291.105C464.357 291.007 464.334 290.91 464.292 290.82C464.209 290.641 464.058 290.501 463.873 290.433C463.687 290.364 463.482 290.371 463.302 290.453C462.367 290.88 461.5 291.443 460.73 292.125C459.479 293.227 458.509 294.611 457.899 296.162C457.29 297.714 457.058 299.388 457.224 301.046C457.389 302.705 457.948 304.3 458.852 305.7C459.756 307.1 460.981 308.265 462.425 309.098C462.51 309.147 462.605 309.179 462.703 309.192C462.801 309.205 462.901 309.199 462.996 309.173C463.092 309.147 463.181 309.103 463.259 309.042C463.338 308.981 463.403 308.906 463.452 308.82C463.55 308.648 463.576 308.444 463.524 308.253C463.472 308.062 463.346 307.899 463.175 307.8Z" fill="white"/>
<path d="M471.423 308.183C469.543 309.041 467.425 309.229 465.423 308.715C465.23 308.665 465.025 308.694 464.854 308.796C464.682 308.897 464.558 309.062 464.508 309.255C464.458 309.448 464.487 309.653 464.589 309.824C464.69 309.996 464.855 310.12 465.048 310.17C465.906 310.389 466.788 310.5 467.673 310.5C469.182 310.503 470.674 310.178 472.046 309.548C472.135 309.507 472.216 309.449 472.283 309.377C472.35 309.304 472.403 309.22 472.437 309.128C472.472 309.035 472.488 308.937 472.484 308.839C472.481 308.74 472.458 308.643 472.417 308.554C472.376 308.464 472.318 308.384 472.246 308.316C472.174 308.249 472.089 308.197 471.997 308.162C471.905 308.128 471.806 308.112 471.708 308.115C471.61 308.119 471.513 308.142 471.423 308.183Z" fill="white"/>
<path d="M504.82 307L505.117 302.297L501.268 304.934L499.676 302.066L503.822 300L499.676 297.934L501.268 295.066L505.117 297.703L504.82 293H508.015L507.706 297.703L511.555 295.066L513.147 297.934L509.013 300L513.147 302.066L511.555 304.934L507.706 302.297L508.015 307H504.82Z" fill="#212121"/>
<path d="M523.702 307L523.999 302.297L520.15 304.934L518.558 302.066L522.704 300L518.558 297.934L520.15 295.066L523.999 297.703L523.702 293H526.897L526.588 297.703L530.437 295.066L532.029 297.934L527.895 300L532.029 302.066L530.437 304.934L526.588 302.297L526.897 307H523.702Z" fill="#212121"/>
<path d="M542.584 307L542.881 302.297L539.032 304.934L537.44 302.066L541.586 300L537.44 297.934L539.032 295.066L542.881 297.703L542.584 293H545.779L545.471 297.703L549.32 295.066L550.911 297.934L546.777 300L550.911 302.066L549.32 304.934L545.471 302.297L545.779 307H542.584Z" fill="#212121"/>
<path d="M561.466 307L561.763 302.297L557.914 304.934L556.322 302.066L560.468 300L556.322 297.934L557.914 295.066L561.763 297.703L561.466 293H564.662L564.353 297.703L568.202 295.066L569.794 297.934L565.66 300L569.794 302.066L568.202 304.934L564.353 302.297L564.662 307H561.466Z" fill="#212121"/>
<path d="M580.348 307L580.645 302.297L576.796 304.934L575.205 302.066L579.351 300L575.205 297.934L576.796 295.066L580.645 297.703L580.348 293H583.544L583.235 297.703L587.084 295.066L588.676 297.934L584.542 300L588.676 302.066L587.084 304.934L583.235 302.297L583.544 307H580.348Z" fill="#212121"/>
<path d="M580.347 307L580.644 302.297L576.795 304.934L575.203 302.066L579.349 300L575.203 297.934L576.795 295.066L580.644 297.703L580.347 293H583.542L583.234 297.703L587.082 295.066L588.674 297.934L584.54 300L588.674 302.066L587.082 304.934L583.234 302.297L583.542 307H580.347Z" fill="#212121"/>
<path d="M600.348 307L600.645 302.297L596.796 304.934L595.205 302.066L599.351 300L595.205 297.934L596.796 295.066L600.645 297.703L600.348 293H603.544L603.235 297.703L607.084 295.066L608.676 297.934L604.542 300L608.676 302.066L607.084 304.934L603.235 302.297L603.544 307H600.348Z" fill="#212121"/>
<path d="M619.377 307L619.674 302.297L615.825 304.934L614.233 302.066L618.379 300L614.233 297.934L615.825 295.066L619.674 297.703L619.377 293H622.573L622.264 297.703L626.113 295.066L627.705 297.934L623.571 300L627.705 302.066L626.113 304.934L622.264 302.297L622.573 307H619.377Z" fill="#212121"/>
<path d="M637.848 307L638.145 302.297L634.296 304.934L632.705 302.066L636.851 300L632.705 297.934L634.296 295.066L638.145 297.703L637.848 293H641.044L640.735 297.703L644.584 295.066L646.176 297.934L642.042 300L646.176 302.066L644.584 304.934L640.735 302.297L641.044 307H637.848Z" fill="#212121"/>
<defs>
<radialGradient id="paint0_radial_693_8037" cx="0" cy="0" r="1" gradientUnits="userSpaceOnUse" gradientTransform="translate(334.5 299) rotate(-180) scale(296.5 296.48)">
<stop stop-color="#009900"/>
<stop offset="1" stop-color="#3432CA" stop-opacity="0"/>
</radialGradient>
<linearGradient id="paint1_linear_693_8037" x1="330.25" y1="83.0031" x2="330.75" y2="243.003" gradientUnits="userSpaceOnUse">
<stop stop-color="white" stop-opacity="0"/>
<stop offset="1" stop-color="white"/>
</linearGradient>
<linearGradient id="paint2_linear_693_8037" x1="279.789" y1="117.003" x2="280.289" y2="277.003" gradientUnits="userSpaceOnUse">
<stop stop-color="white" stop-opacity="0"/>
<stop offset="1" stop-color="white"/>
</linearGradient>
<linearGradient id="paint3_linear_693_8037" x1="332.75" y1="476" x2="332.75" y2="356" gradientUnits="userSpaceOnUse">
<stop stop-color="white" stop-opacity="0"/>
<stop offset="1" stop-color="white"/>
</linearGradient>
<linearGradient id="paint4_linear_693_8037" x1="251.809" y1="437" x2="331.748" y2="437" gradientUnits="userSpaceOnUse">
<stop stop-color="white" stop-opacity="0"/>
<stop offset="1" stop-color="white"/>
</linearGradient>
<linearGradient id="paint5_linear_693_8037" x1="427.676" y1="299" x2="387.706" y2="299" gradientUnits="userSpaceOnUse">
<stop stop-color="white" stop-opacity="0"/>
<stop offset="1" stop-color="white"/>
</linearGradient>
<clipPath id="clip0_693_8037">
<rect width="39.9698" height="40" fill="white" transform="translate(153.883 238)"/>
</clipPath>
<clipPath id="clip1_693_8037">
<rect width="39.9698" height="40" fill="white" transform="translate(427.68 148)"/>
</clipPath>
<clipPath id="clip2_693_8037">
<rect width="39.9698" height="40" fill="white" transform="translate(387.707 412)"/>
</clipPath>
</defs>
</svg>
