<svg width="48" height="48" viewBox="0 0 48 48" fill="none" xmlns="http://www.w3.org/2000/svg">
<path d="M46.7907 5.81242L46.3663 14.6235C46.3124 15.7 45.4232 16.5447 44.3454 16.5434H44.2039C43.1275 16.4895 42.2827 15.6003 42.2841 14.5225L42.4255 11.5316L30.6639 25.2535C30.2855 25.6843 29.7418 25.9341 29.1684 25.9406C28.5924 25.9843 28.0298 25.7518 27.6528 25.3141L18.0131 15.1085L4.45287 25.4151C4.09753 25.6817 3.66429 25.8237 3.22012 25.8193C2.59466 25.8178 2.00514 25.5268 1.62361 25.0312C0.94499 24.1488 1.10763 22.8839 1.98737 22.2019L17.0431 10.6626C17.8683 10.0282 19.0403 10.1245 19.7511 10.8849L29.0876 20.7873L39.6367 8.48L36.3426 8.98523C35.2592 9.11808 34.266 8.36649 34.0994 7.28767C33.9308 6.18437 34.6885 5.15327 35.7918 4.98464C35.7935 4.98437 35.7953 4.98411 35.797 4.98385L44.5273 3.67026C45.1275 3.58136 45.7359 3.76685 46.1844 4.17549C46.6239 4.60122 46.8468 5.20313 46.7907 5.81242ZM44.2039 40.3091H42.183V26.0214C42.183 24.9053 41.2782 24.0005 40.1621 24.0005C39.046 24.0005 38.1412 24.9053 38.1412 26.0214V40.3091H31.1893V34.105C31.1893 32.9889 30.2846 32.0841 29.1684 32.0841C28.0523 32.0841 27.1476 32.9889 27.1476 34.105V40.3091H20.2967V26.0214C20.2967 24.9053 19.3919 24.0005 18.2758 24.0005C17.1597 24.0005 16.2549 24.9053 16.2549 26.0214V40.3091H9.40407V32.0841C9.40407 30.968 8.49928 30.0632 7.38317 30.0632C6.26705 30.0632 5.36227 30.968 5.36227 32.0841V40.3091H3.22012C2.10401 40.3091 1.19922 41.2139 1.19922 42.33C1.19922 43.4462 2.10401 44.3509 3.22012 44.3509H44.2039C45.32 44.3509 46.2248 43.4462 46.2248 42.33C46.2248 41.2139 45.32 40.3091 44.2039 40.3091Z" fill="#009900"/>
</svg>
