<svg width="32" height="32" viewBox="0 0 32 32" fill="none" xmlns="http://www.w3.org/2000/svg">
<path d="M11.3467 28.2925C11.4336 28.3164 11.5205 28.3276 11.6074 28.3276C12.0479 28.3276 12.4521 28.0337 12.5723 27.5874C12.7158 27.0542 12.4004 26.5054 11.8662 26.3618C7.23535 25.1133 4 20.8833 4 16.0752C4 10.1997 8.78027 5.41992 14.6553 5.41992C20.4736 5.41992 25.2539 10.1519 25.3105 15.9683C25.3164 16.5171 25.7627 16.9585 26.3105 16.9585H26.3203C26.873 16.9531 27.3154 16.501 27.3105 15.9487C27.2432 9.04053 21.5654 3.41992 14.6553 3.41992C7.67676 3.41992 2 9.09717 2 16.0752C2 21.7856 5.84375 26.8096 11.3467 28.2925Z" fill="#009900"/>
<path d="M14.6553 24.3594C15.208 24.3594 15.6553 23.9116 15.6553 23.3594V22.6909C17.3096 22.2466 18.5371 20.7488 18.5371 18.9561C18.5371 18.6743 18.5088 18.4058 18.4502 18.1372C18.0684 16.3623 16.4727 15.0742 14.6553 15.0742C13.7744 15.0742 13 14.4502 12.8154 13.5938C12.7871 13.4614 12.7734 13.3301 12.7734 13.1924C12.7734 12.1548 13.6172 11.3105 14.6553 11.3105C15.6934 11.3105 16.5371 12.1548 16.5371 13.1924C16.5371 13.3301 16.5234 13.46 16.4951 13.5889C16.3779 14.1284 16.7207 14.6611 17.2607 14.7783C17.7969 14.897 18.332 14.5537 18.4502 14.0137C18.5088 13.7432 18.5371 13.4746 18.5371 13.1924C18.5371 11.3997 17.3096 9.90179 15.6553 9.45752V8.78906C15.6553 8.23682 15.208 7.78906 14.6553 7.78906C14.1025 7.78906 13.6553 8.23682 13.6553 8.78906V9.45752C12.0009 9.90179 10.7734 11.3997 10.7734 13.1924C10.7734 13.4717 10.8018 13.7388 10.8594 14.0122C11.2422 15.7866 12.8389 17.0742 14.6553 17.0742C15.5361 17.0742 16.3105 17.6978 16.4951 18.5591C16.5234 18.6885 16.5371 18.8184 16.5371 18.9561C16.5371 19.9937 15.6934 20.8379 14.6553 20.8379C13.6172 20.8379 12.7734 19.9937 12.7734 18.9561C12.7734 18.8184 12.7871 18.687 12.8154 18.5542C12.9297 18.0142 12.584 17.4834 12.0439 17.3687C11.5088 17.2583 10.9727 17.6001 10.8584 18.1401C10.8018 18.4106 10.7734 18.6777 10.7734 18.9561C10.7734 20.7488 12.0009 22.2466 13.6553 22.6909V23.3594C13.6553 23.9116 14.1025 24.3594 14.6553 24.3594Z" fill="#009900"/>
<path d="M20.4912 22.2769C20.3037 22.0894 20.0498 21.9839 19.7842 21.9839C19.5186 21.9839 19.2646 22.0894 19.0771 22.2769L14.4805 26.8736C14.0898 27.2642 14.0898 27.897 14.4805 28.2877C14.6758 28.483 14.9316 28.5806 15.1875 28.5806C15.4434 28.5806 15.6992 28.483 15.8945 28.2877L19.7842 24.398L21.9658 26.5801C22.1533 26.7676 22.4072 26.8731 22.6729 26.8731C22.9385 26.8731 23.1924 26.7676 23.3799 26.5801L26.9306 23.0291L26.9303 23.9948C26.9301 24.9173 28.0454 25.3795 28.6978 24.7272C28.8919 24.533 29.001 24.2697 29.001 23.9951V20.5803C29.001 20.0084 28.5375 19.5449 27.9656 19.5449H24.5508C24.2762 19.5449 24.0129 19.654 23.8187 19.8481C23.1664 20.5005 23.6286 21.6158 24.5511 21.6155L25.5161 21.6153L22.6729 24.4586L20.4912 22.2769Z" fill="#009900"/>
</svg>
