<svg width="32" height="32" viewBox="0 0 32 32" fill="none" xmlns="http://www.w3.org/2000/svg">
<path d="M16.0351 4.95697C19.0172 5.94459 22.0782 7.1075 24.6956 8.12256C24.8775 9.31391 25.1269 11.3572 25.1747 13.8273C25.2168 16.6409 24.9842 18.1929 24.881 18.734C24.6651 19.4793 24.2119 20.2891 23.5342 21.1406C22.7305 22.1495 21.6362 23.1986 20.2818 24.2579C20.2807 24.2584 20.2797 24.2594 20.2792 24.2599C18.3543 25.7708 16.5721 26.7447 16.0351 27.0252C15.4981 26.7452 13.7179 25.7734 11.7939 24.2635L11.7914 24.2614C10.4375 23.2027 9.34367 22.1541 8.54148 21.1456C7.89779 20.3363 7.45681 19.5641 7.22921 18.8503C7.22312 18.8264 7.21651 18.8026 7.20889 18.7782C7.10728 18.4342 6.78061 17.0488 6.82989 13.6388C6.88375 11.4665 7.0829 9.52576 7.39382 8.10935C10.0031 7.09886 13.0549 5.94104 16.0351 4.95646M16.0351 3C15.8821 3 15.7287 3.02439 15.5799 3.07367C12.6581 4.03386 9.6612 5.16018 6.61347 6.34086C6.20348 6.49988 5.85954 6.79404 5.636 7.1517C5.65328 7.15373 5.00959 9.16302 4.89985 13.6007C4.83482 18.039 5.38757 19.3685 5.36928 19.37C5.66852 20.3455 6.22838 21.3377 7.03057 22.3466C7.92726 23.4735 9.13893 24.6374 10.6026 25.7815C13.0254 27.6831 15.2928 28.8196 15.3878 28.8597C15.5931 28.9603 15.811 29.0111 16.0356 29.0111H16.0361C16.2611 29.0111 16.4791 28.9598 16.6843 28.8587C16.7798 28.8185 19.0498 27.6785 21.4716 25.7774C22.9357 24.6323 24.1474 23.4684 25.0446 22.3421C25.9042 21.2615 26.4854 20.2012 26.7664 19.1597C26.7552 19.1582 27.1616 17.5284 27.1052 13.7938C27.0336 10.0597 26.5134 7.30563 26.5205 7.30309C26.304 6.88091 25.9245 6.52782 25.4602 6.34747C22.412 5.16628 19.4145 4.03792 16.4923 3.07468C16.3424 3.0254 16.189 3.00051 16.0356 3.00051L16.0351 3Z" fill="#009900"/>
<path d="M16.0349 20.9335C15.478 20.9335 14.9548 20.7171 14.5615 20.3233C14.1678 19.9296 13.9509 19.4063 13.9509 18.85V17.2228C13.0994 16.5852 12.5904 15.5864 12.5898 14.4946C12.5898 12.6123 14.1211 11.0806 16.0034 11.0801C16.9153 11.0801 17.7729 11.4352 18.4176 12.0799C19.0623 12.7246 19.4179 13.5822 19.4179 14.4941C19.4179 15.5523 18.9317 16.5344 18.1183 17.175V18.85C18.1183 19.4068 17.9019 19.9301 17.5082 20.3233C17.1144 20.7171 16.5912 20.9335 16.0349 20.934V20.9335ZM16.0039 13.0101C15.1859 13.0101 14.5204 13.6756 14.5204 14.4936C14.5204 15.0606 14.8364 15.5701 15.3454 15.8231C15.6736 15.9862 15.8809 16.321 15.8809 16.6873V18.8495C15.8809 18.9339 15.95 19.0029 16.0343 19.0029C16.0867 19.0029 16.1222 18.9786 16.1426 18.9582C16.1629 18.9379 16.1873 18.9024 16.1873 18.85V16.6568C16.1873 16.3002 16.3839 15.9725 16.6989 15.8048C17.1851 15.5457 17.4873 15.0438 17.4868 14.4941C17.4868 14.0978 17.3324 13.7254 17.0525 13.445C16.772 13.1651 16.3996 13.0106 16.0034 13.0106L16.0039 13.0101Z" fill="#009900"/>
</svg>
