<svg width="32" height="32" viewBox="0 0 32 32" fill="none" xmlns="http://www.w3.org/2000/svg">
<path d="M12.0023 2.99609C7.04342 2.99611 3.00391 7.04343 3.00391 12.0023C3.00391 16.9612 7.04342 21.0007 12.0023 21.0007C12.3391 21.0007 12.6712 20.9822 12.9984 20.946V25.6669C12.9984 27.4963 14.507 28.9971 16.3365 28.9971H25.6668C27.4963 28.9971 29.0029 27.4963 29.0029 25.6669V16.3365C29.0029 14.507 27.4963 12.9984 25.6668 12.9984H20.946C20.9838 12.6713 21.0008 12.3389 21.0008 12.0023C21.0008 7.04341 16.9612 2.99609 12.0023 2.99609ZM12.0023 4.99617C15.8803 4.99616 19.0006 8.12433 19.0006 12.0023C19.0006 12.3407 18.9779 12.6732 18.9303 12.9984H16.3365C14.507 12.9984 12.9984 14.507 12.9984 16.3365V18.9303C12.673 18.9763 12.3407 19.0006 12.0023 19.0006C8.12433 19.0006 5.00401 15.8803 5.00401 12.0023C5.00401 8.12432 8.12433 4.99618 12.0023 4.99617ZM16.2661 15.0005C16.2888 14.9993 16.313 15.0005 16.3365 15.0005H18.3326C17.6423 16.4619 16.4601 17.6426 14.9984 18.3326V16.3365C14.9984 15.6041 15.5448 15.0352 16.2661 15.0005ZM20.487 15.0005H25.6668C26.4228 15.0005 27.0029 15.5805 27.0029 16.3365V25.6669C27.0029 26.4229 26.4228 27.0029 25.6668 27.0029H16.3365C15.5804 27.0029 14.9984 26.4229 14.9984 25.6669V20.487C17.5519 19.5814 19.5811 17.5539 20.487 15.0005Z" fill="#009900"/>
</svg>
