<svg width="48" height="48" viewBox="0 0 48 48" fill="none" xmlns="http://www.w3.org/2000/svg">
<path d="M42.4129 26.4127C41.9962 26.1594 41.6518 25.803 41.4128 25.378C41.1738 24.953 41.0483 24.4736 41.0483 23.986C41.0483 23.4984 41.1738 23.019 41.4128 22.594C41.6518 22.169 41.9962 21.8127 42.4129 21.5593C43.3571 21.005 44.0428 20.0987 44.3195 19.0393C44.4794 18.5179 44.5335 17.9697 44.4785 17.427C44.4236 16.8844 44.2607 16.3582 43.9995 15.8793L41.0129 10.7993C40.4536 9.84028 39.5384 9.1407 38.4662 8.85268C37.4855 8.58786 36.4417 8.69224 35.5329 9.14602C35.062 9.44338 34.5164 9.6012 33.9595 9.6012C33.4026 9.6012 32.8571 9.44338 32.3862 9.14602C31.9851 8.91448 31.6512 8.58247 31.4174 8.18269C31.1836 7.7829 31.058 7.32912 31.0529 6.86602C31.053 5.76356 30.6197 4.70526 29.8464 3.91949C29.0731 3.13373 28.0218 2.68351 26.9195 2.66602H21.0795C20.0017 2.66821 18.966 3.08468 18.1867 3.82923C17.4074 4.57378 16.9442 5.58943 16.8929 6.66602C16.9098 7.2122 16.7724 7.7521 16.4965 8.22377C16.2206 8.69544 15.8173 9.07977 15.3329 9.33268C14.9275 9.56673 14.4676 9.68995 13.9995 9.68995C13.5314 9.68995 13.0716 9.56673 12.6662 9.33268C12.1916 9.05562 11.6663 8.87631 11.1213 8.80533C10.5763 8.73434 10.0226 8.77311 9.49286 8.91935C8.44669 9.20047 7.549 9.87374 6.98619 10.7993L3.99953 15.8793C3.45095 16.8335 3.30149 17.9657 3.58367 19.0295C3.86586 20.0933 4.55684 21.0026 5.50619 21.5593C5.94412 21.8102 6.30188 22.1801 6.5379 22.6262C6.77392 23.0723 6.87852 23.5762 6.83953 24.0793C6.84375 24.5515 6.72254 25.0163 6.48828 25.4263C6.25402 25.8362 5.91511 26.1766 5.50619 26.4127C4.55232 26.9721 3.8585 27.8862 3.57622 28.9554C3.29393 30.0245 3.44611 31.162 3.99953 32.1194L6.93286 37.1993C7.46822 38.1201 8.33339 38.8031 9.35327 39.11C10.3732 39.417 11.4716 39.325 12.4262 38.8527C12.8933 38.5518 13.4372 38.3918 13.9929 38.3918C14.5485 38.3918 15.0924 38.5518 15.5595 38.8527C15.9626 39.0854 16.2977 39.4195 16.5316 39.8218C16.7655 40.2241 16.89 40.6806 16.8929 41.146C16.8964 42.2553 17.3386 43.3182 18.123 44.1026C18.9074 44.8869 19.9702 45.3292 21.0795 45.3327H26.9195C27.9864 45.3314 29.0129 44.9242 29.7905 44.1937C30.568 43.4632 31.0385 42.4641 31.1062 41.3993C31.0893 40.8532 31.2266 40.3133 31.5026 39.8416C31.7785 39.3699 32.1818 38.9856 32.6662 38.7327C33.0716 38.4986 33.5314 38.3754 33.9995 38.3754C34.4676 38.3754 34.9275 38.4986 35.3329 38.7327C35.8075 39.0098 36.3328 39.1891 36.8778 39.26C37.4227 39.331 37.9764 39.2923 38.5062 39.146C39.5784 38.858 40.4936 38.1584 41.0529 37.1993L43.9995 32.1327C44.5452 31.169 44.6934 30.0306 44.4129 28.9593C44.2639 28.4239 44.0105 27.9233 43.6673 27.4862C43.324 27.0491 42.8977 26.6843 42.4129 26.4127ZM41.4795 30.666L38.5462 35.7327C38.4588 35.8857 38.3419 36.0199 38.2023 36.1274C38.0627 36.235 37.9031 36.3138 37.7329 36.3594C37.5586 36.4066 37.3766 36.4179 37.1978 36.3927C37.019 36.3675 36.8473 36.3063 36.6929 36.2127C35.8501 35.7246 34.8934 35.4675 33.9195 35.4675C32.9456 35.4675 31.9889 35.7246 31.1462 36.2127C30.2828 36.7049 29.5628 37.414 29.0577 38.27C28.5526 39.1259 28.2797 40.0989 28.2662 41.0927C28.2662 41.4463 28.1257 41.7854 27.8757 42.0355C27.6256 42.2855 27.2865 42.426 26.9329 42.426H21.0795C20.7259 42.426 20.3868 42.2855 20.1367 42.0355C19.8867 41.7854 19.7462 41.4463 19.7462 41.0927C19.7446 40.1216 19.4875 39.1681 19.0006 38.3279C18.5138 37.4877 17.8145 36.7904 16.9729 36.306C16.1139 35.8012 15.138 35.5295 14.1417 35.5178C13.1455 35.5061 12.1634 35.7548 11.2929 36.2393C11.1407 36.3275 10.9726 36.3847 10.7982 36.4076C10.6238 36.4305 10.4466 36.4187 10.2769 36.3728C10.1071 36.327 9.94803 36.248 9.8089 36.1404C9.66977 36.0328 9.5533 35.8988 9.46619 35.746L6.51953 30.666C6.43175 30.5142 6.37479 30.3465 6.35191 30.1726C6.32903 29.9987 6.34068 29.8221 6.38619 29.6527C6.43171 29.4824 6.51053 29.3229 6.6181 29.1833C6.72566 29.0437 6.85984 28.9268 7.01286 28.8393C7.855 28.3333 8.55185 27.6179 9.03564 26.7628C9.51942 25.9076 9.77368 24.9418 9.77368 23.9593C9.77368 22.9768 9.51942 22.0111 9.03564 21.1559C8.55185 20.3008 7.855 19.5854 7.01286 19.0793C6.85984 18.9919 6.72566 18.875 6.6181 18.7354C6.51053 18.5958 6.43171 18.4363 6.38619 18.266C6.34068 18.0966 6.32903 17.92 6.35191 17.7461C6.37479 17.5722 6.43175 17.4045 6.51953 17.2527L9.45286 12.186C9.6373 11.8921 9.92907 11.6816 10.2662 11.5993C10.4404 11.5521 10.6225 11.5408 10.8012 11.566C10.98 11.5912 11.1518 11.6524 11.3062 11.746C12.1489 12.2341 13.1056 12.4912 14.0795 12.4912C15.0534 12.4912 16.0101 12.2341 16.8529 11.746C17.7182 11.2527 18.4394 10.5414 18.9446 9.68296C19.4499 8.82449 19.7216 7.84873 19.7329 6.85268C19.7329 6.49906 19.8733 6.15992 20.1234 5.90987C20.3734 5.65982 20.7126 5.51935 21.0662 5.51935H26.9062C27.2598 5.51935 27.599 5.65982 27.849 5.90987C28.099 6.15992 28.2395 6.49906 28.2395 6.85268C28.2425 7.82346 28.5002 8.77646 28.9869 9.61644C29.4735 10.4564 30.1721 11.154 31.0129 11.6393C31.8693 12.1443 32.8431 12.4161 33.8373 12.4278C34.8315 12.4395 35.8114 12.1907 36.6795 11.706C36.8323 11.6158 37.0015 11.5569 37.1772 11.5328C37.353 11.5088 37.5318 11.5201 37.7032 11.566C37.8746 11.612 38.035 11.6917 38.1752 11.8004C38.3154 11.9092 38.4324 12.0448 38.5195 12.1993L41.4529 17.266C41.541 17.4182 41.5982 17.5863 41.6211 17.7607C41.644 17.9351 41.6322 18.1122 41.5864 18.282C41.5405 18.4518 41.4615 18.6108 41.3539 18.75C41.2463 18.8891 41.1123 19.0056 40.9595 19.0927C40.1174 19.5987 39.4205 20.3141 38.9367 21.1693C38.453 22.0244 38.1987 22.9902 38.1987 23.9727C38.1987 24.9552 38.453 25.921 38.9367 26.7761C39.4205 27.6312 40.1174 28.3466 40.9595 28.8527C41.1125 28.9401 41.2467 29.057 41.3543 29.1966C41.4618 29.3362 41.5407 29.4958 41.5862 29.666C41.6825 30.0005 41.6442 30.3594 41.4795 30.666Z" fill="#009900"/>
<path d="M26.2133 21.334L24 22.414L21.7867 21.334C21.6179 21.2325 21.4299 21.1671 21.2346 21.1419C21.0393 21.1166 20.8409 21.1321 20.6519 21.1873C20.4629 21.2424 20.2873 21.3362 20.1363 21.4625C19.9852 21.5889 19.862 21.7451 19.7743 21.9214C19.6866 22.0977 19.6363 22.2903 19.6267 22.487C19.6171 22.6837 19.6483 22.8802 19.7183 23.0643C19.7884 23.2483 19.8957 23.4158 20.0337 23.5563C20.1717 23.6969 20.3373 23.8073 20.52 23.8807L22.5733 24.9073V26.8673C22.5733 27.2457 22.7236 27.6086 22.9912 27.8761C23.2587 28.1437 23.6216 28.294 24 28.294C24.3784 28.294 24.7412 28.1437 25.0088 27.8761C25.2763 27.6086 25.4267 27.2457 25.4267 26.8673V24.8807L27.48 23.854C27.6756 23.7905 27.8551 23.6855 28.0063 23.5462C28.1576 23.4069 28.2769 23.2365 28.3561 23.0468C28.4354 22.8571 28.4727 22.6525 28.4655 22.447C28.4582 22.2415 28.4067 22.04 28.3144 21.8563C28.222 21.6725 28.0911 21.511 27.9304 21.3826C27.7698 21.2542 27.5834 21.162 27.3838 21.1124C27.1843 21.0628 26.9764 21.057 26.7743 21.0952C26.5723 21.1334 26.3809 21.2149 26.2133 21.334Z" fill="#009900"/>
<path d="M30.8124 15.694L26.5457 13.5607C25.7547 13.1663 24.8829 12.9609 23.9991 12.9609C23.1152 12.9609 22.2434 13.1663 21.4524 13.5607L17.1857 15.694C16.24 16.1636 15.4444 16.888 14.8884 17.7855C14.3324 18.6831 14.0382 19.7182 14.0391 20.774V27.334C14.0472 28.4116 14.361 29.4648 14.9439 30.3712C15.5269 31.2775 16.3552 31.9998 17.3324 32.454L21.5991 34.5074C22.3487 34.8666 23.1678 35.0577 23.9991 35.0674C24.8487 35.0692 25.6877 34.8777 26.4524 34.5074L30.7324 32.454C31.6972 31.9902 32.5116 31.2639 33.0824 30.3583C33.6531 29.4526 33.9569 28.4045 33.9591 27.334V20.774C33.9599 19.7182 33.6657 18.6831 33.1098 17.7855C32.5538 16.888 31.7581 16.1636 30.8124 15.694ZM31.1057 27.334C31.1071 27.8698 30.9561 28.3948 30.6705 28.8481C30.3848 29.3013 29.9763 29.6641 29.4924 29.894L25.2257 32.0007C24.8431 32.185 24.4238 32.2807 23.9991 32.2807C23.5743 32.2807 23.1551 32.185 22.7724 32.0007L18.5057 29.9474C18.0219 29.7174 17.6133 29.3547 17.3277 28.9014C17.042 28.4482 16.8911 27.9231 16.8924 27.3874V20.774C16.8925 20.2471 17.0398 19.7306 17.3178 19.283C17.5958 18.8354 17.9934 18.4743 18.4657 18.2407C19.7991 17.6007 21.5324 16.694 22.7324 16.1074C23.1243 15.9061 23.5585 15.8012 23.9991 15.8012C24.4396 15.8012 24.8738 15.9061 25.2657 16.1074C26.4657 16.694 28.2524 17.6007 29.5324 18.2407C30.0047 18.4743 30.4023 18.8354 30.6803 19.283C30.9583 19.7306 31.1057 20.2471 31.1057 20.774V27.334Z" fill="#009900"/>
</svg>
