<svg width="538" height="274" viewBox="0 0 538 274" fill="none" xmlns="http://www.w3.org/2000/svg">
<rect x="0.5" y="0.5" width="196" height="109" rx="15.5" fill="white" stroke="#909090"/>
<g clip-path="url(#clip0_2210_5895)">
<mask id="mask0_2210_5895" style="mask-type:luminance" maskUnits="userSpaceOnUse" x="141" y="53" width="40" height="41">
<path d="M141 53.9981H181V93.998H141V53.9981Z" fill="white"/>
</mask>
<g mask="url(#mask0_2210_5895)">
<path d="M175.141 61.0293H165.766C165.118 61.0293 164.594 60.5052 164.594 59.8574C164.594 59.2097 165.118 58.6855 165.766 58.6855H175.141C175.788 58.6855 176.312 59.2097 176.312 59.8574C176.312 60.5052 175.788 61.0293 175.141 61.0293ZM156.234 61.0293C155.587 61.0293 155.062 60.5046 155.062 59.8574C155.062 59.2101 155.587 58.6855 156.234 58.6855C156.882 58.6855 157.406 59.2101 157.406 59.8574C157.406 60.5046 156.882 61.0293 156.234 61.0293ZM151.547 61.0293C150.9 61.0293 150.375 60.5046 150.375 59.8574C150.375 59.2101 150.9 58.6855 151.547 58.6855C152.194 58.6855 152.719 59.2101 152.719 59.8574C152.719 60.5046 152.194 61.0293 151.547 61.0293ZM146.859 61.0293C146.212 61.0293 145.687 60.5046 145.687 59.8574C145.687 59.2101 146.212 58.6855 146.859 58.6855C147.507 58.6855 148.031 59.2101 148.031 59.8574C148.031 60.5046 147.507 61.0293 146.859 61.0293ZM177.484 53.998H144.516C142.577 53.998 141 55.5751 141 57.5137V62.2012C141 64.1398 142.577 65.7168 144.516 65.7168H177.484C179.423 65.7168 181 64.1398 181 62.2012V57.5137C181 55.5751 179.423 53.998 177.484 53.998Z" fill="#212121"/>
<path d="M175.141 75.1699H165.766C165.118 75.1699 164.594 74.6458 164.594 73.998C164.594 73.3503 165.118 72.8262 165.766 72.8262H175.141C175.788 72.8262 176.312 73.3503 176.312 73.998C176.312 74.6458 175.788 75.1699 175.141 75.1699ZM156.234 75.1699C155.587 75.1699 155.062 74.6452 155.062 73.998C155.062 73.3507 155.587 72.8262 156.234 72.8262C156.882 72.8262 157.406 73.3507 157.406 73.998C157.406 74.6452 156.882 75.1699 156.234 75.1699ZM151.547 75.1699C150.9 75.1699 150.375 74.6452 150.375 73.998C150.375 73.3507 150.9 72.8262 151.547 72.8262C152.194 72.8262 152.719 73.3507 152.719 73.998C152.719 74.6452 152.194 75.1699 151.547 75.1699ZM146.859 75.1699C146.212 75.1699 145.687 74.6452 145.687 73.998C145.687 73.3507 146.212 72.8262 146.859 72.8262C147.507 72.8262 148.031 73.3507 148.031 73.998C148.031 74.6452 147.507 75.1699 146.859 75.1699ZM177.484 68.1387H144.516C142.577 68.1387 141 69.7157 141 71.6543V76.3418C141 78.2804 142.577 79.8574 144.516 79.8574H177.484C179.423 79.8574 181 78.2804 181 76.3418V71.6543C181 69.7157 179.423 68.1387 177.484 68.1387Z" fill="#212121"/>
<path d="M175.141 89.3105H165.766C165.118 89.3105 164.594 88.7864 164.594 88.1387C164.594 87.4909 165.118 86.9668 165.766 86.9668H175.141C175.788 86.9668 176.312 87.4909 176.312 88.1387C176.312 88.7864 175.788 89.3105 175.141 89.3105ZM156.234 89.3105C155.587 89.3105 155.062 88.7859 155.062 88.1387C155.062 87.4913 155.587 86.9668 156.234 86.9668C156.882 86.9668 157.406 87.4913 157.406 88.1387C157.406 88.7859 156.882 89.3105 156.234 89.3105ZM151.547 89.3105C150.9 89.3105 150.375 88.7859 150.375 88.1387C150.375 87.4913 150.9 86.9668 151.547 86.9668C152.194 86.9668 152.719 87.4913 152.719 88.1387C152.719 88.7859 152.194 89.3105 151.547 89.3105ZM146.859 89.3105C146.212 89.3105 145.687 88.7859 145.687 88.1387C145.687 87.4913 146.212 86.9668 146.859 86.9668C147.507 86.9668 148.031 87.4913 148.031 88.1387C148.031 88.7859 147.507 89.3105 146.859 89.3105ZM177.484 82.2793H144.516C142.577 82.2793 141 83.8563 141 85.7949V90.4824C141 92.421 142.577 93.998 144.516 93.998H177.484C179.423 93.998 181 92.421 181 90.4824V85.7949C181 83.8563 179.423 82.2793 177.484 82.2793Z" fill="#212121"/>
</g>
</g>
<rect x="8" y="8" width="56" height="25" rx="12.5" fill="#3432CA"/>
<path d="M21.1186 26V15.8182H22.6548V20.2429H27.7308V15.8182H29.272V26H27.7308V21.5604H22.6548V26H21.1186ZM34.6065 26.1541C33.8906 26.1541 33.2659 25.9901 32.7322 25.6619C32.1986 25.3338 31.7843 24.8748 31.4893 24.2848C31.1944 23.6948 31.0469 23.0054 31.0469 22.2166C31.0469 21.4245 31.1944 20.7318 31.4893 20.1385C31.7843 19.5452 32.1986 19.0845 32.7322 18.7564C33.2659 18.4283 33.8906 18.2642 34.6065 18.2642C35.3224 18.2642 35.9472 18.4283 36.4808 18.7564C37.0144 19.0845 37.4287 19.5452 37.7237 20.1385C38.0187 20.7318 38.1662 21.4245 38.1662 22.2166C38.1662 23.0054 38.0187 23.6948 37.7237 24.2848C37.4287 24.8748 37.0144 25.3338 36.4808 25.6619C35.9472 25.9901 35.3224 26.1541 34.6065 26.1541ZM34.6115 24.9062C35.0755 24.9062 35.46 24.7836 35.7649 24.5384C36.0698 24.2931 36.2952 23.9666 36.4411 23.5589C36.5902 23.1513 36.6648 22.7022 36.6648 22.2116C36.6648 21.7244 36.5902 21.277 36.4411 20.8693C36.2952 20.4583 36.0698 20.1286 35.7649 19.88C35.46 19.6314 35.0755 19.5071 34.6115 19.5071C34.1442 19.5071 33.7564 19.6314 33.4482 19.88C33.1432 20.1286 32.9162 20.4583 32.767 20.8693C32.6212 21.277 32.5483 21.7244 32.5483 22.2116C32.5483 22.7022 32.6212 23.1513 32.767 23.5589C32.9162 23.9666 33.1432 24.2931 33.4482 24.5384C33.7564 24.7836 34.1442 24.9062 34.6115 24.9062ZM45.5478 20.228L44.2005 20.4666C44.1441 20.2943 44.0546 20.1302 43.932 19.9744C43.8127 19.8187 43.6503 19.6911 43.4448 19.5916C43.2393 19.4922 42.9824 19.4425 42.6742 19.4425C42.2533 19.4425 41.9019 19.5369 41.6202 19.7259C41.3385 19.9115 41.1976 20.1518 41.1976 20.4467C41.1976 20.7019 41.2921 20.9074 41.481 21.0632C41.6699 21.219 41.9748 21.3466 42.3958 21.446L43.6088 21.7244C44.3115 21.8868 44.8352 22.1371 45.1799 22.4751C45.5246 22.8132 45.6969 23.2524 45.6969 23.7926C45.6969 24.25 45.5643 24.6577 45.2992 25.0156C45.0373 25.3703 44.6711 25.6487 44.2005 25.8509C43.7331 26.053 43.1912 26.1541 42.5748 26.1541C41.7196 26.1541 41.022 25.9718 40.4817 25.6072C39.9415 25.2393 39.61 24.7173 39.4874 24.0412L40.9242 23.8224C41.0137 24.197 41.1976 24.4804 41.476 24.6726C41.7544 24.8615 42.1174 24.956 42.5648 24.956C43.052 24.956 43.4415 24.8549 43.7331 24.6527C44.0248 24.4472 44.1706 24.197 44.1706 23.902C44.1706 23.6634 44.0811 23.4628 43.9022 23.3004C43.7265 23.138 43.4564 23.0154 43.0918 22.9325L41.7992 22.6491C41.0866 22.4867 40.5596 22.2282 40.2182 21.8736C39.8801 21.5189 39.7111 21.0698 39.7111 20.5263C39.7111 20.0755 39.8371 19.6811 40.089 19.343C40.3408 19.005 40.6889 18.7415 41.133 18.5526C41.5771 18.3603 42.0859 18.2642 42.6593 18.2642C43.4846 18.2642 44.1342 18.4432 44.6081 18.8011C45.0821 19.1558 45.3953 19.6314 45.5478 20.228ZM50.896 18.3636V19.5568H46.7248V18.3636H50.896ZM47.8434 16.5341H49.3299V23.7578C49.3299 24.0462 49.373 24.2633 49.4592 24.4091C49.5453 24.5516 49.6564 24.6494 49.7923 24.7024C49.9315 24.7521 50.0823 24.777 50.2447 24.777C50.364 24.777 50.4684 24.7687 50.5579 24.7521C50.6474 24.7356 50.717 24.7223 50.7667 24.7124L51.0352 25.9403C50.949 25.9735 50.8263 26.0066 50.6673 26.0398C50.5082 26.0762 50.3093 26.0961 50.0707 26.0994C49.6796 26.1061 49.315 26.0365 48.9769 25.8906C48.6388 25.7448 48.3654 25.5194 48.1566 25.2145C47.9478 24.9096 47.8434 24.5268 47.8434 24.0661V16.5341Z" fill="white"/>
<rect x="341.5" y="0.5" width="196" height="109" rx="15.5" fill="white" stroke="#909090"/>
<g clip-path="url(#clip1_2210_5895)">
<mask id="mask1_2210_5895" style="mask-type:luminance" maskUnits="userSpaceOnUse" x="482" y="56" width="40" height="39">
<path d="M482.672 55.9991H521.345V94.6719H482.672V55.9991Z" fill="white"/>
</mask>
<g mask="url(#mask1_2210_5895)">
<path d="M515.68 62.7942H506.616C505.99 62.7942 505.483 62.2875 505.483 61.6612C505.483 61.035 505.99 60.5282 506.616 60.5282H515.68C516.306 60.5282 516.813 61.035 516.813 61.6612C516.813 62.2875 516.306 62.7942 515.68 62.7942ZM497.401 62.7942C496.775 62.7942 496.268 62.2869 496.268 61.6612C496.268 61.0354 496.775 60.5282 497.401 60.5282C498.026 60.5282 498.534 61.0354 498.534 61.6612C498.534 62.2869 498.026 62.7942 497.401 62.7942ZM492.869 62.7942C492.243 62.7942 491.736 62.2869 491.736 61.6612C491.736 61.0354 492.243 60.5282 492.869 60.5282C493.495 60.5282 494.002 61.0354 494.002 61.6612C494.002 62.2869 493.495 62.7942 492.869 62.7942ZM488.337 62.7942C487.711 62.7942 487.204 62.2869 487.204 61.6612C487.204 61.0354 487.711 60.5282 488.337 60.5282C488.963 60.5282 489.47 61.0354 489.47 61.6612C489.47 62.2869 488.963 62.7942 488.337 62.7942ZM517.946 55.9963H486.071C484.197 55.9963 482.672 57.521 482.672 59.3952V63.9272C482.672 65.8015 484.197 67.3262 486.071 67.3262H517.946C519.82 67.3262 521.345 65.8015 521.345 63.9272V59.3952C521.345 57.521 519.82 55.9963 517.946 55.9963Z" fill="#212121"/>
<path d="M515.68 76.47H506.616C505.99 76.47 505.483 75.9632 505.483 75.337C505.483 74.7108 505.99 74.204 506.616 74.204H515.68C516.306 74.204 516.813 74.7108 516.813 75.337C516.813 75.9632 516.306 76.47 515.68 76.47ZM497.401 76.47C496.775 76.47 496.268 75.9627 496.268 75.337C496.268 74.7111 496.775 74.204 497.401 74.204C498.026 74.204 498.534 74.7111 498.534 75.337C498.534 75.9627 498.026 76.47 497.401 76.47ZM492.869 76.47C492.243 76.47 491.736 75.9627 491.736 75.337C491.736 74.7111 492.243 74.204 492.869 74.204C493.495 74.204 494.002 74.7111 494.002 75.337C494.002 75.9627 493.495 76.47 492.869 76.47ZM488.337 76.47C487.711 76.47 487.204 75.9627 487.204 75.337C487.204 74.7111 487.711 74.204 488.337 74.204C488.963 74.204 489.47 74.7111 489.47 75.337C489.47 75.9627 488.963 76.47 488.337 76.47ZM517.946 69.672H486.071C484.197 69.672 482.672 71.1967 482.672 73.071V77.603C482.672 79.4772 484.197 81.002 486.071 81.002H517.946C519.82 81.002 521.345 79.4772 521.345 77.603V73.071C521.345 71.1967 519.82 69.672 517.946 69.672Z" fill="#212121"/>
<path d="M515.68 90.1399H506.616C505.99 90.1399 505.483 89.6332 505.483 89.0069C505.483 88.3807 505.99 87.8739 506.616 87.8739H515.68C516.306 87.8739 516.813 88.3807 516.813 89.0069C516.813 89.6332 516.306 90.1399 515.68 90.1399ZM497.401 90.1399C496.775 90.1399 496.268 89.6326 496.268 89.0069C496.268 88.3811 496.775 87.8739 497.401 87.8739C498.026 87.8739 498.534 88.3811 498.534 89.0069C498.534 89.6326 498.026 90.1399 497.401 90.1399ZM492.869 90.1399C492.243 90.1399 491.736 89.6326 491.736 89.0069C491.736 88.3811 492.243 87.8739 492.869 87.8739C493.495 87.8739 494.002 88.3811 494.002 89.0069C494.002 89.6326 493.495 90.1399 492.869 90.1399ZM488.337 90.1399C487.711 90.1399 487.204 89.6326 487.204 89.0069C487.204 88.3811 487.711 87.8739 488.337 87.8739C488.963 87.8739 489.47 88.3811 489.47 89.0069C489.47 89.6326 488.963 90.1399 488.337 90.1399ZM517.946 83.342H486.071C484.197 83.342 482.672 84.8667 482.672 86.7409V91.2729C482.672 93.1472 484.197 94.6719 486.071 94.6719H517.946C519.82 94.6719 521.345 93.1472 521.345 91.2729V86.7409C521.345 84.8667 519.82 83.342 517.946 83.342Z" fill="#212121"/>
</g>
</g>
<path d="M521.545 87.56C521.507 84.663 519.217 82.3262 516.394 82.3262C514.504 82.3262 512.856 83.3757 511.959 84.9361C511.649 84.8323 511.319 84.7742 510.975 84.7742C509.457 84.7742 508.189 85.8723 507.878 87.3385C506.586 87.9751 505.688 89.3301 505.688 90.8942C505.688 93.0639 507.412 94.8385 509.521 94.8385H517.451C517.496 94.8385 517.539 94.8333 517.584 94.8319C517.628 94.8333 517.671 94.8385 517.716 94.8385H520.888C522.851 94.8385 524.457 93.1861 524.457 91.1665C524.456 89.378 523.196 87.8802 521.545 87.56Z" fill="black"/>
<path d="M520.889 95.5742H517.716C517.67 95.5742 517.624 95.5712 517.578 95.5683C517.543 95.5712 517.499 95.5742 517.452 95.5742H509.522C507.003 95.5742 504.953 93.4743 504.953 90.8946C504.953 89.2297 505.843 87.6767 507.247 86.8443C507.751 85.1993 509.268 84.0378 510.975 84.0378C511.193 84.0378 511.411 84.0562 511.626 84.0938C512.727 82.5364 514.507 81.5898 516.395 81.5898C519.414 81.5898 521.933 83.9635 522.25 86.9863C523.985 87.5796 525.194 89.2525 525.194 91.1662C525.194 93.5965 523.262 95.5742 520.889 95.5742ZM517.549 94.0955L517.686 94.0999L520.889 94.1022C522.45 94.1022 523.722 92.7847 523.722 91.1662C523.722 89.7552 522.748 88.543 521.406 88.2817L520.818 88.1676L520.81 87.5693C520.778 85.0837 518.798 83.0619 516.395 83.0619C514.824 83.0619 513.405 83.9002 512.599 85.3031L512.298 85.8264L511.726 85.6343C511.482 85.5518 511.229 85.5099 510.976 85.5099C509.842 85.5099 508.843 86.3438 508.599 87.4912L508.524 87.8408L508.204 87.9984C507.123 88.532 506.425 89.6684 506.425 90.8946C506.425 92.6632 507.815 94.1022 509.522 94.1022L517.549 94.0955Z" fill="white"/>
<rect x="349" y="8" width="140" height="25" rx="12.5" fill="#3432CA"/>
<path d="M362.119 26V15.8182H365.847C366.57 15.8182 367.168 15.9375 367.642 16.1761C368.116 16.4115 368.471 16.7313 368.706 17.1357C368.941 17.5367 369.059 17.9891 369.059 18.4929C369.059 18.9171 368.981 19.2751 368.825 19.5668C368.67 19.8551 368.461 20.0871 368.199 20.2628C367.94 20.4351 367.655 20.5611 367.344 20.6406V20.7401C367.682 20.7566 368.012 20.866 368.333 21.0682C368.658 21.267 368.926 21.5504 369.138 21.9183C369.351 22.2862 369.457 22.7337 369.457 23.2607C369.457 23.781 369.334 24.2483 369.089 24.6626C368.847 25.0736 368.472 25.4001 367.965 25.642C367.458 25.8807 366.81 26 366.021 26H362.119ZM363.655 24.6825H365.872C366.608 24.6825 367.135 24.54 367.453 24.255C367.771 23.9699 367.93 23.6136 367.93 23.1861C367.93 22.8646 367.849 22.5696 367.687 22.3011C367.524 22.0327 367.292 21.8189 366.991 21.6598C366.692 21.5007 366.338 21.4212 365.927 21.4212H363.655V24.6825ZM363.655 20.223H365.713C366.058 20.223 366.368 20.1567 366.643 20.0241C366.921 19.8916 367.142 19.706 367.304 19.4673C367.47 19.2254 367.553 18.9403 367.553 18.6122C367.553 18.1913 367.405 17.8383 367.11 17.5533C366.815 17.2682 366.363 17.1257 365.753 17.1257H363.655V20.223ZM373.382 26.169C372.898 26.169 372.46 26.0795 372.069 25.9006C371.678 25.7183 371.368 25.4548 371.14 25.1101C370.914 24.7654 370.801 24.3428 370.801 23.8423C370.801 23.4115 370.884 23.0568 371.05 22.7784C371.216 22.5 371.44 22.2796 371.721 22.1172C372.003 21.9548 372.318 21.8321 372.666 21.7493C373.014 21.6664 373.368 21.6035 373.73 21.5604C374.187 21.5073 374.558 21.4643 374.843 21.4311C375.128 21.3946 375.336 21.3366 375.465 21.2571C375.594 21.1776 375.659 21.0483 375.659 20.8693V20.8345C375.659 20.4003 375.536 20.0639 375.291 19.8253C375.049 19.5866 374.688 19.4673 374.207 19.4673C373.707 19.4673 373.312 19.5784 373.024 19.8004C372.739 20.0192 372.542 20.2628 372.432 20.5312L371.035 20.2131C371.201 19.7491 371.443 19.3745 371.761 19.0895C372.083 18.8011 372.452 18.5923 372.87 18.4631C373.287 18.3305 373.726 18.2642 374.187 18.2642C374.492 18.2642 374.815 18.3007 375.157 18.3736C375.501 18.4432 375.823 18.5724 376.121 18.7614C376.423 18.9503 376.67 19.2204 376.862 19.5717C377.054 19.9197 377.15 20.3722 377.15 20.929V26H375.699V24.956H375.639C375.543 25.1482 375.399 25.3371 375.206 25.5227C375.014 25.7083 374.767 25.8625 374.466 25.9851C374.164 26.1077 373.803 26.169 373.382 26.169ZM373.705 24.9759C374.116 24.9759 374.467 24.8946 374.759 24.7322C375.054 24.5698 375.278 24.3577 375.43 24.0959C375.586 23.8307 375.664 23.5473 375.664 23.2457V22.2614C375.611 22.3144 375.508 22.3641 375.355 22.4105C375.206 22.4536 375.036 22.4917 374.843 22.5249C374.651 22.5547 374.464 22.5829 374.282 22.6094C374.099 22.6326 373.947 22.6525 373.824 22.669C373.536 22.7055 373.272 22.7668 373.034 22.853C372.798 22.9392 372.609 23.0634 372.467 23.2259C372.328 23.3849 372.258 23.5971 372.258 23.8622C372.258 24.2301 372.394 24.5085 372.666 24.6974C372.938 24.883 373.284 24.9759 373.705 24.9759ZM382.347 26.1541C381.608 26.1541 380.971 25.9867 380.438 25.652C379.907 25.3139 379.5 24.8482 379.215 24.255C378.93 23.6617 378.787 22.9822 378.787 22.2166C378.787 21.4411 378.933 20.7566 379.225 20.1634C379.516 19.5668 379.927 19.1011 380.458 18.7663C380.988 18.4316 381.613 18.2642 382.332 18.2642C382.912 18.2642 383.429 18.3719 383.883 18.5874C384.337 18.7995 384.703 19.0978 384.982 19.4822C385.263 19.8667 385.431 20.3158 385.484 20.8295H384.037C383.958 20.4716 383.775 20.1634 383.49 19.9048C383.209 19.6463 382.831 19.517 382.357 19.517C381.942 19.517 381.579 19.6264 381.268 19.8452C380.96 20.0606 380.719 20.3688 380.547 20.7699C380.375 21.1676 380.289 21.6383 380.289 22.1818C380.289 22.7386 380.373 23.2192 380.542 23.6236C380.711 24.0279 380.95 24.3411 381.258 24.5632C381.57 24.7853 381.936 24.8963 382.357 24.8963C382.638 24.8963 382.894 24.8449 383.122 24.7422C383.354 24.6361 383.548 24.4853 383.704 24.2898C383.863 24.0942 383.974 23.8589 384.037 23.5838H385.484C385.431 24.0777 385.27 24.5185 385.002 24.9062C384.733 25.294 384.374 25.599 383.923 25.821C383.475 26.0431 382.95 26.1541 382.347 26.1541ZM388.441 23.4098L388.431 21.5952H388.689L391.732 18.3636H393.512L390.042 22.0426H389.808L388.441 23.4098ZM387.074 26V15.8182H388.56V26H387.074ZM391.896 26L389.162 22.3707L390.186 21.3317L393.721 26H391.896ZM399.704 22.8331V18.3636H401.195V26H399.734V24.6776H399.654C399.478 25.0852 399.197 25.425 398.809 25.6967C398.424 25.9652 397.946 26.0994 397.372 26.0994C396.882 26.0994 396.447 25.9917 396.07 25.7763C395.695 25.5575 395.4 25.2344 395.185 24.8068C394.973 24.3793 394.866 23.8506 394.866 23.2209V18.3636H396.353V23.0419C396.353 23.5623 396.497 23.9766 396.786 24.2848C397.074 24.593 397.448 24.7472 397.909 24.7472C398.188 24.7472 398.464 24.6776 398.739 24.5384C399.018 24.3991 399.248 24.1887 399.43 23.907C399.616 23.6252 399.707 23.2673 399.704 22.8331ZM403.193 28.8636V18.3636H404.644V19.6016H404.769C404.855 19.4425 404.979 19.2585 405.142 19.0497C405.304 18.8409 405.529 18.6586 405.818 18.5028C406.106 18.3438 406.487 18.2642 406.961 18.2642C407.578 18.2642 408.128 18.42 408.612 18.7315C409.096 19.0431 409.475 19.4922 409.75 20.0788C410.029 20.6655 410.168 21.3714 410.168 22.1967C410.168 23.022 410.03 23.7296 409.755 24.3196C409.48 24.9062 409.102 25.3587 408.622 25.6768C408.141 25.9917 407.593 26.1491 406.976 26.1491C406.512 26.1491 406.133 26.0713 405.838 25.9155C405.546 25.7597 405.317 25.5774 405.151 25.3686C404.986 25.1598 404.858 24.9742 404.769 24.8118H404.679V28.8636H403.193ZM404.649 22.1818C404.649 22.7187 404.727 23.1894 404.883 23.5938C405.039 23.9981 405.264 24.3146 405.559 24.5433C405.854 24.7687 406.215 24.8814 406.643 24.8814C407.087 24.8814 407.458 24.7637 407.757 24.5284C408.055 24.2898 408.28 23.9666 408.433 23.5589C408.588 23.1513 408.666 22.6922 408.666 22.1818C408.666 21.678 408.59 21.2256 408.438 20.8246C408.289 20.4235 408.063 20.107 407.762 19.875C407.463 19.643 407.09 19.527 406.643 19.527C406.212 19.527 405.847 19.638 405.549 19.8601C405.254 20.0821 405.03 20.392 404.878 20.7898C404.726 21.1875 404.649 21.6515 404.649 22.1818ZM421.211 18.4929C421.158 18.0223 420.939 17.6577 420.555 17.3991C420.17 17.1373 419.686 17.0064 419.103 17.0064C418.685 17.0064 418.324 17.0727 418.019 17.2053C417.714 17.3345 417.477 17.5135 417.308 17.7422C417.143 17.9676 417.06 18.2244 417.06 18.5128C417.06 18.7547 417.116 18.9635 417.229 19.1392C417.345 19.3149 417.496 19.4624 417.681 19.5817C417.87 19.6977 418.072 19.7955 418.288 19.875C418.503 19.9512 418.71 20.0142 418.909 20.0639L419.903 20.3224C420.228 20.402 420.561 20.5097 420.903 20.6456C421.244 20.7815 421.561 20.9605 421.852 21.1825C422.144 21.4046 422.379 21.6797 422.558 22.0078C422.741 22.3359 422.832 22.7287 422.832 23.1861C422.832 23.7628 422.683 24.2749 422.384 24.7223C422.089 25.1697 421.66 25.5227 421.097 25.7812C420.536 26.0398 419.859 26.169 419.063 26.169C418.301 26.169 417.641 26.0481 417.085 25.8061C416.528 25.5642 416.092 25.2211 415.777 24.777C415.462 24.3295 415.288 23.7992 415.255 23.1861H416.796C416.826 23.554 416.945 23.8606 417.154 24.1058C417.366 24.3478 417.636 24.5284 417.964 24.6477C418.296 24.7637 418.659 24.8217 419.053 24.8217C419.487 24.8217 419.874 24.7538 420.212 24.6179C420.553 24.4787 420.821 24.2865 421.017 24.0412C421.213 23.7926 421.31 23.5026 421.31 23.1712C421.31 22.8696 421.224 22.6226 421.052 22.4304C420.883 22.2382 420.652 22.0791 420.361 21.9531C420.072 21.8272 419.746 21.7161 419.381 21.62L418.178 21.2919C417.363 21.0698 416.717 20.7434 416.239 20.3125C415.765 19.8816 415.528 19.3116 415.528 18.6023C415.528 18.0156 415.688 17.5036 416.006 17.0661C416.324 16.6286 416.755 16.2888 417.298 16.0469C417.842 15.8016 418.455 15.679 419.138 15.679C419.827 15.679 420.435 15.8 420.962 16.0419C421.493 16.2839 421.91 16.617 422.215 17.0412C422.52 17.4621 422.679 17.946 422.692 18.4929H421.211ZM427.765 26.1541C427.049 26.1541 426.424 25.9901 425.89 25.6619C425.357 25.3338 424.943 24.8748 424.648 24.2848C424.353 23.6948 424.205 23.0054 424.205 22.2166C424.205 21.4245 424.353 20.7318 424.648 20.1385C424.943 19.5452 425.357 19.0845 425.89 18.7564C426.424 18.4283 427.049 18.2642 427.765 18.2642C428.481 18.2642 429.105 18.4283 429.639 18.7564C430.173 19.0845 430.587 19.5452 430.882 20.1385C431.177 20.7318 431.324 21.4245 431.324 22.2166C431.324 23.0054 431.177 23.6948 430.882 24.2848C430.587 24.8748 430.173 25.3338 429.639 25.6619C429.105 25.9901 428.481 26.1541 427.765 26.1541ZM427.77 24.9062C428.234 24.9062 428.618 24.7836 428.923 24.5384C429.228 24.2931 429.453 23.9666 429.599 23.5589C429.748 23.1513 429.823 22.7022 429.823 22.2116C429.823 21.7244 429.748 21.277 429.599 20.8693C429.453 20.4583 429.228 20.1286 428.923 19.88C428.618 19.6314 428.234 19.5071 427.77 19.5071C427.302 19.5071 426.915 19.6314 426.606 19.88C426.301 20.1286 426.074 20.4583 425.925 20.8693C425.779 21.277 425.706 21.7244 425.706 22.2116C425.706 22.7022 425.779 23.1513 425.925 23.5589C426.074 23.9666 426.301 24.2931 426.606 24.5384C426.915 24.7836 427.302 24.9062 427.77 24.9062ZM434.47 15.8182V26H432.984V15.8182H434.47ZM441.307 22.8331V18.3636H442.799V26H441.337V24.6776H441.258C441.082 25.0852 440.8 25.425 440.412 25.6967C440.028 25.9652 439.549 26.0994 438.976 26.0994C438.485 26.0994 438.051 25.9917 437.673 25.7763C437.299 25.5575 437.004 25.2344 436.788 24.8068C436.576 24.3793 436.47 23.8506 436.47 23.2209V18.3636H437.956V23.0419C437.956 23.5623 438.101 23.9766 438.389 24.2848C438.677 24.593 439.052 24.7472 439.513 24.7472C439.791 24.7472 440.068 24.6776 440.343 24.5384C440.621 24.3991 440.852 24.1887 441.034 23.907C441.22 23.6252 441.311 23.2673 441.307 22.8331ZM448.361 18.3636V19.5568H444.19V18.3636H448.361ZM445.308 16.5341H446.795V23.7578C446.795 24.0462 446.838 24.2633 446.924 24.4091C447.01 24.5516 447.121 24.6494 447.257 24.7024C447.396 24.7521 447.547 24.777 447.71 24.777C447.829 24.777 447.933 24.7687 448.023 24.7521C448.112 24.7356 448.182 24.7223 448.232 24.7124L448.5 25.9403C448.414 25.9735 448.291 26.0066 448.132 26.0398C447.973 26.0762 447.774 26.0961 447.536 26.0994C447.144 26.1061 446.78 26.0365 446.442 25.8906C446.104 25.7448 445.83 25.5194 445.621 25.2145C445.413 24.9096 445.308 24.5268 445.308 24.0661V16.5341ZM450.005 26V18.3636H451.492V26H450.005ZM450.756 17.1854C450.497 17.1854 450.275 17.0992 450.09 16.9268C449.907 16.7512 449.816 16.5424 449.816 16.3004C449.816 16.0552 449.907 15.8464 450.09 15.674C450.275 15.4983 450.497 15.4105 450.756 15.4105C451.014 15.4105 451.235 15.4983 451.417 15.674C451.603 15.8464 451.695 16.0552 451.695 16.3004C451.695 16.5424 451.603 16.7512 451.417 16.9268C451.235 17.0992 451.014 17.1854 450.756 17.1854ZM456.708 26.1541C455.992 26.1541 455.367 25.9901 454.834 25.6619C454.3 25.3338 453.886 24.8748 453.591 24.2848C453.296 23.6948 453.148 23.0054 453.148 22.2166C453.148 21.4245 453.296 20.7318 453.591 20.1385C453.886 19.5452 454.3 19.0845 454.834 18.7564C455.367 18.4283 455.992 18.2642 456.708 18.2642C457.424 18.2642 458.049 18.4283 458.582 18.7564C459.116 19.0845 459.53 19.5452 459.825 20.1385C460.12 20.7318 460.268 21.4245 460.268 22.2166C460.268 23.0054 460.12 23.6948 459.825 24.2848C459.53 24.8748 459.116 25.3338 458.582 25.6619C458.049 25.9901 457.424 26.1541 456.708 26.1541ZM456.713 24.9062C457.177 24.9062 457.562 24.7836 457.866 24.5384C458.171 24.2931 458.397 23.9666 458.543 23.5589C458.692 23.1513 458.766 22.7022 458.766 22.2116C458.766 21.7244 458.692 21.277 458.543 20.8693C458.397 20.4583 458.171 20.1286 457.866 19.88C457.562 19.6314 457.177 19.5071 456.713 19.5071C456.246 19.5071 455.858 19.6314 455.55 19.88C455.245 20.1286 455.018 20.4583 454.869 20.8693C454.723 21.277 454.65 21.7244 454.65 22.2116C454.65 22.7022 454.723 23.1513 454.869 23.5589C455.018 23.9666 455.245 24.2931 455.55 24.5384C455.858 24.7836 456.246 24.9062 456.713 24.9062ZM463.414 21.4659V26H461.927V18.3636H463.354V19.6065H463.448C463.624 19.2022 463.899 18.8774 464.274 18.6321C464.651 18.3868 465.127 18.2642 465.7 18.2642C466.221 18.2642 466.677 18.3736 467.068 18.5923C467.459 18.8078 467.762 19.1293 467.977 19.5568C468.193 19.9844 468.301 20.513 468.301 21.1428V26H466.814V21.3217C466.814 20.7682 466.67 20.3357 466.382 20.0241C466.093 19.7093 465.697 19.5518 465.193 19.5518C464.849 19.5518 464.542 19.6264 464.274 19.7756C464.008 19.9247 463.798 20.1435 463.642 20.4318C463.49 20.7169 463.414 21.0616 463.414 21.4659ZM476.017 20.228L474.669 20.4666C474.613 20.2943 474.523 20.1302 474.401 19.9744C474.281 19.8187 474.119 19.6911 473.914 19.5916C473.708 19.4922 473.451 19.4425 473.143 19.4425C472.722 19.4425 472.371 19.5369 472.089 19.7259C471.807 19.9115 471.666 20.1518 471.666 20.4467C471.666 20.7019 471.761 20.9074 471.95 21.0632C472.139 21.219 472.444 21.3466 472.865 21.446L474.078 21.7244C474.78 21.8868 475.304 22.1371 475.649 22.4751C475.993 22.8132 476.166 23.2524 476.166 23.7926C476.166 24.25 476.033 24.6577 475.768 25.0156C475.506 25.3703 475.14 25.6487 474.669 25.8509C474.202 26.053 473.66 26.1541 473.044 26.1541C472.188 26.1541 471.491 25.9718 470.95 25.6072C470.41 25.2393 470.079 24.7173 469.956 24.0412L471.393 23.8224C471.482 24.197 471.666 24.4804 471.945 24.6726C472.223 24.8615 472.586 24.956 473.034 24.956C473.521 24.956 473.91 24.8549 474.202 24.6527C474.494 24.4472 474.639 24.197 474.639 23.902C474.639 23.6634 474.55 23.4628 474.371 23.3004C474.195 23.138 473.925 23.0154 473.561 22.9325L472.268 22.6491C471.555 22.4867 471.028 22.2282 470.687 21.8736C470.349 21.5189 470.18 21.0698 470.18 20.5263C470.18 20.0755 470.306 19.6811 470.558 19.343C470.81 19.005 471.158 18.7415 471.602 18.5526C472.046 18.3603 472.555 18.2642 473.128 18.2642C473.953 18.2642 474.603 18.4432 475.077 18.8011C475.551 19.1558 475.864 19.6314 476.017 20.228Z" fill="white"/>
<rect x="341.5" y="164.5" width="196" height="109" rx="15.5" fill="white" stroke="#909090"/>
<rect x="349" y="172" width="77" height="25" rx="12.5" fill="#3432CA"/>
<path d="M367.672 182.493C367.619 182.022 367.4 181.658 367.016 181.399C366.631 181.137 366.147 181.006 365.564 181.006C365.146 181.006 364.785 181.073 364.48 181.205C364.175 181.335 363.938 181.513 363.769 181.742C363.603 181.968 363.521 182.224 363.521 182.513C363.521 182.755 363.577 182.964 363.69 183.139C363.806 183.315 363.956 183.462 364.142 183.582C364.331 183.698 364.533 183.795 364.749 183.875C364.964 183.951 365.171 184.014 365.37 184.064L366.364 184.322C366.689 184.402 367.022 184.51 367.364 184.646C367.705 184.781 368.022 184.96 368.313 185.183C368.605 185.405 368.84 185.68 369.019 186.008C369.201 186.336 369.293 186.729 369.293 187.186C369.293 187.763 369.143 188.275 368.845 188.722C368.55 189.17 368.121 189.523 367.558 189.781C366.997 190.04 366.32 190.169 365.524 190.169C364.762 190.169 364.102 190.048 363.545 189.806C362.989 189.564 362.553 189.221 362.238 188.777C361.923 188.33 361.749 187.799 361.716 187.186H363.257C363.287 187.554 363.406 187.861 363.615 188.106C363.827 188.348 364.097 188.528 364.425 188.648C364.757 188.764 365.12 188.822 365.514 188.822C365.948 188.822 366.335 188.754 366.673 188.618C367.014 188.479 367.282 188.286 367.478 188.041C367.674 187.793 367.771 187.503 367.771 187.171C367.771 186.87 367.685 186.623 367.513 186.43C367.344 186.238 367.113 186.079 366.822 185.953C366.533 185.827 366.207 185.716 365.842 185.62L364.639 185.292C363.824 185.07 363.178 184.743 362.7 184.312C362.226 183.882 361.989 183.312 361.989 182.602C361.989 182.016 362.148 181.504 362.467 181.066C362.785 180.629 363.216 180.289 363.759 180.047C364.303 179.802 364.916 179.679 365.599 179.679C366.288 179.679 366.896 179.8 367.423 180.042C367.954 180.284 368.371 180.617 368.676 181.041C368.981 181.462 369.14 181.946 369.153 182.493H367.672ZM374.574 182.364V183.557H370.403V182.364H374.574ZM371.521 180.534H373.008V187.758C373.008 188.046 373.051 188.263 373.137 188.409C373.223 188.552 373.334 188.649 373.47 188.702C373.609 188.752 373.76 188.777 373.922 188.777C374.042 188.777 374.146 188.769 374.236 188.752C374.325 188.736 374.395 188.722 374.444 188.712L374.713 189.94C374.627 189.973 374.504 190.007 374.345 190.04C374.186 190.076 373.987 190.096 373.748 190.099C373.357 190.106 372.993 190.036 372.655 189.891C372.317 189.745 372.043 189.519 371.834 189.214C371.626 188.91 371.521 188.527 371.521 188.066V180.534ZM379.353 190.154C378.637 190.154 378.012 189.99 377.478 189.662C376.945 189.334 376.53 188.875 376.235 188.285C375.94 187.695 375.793 187.005 375.793 186.217C375.793 185.424 375.94 184.732 376.235 184.138C376.53 183.545 376.945 183.085 377.478 182.756C378.012 182.428 378.637 182.264 379.353 182.264C380.069 182.264 380.693 182.428 381.227 182.756C381.761 183.085 382.175 183.545 382.47 184.138C382.765 184.732 382.912 185.424 382.912 186.217C382.912 187.005 382.765 187.695 382.47 188.285C382.175 188.875 381.761 189.334 381.227 189.662C380.693 189.99 380.069 190.154 379.353 190.154ZM379.358 188.906C379.822 188.906 380.206 188.784 380.511 188.538C380.816 188.293 381.041 187.967 381.187 187.559C381.336 187.151 381.411 186.702 381.411 186.212C381.411 185.724 381.336 185.277 381.187 184.869C381.041 184.458 380.816 184.129 380.511 183.88C380.206 183.631 379.822 183.507 379.358 183.507C378.89 183.507 378.502 183.631 378.194 183.88C377.889 184.129 377.662 184.458 377.513 184.869C377.367 185.277 377.294 185.724 377.294 186.212C377.294 186.702 377.367 187.151 377.513 187.559C377.662 187.967 377.889 188.293 378.194 188.538C378.502 188.784 378.89 188.906 379.358 188.906ZM384.572 190V182.364H386.008V183.577H386.088C386.227 183.166 386.472 182.843 386.824 182.607C387.178 182.369 387.579 182.249 388.027 182.249C388.12 182.249 388.229 182.253 388.355 182.259C388.484 182.266 388.585 182.274 388.658 182.284V183.706C388.599 183.689 388.492 183.671 388.34 183.651C388.188 183.628 388.035 183.616 387.883 183.616C387.531 183.616 387.218 183.691 386.943 183.84C386.671 183.986 386.456 184.19 386.297 184.452C386.138 184.71 386.058 185.005 386.058 185.337V190H384.572ZM392.099 190.169C391.615 190.169 391.177 190.08 390.786 189.901C390.395 189.718 390.085 189.455 389.856 189.11C389.631 188.765 389.518 188.343 389.518 187.842C389.518 187.411 389.601 187.057 389.767 186.778C389.933 186.5 390.156 186.28 390.438 186.117C390.72 185.955 391.035 185.832 391.383 185.749C391.731 185.666 392.085 185.603 392.447 185.56C392.904 185.507 393.275 185.464 393.56 185.431C393.845 185.395 394.052 185.337 394.182 185.257C394.311 185.178 394.376 185.048 394.376 184.869V184.835C394.376 184.4 394.253 184.064 394.008 183.825C393.766 183.587 393.404 183.467 392.924 183.467C392.423 183.467 392.029 183.578 391.741 183.8C391.456 184.019 391.258 184.263 391.149 184.531L389.752 184.213C389.918 183.749 390.16 183.375 390.478 183.089C390.799 182.801 391.169 182.592 391.586 182.463C392.004 182.33 392.443 182.264 392.904 182.264C393.209 182.264 393.532 182.301 393.873 182.374C394.218 182.443 394.54 182.572 394.838 182.761C395.14 182.95 395.386 183.22 395.579 183.572C395.771 183.92 395.867 184.372 395.867 184.929V190H394.415V188.956H394.356C394.26 189.148 394.115 189.337 393.923 189.523C393.731 189.708 393.484 189.862 393.182 189.985C392.881 190.108 392.519 190.169 392.099 190.169ZM392.422 188.976C392.833 188.976 393.184 188.895 393.476 188.732C393.771 188.57 393.994 188.358 394.147 188.096C394.303 187.831 394.381 187.547 394.381 187.246V186.261C394.327 186.314 394.225 186.364 394.072 186.411C393.923 186.454 393.752 186.492 393.56 186.525C393.368 186.555 393.181 186.583 392.998 186.609C392.816 186.633 392.664 186.652 392.541 186.669C392.253 186.705 391.989 186.767 391.751 186.853C391.515 186.939 391.326 187.063 391.184 187.226C391.045 187.385 390.975 187.597 390.975 187.862C390.975 188.23 391.111 188.509 391.383 188.697C391.654 188.883 392.001 188.976 392.422 188.976ZM401.049 193.023C400.442 193.023 399.92 192.943 399.483 192.784C399.048 192.625 398.694 192.415 398.419 192.153C398.144 191.891 397.938 191.604 397.802 191.293L399.08 190.766C399.169 190.911 399.289 191.066 399.438 191.228C399.59 191.394 399.796 191.535 400.054 191.651C400.316 191.767 400.653 191.825 401.064 191.825C401.627 191.825 402.093 191.687 402.461 191.412C402.828 191.14 403.012 190.706 403.012 190.109V188.608H402.918C402.828 188.77 402.699 188.951 402.53 189.15C402.364 189.349 402.136 189.521 401.844 189.667C401.552 189.813 401.173 189.886 400.706 189.886C400.102 189.886 399.559 189.745 399.075 189.463C398.594 189.178 398.213 188.759 397.931 188.205C397.653 187.648 397.514 186.964 397.514 186.152C397.514 185.34 397.651 184.644 397.926 184.064C398.205 183.484 398.586 183.04 399.07 182.732C399.554 182.42 400.102 182.264 400.716 182.264C401.19 182.264 401.572 182.344 401.864 182.503C402.156 182.659 402.383 182.841 402.545 183.05C402.711 183.259 402.838 183.442 402.928 183.602H403.037V182.364H404.494V190.169C404.494 190.825 404.342 191.364 404.037 191.785C403.732 192.206 403.319 192.517 402.799 192.719C402.282 192.922 401.698 193.023 401.049 193.023ZM401.034 188.653C401.461 188.653 401.823 188.553 402.118 188.354C402.416 188.152 402.641 187.864 402.794 187.489C402.949 187.112 403.027 186.659 403.027 186.132C403.027 185.618 402.951 185.166 402.799 184.775C402.646 184.384 402.422 184.079 402.127 183.86C401.833 183.638 401.468 183.527 401.034 183.527C400.586 183.527 400.213 183.643 399.915 183.875C399.617 184.104 399.391 184.415 399.239 184.81C399.09 185.204 399.015 185.645 399.015 186.132C399.015 186.633 399.092 187.072 399.244 187.45C399.396 187.827 399.622 188.122 399.92 188.335C400.222 188.547 400.593 188.653 401.034 188.653ZM409.779 190.154C409.026 190.154 408.378 189.993 407.835 189.672C407.295 189.347 406.877 188.891 406.582 188.305C406.29 187.715 406.145 187.024 406.145 186.232C406.145 185.449 406.29 184.76 406.582 184.163C406.877 183.567 407.288 183.101 407.815 182.766C408.345 182.432 408.965 182.264 409.674 182.264C410.105 182.264 410.523 182.335 410.927 182.478C411.332 182.621 411.694 182.844 412.016 183.149C412.337 183.454 412.591 183.85 412.777 184.337C412.962 184.821 413.055 185.41 413.055 186.102V186.629H406.985V185.516H411.598C411.598 185.125 411.519 184.778 411.36 184.477C411.201 184.172 410.977 183.931 410.689 183.756C410.404 183.58 410.069 183.492 409.684 183.492C409.267 183.492 408.902 183.595 408.591 183.8C408.282 184.003 408.044 184.268 407.875 184.596C407.709 184.921 407.626 185.274 407.626 185.655V186.525C407.626 187.035 407.716 187.469 407.895 187.827C408.077 188.185 408.33 188.459 408.655 188.648C408.98 188.833 409.359 188.926 409.794 188.926C410.075 188.926 410.332 188.886 410.564 188.807C410.796 188.724 410.997 188.601 411.166 188.439C411.335 188.277 411.464 188.076 411.554 187.837L412.961 188.091C412.848 188.505 412.646 188.868 412.354 189.18C412.066 189.488 411.703 189.728 411.265 189.901C410.831 190.07 410.336 190.154 409.779 190.154Z" fill="white"/>
<path fill-rule="evenodd" clip-rule="evenodd" d="M433.5 230.5V225C433.5 224.028 434.068 223.246 434.769 222.671C435.476 222.089 436.438 221.61 437.54 221.227C439.752 220.458 442.743 220 446 220C449.257 220 452.248 220.458 454.46 221.227C455.562 221.61 456.524 222.089 457.231 222.671C457.932 223.246 458.5 224.028 458.5 225V230.5C458.5 230.816 458.334 231.236 457.774 231.735C457.215 232.234 456.349 232.728 455.193 233.164C452.889 234.033 449.639 234.591 446 234.591C442.361 234.591 439.111 234.033 436.807 233.164C435.651 232.728 434.786 232.234 434.226 231.735C433.666 231.236 433.5 230.816 433.5 230.5ZM435.5 225C435.5 224.867 435.575 224.597 436.039 224.215C436.496 223.84 437.217 223.457 438.197 223.116C440.147 222.438 442.906 222 446 222C449.094 222 451.853 222.438 453.803 223.116C454.783 223.457 455.504 223.84 455.961 224.215C456.425 224.597 456.5 224.867 456.5 225C456.5 225.133 456.425 225.403 455.961 225.785C455.504 226.16 454.783 226.543 453.803 226.884C451.853 227.562 449.094 228 446 228C442.906 228 440.147 227.562 438.197 226.884C437.217 226.543 436.496 226.16 436.039 225.785C435.575 225.403 435.5 225.133 435.5 225Z" fill="#212121"/>
<path d="M433.5 233.707V238.409C433.5 238.726 433.666 239.145 434.226 239.645C434.786 240.143 435.651 240.638 436.807 241.074C439.111 241.942 442.361 242.5 446 242.5C449.639 242.5 452.889 241.942 455.193 241.074C456.349 240.638 457.215 240.143 457.774 239.645C458.334 239.145 458.5 238.726 458.5 238.409V233.707C457.776 234.219 456.89 234.662 455.899 235.036C453.317 236.01 449.817 236.591 446 236.591C442.183 236.591 438.683 236.01 436.101 235.036C435.11 234.662 434.224 234.219 433.5 233.707Z" fill="#212121"/>
<path d="M458.5 241.615C457.776 242.128 456.89 242.57 455.899 242.944C453.317 243.918 449.817 244.499 446 244.499C442.183 244.499 438.683 243.918 436.101 242.944C435.11 242.57 434.224 242.128 433.5 241.615V244.999C433.5 245.971 434.068 246.753 434.769 247.329C435.476 247.91 436.438 248.389 437.54 248.772C439.752 249.542 442.743 249.999 446 249.999C449.257 249.999 452.248 249.542 454.46 248.772C455.562 248.389 456.524 247.91 457.231 247.329C457.932 246.753 458.5 245.971 458.5 244.999V241.615Z" fill="#212121"/>
<path fill-rule="evenodd" clip-rule="evenodd" d="M413.5 237.5V232C413.5 231.028 414.068 230.246 414.769 229.671C415.476 229.089 416.438 228.61 417.54 228.227C419.752 227.458 422.743 227 426 227C429.257 227 432.248 227.458 434.46 228.227C435.562 228.61 436.524 229.089 437.231 229.671C437.932 230.246 438.5 231.028 438.5 232V237.5C438.5 237.816 438.334 238.236 437.774 238.735C437.215 239.234 436.349 239.728 435.193 240.164C432.889 241.033 429.639 241.591 426 241.591C422.361 241.591 419.111 241.033 416.807 240.164C415.651 239.728 414.786 239.234 414.226 238.735C413.666 238.236 413.5 237.816 413.5 237.5ZM415.5 232C415.5 231.867 415.575 231.597 416.039 231.215C416.496 230.84 417.217 230.457 418.197 230.116C420.147 229.438 422.906 229 426 229C429.094 229 431.853 229.438 433.803 230.116C434.783 230.457 435.504 230.84 435.961 231.215C436.425 231.597 436.5 231.867 436.5 232C436.5 232.133 436.425 232.403 435.961 232.785C435.504 233.16 434.783 233.543 433.803 233.884C431.853 234.562 429.094 235 426 235C422.906 235 420.147 234.562 418.197 233.884C417.217 233.543 416.496 233.16 416.039 232.785C415.575 232.403 415.5 232.133 415.5 232Z" fill="#212121"/>
<path d="M413.5 240.707V245.409C413.5 245.726 413.666 246.145 414.226 246.645C414.786 247.143 415.651 247.638 416.807 248.074C419.111 248.942 422.361 249.5 426 249.5C429.639 249.5 432.889 248.942 435.193 248.074C436.349 247.638 437.215 247.143 437.774 246.645C438.334 246.145 438.5 245.726 438.5 245.409V240.707C437.776 241.219 436.89 241.662 435.899 242.036C433.317 243.01 429.817 243.591 426 243.591C422.183 243.591 418.683 243.01 416.101 242.036C415.11 241.662 414.224 241.219 413.5 240.707Z" fill="#212121"/>
<path d="M438.5 248.615C437.776 249.128 436.89 249.57 435.899 249.944C433.317 250.918 429.817 251.499 426 251.499C422.183 251.499 418.683 250.918 416.101 249.944C415.11 249.57 414.224 249.128 413.5 248.615V251.999C413.5 252.971 414.068 253.753 414.769 254.329C415.476 254.91 416.438 255.389 417.54 255.772C419.752 256.542 422.743 256.999 426 256.999C429.257 256.999 432.248 256.542 434.46 255.772C435.562 255.389 436.524 254.91 437.231 254.329C437.932 253.753 438.5 252.971 438.5 251.999V248.615Z" fill="#212121"/>
<path fill-rule="evenodd" clip-rule="evenodd" d="M493.5 230.5V225C493.5 224.028 494.068 223.246 494.769 222.671C495.476 222.089 496.438 221.61 497.54 221.227C499.752 220.458 502.743 220 506 220C509.257 220 512.248 220.458 514.46 221.227C515.562 221.61 516.524 222.089 517.231 222.671C517.932 223.246 518.5 224.028 518.5 225V230.5C518.5 230.816 518.334 231.236 517.774 231.735C517.215 232.234 516.349 232.728 515.193 233.164C512.889 234.033 509.639 234.591 506 234.591C502.361 234.591 499.111 234.033 496.807 233.164C495.651 232.728 494.786 232.234 494.226 231.735C493.666 231.236 493.5 230.816 493.5 230.5ZM495.5 225C495.5 224.867 495.575 224.597 496.039 224.215C496.496 223.84 497.217 223.457 498.197 223.116C500.147 222.438 502.906 222 506 222C509.094 222 511.853 222.438 513.803 223.116C514.783 223.457 515.504 223.84 515.961 224.215C516.425 224.597 516.5 224.867 516.5 225C516.5 225.133 516.425 225.403 515.961 225.785C515.504 226.16 514.783 226.543 513.803 226.884C511.853 227.562 509.094 228 506 228C502.906 228 500.147 227.562 498.197 226.884C497.217 226.543 496.496 226.16 496.039 225.785C495.575 225.403 495.5 225.133 495.5 225Z" fill="#212121"/>
<path d="M493.5 233.707V238.409C493.5 238.726 493.666 239.145 494.226 239.645C494.786 240.143 495.651 240.638 496.807 241.074C499.111 241.942 502.361 242.5 506 242.5C509.639 242.5 512.889 241.942 515.193 241.074C516.349 240.638 517.215 240.143 517.774 239.645C518.334 239.145 518.5 238.726 518.5 238.409V233.707C517.776 234.219 516.89 234.662 515.899 235.036C513.317 236.01 509.817 236.591 506 236.591C502.183 236.591 498.683 236.01 496.101 235.036C495.11 234.662 494.224 234.219 493.5 233.707Z" fill="#212121"/>
<path d="M518.5 241.615C517.776 242.128 516.89 242.57 515.899 242.944C513.317 243.918 509.817 244.499 506 244.499C502.183 244.499 498.683 243.918 496.101 242.944C495.11 242.57 494.224 242.128 493.5 241.615V244.999C493.5 245.971 494.068 246.753 494.769 247.329C495.476 247.91 496.438 248.389 497.54 248.772C499.752 249.542 502.743 249.999 506 249.999C509.257 249.999 512.248 249.542 514.46 248.772C515.562 248.389 516.524 247.91 517.231 247.329C517.932 246.753 518.5 245.971 518.5 244.999V241.615Z" fill="#212121"/>
<path fill-rule="evenodd" clip-rule="evenodd" d="M473.5 237.5V232C473.5 231.028 474.068 230.246 474.769 229.671C475.476 229.089 476.438 228.61 477.54 228.227C479.752 227.458 482.743 227 486 227C489.257 227 492.248 227.458 494.46 228.227C495.562 228.61 496.524 229.089 497.231 229.671C497.932 230.246 498.5 231.028 498.5 232V237.5C498.5 237.816 498.334 238.236 497.774 238.735C497.215 239.234 496.349 239.728 495.193 240.164C492.889 241.033 489.639 241.591 486 241.591C482.361 241.591 479.111 241.033 476.807 240.164C475.651 239.728 474.786 239.234 474.226 238.735C473.666 238.236 473.5 237.816 473.5 237.5ZM475.5 232C475.5 231.867 475.575 231.597 476.039 231.215C476.496 230.84 477.217 230.457 478.197 230.116C480.147 229.438 482.906 229 486 229C489.094 229 491.853 229.438 493.803 230.116C494.783 230.457 495.504 230.84 495.961 231.215C496.425 231.597 496.5 231.867 496.5 232C496.5 232.133 496.425 232.403 495.961 232.785C495.504 233.16 494.783 233.543 493.803 233.884C491.853 234.562 489.094 235 486 235C482.906 235 480.147 234.562 478.197 233.884C477.217 233.543 476.496 233.16 476.039 232.785C475.575 232.403 475.5 232.133 475.5 232Z" fill="#212121"/>
<path d="M473.5 240.707V245.409C473.5 245.726 473.666 246.145 474.226 246.645C474.786 247.143 475.651 247.638 476.807 248.074C479.111 248.942 482.361 249.5 486 249.5C489.639 249.5 492.889 248.942 495.193 248.074C496.349 247.638 497.215 247.143 497.774 246.645C498.334 246.145 498.5 245.726 498.5 245.409V240.707C497.776 241.219 496.89 241.662 495.899 242.036C493.317 243.01 489.817 243.591 486 243.591C482.183 243.591 478.683 243.01 476.101 242.036C475.11 241.662 474.224 241.219 473.5 240.707Z" fill="#212121"/>
<path d="M498.5 248.615C497.776 249.128 496.89 249.57 495.899 249.944C493.317 250.918 489.817 251.499 486 251.499C482.183 251.499 478.683 250.918 476.101 249.944C475.11 249.57 474.224 249.128 473.5 248.615V251.999C473.5 252.971 474.068 253.753 474.769 254.329C475.476 254.91 476.438 255.389 477.54 255.772C479.752 256.542 482.743 256.999 486 256.999C489.257 256.999 492.248 256.542 494.46 255.772C495.562 255.389 496.524 254.91 497.231 254.329C497.932 253.753 498.5 252.971 498.5 251.999V248.615Z" fill="#212121"/>
<rect x="0.5" y="164.5" width="196" height="109" rx="15.5" fill="white" stroke="#909090"/>
<rect x="8" y="172" width="77" height="25" rx="12.5" fill="#3432CA"/>
<path d="M26.6719 182.493C26.6188 182.022 26.4001 181.658 26.0156 181.399C25.6312 181.137 25.1473 181.006 24.5639 181.006C24.1463 181.006 23.785 181.073 23.4801 181.205C23.1752 181.335 22.9382 181.513 22.7692 181.742C22.6035 181.968 22.5206 182.224 22.5206 182.513C22.5206 182.755 22.5769 182.964 22.6896 183.139C22.8056 183.315 22.9564 183.462 23.142 183.582C23.331 183.698 23.5331 183.795 23.7486 183.875C23.964 183.951 24.1712 184.014 24.37 184.064L25.3643 184.322C25.6892 184.402 26.0223 184.51 26.3636 184.646C26.705 184.781 27.0215 184.96 27.3132 185.183C27.6049 185.405 27.8402 185.68 28.0192 186.008C28.2015 186.336 28.2926 186.729 28.2926 187.186C28.2926 187.763 28.1435 188.275 27.8452 188.722C27.5502 189.17 27.121 189.523 26.5575 189.781C25.9974 190.04 25.3196 190.169 24.5241 190.169C23.7618 190.169 23.1023 190.048 22.5455 189.806C21.9886 189.564 21.5528 189.221 21.2379 188.777C20.9231 188.33 20.7491 187.799 20.7159 187.186H22.2571C22.2869 187.554 22.4063 187.861 22.6151 188.106C22.8272 188.348 23.0973 188.528 23.4254 188.648C23.7569 188.764 24.1198 188.822 24.5142 188.822C24.9484 188.822 25.3345 188.754 25.6726 188.618C26.014 188.479 26.2824 188.286 26.478 188.041C26.6735 187.793 26.7713 187.503 26.7713 187.171C26.7713 186.87 26.6851 186.623 26.5128 186.43C26.3438 186.238 26.1134 186.079 25.8217 185.953C25.5334 185.827 25.2069 185.716 24.8423 185.62L23.6392 185.292C22.8239 185.07 22.1776 184.743 21.7003 184.312C21.2263 183.882 20.9893 183.312 20.9893 182.602C20.9893 182.016 21.1484 181.504 21.4666 181.066C21.7848 180.629 22.2157 180.289 22.7592 180.047C23.3028 179.802 23.916 179.679 24.5987 179.679C25.2881 179.679 25.8963 179.8 26.4233 180.042C26.9536 180.284 27.3712 180.617 27.6761 181.041C27.9811 181.462 28.1402 181.946 28.1534 182.493H26.6719ZM33.5737 182.364V183.557H29.4025V182.364H33.5737ZM30.5211 180.534H32.0076V187.758C32.0076 188.046 32.0507 188.263 32.1369 188.409C32.2231 188.552 32.3341 188.649 32.47 188.702C32.6092 188.752 32.76 188.777 32.9224 188.777C33.0417 188.777 33.1461 188.769 33.2356 188.752C33.3251 188.736 33.3947 188.722 33.4444 188.712L33.7129 189.94C33.6267 189.973 33.5041 190.007 33.345 190.04C33.1859 190.076 32.987 190.096 32.7484 190.099C32.3573 190.106 31.9927 190.036 31.6547 189.891C31.3166 189.745 31.0431 189.519 30.8343 189.214C30.6255 188.91 30.5211 188.527 30.5211 188.066V180.534ZM38.3526 190.154C37.6367 190.154 37.012 189.99 36.4783 189.662C35.9447 189.334 35.5304 188.875 35.2354 188.285C34.9405 187.695 34.793 187.005 34.793 186.217C34.793 185.424 34.9405 184.732 35.2354 184.138C35.5304 183.545 35.9447 183.085 36.4783 182.756C37.012 182.428 37.6367 182.264 38.3526 182.264C39.0685 182.264 39.6933 182.428 40.2269 182.756C40.7605 183.085 41.1748 183.545 41.4698 184.138C41.7648 184.732 41.9123 185.424 41.9123 186.217C41.9123 187.005 41.7648 187.695 41.4698 188.285C41.1748 188.875 40.7605 189.334 40.2269 189.662C39.6933 189.99 39.0685 190.154 38.3526 190.154ZM38.3576 188.906C38.8216 188.906 39.2061 188.784 39.511 188.538C39.8159 188.293 40.0413 187.967 40.1871 187.559C40.3363 187.151 40.4109 186.702 40.4109 186.212C40.4109 185.724 40.3363 185.277 40.1871 184.869C40.0413 184.458 39.8159 184.129 39.511 183.88C39.2061 183.631 38.8216 183.507 38.3576 183.507C37.8903 183.507 37.5025 183.631 37.1942 183.88C36.8893 184.129 36.6623 184.458 36.5131 184.869C36.3673 185.277 36.2944 185.724 36.2944 186.212C36.2944 186.702 36.3673 187.151 36.5131 187.559C36.6623 187.967 36.8893 188.293 37.1942 188.538C37.5025 188.784 37.8903 188.906 38.3576 188.906ZM43.5716 190V182.364H45.0083V183.577H45.0879C45.2271 183.166 45.4724 182.843 45.8237 182.607C46.1783 182.369 46.5794 182.249 47.0268 182.249C47.1196 182.249 47.229 182.253 47.3549 182.259C47.4842 182.266 47.5853 182.274 47.6582 182.284V183.706C47.5985 183.689 47.4925 183.671 47.34 183.651C47.1876 183.628 47.0351 183.616 46.8826 183.616C46.5313 183.616 46.2181 183.691 45.943 183.84C45.6712 183.986 45.4558 184.19 45.2967 184.452C45.1376 184.71 45.0581 185.005 45.0581 185.337V190H43.5716ZM51.0985 190.169C50.6146 190.169 50.1771 190.08 49.786 189.901C49.3949 189.718 49.085 189.455 48.8564 189.11C48.631 188.765 48.5183 188.343 48.5183 187.842C48.5183 187.411 48.6011 187.057 48.7669 186.778C48.9326 186.5 49.1563 186.28 49.438 186.117C49.7198 185.955 50.0346 185.832 50.3826 185.749C50.7306 185.666 51.0853 185.603 51.4466 185.56C51.9039 185.507 52.2752 185.464 52.5602 185.431C52.8452 185.395 53.0524 185.337 53.1816 185.257C53.3109 185.178 53.3755 185.048 53.3755 184.869V184.835C53.3755 184.4 53.2529 184.064 53.0076 183.825C52.7657 183.587 52.4044 183.467 51.9238 183.467C51.4234 183.467 51.0289 183.578 50.7406 183.8C50.4556 184.019 50.2583 184.263 50.149 184.531L48.752 184.213C48.9177 183.749 49.1596 183.375 49.4778 183.089C49.7993 182.801 50.1689 182.592 50.5865 182.463C51.0041 182.33 51.4432 182.264 51.9039 182.264C52.2089 182.264 52.532 182.301 52.8734 182.374C53.2181 182.443 53.5396 182.572 53.8379 182.761C54.1395 182.95 54.3864 183.22 54.5787 183.572C54.7709 183.92 54.867 184.372 54.867 184.929V190H53.4153V188.956H53.3556C53.2595 189.148 53.1154 189.337 52.9231 189.523C52.7309 189.708 52.484 189.862 52.1824 189.985C51.8807 190.108 51.5195 190.169 51.0985 190.169ZM51.4217 188.976C51.8327 188.976 52.184 188.895 52.4757 188.732C52.7707 188.57 52.9944 188.358 53.1468 188.096C53.3026 187.831 53.3805 187.547 53.3805 187.246V186.261C53.3275 186.314 53.2247 186.364 53.0723 186.411C52.9231 186.454 52.7524 186.492 52.5602 186.525C52.368 186.555 52.1807 186.583 51.9984 186.609C51.8161 186.633 51.6636 186.652 51.541 186.669C51.2527 186.705 50.9892 186.767 50.7505 186.853C50.5152 186.939 50.3263 187.063 50.1838 187.226C50.0446 187.385 49.975 187.597 49.975 187.862C49.975 188.23 50.1109 188.509 50.3826 188.697C50.6544 188.883 51.0008 188.976 51.4217 188.976ZM60.0487 193.023C59.4421 193.023 58.9201 192.943 58.4826 192.784C58.0484 192.625 57.6938 192.415 57.4187 192.153C57.1436 191.891 56.9381 191.604 56.8022 191.293L58.0799 190.766C58.1694 190.911 58.2887 191.066 58.4379 191.228C58.5903 191.394 58.7958 191.535 59.0543 191.651C59.3162 191.767 59.6526 191.825 60.0636 191.825C60.627 191.825 61.0927 191.687 61.4606 191.412C61.8285 191.14 62.0124 190.706 62.0124 190.109V188.608H61.918C61.8285 188.77 61.6992 188.951 61.5302 189.15C61.3645 189.349 61.1358 189.521 60.8441 189.667C60.5524 189.813 60.1729 189.886 59.7056 189.886C59.1024 189.886 58.5588 189.745 58.0749 189.463C57.5943 189.178 57.2132 188.759 56.9315 188.205C56.6531 187.648 56.5138 186.964 56.5138 186.152C56.5138 185.34 56.6514 184.644 56.9265 184.064C57.2049 183.484 57.5861 183.04 58.07 182.732C58.5539 182.42 59.1024 182.264 59.7156 182.264C60.1895 182.264 60.5723 182.344 60.864 182.503C61.1557 182.659 61.3827 182.841 61.5451 183.05C61.7108 183.259 61.8384 183.442 61.9279 183.602H62.0373V182.364H63.494V190.169C63.494 190.825 63.3415 191.364 63.0366 191.785C62.7317 192.206 62.319 192.517 61.7987 192.719C61.2816 192.922 60.6983 193.023 60.0487 193.023ZM60.0337 188.653C60.4613 188.653 60.8226 188.553 61.1175 188.354C61.4158 188.152 61.6412 187.864 61.7937 187.489C61.9495 187.112 62.0273 186.659 62.0273 186.132C62.0273 185.618 61.9511 185.166 61.7987 184.775C61.6462 184.384 61.4225 184.079 61.1275 183.86C60.8325 183.638 60.4679 183.527 60.0337 183.527C59.5863 183.527 59.2134 183.643 58.9151 183.875C58.6168 184.104 58.3915 184.415 58.239 184.81C58.0898 185.204 58.0153 185.645 58.0153 186.132C58.0153 186.633 58.0915 187.072 58.244 187.45C58.3964 187.827 58.6218 188.122 58.9201 188.335C59.2217 188.547 59.5929 188.653 60.0337 188.653ZM68.7788 190.154C68.0264 190.154 67.3784 189.993 66.8349 189.672C66.2946 189.347 65.877 188.891 65.582 188.305C65.2904 187.715 65.1445 187.024 65.1445 186.232C65.1445 185.449 65.2904 184.76 65.582 184.163C65.877 183.567 66.288 183.101 66.815 182.766C67.3453 182.432 67.9651 182.264 68.6744 182.264C69.1052 182.264 69.5228 182.335 69.9272 182.478C70.3316 182.621 70.6945 182.844 71.016 183.149C71.3375 183.454 71.591 183.85 71.7766 184.337C71.9622 184.821 72.055 185.41 72.055 186.102V186.629H65.9847V185.516H70.5984C70.5984 185.125 70.5188 184.778 70.3597 184.477C70.2006 184.172 69.9769 183.931 69.6886 183.756C69.4035 183.58 69.0688 183.492 68.6843 183.492C68.2667 183.492 67.9021 183.595 67.5906 183.8C67.2823 184.003 67.0437 184.268 66.8746 184.596C66.7089 184.921 66.6261 185.274 66.6261 185.655V186.525C66.6261 187.035 66.7156 187.469 66.8945 187.827C67.0768 188.185 67.3304 188.459 67.6552 188.648C67.98 188.833 68.3595 188.926 68.7937 188.926C69.0754 188.926 69.3323 188.886 69.5643 188.807C69.7963 188.724 69.9968 188.601 70.1658 188.439C70.3349 188.277 70.4641 188.076 70.5536 187.837L71.9606 188.091C71.8479 188.505 71.6457 188.868 71.354 189.18C71.0657 189.488 70.7028 189.728 70.2653 189.901C69.8311 190.07 69.3356 190.154 68.7788 190.154Z" fill="white"/>
<path fill-rule="evenodd" clip-rule="evenodd" d="M110.5 237.5V232C110.5 231.028 111.068 230.246 111.769 229.671C112.476 229.089 113.438 228.61 114.54 228.227C116.752 227.458 119.743 227 123 227C126.257 227 129.248 227.458 131.46 228.227C132.562 228.61 133.524 229.089 134.231 229.671C134.932 230.246 135.5 231.028 135.5 232V237.5C135.5 237.816 135.334 238.236 134.774 238.735C134.215 239.234 133.349 239.728 132.193 240.164C129.889 241.033 126.639 241.591 123 241.591C119.361 241.591 116.111 241.033 113.807 240.164C112.651 239.728 111.786 239.234 111.226 238.735C110.666 238.236 110.5 237.816 110.5 237.5ZM112.5 232C112.5 231.867 112.575 231.597 113.039 231.215C113.496 230.84 114.217 230.457 115.197 230.116C117.147 229.438 119.906 229 123 229C126.094 229 128.853 229.438 130.803 230.116C131.783 230.457 132.504 230.84 132.961 231.215C133.425 231.597 133.5 231.867 133.5 232C133.5 232.133 133.425 232.403 132.961 232.785C132.504 233.16 131.783 233.543 130.803 233.884C128.853 234.562 126.094 235 123 235C119.906 235 117.147 234.562 115.197 233.884C114.217 233.543 113.496 233.16 113.039 232.785C112.575 232.403 112.5 232.133 112.5 232Z" fill="#212121"/>
<path d="M110.5 240.707V245.409C110.5 245.726 110.666 246.145 111.226 246.645C111.786 247.143 112.651 247.638 113.807 248.074C116.111 248.942 119.361 249.5 123 249.5C126.639 249.5 129.889 248.942 132.193 248.074C133.349 247.638 134.215 247.143 134.774 246.645C135.334 246.145 135.5 245.726 135.5 245.409V240.707C134.776 241.219 133.89 241.662 132.899 242.036C130.317 243.01 126.817 243.591 123 243.591C119.183 243.591 115.683 243.01 113.101 242.036C112.11 241.662 111.224 241.219 110.5 240.707Z" fill="#212121"/>
<path d="M135.5 248.615C134.776 249.128 133.89 249.57 132.899 249.944C130.317 250.918 126.817 251.499 123 251.499C119.183 251.499 115.683 250.918 113.101 249.944C112.11 249.57 111.224 249.128 110.5 248.615V251.999C110.5 252.971 111.068 253.753 111.769 254.329C112.476 254.91 113.438 255.389 114.54 255.772C116.752 256.542 119.743 256.999 123 256.999C126.257 256.999 129.248 256.542 131.46 255.772C132.562 255.389 133.524 254.91 134.231 254.329C134.932 253.753 135.5 252.971 135.5 251.999V248.615Z" fill="#212121"/>
<path fill-rule="evenodd" clip-rule="evenodd" d="M152.5 237.5V232C152.5 231.028 153.068 230.246 153.769 229.671C154.476 229.089 155.438 228.61 156.54 228.227C158.752 227.458 161.743 227 165 227C168.257 227 171.248 227.458 173.46 228.227C174.562 228.61 175.524 229.089 176.231 229.671C176.932 230.246 177.5 231.028 177.5 232V237.5C177.5 237.816 177.334 238.236 176.774 238.735C176.215 239.234 175.349 239.728 174.193 240.164C171.889 241.033 168.639 241.591 165 241.591C161.361 241.591 158.111 241.033 155.807 240.164C154.651 239.728 153.786 239.234 153.226 238.735C152.666 238.236 152.5 237.816 152.5 237.5ZM154.5 232C154.5 231.867 154.575 231.597 155.039 231.215C155.496 230.84 156.217 230.457 157.197 230.116C159.147 229.438 161.906 229 165 229C168.094 229 170.853 229.438 172.803 230.116C173.783 230.457 174.504 230.84 174.961 231.215C175.425 231.597 175.5 231.867 175.5 232C175.5 232.133 175.425 232.403 174.961 232.785C174.504 233.16 173.783 233.543 172.803 233.884C170.853 234.562 168.094 235 165 235C161.906 235 159.147 234.562 157.197 233.884C156.217 233.543 155.496 233.16 155.039 232.785C154.575 232.403 154.5 232.133 154.5 232Z" fill="#212121"/>
<path d="M152.5 240.707V245.409C152.5 245.726 152.666 246.145 153.226 246.645C153.786 247.143 154.651 247.638 155.807 248.074C158.111 248.942 161.361 249.5 165 249.5C168.639 249.5 171.889 248.942 174.193 248.074C175.349 247.638 176.215 247.143 176.774 246.645C177.334 246.145 177.5 245.726 177.5 245.409V240.707C176.776 241.219 175.89 241.662 174.899 242.036C172.317 243.01 168.817 243.591 165 243.591C161.183 243.591 157.683 243.01 155.101 242.036C154.11 241.662 153.224 241.219 152.5 240.707Z" fill="#212121"/>
<path d="M177.5 248.615C176.776 249.128 175.89 249.57 174.899 249.944C172.317 250.918 168.817 251.499 165 251.499C161.183 251.499 157.683 250.918 155.101 249.944C154.11 249.57 153.224 249.128 152.5 248.615V251.999C152.5 252.971 153.068 253.753 153.769 254.329C154.476 254.91 155.438 255.389 156.54 255.772C158.752 256.542 161.743 256.999 165 256.999C168.257 256.999 171.248 256.542 173.46 255.772C174.562 255.389 175.524 254.91 176.231 254.329C176.932 253.753 177.5 252.971 177.5 251.999V248.615Z" fill="#212121"/>
<path d="M156.293 164.707C156.683 165.098 157.317 165.098 157.707 164.707L164.071 158.343C164.462 157.953 164.462 157.319 164.071 156.929C163.681 156.538 163.047 156.538 162.657 156.929L157 162.586L151.343 156.929C150.953 156.538 150.319 156.538 149.929 156.929C149.538 157.319 149.538 157.953 149.929 158.343L156.293 164.707ZM157.707 110.293C157.317 109.902 156.683 109.902 156.293 110.293L149.929 116.657C149.538 117.047 149.538 117.681 149.929 118.071C150.319 118.462 150.953 118.462 151.343 118.071L157 112.414L162.657 118.071C163.047 118.462 163.681 118.462 164.071 118.071C164.462 117.681 164.462 117.047 164.071 116.657L157.707 110.293ZM158 164V162.528H156V164H158ZM158 159.583V156.639H156V159.583H158ZM158 153.694V150.75H156V153.694H158ZM158 147.806V144.861H156V147.806H158ZM158 141.917V138.972H156V141.917H158ZM158 136.028V133.083H156V136.028H158ZM158 130.139V127.194H156V130.139H158ZM158 124.25V121.306H156V124.25H158ZM158 118.361V115.417H156V118.361H158ZM158 112.472V111H156V112.472H158ZM156.293 164.707C156.683 165.098 157.317 165.098 157.707 164.707L164.071 158.343C164.462 157.953 164.462 157.319 164.071 156.929C163.681 156.538 163.047 156.538 162.657 156.929L157 162.586L151.343 156.929C150.953 156.538 150.319 156.538 149.929 156.929C149.538 157.319 149.538 157.953 149.929 158.343L156.293 164.707ZM157.707 110.293C157.317 109.902 156.683 109.902 156.293 110.293L149.929 116.657C149.538 117.047 149.538 117.681 149.929 118.071C150.319 118.462 150.953 118.462 151.343 118.071L157 112.414L162.657 118.071C163.047 118.462 163.681 118.462 164.071 118.071C164.462 117.681 164.462 117.047 164.071 116.657L157.707 110.293ZM158 164V162.528H156V164H158ZM158 159.583V156.639H156V159.583H158ZM158 153.694V150.75H156V153.694H158ZM158 147.806V144.861H156V147.806H158ZM158 141.917V138.972H156V141.917H158ZM158 136.028V133.083H156V136.028H158ZM158 130.139V127.194H156V130.139H158ZM158 124.25V121.306H156V124.25H158ZM158 118.361V115.417H156V118.361H158ZM158 112.472V111H156V112.472H158Z" fill="#3432CA"/>
<path d="M341.792 44.3321C342.183 43.9416 342.183 43.3084 341.792 42.9179L335.428 36.5539C335.038 36.1634 334.404 36.1634 334.014 36.5539C333.623 36.9445 333.623 37.5776 334.014 37.9681L339.671 43.625L334.014 49.2819C333.623 49.6724 333.623 50.3055 334.014 50.6961C334.404 51.0866 335.038 51.0866 335.428 50.6961L341.792 44.3321ZM196.988 44.625H198.99V42.625H196.988V44.625ZM202.992 44.625H206.995V42.625H202.992V44.625ZM210.998 44.625H215V42.625H210.998V44.625ZM219.003 44.625H223.006V42.625H219.003V44.625ZM227.008 44.625H231.011V42.625H227.008V44.625ZM235.014 44.625H239.016V42.625H235.014V44.625ZM243.019 44.625H247.022V42.625H243.019V44.625ZM251.025 44.625H255.027V42.625H251.025V44.625ZM259.03 44.625H263.033V42.625H259.03V44.625ZM267.035 44.625H271.038V42.625H267.035V44.625ZM275.041 44.625H279.043V42.625H275.041V44.625ZM283.046 44.625H287.049V42.625H283.046V44.625ZM291.051 44.625H295.054V42.625H291.051V44.625ZM299.057 44.625H303.059V42.625H299.057V44.625ZM307.062 44.625H311.065V42.625H307.062V44.625ZM315.067 44.625H319.07V42.625H315.067V44.625ZM323.073 44.625H327.076V42.625H323.073V44.625ZM331.078 44.625H335.081V42.625H331.078V44.625ZM339.084 44.625H341.085V42.625H339.084V44.625ZM341.792 44.3321C342.183 43.9416 342.183 43.3084 341.792 42.9179L335.428 36.5539C335.038 36.1634 334.404 36.1634 334.014 36.5539C333.623 36.9445 333.623 37.5776 334.014 37.9681L339.671 43.625L334.014 49.2819C333.623 49.6724 333.623 50.3055 334.014 50.6961C334.404 51.0866 335.038 51.0866 335.428 50.6961L341.792 44.3321ZM196.988 44.625H198.99V42.625H196.988V44.625ZM202.992 44.625H206.995V42.625H202.992V44.625ZM210.998 44.625H215V42.625H210.998V44.625ZM219.003 44.625H223.006V42.625H219.003V44.625ZM227.008 44.625H231.011V42.625H227.008V44.625ZM235.014 44.625H239.016V42.625H235.014V44.625ZM243.019 44.625H247.022V42.625H243.019V44.625ZM251.025 44.625H255.027V42.625H251.025V44.625ZM259.03 44.625H263.033V42.625H259.03V44.625ZM267.035 44.625H271.038V42.625H267.035V44.625ZM275.041 44.625H279.043V42.625H275.041V44.625ZM283.046 44.625H287.049V42.625H283.046V44.625ZM291.051 44.625H295.054V42.625H291.051V44.625ZM299.057 44.625H303.059V42.625H299.057V44.625ZM307.062 44.625H311.065V42.625H307.062V44.625ZM315.067 44.625H319.07V42.625H315.067V44.625ZM323.073 44.625H327.076V42.625H323.073V44.625ZM331.078 44.625H335.081V42.625H331.078V44.625ZM339.084 44.625H341.085V42.625H339.084V44.625Z" fill="#3432CA"/>
<path d="M196.293 67.2929C195.902 67.6834 195.902 68.3166 196.293 68.7071L202.657 75.0711C203.047 75.4616 203.681 75.4616 204.071 75.0711C204.462 74.6805 204.462 74.0474 204.071 73.6569L198.414 68L204.071 62.3431C204.462 61.9526 204.462 61.3195 204.071 60.9289C203.681 60.5384 203.047 60.5384 202.657 60.9289L196.293 67.2929ZM197 69H199.001V67H197V69ZM203.004 69H207.007V67H203.004V69ZM211.009 69H215.012V67H211.009V69ZM219.015 69H223.017V67H219.015V69ZM227.02 69H231.023V67H227.02V69ZM235.026 69H239.028V67H235.026V69ZM243.031 69H247.034V67H243.031V69ZM251.036 69H255.039V67H251.036V69ZM259.042 69H263.044V67H259.042V69ZM267.047 69H271.05V67H267.047V69ZM275.052 69H279.055V67H275.052V69ZM283.058 69H287.06V67H283.058V69ZM291.063 69H295.066V67H291.063V69ZM299.068 69H303.071V67H299.068V69ZM307.074 69H311.077V67H307.074V69ZM315.079 69H319.082V67H315.079V69ZM323.085 69H327.087V67H323.085V69ZM331.09 69H335.093V67H331.09V69ZM339.095 69H341.097V67H339.095V69ZM196.293 67.2929C195.902 67.6834 195.902 68.3166 196.293 68.7071L202.657 75.0711C203.047 75.4616 203.681 75.4616 204.071 75.0711C204.462 74.6805 204.462 74.0474 204.071 73.6569L198.414 68L204.071 62.3431C204.462 61.9526 204.462 61.3195 204.071 60.9289C203.681 60.5384 203.047 60.5384 202.657 60.9289L196.293 67.2929ZM197 69H199.001V67H197V69ZM203.004 69H207.007V67H203.004V69ZM211.009 69H215.012V67H211.009V69ZM219.015 69H223.017V67H219.015V69ZM227.02 69H231.023V67H227.02V69ZM235.026 69H239.028V67H235.026V69ZM243.031 69H247.034V67H243.031V69ZM251.036 69H255.039V67H251.036V69ZM259.042 69H263.044V67H259.042V69ZM267.047 69H271.05V67H267.047V69ZM275.052 69H279.055V67H275.052V69ZM283.058 69H287.06V67H283.058V69ZM291.063 69H295.066V67H291.063V69ZM299.068 69H303.071V67H299.068V69ZM307.074 69H311.077V67H307.074V69ZM315.079 69H319.082V67H315.079V69ZM323.085 69H327.087V67H323.085V69ZM331.09 69H335.093V67H331.09V69ZM339.095 69H341.097V67H339.095V69Z" fill="black"/>
<path d="M497.293 164.707C497.683 165.098 498.317 165.098 498.707 164.707L505.071 158.343C505.462 157.953 505.462 157.319 505.071 156.929C504.681 156.538 504.047 156.538 503.657 156.929L498 162.586L492.343 156.929C491.953 156.538 491.319 156.538 490.929 156.929C490.538 157.319 490.538 157.953 490.929 158.343L497.293 164.707ZM498.707 110.293C498.317 109.902 497.683 109.902 497.293 110.293L490.929 116.657C490.538 117.047 490.538 117.681 490.929 118.071C491.319 118.462 491.953 118.462 492.343 118.071L498 112.414L503.657 118.071C504.047 118.462 504.681 118.462 505.071 118.071C505.462 117.681 505.462 117.047 505.071 116.657L498.707 110.293ZM499 164V162.528H497V164H499ZM499 159.583V156.639H497V159.583H499ZM499 153.694V150.75H497V153.694H499ZM499 147.806V144.861H497V147.806H499ZM499 141.917V138.972H497V141.917H499ZM499 136.028V133.083H497V136.028H499ZM499 130.139V127.194H497V130.139H499ZM499 124.25V121.306H497V124.25H499ZM499 118.361V115.417H497V118.361H499ZM499 112.472V111H497V112.472H499ZM497.293 164.707C497.683 165.098 498.317 165.098 498.707 164.707L505.071 158.343C505.462 157.953 505.462 157.319 505.071 156.929C504.681 156.538 504.047 156.538 503.657 156.929L498 162.586L492.343 156.929C491.953 156.538 491.319 156.538 490.929 156.929C490.538 157.319 490.538 157.953 490.929 158.343L497.293 164.707ZM498.707 110.293C498.317 109.902 497.683 109.902 497.293 110.293L490.929 116.657C490.538 117.047 490.538 117.681 490.929 118.071C491.319 118.462 491.953 118.462 492.343 118.071L498 112.414L503.657 118.071C504.047 118.462 504.681 118.462 505.071 118.071C505.462 117.681 505.462 117.047 505.071 116.657L498.707 110.293ZM499 164V162.528H497V164H499ZM499 159.583V156.639H497V159.583H499ZM499 153.694V150.75H497V153.694H499ZM499 147.806V144.861H497V147.806H499ZM499 141.917V138.972H497V141.917H499ZM499 136.028V133.083H497V136.028H499ZM499 130.139V127.194H497V130.139H499ZM499 124.25V121.306H497V124.25H499ZM499 118.361V115.417H497V118.361H499ZM499 112.472V111H497V112.472H499Z" fill="#3432CA"/>
<path d="M230.484 34.108C229.9 34.108 229.396 33.98 228.972 33.724C228.548 33.468 228.22 33.112 227.988 32.656C227.764 32.192 227.652 31.656 227.652 31.048C227.652 30.584 227.716 30.168 227.844 29.8C227.972 29.432 228.16 29.12 228.408 28.864C228.656 28.6 228.952 28.4 229.296 28.264C229.648 28.128 230.044 28.06 230.484 28.06C230.772 28.06 231.072 28.104 231.384 28.192C231.696 28.28 231.98 28.432 232.236 28.648C232.316 28.704 232.368 28.772 232.392 28.852C232.416 28.932 232.416 29.012 232.392 29.092C232.368 29.164 232.328 29.228 232.272 29.284C232.216 29.332 232.144 29.36 232.056 29.368C231.976 29.376 231.892 29.348 231.804 29.284C231.596 29.124 231.384 29.012 231.168 28.948C230.952 28.884 230.744 28.852 230.544 28.852C230.232 28.852 229.96 28.904 229.728 29.008C229.496 29.104 229.3 29.244 229.14 29.428C228.98 29.612 228.856 29.84 228.768 30.112C228.688 30.384 228.648 30.7 228.648 31.06C228.648 31.756 228.812 32.308 229.14 32.716C229.468 33.116 229.936 33.316 230.544 33.316C230.744 33.316 230.948 33.284 231.156 33.22C231.372 33.156 231.588 33.044 231.804 32.884C231.892 32.82 231.976 32.792 232.056 32.8C232.136 32.808 232.204 32.84 232.26 32.896C232.316 32.944 232.352 33.008 232.368 33.088C232.392 33.168 232.392 33.248 232.368 33.328C232.344 33.4 232.292 33.464 232.212 33.52C231.956 33.728 231.676 33.88 231.372 33.976C231.068 34.064 230.772 34.108 230.484 34.108ZM235.873 34.108C235.305 34.108 234.813 33.984 234.397 33.736C233.981 33.488 233.657 33.14 233.425 32.692C233.201 32.236 233.089 31.7 233.089 31.084C233.089 30.62 233.153 30.204 233.281 29.836C233.409 29.46 233.597 29.14 233.845 28.876C234.093 28.612 234.385 28.412 234.721 28.276C235.065 28.132 235.449 28.06 235.873 28.06C236.441 28.06 236.933 28.184 237.349 28.432C237.765 28.68 238.085 29.032 238.309 29.488C238.541 29.936 238.657 30.468 238.657 31.084C238.657 31.548 238.593 31.964 238.465 32.332C238.337 32.7 238.149 33.02 237.901 33.292C237.653 33.556 237.357 33.76 237.013 33.904C236.677 34.04 236.297 34.108 235.873 34.108ZM235.873 33.328C236.233 33.328 236.549 33.24 236.821 33.064C237.093 32.888 237.301 32.632 237.445 32.296C237.597 31.96 237.673 31.556 237.673 31.084C237.673 30.356 237.509 29.8 237.181 29.416C236.861 29.032 236.425 28.84 235.873 28.84C235.505 28.84 235.185 28.928 234.913 29.104C234.649 29.272 234.441 29.524 234.289 29.86C234.145 30.188 234.073 30.596 234.073 31.084C234.073 31.804 234.237 32.36 234.565 32.752C234.893 33.136 235.329 33.328 235.873 33.328ZM240.597 36.244C240.437 36.244 240.317 36.2 240.237 36.112C240.157 36.032 240.117 35.912 240.117 35.752V28.576C240.117 28.416 240.157 28.296 240.237 28.216C240.317 28.128 240.433 28.084 240.585 28.084C240.745 28.084 240.865 28.128 240.945 28.216C241.033 28.296 241.077 28.416 241.077 28.576V29.716L240.945 29.548C241.073 29.092 241.325 28.732 241.701 28.468C242.085 28.196 242.541 28.06 243.069 28.06C243.589 28.06 244.041 28.184 244.425 28.432C244.817 28.672 245.117 29.02 245.325 29.476C245.541 29.924 245.649 30.46 245.649 31.084C245.649 31.7 245.541 32.236 245.325 32.692C245.117 33.14 244.821 33.488 244.437 33.736C244.053 33.984 243.597 34.108 243.069 34.108C242.541 34.108 242.089 33.976 241.713 33.712C241.337 33.44 241.081 33.08 240.945 32.632H241.089V35.752C241.089 35.912 241.045 36.032 240.957 36.112C240.869 36.2 240.749 36.244 240.597 36.244ZM242.865 33.328C243.233 33.328 243.549 33.24 243.813 33.064C244.085 32.888 244.293 32.632 244.437 32.296C244.589 31.96 244.665 31.556 244.665 31.084C244.665 30.356 244.501 29.8 244.173 29.416C243.853 29.032 243.417 28.84 242.865 28.84C242.505 28.84 242.189 28.928 241.917 29.104C241.645 29.272 241.433 29.524 241.281 29.86C241.137 30.188 241.065 30.596 241.065 31.084C241.065 31.804 241.229 32.36 241.557 32.752C241.885 33.136 242.321 33.328 242.865 33.328ZM248.327 36.244C248.207 36.244 248.111 36.212 248.039 36.148C247.967 36.084 247.923 35.996 247.907 35.884C247.899 35.78 247.919 35.672 247.967 35.56L248.795 33.7V34.12L246.491 28.768C246.443 28.648 246.427 28.536 246.443 28.432C246.459 28.328 246.507 28.244 246.587 28.18C246.667 28.116 246.779 28.084 246.923 28.084C247.051 28.084 247.151 28.112 247.223 28.168C247.295 28.224 247.359 28.324 247.415 28.468L249.383 33.292H249.059L251.051 28.468C251.115 28.324 251.183 28.224 251.255 28.168C251.327 28.112 251.431 28.084 251.567 28.084C251.695 28.084 251.791 28.116 251.855 28.18C251.927 28.244 251.967 28.328 251.975 28.432C251.991 28.528 251.975 28.636 251.927 28.756L248.855 35.86C248.791 36.004 248.719 36.104 248.639 36.16C248.567 36.216 248.463 36.244 248.327 36.244ZM258.353 34.108C257.881 34.108 257.489 34.024 257.177 33.856C256.873 33.68 256.641 33.42 256.481 33.076C256.329 32.732 256.253 32.304 256.253 31.792V28.576C256.253 28.408 256.293 28.284 256.373 28.204C256.461 28.124 256.581 28.084 256.733 28.084C256.893 28.084 257.013 28.124 257.093 28.204C257.181 28.284 257.225 28.408 257.225 28.576V31.78C257.225 32.292 257.329 32.676 257.537 32.932C257.753 33.18 258.089 33.304 258.545 33.304C259.041 33.304 259.445 33.136 259.757 32.8C260.069 32.464 260.225 32.024 260.225 31.48V28.576C260.225 28.408 260.265 28.284 260.345 28.204C260.433 28.124 260.557 28.084 260.717 28.084C260.869 28.084 260.985 28.124 261.065 28.204C261.153 28.284 261.197 28.408 261.197 28.576V33.58C261.197 33.916 261.041 34.084 260.729 34.084C260.577 34.084 260.457 34.04 260.369 33.952C260.289 33.864 260.249 33.74 260.249 33.58V32.488L260.405 32.656C260.245 33.128 259.981 33.488 259.613 33.736C259.253 33.984 258.833 34.108 258.353 34.108ZM264.984 34.108C264.624 34.108 264.26 34.064 263.892 33.976C263.532 33.888 263.196 33.736 262.884 33.52C262.804 33.464 262.748 33.4 262.716 33.328C262.684 33.248 262.672 33.172 262.68 33.1C262.696 33.02 262.728 32.952 262.776 32.896C262.832 32.84 262.896 32.808 262.968 32.8C263.048 32.784 263.136 32.8 263.232 32.848C263.544 33.04 263.844 33.176 264.132 33.256C264.428 33.328 264.72 33.364 265.008 33.364C265.464 33.364 265.808 33.28 266.04 33.112C266.272 32.944 266.388 32.716 266.388 32.428C266.388 32.204 266.312 32.028 266.16 31.9C266.008 31.764 265.768 31.66 265.44 31.588L264.348 31.348C263.844 31.244 263.468 31.064 263.22 30.808C262.98 30.552 262.86 30.22 262.86 29.812C262.86 29.452 262.952 29.144 263.136 28.888C263.328 28.624 263.596 28.42 263.94 28.276C264.284 28.132 264.684 28.06 265.14 28.06C265.492 28.06 265.824 28.108 266.136 28.204C266.456 28.292 266.744 28.436 267 28.636C267.08 28.692 267.132 28.76 267.156 28.84C267.188 28.912 267.192 28.988 267.168 29.068C267.152 29.14 267.116 29.204 267.06 29.26C267.004 29.308 266.936 29.336 266.856 29.344C266.776 29.352 266.692 29.328 266.604 29.272C266.364 29.112 266.12 28.996 265.872 28.924C265.624 28.844 265.38 28.804 265.14 28.804C264.692 28.804 264.352 28.892 264.12 29.068C263.888 29.244 263.772 29.476 263.772 29.764C263.772 29.988 263.844 30.172 263.988 30.316C264.132 30.46 264.356 30.564 264.66 30.628L265.752 30.856C266.272 30.968 266.66 31.148 266.916 31.396C267.18 31.636 267.312 31.964 267.312 32.38C267.312 32.908 267.1 33.328 266.676 33.64C266.252 33.952 265.688 34.108 264.984 34.108ZM269.273 34.06C269.113 34.06 268.993 34.016 268.913 33.928C268.833 33.832 268.793 33.7 268.793 33.532V28.624C268.793 28.456 268.833 28.328 268.913 28.24C268.993 28.152 269.113 28.108 269.273 28.108C269.425 28.108 269.545 28.152 269.633 28.24C269.721 28.328 269.765 28.456 269.765 28.624V33.532C269.765 33.7 269.721 33.832 269.633 33.928C269.553 34.016 269.433 34.06 269.273 34.06ZM269.273 26.764C269.073 26.764 268.917 26.712 268.805 26.608C268.693 26.496 268.637 26.348 268.637 26.164C268.637 25.972 268.693 25.828 268.805 25.732C268.917 25.628 269.073 25.576 269.273 25.576C269.481 25.576 269.637 25.628 269.741 25.732C269.853 25.828 269.909 25.972 269.909 26.164C269.909 26.348 269.853 26.496 269.741 26.608C269.637 26.712 269.481 26.764 269.273 26.764ZM272.062 34.084C271.902 34.084 271.782 34.04 271.702 33.952C271.622 33.864 271.582 33.74 271.582 33.58V28.576C271.582 28.416 271.622 28.296 271.702 28.216C271.782 28.128 271.898 28.084 272.05 28.084C272.202 28.084 272.318 28.128 272.398 28.216C272.486 28.296 272.53 28.416 272.53 28.576V29.608L272.398 29.464C272.566 29 272.838 28.652 273.214 28.42C273.598 28.18 274.038 28.06 274.534 28.06C274.998 28.06 275.382 28.144 275.686 28.312C275.998 28.48 276.23 28.736 276.382 29.08C276.534 29.416 276.61 29.844 276.61 30.364V33.58C276.61 33.74 276.566 33.864 276.478 33.952C276.398 34.04 276.282 34.084 276.13 34.084C275.97 34.084 275.846 34.04 275.758 33.952C275.678 33.864 275.638 33.74 275.638 33.58V30.424C275.638 29.88 275.53 29.484 275.314 29.236C275.106 28.98 274.77 28.852 274.306 28.852C273.77 28.852 273.342 29.02 273.022 29.356C272.71 29.684 272.554 30.124 272.554 30.676V33.58C272.554 33.916 272.39 34.084 272.062 34.084ZM280.982 36.268C280.558 36.268 280.142 36.216 279.734 36.112C279.334 36.016 278.97 35.86 278.642 35.644C278.546 35.588 278.482 35.52 278.45 35.44C278.426 35.36 278.422 35.28 278.438 35.2C278.454 35.128 278.49 35.06 278.546 34.996C278.602 34.94 278.666 34.904 278.738 34.888C278.818 34.872 278.898 34.884 278.978 34.924C279.33 35.14 279.666 35.288 279.986 35.368C280.306 35.448 280.622 35.488 280.934 35.488C281.502 35.488 281.93 35.336 282.218 35.032C282.514 34.728 282.662 34.288 282.662 33.712V32.356H282.782C282.662 32.82 282.406 33.188 282.014 33.46C281.63 33.732 281.178 33.868 280.658 33.868C280.122 33.868 279.658 33.748 279.266 33.508C278.874 33.26 278.57 32.916 278.354 32.476C278.146 32.036 278.042 31.528 278.042 30.952C278.042 30.52 278.102 30.128 278.222 29.776C278.342 29.416 278.514 29.112 278.738 28.864C278.97 28.608 279.246 28.412 279.566 28.276C279.894 28.132 280.258 28.06 280.658 28.06C281.186 28.06 281.642 28.196 282.026 28.468C282.41 28.732 282.658 29.092 282.77 29.548L282.65 29.692V28.576C282.65 28.416 282.69 28.296 282.77 28.216C282.858 28.128 282.978 28.084 283.13 28.084C283.29 28.084 283.41 28.128 283.49 28.216C283.57 28.296 283.61 28.416 283.61 28.576V33.58C283.61 34.468 283.386 35.136 282.938 35.584C282.498 36.04 281.846 36.268 280.982 36.268ZM280.838 33.076C281.214 33.076 281.538 32.992 281.81 32.824C282.082 32.648 282.29 32.4 282.434 32.08C282.586 31.76 282.662 31.384 282.662 30.952C282.662 30.304 282.498 29.792 282.17 29.416C281.842 29.032 281.398 28.84 280.838 28.84C280.47 28.84 280.15 28.928 279.878 29.104C279.606 29.272 279.394 29.516 279.242 29.836C279.098 30.148 279.026 30.52 279.026 30.952C279.026 31.6 279.19 32.116 279.518 32.5C279.846 32.884 280.286 33.076 280.838 33.076ZM292.319 34.108C291.487 34.108 290.775 33.932 290.183 33.58C289.591 33.228 289.135 32.728 288.815 32.08C288.503 31.432 288.347 30.66 288.347 29.764C288.347 29.092 288.435 28.492 288.611 27.964C288.795 27.428 289.055 26.976 289.391 26.608C289.735 26.232 290.155 25.944 290.651 25.744C291.147 25.536 291.703 25.432 292.319 25.432C292.815 25.432 293.287 25.504 293.735 25.648C294.183 25.784 294.571 25.988 294.899 26.26C295.003 26.34 295.071 26.432 295.103 26.536C295.143 26.632 295.147 26.728 295.115 26.824C295.091 26.912 295.043 26.988 294.971 27.052C294.907 27.108 294.827 27.136 294.731 27.136C294.635 27.136 294.527 27.096 294.407 27.016C294.119 26.784 293.803 26.612 293.459 26.5C293.115 26.388 292.743 26.332 292.343 26.332C291.711 26.332 291.175 26.468 290.735 26.74C290.295 27.004 289.963 27.392 289.739 27.904C289.515 28.416 289.403 29.036 289.403 29.764C289.403 30.492 289.515 31.116 289.739 31.636C289.963 32.148 290.295 32.54 290.735 32.812C291.175 33.076 291.711 33.208 292.343 33.208C292.735 33.208 293.107 33.152 293.459 33.04C293.811 32.92 294.135 32.744 294.431 32.512C294.551 32.432 294.659 32.396 294.755 32.404C294.851 32.404 294.931 32.432 294.995 32.488C295.059 32.544 295.103 32.616 295.127 32.704C295.159 32.792 295.159 32.884 295.127 32.98C295.103 33.076 295.043 33.16 294.947 33.232C294.611 33.52 294.215 33.74 293.759 33.892C293.311 34.036 292.831 34.108 292.319 34.108ZM297.273 34C297.097 34 296.961 33.956 296.865 33.868C296.777 33.772 296.733 33.636 296.733 33.46V26.08C296.733 25.904 296.777 25.772 296.865 25.684C296.961 25.588 297.097 25.54 297.273 25.54H300.117C300.701 25.54 301.193 25.628 301.593 25.804C302.001 25.972 302.313 26.22 302.529 26.548C302.745 26.876 302.853 27.276 302.853 27.748C302.853 28.276 302.697 28.716 302.385 29.068C302.081 29.42 301.665 29.652 301.137 29.764V29.596C301.737 29.668 302.205 29.884 302.541 30.244C302.885 30.604 303.057 31.08 303.057 31.672C303.057 32.424 302.813 33 302.325 33.4C301.837 33.8 301.149 34 300.261 34H297.273ZM297.693 33.208H300.165C300.805 33.208 301.285 33.08 301.605 32.824C301.925 32.568 302.085 32.18 302.085 31.66C302.085 31.132 301.925 30.744 301.605 30.496C301.285 30.24 300.805 30.112 300.165 30.112H297.693V33.208ZM297.693 29.32H299.973C300.597 29.32 301.069 29.192 301.389 28.936C301.717 28.68 301.881 28.312 301.881 27.832C301.881 27.336 301.717 26.964 301.389 26.716C301.069 26.46 300.597 26.332 299.973 26.332H297.693V29.32ZM307.294 34.084C307.142 34.084 307.022 34.04 306.934 33.952C306.846 33.856 306.802 33.728 306.802 33.568V26.392H304.102C303.958 26.392 303.846 26.352 303.766 26.272C303.686 26.192 303.646 26.088 303.646 25.96C303.646 25.824 303.686 25.72 303.766 25.648C303.846 25.576 303.958 25.54 304.102 25.54H310.498C310.642 25.54 310.754 25.576 310.834 25.648C310.914 25.72 310.954 25.824 310.954 25.96C310.954 26.096 310.914 26.204 310.834 26.284C310.754 26.356 310.642 26.392 310.498 26.392H307.798V33.568C307.798 33.728 307.754 33.856 307.666 33.952C307.586 34.04 307.462 34.084 307.294 34.084Z" fill="#212121"/>
<path d="M249.823 85.084C249.663 85.084 249.539 85.04 249.451 84.952C249.371 84.856 249.331 84.728 249.331 84.568V77.044C249.331 76.876 249.375 76.752 249.463 76.672C249.551 76.584 249.675 76.54 249.835 76.54H252.679C253.583 76.54 254.279 76.752 254.767 77.176C255.255 77.6 255.499 78.204 255.499 78.988C255.499 79.484 255.387 79.916 255.163 80.284C254.947 80.644 254.627 80.92 254.203 81.112C253.779 81.296 253.271 81.388 252.679 81.388L252.799 81.232H253.039C253.351 81.232 253.623 81.312 253.855 81.472C254.087 81.632 254.299 81.888 254.491 82.24L255.643 84.388C255.707 84.5 255.735 84.612 255.727 84.724C255.727 84.828 255.691 84.916 255.619 84.988C255.547 85.052 255.443 85.084 255.307 85.084C255.171 85.084 255.059 85.052 254.971 84.988C254.883 84.924 254.807 84.832 254.743 84.712L253.435 82.288C253.251 81.944 253.039 81.716 252.799 81.604C252.559 81.484 252.243 81.424 251.851 81.424H250.315V84.568C250.315 84.728 250.275 84.856 250.195 84.952C250.115 85.04 249.991 85.084 249.823 85.084ZM250.315 80.644H252.535C253.191 80.644 253.687 80.508 254.023 80.236C254.359 79.956 254.527 79.54 254.527 78.988C254.527 78.452 254.359 78.048 254.023 77.776C253.687 77.496 253.191 77.356 252.535 77.356H250.315V80.644ZM259.726 85.108C259.11 85.108 258.578 84.988 258.13 84.748C257.69 84.5 257.346 84.152 257.098 83.704C256.858 83.256 256.738 82.72 256.738 82.096C256.738 81.488 256.858 80.96 257.098 80.512C257.338 80.056 257.666 79.7 258.082 79.444C258.506 79.188 258.994 79.06 259.546 79.06C259.938 79.06 260.29 79.128 260.602 79.264C260.914 79.392 261.178 79.58 261.394 79.828C261.618 80.076 261.786 80.376 261.898 80.728C262.018 81.08 262.078 81.476 262.078 81.916C262.078 82.044 262.042 82.14 261.97 82.204C261.898 82.26 261.794 82.288 261.658 82.288H257.482V81.652H261.43L261.238 81.808C261.238 81.376 261.174 81.012 261.046 80.716C260.918 80.412 260.73 80.18 260.482 80.02C260.242 79.86 259.938 79.78 259.57 79.78C259.162 79.78 258.814 79.876 258.526 80.068C258.246 80.252 258.034 80.512 257.89 80.848C257.746 81.176 257.674 81.56 257.674 82V82.072C257.674 82.808 257.85 83.368 258.202 83.752C258.562 84.136 259.07 84.328 259.726 84.328C259.998 84.328 260.266 84.292 260.53 84.22C260.802 84.148 261.066 84.028 261.322 83.86C261.434 83.788 261.534 83.756 261.622 83.764C261.718 83.764 261.794 83.792 261.85 83.848C261.906 83.896 261.942 83.96 261.958 84.04C261.982 84.112 261.974 84.192 261.934 84.28C261.902 84.368 261.834 84.444 261.73 84.508C261.466 84.7 261.154 84.848 260.794 84.952C260.434 85.056 260.078 85.108 259.726 85.108ZM265.452 85.108C265.092 85.108 264.728 85.064 264.36 84.976C264 84.888 263.664 84.736 263.352 84.52C263.272 84.464 263.216 84.4 263.184 84.328C263.152 84.248 263.14 84.172 263.148 84.1C263.164 84.02 263.196 83.952 263.244 83.896C263.3 83.84 263.364 83.808 263.436 83.8C263.516 83.784 263.604 83.8 263.7 83.848C264.012 84.04 264.312 84.176 264.6 84.256C264.896 84.328 265.188 84.364 265.476 84.364C265.932 84.364 266.276 84.28 266.508 84.112C266.74 83.944 266.856 83.716 266.856 83.428C266.856 83.204 266.78 83.028 266.628 82.9C266.476 82.764 266.236 82.66 265.908 82.588L264.816 82.348C264.312 82.244 263.936 82.064 263.688 81.808C263.448 81.552 263.328 81.22 263.328 80.812C263.328 80.452 263.42 80.144 263.604 79.888C263.796 79.624 264.064 79.42 264.408 79.276C264.752 79.132 265.152 79.06 265.608 79.06C265.96 79.06 266.292 79.108 266.604 79.204C266.924 79.292 267.212 79.436 267.468 79.636C267.548 79.692 267.6 79.76 267.624 79.84C267.656 79.912 267.66 79.988 267.636 80.068C267.62 80.14 267.584 80.204 267.528 80.26C267.472 80.308 267.404 80.336 267.324 80.344C267.244 80.352 267.16 80.328 267.072 80.272C266.832 80.112 266.588 79.996 266.34 79.924C266.092 79.844 265.848 79.804 265.608 79.804C265.16 79.804 264.82 79.892 264.588 80.068C264.356 80.244 264.24 80.476 264.24 80.764C264.24 80.988 264.312 81.172 264.456 81.316C264.6 81.46 264.824 81.564 265.128 81.628L266.22 81.856C266.74 81.968 267.128 82.148 267.384 82.396C267.648 82.636 267.78 82.964 267.78 83.38C267.78 83.908 267.568 84.328 267.144 84.64C266.72 84.952 266.156 85.108 265.452 85.108ZM271.543 85.108C271.087 85.108 270.703 85.028 270.391 84.868C270.087 84.7 269.859 84.46 269.707 84.148C269.555 83.828 269.479 83.44 269.479 82.984V79.924H268.675C268.539 79.924 268.435 79.892 268.363 79.828C268.291 79.756 268.255 79.66 268.255 79.54C268.255 79.42 268.291 79.328 268.363 79.264C268.435 79.2 268.539 79.168 268.675 79.168H269.479V77.788C269.479 77.628 269.523 77.508 269.611 77.428C269.699 77.34 269.819 77.296 269.971 77.296C270.123 77.296 270.239 77.34 270.319 77.428C270.407 77.508 270.451 77.628 270.451 77.788V79.168H271.963C272.099 79.168 272.203 79.2 272.275 79.264C272.347 79.328 272.383 79.42 272.383 79.54C272.383 79.66 272.347 79.756 272.275 79.828C272.203 79.892 272.099 79.924 271.963 79.924H270.451V82.888C270.451 83.344 270.547 83.692 270.739 83.932C270.931 84.164 271.243 84.28 271.675 84.28C271.827 84.28 271.955 84.264 272.059 84.232C272.171 84.2 272.263 84.184 272.335 84.184C272.407 84.176 272.467 84.2 272.515 84.256C272.563 84.312 272.587 84.408 272.587 84.544C272.587 84.64 272.567 84.728 272.527 84.808C272.495 84.888 272.435 84.944 272.347 84.976C272.251 85.008 272.123 85.036 271.963 85.06C271.811 85.092 271.671 85.108 271.543 85.108ZM275.764 85.108C275.196 85.108 274.704 84.984 274.288 84.736C273.872 84.488 273.548 84.14 273.316 83.692C273.092 83.236 272.98 82.7 272.98 82.084C272.98 81.62 273.044 81.204 273.172 80.836C273.3 80.46 273.488 80.14 273.736 79.876C273.984 79.612 274.276 79.412 274.612 79.276C274.956 79.132 275.34 79.06 275.764 79.06C276.332 79.06 276.824 79.184 277.24 79.432C277.656 79.68 277.976 80.032 278.2 80.488C278.432 80.936 278.548 81.468 278.548 82.084C278.548 82.548 278.484 82.964 278.356 83.332C278.228 83.7 278.04 84.02 277.792 84.292C277.544 84.556 277.248 84.76 276.904 84.904C276.568 85.04 276.188 85.108 275.764 85.108ZM275.764 84.328C276.124 84.328 276.44 84.24 276.712 84.064C276.984 83.888 277.192 83.632 277.336 83.296C277.488 82.96 277.564 82.556 277.564 82.084C277.564 81.356 277.4 80.8 277.072 80.416C276.752 80.032 276.316 79.84 275.764 79.84C275.396 79.84 275.076 79.928 274.804 80.104C274.54 80.272 274.332 80.524 274.18 80.86C274.036 81.188 273.964 81.596 273.964 82.084C273.964 82.804 274.128 83.36 274.456 83.752C274.784 84.136 275.22 84.328 275.764 84.328ZM280.5 85.084C280.34 85.084 280.216 85.04 280.128 84.952C280.048 84.864 280.008 84.74 280.008 84.58V79.576C280.008 79.416 280.048 79.296 280.128 79.216C280.208 79.128 280.324 79.084 280.476 79.084C280.628 79.084 280.744 79.128 280.824 79.216C280.912 79.296 280.956 79.416 280.956 79.576V80.548H280.836C280.964 80.076 281.208 79.712 281.568 79.456C281.928 79.2 282.372 79.064 282.9 79.048C283.02 79.04 283.116 79.068 283.188 79.132C283.26 79.188 283.3 79.288 283.308 79.432C283.316 79.568 283.284 79.676 283.212 79.756C283.14 79.836 283.028 79.884 282.876 79.9L282.684 79.924C282.14 79.972 281.72 80.148 281.424 80.452C281.136 80.748 280.992 81.156 280.992 81.676V84.58C280.992 84.74 280.948 84.864 280.86 84.952C280.78 85.04 280.66 85.084 280.5 85.084ZM286.866 85.108C286.25 85.108 285.718 84.988 285.27 84.748C284.83 84.5 284.486 84.152 284.238 83.704C283.998 83.256 283.878 82.72 283.878 82.096C283.878 81.488 283.998 80.96 284.238 80.512C284.478 80.056 284.806 79.7 285.222 79.444C285.646 79.188 286.134 79.06 286.686 79.06C287.078 79.06 287.43 79.128 287.742 79.264C288.054 79.392 288.318 79.58 288.534 79.828C288.758 80.076 288.926 80.376 289.038 80.728C289.158 81.08 289.218 81.476 289.218 81.916C289.218 82.044 289.182 82.14 289.11 82.204C289.038 82.26 288.934 82.288 288.798 82.288H284.622V81.652H288.57L288.378 81.808C288.378 81.376 288.314 81.012 288.186 80.716C288.058 80.412 287.87 80.18 287.622 80.02C287.382 79.86 287.078 79.78 286.71 79.78C286.302 79.78 285.954 79.876 285.666 80.068C285.386 80.252 285.174 80.512 285.03 80.848C284.886 81.176 284.814 81.56 284.814 82V82.072C284.814 82.808 284.99 83.368 285.342 83.752C285.702 84.136 286.21 84.328 286.866 84.328C287.138 84.328 287.406 84.292 287.67 84.22C287.942 84.148 288.206 84.028 288.462 83.86C288.574 83.788 288.674 83.756 288.762 83.764C288.858 83.764 288.934 83.792 288.99 83.848C289.046 83.896 289.082 83.96 289.098 84.04C289.122 84.112 289.114 84.192 289.074 84.28C289.042 84.368 288.974 84.444 288.87 84.508C288.606 84.7 288.294 84.848 287.934 84.952C287.574 85.056 287.218 85.108 286.866 85.108Z" fill="#212121"/>
<defs>
<clipPath id="clip0_2210_5895">
<rect width="40" height="40" fill="white" transform="translate(141 54)"/>
</clipPath>
<clipPath id="clip1_2210_5895">
<rect width="38.6728" height="38.6728" fill="white" transform="translate(482.664 56)"/>
</clipPath>
</defs>
</svg>
