<svg width="1920" height="380" viewBox="0 0 1920 380" fill="none" xmlns="http://www.w3.org/2000/svg">
<mask id="mask0_602_1618" style="mask-type:alpha" maskUnits="userSpaceOnUse" x="0" y="0" width="1920" height="380">
<rect width="1920" height="380" fill="#212121"/>
</mask>
<g mask="url(#mask0_602_1618)">
<rect width="1920" height="380" fill="black"/>
<g filter="url(#filter0_f_602_1618)">
<ellipse cx="948.32" cy="556.778" rx="354.175" ry="342.216" fill="url(#paint0_linear_602_1618)"/>
</g>
<path opacity="0.2" d="M232.226 333.064L231.504 332.919C230.367 332.689 229.338 332.09 228.579 331.214C227.819 330.339 227.372 329.237 227.307 328.081C226.532 314.357 221.135 301.297 211.99 291.015C202.845 280.734 190.489 273.835 176.923 271.436C163.357 269.037 149.376 271.279 137.247 277.799C125.118 284.318 115.551 294.733 110.096 307.355L110.095 307.356C109.798 308.041 109.357 308.655 108.803 309.156C108.248 309.657 107.592 310.034 106.88 310.262C106.168 310.489 105.415 310.562 104.672 310.476C103.929 310.389 103.213 310.145 102.572 309.759L102.571 309.759C96.4554 306.065 89.4979 303.985 82.3538 303.715C75.2097 303.445 68.1143 304.993 61.7354 308.213C55.3566 311.434 49.9042 316.221 45.8916 322.124C41.8791 328.027 39.4382 334.851 38.7987 341.955C38.7362 342.669 38.5275 343.362 38.1854 343.993C37.8434 344.623 37.3753 345.177 36.8102 345.619M232.226 333.064L36.5016 345.226M232.226 333.064C238.069 334.329 243.579 336.817 248.39 340.368C253.399 344.066 257.526 348.824 260.474 354.3C263.423 359.777 265.12 365.837 265.443 372.045C265.767 378.253 264.709 384.456 262.346 390.208C259.983 395.961 256.373 401.12 251.775 405.316C247.177 409.511 241.705 412.64 235.752 414.477C229.799 416.313 223.512 416.813 217.343 415.939C211.173 415.065 205.274 412.839 200.069 409.422L200.068 409.421C199.382 408.973 198.601 408.691 197.786 408.599C196.972 408.506 196.147 408.605 195.378 408.888C194.609 409.171 193.916 409.63 193.357 410.228C192.797 410.826 192.386 411.547 192.156 412.333L192.156 412.333C189.431 421.691 184.103 430.087 176.789 436.547C169.476 443.007 160.477 447.266 150.836 448.831C141.195 450.396 131.307 449.202 122.318 445.388C113.329 441.574 105.608 435.296 100.051 427.282L100.05 427.281C99.2887 426.186 98.1374 425.423 96.8313 425.146C95.5252 424.868 94.1623 425.099 93.0203 425.789L93.0192 425.79C88.5555 428.505 83.5035 430.112 78.288 430.475C73.0725 430.837 67.8461 429.945 63.048 427.874C58.2499 425.802 54.0205 422.612 50.7154 418.57C47.4102 414.529 45.1259 409.755 44.0543 404.651C43.9033 403.931 43.6024 403.252 43.1711 402.657C42.7398 402.061 42.1878 401.563 41.5511 401.195L41.5487 401.193C40.911 400.829 40.2044 400.601 39.4737 400.524C38.7431 400.446 38.0043 400.521 37.3042 400.744L37.2985 400.746C33.2795 402.077 29.0102 402.481 24.812 401.927C20.6139 401.373 16.5966 399.875 13.0629 397.547C9.52921 395.219 6.57126 392.122 4.41186 388.488C2.25247 384.854 0.947952 380.778 0.596535 376.568C0.245118 372.358 0.855963 368.124 2.38307 364.183C3.91019 360.243 6.31376 356.7 9.41276 353.821C12.5118 350.942 16.2254 348.802 20.2738 347.563C24.3216 346.324 28.5986 346.017 32.7824 346.667M232.226 333.064L32.8607 346.173M36.8102 345.619C36.8101 345.619 36.8099 345.619 36.8098 345.619L36.5016 345.226M36.8102 345.619C36.8104 345.619 36.8106 345.619 36.8108 345.618L36.5016 345.226M36.8102 345.619C36.2477 346.061 35.5995 346.383 34.9064 346.563C34.2131 346.744 33.4899 346.779 32.7824 346.667M36.5016 345.226C35.9931 345.626 35.4071 345.916 34.7805 346.079C34.1539 346.242 33.5003 346.274 32.8607 346.173M32.7824 346.667C32.7829 346.667 32.7835 346.667 32.784 346.667L32.8607 346.173M32.7824 346.667L32.8607 346.173M197.73 409.095C198.467 409.179 199.174 409.434 199.794 409.84L37.4557 401.22C38.0899 401.019 38.7592 400.951 39.4211 401.021C40.083 401.091 40.723 401.298 41.3007 401.627C41.8767 401.961 42.3761 402.411 42.7662 402.95C43.1563 403.489 43.4284 404.103 43.5649 404.753C44.653 409.937 46.9725 414.784 50.3283 418.887C53.6842 422.99 57.9783 426.23 62.8498 428.333C67.7212 430.436 73.0276 431.342 78.3227 430.973C83.6179 430.605 88.7471 428.974 93.2791 426.217C94.3123 425.592 95.5456 425.384 96.7275 425.635C97.9094 425.885 98.951 426.576 99.6399 427.567C105.252 435.658 113.047 441.997 122.123 445.848C131.198 449.699 141.182 450.905 150.916 449.325C160.65 447.745 169.736 443.444 177.12 436.922C184.505 430.399 189.884 421.922 192.636 412.473C192.844 411.763 193.216 411.111 193.722 410.57C194.228 410.029 194.854 409.613 195.55 409.357C196.246 409.101 196.993 409.012 197.73 409.095Z" fill="url(#paint1_linear_602_1618)" stroke="#3432CA"/>
<path opacity="0.2" d="M1886.23 -26.9356L1885.5 -27.0812C1884.37 -27.3109 1883.34 -27.9102 1882.58 -28.7855C1881.82 -29.6609 1881.37 -30.763 1881.31 -31.9193C1880.53 -45.6429 1875.13 -58.7035 1865.99 -68.9846C1856.85 -79.2657 1844.49 -86.1648 1830.92 -88.5636C1817.36 -90.9625 1803.38 -88.7205 1791.25 -82.201C1779.12 -75.6816 1769.55 -65.2668 1764.1 -52.6447L1764.1 -52.644C1763.8 -51.9587 1763.36 -51.3449 1762.8 -50.8438C1762.25 -50.3426 1761.59 -49.9656 1760.88 -49.7381C1760.17 -49.5106 1759.41 -49.4377 1758.67 -49.5244C1757.93 -49.6111 1757.21 -49.8553 1756.57 -50.2407L1756.57 -50.2412C1750.46 -53.9346 1743.5 -56.0145 1736.35 -56.2849C1729.21 -56.5553 1722.11 -55.0073 1715.74 -51.7868C1709.36 -48.5662 1703.9 -43.7791 1699.89 -37.8761C1695.88 -31.9733 1693.44 -25.1488 1692.8 -18.0453C1692.74 -17.3312 1692.53 -16.6375 1692.19 -16.0073C1691.84 -15.377 1691.38 -14.8235 1690.81 -14.3811M1886.23 -26.9356L1690.5 -14.7745M1886.23 -26.9356C1892.07 -25.6714 1897.58 -23.1829 1902.39 -19.6317C1907.4 -15.9342 1911.53 -11.1763 1914.47 -5.6996C1917.42 -0.22287 1919.12 5.83699 1919.44 12.0452C1919.77 18.2534 1918.71 24.4562 1916.35 30.2084C1913.98 35.9606 1910.37 41.1198 1905.77 45.3156C1901.18 49.5115 1895.71 52.64 1889.75 54.4767C1883.8 56.3135 1877.51 56.8127 1871.34 55.9388C1865.17 55.0648 1859.27 52.8392 1854.07 49.4218L1854.07 49.4213C1853.38 48.973 1852.6 48.6912 1851.79 48.5986C1850.97 48.5061 1850.15 48.6052 1849.38 48.8882C1848.61 49.1711 1847.92 49.63 1847.36 50.2281C1846.8 50.8263 1846.39 51.547 1846.16 52.3326L1846.16 52.3333C1843.43 61.6913 1838.1 70.0871 1830.79 76.547C1823.48 83.0069 1814.48 87.2663 1804.84 88.8311C1795.19 90.3959 1785.31 89.202 1776.32 85.3879C1767.33 81.5738 1759.61 75.2958 1754.05 67.282L1754.05 67.2815C1753.29 66.1864 1752.14 65.4227 1750.83 65.1455C1749.53 64.8683 1748.16 65.0985 1747.02 65.7894L1747.02 65.79C1742.56 68.5055 1737.5 70.112 1732.29 70.4747C1727.07 70.8373 1721.85 69.9453 1717.05 67.8737C1712.25 65.8022 1708.02 62.6116 1704.72 58.5704C1701.41 54.5292 1699.13 49.7555 1698.05 44.6505C1697.9 43.9314 1697.6 43.2521 1697.17 42.6567C1696.74 42.0613 1696.19 41.5632 1695.55 41.1947L1695.55 41.1933C1694.91 40.829 1694.2 40.601 1693.47 40.5236C1692.74 40.4462 1692 40.5211 1691.3 40.7436L1691.3 40.7455C1687.28 42.0768 1683.01 42.4807 1678.81 41.9267C1674.61 41.3726 1670.6 39.8752 1667.06 37.5472C1663.53 35.2193 1660.57 32.1216 1658.41 28.4876C1656.25 24.8536 1654.95 20.7781 1654.6 16.5681C1654.25 12.3582 1654.86 8.12354 1656.38 4.18329C1657.91 0.243027 1660.31 -3.30013 1663.41 -6.17916C1666.51 -9.0582 1670.23 -11.198 1674.27 -12.4372C1678.32 -13.6763 1682.6 -13.9828 1686.78 -13.3334M1886.23 -26.9356L1686.86 -13.8272M1690.81 -14.3811C1690.81 -14.381 1690.81 -14.3808 1690.81 -14.3807L1690.5 -14.7745M1690.81 -14.3811C1690.81 -14.3812 1690.81 -14.3814 1690.81 -14.3815L1690.5 -14.7745M1690.81 -14.3811C1690.25 -13.9385 1689.6 -13.617 1688.91 -13.4367C1688.21 -13.2563 1687.49 -13.2212 1686.78 -13.3334M1690.5 -14.7745C1689.99 -14.3743 1689.41 -14.0836 1688.78 -13.9206C1688.15 -13.7576 1687.5 -13.7258 1686.86 -13.8272M1686.78 -13.3334C1686.78 -13.3333 1686.78 -13.3333 1686.78 -13.3332L1686.86 -13.8272M1686.78 -13.3334L1686.86 -13.8272M1851.73 49.0954C1852.47 49.1792 1853.17 49.4342 1853.79 49.8398L1691.46 41.2202C1692.09 41.0186 1692.76 40.9507 1693.42 41.0208C1694.08 41.0909 1694.72 41.2975 1695.3 41.6275C1695.88 41.9608 1696.38 42.4115 1696.77 42.95C1697.16 43.4885 1697.43 44.1029 1697.56 44.7533C1698.65 49.9367 1700.97 54.7838 1704.33 58.887C1707.68 62.9901 1711.98 66.2295 1716.85 68.3328C1721.72 70.436 1727.03 71.3416 1732.32 70.9734C1737.62 70.6053 1742.75 68.9742 1747.28 66.2172C1748.31 65.5921 1749.55 65.3838 1750.73 65.6346C1751.91 65.8854 1752.95 66.5765 1753.64 67.567C1759.25 75.6585 1767.05 81.9973 1776.12 85.8482C1785.2 89.6992 1795.18 90.9046 1804.92 89.3247C1814.65 87.7447 1823.74 83.4442 1831.12 76.9217C1838.5 70.3993 1843.88 61.922 1846.64 52.4731C1846.84 51.7627 1847.22 51.1108 1847.72 50.5697C1848.23 50.0286 1848.85 49.6134 1849.55 49.3574C1850.25 49.1014 1850.99 49.0117 1851.73 49.0954Z" fill="url(#paint2_linear_602_1618)" stroke="#3432CA"/>
<path opacity="0.2" d="M781.263 413L781.263 -44M838.928 413L838.928 -44M896.594 413L896.594 -44M954.26 413L954.26 -44M1011.93 413L1011.93 -44M1069.59 413L1069.59 -44M1127.26 413L1127.26 -44M726 11.2629H1183M726 68.9285H1183M726 126.594H1183M726 184.26H1183M726 241.925H1183M726 299.591H1183M726 357.257H1183" stroke="url(#paint3_radial_602_1618)"/>
</g>
<defs>
<filter id="filter0_f_602_1618" x="294.145" y="-85.4385" width="1308.35" height="1284.43" filterUnits="userSpaceOnUse" color-interpolation-filters="sRGB">
<feFlood flood-opacity="0" result="BackgroundImageFix"/>
<feBlend mode="normal" in="SourceGraphic" in2="BackgroundImageFix" result="shape"/>
<feGaussianBlur stdDeviation="150" result="effect1_foregroundBlur_602_1618"/>
</filter>
<linearGradient id="paint0_linear_602_1618" x1="636.086" y1="625.221" x2="1262.65" y2="558.258" gradientUnits="userSpaceOnUse">
<stop stop-color="#3432CA"/>
<stop offset="1" stop-color="#009900"/>
</linearGradient>
<linearGradient id="paint1_linear_602_1618" x1="133.438" y1="260.312" x2="133.438" y2="495.688" gradientUnits="userSpaceOnUse">
<stop stop-color="#3432CA"/>
<stop offset="1"/>
</linearGradient>
<linearGradient id="paint2_linear_602_1618" x1="1787.44" y1="135.688" x2="1787.44" y2="-99.6875" gradientUnits="userSpaceOnUse">
<stop stop-color="#3432CA"/>
<stop offset="1"/>
</linearGradient>
<radialGradient id="paint3_radial_602_1618" cx="0" cy="0" r="1" gradientUnits="userSpaceOnUse" gradientTransform="translate(954.5 184.5) rotate(90) scale(228.5)">
<stop stop-color="white"/>
<stop offset="1" stop-color="white" stop-opacity="0"/>
</radialGradient>
</defs>
</svg>
