<svg width="695" height="471" viewBox="0 0 695 471" fill="none" xmlns="http://www.w3.org/2000/svg">
<rect width="695" height="471" rx="24" fill="url(#paint0_linear_774_6023)"/>
<mask id="mask0_774_6023" style="mask-type:alpha" maskUnits="userSpaceOnUse" x="0" y="0" width="695" height="471">
<rect width="695" height="471" rx="24" fill="url(#paint1_linear_774_6023)"/>
</mask>
<g mask="url(#mask0_774_6023)">
<path fill-rule="evenodd" clip-rule="evenodd" d="M17.8892 344.5L-72 292.583L-5.74652 177.917L84.195 229.745L84.2457 126H216.754L216.805 229.745L306.746 177.917L373 292.583L283.11 344.5L373 396.417L306.746 511.083L216.805 459.255L216.754 563H84.2457L84.195 459.255L-5.74652 511.083L-72 396.417L17.8892 344.5Z" fill="#3432CA" fill-opacity="0.3"/>
</g>
<rect x="60.75" y="183.75" width="573.5" height="226.5" rx="23.25" fill="url(#paint2_linear_774_6023)" stroke="url(#paint3_linear_774_6023)" stroke-width="1.5"/>
<path d="M175.303 251.416C172.743 251.416 170.481 250.893 168.519 249.848C166.577 248.803 165.063 247.352 163.975 245.496C162.908 243.619 162.375 241.453 162.375 239C162.375 236.547 162.908 234.392 163.975 232.536C165.063 230.68 166.577 229.229 168.519 228.184C170.481 227.139 172.743 226.616 175.303 226.616C176.583 226.616 177.724 226.733 178.727 226.968C179.729 227.203 180.519 227.416 181.095 227.608L182.567 227.864C182.887 227.907 183.121 227.981 183.271 228.088C183.42 228.173 183.527 228.344 183.591 228.6C183.655 228.856 183.697 229.261 183.719 229.816L184.071 235.192C184.092 235.384 183.996 235.501 183.783 235.544L182.535 235.704C182.321 235.747 182.183 235.661 182.119 235.448L180.871 232.44C180.721 232.099 180.593 231.843 180.487 231.672C180.38 231.501 180.22 231.309 180.007 231.096C179.409 230.584 178.727 230.2 177.959 229.944C177.212 229.688 176.38 229.56 175.463 229.56C173.969 229.56 172.679 229.933 171.591 230.68C170.503 231.427 169.671 232.515 169.095 233.944C168.519 235.352 168.231 237.037 168.231 239C168.231 240.963 168.508 242.648 169.063 244.056C169.639 245.464 170.449 246.552 171.495 247.32C172.561 248.088 173.809 248.472 175.239 248.472C176.199 248.472 177.063 248.355 177.831 248.12C178.62 247.864 179.324 247.491 179.943 247C180.22 246.701 180.412 246.477 180.519 246.328C180.625 246.157 180.732 245.944 180.839 245.688L182.119 242.584C182.183 242.371 182.321 242.285 182.535 242.328L183.783 242.488C183.996 242.531 184.092 242.648 184.071 242.84L183.687 248.888C183.665 249.208 183.612 249.453 183.527 249.624C183.463 249.773 183.303 249.901 183.047 250.008C182.812 250.093 182.417 250.189 181.863 250.296L181.095 250.424C180.519 250.616 179.729 250.829 178.727 251.064C177.724 251.299 176.583 251.416 175.303 251.416ZM190.802 251V227.032H196.21V247.48C196.21 247.864 196.285 248.131 196.434 248.28C196.583 248.408 196.818 248.472 197.138 248.472H203.41C203.794 248.472 204.093 248.408 204.306 248.28C204.541 248.131 204.743 247.928 204.914 247.672L206.738 244.728C206.866 244.557 207.037 244.504 207.25 244.568L208.178 244.824C208.37 244.888 208.455 245.027 208.434 245.24L207.698 250.136C207.655 250.435 207.581 250.669 207.474 250.84C207.389 250.989 207.218 251.075 206.962 251.096C206.706 251.117 206.301 251.117 205.746 251.096L203.922 251H190.802ZM187.762 251C187.549 251 187.442 250.893 187.442 250.68V249.976C187.442 249.784 187.549 249.656 187.762 249.592L190.002 248.984C190.365 248.856 190.589 248.728 190.674 248.6C190.759 248.472 190.802 248.248 190.802 247.928V244.376H196.21V251H187.762ZM187.442 227.352C187.442 227.139 187.549 227.032 187.762 227.032H199.314C199.527 227.032 199.634 227.139 199.634 227.352V228.024C199.634 228.216 199.538 228.355 199.346 228.44L196.946 229.08C196.669 229.165 196.477 229.272 196.37 229.4C196.263 229.528 196.21 229.784 196.21 230.168V233.656H190.802V230.104C190.802 229.784 190.759 229.56 190.674 229.432C190.589 229.283 190.365 229.155 190.002 229.048L187.762 228.44C187.549 228.376 187.442 228.248 187.442 228.056V227.352ZM223.334 251.416C220.774 251.416 218.513 250.904 216.55 249.88C214.609 248.835 213.094 247.384 212.006 245.528C210.939 243.651 210.406 241.475 210.406 239C210.406 236.547 210.95 234.392 212.038 232.536C213.126 230.68 214.641 229.229 216.582 228.184C218.523 227.139 220.774 226.616 223.334 226.616C225.937 226.616 228.219 227.139 230.182 228.184C232.145 229.208 233.659 230.659 234.726 232.536C235.814 234.392 236.358 236.547 236.358 239C236.358 241.475 235.814 243.651 234.726 245.528C233.659 247.384 232.145 248.835 230.182 249.88C228.241 250.904 225.958 251.416 223.334 251.416ZM223.302 248.472C224.795 248.472 226.086 248.099 227.174 247.352C228.262 246.584 229.094 245.507 229.67 244.12C230.246 242.712 230.534 241.037 230.534 239.096C230.534 237.155 230.235 235.469 229.638 234.04C229.041 232.611 228.198 231.512 227.11 230.744C226.022 229.955 224.731 229.56 223.238 229.56C221.787 229.56 220.539 229.933 219.494 230.68C218.449 231.427 217.638 232.504 217.062 233.912C216.507 235.299 216.23 236.973 216.23 238.936C216.23 240.877 216.518 242.563 217.094 243.992C217.67 245.4 218.491 246.499 219.558 247.288C220.625 248.077 221.873 248.472 223.302 248.472ZM262.247 242.168C262.247 245.112 261.351 247.395 259.559 249.016C257.767 250.616 255.218 251.416 251.911 251.416C248.69 251.416 246.194 250.68 244.423 249.208C242.652 247.736 241.767 245.645 241.767 242.936V227.032H247.175V243.416C247.175 244.973 247.666 246.211 248.647 247.128C249.65 248.024 251.026 248.472 252.775 248.472C254.546 248.472 255.932 247.96 256.935 246.936C257.959 245.891 258.471 244.461 258.471 242.648V227.032H262.247V242.168ZM238.407 227.352C238.407 227.139 238.514 227.032 238.727 227.032H250.279C250.492 227.032 250.599 227.139 250.599 227.352V228.024C250.599 228.216 250.503 228.355 250.311 228.44L247.911 229.08C247.634 229.165 247.442 229.272 247.335 229.4C247.228 229.528 247.175 229.784 247.175 230.168V233.656H241.767V230.104C241.767 229.784 241.724 229.56 241.639 229.432C241.554 229.283 241.33 229.155 240.967 229.048L238.727 228.44C238.514 228.376 238.407 228.248 238.407 228.056V227.352ZM255.079 227.352C255.079 227.139 255.186 227.032 255.399 227.032H265.383C265.596 227.032 265.703 227.139 265.703 227.352V228.024C265.703 228.216 265.607 228.355 265.415 228.44L263.015 229.08C262.716 229.165 262.514 229.272 262.407 229.4C262.3 229.528 262.247 229.784 262.247 230.168V233.656H258.471V230.104C258.471 229.784 258.428 229.56 258.343 229.432C258.258 229.283 258.034 229.155 257.671 229.048L255.399 228.44C255.186 228.376 255.079 228.248 255.079 228.056V227.352ZM270.552 251V227.032H275.96V247.48C275.96 247.864 276.035 248.131 276.184 248.28C276.333 248.408 276.568 248.472 276.888 248.472H278.84C280.376 248.472 281.688 248.099 282.776 247.352C283.864 246.584 284.696 245.496 285.272 244.088C285.869 242.659 286.168 240.963 286.168 239C286.168 237.037 285.869 235.352 285.272 233.944C284.696 232.536 283.864 231.459 282.776 230.712C281.688 229.944 280.376 229.56 278.84 229.56H275.96V227.032H278.84C281.635 227.032 284.013 227.501 285.976 228.44C287.96 229.379 289.464 230.744 290.488 232.536C291.512 234.307 292.024 236.461 292.024 239C292.024 241.539 291.501 243.704 290.456 245.496C289.432 247.288 287.939 248.653 285.976 249.592C284.013 250.531 281.635 251 278.84 251H270.552ZM267.192 227.352C267.192 227.139 267.299 227.032 267.512 227.032H275.96V233.656H270.552V230.104C270.552 229.784 270.509 229.56 270.424 229.432C270.339 229.283 270.115 229.155 269.752 229.048L267.512 228.44C267.299 228.376 267.192 228.248 267.192 228.056V227.352ZM267.512 251C267.299 251 267.192 250.893 267.192 250.68V249.976C267.192 249.784 267.299 249.656 267.512 249.592L269.752 248.984C270.115 248.856 270.339 248.728 270.424 248.6C270.509 248.472 270.552 248.248 270.552 247.928V244.376H275.96V251H267.512ZM317.146 251.416C314.586 251.416 312.325 250.893 310.362 249.848C308.421 248.803 306.906 247.352 305.818 245.496C304.752 243.619 304.218 241.453 304.218 239C304.218 236.547 304.752 234.392 305.818 232.536C306.906 230.68 308.421 229.229 310.362 228.184C312.325 227.139 314.586 226.616 317.146 226.616C318.426 226.616 319.568 226.733 320.57 226.968C321.573 227.203 322.362 227.416 322.938 227.608L324.41 227.864C324.73 227.907 324.965 227.981 325.114 228.088C325.264 228.173 325.37 228.344 325.434 228.6C325.498 228.856 325.541 229.261 325.562 229.816L325.914 235.192C325.936 235.384 325.84 235.501 325.626 235.544L324.378 235.704C324.165 235.747 324.026 235.661 323.962 235.448L322.714 232.44C322.565 232.099 322.437 231.843 322.33 231.672C322.224 231.501 322.064 231.309 321.85 231.096C321.253 230.584 320.57 230.2 319.802 229.944C319.056 229.688 318.224 229.56 317.306 229.56C315.813 229.56 314.522 229.933 313.434 230.68C312.346 231.427 311.514 232.515 310.938 233.944C310.362 235.352 310.074 237.037 310.074 239C310.074 240.963 310.352 242.648 310.906 244.056C311.482 245.464 312.293 246.552 313.338 247.32C314.405 248.088 315.653 248.472 317.082 248.472C318.042 248.472 318.906 248.355 319.674 248.12C320.464 247.864 321.168 247.491 321.786 247C322.064 246.701 322.256 246.477 322.362 246.328C322.469 246.157 322.576 245.944 322.682 245.688L323.962 242.584C324.026 242.371 324.165 242.285 324.378 242.328L325.626 242.488C325.84 242.531 325.936 242.648 325.914 242.84L325.53 248.888C325.509 249.208 325.456 249.453 325.37 249.624C325.306 249.773 325.146 249.901 324.89 250.008C324.656 250.093 324.261 250.189 323.706 250.296L322.938 250.424C322.362 250.616 321.573 250.829 320.57 251.064C319.568 251.299 318.426 251.416 317.146 251.416ZM343.334 251.416C340.774 251.416 338.513 250.904 336.55 249.88C334.609 248.835 333.094 247.384 332.006 245.528C330.939 243.651 330.406 241.475 330.406 239C330.406 236.547 330.95 234.392 332.038 232.536C333.126 230.68 334.641 229.229 336.582 228.184C338.523 227.139 340.774 226.616 343.334 226.616C345.937 226.616 348.219 227.139 350.182 228.184C352.145 229.208 353.659 230.659 354.726 232.536C355.814 234.392 356.358 236.547 356.358 239C356.358 241.475 355.814 243.651 354.726 245.528C353.659 247.384 352.145 248.835 350.182 249.88C348.241 250.904 345.958 251.416 343.334 251.416ZM343.302 248.472C344.795 248.472 346.086 248.099 347.174 247.352C348.262 246.584 349.094 245.507 349.67 244.12C350.246 242.712 350.534 241.037 350.534 239.096C350.534 237.155 350.235 235.469 349.638 234.04C349.041 232.611 348.198 231.512 347.11 230.744C346.022 229.955 344.731 229.56 343.238 229.56C341.787 229.56 340.539 229.933 339.494 230.68C338.449 231.427 337.638 232.504 337.062 233.912C336.507 235.299 336.23 236.973 336.23 238.936C336.23 240.877 336.518 242.563 337.094 243.992C337.67 245.4 338.491 246.499 339.558 247.288C340.625 248.077 341.873 248.472 343.302 248.472ZM358.311 251C358.098 251 357.991 250.893 357.991 250.68V249.976C357.991 249.763 358.098 249.635 358.311 249.592L360.647 249.048C360.946 248.963 361.148 248.867 361.255 248.76C361.383 248.632 361.458 248.376 361.479 247.992L362.727 229.848C362.77 229.464 362.716 229.197 362.567 229.048C362.418 228.877 362.183 228.771 361.863 228.728L359.687 228.408C359.474 228.365 359.367 228.237 359.367 228.024V227.352C359.367 227.139 359.474 227.032 359.687 227.032H368.871C369.084 227.032 369.212 227.053 369.255 227.096C369.298 227.139 369.319 227.267 369.319 227.48V227.672C369.319 228.227 369.362 228.707 369.447 229.112C369.532 229.517 369.682 229.976 369.895 230.488L376.423 246.808L373.671 248.6L380.455 230.584C380.69 229.965 380.839 229.453 380.903 229.048C380.988 228.621 381.031 228.184 381.031 227.736V227.48C381.031 227.267 381.052 227.139 381.095 227.096C381.138 227.053 381.266 227.032 381.479 227.032H390.311C390.524 227.032 390.631 227.139 390.631 227.352V228.056C390.631 228.248 390.524 228.365 390.311 228.408L388.327 228.696C387.964 228.76 387.719 228.888 387.591 229.08C387.463 229.251 387.41 229.496 387.431 229.816L389.287 248.088C389.33 248.472 389.404 248.728 389.511 248.856C389.639 248.963 389.842 249.059 390.119 249.144L392.359 249.624C392.551 249.667 392.647 249.795 392.647 250.008V250.68C392.647 250.893 392.54 251 392.327 251H380.903C380.711 251 380.615 250.893 380.615 250.68V249.976C380.615 249.763 380.722 249.645 380.935 249.624L383.143 249.144C383.527 249.037 383.751 248.931 383.815 248.824C383.9 248.696 383.932 248.472 383.911 248.152L382.023 229.432L384.167 228.856L375.591 250.712C375.527 250.904 375.388 251 375.175 251H373.351C373.159 251 373.01 250.904 372.903 250.712L363.495 228.856L365.767 228.344L364.487 248.056C364.466 248.355 364.498 248.579 364.583 248.728C364.69 248.856 364.924 248.963 365.287 249.048L367.495 249.592C367.687 249.656 367.783 249.795 367.783 250.008V250.68C367.783 250.893 367.676 251 367.463 251H358.311ZM397.177 251V227.032H402.585V251H397.177ZM394.137 251C393.924 251 393.817 250.893 393.817 250.68V249.976C393.817 249.784 393.924 249.656 394.137 249.592L396.377 248.984C396.74 248.856 396.964 248.728 397.049 248.6C397.134 248.472 397.177 248.248 397.177 247.928V244.376H402.585V247.736C402.585 248.099 402.638 248.344 402.745 248.472C402.852 248.579 403.054 248.664 403.353 248.728L407.097 249.592C407.31 249.656 407.417 249.795 407.417 250.008V250.68C407.417 250.893 407.31 251 407.097 251H394.137ZM393.817 227.352C393.817 227.139 393.924 227.032 394.137 227.032H402.585V233.656H397.177V230.104C397.177 229.784 397.134 229.56 397.049 229.432C396.964 229.283 396.74 229.155 396.377 229.048L394.137 228.44C393.924 228.376 393.817 228.248 393.817 228.056V227.352ZM402.585 239.064C402.884 239.085 403.204 239.107 403.545 239.128C403.886 239.149 404.228 239.16 404.569 239.16C406.212 239.16 407.428 238.755 408.217 237.944C409.006 237.133 409.401 235.896 409.401 234.232C409.401 231.117 407.886 229.56 404.857 229.56H402.585V227.032H405.433C408.398 227.032 410.713 227.672 412.377 228.952C414.041 230.211 414.873 231.971 414.873 234.232C414.873 236.6 414.094 238.435 412.537 239.736C410.98 241.037 408.782 241.688 405.945 241.688C405.39 241.688 404.825 241.677 404.249 241.656C403.694 241.613 403.14 241.56 402.585 241.496V239.064ZM439.935 242.168C439.935 245.112 439.039 247.395 437.247 249.016C435.455 250.616 432.905 251.416 429.599 251.416C426.377 251.416 423.881 250.68 422.111 249.208C420.34 247.736 419.455 245.645 419.455 242.936V227.032H424.863V243.416C424.863 244.973 425.353 246.211 426.335 247.128C427.337 248.024 428.713 248.472 430.463 248.472C432.233 248.472 433.62 247.96 434.623 246.936C435.647 245.891 436.159 244.461 436.159 242.648V227.032H439.935V242.168ZM416.095 227.352C416.095 227.139 416.201 227.032 416.415 227.032H427.967C428.18 227.032 428.287 227.139 428.287 227.352V228.024C428.287 228.216 428.191 228.355 427.999 228.44L425.599 229.08C425.321 229.165 425.129 229.272 425.023 229.4C424.916 229.528 424.863 229.784 424.863 230.168V233.656H419.455V230.104C419.455 229.784 419.412 229.56 419.327 229.432C419.241 229.283 419.017 229.155 418.655 229.048L416.415 228.44C416.201 228.376 416.095 228.248 416.095 228.056V227.352ZM432.767 227.352C432.767 227.139 432.873 227.032 433.087 227.032H443.071C443.284 227.032 443.391 227.139 443.391 227.352V228.024C443.391 228.216 443.295 228.355 443.103 228.44L440.703 229.08C440.404 229.165 440.201 229.272 440.095 229.4C439.988 229.528 439.935 229.784 439.935 230.168V233.656H436.159V230.104C436.159 229.784 436.116 229.56 436.031 229.432C435.945 229.283 435.721 229.155 435.359 229.048L433.087 228.44C432.873 228.376 432.767 228.248 432.767 228.056V227.352ZM452.848 251V227.032H458.224V251H452.848ZM465.52 226.712C465.818 226.648 466.042 226.637 466.192 226.68C466.341 226.723 466.437 226.872 466.48 227.128C466.544 227.363 466.586 227.757 466.608 228.312L466.768 233.688C466.768 233.88 466.661 233.987 466.448 234.008L465.52 234.136C465.328 234.179 465.189 234.093 465.104 233.88L463.76 230.456C463.589 230.115 463.397 229.88 463.184 229.752C462.992 229.624 462.736 229.56 462.416 229.56H448.752C448.368 229.56 448.08 229.635 447.888 229.784C447.696 229.933 447.536 230.157 447.408 230.456L446 233.88C445.936 234.093 445.786 234.179 445.552 234.136L444.656 234.008C444.442 233.965 444.336 233.848 444.336 233.656L444.496 227.608C444.517 227.288 444.56 227.053 444.624 226.904C444.688 226.755 444.848 226.68 445.104 226.68C445.36 226.68 445.754 226.723 446.288 226.808L447.12 226.904C447.973 226.925 448.805 226.947 449.616 226.968C450.426 226.989 451.301 227.011 452.24 227.032C453.178 227.032 454.288 227.032 455.568 227.032C456.826 227.032 457.936 227.032 458.896 227.032C459.877 227.011 460.773 226.989 461.584 226.968C462.394 226.947 463.194 226.925 463.984 226.904L465.52 226.712ZM449.808 251C449.594 251 449.488 250.893 449.488 250.68V249.976C449.488 249.784 449.594 249.656 449.808 249.592L452.048 248.984C452.389 248.856 452.602 248.728 452.688 248.6C452.794 248.472 452.848 248.248 452.848 247.928V244.376H458.224V247.864C458.224 248.248 458.277 248.504 458.384 248.632C458.512 248.76 458.714 248.867 458.992 248.952L461.392 249.592C461.584 249.677 461.68 249.816 461.68 250.008V250.68C461.68 250.893 461.573 251 461.36 251H449.808ZM471.302 251V227.032H476.71V251H471.302ZM468.262 251C468.049 251 467.942 250.893 467.942 250.68V249.976C467.942 249.784 468.049 249.656 468.262 249.592L470.502 248.984C470.865 248.856 471.089 248.728 471.174 248.6C471.259 248.472 471.302 248.248 471.302 247.928V244.376H476.71V247.864C476.71 248.248 476.763 248.504 476.87 248.632C476.977 248.76 477.169 248.867 477.446 248.952L479.846 249.592C480.038 249.677 480.134 249.816 480.134 250.008V250.68C480.134 250.893 480.027 251 479.814 251H468.262ZM467.942 227.352C467.942 227.139 468.049 227.032 468.262 227.032H479.814C480.027 227.032 480.134 227.139 480.134 227.352V228.024C480.134 228.216 480.038 228.355 479.846 228.44L477.446 229.08C477.169 229.165 476.977 229.272 476.87 229.4C476.763 229.528 476.71 229.784 476.71 230.168V233.656H471.302V230.104C471.302 229.784 471.259 229.56 471.174 229.432C471.089 229.283 470.865 229.155 470.502 229.048L468.262 228.44C468.049 228.376 467.942 228.248 467.942 228.056V227.352ZM505.56 229.08C505.262 229.165 505.059 229.272 504.952 229.4C504.846 229.528 504.792 229.784 504.792 230.168V250.84C504.792 251.053 504.686 251.16 504.472 251.16H502.808C502.595 251.16 502.414 251.075 502.264 250.904L485.944 231.16L488.472 228.632V247.928C488.472 248.248 488.515 248.472 488.6 248.6C488.707 248.728 488.931 248.856 489.272 248.984L491.48 249.56C491.672 249.667 491.768 249.816 491.768 250.008V250.68C491.768 250.893 491.662 251 491.448 251H482.168C481.955 251 481.848 250.893 481.848 250.68V249.976C481.848 249.784 481.955 249.656 482.168 249.592L484.536 248.952C484.814 248.867 485.006 248.76 485.112 248.632C485.24 248.504 485.304 248.248 485.304 247.864V230.296C485.304 229.912 485.23 229.635 485.08 229.464C484.931 229.272 484.707 229.133 484.408 229.048L482.136 228.44C481.944 228.355 481.848 228.216 481.848 228.024V227.352C481.848 227.139 481.955 227.032 482.168 227.032H488.888C489.102 227.032 489.272 227.107 489.4 227.256L503.96 244.888L501.592 248.664V230.104C501.592 229.784 501.539 229.56 501.432 229.432C501.347 229.283 501.123 229.155 500.76 229.048L498.616 228.472C498.424 228.365 498.328 228.216 498.328 228.024V227.352C498.328 227.139 498.435 227.032 498.648 227.032H507.928C508.12 227.032 508.216 227.139 508.216 227.352V228.056C508.216 228.248 508.12 228.376 507.928 228.44L505.56 229.08ZM523.02 229.56C521.591 229.56 520.343 229.944 519.276 230.712C518.209 231.48 517.388 232.568 516.812 233.976C516.257 235.363 515.98 237.037 515.98 239C515.98 240.963 516.268 242.648 516.844 244.056C517.42 245.464 518.231 246.552 519.276 247.32C520.343 248.088 521.591 248.472 523.02 248.472C523.895 248.472 524.716 248.397 525.484 248.248C526.273 248.099 526.977 247.885 527.596 247.608V242.84C527.596 242.456 527.543 242.211 527.436 242.104C527.329 241.997 527.127 241.912 526.828 241.848L523.564 241.272C523.372 241.251 523.276 241.133 523.276 240.92V239.768C523.276 239.555 523.383 239.448 523.596 239.448H534.572C534.785 239.448 534.892 239.555 534.892 239.768V240.92C534.892 241.133 534.796 241.272 534.604 241.336L533.388 241.72C533.025 241.827 532.791 241.955 532.684 242.104C532.599 242.253 532.556 242.477 532.556 242.776V246.552L532.78 248.44C532.801 248.653 532.791 248.803 532.748 248.888C532.705 248.952 532.599 249.037 532.428 249.144C531.34 249.848 529.985 250.403 528.364 250.808C526.743 251.213 524.983 251.416 523.084 251.416C520.524 251.416 518.263 250.893 516.3 249.848C514.359 248.803 512.844 247.352 511.756 245.496C510.689 243.619 510.156 241.453 510.156 239C510.156 236.547 510.689 234.392 511.756 232.536C512.844 230.68 514.359 229.229 516.3 228.184C518.263 227.139 520.524 226.616 523.084 226.616C524.428 226.616 525.612 226.733 526.636 226.968C527.681 227.181 528.503 227.395 529.1 227.608L530.348 227.832C530.668 227.896 530.903 227.981 531.052 228.088C531.201 228.173 531.308 228.344 531.372 228.6C531.436 228.856 531.479 229.261 531.5 229.816L531.852 235.192C531.873 235.384 531.777 235.501 531.564 235.544L530.316 235.704C530.103 235.747 529.964 235.661 529.9 235.448L528.62 232.44C528.471 232.099 528.332 231.843 528.204 231.672C528.097 231.501 527.937 231.309 527.724 231.096C527.127 230.584 526.423 230.2 525.612 229.944C524.823 229.688 523.959 229.56 523.02 229.56ZM210.787 311.416C208.227 311.416 205.966 310.893 204.003 309.848C202.062 308.803 200.547 307.352 199.459 305.496C198.392 303.619 197.859 301.453 197.859 299C197.859 296.547 198.392 294.392 199.459 292.536C200.547 290.68 202.062 289.229 204.003 288.184C205.966 287.139 208.227 286.616 210.787 286.616C212.067 286.616 213.208 286.733 214.211 286.968C215.214 287.203 216.003 287.416 216.579 287.608L218.051 287.864C218.371 287.907 218.606 287.981 218.755 288.088C218.904 288.173 219.011 288.344 219.075 288.6C219.139 288.856 219.182 289.261 219.203 289.816L219.555 295.192C219.576 295.384 219.48 295.501 219.267 295.544L218.019 295.704C217.806 295.747 217.667 295.661 217.603 295.448L216.355 292.44C216.206 292.099 216.078 291.843 215.971 291.672C215.864 291.501 215.704 291.309 215.491 291.096C214.894 290.584 214.211 290.2 213.443 289.944C212.696 289.688 211.864 289.56 210.947 289.56C209.454 289.56 208.163 289.933 207.075 290.68C205.987 291.427 205.155 292.515 204.579 293.944C204.003 295.352 203.715 297.037 203.715 299C203.715 300.963 203.992 302.648 204.547 304.056C205.123 305.464 205.934 306.552 206.979 307.32C208.046 308.088 209.294 308.472 210.723 308.472C211.683 308.472 212.547 308.355 213.315 308.12C214.104 307.864 214.808 307.491 215.427 307C215.704 306.701 215.896 306.477 216.003 306.328C216.11 306.157 216.216 305.944 216.323 305.688L217.603 302.584C217.667 302.371 217.806 302.285 218.019 302.328L219.267 302.488C219.48 302.531 219.576 302.648 219.555 302.84L219.171 308.888C219.15 309.208 219.096 309.453 219.011 309.624C218.947 309.773 218.787 309.901 218.531 310.008C218.296 310.093 217.902 310.189 217.347 310.296L216.579 310.424C216.003 310.616 215.214 310.829 214.211 311.064C213.208 311.299 212.067 311.416 210.787 311.416ZM226.286 311V287.032H231.695V311H226.286ZM226.286 297.176C227.951 297.325 229.689 297.443 231.503 297.528C233.316 297.613 235.14 297.656 236.975 297.656C238.809 297.656 240.633 297.613 242.447 297.528C244.26 297.443 245.999 297.325 247.663 297.176V299.736C245.999 299.885 244.26 300.003 242.447 300.088C240.633 300.173 238.809 300.216 236.975 300.216C235.14 300.216 233.316 300.173 231.503 300.088C229.689 300.003 227.951 299.885 226.286 299.736V297.176ZM242.287 311V287.032H247.663V311H242.287ZM239.215 311C239.023 311 238.927 310.893 238.927 310.68V309.976C238.927 309.784 239.023 309.656 239.215 309.592L241.455 308.984C241.817 308.856 242.041 308.728 242.127 308.6C242.233 308.472 242.287 308.248 242.287 307.928V304.376H247.663V307.864C247.663 308.248 247.716 308.504 247.823 308.632C247.929 308.76 248.121 308.867 248.399 308.952L250.799 309.592C250.991 309.677 251.087 309.816 251.087 310.008V310.68C251.087 310.893 250.98 311 250.767 311H239.215ZM223.247 311C223.033 311 222.927 310.893 222.927 310.68V309.976C222.927 309.784 223.033 309.656 223.247 309.592L225.487 308.984C225.849 308.856 226.073 308.728 226.159 308.6C226.244 308.472 226.286 308.248 226.286 307.928V304.376H231.695V307.864C231.695 308.248 231.748 308.504 231.855 308.632C231.961 308.76 232.153 308.867 232.431 308.952L234.831 309.592C235.023 309.677 235.119 309.816 235.119 310.008V310.68C235.119 310.893 235.012 311 234.799 311H223.247ZM238.927 287.352C238.927 287.139 239.023 287.032 239.215 287.032H250.767C250.98 287.032 251.087 287.139 251.087 287.352V288.024C251.087 288.216 250.991 288.355 250.799 288.44L248.399 289.08C248.121 289.165 247.929 289.272 247.823 289.4C247.716 289.528 247.663 289.784 247.663 290.168V293.656H242.287V290.104C242.287 289.784 242.233 289.56 242.127 289.432C242.041 289.283 241.817 289.155 241.455 289.048L239.215 288.44C239.023 288.376 238.927 288.248 238.927 288.056V287.352ZM222.927 287.352C222.927 287.139 223.033 287.032 223.247 287.032H234.799C235.012 287.032 235.119 287.139 235.119 287.352V288.024C235.119 288.216 235.023 288.355 234.831 288.44L232.431 289.08C232.153 289.165 231.961 289.272 231.855 289.4C231.748 289.528 231.695 289.784 231.695 290.168V293.656H226.286V290.104C226.286 289.784 226.244 289.56 226.159 289.432C226.073 289.283 225.849 289.155 225.487 289.048L223.247 288.44C223.033 288.376 222.927 288.248 222.927 288.056V287.352ZM252.385 311C252.171 311 252.065 310.893 252.065 310.68V309.976C252.065 309.763 252.161 309.624 252.353 309.56L253.665 309.176C254.027 309.048 254.305 308.888 254.497 308.696C254.689 308.504 254.849 308.269 254.977 307.992L263.809 287.576C263.873 287.384 264.011 287.277 264.225 287.256L266.529 286.744C266.742 286.701 266.87 286.787 266.913 287L267.361 288.824L276.289 307.96C276.438 308.28 276.619 308.536 276.833 308.728C277.046 308.92 277.291 309.059 277.569 309.144L278.817 309.56C279.009 309.645 279.105 309.795 279.105 310.008V310.68C279.105 310.893 278.998 311 278.785 311H267.233C267.041 311 266.945 310.893 266.945 310.68V309.976C266.945 309.805 267.041 309.677 267.233 309.592L269.057 309.144C269.697 308.973 270.07 308.749 270.177 308.472C270.283 308.195 270.219 307.8 269.985 307.288L262.817 291.192L265.857 289.368L258.401 307.192C258.145 307.811 258.091 308.248 258.241 308.504C258.411 308.76 258.763 308.952 259.297 309.08L261.377 309.592C261.59 309.656 261.697 309.795 261.697 310.008V310.68C261.697 310.893 261.59 311 261.377 311H252.385ZM258.817 301.176C260.865 301.304 262.955 301.368 265.089 301.368C267.243 301.347 269.334 301.283 271.361 301.176V303.704C269.334 303.832 267.243 303.896 265.089 303.896C262.955 303.896 260.865 303.843 258.817 303.736V301.176ZM283.443 311V287.032H288.851V307.48C288.851 307.864 288.925 308.131 289.075 308.28C289.224 308.408 289.459 308.472 289.779 308.472H296.051C296.435 308.472 296.733 308.408 296.947 308.28C297.181 308.131 297.384 307.928 297.555 307.672L299.379 304.728C299.507 304.557 299.677 304.504 299.891 304.568L300.819 304.824C301.011 304.888 301.096 305.027 301.075 305.24L300.339 310.136C300.296 310.435 300.221 310.669 300.115 310.84C300.029 310.989 299.859 311.075 299.603 311.096C299.347 311.117 298.941 311.117 298.387 311.096L296.563 311H283.443ZM280.403 311C280.189 311 280.083 310.893 280.083 310.68V309.976C280.083 309.784 280.189 309.656 280.403 309.592L282.643 308.984C283.005 308.856 283.229 308.728 283.315 308.6C283.4 308.472 283.443 308.248 283.443 307.928V304.376H288.851V311H280.403ZM280.083 287.352C280.083 287.139 280.189 287.032 280.403 287.032H291.955C292.168 287.032 292.275 287.139 292.275 287.352V288.024C292.275 288.216 292.179 288.355 291.987 288.44L289.587 289.08C289.309 289.165 289.117 289.272 289.011 289.4C288.904 289.528 288.851 289.784 288.851 290.168V293.656H283.443V290.104C283.443 289.784 283.4 289.56 283.315 289.432C283.229 289.283 283.005 289.155 282.643 289.048L280.403 288.44C280.189 288.376 280.083 288.248 280.083 288.056V287.352ZM306.349 311V287.032H311.757V307.48C311.757 307.864 311.832 308.131 311.981 308.28C312.13 308.408 312.365 308.472 312.685 308.472H318.957C319.341 308.472 319.64 308.408 319.853 308.28C320.088 308.131 320.29 307.928 320.461 307.672L322.285 304.728C322.413 304.557 322.584 304.504 322.797 304.568L323.725 304.824C323.917 304.888 324.002 305.027 323.981 305.24L323.245 310.136C323.202 310.435 323.128 310.669 323.021 310.84C322.936 310.989 322.765 311.075 322.509 311.096C322.253 311.117 321.848 311.117 321.293 311.096L319.469 311H306.349ZM303.309 311C303.096 311 302.989 310.893 302.989 310.68V309.976C302.989 309.784 303.096 309.656 303.309 309.592L305.549 308.984C305.912 308.856 306.136 308.728 306.221 308.6C306.306 308.472 306.349 308.248 306.349 307.928V304.376H311.757V311H303.309ZM302.989 287.352C302.989 287.139 303.096 287.032 303.309 287.032H314.861C315.074 287.032 315.181 287.139 315.181 287.352V288.024C315.181 288.216 315.085 288.355 314.893 288.44L312.493 289.08C312.216 289.165 312.024 289.272 311.917 289.4C311.81 289.528 311.757 289.784 311.757 290.168V293.656H306.349V290.104C306.349 289.784 306.306 289.56 306.221 289.432C306.136 289.283 305.912 289.155 305.549 289.048L303.309 288.44C303.096 288.376 302.989 288.248 302.989 288.056V287.352ZM329.255 311V287.032H334.663V307.48C334.663 307.864 334.738 308.131 334.887 308.28C335.037 308.408 335.271 308.472 335.591 308.472H342.823C343.207 308.472 343.506 308.408 343.719 308.28C343.954 308.152 344.167 307.96 344.359 307.704L346.343 304.728C346.429 304.557 346.589 304.504 346.823 304.568L347.783 304.824C347.975 304.888 348.061 305.027 348.039 305.24L347.271 310.136C347.229 310.435 347.154 310.669 347.047 310.84C346.962 310.989 346.791 311.075 346.535 311.096C346.301 311.117 345.906 311.117 345.351 311.096L343.399 311H329.255ZM343.399 302.968C343.207 302.968 343.058 302.872 342.951 302.68L342.343 301.08C342.194 300.739 342.002 300.515 341.767 300.408C341.554 300.28 341.287 300.216 340.967 300.216H334.663V297.656H340.903C341.287 297.656 341.586 297.592 341.799 297.464C342.013 297.315 342.183 297.101 342.311 296.824L342.951 295.416C343.058 295.224 343.218 295.128 343.431 295.128H344.295C344.509 295.128 344.615 295.235 344.615 295.448V302.68C344.615 302.872 344.509 302.968 344.295 302.968H343.399ZM346.119 293.336C345.927 293.379 345.767 293.315 345.639 293.144L344.199 290.424C344.007 290.104 343.794 289.88 343.559 289.752C343.346 289.624 343.09 289.56 342.791 289.56H334.663V287.032H343.527L346.151 286.776C346.493 286.755 346.727 286.776 346.855 286.84C347.005 286.883 347.101 287.021 347.143 287.256C347.207 287.491 347.239 287.896 347.239 288.472L347.367 292.824C347.367 293.037 347.261 293.165 347.047 293.208L346.119 293.336ZM326.215 311C326.002 311 325.895 310.893 325.895 310.68V309.976C325.895 309.784 326.002 309.656 326.215 309.592L328.455 308.984C328.818 308.856 329.042 308.728 329.127 308.6C329.213 308.472 329.255 308.248 329.255 307.928V304.376H334.663V311H326.215ZM325.895 287.352C325.895 287.139 326.002 287.032 326.215 287.032H334.663V293.656H329.255V290.104C329.255 289.784 329.213 289.56 329.127 289.432C329.042 289.283 328.818 289.155 328.455 289.048L326.215 288.44C326.002 288.376 325.895 288.248 325.895 288.056V287.352ZM374.389 289.08C374.09 289.165 373.887 289.272 373.781 289.4C373.674 289.528 373.621 289.784 373.621 290.168V310.84C373.621 311.053 373.514 311.16 373.301 311.16H371.637C371.423 311.16 371.242 311.075 371.093 310.904L354.773 291.16L357.301 288.632V307.928C357.301 308.248 357.343 308.472 357.429 308.6C357.535 308.728 357.759 308.856 358.101 308.984L360.309 309.56C360.501 309.667 360.597 309.816 360.597 310.008V310.68C360.597 310.893 360.49 311 360.277 311H350.997C350.783 311 350.677 310.893 350.677 310.68V309.976C350.677 309.784 350.783 309.656 350.997 309.592L353.365 308.952C353.642 308.867 353.834 308.76 353.941 308.632C354.069 308.504 354.133 308.248 354.133 307.864V290.296C354.133 289.912 354.058 289.635 353.909 289.464C353.759 289.272 353.535 289.133 353.237 289.048L350.965 288.44C350.773 288.355 350.677 288.216 350.677 288.024V287.352C350.677 287.139 350.783 287.032 350.997 287.032H357.717C357.93 287.032 358.101 287.107 358.229 287.256L372.789 304.888L370.421 308.664V290.104C370.421 289.784 370.367 289.56 370.261 289.432C370.175 289.283 369.951 289.155 369.589 289.048L367.444 288.472C367.253 288.365 367.157 288.216 367.157 288.024V287.352C367.157 287.139 367.263 287.032 367.477 287.032H376.757C376.949 287.032 377.045 287.139 377.045 287.352V288.056C377.045 288.248 376.949 288.376 376.757 288.44L374.389 289.08ZM391.848 289.56C390.419 289.56 389.171 289.944 388.104 290.712C387.037 291.48 386.216 292.568 385.64 293.976C385.085 295.363 384.808 297.037 384.808 299C384.808 300.963 385.096 302.648 385.672 304.056C386.248 305.464 387.059 306.552 388.104 307.32C389.171 308.088 390.419 308.472 391.848 308.472C392.723 308.472 393.544 308.397 394.312 308.248C395.101 308.099 395.805 307.885 396.424 307.608V302.84C396.424 302.456 396.371 302.211 396.264 302.104C396.157 301.997 395.955 301.912 395.656 301.848L392.392 301.272C392.2 301.251 392.104 301.133 392.104 300.92V299.768C392.104 299.555 392.211 299.448 392.424 299.448H403.4C403.613 299.448 403.72 299.555 403.72 299.768V300.92C403.72 301.133 403.624 301.272 403.432 301.336L402.216 301.72C401.853 301.827 401.619 301.955 401.512 302.104C401.427 302.253 401.384 302.477 401.384 302.776V306.552L401.608 308.44C401.629 308.653 401.619 308.803 401.576 308.888C401.533 308.952 401.427 309.037 401.256 309.144C400.168 309.848 398.813 310.403 397.192 310.808C395.571 311.213 393.811 311.416 391.912 311.416C389.352 311.416 387.091 310.893 385.128 309.848C383.187 308.803 381.672 307.352 380.584 305.496C379.517 303.619 378.984 301.453 378.984 299C378.984 296.547 379.517 294.392 380.584 292.536C381.672 290.68 383.187 289.229 385.128 288.184C387.091 287.139 389.352 286.616 391.912 286.616C393.256 286.616 394.44 286.733 395.464 286.968C396.509 287.181 397.331 287.395 397.928 287.608L399.176 287.832C399.496 287.896 399.731 287.981 399.88 288.088C400.029 288.173 400.136 288.344 400.2 288.6C400.264 288.856 400.307 289.261 400.328 289.816L400.68 295.192C400.701 295.384 400.605 295.501 400.392 295.544L399.144 295.704C398.931 295.747 398.792 295.661 398.728 295.448L397.448 292.44C397.299 292.099 397.16 291.843 397.032 291.672C396.925 291.501 396.765 291.309 396.552 291.096C395.955 290.584 395.251 290.2 394.44 289.944C393.651 289.688 392.787 289.56 391.848 289.56ZM408.661 311V287.032H414.07V307.48C414.07 307.864 414.144 308.131 414.294 308.28C414.443 308.408 414.678 308.472 414.998 308.472H422.23C422.614 308.472 422.912 308.408 423.126 308.28C423.36 308.152 423.574 307.96 423.766 307.704L425.75 304.728C425.835 304.557 425.995 304.504 426.23 304.568L427.19 304.824C427.382 304.888 427.467 305.027 427.446 305.24L426.678 310.136C426.635 310.435 426.56 310.669 426.454 310.84C426.368 310.989 426.198 311.075 425.942 311.096C425.707 311.117 425.312 311.117 424.758 311.096L422.806 311H408.661ZM422.806 302.968C422.613 302.968 422.464 302.872 422.358 302.68L421.75 301.08C421.6 300.739 421.408 300.515 421.174 300.408C420.96 300.28 420.694 300.216 420.374 300.216H414.07V297.656H420.31C420.694 297.656 420.992 297.592 421.206 297.464C421.419 297.315 421.59 297.101 421.718 296.824L422.358 295.416C422.464 295.224 422.624 295.128 422.838 295.128H423.702C423.915 295.128 424.022 295.235 424.022 295.448V302.68C424.022 302.872 423.915 302.968 423.702 302.968H422.806ZM425.526 293.336C425.334 293.379 425.174 293.315 425.046 293.144L423.606 290.424C423.414 290.104 423.2 289.88 422.966 289.752C422.752 289.624 422.496 289.56 422.198 289.56H414.07V287.032H422.934L425.558 286.776C425.899 286.755 426.134 286.776 426.262 286.84C426.411 286.883 426.507 287.021 426.55 287.256C426.614 287.491 426.646 287.896 426.646 288.472L426.774 292.824C426.774 293.037 426.667 293.165 426.454 293.208L425.526 293.336ZM405.622 311C405.408 311 405.302 310.893 405.302 310.68V309.976C405.302 309.784 405.408 309.656 405.622 309.592L407.862 308.984C408.224 308.856 408.448 308.728 408.534 308.6C408.619 308.472 408.661 308.248 408.661 307.928V304.376H414.07V311H405.622ZM405.302 287.352C405.302 287.139 405.408 287.032 405.622 287.032H414.07V293.656H408.661V290.104C408.661 289.784 408.619 289.56 408.534 289.432C408.448 289.283 408.224 289.155 407.862 289.048L405.622 288.44C405.408 288.376 405.302 288.248 405.302 288.056V287.352ZM441.667 296.728C443.523 297.347 444.984 297.987 446.051 298.648C447.139 299.288 447.907 300.013 448.355 300.824C448.803 301.613 449.027 302.584 449.027 303.736C449.027 305.272 448.621 306.616 447.811 307.768C447.021 308.92 445.901 309.816 444.451 310.456C443 311.096 441.293 311.416 439.331 311.416C438.136 311.416 437.037 311.331 436.035 311.16C435.053 311.011 434.189 310.829 433.443 310.616C432.717 310.403 432.12 310.2 431.651 310.008C431.459 309.923 431.363 309.773 431.363 309.56L431.491 304.184C431.491 303.971 431.597 303.864 431.811 303.864L432.803 303.832C432.995 303.832 433.123 303.928 433.187 304.12L433.859 306.008C434.029 306.499 434.264 306.925 434.563 307.288C434.861 307.651 435.224 307.949 435.651 308.184C436.077 308.397 436.568 308.557 437.123 308.664C437.677 308.771 438.296 308.824 438.979 308.824C440.451 308.824 441.603 308.515 442.435 307.896C443.267 307.277 443.683 306.435 443.683 305.368C443.683 304.707 443.544 304.163 443.267 303.736C443.011 303.288 442.541 302.872 441.859 302.488C441.176 302.104 440.237 301.699 439.043 301.272C437.059 300.568 435.491 299.875 434.339 299.192C433.208 298.488 432.397 297.699 431.907 296.824C431.437 295.949 431.203 294.904 431.203 293.688C431.203 292.28 431.608 291.053 432.419 290.008C433.229 288.941 434.349 288.109 435.779 287.512C437.229 286.915 438.915 286.616 440.835 286.616C441.795 286.616 442.68 286.691 443.491 286.84C444.301 286.989 445.027 287.181 445.667 287.416C446.328 287.629 446.861 287.864 447.267 288.12C447.459 288.227 447.544 288.387 447.523 288.6L447.427 293.688C447.384 293.88 447.267 293.987 447.075 294.008L446.083 294.04C445.891 294.061 445.752 293.965 445.667 293.752L444.899 291.672C444.685 291.117 444.408 290.659 444.067 290.296C443.747 289.933 443.331 289.667 442.819 289.496C442.307 289.304 441.645 289.208 440.835 289.208C439.491 289.208 438.445 289.507 437.699 290.104C436.973 290.701 436.611 291.523 436.611 292.568C436.611 293.208 436.76 293.763 437.059 294.232C437.379 294.68 437.901 295.096 438.627 295.48C439.373 295.864 440.387 296.28 441.667 296.728ZM463.255 311V287.032H468.663V311H463.255ZM460.215 311C460.002 311 459.895 310.893 459.895 310.68V309.976C459.895 309.784 460.002 309.656 460.215 309.592L462.455 308.984C462.818 308.856 463.042 308.728 463.127 308.6C463.213 308.472 463.255 308.248 463.255 307.928V304.376H468.663V307.864C468.663 308.248 468.717 308.504 468.823 308.632C468.93 308.76 469.122 308.867 469.399 308.952L471.799 309.592C471.991 309.677 472.087 309.816 472.087 310.008V310.68C472.087 310.893 471.981 311 471.767 311H460.215ZM459.895 287.352C459.895 287.139 460.002 287.032 460.215 287.032H471.767C471.981 287.032 472.087 287.139 472.087 287.352V288.024C472.087 288.216 471.991 288.355 471.799 288.44L469.399 289.08C469.122 289.165 468.93 289.272 468.823 289.4C468.717 289.528 468.663 289.784 468.663 290.168V293.656H463.255V290.104C463.255 289.784 463.213 289.56 463.127 289.432C463.042 289.283 462.818 289.155 462.455 289.048L460.215 288.44C460.002 288.376 459.895 288.248 459.895 288.056V287.352ZM497.514 289.08C497.215 289.165 497.012 289.272 496.906 289.4C496.799 289.528 496.746 289.784 496.746 290.168V310.84C496.746 311.053 496.639 311.16 496.426 311.16H494.762C494.548 311.16 494.367 311.075 494.218 310.904L477.898 291.16L480.426 288.632V307.928C480.426 308.248 480.468 308.472 480.554 308.6C480.66 308.728 480.884 308.856 481.226 308.984L483.434 309.56C483.626 309.667 483.722 309.816 483.722 310.008V310.68C483.722 310.893 483.615 311 483.402 311H474.122C473.908 311 473.802 310.893 473.802 310.68V309.976C473.802 309.784 473.908 309.656 474.122 309.592L476.49 308.952C476.767 308.867 476.959 308.76 477.066 308.632C477.194 308.504 477.258 308.248 477.258 307.864V290.296C477.258 289.912 477.183 289.635 477.034 289.464C476.884 289.272 476.66 289.133 476.362 289.048L474.09 288.44C473.898 288.355 473.802 288.216 473.802 288.024V287.352C473.802 287.139 473.908 287.032 474.122 287.032H480.842C481.055 287.032 481.226 287.107 481.354 287.256L495.914 304.888L493.546 308.664V290.104C493.546 289.784 493.492 289.56 493.386 289.432C493.3 289.283 493.076 289.155 492.714 289.048L490.569 288.472C490.378 288.365 490.282 288.216 490.282 288.024V287.352C490.282 287.139 490.388 287.032 490.602 287.032H499.882C500.074 287.032 500.17 287.139 500.17 287.352V288.056C500.17 288.248 500.074 288.376 499.882 288.44L497.514 289.08ZM152.724 371V347.032H158.132V371H152.724ZM166.324 363.512C166.111 363.512 165.961 363.405 165.876 363.192L165.268 361.624C165.097 361.283 164.905 361.059 164.692 360.952C164.479 360.824 164.212 360.76 163.892 360.76H158.132V358.2H163.828C164.212 358.2 164.511 358.136 164.724 358.008C164.937 357.859 165.108 357.645 165.236 357.368L165.876 355.928C165.961 355.736 166.111 355.64 166.324 355.64H167.188C167.401 355.64 167.508 355.747 167.508 355.96V363.192C167.508 363.405 167.401 363.512 167.188 363.512H166.324ZM169.044 353.336C168.831 353.379 168.671 353.315 168.564 353.144L167.156 350.424C166.943 350.104 166.729 349.88 166.516 349.752C166.303 349.624 166.036 349.56 165.716 349.56H158.132V347.032H166.452L169.076 346.776C169.396 346.755 169.631 346.776 169.78 346.84C169.929 346.883 170.025 347.021 170.068 347.256C170.132 347.491 170.164 347.896 170.164 348.472L170.292 352.824C170.292 353.037 170.185 353.165 169.972 353.208L169.044 353.336ZM149.684 371C149.471 371 149.364 370.893 149.364 370.68V369.976C149.364 369.784 149.471 369.656 149.684 369.592L151.924 368.984C152.287 368.856 152.511 368.728 152.596 368.6C152.681 368.472 152.724 368.248 152.724 367.928V364.376H158.132V367.736C158.132 368.099 158.185 368.344 158.292 368.472C158.399 368.579 158.601 368.664 158.9 368.728L162.644 369.592C162.857 369.656 162.964 369.795 162.964 370.008V370.68C162.964 370.893 162.857 371 162.644 371H149.684ZM149.364 347.352C149.364 347.139 149.471 347.032 149.684 347.032H158.132V353.656H152.724V350.104C152.724 349.784 152.681 349.56 152.596 349.432C152.511 349.283 152.287 349.155 151.924 349.048L149.684 348.44C149.471 348.376 149.364 348.248 149.364 348.056V347.352ZM175.818 371V347.032H181.226V371H175.818ZM172.778 371C172.564 371 172.458 370.893 172.458 370.68V369.976C172.458 369.784 172.564 369.656 172.778 369.592L175.018 368.984C175.38 368.856 175.604 368.728 175.69 368.6C175.775 368.472 175.818 368.248 175.818 367.928V364.376H181.226V367.864C181.226 368.248 181.279 368.504 181.386 368.632C181.492 368.76 181.684 368.867 181.962 368.952L184.362 369.592C184.554 369.677 184.65 369.816 184.65 370.008V370.68C184.65 370.893 184.543 371 184.33 371H172.778ZM172.458 347.352C172.458 347.139 172.564 347.032 172.778 347.032H184.33C184.543 347.032 184.65 347.139 184.65 347.352V348.024C184.65 348.216 184.554 348.355 184.362 348.44L181.962 349.08C181.684 349.165 181.492 349.272 181.386 349.4C181.279 349.528 181.226 349.784 181.226 350.168V353.656H175.818V350.104C175.818 349.784 175.775 349.56 175.69 349.432C175.604 349.283 175.38 349.155 175.018 349.048L172.778 348.44C172.564 348.376 172.458 348.248 172.458 348.056V347.352ZM210.076 349.08C209.777 349.165 209.575 349.272 209.468 349.4C209.361 349.528 209.308 349.784 209.308 350.168V370.84C209.308 371.053 209.201 371.16 208.988 371.16H207.324C207.111 371.16 206.929 371.075 206.78 370.904L190.46 351.16L192.988 348.632V367.928C192.988 368.248 193.031 368.472 193.116 368.6C193.223 368.728 193.447 368.856 193.788 368.984L195.996 369.56C196.188 369.667 196.284 369.816 196.284 370.008V370.68C196.284 370.893 196.177 371 195.964 371H186.684C186.471 371 186.364 370.893 186.364 370.68V369.976C186.364 369.784 186.471 369.656 186.684 369.592L189.052 368.952C189.329 368.867 189.521 368.76 189.628 368.632C189.756 368.504 189.82 368.248 189.82 367.864V350.296C189.82 349.912 189.745 349.635 189.596 349.464C189.447 349.272 189.223 349.133 188.924 349.048L186.652 348.44C186.46 348.355 186.364 348.216 186.364 348.024V347.352C186.364 347.139 186.471 347.032 186.684 347.032H193.404C193.617 347.032 193.788 347.107 193.916 347.256L208.476 364.888L206.108 368.664V350.104C206.108 349.784 206.055 349.56 205.948 349.432C205.863 349.283 205.639 349.155 205.276 349.048L203.132 348.472C202.94 348.365 202.844 348.216 202.844 348.024V347.352C202.844 347.139 202.951 347.032 203.164 347.032H212.444C212.636 347.032 212.732 347.139 212.732 347.352V348.056C212.732 348.248 212.636 348.376 212.444 348.44L210.076 349.08ZM212.166 371C211.953 371 211.846 370.893 211.846 370.68V369.976C211.846 369.763 211.942 369.624 212.134 369.56L213.446 369.176C213.809 369.048 214.086 368.888 214.278 368.696C214.47 368.504 214.63 368.269 214.758 367.992L223.59 347.576C223.654 347.384 223.793 347.277 224.006 347.256L226.31 346.744C226.523 346.701 226.651 346.787 226.694 347L227.142 348.824L236.07 367.96C236.219 368.28 236.401 368.536 236.614 368.728C236.827 368.92 237.073 369.059 237.35 369.144L238.598 369.56C238.79 369.645 238.886 369.795 238.886 370.008V370.68C238.886 370.893 238.779 371 238.566 371H227.014C226.822 371 226.726 370.893 226.726 370.68V369.976C226.726 369.805 226.822 369.677 227.014 369.592L228.838 369.144C229.478 368.973 229.851 368.749 229.958 368.472C230.065 368.195 230.001 367.8 229.766 367.288L222.598 351.192L225.638 349.368L218.182 367.192C217.926 367.811 217.873 368.248 218.022 368.504C218.193 368.76 218.545 368.952 219.078 369.08L221.158 369.592C221.371 369.656 221.478 369.795 221.478 370.008V370.68C221.478 370.893 221.371 371 221.158 371H212.166ZM218.598 361.176C220.646 361.304 222.737 361.368 224.87 361.368C227.025 361.347 229.115 361.283 231.142 361.176V363.704C229.115 363.832 227.025 363.896 224.87 363.896C222.737 363.896 220.646 363.843 218.598 363.736V361.176ZM263.576 349.08C263.277 349.165 263.075 349.272 262.968 349.4C262.861 349.528 262.808 349.784 262.808 350.168V370.84C262.808 371.053 262.701 371.16 262.488 371.16H260.824C260.611 371.16 260.429 371.075 260.28 370.904L243.96 351.16L246.488 348.632V367.928C246.488 368.248 246.531 368.472 246.616 368.6C246.723 368.728 246.947 368.856 247.288 368.984L249.496 369.56C249.688 369.667 249.784 369.816 249.784 370.008V370.68C249.784 370.893 249.677 371 249.464 371H240.184C239.971 371 239.864 370.893 239.864 370.68V369.976C239.864 369.784 239.971 369.656 240.184 369.592L242.552 368.952C242.829 368.867 243.021 368.76 243.128 368.632C243.256 368.504 243.32 368.248 243.32 367.864V350.296C243.32 349.912 243.245 349.635 243.096 349.464C242.947 349.272 242.723 349.133 242.424 349.048L240.152 348.44C239.96 348.355 239.864 348.216 239.864 348.024V347.352C239.864 347.139 239.971 347.032 240.184 347.032H246.904C247.117 347.032 247.288 347.107 247.416 347.256L261.976 364.888L259.608 368.664V350.104C259.608 349.784 259.555 349.56 259.448 349.432C259.363 349.283 259.139 349.155 258.776 349.048L256.632 348.472C256.44 348.365 256.344 348.216 256.344 348.024V347.352C256.344 347.139 256.451 347.032 256.664 347.032H265.944C266.136 347.032 266.232 347.139 266.232 347.352V348.056C266.232 348.248 266.136 348.376 265.944 348.44L263.576 349.08ZM281.1 371.416C278.54 371.416 276.278 370.893 274.316 369.848C272.374 368.803 270.86 367.352 269.772 365.496C268.705 363.619 268.172 361.453 268.172 359C268.172 356.547 268.705 354.392 269.772 352.536C270.86 350.68 272.374 349.229 274.316 348.184C276.278 347.139 278.54 346.616 281.1 346.616C282.38 346.616 283.521 346.733 284.524 346.968C285.526 347.203 286.316 347.416 286.892 347.608L288.364 347.864C288.684 347.907 288.918 347.981 289.068 348.088C289.217 348.173 289.324 348.344 289.388 348.6C289.452 348.856 289.494 349.261 289.516 349.816L289.868 355.192C289.889 355.384 289.793 355.501 289.58 355.544L288.332 355.704C288.118 355.747 287.98 355.661 287.916 355.448L286.668 352.44C286.518 352.099 286.39 351.843 286.284 351.672C286.177 351.501 286.017 351.309 285.804 351.096C285.206 350.584 284.524 350.2 283.756 349.944C283.009 349.688 282.177 349.56 281.26 349.56C279.766 349.56 278.476 349.933 277.388 350.68C276.3 351.427 275.468 352.515 274.892 353.944C274.316 355.352 274.028 357.037 274.028 359C274.028 360.963 274.305 362.648 274.86 364.056C275.436 365.464 276.246 366.552 277.292 367.32C278.358 368.088 279.606 368.472 281.036 368.472C281.996 368.472 282.86 368.355 283.628 368.12C284.417 367.864 285.121 367.491 285.74 367C286.017 366.701 286.209 366.477 286.316 366.328C286.422 366.157 286.529 365.944 286.636 365.688L287.916 362.584C287.98 362.371 288.118 362.285 288.332 362.328L289.58 362.488C289.793 362.531 289.889 362.648 289.868 362.84L289.484 368.888C289.462 369.208 289.409 369.453 289.324 369.624C289.26 369.773 289.1 369.901 288.844 370.008C288.609 370.093 288.214 370.189 287.66 370.296L286.892 370.424C286.316 370.616 285.526 370.829 284.524 371.064C283.521 371.299 282.38 371.416 281.1 371.416ZM296.599 371V347.032H302.007V371H296.599ZM293.559 371C293.346 371 293.239 370.893 293.239 370.68V369.976C293.239 369.784 293.346 369.656 293.559 369.592L295.799 368.984C296.162 368.856 296.386 368.728 296.471 368.6C296.556 368.472 296.599 368.248 296.599 367.928V364.376H302.007V367.864C302.007 368.248 302.06 368.504 302.167 368.632C302.274 368.76 302.466 368.867 302.743 368.952L305.143 369.592C305.335 369.677 305.431 369.816 305.431 370.008V370.68C305.431 370.893 305.324 371 305.111 371H293.559ZM293.239 347.352C293.239 347.139 293.346 347.032 293.559 347.032H305.111C305.324 347.032 305.431 347.139 305.431 347.352V348.024C305.431 348.216 305.335 348.355 305.143 348.44L302.743 349.08C302.466 349.165 302.274 349.272 302.167 349.4C302.06 349.528 302.007 349.784 302.007 350.168V353.656H296.599V350.104C296.599 349.784 296.556 349.56 296.471 349.432C296.386 349.283 296.162 349.155 295.799 349.048L293.559 348.44C293.346 348.376 293.239 348.248 293.239 348.056V347.352ZM306.697 371C306.484 371 306.377 370.893 306.377 370.68V369.976C306.377 369.763 306.473 369.624 306.665 369.56L307.977 369.176C308.34 369.048 308.617 368.888 308.809 368.696C309.001 368.504 309.161 368.269 309.289 367.992L318.121 347.576C318.185 347.384 318.324 347.277 318.537 347.256L320.841 346.744C321.055 346.701 321.183 346.787 321.225 347L321.673 348.824L330.601 367.96C330.751 368.28 330.932 368.536 331.145 368.728C331.359 368.92 331.604 369.059 331.881 369.144L333.129 369.56C333.321 369.645 333.417 369.795 333.417 370.008V370.68C333.417 370.893 333.311 371 333.097 371H321.545C321.353 371 321.257 370.893 321.257 370.68V369.976C321.257 369.805 321.353 369.677 321.545 369.592L323.369 369.144C324.009 368.973 324.383 368.749 324.489 368.472C324.596 368.195 324.532 367.8 324.297 367.288L317.129 351.192L320.169 349.368L312.713 367.192C312.457 367.811 312.404 368.248 312.553 368.504C312.724 368.76 313.076 368.952 313.609 369.08L315.689 369.592C315.903 369.656 316.009 369.795 316.009 370.008V370.68C316.009 370.893 315.903 371 315.689 371H306.697ZM313.129 361.176C315.177 361.304 317.268 361.368 319.401 361.368C321.556 361.347 323.647 361.283 325.673 361.176V363.704C323.647 363.832 321.556 363.896 319.401 363.896C317.268 363.896 315.177 363.843 313.129 363.736V361.176ZM337.755 371V347.032H343.163V367.48C343.163 367.864 343.238 368.131 343.387 368.28C343.537 368.408 343.771 368.472 344.091 368.472H350.363C350.747 368.472 351.046 368.408 351.259 368.28C351.494 368.131 351.697 367.928 351.867 367.672L353.691 364.728C353.819 364.557 353.99 364.504 354.203 364.568L355.131 364.824C355.323 364.888 355.409 365.027 355.387 365.24L354.651 370.136C354.609 370.435 354.534 370.669 354.427 370.84C354.342 370.989 354.171 371.075 353.915 371.096C353.659 371.117 353.254 371.117 352.699 371.096L350.875 371H337.755ZM334.715 371C334.502 371 334.395 370.893 334.395 370.68V369.976C334.395 369.784 334.502 369.656 334.715 369.592L336.955 368.984C337.318 368.856 337.542 368.728 337.627 368.6C337.713 368.472 337.755 368.248 337.755 367.928V364.376H343.163V371H334.715ZM334.395 347.352C334.395 347.139 334.502 347.032 334.715 347.032H346.267C346.481 347.032 346.587 347.139 346.587 347.352V348.024C346.587 348.216 346.491 348.355 346.299 348.44L343.899 349.08C343.622 349.165 343.43 349.272 343.323 349.4C343.217 349.528 343.163 349.784 343.163 350.168V353.656H337.755V350.104C337.755 349.784 337.713 349.56 337.627 349.432C337.542 349.283 337.318 349.155 336.955 349.048L334.715 348.44C334.502 348.376 334.395 348.248 334.395 348.056V347.352ZM377.136 356.728C378.992 357.347 380.453 357.987 381.52 358.648C382.608 359.288 383.376 360.013 383.824 360.824C384.272 361.613 384.496 362.584 384.496 363.736C384.496 365.272 384.09 366.616 383.28 367.768C382.49 368.92 381.37 369.816 379.92 370.456C378.469 371.096 376.762 371.416 374.8 371.416C373.605 371.416 372.506 371.331 371.504 371.16C370.522 371.011 369.658 370.829 368.911 370.616C368.186 370.403 367.589 370.2 367.12 370.008C366.928 369.923 366.832 369.773 366.832 369.56L366.96 364.184C366.96 363.971 367.066 363.864 367.28 363.864L368.272 363.832C368.464 363.832 368.592 363.928 368.656 364.12L369.328 366.008C369.498 366.499 369.733 366.925 370.032 367.288C370.33 367.651 370.693 367.949 371.12 368.184C371.546 368.397 372.037 368.557 372.592 368.664C373.146 368.771 373.765 368.824 374.448 368.824C375.92 368.824 377.072 368.515 377.904 367.896C378.736 367.277 379.152 366.435 379.152 365.368C379.152 364.707 379.013 364.163 378.736 363.736C378.48 363.288 378.01 362.872 377.328 362.488C376.645 362.104 375.706 361.699 374.512 361.272C372.528 360.568 370.96 359.875 369.808 359.192C368.677 358.488 367.866 357.699 367.376 356.824C366.906 355.949 366.672 354.904 366.672 353.688C366.672 352.28 367.077 351.053 367.888 350.008C368.698 348.941 369.818 348.109 371.248 347.512C372.698 346.915 374.384 346.616 376.304 346.616C377.264 346.616 378.149 346.691 378.96 346.84C379.77 346.989 380.496 347.181 381.135 347.416C381.797 347.629 382.33 347.864 382.736 348.12C382.928 348.227 383.013 348.387 382.992 348.6L382.896 353.688C382.853 353.88 382.736 353.987 382.544 354.008L381.552 354.04C381.36 354.061 381.221 353.965 381.135 353.752L380.368 351.672C380.154 351.117 379.877 350.659 379.536 350.296C379.216 349.933 378.8 349.667 378.288 349.496C377.776 349.304 377.114 349.208 376.304 349.208C374.96 349.208 373.914 349.507 373.168 350.104C372.442 350.701 372.08 351.523 372.08 352.568C372.08 353.208 372.229 353.763 372.528 354.232C372.848 354.68 373.37 355.096 374.095 355.48C374.842 355.864 375.856 356.28 377.136 356.728ZM390.255 371V347.032H395.663V367.48C395.663 367.864 395.738 368.131 395.887 368.28C396.037 368.408 396.271 368.472 396.591 368.472H403.823C404.207 368.472 404.506 368.408 404.719 368.28C404.954 368.152 405.167 367.96 405.359 367.704L407.343 364.728C407.429 364.557 407.589 364.504 407.823 364.568L408.783 364.824C408.975 364.888 409.061 365.027 409.039 365.24L408.271 370.136C408.229 370.435 408.154 370.669 408.047 370.84C407.962 370.989 407.791 371.075 407.535 371.096C407.301 371.117 406.906 371.117 406.351 371.096L404.399 371H390.255ZM404.399 362.968C404.207 362.968 404.058 362.872 403.951 362.68L403.343 361.08C403.194 360.739 403.002 360.515 402.767 360.408C402.554 360.28 402.287 360.216 401.967 360.216H395.663V357.656H401.903C402.287 357.656 402.586 357.592 402.799 357.464C403.013 357.315 403.183 357.101 403.311 356.824L403.951 355.416C404.058 355.224 404.218 355.128 404.431 355.128H405.295C405.509 355.128 405.615 355.235 405.615 355.448V362.68C405.615 362.872 405.509 362.968 405.295 362.968H404.399ZM407.119 353.336C406.927 353.379 406.767 353.315 406.639 353.144L405.199 350.424C405.007 350.104 404.794 349.88 404.559 349.752C404.346 349.624 404.09 349.56 403.791 349.56H395.663V347.032H404.527L407.151 346.776C407.493 346.755 407.727 346.776 407.855 346.84C408.005 346.883 408.101 347.021 408.143 347.256C408.207 347.491 408.239 347.896 408.239 348.472L408.367 352.824C408.367 353.037 408.261 353.165 408.047 353.208L407.119 353.336ZM387.215 371C387.002 371 386.895 370.893 386.895 370.68V369.976C386.895 369.784 387.002 369.656 387.215 369.592L389.455 368.984C389.818 368.856 390.042 368.728 390.127 368.6C390.213 368.472 390.255 368.248 390.255 367.928V364.376H395.663V371H387.215ZM386.895 347.352C386.895 347.139 387.002 347.032 387.215 347.032H395.663V353.656H390.255V350.104C390.255 349.784 390.213 349.56 390.127 349.432C390.042 349.283 389.818 349.155 389.455 349.048L387.215 348.44C387.002 348.376 386.895 348.248 386.895 348.056V347.352ZM420.445 360.888V358.328H423.101C424.423 358.328 425.447 357.944 426.173 357.176C426.898 356.387 427.26 355.267 427.26 353.816C427.26 352.408 426.909 351.352 426.205 350.648C425.501 349.923 424.466 349.56 423.101 349.56H420.445V347.032H423.101C426.237 347.032 428.605 347.608 430.205 348.76C431.805 349.891 432.605 351.576 432.605 353.816C432.605 356.077 431.783 357.827 430.141 359.064C428.519 360.28 426.172 360.888 423.101 360.888H420.445ZM415.036 371V347.032H420.445V371H415.036ZM430.173 371C429.853 371 429.597 370.979 429.405 370.936C429.213 370.872 429.031 370.733 428.861 370.52C428.69 370.307 428.445 369.965 428.125 369.496L423.613 362.648C423.271 362.115 422.973 361.731 422.717 361.496C422.461 361.24 422.226 361.08 422.013 361.016C421.799 360.931 421.565 360.888 421.309 360.888L423.581 359.832C424.455 359.875 425.223 360.035 425.885 360.312C426.546 360.568 427.165 360.952 427.741 361.464C428.338 361.955 428.946 362.605 429.565 363.416L433.149 367.96C433.405 368.259 433.65 368.493 433.885 368.664C434.119 368.813 434.375 368.941 434.653 369.048L436.093 369.56C436.285 369.645 436.381 369.795 436.381 370.008V370.68C436.381 370.893 436.274 371 436.061 371H430.173ZM411.997 371C411.783 371 411.677 370.893 411.677 370.68V369.976C411.677 369.784 411.783 369.656 411.997 369.592L414.237 368.984C414.599 368.856 414.823 368.728 414.909 368.6C414.994 368.472 415.036 368.248 415.036 367.928V364.376H420.445V367.864C420.445 368.248 420.498 368.504 420.605 368.632C420.711 368.76 420.903 368.867 421.181 368.952L423.581 369.592C423.773 369.677 423.869 369.816 423.869 370.008V370.68C423.869 370.893 423.762 371 423.549 371H411.997ZM411.677 347.352C411.677 347.139 411.783 347.032 411.997 347.032H420.445V353.656H415.036V350.104C415.036 349.784 414.994 349.56 414.909 349.432C414.823 349.283 414.599 349.155 414.237 349.048L411.997 348.44C411.783 348.376 411.677 348.248 411.677 348.056V347.352ZM446.869 371C446.677 371 446.527 370.904 446.421 370.712L436.597 349.752C436.447 349.411 436.266 349.165 436.053 349.016C435.839 348.845 435.583 348.717 435.285 348.632L434.229 348.44C434.037 348.376 433.941 348.237 433.941 348.024V347.352C433.941 347.139 434.047 347.032 434.261 347.032H445.813C446.005 347.032 446.101 347.139 446.101 347.352V348.056C446.101 348.248 445.994 348.365 445.781 348.408L443.893 348.728C443.253 348.835 442.869 349.027 442.741 349.304C442.634 349.56 442.698 349.933 442.933 350.424L450.26 366.84L447.189 368.664L454.741 350.52C455.018 349.901 455.071 349.475 454.901 349.24C454.73 348.984 454.378 348.824 453.845 348.76L451.669 348.408C451.477 348.365 451.381 348.237 451.381 348.024V347.352C451.381 347.139 451.487 347.032 451.701 347.032H460.693C460.885 347.032 460.981 347.139 460.981 347.352V348.056C460.981 348.248 460.874 348.376 460.661 348.44L459.573 348.632C459.189 348.717 458.901 348.856 458.709 349.048C458.517 349.219 458.357 349.443 458.229 349.72L449.141 370.712C449.055 370.904 448.906 371 448.693 371H446.869ZM465.286 371V347.032H470.695V371H465.286ZM462.247 371C462.033 371 461.927 370.893 461.927 370.68V369.976C461.927 369.784 462.033 369.656 462.247 369.592L464.487 368.984C464.849 368.856 465.073 368.728 465.159 368.6C465.244 368.472 465.286 368.248 465.286 367.928V364.376H470.695V367.864C470.695 368.248 470.748 368.504 470.855 368.632C470.961 368.76 471.153 368.867 471.431 368.952L473.831 369.592C474.023 369.677 474.119 369.816 474.119 370.008V370.68C474.119 370.893 474.012 371 473.799 371H462.247ZM461.927 347.352C461.927 347.139 462.033 347.032 462.247 347.032H473.799C474.012 347.032 474.119 347.139 474.119 347.352V348.024C474.119 348.216 474.023 348.355 473.831 348.44L471.431 349.08C471.153 349.165 470.961 349.272 470.855 349.4C470.748 349.528 470.695 349.784 470.695 350.168V353.656H465.286V350.104C465.286 349.784 465.244 349.56 465.159 349.432C465.073 349.283 464.849 349.155 464.487 349.048L462.247 348.44C462.033 348.376 461.927 348.248 461.927 348.056V347.352ZM489.881 371.416C487.321 371.416 485.059 370.893 483.097 369.848C481.155 368.803 479.641 367.352 478.553 365.496C477.486 363.619 476.953 361.453 476.953 359C476.953 356.547 477.486 354.392 478.553 352.536C479.641 350.68 481.155 349.229 483.097 348.184C485.059 347.139 487.321 346.616 489.881 346.616C491.161 346.616 492.302 346.733 493.305 346.968C494.307 347.203 495.097 347.416 495.673 347.608L497.145 347.864C497.465 347.907 497.699 347.981 497.849 348.088C497.998 348.173 498.105 348.344 498.169 348.6C498.233 348.856 498.275 349.261 498.297 349.816L498.649 355.192C498.67 355.384 498.574 355.501 498.361 355.544L497.113 355.704C496.899 355.747 496.761 355.661 496.697 355.448L495.449 352.44C495.299 352.099 495.171 351.843 495.065 351.672C494.958 351.501 494.798 351.309 494.585 351.096C493.987 350.584 493.305 350.2 492.537 349.944C491.79 349.688 490.958 349.56 490.041 349.56C488.547 349.56 487.257 349.933 486.169 350.68C485.081 351.427 484.249 352.515 483.673 353.944C483.097 355.352 482.809 357.037 482.809 359C482.809 360.963 483.086 362.648 483.641 364.056C484.217 365.464 485.027 366.552 486.073 367.32C487.139 368.088 488.387 368.472 489.817 368.472C490.777 368.472 491.641 368.355 492.409 368.12C493.198 367.864 493.902 367.491 494.521 367C494.798 366.701 494.99 366.477 495.097 366.328C495.203 366.157 495.31 365.944 495.417 365.688L496.697 362.584C496.761 362.371 496.899 362.285 497.113 362.328L498.361 362.488C498.574 362.531 498.67 362.648 498.649 362.84L498.265 368.888C498.243 369.208 498.19 369.453 498.105 369.624C498.041 369.773 497.881 369.901 497.625 370.008C497.39 370.093 496.995 370.189 496.441 370.296L495.673 370.424C495.097 370.616 494.307 370.829 493.305 371.064C492.302 371.299 491.161 371.416 489.881 371.416ZM505.38 371V347.032H510.788V367.48C510.788 367.864 510.863 368.131 511.012 368.28C511.162 368.408 511.396 368.472 511.716 368.472H518.948C519.332 368.472 519.631 368.408 519.844 368.28C520.079 368.152 520.292 367.96 520.484 367.704L522.468 364.728C522.554 364.557 522.714 364.504 522.948 364.568L523.908 364.824C524.1 364.888 524.186 365.027 524.164 365.24L523.396 370.136C523.354 370.435 523.279 370.669 523.172 370.84C523.087 370.989 522.916 371.075 522.66 371.096C522.426 371.117 522.031 371.117 521.476 371.096L519.524 371H505.38ZM519.524 362.968C519.332 362.968 519.183 362.872 519.076 362.68L518.468 361.08C518.319 360.739 518.127 360.515 517.892 360.408C517.679 360.28 517.412 360.216 517.092 360.216H510.788V357.656H517.028C517.412 357.656 517.711 357.592 517.924 357.464C518.138 357.315 518.308 357.101 518.436 356.824L519.076 355.416C519.183 355.224 519.343 355.128 519.556 355.128H520.42C520.634 355.128 520.74 355.235 520.74 355.448V362.68C520.74 362.872 520.634 362.968 520.42 362.968H519.524ZM522.244 353.336C522.052 353.379 521.892 353.315 521.764 353.144L520.324 350.424C520.132 350.104 519.919 349.88 519.684 349.752C519.471 349.624 519.215 349.56 518.916 349.56H510.788V347.032H519.652L522.276 346.776C522.618 346.755 522.852 346.776 522.98 346.84C523.13 346.883 523.226 347.021 523.268 347.256C523.332 347.491 523.364 347.896 523.364 348.472L523.492 352.824C523.492 353.037 523.386 353.165 523.172 353.208L522.244 353.336ZM502.34 371C502.127 371 502.02 370.893 502.02 370.68V369.976C502.02 369.784 502.127 369.656 502.34 369.592L504.58 368.984C504.943 368.856 505.167 368.728 505.252 368.6C505.338 368.472 505.38 368.248 505.38 367.928V364.376H510.788V371H502.34ZM502.02 347.352C502.02 347.139 502.127 347.032 502.34 347.032H510.788V353.656H505.38V350.104C505.38 349.784 505.338 349.56 505.252 349.432C505.167 349.283 504.943 349.155 504.58 349.048L502.34 348.44C502.127 348.376 502.02 348.248 502.02 348.056V347.352ZM538.386 356.728C540.242 357.347 541.703 357.987 542.77 358.648C543.858 359.288 544.626 360.013 545.074 360.824C545.522 361.613 545.746 362.584 545.746 363.736C545.746 365.272 545.34 366.616 544.53 367.768C543.74 368.92 542.62 369.816 541.17 370.456C539.719 371.096 538.012 371.416 536.05 371.416C534.855 371.416 533.756 371.331 532.754 371.16C531.772 371.011 530.908 370.829 530.161 370.616C529.436 370.403 528.839 370.2 528.37 370.008C528.178 369.923 528.082 369.773 528.082 369.56L528.21 364.184C528.21 363.971 528.316 363.864 528.53 363.864L529.522 363.832C529.714 363.832 529.842 363.928 529.906 364.12L530.578 366.008C530.748 366.499 530.983 366.925 531.282 367.288C531.58 367.651 531.943 367.949 532.37 368.184C532.796 368.397 533.287 368.557 533.842 368.664C534.396 368.771 535.015 368.824 535.698 368.824C537.17 368.824 538.322 368.515 539.154 367.896C539.986 367.277 540.402 366.435 540.402 365.368C540.402 364.707 540.263 364.163 539.986 363.736C539.73 363.288 539.26 362.872 538.578 362.488C537.895 362.104 536.956 361.699 535.762 361.272C533.778 360.568 532.21 359.875 531.058 359.192C529.927 358.488 529.116 357.699 528.626 356.824C528.156 355.949 527.922 354.904 527.922 353.688C527.922 352.28 528.327 351.053 529.138 350.008C529.948 348.941 531.068 348.109 532.498 347.512C533.948 346.915 535.634 346.616 537.554 346.616C538.514 346.616 539.399 346.691 540.21 346.84C541.02 346.989 541.746 347.181 542.385 347.416C543.047 347.629 543.58 347.864 543.986 348.12C544.178 348.227 544.263 348.387 544.242 348.6L544.146 353.688C544.103 353.88 543.986 353.987 543.794 354.008L542.802 354.04C542.61 354.061 542.471 353.965 542.385 353.752L541.618 351.672C541.404 351.117 541.127 350.659 540.786 350.296C540.466 349.933 540.05 349.667 539.538 349.496C539.026 349.304 538.364 349.208 537.554 349.208C536.21 349.208 535.164 349.507 534.418 350.104C533.692 350.701 533.33 351.523 533.33 352.568C533.33 353.208 533.479 353.763 533.778 354.232C534.098 354.68 534.62 355.096 535.345 355.48C536.092 355.864 537.106 356.28 538.386 356.728Z" fill="#212121"/>
<rect x="202.75" y="73.75" width="289.5" height="127.5" rx="23.25" fill="url(#paint4_linear_774_6023)" stroke="url(#paint5_linear_774_6023)" stroke-width="1.5"/>
<path d="M268.239 114.493C268.239 115.72 267.211 116.714 265.943 116.714C264.676 116.714 263.648 115.72 263.648 114.493C263.648 113.267 264.676 112.272 265.943 112.272C267.211 112.272 268.239 113.267 268.239 114.493Z" fill="black"/>
<path d="M267.978 121.71C267.978 122.797 267.067 123.679 265.943 123.679C264.82 123.679 263.909 122.797 263.909 121.71C263.909 120.623 264.82 119.742 265.943 119.742C267.067 119.742 267.978 120.623 267.978 121.71Z" fill="black"/>
<path d="M267.769 128.549C267.769 129.538 266.94 130.341 265.917 130.341C264.895 130.341 264.065 129.538 264.065 128.549C264.065 127.559 264.895 126.757 265.917 126.757C266.94 126.757 267.769 127.559 267.769 128.549Z" fill="black"/>
<path d="M267.508 134.959C267.508 135.809 266.796 136.498 265.917 136.498C265.039 136.498 264.326 135.809 264.326 134.959C264.326 134.108 265.039 133.419 265.917 133.419C266.796 133.419 267.508 134.108 267.508 134.959Z" fill="black"/>
<path d="M267.247 140.864C267.247 141.574 266.652 142.151 265.917 142.151C265.183 142.151 264.587 141.574 264.587 140.864C264.587 140.153 265.183 139.577 265.917 139.577C266.652 139.577 267.247 140.153 267.247 140.864Z" fill="black"/>
<path d="M266.987 146.264C266.987 146.835 266.508 147.298 265.917 147.298C265.327 147.298 264.848 146.835 264.848 146.264C264.848 145.692 265.327 145.229 265.917 145.229C266.508 145.229 266.987 145.692 266.987 146.264Z" fill="black"/>
<path d="M266.726 151.159C266.726 151.591 266.364 151.942 265.917 151.942C265.471 151.942 265.109 151.591 265.109 151.159C265.109 150.727 265.471 150.377 265.917 150.377C266.364 150.377 266.726 150.727 266.726 151.159Z" fill="black"/>
<path d="M275.594 121.71C275.594 122.797 274.683 123.679 273.559 123.679C272.436 123.679 271.525 122.797 271.525 121.71C271.525 120.623 272.436 119.742 273.559 119.742C274.683 119.742 275.594 120.623 275.594 121.71Z" fill="black"/>
<path d="M260.362 121.71C260.362 122.797 259.451 123.679 258.327 123.679C257.204 123.679 256.293 122.797 256.293 121.71C256.293 120.623 257.204 119.742 258.327 119.742C259.451 119.742 260.362 120.623 260.362 121.71Z" fill="black"/>
<path d="M275.385 128.549C275.385 129.538 274.556 130.341 273.533 130.341C272.51 130.341 271.681 129.538 271.681 128.549C271.681 127.559 272.51 126.757 273.533 126.757C274.556 126.757 275.385 127.559 275.385 128.549Z" fill="black"/>
<path d="M260.153 128.549C260.153 129.538 259.324 130.341 258.301 130.341C257.279 130.341 256.449 129.538 256.449 128.549C256.449 127.559 257.279 126.757 258.301 126.757C259.324 126.757 260.153 127.559 260.153 128.549Z" fill="black"/>
<path d="M275.124 134.959C275.124 135.809 274.412 136.498 273.533 136.498C272.655 136.498 271.942 135.809 271.942 134.959C271.942 134.108 272.655 133.419 273.533 133.419C274.412 133.419 275.124 134.108 275.124 134.959Z" fill="black"/>
<path d="M259.892 134.959C259.892 135.809 259.18 136.498 258.301 136.498C257.423 136.498 256.71 135.809 256.71 134.959C256.71 134.108 257.423 133.419 258.301 133.419C259.18 133.419 259.892 134.108 259.892 134.959Z" fill="black"/>
<path d="M274.863 140.864C274.863 141.574 274.268 142.151 273.533 142.151C272.799 142.151 272.203 141.574 272.203 140.864C272.203 140.153 272.799 139.577 273.533 139.577C274.268 139.577 274.863 140.153 274.863 140.864Z" fill="black"/>
<path d="M259.631 140.864C259.631 141.574 259.036 142.151 258.301 142.151C257.567 142.151 256.971 141.574 256.971 140.864C256.971 140.153 257.567 139.577 258.301 139.577C259.036 139.577 259.631 140.153 259.631 140.864Z" fill="black"/>
<path d="M274.603 146.264C274.603 146.835 274.124 147.298 273.533 147.298C272.943 147.298 272.464 146.835 272.464 146.264C272.464 145.692 272.943 145.229 273.533 145.229C274.124 145.229 274.603 145.692 274.603 146.264Z" fill="black"/>
<path d="M259.371 146.264C259.371 146.835 258.892 147.298 258.301 147.298C257.711 147.298 257.232 146.835 257.232 146.264C257.232 145.692 257.711 145.229 258.301 145.229C258.892 145.229 259.371 145.692 259.371 146.264Z" fill="black"/>
<path d="M274.342 151.159C274.342 151.591 273.98 151.942 273.533 151.942C273.087 151.942 272.725 151.591 272.725 151.159C272.725 150.727 273.087 150.377 273.533 150.377C273.98 150.377 274.342 150.727 274.342 151.159Z" fill="black"/>
<path d="M259.11 151.159C259.11 151.591 258.748 151.942 258.301 151.942C257.855 151.942 257.493 151.591 257.493 151.159C257.493 150.727 257.855 150.377 258.301 150.377C258.748 150.377 259.11 150.727 259.11 151.159Z" fill="black"/>
<path d="M291.086 149.721C291.086 148.495 290.059 147.5 288.791 147.5C287.524 147.5 286.496 148.495 286.496 149.721C286.496 150.947 287.524 151.942 288.791 151.942C290.059 151.942 291.086 150.947 291.086 149.721Z" fill="#3432CA"/>
<path d="M290.826 142.504C290.826 141.417 289.915 140.536 288.791 140.536C287.668 140.536 286.757 141.417 286.757 142.504C286.757 143.591 287.668 144.472 288.791 144.472C289.915 144.472 290.826 143.591 290.826 142.504Z" fill="#3432CA"/>
<path d="M290.617 135.665C290.617 134.676 289.788 133.874 288.765 133.874C287.742 133.874 286.913 134.676 286.913 135.665C286.913 136.655 287.742 137.457 288.765 137.457C289.788 137.457 290.617 136.655 290.617 135.665Z" fill="#3432CA"/>
<path d="M290.356 129.256C290.356 128.405 289.644 127.716 288.765 127.716C287.886 127.716 287.174 128.405 287.174 129.256C287.174 130.106 287.886 130.795 288.765 130.795C289.644 130.795 290.356 130.106 290.356 129.256Z" fill="#3432CA"/>
<path d="M290.095 123.351C290.095 122.64 289.5 122.064 288.765 122.064C288.03 122.064 287.435 122.64 287.435 123.351C287.435 124.061 288.03 124.638 288.765 124.638C289.5 124.638 290.095 124.061 290.095 123.351Z" fill="#3432CA"/>
<path d="M289.834 117.95C289.834 117.379 289.356 116.916 288.765 116.916C288.175 116.916 287.696 117.379 287.696 117.95C287.696 118.522 288.175 118.985 288.765 118.985C289.356 118.985 289.834 118.522 289.834 117.95Z" fill="#3432CA"/>
<path d="M289.574 113.055C289.574 112.623 289.212 112.272 288.765 112.272C288.319 112.272 287.957 112.623 287.957 113.055C287.957 113.487 288.319 113.837 288.765 113.837C289.212 113.837 289.574 113.487 289.574 113.055Z" fill="#3432CA"/>
<path d="M298.442 142.504C298.442 141.417 297.531 140.536 296.407 140.536C295.284 140.536 294.373 141.417 294.373 142.504C294.373 143.591 295.284 144.472 296.407 144.472C297.531 144.472 298.442 143.591 298.442 142.504Z" fill="#3432CA"/>
<path d="M283.21 142.504C283.21 141.417 282.299 140.536 281.175 140.536C280.052 140.536 279.141 141.417 279.141 142.504C279.141 143.591 280.052 144.472 281.175 144.472C282.299 144.472 283.21 143.591 283.21 142.504Z" fill="#3432CA"/>
<path d="M298.233 135.665C298.233 134.676 297.404 133.874 296.381 133.874C295.358 133.874 294.529 134.676 294.529 135.665C294.529 136.655 295.358 137.457 296.381 137.457C297.404 137.457 298.233 136.655 298.233 135.665Z" fill="#3432CA"/>
<path d="M283.001 135.665C283.001 134.676 282.172 133.874 281.149 133.874C280.126 133.874 279.297 134.676 279.297 135.665C279.297 136.655 280.126 137.457 281.149 137.457C282.172 137.457 283.001 136.655 283.001 135.665Z" fill="#3432CA"/>
<path d="M297.972 129.256C297.972 128.405 297.26 127.716 296.381 127.716C295.502 127.716 294.79 128.405 294.79 129.256C294.79 130.106 295.502 130.795 296.381 130.795C297.26 130.795 297.972 130.106 297.972 129.256Z" fill="#3432CA"/>
<path d="M282.74 129.256C282.74 128.405 282.028 127.716 281.149 127.716C280.27 127.716 279.558 128.405 279.558 129.256C279.558 130.106 280.27 130.795 281.149 130.795C282.028 130.795 282.74 130.106 282.74 129.256Z" fill="#3432CA"/>
<path d="M297.711 123.351C297.711 122.64 297.116 122.064 296.381 122.064C295.646 122.064 295.051 122.64 295.051 123.351C295.051 124.061 295.646 124.638 296.381 124.638C297.116 124.638 297.711 124.061 297.711 123.351Z" fill="#3432CA"/>
<path d="M282.479 123.351C282.479 122.64 281.884 122.064 281.149 122.064C280.415 122.064 279.819 122.64 279.819 123.351C279.819 124.061 280.415 124.638 281.149 124.638C281.884 124.638 282.479 124.061 282.479 123.351Z" fill="#3432CA"/>
<path d="M297.45 117.95C297.45 117.379 296.972 116.916 296.381 116.916C295.79 116.916 295.312 117.379 295.312 117.95C295.312 118.522 295.79 118.985 296.381 118.985C296.972 118.985 297.45 118.522 297.45 117.95Z" fill="#3432CA"/>
<path d="M282.219 117.95C282.219 117.379 281.74 116.916 281.149 116.916C280.559 116.916 280.08 117.379 280.08 117.95C280.08 118.522 280.559 118.985 281.149 118.985C281.74 118.985 282.219 118.522 282.219 117.95Z" fill="#3432CA"/>
<path d="M297.19 113.055C297.19 112.623 296.828 112.272 296.381 112.272C295.935 112.272 295.573 112.623 295.573 113.055C295.573 113.487 295.935 113.837 296.381 113.837C296.828 113.837 297.19 113.487 297.19 113.055Z" fill="#3432CA"/>
<path d="M281.958 113.055C281.958 112.623 281.596 112.272 281.149 112.272C280.703 112.272 280.341 112.623 280.341 113.055C280.341 113.487 280.703 113.837 281.149 113.837C281.596 113.837 281.958 113.487 281.958 113.055Z" fill="#3432CA"/>
<path d="M335.115 119.768V120.462C334.328 120.485 333.726 120.601 333.31 120.809C332.916 121.017 332.65 121.353 332.511 121.815C332.373 122.278 332.303 122.938 332.303 123.794V144.516C332.164 144.516 332.025 144.516 331.887 144.516C331.771 144.516 331.644 144.516 331.505 144.516L316.926 121.989V140.316C316.926 141.149 316.996 141.809 317.135 142.295C317.297 142.758 317.597 143.093 318.037 143.301C318.5 143.486 319.182 143.602 320.085 143.648V144.343C319.668 144.296 319.125 144.273 318.454 144.273C317.783 144.25 317.146 144.239 316.544 144.239C315.966 144.239 315.376 144.25 314.774 144.273C314.196 144.273 313.71 144.296 313.316 144.343V143.648C314.103 143.602 314.693 143.486 315.087 143.301C315.503 143.093 315.781 142.758 315.92 142.295C316.059 141.809 316.128 141.149 316.128 140.316V123.447C316.128 122.591 316.059 121.966 315.92 121.573C315.781 121.156 315.503 120.878 315.087 120.739C314.693 120.577 314.103 120.485 313.316 120.462V119.768C313.71 119.791 314.196 119.814 314.774 119.837C315.376 119.86 315.966 119.872 316.544 119.872C317.054 119.872 317.54 119.86 318.002 119.837C318.465 119.814 318.882 119.791 319.252 119.768L331.505 138.65V123.794C331.505 122.938 331.424 122.278 331.262 121.815C331.123 121.353 330.822 121.017 330.359 120.809C329.92 120.601 329.249 120.485 328.346 120.462V119.768C328.763 119.791 329.306 119.814 329.977 119.837C330.672 119.86 331.308 119.872 331.887 119.872C332.488 119.872 333.078 119.86 333.657 119.837C334.258 119.814 334.744 119.791 335.115 119.768Z" fill="black"/>
<path d="M346.675 119.768V120.462C345.888 120.485 345.287 120.577 344.87 120.739C344.477 120.878 344.211 121.156 344.072 121.573C343.933 121.966 343.864 122.591 343.864 123.447V140.663C343.864 141.496 343.933 142.121 344.072 142.538C344.211 142.954 344.477 143.232 344.87 143.371C345.287 143.51 345.888 143.602 346.675 143.648V144.343C346.143 144.296 345.472 144.273 344.662 144.273C343.875 144.25 343.077 144.239 342.267 144.239C341.364 144.239 340.52 144.25 339.733 144.273C338.946 144.273 338.31 144.296 337.824 144.343V143.648C338.611 143.602 339.201 143.51 339.594 143.371C340.011 143.232 340.288 142.954 340.427 142.538C340.566 142.121 340.636 141.496 340.636 140.663V123.447C340.636 122.591 340.566 121.966 340.427 121.573C340.288 121.156 340.011 120.878 339.594 120.739C339.201 120.577 338.611 120.485 337.824 120.462V119.768C338.31 119.791 338.946 119.814 339.733 119.837C340.52 119.86 341.364 119.872 342.267 119.872C343.077 119.872 343.875 119.86 344.662 119.837C345.472 119.814 346.143 119.791 346.675 119.768Z" fill="black"/>
<path d="M376.903 119.768V120.462C376.117 120.485 375.515 120.577 375.099 120.739C374.705 120.878 374.439 121.156 374.3 121.573C374.161 121.966 374.092 122.591 374.092 123.447V140.663C374.092 141.496 374.161 142.121 374.3 142.538C374.439 142.954 374.705 143.232 375.099 143.371C375.515 143.51 376.117 143.602 376.903 143.648V144.343C376.371 144.296 375.7 144.273 374.89 144.273C374.104 144.25 373.305 144.239 372.495 144.239C371.593 144.239 370.748 144.25 369.961 144.273C369.175 144.273 368.538 144.296 368.052 144.343V143.648C368.839 143.602 369.429 143.51 369.823 143.371C370.239 143.232 370.517 142.954 370.656 142.538C370.794 142.121 370.864 141.496 370.864 140.663V121.573L371.003 121.677L362.499 144.516H361.943L353.196 121.989V140.316C353.196 141.149 353.266 141.809 353.404 142.295C353.566 142.758 353.867 143.093 354.307 143.301C354.77 143.486 355.452 143.602 356.355 143.648V144.343C355.938 144.296 355.394 144.273 354.723 144.273C354.052 144.25 353.416 144.239 352.814 144.239C352.236 144.239 351.646 144.25 351.044 144.273C350.466 144.273 349.98 144.296 349.586 144.343V143.648C350.373 143.602 350.963 143.486 351.356 143.301C351.773 143.093 352.051 142.758 352.19 142.295C352.328 141.809 352.398 141.149 352.398 140.316V123.447C352.398 122.591 352.328 121.966 352.19 121.573C352.051 121.156 351.773 120.878 351.356 120.739C350.963 120.577 350.373 120.485 349.586 120.462V119.768C349.98 119.791 350.466 119.814 351.044 119.837C351.646 119.86 352.236 119.872 352.814 119.872C353.323 119.872 353.844 119.86 354.376 119.837C354.932 119.814 355.394 119.791 355.765 119.768L363.644 140.524L363.054 140.802L370.864 119.872C371.142 119.872 371.408 119.872 371.662 119.872C371.94 119.872 372.218 119.872 372.495 119.872C373.305 119.872 374.104 119.86 374.89 119.837C375.7 119.814 376.371 119.791 376.903 119.768Z" fill="black"/>
<path d="M397.143 119.768C397.05 120.577 396.981 121.364 396.935 122.128C396.912 122.892 396.9 123.47 396.9 123.863C396.9 124.28 396.912 124.685 396.935 125.078C396.958 125.449 396.981 125.761 397.004 126.015H396.206C396.067 124.65 395.87 123.574 395.616 122.787C395.361 121.977 394.922 121.411 394.297 121.087C393.695 120.739 392.781 120.566 391.555 120.566H388.674C387.887 120.566 387.285 120.635 386.869 120.774C386.475 120.89 386.209 121.156 386.07 121.573C385.931 121.966 385.862 122.591 385.862 123.447V140.663C385.862 141.496 385.931 142.121 386.07 142.538C386.209 142.954 386.475 143.232 386.869 143.371C387.285 143.486 387.887 143.544 388.674 143.544H391.208C392.665 143.544 393.765 143.348 394.505 142.954C395.269 142.561 395.812 141.924 396.136 141.045C396.484 140.143 396.738 138.928 396.9 137.401H397.698C397.629 138.025 397.594 138.858 397.594 139.9C397.594 140.339 397.606 140.976 397.629 141.809C397.675 142.619 397.745 143.463 397.837 144.343C396.657 144.296 395.326 144.273 393.846 144.273C392.365 144.25 391.046 144.239 389.889 144.239C389.379 144.239 388.72 144.239 387.91 144.239C387.123 144.239 386.267 144.25 385.341 144.273C384.416 144.273 383.479 144.285 382.53 144.308C381.581 144.308 380.679 144.32 379.822 144.343V143.648C380.609 143.602 381.199 143.51 381.593 143.371C382.009 143.232 382.287 142.954 382.426 142.538C382.565 142.121 382.634 141.496 382.634 140.663V123.447C382.634 122.591 382.565 121.966 382.426 121.573C382.287 121.156 382.009 120.878 381.593 120.739C381.199 120.577 380.609 120.485 379.822 120.462V119.768C380.679 119.791 381.581 119.814 382.53 119.837C383.479 119.837 384.416 119.849 385.341 119.872C386.267 119.872 387.123 119.872 387.91 119.872C388.72 119.872 389.379 119.872 389.889 119.872C390.953 119.872 392.156 119.872 393.498 119.872C394.864 119.849 396.079 119.814 397.143 119.768ZM391.173 131.639C391.173 131.639 391.173 131.754 391.173 131.986C391.173 132.217 391.173 132.333 391.173 132.333H384.821C384.821 132.333 384.821 132.217 384.821 131.986C384.821 131.754 384.821 131.639 384.821 131.639H391.173ZM392.179 127.057C392.087 128.376 392.041 129.382 392.041 130.077C392.064 130.771 392.075 131.407 392.075 131.986C392.075 132.564 392.087 133.201 392.11 133.895C392.133 134.589 392.191 135.596 392.284 136.915H391.485C391.393 136.174 391.277 135.457 391.138 134.763C391.022 134.045 390.745 133.467 390.305 133.027C389.889 132.564 389.171 132.333 388.153 132.333V131.639C388.917 131.639 389.495 131.488 389.889 131.187C390.305 130.863 390.606 130.458 390.791 129.972C390.976 129.487 391.103 128.989 391.173 128.48C391.242 127.948 391.312 127.473 391.381 127.057H392.179Z" fill="black"/>
<path d="M408.402 119.386C409.559 119.386 410.439 119.525 411.04 119.802C411.642 120.057 412.174 120.346 412.637 120.67C412.915 120.832 413.134 120.959 413.296 121.052C413.482 121.121 413.655 121.156 413.817 121.156C414.049 121.156 414.211 121.029 414.303 120.774C414.419 120.52 414.511 120.138 414.581 119.629H415.379C415.356 120.022 415.321 120.496 415.275 121.052C415.252 121.584 415.229 122.301 415.206 123.204C415.206 124.083 415.206 125.252 415.206 126.71H414.407C414.338 125.599 414.095 124.534 413.678 123.516C413.262 122.498 412.649 121.665 411.839 121.017C411.052 120.369 410.011 120.045 408.715 120.045C407.488 120.045 406.47 120.415 405.66 121.156C404.873 121.896 404.48 122.868 404.48 124.072C404.48 125.113 404.746 125.992 405.278 126.71C405.811 127.404 406.516 128.04 407.396 128.619C408.298 129.174 409.27 129.776 410.311 130.424C411.515 131.164 412.579 131.905 413.505 132.645C414.453 133.363 415.194 134.161 415.726 135.04C416.282 135.92 416.559 136.984 416.559 138.234C416.559 139.715 416.224 140.941 415.553 141.913C414.882 142.885 413.991 143.614 412.88 144.1C411.769 144.586 410.543 144.829 409.201 144.829C407.974 144.829 407.002 144.69 406.285 144.412C405.568 144.134 404.954 143.845 404.445 143.544C403.936 143.22 403.543 143.058 403.265 143.058C403.034 143.058 402.86 143.186 402.744 143.44C402.652 143.695 402.571 144.077 402.501 144.586H401.703C401.749 144.1 401.773 143.533 401.773 142.885C401.796 142.214 401.807 141.346 401.807 140.282C401.83 139.217 401.842 137.875 401.842 136.255H402.64C402.733 137.644 402.987 138.939 403.404 140.143C403.844 141.346 404.503 142.318 405.382 143.058C406.285 143.776 407.477 144.134 408.958 144.134C409.721 144.134 410.439 143.984 411.11 143.683C411.804 143.359 412.371 142.862 412.811 142.191C413.25 141.496 413.47 140.605 413.47 139.518C413.47 138.569 413.239 137.748 412.776 137.053C412.336 136.336 411.711 135.677 410.901 135.075C410.092 134.45 409.143 133.814 408.055 133.166C406.968 132.495 405.949 131.812 405.001 131.118C404.052 130.424 403.288 129.625 402.71 128.723C402.154 127.797 401.877 126.687 401.877 125.391C401.877 124.025 402.177 122.903 402.779 122.024C403.404 121.121 404.214 120.462 405.209 120.045C406.204 119.606 407.268 119.386 408.402 119.386Z" fill="black"/>
<path d="M429.303 119.594L437.773 141.427C438.12 142.306 438.513 142.896 438.953 143.197C439.393 143.475 439.798 143.625 440.168 143.648V144.343C439.705 144.296 439.138 144.273 438.467 144.273C437.796 144.25 437.125 144.239 436.454 144.239C435.551 144.239 434.707 144.25 433.92 144.273C433.133 144.273 432.497 144.296 432.011 144.343V143.648C433.191 143.602 433.943 143.405 434.267 143.058C434.591 142.688 434.522 141.913 434.059 140.733L427.603 123.482L428.158 123.03L422.118 138.72C421.748 139.645 421.528 140.432 421.459 141.08C421.389 141.705 421.447 142.202 421.632 142.572C421.841 142.943 422.176 143.209 422.639 143.371C423.125 143.533 423.727 143.625 424.444 143.648V144.343C423.796 144.296 423.113 144.273 422.396 144.273C421.702 144.25 421.054 144.239 420.452 144.239C419.874 144.239 419.376 144.25 418.96 144.273C418.566 144.273 418.196 144.296 417.849 144.343V143.648C418.312 143.533 418.786 143.267 419.272 142.85C419.758 142.41 420.198 141.67 420.591 140.629L428.748 119.594C428.841 119.594 428.933 119.594 429.026 119.594C429.118 119.594 429.211 119.594 429.303 119.594ZM433.538 134.346V135.04H423.194L423.542 134.346H433.538Z" fill="black"/>
<defs>
<linearGradient id="paint0_linear_774_6023" x1="41.1513" y1="282.6" x2="656.135" y2="282.6" gradientUnits="userSpaceOnUse">
<stop/>
<stop offset="1" stop-color="#3432CA"/>
</linearGradient>
<linearGradient id="paint1_linear_774_6023" x1="41.1513" y1="282.6" x2="656.135" y2="282.6" gradientUnits="userSpaceOnUse">
<stop/>
<stop offset="1" stop-color="#3432CA"/>
</linearGradient>
<linearGradient id="paint2_linear_774_6023" x1="348" y1="325" x2="347.5" y2="411" gradientUnits="userSpaceOnUse">
<stop stop-color="white"/>
<stop offset="1" stop-color="white" stop-opacity="0"/>
</linearGradient>
<linearGradient id="paint3_linear_774_6023" x1="347.914" y1="400.254" x2="348.592" y2="224.641" gradientUnits="userSpaceOnUse">
<stop stop-color="white" stop-opacity="0"/>
<stop offset="1" stop-color="white"/>
</linearGradient>
<linearGradient id="paint4_linear_774_6023" x1="347.753" y1="153.342" x2="347.437" y2="202" gradientUnits="userSpaceOnUse">
<stop stop-color="white"/>
<stop offset="1" stop-color="white" stop-opacity="0"/>
</linearGradient>
<linearGradient id="paint5_linear_774_6023" x1="347.709" y1="195.92" x2="348.139" y2="96.5603" gradientUnits="userSpaceOnUse">
<stop stop-color="white" stop-opacity="0"/>
<stop offset="1" stop-color="white"/>
</linearGradient>
</defs>
</svg>
