<svg width="450" height="483" viewBox="0 0 450 483" fill="none" xmlns="http://www.w3.org/2000/svg">
<path d="M375.43 345C375.43 344.685 375.685 344.43 376 344.43C376.315 344.43 376.57 344.685 376.57 345H375.43ZM166 388.43H361V389.57H166V388.43ZM375.43 374V345H376.57V374H375.43ZM361 388.43C368.969 388.43 375.43 381.969 375.43 374H376.57C376.57 382.599 369.599 389.57 361 389.57V388.43Z" fill="url(#paint0_linear_810_5725)"/>
<path d="M254.397 384.977C254.528 384.95 254.647 384.881 254.735 384.78C254.823 384.679 254.874 384.551 254.882 384.418C254.982 382.65 255.677 380.967 256.856 379.643C258.034 378.318 259.627 377.43 261.375 377.121C263.123 376.812 264.924 377.1 266.487 377.94C268.05 378.78 269.283 380.122 269.986 381.748C270.021 381.827 270.072 381.898 270.136 381.956C270.2 382.014 270.276 382.057 270.358 382.084C270.44 382.11 270.528 382.118 270.614 382.108C270.699 382.098 270.782 382.07 270.856 382.026C271.647 381.548 272.547 381.279 273.471 381.244C274.395 381.209 275.313 381.409 276.138 381.826C276.963 382.242 277.668 382.861 278.187 383.624C278.706 384.388 279.022 385.27 279.104 386.189C279.112 386.271 279.136 386.351 279.175 386.424C279.215 386.497 279.269 386.561 279.334 386.612C279.399 386.663 279.474 386.7 279.554 386.721C279.634 386.742 279.718 386.746 279.8 386.733C280.344 386.649 280.901 386.689 281.427 386.85C281.954 387.011 282.437 387.289 282.84 387.664C283.244 388.038 283.556 388.499 283.755 389.011C283.954 389.524 284.033 390.075 283.987 390.622C283.942 391.17 283.772 391.7 283.491 392.173C283.21 392.645 282.825 393.048 282.365 393.351C281.906 393.654 281.383 393.849 280.837 393.921C280.291 393.993 279.735 393.94 279.212 393.767C279.131 393.741 279.046 393.733 278.961 393.742C278.877 393.751 278.795 393.777 278.721 393.819C278.647 393.862 278.584 393.919 278.534 393.988C278.484 394.057 278.449 394.135 278.432 394.218C278.292 394.881 277.996 395.5 277.567 396.024C277.138 396.549 276.589 396.963 275.967 397.231C275.344 397.5 274.666 397.616 273.989 397.569C273.312 397.522 272.656 397.313 272.077 396.961C271.945 396.881 271.787 396.855 271.636 396.887C271.485 396.919 271.352 397.007 271.264 397.134C270.547 398.167 269.55 398.977 268.39 399.469C267.23 399.962 265.954 400.116 264.71 399.914C263.466 399.712 262.304 399.162 261.361 398.329C260.417 397.495 259.729 396.412 259.377 395.205C259.351 395.114 259.303 395.031 259.239 394.962C259.174 394.893 259.094 394.839 259.005 394.807C258.916 394.774 258.82 394.763 258.726 394.773C258.632 394.784 258.542 394.817 258.462 394.868C257.789 395.31 257.026 395.598 256.228 395.711C255.43 395.824 254.617 395.759 253.847 395.522C253.078 395.285 252.37 394.88 251.775 394.338C251.181 393.795 250.714 393.128 250.408 392.384C250.102 391.64 249.966 390.838 250.007 390.036C250.049 389.233 250.269 388.45 250.65 387.741C251.031 387.033 251.565 386.418 252.213 385.94C252.861 385.462 253.606 385.134 254.397 384.977Z" fill="#3432CA"/>
<path d="M201 92H358C366.284 92 373 98.7157 373 107V198" stroke="url(#paint1_linear_810_5725)" stroke-width="1.14092"/>
<path d="M357.397 89.977C357.528 89.9504 357.647 89.8812 357.735 89.78C357.823 89.6788 357.874 89.5514 357.882 89.4178C357.982 87.6498 358.677 85.9673 359.856 84.6428C361.034 83.3184 362.627 82.4296 364.375 82.1206C366.123 81.8116 367.924 82.1004 369.487 82.9403C371.05 83.7801 372.283 85.1218 372.986 86.7478C373.021 86.827 373.072 86.898 373.136 86.9559C373.2 87.0138 373.276 87.0574 373.358 87.0837C373.44 87.11 373.528 87.1184 373.614 87.1084C373.699 87.0984 373.782 87.0702 373.856 87.0256C374.647 86.5481 375.547 86.2792 376.471 86.2442C377.395 86.2092 378.313 86.4094 379.138 86.8258C379.963 87.2422 380.668 87.8611 381.187 88.6244C381.706 89.3876 382.022 90.27 382.104 91.1885C382.112 91.2711 382.136 91.3513 382.175 91.4241C382.215 91.497 382.269 91.561 382.334 91.6122C382.399 91.6633 382.474 91.7004 382.554 91.7213C382.634 91.7421 382.718 91.7461 382.8 91.7332C383.344 91.6487 383.901 91.6885 384.427 91.8497C384.954 92.0109 385.437 92.2892 385.84 92.6636C386.244 93.0381 386.556 93.4989 386.755 94.0114C386.954 94.5239 387.033 95.0748 386.987 95.6223C386.942 96.1699 386.772 96.7 386.491 97.1727C386.21 97.6454 385.825 98.0483 385.365 98.3511C384.906 98.6538 384.383 98.8486 383.837 98.9206C383.291 98.9927 382.735 98.9402 382.212 98.767C382.131 98.7413 382.046 98.7326 381.961 98.7415C381.877 98.7505 381.795 98.7769 381.721 98.8191C381.647 98.8617 381.584 98.9192 381.534 98.9881C381.484 99.0569 381.449 99.1354 381.432 99.2185C381.292 99.8808 380.996 100.5 380.567 101.024C380.138 101.549 379.589 101.963 378.967 102.231C378.344 102.5 377.666 102.616 376.989 102.569C376.312 102.522 375.656 102.313 375.077 101.961C374.945 101.881 374.787 101.855 374.636 101.887C374.485 101.919 374.352 102.007 374.264 102.134C373.547 103.167 372.55 103.977 371.39 104.469C370.23 104.962 368.954 105.116 367.71 104.914C366.466 104.712 365.304 104.162 364.361 103.329C363.417 102.495 362.729 101.412 362.377 100.205C362.351 100.114 362.303 100.031 362.239 99.9617C362.174 99.8925 362.094 99.8395 362.005 99.8068C361.916 99.7741 361.82 99.7626 361.726 99.7733C361.632 99.784 361.542 99.8166 361.462 99.8684C360.789 100.31 360.026 100.598 359.228 100.711C358.43 100.824 357.617 100.759 356.847 100.522C356.078 100.285 355.37 99.88 354.775 99.3375C354.181 98.795 353.714 98.128 353.408 97.3842C353.102 96.6405 352.966 95.8385 353.007 95.0358C353.049 94.2331 353.269 93.4495 353.65 92.7414C354.031 92.0333 354.565 91.4182 355.213 90.9401C355.861 90.462 356.606 90.1335 357.397 89.977Z" fill="#3432CA"/>
<path d="M103.5 149V236V296" stroke="url(#paint2_linear_810_5725)" stroke-width="1.14092"/>
<path opacity="0.3" d="M104.134 405L104.134 49M148.96 405L148.96 49M193.785 405L193.785 49M238.611 405L238.611 49M283.437 405L283.437 49M328.263 405L328.263 49M373.088 405L373.088 49M61.1758 92.0494H416.42M61.1758 136.971H416.42M61.1758 181.892H416.42M61.1758 226.813H416.42M61.1758 271.734H416.42M61.1758 316.655H416.42M61.1758 361.576H416.42" stroke="url(#paint3_radial_810_5725)"/>
<g filter="url(#filter0_d_810_5725)">
<rect x="30" y="310" width="136" height="136" rx="27.382" fill="white"/>
<rect x="30.5705" y="310.57" width="134.859" height="134.859" rx="26.8115" stroke="url(#paint4_linear_810_5725)" stroke-width="1.14092"/>
</g>
<g clip-path="url(#clip0_810_5725)">
<path d="M122.548 369.62C121.331 368.918 119.913 368.731 118.547 369.094C117.778 369.3 117.112 369.701 116.525 370.202L113.078 368.212C113.93 366.271 114.42 364.136 114.42 361.883C114.42 359.63 113.93 357.495 113.078 355.553L116.525 353.564C117.112 354.065 117.778 354.466 118.547 354.671C119.002 354.793 119.462 354.853 119.92 354.853C120.833 354.853 121.736 354.615 122.548 354.146C125.065 352.692 125.932 349.461 124.479 346.941C123.022 344.425 119.794 343.556 117.276 345.011H117.273C115.292 346.156 114.356 348.4 114.747 350.531L111.288 352.527C108.737 349.078 104.835 346.744 100.357 346.241V342.106C102.399 341.378 103.873 339.445 103.873 337.156C103.873 334.249 101.508 331.883 98.5994 331.883C95.6917 331.883 93.326 334.249 93.326 337.156C93.326 339.445 94.8 341.378 96.8416 342.106V346.24C92.3642 346.744 88.4622 349.078 85.9111 352.527L82.4527 350.53C82.8427 348.399 81.9066 346.155 79.9263 345.01H79.9226C77.4063 343.558 74.1754 344.425 72.7197 346.943C71.2677 349.461 72.1342 352.692 74.651 354.146C75.4631 354.614 76.3639 354.853 77.279 354.853C77.7354 354.853 78.1973 354.793 78.6523 354.671C79.4209 354.466 80.0865 354.065 80.6743 353.564L84.1208 355.553C83.2684 357.495 82.7791 359.63 82.7791 361.883C82.7791 364.136 83.2684 366.271 84.1208 368.212L80.6743 370.202C80.0865 369.701 79.4204 369.3 78.6523 369.094C77.2914 368.731 75.87 368.916 74.651 369.62C72.1342 371.074 71.2677 374.304 72.7197 376.824C73.6966 378.513 75.4713 379.459 77.2964 379.459C78.1904 379.459 79.0968 379.233 79.9263 378.756C81.9066 377.61 82.8427 375.366 82.4522 373.235L85.9111 371.239C88.4622 374.688 92.3642 377.022 96.8416 377.526V381.66C94.8 382.388 93.326 384.321 93.326 386.609C93.326 389.517 95.6917 391.883 98.5994 391.883C101.508 391.883 103.873 389.517 103.873 386.609C103.873 384.321 102.399 382.388 100.357 381.66V377.526C104.835 377.022 108.737 374.688 111.288 371.239L114.747 373.235C114.356 375.366 115.293 377.61 117.276 378.756C118.104 379.233 119.008 379.459 119.901 379.459C121.726 379.459 123.502 378.513 124.479 376.822C125.932 374.304 125.065 371.074 122.548 369.62ZM93.326 353.094H103.873V356.609H93.326V353.094ZM103.873 370.672H93.326V367.156H103.873V370.672ZM105.631 363.641H91.5681V360.125H105.631V363.641Z" fill="#009900"/>
</g>
<path d="M77.8453 417.112C77.6319 417.112 77.4666 417.048 77.3493 416.92C77.2319 416.792 77.1733 416.621 77.1733 416.408V406.312C77.1733 406.088 77.2319 405.917 77.3493 405.8C77.4773 405.672 77.6479 405.608 77.8613 405.608C78.0533 405.608 78.2026 405.645 78.3093 405.72C78.4266 405.795 78.5333 405.923 78.6293 406.104L82.9173 414.152H82.4213L86.7093 406.104C86.8053 405.923 86.9066 405.795 87.0133 405.72C87.1199 405.645 87.2693 405.608 87.4613 405.608C87.6746 405.608 87.8399 405.672 87.9573 405.8C88.0746 405.917 88.1333 406.088 88.1333 406.312V416.408C88.1333 416.621 88.0746 416.792 87.9573 416.92C87.8506 417.048 87.6853 417.112 87.4613 417.112C87.2373 417.112 87.0666 417.048 86.9493 416.92C86.8426 416.792 86.7893 416.621 86.7893 416.408V407.784H87.1413L83.3013 414.968C83.2159 415.107 83.1253 415.213 83.0293 415.288C82.9439 415.352 82.8213 415.384 82.6613 415.384C82.5119 415.384 82.3839 415.347 82.2773 415.272C82.1813 415.197 82.0959 415.096 82.0213 414.968L78.1332 407.768H78.5173V416.408C78.5173 416.621 78.4586 416.792 78.3413 416.92C78.2346 417.048 78.0693 417.112 77.8453 417.112ZM93.9956 417.144C93.2276 417.144 92.561 416.979 91.9956 416.648C91.4303 416.317 90.993 415.848 90.6836 415.24C90.3743 414.632 90.2196 413.917 90.2196 413.096C90.2196 412.477 90.305 411.923 90.4756 411.432C90.657 410.931 90.913 410.504 91.2436 410.152C91.5743 409.8 91.969 409.533 92.4276 409.352C92.897 409.16 93.4196 409.064 93.9956 409.064C94.7636 409.064 95.4303 409.229 95.9956 409.56C96.561 409.891 96.9983 410.36 97.3076 410.968C97.617 411.565 97.7716 412.275 97.7716 413.096C97.7716 413.715 97.681 414.275 97.4996 414.776C97.329 415.277 97.0783 415.704 96.7476 416.056C96.417 416.408 96.017 416.68 95.5476 416.872C95.089 417.053 94.5716 417.144 93.9956 417.144ZM93.9956 415.992C94.465 415.992 94.8703 415.88 95.2116 415.656C95.5636 415.432 95.8303 415.107 96.0116 414.68C96.2036 414.253 96.2996 413.725 96.2996 413.096C96.2996 412.157 96.0916 411.443 95.6756 410.952C95.2596 410.461 94.6996 410.216 93.9956 410.216C93.537 410.216 93.1316 410.328 92.7796 410.552C92.4383 410.765 92.1716 411.085 91.9796 411.512C91.7876 411.939 91.6916 412.467 91.6916 413.096C91.6916 414.035 91.8996 414.755 92.3156 415.256C92.7423 415.747 93.3023 415.992 93.9956 415.992ZM102.613 417.144C101.93 417.144 101.327 416.984 100.805 416.664C100.293 416.333 99.8928 415.864 99.6048 415.256C99.3168 414.637 99.1728 413.917 99.1728 413.096C99.1728 412.264 99.3114 411.549 99.5888 410.952C99.8768 410.344 100.277 409.88 100.789 409.56C101.311 409.229 101.919 409.064 102.613 409.064C103.306 409.064 103.903 409.24 104.405 409.592C104.906 409.933 105.242 410.392 105.413 410.968H105.237V406.344C105.237 406.099 105.295 405.917 105.413 405.8C105.541 405.672 105.722 405.608 105.957 405.608C106.191 405.608 106.373 405.672 106.501 405.8C106.629 405.917 106.693 406.099 106.693 406.344V416.36C106.693 416.605 106.629 416.792 106.501 416.92C106.373 417.048 106.191 417.112 105.957 417.112C105.733 417.112 105.557 417.048 105.429 416.92C105.301 416.792 105.237 416.605 105.237 416.36V414.904L105.413 415.192C105.253 415.789 104.917 416.264 104.405 416.616C103.903 416.968 103.306 417.144 102.613 417.144ZM102.949 415.992C103.418 415.992 103.823 415.88 104.165 415.656C104.517 415.432 104.783 415.107 104.965 414.68C105.157 414.253 105.253 413.725 105.253 413.096C105.253 412.157 105.045 411.443 104.629 410.952C104.213 410.461 103.653 410.216 102.949 410.216C102.49 410.216 102.085 410.328 101.733 410.552C101.391 410.765 101.125 411.085 100.933 411.512C100.741 411.939 100.645 412.467 100.645 413.096C100.645 414.035 100.853 414.755 101.269 415.256C101.695 415.747 102.255 415.992 102.949 415.992ZM112.627 417.144C111.785 417.144 111.059 416.984 110.451 416.664C109.854 416.333 109.39 415.869 109.059 415.272C108.729 414.664 108.563 413.949 108.563 413.128C108.563 412.317 108.723 411.608 109.043 411C109.374 410.392 109.822 409.917 110.387 409.576C110.963 409.235 111.619 409.064 112.355 409.064C112.878 409.064 113.347 409.155 113.763 409.336C114.19 409.507 114.553 409.757 114.851 410.088C115.15 410.419 115.374 410.824 115.523 411.304C115.683 411.773 115.763 412.307 115.763 412.904C115.763 413.075 115.71 413.208 115.603 413.304C115.507 413.389 115.363 413.432 115.171 413.432H109.699V412.504H114.803L114.531 412.728C114.531 412.173 114.446 411.704 114.275 411.32C114.115 410.925 113.875 410.627 113.555 410.424C113.246 410.221 112.857 410.12 112.387 410.12C111.875 410.12 111.438 410.243 111.075 410.488C110.713 410.723 110.435 411.059 110.243 411.496C110.051 411.923 109.955 412.419 109.955 412.984V413.08C109.955 414.04 110.185 414.765 110.643 415.256C111.102 415.747 111.763 415.992 112.627 415.992C112.969 415.992 113.315 415.949 113.667 415.864C114.03 415.779 114.377 415.624 114.707 415.4C114.867 415.304 115.011 415.261 115.139 415.272C115.278 415.272 115.39 415.315 115.475 415.4C115.561 415.475 115.614 415.571 115.635 415.688C115.657 415.795 115.641 415.912 115.587 416.04C115.534 416.168 115.433 416.28 115.283 416.376C114.931 416.621 114.51 416.813 114.019 416.952C113.539 417.08 113.075 417.144 112.627 417.144ZM120.022 417.144C119.222 417.144 118.614 416.909 118.198 416.44C117.782 415.96 117.574 415.272 117.574 414.376V406.344C117.574 406.099 117.638 405.917 117.766 405.8C117.894 405.672 118.07 405.608 118.294 405.608C118.529 405.608 118.71 405.672 118.838 405.8C118.966 405.917 119.03 406.099 119.03 406.344V414.264C119.03 414.819 119.142 415.235 119.366 415.512C119.601 415.779 119.932 415.912 120.358 415.912C120.454 415.912 120.54 415.912 120.614 415.912C120.689 415.901 120.764 415.891 120.838 415.88C120.956 415.869 121.041 415.901 121.094 415.976C121.148 416.051 121.174 416.2 121.174 416.424C121.174 416.627 121.126 416.787 121.03 416.904C120.945 417.011 120.801 417.08 120.598 417.112C120.502 417.123 120.406 417.128 120.31 417.128C120.214 417.139 120.118 417.144 120.022 417.144Z" fill="#212121"/>
<g filter="url(#filter1_d_810_5725)">
<rect x="45" width="136" height="136" rx="27.382" fill="white"/>
<rect x="45.5705" y="0.570458" width="134.859" height="134.859" rx="26.8115" stroke="url(#paint5_linear_810_5725)" stroke-width="1.14092"/>
</g>
<path d="M104.102 71.4531C105.72 71.4531 107.031 70.1415 107.031 68.5234C107.031 66.9054 105.72 65.5938 104.102 65.5938C102.484 65.5938 101.172 66.9054 101.172 68.5234C101.172 70.1415 102.484 71.4531 104.102 71.4531Z" fill="#009900"/>
<path d="M134.491 27.406C133.273 26.187 131.654 25.5156 129.931 25.5156H128.764V27.8594C128.764 30.4441 126.661 32.5469 124.077 32.5469H102.983C100.398 32.5469 98.2955 30.4441 98.2955 27.8594V25.5156H97.1185C93.5685 25.5156 90.6772 28.4038 90.6732 31.9538L90.625 75.5475C90.6231 77.2704 91.2926 78.8907 92.5102 80.1096C93.7278 81.3286 95.3473 82 97.0702 82H129.883C133.433 82 136.324 79.1118 136.328 75.5618L136.376 31.9681C136.378 30.2451 135.709 28.6248 134.491 27.406ZM97.6561 68.5234C97.6561 64.9695 100.548 62.0781 104.101 62.0781C107.655 62.0781 110.547 64.9695 110.547 68.5234C110.547 72.0774 107.655 74.9688 104.101 74.9688C100.548 74.9688 97.6561 72.0774 97.6561 68.5234ZM118.058 39.7158C117.371 39.0295 117.371 37.9164 118.058 37.2299C118.744 36.5436 119.857 36.5436 120.544 37.2299L123.444 40.1302L126.344 37.2299C127.031 36.5436 128.144 36.5436 128.83 37.2299C129.517 37.9163 129.517 39.0293 128.83 39.7158L125.93 42.6161L128.83 45.5164C129.517 46.2027 129.517 47.3158 128.83 48.0023C128.487 48.3455 128.037 48.5172 127.587 48.5172C127.137 48.5172 126.687 48.3455 126.344 48.0023L123.444 45.102L120.544 48.0023C120.201 48.3455 119.751 48.5172 119.301 48.5172C118.851 48.5172 118.401 48.3455 118.058 48.0023C117.372 47.3159 117.372 46.2029 118.058 45.5164L120.958 42.6161L118.058 39.7158ZM102.363 37.7829C103.05 37.0966 104.163 37.0966 104.849 37.7829L109.007 41.9409C109.694 42.6272 109.694 43.7403 109.007 44.4268C108.664 44.77 108.214 44.9417 107.764 44.9417C107.315 44.9417 106.865 44.77 106.521 44.4268L105.374 43.279V49.35C105.374 51.5256 106.74 53.5067 108.774 54.2795L118.991 58.162C122.381 59.45 124.658 62.7517 124.658 66.3777V73.2109C124.658 74.1817 123.871 74.9688 122.9 74.9688C121.929 74.9688 121.142 74.1817 121.142 73.2109V66.3777C121.142 64.2021 119.776 62.2211 117.742 61.4482L107.525 57.5658C104.136 56.2778 101.858 52.9761 101.858 49.35V43.26L100.71 44.4078C100.024 45.0941 98.911 45.0941 98.2245 44.4078C97.538 43.7214 97.538 42.6084 98.2245 41.9219L102.363 37.7829Z" fill="#009900"/>
<path d="M101.812 27.8594C101.812 28.5066 102.337 29.0312 102.984 29.0312H124.078C124.725 29.0312 125.25 28.5066 125.25 27.8594V23.1719C125.25 22.5246 124.725 22 124.078 22H102.984C102.337 22 101.812 22.5246 101.812 23.1719V27.8594Z" fill="#009900"/>
<path d="M99.2523 107.112C99.0176 107.112 98.8363 107.048 98.7083 106.92C98.5803 106.781 98.5163 106.589 98.5163 106.344V96.472C98.5163 96.2267 98.5803 96.04 98.7083 95.912C98.8469 95.784 99.0336 95.72 99.2682 95.72H103.076C104.292 95.72 105.226 96.0187 105.876 96.616C106.538 97.2133 106.868 98.0507 106.868 99.128C106.868 100.216 106.538 101.059 105.876 101.656C105.226 102.253 104.292 102.552 103.076 102.552H100.004V106.344C100.004 106.589 99.9403 106.781 99.8123 106.92C99.6949 107.048 99.5083 107.112 99.2523 107.112ZM100.004 101.352H102.884C103.716 101.352 104.34 101.165 104.756 100.792C105.183 100.408 105.396 99.8533 105.396 99.128C105.396 98.4027 105.183 97.8587 104.756 97.496C104.34 97.1227 103.716 96.936 102.884 96.936H100.004V101.352ZM110.96 107.144C110.16 107.144 109.552 106.909 109.136 106.44C108.72 105.96 108.512 105.272 108.512 104.376V96.344C108.512 96.0987 108.576 95.9173 108.704 95.8C108.832 95.672 109.008 95.608 109.232 95.608C109.466 95.608 109.648 95.672 109.776 95.8C109.904 95.9173 109.968 96.0987 109.968 96.344V104.264C109.968 104.819 110.08 105.235 110.304 105.512C110.538 105.779 110.869 105.912 111.296 105.912C111.392 105.912 111.477 105.912 111.552 105.912C111.626 105.901 111.701 105.891 111.776 105.88C111.893 105.869 111.978 105.901 112.032 105.976C112.085 106.051 112.112 106.2 112.112 106.424C112.112 106.627 112.064 106.787 111.968 106.904C111.882 107.011 111.738 107.08 111.536 107.112C111.44 107.123 111.344 107.128 111.248 107.128C111.152 107.139 111.056 107.144 110.96 107.144ZM115.804 107.144C115.271 107.144 114.786 107.037 114.348 106.824C113.922 106.611 113.586 106.323 113.34 105.96C113.106 105.597 112.988 105.192 112.988 104.744C112.988 104.168 113.132 103.715 113.42 103.384C113.708 103.053 114.194 102.819 114.876 102.68C115.559 102.531 116.476 102.456 117.628 102.456H118.38V103.384H117.66C116.839 103.384 116.188 103.421 115.708 103.496C115.239 103.571 114.908 103.704 114.716 103.896C114.524 104.077 114.428 104.333 114.428 104.664C114.428 105.08 114.572 105.421 114.86 105.688C115.159 105.955 115.564 106.088 116.076 106.088C116.482 106.088 116.839 105.992 117.148 105.8C117.458 105.597 117.703 105.331 117.884 105C118.066 104.659 118.156 104.269 118.156 103.832V101.992C118.156 101.363 118.028 100.909 117.772 100.632C117.516 100.344 117.084 100.2 116.476 100.2C116.124 100.2 115.762 100.248 115.388 100.344C115.015 100.44 114.626 100.589 114.22 100.792C114.06 100.867 113.922 100.893 113.804 100.872C113.687 100.84 113.591 100.776 113.516 100.68C113.452 100.573 113.415 100.461 113.404 100.344C113.404 100.216 113.431 100.093 113.484 99.976C113.548 99.8587 113.655 99.7733 113.804 99.72C114.274 99.4853 114.738 99.32 115.196 99.224C115.666 99.1173 116.103 99.064 116.508 99.064C117.202 99.064 117.772 99.176 118.22 99.4C118.668 99.6133 119.004 99.9493 119.228 100.408C119.452 100.856 119.564 101.432 119.564 102.136V106.36C119.564 106.605 119.506 106.792 119.388 106.92C119.271 107.048 119.1 107.112 118.876 107.112C118.663 107.112 118.492 107.048 118.364 106.92C118.247 106.792 118.188 106.605 118.188 106.36V105.224H118.332C118.247 105.619 118.087 105.96 117.852 106.248C117.618 106.536 117.324 106.76 116.972 106.92C116.631 107.069 116.242 107.144 115.804 107.144ZM122.576 107.112C122.352 107.112 122.176 107.048 122.048 106.92C121.92 106.792 121.856 106.605 121.856 106.36V99.832C121.856 99.5867 121.92 99.4053 122.048 99.288C122.176 99.16 122.352 99.096 122.576 99.096C122.8 99.096 122.97 99.16 123.088 99.288C123.216 99.4053 123.28 99.5867 123.28 99.832V101.144L123.104 100.904C123.328 100.296 123.69 99.8373 124.192 99.528C124.704 99.2187 125.285 99.064 125.936 99.064C126.565 99.064 127.082 99.176 127.488 99.4C127.893 99.624 128.197 99.9653 128.4 100.424C128.602 100.883 128.704 101.464 128.704 102.168V106.36C128.704 106.605 128.64 106.792 128.512 106.92C128.394 107.048 128.218 107.112 127.984 107.112C127.749 107.112 127.568 107.048 127.44 106.92C127.312 106.792 127.248 106.605 127.248 106.36V102.248C127.248 101.555 127.114 101.048 126.848 100.728C126.581 100.408 126.154 100.248 125.568 100.248C124.885 100.248 124.336 100.461 123.92 100.888C123.514 101.304 123.312 101.869 123.312 102.584V106.36C123.312 106.861 123.066 107.112 122.576 107.112Z" fill="#212121"/>
<g filter="url(#filter2_d_810_5725)">
<rect x="307" y="200" width="136" height="136" rx="27.382" fill="white"/>
<rect x="307.57" y="200.57" width="134.859" height="134.859" rx="26.8115" stroke="url(#paint6_linear_810_5725)" stroke-width="1.14092"/>
</g>
<path fill-rule="evenodd" clip-rule="evenodd" d="M351.556 263.984C351.65 264.619 351.211 265.208 350.578 265.301C349.94 265.395 349.355 264.955 349.261 264.32C349.168 263.686 349.607 263.095 350.239 263.002C350.877 262.91 351.468 263.349 351.556 263.984ZM383.188 239.194C386.421 242.782 388.834 245.898 390.426 248.693C393.445 253.994 392.698 259.338 389.738 263.249L387.099 264.787C386.388 265.2 385.665 265.462 384.917 265.59C385.229 265.176 385.47 264.68 385.626 264.104C386.213 261.928 384.91 259.776 382.82 259.052L382.684 259.005L382.543 258.979C382.06 258.891 381.58 258.791 381.102 258.681C381.529 258.11 381.779 257.407 381.759 256.561C381.756 256.415 381.747 256.287 381.734 256.177C381.565 254.783 380.81 253.875 379.81 253.271C378.932 252.741 377.878 252.477 376.912 252.318C376.215 252.204 375.482 252.01 374.944 251.659C374.528 251.388 374.229 250.994 374.201 250.419C374.171 249.796 374.443 249.294 374.871 248.945C375.207 248.672 375.635 248.483 376.099 248.39C376.285 248.352 376.478 248.33 376.672 248.325C376.692 248.326 376.713 248.327 376.734 248.327C376.759 248.327 376.784 248.326 376.808 248.324C377.065 248.328 377.323 248.361 377.576 248.425C378.352 248.622 379.058 249.133 379.43 250.019C379.653 250.551 380.265 250.801 380.796 250.578C381.327 250.355 381.577 249.743 381.355 249.212C380.699 247.652 379.452 246.75 378.081 246.403C377.981 246.377 377.879 246.355 377.777 246.336V245.527C377.777 244.95 377.31 244.483 376.734 244.483C376.157 244.483 375.69 244.95 375.69 245.527V246.351C374.899 246.511 374.156 246.844 373.558 247.331C372.639 248.078 372.056 249.163 372.122 250.516C372.188 251.876 372.866 252.788 373.811 253.404C374.634 253.942 375.645 254.22 376.578 254.373C377.327 254.496 378.126 254.691 378.734 255.057C379.22 255.351 379.585 255.779 379.663 256.422C379.673 256.507 379.679 256.57 379.68 256.609C379.692 257.12 379.447 257.509 379.08 257.788C378.956 257.882 378.818 257.966 378.67 258.04C375.974 257.247 373.469 256.219 370.806 255.356C368.027 254.454 365.437 255.474 363.036 256.865L361.4 257.813C360.88 254.96 361.348 251.819 363.129 248.693C364.721 245.898 367.134 242.782 370.367 239.194C370.773 239.326 371.206 239.398 371.654 239.398H381.9C382.349 239.398 382.782 239.326 383.188 239.194ZM371.654 237.523H381.9C383.164 237.523 384.197 236.489 384.197 235.226C384.197 233.963 383.164 232.93 381.9 232.93H371.654C370.391 232.93 369.358 233.963 369.358 235.226C369.358 236.49 370.391 237.523 371.654 237.523ZM371.571 231.056L369.684 229.169C368.767 228.252 368.767 226.75 369.684 225.832C370.465 225.051 371.701 224.919 372.63 225.515C372.975 225.737 373.371 225.772 373.75 225.615C374.129 225.459 374.384 225.154 374.471 224.753C374.703 223.693 375.651 222.894 376.778 222.894C377.884 222.894 378.848 223.673 379.084 224.753C379.171 225.154 379.427 225.459 379.805 225.615C380.184 225.772 380.58 225.737 380.925 225.515C381.838 224.93 383.074 225.035 383.871 225.832V225.832C384.788 226.75 384.788 228.252 383.871 229.169L381.984 231.056C381.956 231.055 381.928 231.055 381.9 231.055H371.654C371.626 231.055 371.599 231.055 371.571 231.056ZM355.299 263.514L361.554 274.551L363.907 273.193C364.135 273.061 364.405 273.025 364.662 273.094L379.442 276.349C381.398 276.872 383.236 276.614 384.916 275.581L402.864 264.427C403.841 263.827 404.14 262.067 403.467 260.94C402.489 259.308 399.902 259.501 396.541 261.457L388.042 266.407C386.274 267.439 384.366 267.774 382.217 267.429C381.825 267.366 381.439 267.299 381.058 267.226C380.976 267.22 373.828 265.362 373.009 265.141C372.476 264.999 372.16 264.455 372.306 263.926C372.446 263.396 372.991 263.082 373.518 263.224C374.355 263.448 379.425 264.885 381.327 265.255C382.299 265.317 383.429 265.047 383.816 263.616C384.132 262.443 383.441 261.251 382.206 260.824C378.734 260.188 375.379 258.977 372.686 258.001C371.744 257.661 370.93 257.367 370.228 257.139C368.015 256.421 365.913 257.363 363.975 258.488L355.299 263.514ZM361.327 278.198L351.761 261.295C351.667 261.13 351.515 261.012 351.328 260.96C351.263 260.943 351.199 260.934 351.134 260.934C351.012 260.934 350.894 260.965 350.789 261.025L347.534 262.866C347.189 263.061 347.072 263.498 347.265 263.841L356.831 280.744C357.024 281.087 357.463 281.208 357.803 281.014L361.058 279.173C361.221 279.079 361.339 278.926 361.391 278.741C361.444 278.556 361.421 278.364 361.327 278.198Z" fill="#009900"/>
<path d="M359.535 307.112C359.289 307.112 359.097 307.043 358.959 306.904C358.82 306.765 358.751 306.568 358.751 306.312V296.52C358.751 296.264 358.82 296.067 358.959 295.928C359.097 295.789 359.295 295.72 359.551 295.72H365.295C365.508 295.72 365.668 295.773 365.775 295.88C365.881 295.976 365.935 296.12 365.935 296.312C365.935 296.515 365.881 296.669 365.775 296.776C365.668 296.883 365.508 296.936 365.295 296.936H360.239V300.712H364.975C365.177 300.712 365.332 300.765 365.439 300.872C365.545 300.979 365.599 301.123 365.599 301.304C365.599 301.507 365.545 301.661 365.439 301.768C365.332 301.875 365.177 301.928 364.975 301.928H360.239V306.312C360.239 306.845 360.004 307.112 359.535 307.112ZM369.968 307.144C369.338 307.144 368.81 307.027 368.384 306.792C367.968 306.557 367.658 306.211 367.456 305.752C367.253 305.293 367.152 304.717 367.152 304.024V299.832C367.152 299.587 367.21 299.405 367.328 299.288C367.456 299.16 367.637 299.096 367.872 299.096C368.106 299.096 368.288 299.16 368.416 299.288C368.544 299.405 368.608 299.587 368.608 299.832V304.024C368.608 304.685 368.741 305.176 369.008 305.496C369.274 305.805 369.696 305.96 370.272 305.96C370.912 305.96 371.429 305.747 371.824 305.32C372.229 304.893 372.432 304.328 372.432 303.624V299.832C372.432 299.587 372.49 299.405 372.608 299.288C372.736 299.16 372.917 299.096 373.152 299.096C373.386 299.096 373.568 299.16 373.696 299.288C373.824 299.405 373.888 299.587 373.888 299.832V306.36C373.888 306.861 373.653 307.112 373.184 307.112C372.949 307.112 372.768 307.048 372.64 306.92C372.522 306.792 372.464 306.605 372.464 306.36V304.968L372.672 305.24C372.458 305.859 372.112 306.333 371.632 306.664C371.162 306.984 370.608 307.144 369.968 307.144ZM376.951 307.112C376.727 307.112 376.551 307.048 376.423 306.92C376.295 306.792 376.231 306.605 376.231 306.36V299.832C376.231 299.587 376.295 299.405 376.423 299.288C376.551 299.16 376.727 299.096 376.951 299.096C377.175 299.096 377.345 299.16 377.463 299.288C377.591 299.405 377.655 299.587 377.655 299.832V301.144L377.479 300.904C377.703 300.296 378.065 299.837 378.567 299.528C379.079 299.219 379.66 299.064 380.311 299.064C380.94 299.064 381.457 299.176 381.863 299.4C382.268 299.624 382.572 299.965 382.775 300.424C382.977 300.883 383.079 301.464 383.079 302.168V306.36C383.079 306.605 383.015 306.792 382.887 306.92C382.769 307.048 382.593 307.112 382.359 307.112C382.124 307.112 381.943 307.048 381.815 306.92C381.687 306.792 381.623 306.605 381.623 306.36V302.248C381.623 301.555 381.489 301.048 381.223 300.728C380.956 300.408 380.529 300.248 379.943 300.248C379.26 300.248 378.711 300.461 378.295 300.888C377.889 301.304 377.687 301.869 377.687 302.584V306.36C377.687 306.861 377.441 307.112 376.951 307.112ZM388.363 307.144C387.68 307.144 387.077 306.984 386.555 306.664C386.043 306.333 385.643 305.864 385.355 305.256C385.067 304.637 384.923 303.917 384.923 303.096C384.923 302.264 385.061 301.549 385.339 300.952C385.627 300.344 386.027 299.88 386.539 299.56C387.061 299.229 387.669 299.064 388.363 299.064C389.056 299.064 389.653 299.24 390.155 299.592C390.656 299.933 390.992 300.392 391.163 300.968H390.987V296.344C390.987 296.099 391.045 295.917 391.163 295.8C391.291 295.672 391.472 295.608 391.707 295.608C391.941 295.608 392.123 295.672 392.251 295.8C392.379 295.917 392.443 296.099 392.443 296.344V306.36C392.443 306.605 392.379 306.792 392.251 306.92C392.123 307.048 391.941 307.112 391.707 307.112C391.483 307.112 391.307 307.048 391.179 306.92C391.051 306.792 390.987 306.605 390.987 306.36V304.904L391.163 305.192C391.003 305.789 390.667 306.264 390.155 306.616C389.653 306.968 389.056 307.144 388.363 307.144ZM388.699 305.992C389.168 305.992 389.573 305.88 389.915 305.656C390.267 305.432 390.533 305.107 390.715 304.68C390.907 304.253 391.003 303.725 391.003 303.096C391.003 302.157 390.795 301.443 390.379 300.952C389.963 300.461 389.403 300.216 388.699 300.216C388.24 300.216 387.835 300.328 387.483 300.552C387.141 300.765 386.875 301.085 386.683 301.512C386.491 301.939 386.395 302.467 386.395 303.096C386.395 304.035 386.603 304.755 387.019 305.256C387.445 305.747 388.005 305.992 388.699 305.992Z" fill="#212121"/>
<g filter="url(#filter3_d_810_5725)">
<circle cx="204" cy="221" r="60" fill="black"/>
</g>
<g clip-path="url(#clip1_810_5725)">
<path d="M233.064 247.168H174.909C173.302 247.168 172 248.47 172 250.078C172 251.683 173.302 252.985 174.909 252.985H233.063C234.67 252.985 235.971 251.683 235.971 250.078C235.97 248.47 234.668 247.168 233.064 247.168Z" fill="white"/>
<path d="M178.541 239.606C176.935 239.606 175.633 240.908 175.633 242.515C175.633 244.122 176.935 245.425 178.541 245.425H229.427C231.034 245.425 232.336 244.122 232.336 242.515C232.336 240.908 231.034 239.606 229.427 239.606H228.701V213.435H229.427C230.232 213.435 230.88 212.784 230.88 211.982C230.88 211.18 230.229 210.529 229.427 210.529H178.541C177.738 210.529 177.088 211.18 177.088 211.982C177.088 212.784 177.739 213.435 178.541 213.435H179.268V239.605L178.541 239.606ZM222.884 213.435V239.605H214.161V213.435H222.884ZM208.344 213.435V239.605H199.621V213.435H208.344ZM185.083 213.435H193.806V239.605H185.083V213.435Z" fill="white"/>
<path d="M174.909 207.915H233.063C233.072 207.915 233.083 207.915 233.092 207.915C234.7 207.915 236 206.613 236 205.006C236 203.729 235.178 202.647 234.035 202.254L205.181 189.271C204.423 188.931 203.555 188.931 202.796 189.271L173.716 202.355C172.464 202.919 171.777 204.278 172.065 205.618C172.353 206.958 173.537 207.915 174.909 207.915Z" fill="white"/>
</g>
<path d="M91.3966 220.977C91.5281 220.95 91.6471 220.881 91.7349 220.78C91.8227 220.679 91.8744 220.551 91.882 220.418C91.9818 218.65 92.6773 216.967 93.8558 215.643C95.0342 214.318 96.6265 213.43 98.3747 213.121C100.123 212.812 101.924 213.1 103.487 213.94C105.05 214.78 106.283 216.122 106.986 217.748C107.021 217.827 107.072 217.898 107.136 217.956C107.2 218.014 107.276 218.057 107.358 218.084C107.44 218.11 107.528 218.118 107.614 218.108C107.699 218.098 107.782 218.07 107.856 218.026C108.647 217.548 109.547 217.279 110.471 217.244C111.395 217.209 112.313 217.409 113.138 217.826C113.963 218.242 114.668 218.861 115.187 219.624C115.706 220.388 116.022 221.27 116.104 222.189C116.112 222.271 116.136 222.351 116.175 222.424C116.215 222.497 116.269 222.561 116.334 222.612C116.399 222.663 116.474 222.7 116.554 222.721C116.634 222.742 116.718 222.746 116.8 222.733C117.344 222.649 117.901 222.689 118.427 222.85C118.954 223.011 119.437 223.289 119.84 223.664C120.244 224.038 120.556 224.499 120.755 225.011C120.954 225.524 121.033 226.075 120.987 226.622C120.942 227.17 120.772 227.7 120.491 228.173C120.21 228.645 119.825 229.048 119.365 229.351C118.906 229.654 118.383 229.849 117.837 229.921C117.291 229.993 116.735 229.94 116.212 229.767C116.131 229.741 116.046 229.733 115.961 229.742C115.877 229.751 115.795 229.777 115.721 229.819C115.647 229.862 115.584 229.919 115.534 229.988C115.484 230.057 115.449 230.135 115.432 230.218C115.292 230.881 114.996 231.5 114.567 232.024C114.138 232.549 113.589 232.963 112.967 233.231C112.344 233.5 111.666 233.616 110.989 233.569C110.312 233.522 109.656 233.313 109.077 232.961C108.945 232.881 108.787 232.855 108.636 232.887C108.485 232.919 108.352 233.007 108.264 233.134C107.547 234.167 106.55 234.977 105.39 235.469C104.23 235.962 102.954 236.116 101.71 235.914C100.466 235.712 99.3044 235.162 98.3606 234.329C97.4167 233.495 96.7291 232.412 96.3773 231.205C96.3508 231.114 96.3032 231.031 96.2385 230.962C96.1738 230.893 96.0938 230.839 96.0048 230.807C95.9159 230.774 95.8205 230.763 95.7263 230.773C95.6321 230.784 95.5417 230.817 95.4624 230.868C94.7892 231.31 94.0262 231.598 93.2283 231.711C92.4304 231.824 91.6174 231.759 90.8475 231.522C90.0775 231.285 89.3699 230.88 88.7752 230.338C88.1805 229.795 87.7136 229.128 87.408 228.384C87.1023 227.64 86.9655 226.838 87.0074 226.036C87.0492 225.233 87.2687 224.45 87.65 223.741C88.0313 223.033 88.5651 222.418 89.2129 221.94C89.8608 221.462 90.6061 221.134 91.3966 220.977Z" fill="#3432CA"/>
<defs>
<filter id="filter0_d_810_5725" x="0.336182" y="310" width="172.509" height="172.509" filterUnits="userSpaceOnUse" color-interpolation-filters="sRGB">
<feFlood flood-opacity="0" result="BackgroundImageFix"/>
<feColorMatrix in="SourceAlpha" type="matrix" values="0 0 0 0 0 0 0 0 0 0 0 0 0 0 0 0 0 0 127 0" result="hardAlpha"/>
<feOffset dx="-11.4092" dy="18.2547"/>
<feGaussianBlur stdDeviation="9.12733"/>
<feComposite in2="hardAlpha" operator="out"/>
<feColorMatrix type="matrix" values="0 0 0 0 0.0313726 0 0 0 0 0.0588235 0 0 0 0 0.145098 0 0 0 0.06 0"/>
<feBlend mode="normal" in2="BackgroundImageFix" result="effect1_dropShadow_810_5725"/>
<feBlend mode="normal" in="SourceGraphic" in2="effect1_dropShadow_810_5725" result="shape"/>
</filter>
<filter id="filter1_d_810_5725" x="15.3362" y="0" width="172.509" height="172.509" filterUnits="userSpaceOnUse" color-interpolation-filters="sRGB">
<feFlood flood-opacity="0" result="BackgroundImageFix"/>
<feColorMatrix in="SourceAlpha" type="matrix" values="0 0 0 0 0 0 0 0 0 0 0 0 0 0 0 0 0 0 127 0" result="hardAlpha"/>
<feOffset dx="-11.4092" dy="18.2547"/>
<feGaussianBlur stdDeviation="9.12733"/>
<feComposite in2="hardAlpha" operator="out"/>
<feColorMatrix type="matrix" values="0 0 0 0 0.0313726 0 0 0 0 0.0588235 0 0 0 0 0.145098 0 0 0 0.06 0"/>
<feBlend mode="normal" in2="BackgroundImageFix" result="effect1_dropShadow_810_5725"/>
<feBlend mode="normal" in="SourceGraphic" in2="effect1_dropShadow_810_5725" result="shape"/>
</filter>
<filter id="filter2_d_810_5725" x="277.336" y="200" width="172.509" height="172.509" filterUnits="userSpaceOnUse" color-interpolation-filters="sRGB">
<feFlood flood-opacity="0" result="BackgroundImageFix"/>
<feColorMatrix in="SourceAlpha" type="matrix" values="0 0 0 0 0 0 0 0 0 0 0 0 0 0 0 0 0 0 127 0" result="hardAlpha"/>
<feOffset dx="-11.4092" dy="18.2547"/>
<feGaussianBlur stdDeviation="9.12733"/>
<feComposite in2="hardAlpha" operator="out"/>
<feColorMatrix type="matrix" values="0 0 0 0 0.0313726 0 0 0 0 0.0588235 0 0 0 0 0.145098 0 0 0 0.06 0"/>
<feBlend mode="normal" in2="BackgroundImageFix" result="effect1_dropShadow_810_5725"/>
<feBlend mode="normal" in="SourceGraphic" in2="effect1_dropShadow_810_5725" result="shape"/>
</filter>
<filter id="filter3_d_810_5725" x="108" y="129" width="192" height="192" filterUnits="userSpaceOnUse" color-interpolation-filters="sRGB">
<feFlood flood-opacity="0" result="BackgroundImageFix"/>
<feColorMatrix in="SourceAlpha" type="matrix" values="0 0 0 0 0 0 0 0 0 0 0 0 0 0 0 0 0 0 127 0" result="hardAlpha"/>
<feOffset dy="4"/>
<feGaussianBlur stdDeviation="18"/>
<feComposite in2="hardAlpha" operator="out"/>
<feColorMatrix type="matrix" values="0 0 0 0 0 0 0 0 0 0 0 0 0 0 0 0 0 0 0.08 0"/>
<feBlend mode="normal" in2="BackgroundImageFix" result="effect1_dropShadow_810_5725"/>
<feBlend mode="normal" in="SourceGraphic" in2="effect1_dropShadow_810_5725" result="shape"/>
</filter>
<linearGradient id="paint0_linear_810_5725" x1="190.5" y1="389" x2="376" y2="389" gradientUnits="userSpaceOnUse">
<stop stop-color="#3432CA" stop-opacity="0"/>
<stop offset="1" stop-color="#3432CA"/>
</linearGradient>
<linearGradient id="paint1_linear_810_5725" x1="287" y1="198" x2="287" y2="92" gradientUnits="userSpaceOnUse">
<stop stop-color="#3432CA" stop-opacity="0"/>
<stop offset="1" stop-color="#3432CA"/>
</linearGradient>
<linearGradient id="paint2_linear_810_5725" x1="46" y1="287" x2="46" y2="181" gradientUnits="userSpaceOnUse">
<stop stop-color="#3432CA" stop-opacity="0"/>
<stop offset="1" stop-color="#3432CA"/>
</linearGradient>
<radialGradient id="paint3_radial_810_5725" cx="0" cy="0" r="1" gradientUnits="userSpaceOnUse" gradientTransform="translate(238.798 227) rotate(90) scale(178 177.622)">
<stop stop-color="#363636"/>
<stop offset="1" stop-color="#363636" stop-opacity="0"/>
</radialGradient>
<linearGradient id="paint4_linear_810_5725" x1="98.2237" y1="438.198" x2="98.212" y2="328.186" gradientUnits="userSpaceOnUse">
<stop stop-opacity="0"/>
<stop offset="1" stop-color="#3432CA"/>
</linearGradient>
<linearGradient id="paint5_linear_810_5725" x1="113.224" y1="128.198" x2="113.212" y2="18.186" gradientUnits="userSpaceOnUse">
<stop stop-opacity="0"/>
<stop offset="1" stop-color="#3432CA"/>
</linearGradient>
<linearGradient id="paint6_linear_810_5725" x1="375.224" y1="328.198" x2="375.212" y2="218.186" gradientUnits="userSpaceOnUse">
<stop stop-opacity="0"/>
<stop offset="1" stop-color="#3432CA"/>
</linearGradient>
<clipPath id="clip0_810_5725">
<rect width="60" height="60" fill="white" transform="translate(68.5 332)"/>
</clipPath>
<clipPath id="clip1_810_5725">
<rect width="64" height="64" fill="white" transform="translate(172 189)"/>
</clipPath>
</defs>
</svg>
