<svg width="24" height="24" viewBox="0 0 24 24" fill="none" xmlns="http://www.w3.org/2000/svg">
<path fill-rule="evenodd" clip-rule="evenodd" d="M0 12C0 5.37258 5.37258 0 12 0C18.6274 0 24 5.37258 24 12C24 18.6274 18.6274 24 12 24C5.37258 24 0 18.6274 0 12Z" fill="#212121"/>
<path d="M15.3285 6.19336H13.4705C12.6491 6.19336 11.8615 6.51963 11.2807 7.10038C10.6999 7.68114 10.3737 8.46879 10.3737 9.29013V11.1482H8.51562V13.6256H10.3737V18.5805H12.8511V13.6256H14.7092L15.3285 11.1482H12.8511V9.29013C12.8511 9.12585 12.9164 8.9683 13.0325 8.85217C13.1486 8.73604 13.3062 8.67078 13.4705 8.67078H15.3285V6.19336Z" fill="#F3F4F4"/>
</svg>
