<svg width="202" height="43" viewBox="0 0 202 43" fill="none" xmlns="http://www.w3.org/2000/svg">
<path d="M13.3075 2.40712C13.3075 3.73654 12.1627 4.81425 10.7506 4.81425C9.33847 4.81425 8.19371 3.73654 8.19371 2.40712C8.19371 1.07771 9.33847 0 10.7506 0C12.1627 0 13.3075 1.07771 13.3075 2.40712Z" fill="black"/>
<path d="M13.017 10.2303C13.017 11.4086 12.0023 12.3639 10.7506 12.3639C9.49894 12.3639 8.48426 11.4086 8.48426 10.2303C8.48426 9.05193 9.49894 8.09669 10.7506 8.09669C12.0023 8.09669 13.017 9.05193 13.017 10.2303Z" fill="black"/>
<path d="M12.7845 17.6431C12.7845 18.7157 11.8609 19.5852 10.7216 19.5852C9.58221 19.5852 8.6586 18.7157 8.6586 17.6431C8.6586 16.5705 9.58221 15.701 10.7216 15.701C11.8609 15.701 12.7845 16.5705 12.7845 17.6431Z" fill="black"/>
<path d="M12.4939 24.591C12.4939 25.5125 11.7004 26.2595 10.7216 26.2595C9.74268 26.2595 8.94915 25.5125 8.94915 24.591C8.94915 23.6694 9.74268 22.9224 10.7216 22.9224C11.7004 22.9224 12.4939 23.6694 12.4939 24.591Z" fill="black"/>
<path d="M12.2034 30.9917C12.2034 31.7622 11.5399 32.3868 10.7216 32.3868C9.90315 32.3868 9.23971 31.7622 9.23971 30.9917C9.23971 30.2213 9.90315 29.5967 10.7216 29.5967C11.5399 29.5967 12.2034 30.2213 12.2034 30.9917Z" fill="black"/>
<path d="M11.9128 36.8454C11.9128 37.4648 11.3795 37.9669 10.7216 37.9669C10.0636 37.9669 9.53027 37.4648 9.53027 36.8454C9.53027 36.226 10.0636 35.7239 10.7216 35.7239C11.3795 35.7239 11.9128 36.226 11.9128 36.8454Z" fill="black"/>
<path d="M11.6223 42.152C11.6223 42.6204 11.219 43 10.7216 43C10.2241 43 9.82082 42.6204 9.82082 42.152C9.82082 41.6837 10.2241 41.3041 10.7216 41.3041C11.219 41.3041 11.6223 41.6837 11.6223 42.152Z" fill="black"/>
<path d="M21.5012 10.2303C21.5012 11.4086 20.4865 12.3639 19.2349 12.3639C17.9832 12.3639 16.9685 11.4086 16.9685 10.2303C16.9685 9.05193 17.9832 8.09669 19.2349 8.09669C20.4865 8.09669 21.5012 9.05193 21.5012 10.2303Z" fill="black"/>
<path d="M4.53269 10.2303C4.53269 11.4086 3.51801 12.3639 2.26634 12.3639C1.01468 12.3639 0 11.4086 0 10.2303C0 9.05193 1.01468 8.09669 2.26634 8.09669C3.51801 8.09669 4.53269 9.05193 4.53269 10.2303Z" fill="black"/>
<path d="M21.2688 17.6431C21.2688 18.7157 20.3452 19.5852 19.2058 19.5852C18.0665 19.5852 17.1429 18.7157 17.1429 17.6431C17.1429 16.5705 18.0665 15.701 19.2058 15.701C20.3452 15.701 21.2688 16.5705 21.2688 17.6431Z" fill="black"/>
<path d="M4.30024 17.6431C4.30024 18.7157 3.37663 19.5852 2.23729 19.5852C1.09795 19.5852 0.174334 18.7157 0.174334 17.6431C0.174334 16.5705 1.09795 15.701 2.23729 15.701C3.37663 15.701 4.30024 16.5705 4.30024 17.6431Z" fill="black"/>
<path d="M20.9782 24.591C20.9782 25.5125 20.1847 26.2595 19.2058 26.2595C18.2269 26.2595 17.4334 25.5125 17.4334 24.591C17.4334 23.6694 18.2269 22.9224 19.2058 22.9224C20.1847 22.9224 20.9782 23.6694 20.9782 24.591Z" fill="black"/>
<path d="M4.00969 24.591C4.00969 25.5125 3.21616 26.2595 2.23729 26.2595C1.25842 26.2595 0.464891 25.5125 0.464891 24.591C0.464891 23.6694 1.25842 22.9224 2.23729 22.9224C3.21616 22.9224 4.00969 23.6694 4.00969 24.591Z" fill="black"/>
<path d="M20.6877 30.9917C20.6877 31.7622 20.0242 32.3868 19.2058 32.3868C18.3874 32.3868 17.724 31.7622 17.724 30.9917C17.724 30.2213 18.3874 29.5967 19.2058 29.5967C20.0242 29.5967 20.6877 30.2213 20.6877 30.9917Z" fill="black"/>
<path d="M3.71913 30.9917C3.71913 31.7622 3.05569 32.3868 2.23729 32.3868C1.41889 32.3868 0.755448 31.7622 0.755448 30.9917C0.755448 30.2213 1.41889 29.5967 2.23729 29.5967C3.05569 29.5967 3.71913 30.2213 3.71913 30.9917Z" fill="black"/>
<path d="M20.3971 36.8454C20.3971 37.4648 19.8637 37.9669 19.2058 37.9669C18.5479 37.9669 18.0145 37.4648 18.0145 36.8454C18.0145 36.226 18.5479 35.7239 19.2058 35.7239C19.8637 35.7239 20.3971 36.226 20.3971 36.8454Z" fill="black"/>
<path d="M3.42857 36.8454C3.42857 37.4648 2.89522 37.9669 2.23729 37.9669C1.57936 37.9669 1.04601 37.4648 1.04601 36.8454C1.04601 36.226 1.57936 35.7239 2.23729 35.7239C2.89522 35.7239 3.42857 36.226 3.42857 36.8454Z" fill="black"/>
<path d="M20.1065 42.152C20.1065 42.6204 19.7033 43 19.2058 43C18.7084 43 18.3051 42.6204 18.3051 42.152C18.3051 41.6837 18.7084 41.3041 19.2058 41.3041C19.7033 41.3041 20.1065 41.6837 20.1065 42.152Z" fill="black"/>
<path d="M3.13802 42.152C3.13802 42.6204 2.73475 43 2.23729 43C1.73983 43 1.33656 42.6204 1.33656 42.152C1.33656 41.6837 1.73983 41.3041 2.23729 41.3041C2.73475 41.3041 3.13802 41.6837 3.13802 42.152Z" fill="black"/>
<path d="M38.7603 40.5929C38.7603 39.2635 37.6155 38.1857 36.2034 38.1857C34.7913 38.1857 33.6465 39.2635 33.6465 40.5929C33.6465 41.9223 34.7913 43 36.2034 43C37.6155 43 38.7603 41.9223 38.7603 40.5929Z" fill="#3432CA"/>
<path d="M38.4697 32.7697C38.4697 31.5914 37.4551 30.6361 36.2034 30.6361C34.9517 30.6361 33.9371 31.5914 33.9371 32.7697C33.9371 33.9481 34.9517 34.9033 36.2034 34.9033C37.4551 34.9033 38.4697 33.9481 38.4697 32.7697Z" fill="#3432CA"/>
<path d="M38.2373 25.3569C38.2373 24.2843 37.3137 23.4148 36.1743 23.4148C35.035 23.4148 34.1114 24.2843 34.1114 25.3569C34.1114 26.4295 35.035 27.299 36.1743 27.299C37.3137 27.299 38.2373 26.4295 38.2373 25.3569Z" fill="#3432CA"/>
<path d="M37.9467 18.409C37.9467 17.4875 37.1532 16.7405 36.1743 16.7405C35.1955 16.7405 34.4019 17.4875 34.4019 18.409C34.4019 19.3306 35.1955 20.0776 36.1743 20.0776C37.1532 20.0776 37.9467 19.3306 37.9467 18.409Z" fill="#3432CA"/>
<path d="M37.6562 12.0083C37.6562 11.2378 36.9927 10.6132 36.1743 10.6132C35.3559 10.6132 34.6925 11.2378 34.6925 12.0083C34.6925 12.7787 35.3559 13.4033 36.1743 13.4033C36.9927 13.4033 37.6562 12.7787 37.6562 12.0083Z" fill="#3432CA"/>
<path d="M37.3656 6.15458C37.3656 5.53519 36.8323 5.03308 36.1743 5.03308C35.5164 5.03308 34.9831 5.53519 34.9831 6.15458C34.9831 6.77397 35.5164 7.27608 36.1743 7.27608C36.8323 7.27608 37.3656 6.77397 37.3656 6.15458Z" fill="#3432CA"/>
<path d="M37.0751 0.847964C37.0751 0.379647 36.6718 0 36.1743 0C35.6769 0 35.2736 0.379647 35.2736 0.847964C35.2736 1.31628 35.6769 1.69593 36.1743 1.69593C36.6718 1.69593 37.0751 1.31628 37.0751 0.847964Z" fill="#3432CA"/>
<path d="M46.954 32.7697C46.954 31.5914 45.9393 30.6361 44.6877 30.6361C43.436 30.6361 42.4213 31.5914 42.4213 32.7697C42.4213 33.9481 43.436 34.9033 44.6877 34.9033C45.9393 34.9033 46.954 33.9481 46.954 32.7697Z" fill="#3432CA"/>
<path d="M29.9855 32.7697C29.9855 31.5914 28.9708 30.6361 27.7191 30.6361C26.4675 30.6361 25.4528 31.5914 25.4528 32.7697C25.4528 33.9481 26.4675 34.9033 27.7191 34.9033C28.9708 34.9033 29.9855 33.9481 29.9855 32.7697Z" fill="#3432CA"/>
<path d="M46.7216 25.3569C46.7216 24.2843 45.7979 23.4148 44.6586 23.4148C43.5193 23.4148 42.5956 24.2843 42.5956 25.3569C42.5956 26.4295 43.5193 27.299 44.6586 27.299C45.7979 27.299 46.7216 26.4295 46.7216 25.3569Z" fill="#3432CA"/>
<path d="M29.753 25.3569C29.753 24.2843 28.8294 23.4148 27.6901 23.4148C26.5507 23.4148 25.6271 24.2843 25.6271 25.3569C25.6271 26.4295 26.5507 27.299 27.6901 27.299C28.8294 27.299 29.753 26.4295 29.753 25.3569Z" fill="#3432CA"/>
<path d="M46.431 18.409C46.431 17.4875 45.6375 16.7405 44.6586 16.7405C43.6797 16.7405 42.8862 17.4875 42.8862 18.409C42.8862 19.3306 43.6797 20.0776 44.6586 20.0776C45.6375 20.0776 46.431 19.3306 46.431 18.409Z" fill="#3432CA"/>
<path d="M29.4625 18.409C29.4625 17.4875 28.6689 16.7405 27.6901 16.7405C26.7112 16.7405 25.9177 17.4875 25.9177 18.409C25.9177 19.3306 26.7112 20.0776 27.6901 20.0776C28.6689 20.0776 29.4625 19.3306 29.4625 18.409Z" fill="#3432CA"/>
<path d="M46.1404 12.0083C46.1404 11.2378 45.477 10.6132 44.6586 10.6132C43.8402 10.6132 43.1768 11.2378 43.1768 12.0083C43.1768 12.7787 43.8402 13.4033 44.6586 13.4033C45.477 13.4033 46.1404 12.7787 46.1404 12.0083Z" fill="#3432CA"/>
<path d="M29.1719 12.0083C29.1719 11.2378 28.5085 10.6132 27.6901 10.6132C26.8717 10.6132 26.2082 11.2378 26.2082 12.0083C26.2082 12.7787 26.8717 13.4033 27.6901 13.4033C28.5085 13.4033 29.1719 12.7787 29.1719 12.0083Z" fill="#3432CA"/>
<path d="M45.8499 6.15458C45.8499 5.53519 45.3165 5.03308 44.6586 5.03308C44.0007 5.03308 43.4673 5.53519 43.4673 6.15458C43.4673 6.77397 44.0007 7.27608 44.6586 7.27608C45.3165 7.27608 45.8499 6.77397 45.8499 6.15458Z" fill="#3432CA"/>
<path d="M28.8814 6.15458C28.8814 5.53519 28.348 5.03308 27.6901 5.03308C27.0321 5.03308 26.4988 5.53519 26.4988 6.15458C26.4988 6.77397 27.0321 7.27608 27.6901 7.27608C28.348 7.27608 28.8814 6.77397 28.8814 6.15458Z" fill="#3432CA"/>
<path d="M45.5593 0.847964C45.5593 0.379647 45.1561 0 44.6586 0C44.1611 0 43.7579 0.379647 43.7579 0.847964C43.7579 1.31628 44.1611 1.69593 44.6586 1.69593C45.1561 1.69593 45.5593 1.31628 45.5593 0.847964Z" fill="#3432CA"/>
<path d="M28.5908 0.847964C28.5908 0.379647 28.1875 0 27.6901 0C27.1926 0 26.7894 0.379647 26.7894 0.847964C26.7894 1.31628 27.1926 1.69593 27.6901 1.69593C28.1875 1.69593 28.5908 1.31628 28.5908 0.847964Z" fill="#3432CA"/>
<path d="M84.9695 10.3146V11.0671C84.093 11.0922 83.4228 11.2176 82.9587 11.4434C82.5205 11.6691 82.2241 12.0328 82.0694 12.5345C81.9147 13.0362 81.8374 13.751 81.8374 14.6791V37.1413C81.6827 37.1413 81.528 37.1413 81.3734 37.1413C81.2445 37.1413 81.1027 37.1413 80.948 37.1413L64.7074 12.7226V32.5886C64.7074 33.4916 64.7848 34.2065 64.9395 34.7332C65.1199 35.2349 65.455 35.5986 65.9448 35.8244C66.4604 36.025 67.2209 36.1505 68.2262 36.2006V36.9531C67.7622 36.903 67.1564 36.8779 66.4088 36.8779C65.6613 36.8528 64.9523 36.8403 64.2821 36.8403C63.6376 36.8403 62.9803 36.8528 62.31 36.8779C61.6656 36.8779 61.1242 36.903 60.686 36.9531V36.2006C61.5624 36.1505 62.2198 36.025 62.658 35.8244C63.1221 35.5986 63.4314 35.2349 63.5861 34.7332C63.7407 34.2065 63.8181 33.4916 63.8181 32.5886V14.3029C63.8181 13.3748 63.7407 12.6975 63.5861 12.2711C63.4314 11.8196 63.1221 11.5186 62.658 11.3681C62.2198 11.1925 61.5624 11.0922 60.686 11.0671V10.3146C61.1242 10.3397 61.6656 10.3648 62.31 10.3899C62.9803 10.415 63.6376 10.4275 64.2821 10.4275C64.8492 10.4275 65.3906 10.415 65.9062 10.3899C66.4217 10.3648 66.8857 10.3397 67.2982 10.3146L80.948 30.7826V14.6791C80.948 13.751 80.8578 13.0362 80.6773 12.5345C80.5227 12.0328 80.1875 11.6691 79.672 11.4434C79.1822 11.2176 78.4346 11.0922 77.4292 11.0671V10.3146C77.8932 10.3397 78.499 10.3648 79.2466 10.3899C80.02 10.415 80.7289 10.4275 81.3734 10.4275C82.0436 10.4275 82.701 10.415 83.3454 10.3899C84.0157 10.3648 84.557 10.3397 84.9695 10.3146Z" fill="black"/>
<path d="M97.848 10.3146V11.0671C96.9716 11.0922 96.3013 11.1925 95.8373 11.3681C95.3991 11.5186 95.1026 11.8196 94.9479 12.2711C94.7933 12.6975 94.7159 13.3748 94.7159 14.3029V32.9649C94.7159 33.8679 94.7933 34.5451 94.9479 34.9966C95.1026 35.4481 95.3991 35.7491 95.8373 35.8996C96.3013 36.0501 96.9716 36.1505 97.848 36.2006V36.9531C97.2551 36.903 96.5075 36.8779 95.6053 36.8779C94.7288 36.8528 93.8395 36.8403 92.9372 36.8403C91.9318 36.8403 90.9909 36.8528 90.1144 36.8779C89.238 36.8779 88.5291 36.903 87.9877 36.9531V36.2006C88.8642 36.1505 89.5215 36.0501 89.9598 35.8996C90.4238 35.7491 90.7331 35.4481 90.8878 34.9966C91.0425 34.5451 91.1198 33.8679 91.1198 32.9649V14.3029C91.1198 13.3748 91.0425 12.6975 90.8878 12.2711C90.7331 11.8196 90.4238 11.5186 89.9598 11.3681C89.5215 11.1925 88.8642 11.0922 87.9877 11.0671V10.3146C88.5291 10.3397 89.238 10.3648 90.1144 10.3899C90.9909 10.415 91.9318 10.4275 92.9372 10.4275C93.8395 10.4275 94.7288 10.415 95.6053 10.3899C96.5075 10.3648 97.2551 10.3397 97.848 10.3146Z" fill="black"/>
<path d="M131.523 10.3146V11.0671C130.646 11.0922 129.976 11.1925 129.512 11.3681C129.074 11.5186 128.777 11.8196 128.623 12.2711C128.468 12.6975 128.391 13.3748 128.391 14.3029V32.9649C128.391 33.8679 128.468 34.5451 128.623 34.9966C128.777 35.4481 129.074 35.7491 129.512 35.8996C129.976 36.0501 130.646 36.1505 131.523 36.2006V36.9531C130.93 36.903 130.182 36.8779 129.28 36.8779C128.404 36.8528 127.514 36.8403 126.612 36.8403C125.607 36.8403 124.666 36.8528 123.789 36.8779C122.913 36.8779 122.204 36.903 121.662 36.9531V36.2006C122.539 36.1505 123.196 36.0501 123.634 35.8996C124.098 35.7491 124.408 35.4481 124.563 34.9966C124.717 34.5451 124.795 33.8679 124.795 32.9649V12.2711L124.949 12.384L115.476 37.1413H114.857L105.112 12.7226V32.5886C105.112 33.4916 105.19 34.2065 105.344 34.7332C105.525 35.2349 105.86 35.5986 106.35 35.8244C106.865 36.025 107.626 36.1505 108.631 36.2006V36.9531C108.167 36.903 107.561 36.8779 106.814 36.8779C106.066 36.8528 105.357 36.8403 104.687 36.8403C104.043 36.8403 103.385 36.8528 102.715 36.8779C102.071 36.8779 101.529 36.903 101.091 36.9531V36.2006C101.967 36.1505 102.625 36.025 103.063 35.8244C103.527 35.5986 103.836 35.2349 103.991 34.7332C104.146 34.2065 104.223 33.4916 104.223 32.5886V14.3029C104.223 13.3748 104.146 12.6975 103.991 12.2711C103.836 11.8196 103.527 11.5186 103.063 11.3681C102.625 11.1925 101.967 11.0922 101.091 11.0671V10.3146C101.529 10.3397 102.071 10.3648 102.715 10.3899C103.385 10.415 104.043 10.4275 104.687 10.4275C105.254 10.4275 105.834 10.415 106.427 10.3899C107.046 10.3648 107.561 10.3397 107.974 10.3146L116.752 32.8144L116.094 33.1154L124.795 10.4275C125.104 10.4275 125.4 10.4275 125.684 10.4275C125.993 10.4275 126.303 10.4275 126.612 10.4275C127.514 10.4275 128.404 10.415 129.28 10.3899C130.182 10.3648 130.93 10.3397 131.523 10.3146Z" fill="black"/>
<path d="M154.07 10.3146C153.967 11.1925 153.889 12.0454 153.838 12.8731C153.812 13.7009 153.799 14.328 153.799 14.7544C153.799 15.2059 153.812 15.6448 153.838 16.0712C153.864 16.4726 153.889 16.8112 153.915 17.0871H153.026C152.871 15.6072 152.652 14.4408 152.368 13.588C152.085 12.7101 151.595 12.0955 150.899 11.7444C150.229 11.3681 149.211 11.18 147.844 11.18H144.635C143.758 11.18 143.088 11.2552 142.624 11.4057C142.186 11.5312 141.889 11.8196 141.735 12.2711C141.58 12.6975 141.503 13.3748 141.503 14.3029V32.9649C141.503 33.8679 141.58 34.5451 141.735 34.9966C141.889 35.4481 142.186 35.7491 142.624 35.8996C143.088 36.025 143.758 36.0877 144.635 36.0877H147.458C149.082 36.0877 150.306 35.8745 151.131 35.4481C151.982 35.0217 152.588 34.3319 152.948 33.3787C153.335 32.4005 153.619 31.0836 153.799 29.4281H154.689C154.611 30.1054 154.572 31.0084 154.572 32.1371C154.572 32.6137 154.585 33.3035 154.611 34.2065C154.663 35.0844 154.74 36 154.843 36.9531C153.528 36.903 152.046 36.8779 150.396 36.8779C148.747 36.8528 147.277 36.8403 145.988 36.8403C145.421 36.8403 144.686 36.8403 143.784 36.8403C142.908 36.8403 141.954 36.8528 140.923 36.8779C139.892 36.8779 138.848 36.8904 137.791 36.9155C136.734 36.9155 135.728 36.928 134.774 36.9531V36.2006C135.651 36.1505 136.308 36.0501 136.747 35.8996C137.211 35.7491 137.52 35.4481 137.675 34.9966C137.829 34.5451 137.907 33.8679 137.907 32.9649V14.3029C137.907 13.3748 137.829 12.6975 137.675 12.2711C137.52 11.8196 137.211 11.5186 136.747 11.3681C136.308 11.1925 135.651 11.0922 134.774 11.0671V10.3146C135.728 10.3397 136.734 10.3648 137.791 10.3899C138.848 10.3899 139.892 10.4024 140.923 10.4275C141.954 10.4275 142.908 10.4275 143.784 10.4275C144.686 10.4275 145.421 10.4275 145.988 10.4275C147.174 10.4275 148.514 10.4275 150.01 10.4275C151.531 10.4024 152.884 10.3648 154.07 10.3146ZM147.419 23.1824C147.419 23.1824 147.419 23.3078 147.419 23.5586C147.419 23.8095 147.419 23.9349 147.419 23.9349H140.343C140.343 23.9349 140.343 23.8095 140.343 23.5586C140.343 23.3078 140.343 23.1824 140.343 23.1824H147.419ZM148.54 18.2159C148.437 19.6456 148.386 20.7367 148.386 21.4892C148.411 22.2417 148.424 22.9315 148.424 23.5586C148.424 24.1857 148.437 24.8755 148.463 25.628C148.489 26.3805 148.553 27.4716 148.656 28.9014H147.767C147.664 28.0987 147.535 27.3211 147.38 26.5686C147.251 25.791 146.942 25.164 146.452 24.6874C145.988 24.1857 145.189 23.9349 144.055 23.9349V23.1824C144.906 23.1824 145.55 23.0193 145.988 22.6932C146.452 22.3421 146.787 21.9031 146.994 21.3764C147.2 20.8496 147.342 20.3103 147.419 19.7585C147.496 19.1816 147.574 18.6674 147.651 18.2159H148.54Z" fill="black"/>
<path d="M166.613 9.90075C167.902 9.90075 168.881 10.0512 169.552 10.3522C170.222 10.6282 170.815 10.9417 171.33 11.2929C171.64 11.4685 171.884 11.6064 172.065 11.7067C172.271 11.782 172.464 11.8196 172.645 11.8196C172.903 11.8196 173.083 11.6817 173.186 11.4057C173.315 11.1298 173.418 10.716 173.496 10.1641H174.385C174.359 10.5905 174.321 11.1047 174.269 11.7067C174.243 12.2837 174.217 13.0612 174.192 14.0395C174.192 14.9927 174.192 16.2594 174.192 17.8396H173.302C173.225 16.6356 172.954 15.4818 172.49 14.3781C172.026 13.2745 171.343 12.3715 170.441 11.6691C169.564 10.9668 168.404 10.6156 166.961 10.6156C165.594 10.6156 164.46 11.017 163.558 11.8196C162.681 12.6223 162.243 13.6758 162.243 14.9801C162.243 16.1089 162.54 17.062 163.133 17.8396C163.726 18.5921 164.512 19.2819 165.491 19.909C166.497 20.511 167.579 21.1632 168.739 21.8655C170.08 22.6682 171.266 23.4708 172.297 24.2735C173.354 25.0511 174.179 25.9165 174.772 26.8696C175.39 27.8228 175.7 28.9766 175.7 30.3311C175.7 31.9365 175.326 33.2659 174.578 34.3194C173.831 35.3729 172.838 36.163 171.601 36.6898C170.364 37.2165 168.997 37.4799 167.502 37.4799C166.136 37.4799 165.053 37.3294 164.254 37.0284C163.455 36.7274 162.772 36.4138 162.205 36.0877C161.637 35.7366 161.199 35.561 160.89 35.561C160.632 35.561 160.439 35.699 160.31 35.9749C160.207 36.2508 160.117 36.6647 160.039 37.2165H159.15C159.201 36.6898 159.227 36.0752 159.227 35.3729C159.253 34.6455 159.266 33.7048 159.266 32.551C159.292 31.3972 159.304 29.9423 159.304 28.1865H160.194C160.297 29.6915 160.581 31.0962 161.045 32.4005C161.534 33.7048 162.269 34.7583 163.249 35.561C164.254 36.3386 165.582 36.7274 167.231 36.7274C168.082 36.7274 168.881 36.5643 169.629 36.2382C170.402 35.8871 171.034 35.3478 171.524 34.6204C172.013 33.8679 172.258 32.9022 172.258 31.7232C172.258 30.6948 172 29.8044 171.485 29.0519C170.995 28.2743 170.299 27.5594 169.397 26.9072C168.495 26.23 167.438 25.5402 166.226 24.8379C165.014 24.1105 163.88 23.3705 162.823 22.618C161.766 21.8655 160.916 21.0001 160.271 20.0219C159.652 19.0185 159.343 17.8145 159.343 16.4099C159.343 14.93 159.678 13.7134 160.349 12.7603C161.045 11.782 161.947 11.0671 163.055 10.6156C164.164 10.139 165.35 9.90075 166.613 9.90075Z" fill="black"/>
<path d="M189.897 10.1265L199.332 33.7926C199.719 34.7458 200.157 35.3854 200.647 35.7115C201.136 36.0125 201.588 36.1755 202 36.2006V36.9531C201.484 36.903 200.853 36.8779 200.105 36.8779C199.358 36.8528 198.61 36.8403 197.863 36.8403C196.857 36.8403 195.916 36.8528 195.04 36.8779C194.163 36.8779 193.454 36.903 192.913 36.9531V36.2006C194.228 36.1505 195.066 35.9373 195.426 35.561C195.787 35.1597 195.71 34.3194 195.194 33.0401L188.002 14.3405L188.621 13.8514L181.893 30.8579C181.48 31.8612 181.235 32.714 181.158 33.4164C181.081 34.0936 181.145 34.6329 181.351 35.0342C181.583 35.4356 181.957 35.724 182.473 35.8996C183.014 36.0752 183.684 36.1755 184.483 36.2006V36.9531C183.762 36.903 183.001 36.8779 182.202 36.8779C181.429 36.8528 180.707 36.8403 180.037 36.8403C179.392 36.8403 178.838 36.8528 178.374 36.8779C177.936 36.8779 177.523 36.903 177.136 36.9531V36.2006C177.652 36.0752 178.181 35.7867 178.722 35.3352C179.263 34.8587 179.753 34.056 180.191 32.9272L189.278 10.1265C189.381 10.1265 189.484 10.1265 189.588 10.1265C189.691 10.1265 189.794 10.1265 189.897 10.1265ZM194.614 26.1171V26.8696H183.091L183.478 26.1171H194.614Z" fill="black"/>
</svg>
