<svg width="1420" height="458" viewBox="0 0 1420 458" fill="none" xmlns="http://www.w3.org/2000/svg">
<mask id="mask0_2218_5897" style="mask-type:alpha" maskUnits="userSpaceOnUse" x="0" y="0" width="1420" height="458">
<rect width="1420" height="458" rx="24" fill="#212121"/>
</mask>
<g mask="url(#mask0_2218_5897)">
<path d="M0 24C0 10.7452 10.7452 0 24 0H1396C1409.25 0 1420 10.7452 1420 24V434C1420 447.255 1409.25 458 1396 458H24C10.7452 458 0 447.255 0 434V24Z" fill="black"/>
<g filter="url(#filter0_f_2218_5897)">
<ellipse cx="839.444" cy="714.954" rx="419.621" ry="405.452" transform="rotate(6.43915 839.444 714.954)" fill="url(#paint0_linear_2218_5897)"/>
</g>
<rect opacity="0.2" x="381" y="87" width="214" height="57" rx="16" fill="#009900"/>
<path opacity="0.2" d="M582.226 425.064L581.504 424.919C580.367 424.689 579.338 424.09 578.579 423.214C577.819 422.339 577.372 421.237 577.307 420.081C576.532 406.357 571.135 393.297 561.99 383.015C552.845 372.734 540.489 365.835 526.923 363.436C513.357 361.037 499.376 363.279 487.247 369.799C475.118 376.318 465.551 386.733 460.096 399.355L460.095 399.356C459.798 400.041 459.357 400.655 458.803 401.156C458.248 401.657 457.592 402.034 456.88 402.262C456.168 402.489 455.415 402.562 454.672 402.476C453.929 402.389 453.213 402.145 452.572 401.759L452.571 401.759C446.455 398.065 439.498 395.985 432.354 395.715C425.21 395.445 418.114 396.993 411.735 400.213C405.357 403.434 399.904 408.221 395.892 414.124C391.879 420.027 389.438 426.851 388.799 433.955C388.736 434.669 388.527 435.362 388.185 435.993C387.843 436.623 387.375 437.177 386.81 437.619M582.226 425.064L386.502 437.226M582.226 425.064C588.069 426.329 593.579 428.817 598.39 432.368C603.399 436.066 607.526 440.824 610.474 446.3C613.423 451.777 615.12 457.837 615.443 464.045C615.767 470.253 614.709 476.456 612.346 482.208C609.983 487.961 606.373 493.12 601.775 497.316C597.177 501.511 591.705 504.64 585.752 506.477C579.799 508.313 573.512 508.813 567.343 507.939C561.173 507.065 555.274 504.839 550.069 501.422L550.068 501.421C549.382 500.973 548.601 500.691 547.786 500.599C546.972 500.506 546.147 500.605 545.378 500.888C544.609 501.171 543.916 501.63 543.357 502.228C542.797 502.826 542.386 503.547 542.156 504.333L542.156 504.333C539.431 513.691 534.103 522.087 526.789 528.547C519.476 535.007 510.477 539.266 500.836 540.831C491.195 542.396 481.307 541.202 472.318 537.388C463.329 533.574 455.608 527.296 450.051 519.282L450.05 519.281C449.289 518.186 448.137 517.423 446.831 517.146C445.525 516.868 444.162 517.099 443.02 517.789L443.019 517.79C438.555 520.505 433.504 522.112 428.288 522.475C423.073 522.837 417.846 521.945 413.048 519.874C408.25 517.802 404.021 514.612 400.715 510.57C397.41 506.529 395.126 501.755 394.054 496.651C393.903 495.931 393.602 495.252 393.171 494.657C392.74 494.061 392.188 493.563 391.551 493.195L391.549 493.193C390.911 492.829 390.204 492.601 389.474 492.524C388.743 492.446 388.004 492.521 387.304 492.744L387.298 492.746C383.28 494.077 379.01 494.481 374.812 493.927C370.614 493.373 366.597 491.875 363.063 489.547C359.529 487.219 356.571 484.122 354.412 480.488C352.252 476.854 350.948 472.778 350.597 468.568C350.245 464.358 350.856 460.124 352.383 456.183C353.91 452.243 356.314 448.7 359.413 445.821C362.512 442.942 366.225 440.802 370.274 439.563C374.322 438.324 378.599 438.017 382.782 438.667M582.226 425.064L382.861 438.173M386.81 437.619C386.81 437.619 386.81 437.619 386.81 437.619L386.502 437.226M386.81 437.619C386.81 437.619 386.811 437.619 386.811 437.618L386.502 437.226M386.81 437.619C386.248 438.061 385.599 438.383 384.906 438.563C384.213 438.744 383.49 438.779 382.782 438.667M386.502 437.226C385.993 437.626 385.407 437.916 384.781 438.079C384.154 438.242 383.5 438.274 382.861 438.173M382.782 438.667C382.783 438.667 382.783 438.667 382.784 438.667L382.861 438.173M382.782 438.667L382.861 438.173M547.73 501.095C548.467 501.179 549.174 501.434 549.794 501.84L387.456 493.22C388.09 493.019 388.759 492.951 389.421 493.021C390.083 493.091 390.723 493.298 391.301 493.627C391.877 493.961 392.376 494.411 392.766 494.95C393.156 495.489 393.428 496.103 393.565 496.753C394.653 501.937 396.972 506.784 400.328 510.887C403.684 514.99 407.978 518.23 412.85 520.333C417.721 522.436 423.028 523.342 428.323 522.973C433.618 522.605 438.747 520.974 443.279 518.217C444.312 517.592 445.546 517.384 446.728 517.635C447.909 517.885 448.951 518.576 449.64 519.567C455.252 527.658 463.047 533.997 472.123 537.848C481.198 541.699 491.182 542.905 500.916 541.325C510.65 539.745 519.736 535.444 527.12 528.922C534.505 522.399 539.884 513.922 542.636 504.473C542.844 503.763 543.216 503.111 543.722 502.57C544.228 502.029 544.854 501.613 545.55 501.357C546.246 501.101 546.993 501.012 547.73 501.095Z" fill="url(#paint1_linear_2218_5897)" stroke="#3432CA"/>
<path opacity="0.2" d="M1547.23 22.0644L1546.5 21.9188C1545.37 21.6891 1544.34 21.0898 1543.58 20.2145C1542.82 19.3391 1542.37 18.237 1542.31 17.0807C1541.53 3.35712 1536.13 -9.70347 1526.99 -19.9846C1517.85 -30.2657 1505.49 -37.1648 1491.92 -39.5636C1478.36 -41.9625 1464.38 -39.7205 1452.25 -33.201C1440.12 -26.6816 1430.55 -16.2668 1425.1 -3.64468L1425.1 -3.64396C1424.8 -2.95869 1424.36 -2.34492 1423.8 -1.84376C1423.25 -1.3426 1422.59 -0.965649 1421.88 -0.738121C1421.17 -0.51059 1420.41 -0.437725 1419.67 -0.524403C1418.93 -0.61108 1418.21 -0.855297 1417.57 -1.24073L1417.57 -1.24117C1411.46 -4.93464 1404.5 -7.01453 1397.35 -7.28493C1390.21 -7.55533 1383.11 -6.00735 1376.74 -2.78679C1370.36 0.433769 1364.9 5.22092 1360.89 11.1239C1356.88 17.0267 1354.44 23.8512 1353.8 30.9547C1353.74 31.6688 1353.53 32.3625 1353.19 32.9927C1352.84 33.623 1352.38 34.1765 1351.81 34.6189M1547.23 22.0644L1351.5 34.2255M1547.23 22.0644C1553.07 23.3286 1558.58 25.8171 1563.39 29.3683C1568.4 33.0658 1572.53 37.8237 1575.47 43.3004C1578.42 48.7771 1580.12 54.837 1580.44 61.0452C1580.77 67.2534 1579.71 73.4562 1577.35 79.2084C1574.98 84.9606 1571.37 90.1198 1566.77 94.3156C1562.18 98.5115 1556.71 101.64 1550.75 103.477C1544.8 105.313 1538.51 105.813 1532.34 104.939C1526.17 104.065 1520.27 101.839 1515.07 98.4218L1515.07 98.4213C1514.38 97.973 1513.6 97.6912 1512.79 97.5986C1511.97 97.5061 1511.15 97.6052 1510.38 97.8882C1509.61 98.1711 1508.92 98.63 1508.36 99.2281C1507.8 99.8263 1507.39 100.547 1507.16 101.333L1507.16 101.333C1504.43 110.691 1499.1 119.087 1491.79 125.547C1484.48 132.007 1475.48 136.266 1465.84 137.831C1456.19 139.396 1446.31 138.202 1437.32 134.388C1428.33 130.574 1420.61 124.296 1415.05 116.282L1415.05 116.281C1414.29 115.186 1413.14 114.423 1411.83 114.146C1410.53 113.868 1409.16 114.099 1408.02 114.789L1408.02 114.79C1403.56 117.505 1398.5 119.112 1393.29 119.475C1388.07 119.837 1382.85 118.945 1378.05 116.874C1373.25 114.802 1369.02 111.612 1365.72 107.57C1362.41 103.529 1360.13 98.7555 1359.05 93.6505C1358.9 92.9314 1358.6 92.2521 1358.17 91.6567C1357.74 91.0613 1357.19 90.5632 1356.55 90.1947L1356.55 90.1933C1355.91 89.829 1355.2 89.601 1354.47 89.5236C1353.74 89.4462 1353 89.5211 1352.3 89.7436L1352.3 89.7455C1348.28 91.0768 1344.01 91.4807 1339.81 90.9267C1335.61 90.3726 1331.6 88.8752 1328.06 86.5472C1324.53 84.2193 1321.57 81.1216 1319.41 77.4876C1317.25 73.8536 1315.95 69.7781 1315.6 65.5681C1315.25 61.3582 1315.86 57.1235 1317.38 53.1833C1318.91 49.243 1321.31 45.6999 1324.41 42.8208C1327.51 39.9418 1331.23 37.802 1335.27 36.5628C1339.32 35.3237 1343.6 35.0172 1347.78 35.6666M1547.23 22.0644L1347.86 35.1728M1351.81 34.6189C1351.81 34.619 1351.81 34.6192 1351.81 34.6193L1351.5 34.2255M1351.81 34.6189C1351.81 34.6188 1351.81 34.6186 1351.81 34.6185L1351.5 34.2255M1351.81 34.6189C1351.25 35.0615 1350.6 35.383 1349.91 35.5633C1349.21 35.7437 1348.49 35.7788 1347.78 35.6666M1351.5 34.2255C1350.99 34.6257 1350.41 34.9164 1349.78 35.0794C1349.15 35.2424 1348.5 35.2742 1347.86 35.1728M1347.78 35.6666C1347.78 35.6667 1347.78 35.6667 1347.78 35.6668L1347.86 35.1728M1347.78 35.6666L1347.86 35.1728M1512.73 98.0954C1513.47 98.1792 1514.17 98.4342 1514.79 98.8398L1352.46 90.2202C1353.09 90.0186 1353.76 89.9507 1354.42 90.0208C1355.08 90.0909 1355.72 90.2975 1356.3 90.6275C1356.88 90.9608 1357.38 91.4115 1357.77 91.95C1358.16 92.4885 1358.43 93.1029 1358.56 93.7533C1359.65 98.9367 1361.97 103.784 1365.33 107.887C1368.68 111.99 1372.98 115.23 1377.85 117.333C1382.72 119.436 1388.03 120.342 1393.32 119.973C1398.62 119.605 1403.75 117.974 1408.28 115.217C1409.31 114.592 1410.55 114.384 1411.73 114.635C1412.91 114.885 1413.95 115.576 1414.64 116.567C1420.25 124.658 1428.05 130.997 1437.12 134.848C1446.2 138.699 1456.18 139.905 1465.92 138.325C1475.65 136.745 1484.74 132.444 1492.12 125.922C1499.5 119.399 1504.88 110.922 1507.64 101.473C1507.84 100.763 1508.22 100.111 1508.72 99.5697C1509.23 99.0286 1509.85 98.6134 1510.55 98.3574C1511.25 98.1014 1511.99 98.0117 1512.73 98.0954Z" fill="url(#paint2_linear_2218_5897)" stroke="#3432CA"/>
</g>
<defs>
<filter id="filter0_f_2218_5897" x="119.965" y="9.28174" width="1438.96" height="1411.34" filterUnits="userSpaceOnUse" color-interpolation-filters="sRGB">
<feFlood flood-opacity="0" result="BackgroundImageFix"/>
<feBlend mode="normal" in="SourceGraphic" in2="BackgroundImageFix" result="shape"/>
<feGaussianBlur stdDeviation="150" result="effect1_foregroundBlur_2218_5897"/>
</filter>
<linearGradient id="paint0_linear_2218_5897" x1="469.516" y1="796.044" x2="1211.86" y2="716.708" gradientUnits="userSpaceOnUse">
<stop stop-color="#3432CA"/>
<stop offset="1" stop-color="#009900"/>
</linearGradient>
<linearGradient id="paint1_linear_2218_5897" x1="483" y1="362" x2="483" y2="459.404" gradientUnits="userSpaceOnUse">
<stop stop-color="#3432CA"/>
<stop offset="1" stop-color="#3432CA" stop-opacity="0"/>
</linearGradient>
<linearGradient id="paint2_linear_2218_5897" x1="1448" y1="-41" x2="1448" y2="56.404" gradientUnits="userSpaceOnUse">
<stop stop-color="#3432CA" stop-opacity="0"/>
<stop offset="1" stop-color="#3432CA"/>
</linearGradient>
</defs>
</svg>
