<svg width="194" height="325" viewBox="0 0 194 325" fill="none" xmlns="http://www.w3.org/2000/svg">
<path opacity="0.2" d="M60.6328 113.235L61.9325 112.972C63.8905 112.576 65.6618 111.542 66.9694 110.031C68.277 108.521 69.0471 106.62 69.1592 104.626C70.5572 79.8081 80.2947 56.1898 96.7936 37.5982C113.293 19.0066 135.586 6.531 160.061 2.19319C184.537 -2.14463 209.76 1.90951 231.643 13.6986C253.527 25.4877 270.788 44.321 280.63 67.1464L280.63 67.1471C281.142 68.3292 281.901 69.3881 282.855 70.2528C283.81 71.1176 284.939 71.7681 286.166 72.1608C287.392 72.5535 288.689 72.6792 289.969 72.5296C291.248 72.38 292.481 71.9585 293.584 71.2934L293.585 71.293C304.637 64.6032 317.21 60.8361 330.12 60.3463C343.03 59.8565 355.852 62.6603 367.379 68.4935C378.906 74.3267 388.76 82.9975 396.011 93.6896C403.263 104.381 407.674 116.742 408.83 129.609C408.937 130.842 409.296 132.039 409.885 133.126C410.474 134.214 411.28 135.169 412.252 135.932C412.253 135.932 412.253 135.933 412.253 135.933L412.562 135.539C413.476 136.26 414.529 136.784 415.656 137.078C416.782 137.372 417.957 137.429 419.107 137.246L60.6328 113.235ZM60.6328 113.235C50.0728 115.525 40.1143 120.032 31.4197 126.465C22.3673 133.162 14.9096 141.78 9.58142 151.7C4.25327 161.62 1.18683 172.596 0.602173 183.841C0.0174866 195.087 1.92905 206.322 6.19971 216.741C10.4704 227.16 16.9942 236.505 25.3032 244.105C33.6122 251.704 43.5003 257.371 54.2581 260.697C65.0158 264.024 76.3766 264.928 87.5252 263.345C98.6737 261.763 109.334 257.732 118.74 251.542L118.741 251.541C119.922 250.768 121.267 250.281 122.67 250.122C124.072 249.962 125.493 250.133 126.817 250.621C128.142 251.11 129.333 251.902 130.297 252.934C131.26 253.966 131.968 255.209 132.363 256.564L132.364 256.565C137.284 273.499 146.903 288.691 160.107 300.381C173.31 312.07 189.557 319.777 206.963 322.609C224.368 325.44 242.22 323.28 258.448 316.378C274.676 309.477 288.615 298.117 298.649 283.615L298.649 283.615C299.96 281.726 301.942 280.408 304.191 279.929C306.441 279.451 308.788 279.848 310.754 281.04L310.755 281.041C318.834 285.967 327.977 288.881 337.416 289.539C346.855 290.197 356.314 288.579 364.998 284.821C373.682 281.063 381.336 275.275 387.319 267.944C393.301 260.613 397.435 251.953 399.375 242.692C399.635 241.452 400.153 240.28 400.895 239.253C401.637 238.226 402.588 237.366 403.684 236.73L403.686 236.729C404.785 236.1 406.002 235.706 407.261 235.573C408.52 235.439 409.792 235.568 410.998 235.952L411.004 235.954C418.286 238.372 426.021 239.105 433.628 238.099C441.234 237.093 448.513 234.374 454.916 230.146C461.319 225.919 466.678 220.293 470.591 213.693C474.504 207.093 476.868 199.691 477.505 192.045C478.142 184.399 477.035 176.708 474.267 169.552C471.5 162.395 467.145 155.961 461.53 150.732C455.914 145.503 449.186 141.618 441.851 139.367C434.515 137.117 426.765 136.56 419.184 137.74L60.6328 113.235ZM131.883 256.704C136.83 273.729 146.501 289.003 159.776 300.755C173.05 312.507 189.383 320.256 206.882 323.102C224.381 325.949 242.329 323.777 258.643 316.839C274.958 309.9 288.972 298.479 299.06 283.9C300.298 282.115 302.171 280.87 304.295 280.418C306.42 279.966 308.637 280.342 310.495 281.468L131.883 256.704ZM131.883 256.704C131.51 255.424 130.841 254.25 129.931 253.275M131.883 256.704L129.931 253.275M129.931 253.275C129.021 252.3 127.896 251.552 126.644 251.09M129.931 253.275L126.644 251.09M126.644 251.09C125.393 250.629 124.051 250.467 122.727 250.618M126.644 251.09L122.727 250.618M122.727 250.618C121.402 250.769 120.131 251.229 119.015 251.96L122.727 250.618Z" fill="url(#paint0_linear_408_2337)" stroke="#3432CA"/>
<defs>
<linearGradient id="paint0_linear_408_2337" x1="239.089" y1="0" x2="239.089" y2="175.5" gradientUnits="userSpaceOnUse">
<stop stop-color="#3432CA"/>
<stop offset="1" stop-color="#3432CA" stop-opacity="0"/>
</linearGradient>
</defs>
</svg>
