<svg width="125" height="89" viewBox="0 0 125 89" fill="none" xmlns="http://www.w3.org/2000/svg">
<path opacity="0.2" d="M148.946 18.1412L148.579 18.1741C148.161 13.524 146.567 9.05667 143.946 5.19268C141.325 1.32868 137.764 -1.80486 133.598 -3.91291C129.431 -6.02097 124.797 -7.0342 120.131 -6.85721C115.465 -6.68022 110.921 -5.31882 106.926 -2.90121L106.926 -2.90088C106.501 -2.64514 106.027 -2.48308 105.536 -2.42556C105.044 -2.36805 104.545 -2.4164 104.073 -2.56738C103.601 -2.71836 103.167 -2.96848 102.8 -3.30096C102.433 -3.63345 102.141 -4.04059 101.945 -4.4951L101.944 -4.49563C98.3797 -12.7618 92.1279 -19.5822 84.202 -23.8516C76.2761 -28.1211 67.1406 -29.5893 58.2759 -28.0183C49.4112 -26.4474 41.3367 -21.9294 35.361 -15.1964C29.3853 -8.46351 25.8585 0.0897865 25.3521 9.07733C25.309 9.84422 25.0129 10.5752 24.5101 11.1559C24.0073 11.7366 23.3261 12.1342 22.5733 12.2866L22.1015 12.3821C18.2853 13.2096 14.6864 14.8385 11.5442 17.1629C8.27237 19.5832 5.57687 22.6976 3.65111 26.2826C1.72533 29.8676 0.617035 33.8344 0.405701 37.8984C0.194382 41.9623 0.885284 46.0227 2.42883 49.788C3.9724 53.5535 6.33034 56.9306 9.3335 59.6771C12.3366 62.4236 15.9105 64.4715 19.7988 65.6737C23.687 66.8759 27.7932 67.2027 31.8226 66.6307C35.8521 66.0586 39.705 64.6018 43.1049 62.3649L43.1055 62.3645C43.5595 62.0671 44.0769 61.8801 44.6162 61.8186C45.1555 61.7572 45.7018 61.823 46.211 62.0108C46.7203 62.1985 47.1785 62.503 47.5489 62.8998C47.9192 63.2966 48.1915 63.7747 48.3437 64.2957L48.3438 64.2962C50.1243 70.4236 53.6055 75.9209 58.3836 80.1505C63.1616 84.3802 69.0409 87.169 75.3397 88.1936C81.6384 89.2181 88.0986 88.4364 93.9711 85.9392C99.8436 83.4419 104.888 79.3314 108.519 74.0842L108.519 74.0838C109.023 73.3574 109.786 72.8506 110.65 72.6667C111.515 72.4828 112.418 72.6356 113.174 73.0939L113.175 73.0944C116.089 74.8711 119.387 75.9222 122.792 76.1594C126.197 76.3967 129.609 75.8131 132.741 74.4577C135.874 73.1024 138.635 71.0148 140.793 68.3707C142.951 65.7265 144.442 62.603 145.142 59.2627C145.242 58.7858 145.441 58.3352 145.726 57.9402C146.012 57.5453 146.377 57.2148 146.799 56.9703L146.801 56.9693C147.223 56.7276 147.691 56.5763 148.174 56.525C148.658 56.4736 149.147 56.5233 149.611 56.671L149.615 56.6724C152.238 57.5431 155.024 57.8072 157.764 57.4449C160.504 57.0825 163.126 56.1031 165.432 54.5805C167.738 53.0579 169.669 51.0317 171.078 48.6547C172.488 46.2777 173.339 43.6118 173.568 40.858C173.798 38.1042 173.399 35.3342 172.402 32.7568C171.406 30.1795 169.837 27.8619 167.814 25.9788C165.792 24.0957 163.368 22.6961 160.726 21.8856C158.084 21.075 155.292 20.8747 152.561 21.2996C152.093 21.3739 151.615 21.3505 151.156 21.2308C150.697 21.1111 150.267 20.8977 149.895 20.6039C149.521 20.3104 149.211 19.9434 148.985 19.5254C148.759 19.1072 148.62 18.647 148.579 18.1732L148.946 18.1412ZM148.946 18.1412C148.983 18.5647 149.107 18.9761 149.309 19.35C149.511 19.7238 149.789 20.0521 150.123 20.3145L102.283 -4.64155C102.459 -4.23527 102.719 -3.87132 103.048 -3.57411C103.376 -3.2769 103.764 -3.05331 104.186 -2.91834C104.607 -2.78337 105.053 -2.74015 105.493 -2.79157C105.933 -2.84299 106.356 -2.98786 106.735 -3.21646C110.784 -5.66646 115.389 -7.04608 120.117 -7.22544C124.846 -7.4048 129.542 -6.37801 133.764 -4.24172C137.986 -2.10543 141.595 1.07007 144.251 4.98582C146.907 8.90158 148.523 13.4288 148.946 18.1412ZM148.213 56.8914C147.78 56.9374 147.362 57.0728 146.984 57.2891L152.505 20.9355C155.291 20.502 158.139 20.7064 160.834 21.5333C163.529 22.3602 166.002 23.788 168.065 25.7091C170.129 27.6302 171.729 29.9945 172.746 32.6239C173.763 35.2533 174.17 38.0792 173.936 40.8886C173.702 43.698 172.833 46.4176 171.395 48.8426C169.957 51.2676 167.988 53.3347 165.635 54.888C163.282 56.4414 160.607 57.4405 157.812 57.8102C155.017 58.1799 152.175 57.9104 149.499 57.0221C149.084 56.8899 148.646 56.8454 148.213 56.8914Z" fill="url(#paint0_linear_408_2500)" stroke="#3432CA" stroke-width="0.736994"/>
<defs>
<linearGradient id="paint0_linear_408_2500" x1="118.927" y1="2.92688" x2="45" y2="57" gradientUnits="userSpaceOnUse">
<stop stop-color="#3432CA"/>
<stop offset="1" stop-color="#3432CA" stop-opacity="0"/>
</linearGradient>
</defs>
</svg>
