<svg width="459" height="600" viewBox="0 0 459 600" fill="none" xmlns="http://www.w3.org/2000/svg">
<rect width="459" height="600" rx="24" fill="url(#paint0_linear_408_1981)"/>
<path d="M119.054 496.696C119.998 496.696 120.726 496.8 121.238 497.008C121.75 497.2 122.19 497.408 122.558 497.632C122.75 497.744 122.902 497.832 123.014 497.896C123.142 497.944 123.262 497.968 123.374 497.968C123.534 497.968 123.646 497.88 123.71 497.704C123.79 497.528 123.854 497.264 123.902 496.912H124.454C124.438 497.216 124.414 497.584 124.382 498.016C124.366 498.432 124.35 498.984 124.334 499.672C124.334 500.36 124.334 501.264 124.334 502.384H123.782C123.718 501.552 123.526 500.744 123.206 499.96C122.886 499.176 122.43 498.536 121.838 498.04C121.262 497.528 120.55 497.272 119.702 497.272C118.934 497.272 118.302 497.488 117.806 497.92C117.31 498.352 117.062 498.952 117.062 499.72C117.062 500.36 117.222 500.912 117.542 501.376C117.862 501.824 118.326 502.264 118.934 502.696C119.558 503.128 120.31 503.648 121.19 504.256C121.958 504.752 122.646 505.248 123.254 505.744C123.862 506.24 124.35 506.8 124.718 507.424C125.086 508.048 125.27 508.792 125.27 509.656C125.27 510.712 124.99 511.584 124.43 512.272C123.886 512.96 123.166 513.48 122.27 513.832C121.374 514.168 120.39 514.336 119.318 514.336C118.326 514.336 117.534 514.24 116.942 514.048C116.35 513.856 115.854 513.656 115.454 513.448C115.102 513.224 114.83 513.112 114.638 513.112C114.478 513.112 114.358 513.2 114.278 513.376C114.214 513.552 114.158 513.816 114.11 514.168H113.558C113.59 513.784 113.606 513.336 113.606 512.824C113.622 512.312 113.63 511.648 113.63 510.832C113.646 510 113.654 508.952 113.654 507.688H114.206C114.27 508.744 114.446 509.736 114.734 510.664C115.038 511.576 115.494 512.312 116.102 512.872C116.726 513.432 117.55 513.712 118.574 513.712C119.134 513.712 119.63 513.616 120.062 513.424C120.51 513.216 120.87 512.912 121.142 512.512C121.414 512.112 121.55 511.616 121.55 511.024C121.55 510.352 121.39 509.768 121.07 509.272C120.766 508.776 120.342 508.312 119.798 507.88C119.27 507.448 118.654 507.008 117.95 506.56C117.198 506.064 116.494 505.568 115.838 505.072C115.182 504.576 114.654 504.008 114.254 503.368C113.87 502.728 113.678 501.968 113.678 501.088C113.678 500.08 113.926 499.256 114.422 498.616C114.934 497.96 115.598 497.48 116.414 497.176C117.246 496.856 118.126 496.696 119.054 496.696ZM129.95 495.4C130.622 495.4 131.15 495.568 131.534 495.904C131.934 496.224 132.134 496.672 132.134 497.248C132.134 497.824 131.934 498.28 131.534 498.616C131.15 498.936 130.622 499.096 129.95 499.096C129.278 499.096 128.742 498.936 128.342 498.616C127.958 498.28 127.766 497.824 127.766 497.248C127.766 496.672 127.958 496.224 128.342 495.904C128.742 495.568 129.278 495.4 129.95 495.4ZM131.822 501.328V511.768C131.822 512.44 131.934 512.896 132.158 513.136C132.398 513.376 132.798 513.496 133.358 513.496V514C133.07 513.984 132.622 513.968 132.014 513.952C131.406 513.92 130.79 513.904 130.166 513.904C129.542 513.904 128.91 513.92 128.27 513.952C127.63 513.968 127.15 513.984 126.83 514V513.496C127.39 513.496 127.782 513.376 128.006 513.136C128.246 512.896 128.366 512.44 128.366 511.768V504.208C128.366 503.488 128.254 502.96 128.03 502.624C127.822 502.272 127.422 502.096 126.83 502.096V501.592C127.342 501.64 127.838 501.664 128.318 501.664C128.99 501.664 129.614 501.64 130.19 501.592C130.782 501.528 131.326 501.44 131.822 501.328ZM143.112 501.256C143.784 501.256 144.328 501.344 144.744 501.52C145.16 501.68 145.496 501.904 145.752 502.192C146.008 502.496 146.192 502.896 146.304 503.392C146.416 503.872 146.472 504.512 146.472 505.312V511.768C146.472 512.44 146.576 512.896 146.784 513.136C146.992 513.376 147.352 513.496 147.864 513.496V514C147.576 513.984 147.136 513.968 146.544 513.952C145.968 513.92 145.4 513.904 144.84 513.904C144.264 513.904 143.696 513.92 143.136 513.952C142.576 513.968 142.152 513.984 141.864 514V513.496C142.296 513.496 142.592 513.376 142.752 513.136C142.928 512.896 143.016 512.44 143.016 511.768V504.304C143.016 503.904 142.984 503.56 142.92 503.272C142.856 502.968 142.728 502.736 142.536 502.576C142.36 502.4 142.088 502.312 141.72 502.312C141.304 502.312 140.92 502.432 140.568 502.672C140.216 502.912 139.928 503.248 139.704 503.68C139.496 504.096 139.392 504.568 139.392 505.096V511.768C139.392 512.44 139.48 512.896 139.656 513.136C139.832 513.376 140.128 513.496 140.544 513.496V514C140.288 513.984 139.888 513.968 139.344 513.952C138.816 513.92 138.272 513.904 137.712 513.904C137.104 513.904 136.48 513.92 135.84 513.952C135.2 513.968 134.72 513.984 134.4 514V513.496C134.96 513.496 135.352 513.376 135.576 513.136C135.816 512.896 135.936 512.44 135.936 511.768V504.208C135.936 503.488 135.824 502.96 135.6 502.624C135.392 502.272 134.992 502.096 134.4 502.096V501.592C134.912 501.64 135.408 501.664 135.888 501.664C136.56 501.664 137.184 501.64 137.76 501.592C138.352 501.528 138.896 501.44 139.392 501.328V503.488C139.776 502.688 140.296 502.12 140.952 501.784C141.608 501.432 142.328 501.256 143.112 501.256ZM150.336 501.256C151.008 501.256 151.552 501.344 151.968 501.52C152.384 501.68 152.72 501.904 152.976 502.192C153.232 502.496 153.416 502.896 153.528 503.392C153.64 503.872 153.696 504.512 153.696 505.312V511.768C153.696 512.44 153.808 512.896 154.032 513.136C154.272 513.376 154.672 513.496 155.232 513.496V514C154.928 513.984 154.472 513.968 153.864 513.952C153.256 513.92 152.656 513.904 152.064 513.904C151.488 513.904 150.92 513.92 150.36 513.952C149.8 513.968 149.376 513.984 149.088 514V513.496C149.52 513.496 149.816 513.376 149.976 513.136C150.152 512.896 150.24 512.44 150.24 511.768V504.304C150.24 503.904 150.2 503.56 150.12 503.272C150.056 502.968 149.92 502.736 149.712 502.576C149.52 502.4 149.216 502.312 148.8 502.312C148.384 502.312 148 502.44 147.648 502.696C147.296 502.952 147.008 503.296 146.784 503.728C146.576 504.16 146.464 504.64 146.448 505.168L146.328 503.704C146.76 502.744 147.328 502.096 148.032 501.76C148.752 501.424 149.52 501.256 150.336 501.256ZM161.023 501.328V515.968C161.023 516.72 161.215 517.216 161.599 517.456C161.983 517.712 162.511 517.84 163.183 517.84V518.344C162.767 518.328 162.191 518.304 161.455 518.272C160.735 518.256 159.967 518.248 159.151 518.248C158.559 518.248 157.975 518.256 157.399 518.272C156.839 518.304 156.415 518.328 156.127 518.344V517.84C156.655 517.84 157.023 517.728 157.231 517.504C157.455 517.28 157.567 516.848 157.567 516.208V504.208C157.567 503.488 157.455 502.96 157.231 502.624C157.007 502.272 156.607 502.096 156.031 502.096V501.592C156.543 501.64 157.039 501.664 157.519 501.664C158.175 501.664 158.799 501.64 159.391 501.592C159.983 501.528 160.527 501.44 161.023 501.328ZM164.743 501.256C165.559 501.256 166.287 501.48 166.927 501.928C167.567 502.36 168.079 503.024 168.463 503.92C168.847 504.8 169.039 505.904 169.039 507.232C169.039 508.4 168.903 509.424 168.631 510.304C168.375 511.184 167.999 511.928 167.503 512.536C167.023 513.128 166.439 513.576 165.751 513.88C165.079 514.184 164.319 514.336 163.471 514.336C162.847 514.336 162.279 514.224 161.767 514C161.255 513.792 160.863 513.488 160.591 513.088L160.831 512.776C160.991 513.064 161.215 513.288 161.503 513.448C161.807 513.608 162.151 513.688 162.535 513.688C163.255 513.688 163.823 513.448 164.239 512.968C164.655 512.472 164.951 511.784 165.127 510.904C165.319 510.008 165.415 508.944 165.415 507.712C165.415 506.336 165.327 505.256 165.151 504.472C164.975 503.688 164.735 503.128 164.431 502.792C164.127 502.456 163.759 502.288 163.327 502.288C162.751 502.288 162.223 502.512 161.743 502.96C161.279 503.408 161.015 504.048 160.951 504.88L160.831 504.04C161.119 503.128 161.607 502.44 162.295 501.976C162.999 501.496 163.815 501.256 164.743 501.256ZM175.413 495.208V511.768C175.413 512.44 175.525 512.896 175.749 513.136C175.989 513.376 176.389 513.496 176.949 513.496V514C176.645 513.984 176.189 513.968 175.581 513.952C174.973 513.92 174.357 513.904 173.733 513.904C173.109 513.904 172.477 513.92 171.837 513.952C171.213 513.968 170.741 513.984 170.421 514V513.496C170.981 513.496 171.373 513.376 171.597 513.136C171.837 512.896 171.957 512.44 171.957 511.768V498.088C171.957 497.368 171.845 496.84 171.621 496.504C171.413 496.152 171.013 495.976 170.421 495.976V495.472C170.933 495.52 171.429 495.544 171.909 495.544C172.565 495.544 173.189 495.52 173.781 495.472C174.373 495.408 174.917 495.32 175.413 495.208ZM183.928 501.256C185.336 501.256 186.44 501.672 187.24 502.504C188.04 503.336 188.44 504.696 188.44 506.584H180.544L180.496 506.128H185.416C185.432 505.344 185.384 504.624 185.272 503.968C185.16 503.296 184.984 502.76 184.744 502.36C184.504 501.96 184.184 501.76 183.784 501.76C183.224 501.76 182.744 502.112 182.344 502.816C181.96 503.52 181.728 504.688 181.648 506.32L181.72 506.464C181.704 506.656 181.688 506.856 181.672 507.064C181.672 507.272 181.672 507.488 181.672 507.712C181.672 508.816 181.824 509.712 182.128 510.4C182.448 511.088 182.848 511.592 183.328 511.912C183.808 512.216 184.296 512.368 184.792 512.368C185.128 512.368 185.472 512.32 185.824 512.224C186.192 512.112 186.56 511.92 186.928 511.648C187.296 511.36 187.64 510.96 187.96 510.448L188.392 510.592C188.2 511.2 187.896 511.792 187.48 512.368C187.064 512.944 186.536 513.416 185.896 513.784C185.256 514.152 184.488 514.336 183.592 514.336C182.504 514.336 181.544 514.104 180.712 513.64C179.88 513.176 179.224 512.472 178.744 511.528C178.28 510.584 178.048 509.384 178.048 507.928C178.048 506.44 178.296 505.2 178.792 504.208C179.304 503.216 180 502.48 180.88 502C181.776 501.504 182.792 501.256 183.928 501.256ZM192.398 510.64C192.798 510.64 193.142 510.712 193.43 510.856C193.718 511 193.942 511.208 194.102 511.48C194.278 511.704 194.406 512 194.486 512.368C194.582 512.736 194.63 513.104 194.63 513.472C194.63 514.272 194.422 515.008 194.006 515.68C193.606 516.368 192.974 516.912 192.11 517.312L191.894 516.88C192.342 516.688 192.742 516.392 193.094 515.992C193.446 515.592 193.654 515.184 193.718 514.768C193.798 514.416 193.798 514.08 193.718 513.76C193.366 514.144 192.902 514.336 192.326 514.336C191.766 514.336 191.31 514.176 190.958 513.856C190.606 513.52 190.43 513.064 190.43 512.488C190.43 511.928 190.614 511.48 190.982 511.144C191.366 510.808 191.838 510.64 192.398 510.64ZM205.259 514.168C204.539 514.168 203.939 514.032 203.459 513.76C202.979 513.488 202.627 513.128 202.403 512.68C202.179 512.216 202.067 511.712 202.067 511.168C202.067 510.48 202.219 509.92 202.523 509.488C202.843 509.056 203.251 508.704 203.747 508.432C204.243 508.16 204.763 507.936 205.307 507.76C205.867 507.584 206.395 507.416 206.891 507.256C207.403 507.08 207.811 506.88 208.115 506.656C208.435 506.416 208.595 506.112 208.595 505.744V503.872C208.595 503.456 208.523 503.088 208.379 502.768C208.251 502.432 208.043 502.176 207.755 502C207.483 501.824 207.123 501.736 206.675 501.736C206.355 501.736 206.035 501.784 205.715 501.88C205.395 501.96 205.131 502.104 204.923 502.312C205.371 502.472 205.715 502.72 205.955 503.056C206.211 503.376 206.339 503.744 206.339 504.16C206.339 504.704 206.147 505.136 205.763 505.456C205.395 505.776 204.955 505.936 204.443 505.936C203.867 505.936 203.427 505.76 203.123 505.408C202.835 505.04 202.691 504.6 202.691 504.088C202.691 503.624 202.803 503.24 203.027 502.936C203.267 502.632 203.595 502.344 204.011 502.072C204.459 501.816 204.995 501.616 205.619 501.472C206.259 501.328 206.947 501.256 207.683 501.256C208.419 501.256 209.083 501.336 209.675 501.496C210.267 501.64 210.763 501.912 211.163 502.312C211.531 502.68 211.771 503.136 211.883 503.68C211.995 504.208 212.051 504.88 212.051 505.696V512.224C212.051 512.624 212.091 512.904 212.171 513.064C212.251 513.208 212.387 513.28 212.579 513.28C212.723 513.28 212.859 513.24 212.987 513.16C213.131 513.08 213.283 512.984 213.443 512.872L213.683 513.28C213.347 513.568 212.955 513.792 212.507 513.952C212.075 514.096 211.587 514.168 211.043 514.168C210.451 514.168 209.979 514.088 209.627 513.928C209.275 513.752 209.019 513.52 208.859 513.232C208.715 512.944 208.643 512.608 208.643 512.224C208.259 512.832 207.795 513.312 207.251 513.664C206.707 514 206.043 514.168 205.259 514.168ZM206.963 512.632C207.283 512.632 207.571 512.56 207.827 512.416C208.099 512.256 208.355 512 208.595 511.648V506.728C208.451 506.968 208.251 507.184 207.995 507.376C207.739 507.568 207.467 507.768 207.179 507.976C206.891 508.168 206.611 508.384 206.339 508.624C206.083 508.864 205.875 509.16 205.715 509.512C205.555 509.864 205.475 510.288 205.475 510.784C205.475 511.408 205.611 511.872 205.883 512.176C206.155 512.48 206.515 512.632 206.963 512.632ZM221.497 496.192C222.377 496.192 223.161 496.392 223.849 496.792C224.537 497.192 225.001 497.776 225.241 498.544L224.809 498.76C224.633 498.168 224.281 497.68 223.753 497.296C223.241 496.912 222.617 496.72 221.881 496.72C221.065 496.72 220.465 496.976 220.081 497.488C219.697 497.984 219.505 498.784 219.505 499.888V501.616H222.697V502.096H219.505V511.768C219.505 512.44 219.617 512.896 219.841 513.136C220.081 513.376 220.481 513.496 221.041 513.496V514C220.721 513.984 220.265 513.968 219.673 513.952C219.097 513.92 218.497 513.904 217.873 513.904C217.217 513.904 216.553 513.92 215.881 513.952C215.209 513.968 214.705 513.984 214.369 514V513.496C214.977 513.496 215.409 513.376 215.665 513.136C215.921 512.896 216.049 512.44 216.049 511.768V502.096H214.273V501.616H216.049C216.049 500.752 216.177 499.976 216.433 499.288C216.705 498.584 217.089 498 217.585 497.536C218.033 497.136 218.585 496.816 219.241 496.576C219.913 496.32 220.665 496.192 221.497 496.192ZM228.649 495.232C229.209 495.232 229.697 495.304 230.113 495.448C230.529 495.592 230.889 495.784 231.193 496.024C231.433 496.2 231.633 496.448 231.793 496.768C231.953 497.072 232.033 497.424 232.033 497.824C232.033 498.256 231.873 498.64 231.553 498.976C231.233 499.312 230.825 499.48 230.329 499.48C229.801 499.48 229.361 499.328 229.009 499.024C228.673 498.72 228.505 498.304 228.505 497.776C228.505 497.36 228.625 496.992 228.865 496.672C229.105 496.352 229.449 496.128 229.897 496C229.849 495.904 229.753 495.824 229.609 495.76C229.465 495.696 229.273 495.664 229.033 495.664C228.729 495.664 228.473 495.72 228.265 495.832C228.057 495.944 227.881 496.096 227.737 496.288C227.577 496.528 227.465 496.88 227.401 497.344C227.337 497.792 227.305 498.488 227.305 499.432V501.616H229.873V502.096H227.305V511.528C227.305 512.312 227.505 512.84 227.905 513.112C228.305 513.368 228.857 513.496 229.561 513.496V514C229.145 513.984 228.561 513.968 227.809 513.952C227.057 513.92 226.265 513.904 225.433 513.904C224.825 513.904 224.225 513.92 223.633 513.952C223.041 513.968 222.601 513.984 222.313 514V513.496C222.873 513.496 223.265 513.376 223.489 513.136C223.729 512.896 223.849 512.44 223.849 511.768V502.096H222.217V501.616H223.849C223.849 500.672 223.897 499.888 223.993 499.264C224.089 498.624 224.241 498.08 224.449 497.632C224.673 497.184 224.977 496.784 225.361 496.432C225.697 496.096 226.153 495.816 226.729 495.592C227.321 495.352 227.961 495.232 228.649 495.232ZM236.498 501.256C237.666 501.256 238.69 501.472 239.57 501.904C240.45 502.336 241.138 503.032 241.634 503.992C242.13 504.952 242.378 506.224 242.378 507.808C242.378 509.392 242.13 510.664 241.634 511.624C241.138 512.568 240.45 513.256 239.57 513.688C238.69 514.12 237.666 514.336 236.498 514.336C235.362 514.336 234.346 514.12 233.45 513.688C232.57 513.256 231.874 512.568 231.362 511.624C230.866 510.664 230.618 509.392 230.618 507.808C230.618 506.224 230.866 504.952 231.362 503.992C231.874 503.032 232.57 502.336 233.45 501.904C234.346 501.472 235.362 501.256 236.498 501.256ZM236.498 501.736C235.858 501.736 235.322 502.216 234.89 503.176C234.458 504.12 234.242 505.664 234.242 507.808C234.242 509.952 234.458 511.496 234.89 512.44C235.322 513.384 235.858 513.856 236.498 513.856C237.154 513.856 237.69 513.384 238.106 512.44C238.538 511.496 238.754 509.952 238.754 507.808C238.754 505.664 238.538 504.12 238.106 503.176C237.69 502.216 237.154 501.736 236.498 501.736ZM252.133 501.256C252.645 501.256 253.061 501.368 253.381 501.592C253.701 501.8 253.933 502.072 254.077 502.408C254.237 502.744 254.317 503.096 254.317 503.464C254.317 504.056 254.141 504.544 253.789 504.928C253.453 505.296 253.005 505.48 252.445 505.48C251.885 505.48 251.445 505.344 251.125 505.072C250.821 504.784 250.669 504.408 250.669 503.944C250.669 503.496 250.765 503.128 250.957 502.84C251.165 502.536 251.421 502.28 251.725 502.072C251.501 502.008 251.277 502.016 251.053 502.096C250.749 502.144 250.461 502.272 250.189 502.48C249.917 502.672 249.685 502.92 249.493 503.224C249.301 503.512 249.149 503.832 249.037 504.184C248.925 504.52 248.869 504.848 248.869 505.168V511.528C248.869 512.296 249.053 512.816 249.421 513.088C249.805 513.36 250.373 513.496 251.125 513.496V514C250.757 513.984 250.221 513.968 249.517 513.952C248.813 513.92 248.077 513.904 247.309 513.904C246.669 513.904 246.021 513.92 245.365 513.952C244.709 513.968 244.213 513.984 243.877 514V513.496C244.437 513.496 244.829 513.376 245.053 513.136C245.293 512.896 245.413 512.44 245.413 511.768V504.208C245.413 503.488 245.301 502.96 245.077 502.624C244.869 502.272 244.469 502.096 243.877 502.096V501.592C244.389 501.64 244.885 501.664 245.365 501.664C246.037 501.664 246.661 501.64 247.237 501.592C247.829 501.528 248.373 501.44 248.869 501.328V503.56C249.061 503.128 249.317 502.736 249.637 502.384C249.957 502.032 250.325 501.76 250.741 501.568C251.157 501.36 251.621 501.256 252.133 501.256ZM266.56 495.208V511.36C266.56 512.08 266.672 512.616 266.896 512.968C267.12 513.304 267.52 513.472 268.096 513.472V513.976C267.6 513.928 267.104 513.904 266.608 513.904C265.936 513.904 265.304 513.928 264.712 513.976C264.136 514.024 263.6 514.112 263.104 514.24V498.088C263.104 497.368 262.992 496.84 262.768 496.504C262.56 496.152 262.16 495.976 261.568 495.976V495.472C262.08 495.52 262.576 495.544 263.056 495.544C263.712 495.544 264.336 495.52 264.928 495.472C265.52 495.408 266.064 495.32 266.56 495.208ZM260.44 501.256C261.144 501.256 261.76 501.376 262.288 501.616C262.832 501.84 263.256 502.224 263.56 502.768L263.272 503.032C263.064 502.648 262.784 502.376 262.432 502.216C262.096 502.04 261.736 501.952 261.352 501.952C260.536 501.952 259.888 502.432 259.408 503.392C258.928 504.336 258.696 505.8 258.712 507.784C258.712 509.144 258.8 510.232 258.976 511.048C259.168 511.848 259.432 512.424 259.768 512.776C260.12 513.128 260.52 513.304 260.968 513.304C261.512 513.304 262 513.088 262.432 512.656C262.864 512.224 263.096 511.64 263.128 510.904L263.248 511.744C263.008 512.592 262.616 513.24 262.072 513.688C261.544 514.12 260.848 514.336 259.984 514.336C259.04 514.336 258.192 514.104 257.44 513.64C256.704 513.176 256.128 512.464 255.712 511.504C255.296 510.528 255.088 509.272 255.088 507.736C255.088 506.28 255.32 505.08 255.784 504.136C256.248 503.176 256.88 502.456 257.68 501.976C258.496 501.496 259.416 501.256 260.44 501.256ZM272.408 514.168C271.688 514.168 271.088 514.032 270.608 513.76C270.128 513.488 269.776 513.128 269.552 512.68C269.328 512.216 269.216 511.712 269.216 511.168C269.216 510.48 269.368 509.92 269.672 509.488C269.992 509.056 270.4 508.704 270.896 508.432C271.392 508.16 271.912 507.936 272.456 507.76C273.016 507.584 273.544 507.416 274.04 507.256C274.552 507.08 274.96 506.88 275.264 506.656C275.584 506.416 275.744 506.112 275.744 505.744V503.872C275.744 503.456 275.672 503.088 275.528 502.768C275.4 502.432 275.192 502.176 274.904 502C274.632 501.824 274.272 501.736 273.824 501.736C273.504 501.736 273.184 501.784 272.864 501.88C272.544 501.96 272.28 502.104 272.072 502.312C272.52 502.472 272.864 502.72 273.104 503.056C273.36 503.376 273.488 503.744 273.488 504.16C273.488 504.704 273.296 505.136 272.912 505.456C272.544 505.776 272.104 505.936 271.592 505.936C271.016 505.936 270.576 505.76 270.272 505.408C269.984 505.04 269.84 504.6 269.84 504.088C269.84 503.624 269.952 503.24 270.176 502.936C270.416 502.632 270.744 502.344 271.16 502.072C271.608 501.816 272.144 501.616 272.768 501.472C273.408 501.328 274.096 501.256 274.832 501.256C275.568 501.256 276.232 501.336 276.824 501.496C277.416 501.64 277.912 501.912 278.312 502.312C278.68 502.68 278.92 503.136 279.032 503.68C279.144 504.208 279.2 504.88 279.2 505.696V512.224C279.2 512.624 279.24 512.904 279.32 513.064C279.4 513.208 279.536 513.28 279.728 513.28C279.872 513.28 280.008 513.24 280.136 513.16C280.28 513.08 280.432 512.984 280.592 512.872L280.832 513.28C280.496 513.568 280.104 513.792 279.656 513.952C279.224 514.096 278.736 514.168 278.192 514.168C277.6 514.168 277.128 514.088 276.776 513.928C276.424 513.752 276.168 513.52 276.008 513.232C275.864 512.944 275.792 512.608 275.792 512.224C275.408 512.832 274.944 513.312 274.4 513.664C273.856 514 273.192 514.168 272.408 514.168ZM274.112 512.632C274.432 512.632 274.72 512.56 274.976 512.416C275.248 512.256 275.504 512 275.744 511.648V506.728C275.6 506.968 275.4 507.184 275.144 507.376C274.888 507.568 274.616 507.768 274.328 507.976C274.04 508.168 273.76 508.384 273.488 508.624C273.232 508.864 273.024 509.16 272.864 509.512C272.704 509.864 272.624 510.288 272.624 510.784C272.624 511.408 272.76 511.872 273.032 512.176C273.304 512.48 273.664 512.632 274.112 512.632ZM289.749 501.256C290.997 501.256 292.029 501.768 292.845 502.792C293.677 503.8 294.093 505.36 294.093 507.472C294.093 509.136 293.837 510.472 293.325 511.48C292.829 512.488 292.165 513.216 291.333 513.664C290.501 514.112 289.589 514.336 288.597 514.336C287.941 514.336 287.333 514.224 286.773 514C286.213 513.776 285.733 513.408 285.333 512.896L285.669 512.776C285.957 513.128 286.293 513.392 286.677 513.568C287.077 513.744 287.469 513.832 287.853 513.832C288.733 513.832 289.389 513.336 289.821 512.344C290.253 511.352 290.469 509.84 290.469 507.808C290.469 506.432 290.381 505.344 290.205 504.544C290.045 503.728 289.805 503.152 289.485 502.816C289.165 502.464 288.781 502.288 288.333 502.288C287.773 502.288 287.261 502.52 286.797 502.984C286.333 503.432 286.069 504.064 286.005 504.88L285.885 504.04C286.173 503.128 286.661 502.44 287.349 501.976C288.037 501.496 288.837 501.256 289.749 501.256ZM286.077 495.232V513.52C285.677 513.456 285.269 513.456 284.853 513.52C284.437 513.584 284.053 513.696 283.701 513.856C283.349 514 283.053 514.176 282.813 514.384L282.453 514.168C282.517 513.944 282.557 513.72 282.573 513.496C282.605 513.272 282.621 513.048 282.621 512.824V498.112C282.621 497.392 282.509 496.864 282.285 496.528C282.077 496.176 281.677 496 281.085 496V495.496C281.597 495.544 282.093 495.568 282.573 495.568C283.229 495.568 283.853 495.544 284.445 495.496C285.037 495.432 285.581 495.344 286.077 495.232ZM300.242 495.208V511.768C300.242 512.44 300.354 512.896 300.578 513.136C300.818 513.376 301.218 513.496 301.778 513.496V514C301.474 513.984 301.018 513.968 300.41 513.952C299.802 513.92 299.186 513.904 298.562 513.904C297.938 513.904 297.306 513.92 296.666 513.952C296.042 513.968 295.57 513.984 295.25 514V513.496C295.81 513.496 296.202 513.376 296.426 513.136C296.666 512.896 296.786 512.44 296.786 511.768V498.088C296.786 497.368 296.674 496.84 296.45 496.504C296.242 496.152 295.842 495.976 295.25 495.976V495.472C295.762 495.52 296.258 495.544 296.738 495.544C297.394 495.544 298.018 495.52 298.61 495.472C299.202 495.408 299.746 495.32 300.242 495.208ZM308.756 501.256C310.164 501.256 311.268 501.672 312.068 502.504C312.868 503.336 313.268 504.696 313.268 506.584H305.372L305.324 506.128H310.244C310.26 505.344 310.212 504.624 310.1 503.968C309.988 503.296 309.812 502.76 309.572 502.36C309.332 501.96 309.012 501.76 308.612 501.76C308.052 501.76 307.572 502.112 307.172 502.816C306.788 503.52 306.556 504.688 306.476 506.32L306.548 506.464C306.532 506.656 306.516 506.856 306.5 507.064C306.5 507.272 306.5 507.488 306.5 507.712C306.5 508.816 306.652 509.712 306.956 510.4C307.276 511.088 307.676 511.592 308.156 511.912C308.636 512.216 309.124 512.368 309.62 512.368C309.956 512.368 310.3 512.32 310.652 512.224C311.02 512.112 311.388 511.92 311.756 511.648C312.124 511.36 312.468 510.96 312.788 510.448L313.22 510.592C313.028 511.2 312.724 511.792 312.308 512.368C311.892 512.944 311.364 513.416 310.724 513.784C310.084 514.152 309.316 514.336 308.42 514.336C307.332 514.336 306.372 514.104 305.54 513.64C304.708 513.176 304.052 512.472 303.572 511.528C303.108 510.584 302.876 509.384 302.876 507.928C302.876 506.44 303.124 505.2 303.62 504.208C304.132 503.216 304.828 502.48 305.708 502C306.604 501.504 307.62 501.256 308.756 501.256ZM317.226 510.64C317.626 510.64 317.97 510.712 318.258 510.856C318.546 511 318.77 511.208 318.93 511.48C319.106 511.704 319.234 512 319.314 512.368C319.41 512.736 319.458 513.104 319.458 513.472C319.458 514.272 319.25 515.008 318.834 515.68C318.434 516.368 317.802 516.912 316.938 517.312L316.722 516.88C317.17 516.688 317.57 516.392 317.922 515.992C318.274 515.592 318.482 515.184 318.546 514.768C318.626 514.416 318.626 514.08 318.546 513.76C318.194 514.144 317.73 514.336 317.154 514.336C316.594 514.336 316.138 514.176 315.786 513.856C315.434 513.52 315.258 513.064 315.258 512.488C315.258 511.928 315.442 511.48 315.81 511.144C316.194 510.808 316.666 510.64 317.226 510.64ZM334.119 496.96C334.743 496.96 335.247 497.008 335.631 497.104C336.015 497.184 336.343 497.304 336.615 497.464C336.871 497.576 337.103 497.72 337.311 497.896C337.535 498.072 337.719 498.288 337.863 498.544C338.007 498.8 338.079 499.088 338.079 499.408C338.079 499.888 337.895 500.272 337.527 500.56C337.159 500.848 336.727 500.992 336.231 500.992C335.751 500.992 335.335 500.872 334.983 500.632C334.647 500.392 334.479 500.016 334.479 499.504C334.479 499.104 334.623 498.744 334.911 498.424C335.199 498.088 335.567 497.88 336.015 497.8C335.903 497.672 335.695 497.568 335.391 497.488C335.103 497.408 334.783 497.368 334.431 497.368C333.599 497.368 332.887 497.632 332.295 498.16C331.719 498.672 331.431 499.456 331.431 500.512C331.431 500.88 331.495 501.272 331.623 501.688C331.751 502.104 331.999 502.528 332.367 502.96C332.639 502.896 332.887 502.848 333.111 502.816C333.351 502.784 333.551 502.768 333.711 502.768C333.999 502.768 334.215 502.832 334.359 502.96C334.519 503.072 334.599 503.224 334.599 503.416C334.599 503.56 334.535 503.68 334.407 503.776C334.279 503.872 334.119 503.92 333.927 503.92C333.655 503.92 333.375 503.848 333.087 503.704C332.799 503.544 332.567 503.408 332.391 503.296C331.639 503.68 331.023 504.176 330.543 504.784C330.079 505.376 329.847 506.176 329.847 507.184C329.847 508.24 330.135 509.112 330.711 509.8C331.287 510.472 332.095 510.984 333.135 511.336C334.191 511.672 335.431 511.84 336.855 511.84C337.655 511.84 338.447 511.752 339.231 511.576C340.015 511.4 340.719 511.136 341.343 510.784C341.983 510.432 342.495 510 342.879 509.488C343.263 508.96 343.455 508.352 343.455 507.664C343.455 507.408 343.415 507.088 343.335 506.704C343.271 506.304 343.103 505.912 342.831 505.528C342.559 505.128 342.111 504.8 341.487 504.544L341.655 504.328C342.519 504.6 343.175 505.112 343.623 505.864C344.071 506.616 344.295 507.48 344.295 508.456C344.295 509.576 343.951 510.584 343.263 511.48C342.575 512.36 341.607 513.056 340.359 513.568C339.127 514.08 337.679 514.336 336.015 514.336C334.687 514.336 333.479 514.2 332.391 513.928C331.319 513.656 330.391 513.264 329.607 512.752C328.839 512.224 328.239 511.592 327.807 510.856C327.391 510.12 327.183 509.288 327.183 508.36C327.183 507.464 327.367 506.704 327.735 506.08C328.119 505.44 328.583 504.92 329.127 504.52C329.671 504.104 330.215 503.784 330.759 503.56C331.303 503.336 331.735 503.184 332.055 503.104C331.559 502.896 331.103 502.656 330.687 502.384C330.287 502.096 329.959 501.76 329.703 501.376C329.463 500.992 329.343 500.56 329.343 500.08C329.343 499.568 329.479 499.12 329.751 498.736C330.023 498.336 330.383 498.008 330.831 497.752C331.295 497.496 331.807 497.304 332.367 497.176C332.943 497.032 333.527 496.96 334.119 496.96ZM343.551 496.672C344.687 496.672 345.607 496.968 346.311 497.56C347.015 498.152 347.367 498.984 347.367 500.056C347.367 500.872 347.167 501.56 346.767 502.12C346.383 502.68 345.823 503.136 345.087 503.488C344.367 503.84 343.503 504.12 342.495 504.328C342.271 504.408 341.991 504.504 341.655 504.616C341.319 504.712 340.975 504.808 340.623 504.904C340.271 505 339.927 505.096 339.591 505.192C339.271 505.288 338.991 505.368 338.751 505.432C337.503 505.704 336.543 506.016 335.871 506.368C335.199 506.704 334.863 507.168 334.863 507.76C334.863 508.16 334.991 508.504 335.247 508.792C335.519 509.08 335.855 509.304 336.255 509.464C336.655 509.624 337.055 509.704 337.455 509.704C337.567 509.704 337.687 509.696 337.815 509.68C337.943 509.648 338.063 509.616 338.175 509.584C338.287 509.536 338.367 509.496 338.415 509.464C338.015 509.336 337.711 509.136 337.503 508.864C337.311 508.576 337.215 508.248 337.215 507.88C337.215 507.368 337.399 506.976 337.767 506.704C338.135 506.432 338.591 506.296 339.135 506.296C339.711 506.296 340.159 506.448 340.479 506.752C340.815 507.056 340.983 507.448 340.983 507.928C340.983 508.424 340.831 508.84 340.527 509.176C340.223 509.496 339.815 509.736 339.303 509.896C338.791 510.04 338.215 510.112 337.575 510.112C336.951 510.112 336.359 510 335.799 509.776C335.255 509.552 334.815 509.216 334.479 508.768C334.159 508.304 333.999 507.728 333.999 507.04C333.999 506.192 334.215 505.488 334.647 504.928C335.079 504.352 335.695 503.88 336.495 503.512C337.311 503.128 338.271 502.832 339.375 502.624C339.711 502.544 340.079 502.456 340.479 502.36C340.895 502.248 341.319 502.136 341.751 502.024C342.183 501.912 342.583 501.792 342.951 501.664C344.103 501.376 344.991 501.056 345.615 500.704C346.255 500.352 346.575 499.88 346.575 499.288C346.575 498.856 346.439 498.48 346.167 498.16C345.911 497.824 345.575 497.568 345.159 497.392C344.743 497.2 344.311 497.104 343.863 497.104C343.719 497.104 343.583 497.112 343.455 497.128C343.343 497.144 343.247 497.176 343.167 497.224C343.567 497.368 343.863 497.584 344.055 497.872C344.247 498.16 344.343 498.448 344.343 498.736C344.343 499.232 344.159 499.616 343.791 499.888C343.423 500.144 342.967 500.272 342.423 500.272C341.879 500.272 341.431 500.136 341.079 499.864C340.727 499.576 340.551 499.184 340.551 498.688C340.551 498.256 340.671 497.896 340.911 497.608C341.167 497.304 341.519 497.072 341.967 496.912C342.415 496.752 342.943 496.672 343.551 496.672ZM161.714 531.232V539.488C162.114 538.656 162.65 538.08 163.322 537.76C164.01 537.424 164.778 537.256 165.626 537.256C166.314 537.256 166.866 537.344 167.282 537.52C167.698 537.68 168.026 537.904 168.266 538.192C168.538 538.496 168.73 538.888 168.842 539.368C168.97 539.848 169.034 540.496 169.034 541.312V547.768C169.034 548.44 169.146 548.896 169.37 549.136C169.61 549.376 170.01 549.496 170.57 549.496V550C170.266 549.984 169.802 549.968 169.178 549.952C168.57 549.92 167.978 549.904 167.402 549.904C166.778 549.904 166.17 549.92 165.578 549.952C165.002 549.968 164.57 549.984 164.282 550V549.496C164.762 549.496 165.098 549.376 165.29 549.136C165.482 548.896 165.578 548.44 165.578 547.768V540.304C165.578 539.904 165.538 539.56 165.458 539.272C165.378 538.968 165.226 538.736 165.002 538.576C164.794 538.4 164.49 538.312 164.09 538.312C163.658 538.312 163.258 538.432 162.89 538.672C162.538 538.896 162.25 539.216 162.026 539.632C161.818 540.048 161.714 540.528 161.714 541.072V547.768C161.714 548.44 161.81 548.896 162.002 549.136C162.194 549.376 162.53 549.496 163.01 549.496V550C162.722 549.984 162.298 549.968 161.738 549.952C161.178 549.92 160.61 549.904 160.034 549.904C159.41 549.904 158.778 549.92 158.138 549.952C157.514 549.968 157.042 549.984 156.722 550V549.496C157.282 549.496 157.674 549.376 157.898 549.136C158.138 548.896 158.258 548.44 158.258 547.768V534.112C158.258 533.392 158.146 532.864 157.922 532.528C157.714 532.176 157.314 532 156.722 532V531.496C157.234 531.544 157.73 531.568 158.21 531.568C158.866 531.568 159.49 531.544 160.082 531.496C160.674 531.432 161.218 531.344 161.714 531.232ZM174.563 531.4C175.235 531.4 175.763 531.568 176.147 531.904C176.547 532.224 176.747 532.672 176.747 533.248C176.747 533.824 176.547 534.28 176.147 534.616C175.763 534.936 175.235 535.096 174.563 535.096C173.891 535.096 173.355 534.936 172.955 534.616C172.571 534.28 172.379 533.824 172.379 533.248C172.379 532.672 172.571 532.224 172.955 531.904C173.355 531.568 173.891 531.4 174.563 531.4ZM176.435 537.328V547.768C176.435 548.44 176.547 548.896 176.771 549.136C177.011 549.376 177.411 549.496 177.971 549.496V550C177.683 549.984 177.235 549.968 176.627 549.952C176.019 549.92 175.403 549.904 174.779 549.904C174.155 549.904 173.523 549.92 172.883 549.952C172.243 549.968 171.763 549.984 171.443 550V549.496C172.003 549.496 172.395 549.376 172.619 549.136C172.859 548.896 172.979 548.44 172.979 547.768V540.208C172.979 539.488 172.867 538.96 172.643 538.624C172.435 538.272 172.035 538.096 171.443 538.096V537.592C171.955 537.64 172.451 537.664 172.931 537.664C173.603 537.664 174.227 537.64 174.803 537.592C175.395 537.528 175.939 537.44 176.435 537.328ZM183.67 554.512C182.678 554.512 181.79 554.424 181.006 554.248C180.238 554.088 179.63 553.832 179.182 553.48C178.75 553.144 178.534 552.728 178.534 552.232C178.534 551.736 178.758 551.288 179.206 550.888C179.654 550.504 180.318 550.2 181.198 549.976L181.414 550.36C181.11 550.6 180.886 550.856 180.742 551.128C180.614 551.416 180.55 551.712 180.55 552.016C180.55 552.688 180.854 553.2 181.462 553.552C182.086 553.92 182.926 554.104 183.982 554.104C184.702 554.104 185.342 554.008 185.902 553.816C186.478 553.624 186.926 553.336 187.246 552.952C187.582 552.568 187.75 552.096 187.75 551.536C187.75 551.056 187.574 550.648 187.222 550.312C186.87 549.992 186.166 549.832 185.11 549.832H183.622C182.966 549.832 182.39 549.76 181.894 549.616C181.414 549.472 181.038 549.248 180.766 548.944C180.494 548.624 180.358 548.224 180.358 547.744C180.358 547.072 180.622 546.48 181.15 545.968C181.678 545.456 182.462 544.976 183.502 544.528L183.742 544.72C183.438 544.912 183.15 545.12 182.878 545.344C182.622 545.552 182.494 545.824 182.494 546.16C182.494 546.672 182.814 546.928 183.454 546.928H186.07C186.95 546.928 187.734 547.032 188.422 547.24C189.126 547.448 189.678 547.792 190.078 548.272C190.494 548.736 190.702 549.344 190.702 550.096C190.702 550.88 190.446 551.608 189.934 552.28C189.438 552.952 188.67 553.488 187.63 553.888C186.59 554.304 185.27 554.512 183.67 554.512ZM183.91 544.888C182.998 544.888 182.182 544.752 181.462 544.48C180.742 544.208 180.174 543.792 179.758 543.232C179.342 542.672 179.134 541.952 179.134 541.072C179.134 540.192 179.342 539.472 179.758 538.912C180.174 538.336 180.742 537.92 181.462 537.664C182.182 537.392 182.998 537.256 183.91 537.256C184.822 537.256 185.638 537.392 186.358 537.664C187.078 537.92 187.646 538.336 188.062 538.912C188.478 539.472 188.686 540.192 188.686 541.072C188.686 541.952 188.478 542.672 188.062 543.232C187.646 543.792 187.078 544.208 186.358 544.48C185.638 544.752 184.822 544.888 183.91 544.888ZM183.91 544.456C184.342 544.456 184.678 544.216 184.918 543.736C185.158 543.24 185.278 542.352 185.278 541.072C185.278 539.792 185.158 538.912 184.918 538.432C184.678 537.936 184.342 537.688 183.91 537.688C183.494 537.688 183.158 537.936 182.902 538.432C182.662 538.912 182.542 539.792 182.542 541.072C182.542 542.352 182.662 543.24 182.902 543.736C183.158 544.216 183.494 544.456 183.91 544.456ZM187.654 539.32L187.174 539.152C187.414 538.528 187.798 538.008 188.326 537.592C188.87 537.176 189.454 536.968 190.078 536.968C190.59 536.968 190.974 537.112 191.23 537.4C191.502 537.672 191.638 538.032 191.638 538.48C191.638 538.96 191.51 539.32 191.254 539.56C190.998 539.784 190.71 539.896 190.39 539.896C190.118 539.896 189.862 539.8 189.622 539.608C189.398 539.416 189.27 539.128 189.238 538.744C189.206 538.344 189.342 537.832 189.646 537.208L189.814 537.352C189.206 537.576 188.75 537.84 188.446 538.144C188.142 538.432 187.878 538.824 187.654 539.32ZM197.151 531.232V539.488C197.551 538.656 198.087 538.08 198.759 537.76C199.447 537.424 200.215 537.256 201.063 537.256C201.751 537.256 202.303 537.344 202.719 537.52C203.135 537.68 203.463 537.904 203.703 538.192C203.975 538.496 204.167 538.888 204.279 539.368C204.407 539.848 204.471 540.496 204.471 541.312V547.768C204.471 548.44 204.583 548.896 204.807 549.136C205.047 549.376 205.447 549.496 206.007 549.496V550C205.703 549.984 205.239 549.968 204.615 549.952C204.007 549.92 203.415 549.904 202.839 549.904C202.215 549.904 201.607 549.92 201.015 549.952C200.439 549.968 200.007 549.984 199.719 550V549.496C200.199 549.496 200.535 549.376 200.727 549.136C200.919 548.896 201.015 548.44 201.015 547.768V540.304C201.015 539.904 200.975 539.56 200.895 539.272C200.815 538.968 200.663 538.736 200.439 538.576C200.231 538.4 199.927 538.312 199.527 538.312C199.095 538.312 198.695 538.432 198.327 538.672C197.975 538.896 197.687 539.216 197.463 539.632C197.255 540.048 197.151 540.528 197.151 541.072V547.768C197.151 548.44 197.247 548.896 197.439 549.136C197.631 549.376 197.967 549.496 198.447 549.496V550C198.159 549.984 197.735 549.968 197.175 549.952C196.615 549.92 196.047 549.904 195.471 549.904C194.847 549.904 194.215 549.92 193.575 549.952C192.951 549.968 192.479 549.984 192.159 550V549.496C192.719 549.496 193.111 549.376 193.335 549.136C193.575 548.896 193.695 548.44 193.695 547.768V534.112C193.695 533.392 193.583 532.864 193.359 532.528C193.151 532.176 192.751 532 192.159 532V531.496C192.671 531.544 193.167 531.568 193.647 531.568C194.303 531.568 194.927 531.544 195.519 531.496C196.111 531.432 196.655 531.344 197.151 531.232ZM211.777 531.208V547.768C211.777 548.44 211.889 548.896 212.113 549.136C212.353 549.376 212.753 549.496 213.313 549.496V550C213.009 549.984 212.553 549.968 211.945 549.952C211.337 549.92 210.721 549.904 210.097 549.904C209.473 549.904 208.841 549.92 208.201 549.952C207.577 549.968 207.105 549.984 206.785 550V549.496C207.345 549.496 207.737 549.376 207.961 549.136C208.201 548.896 208.321 548.44 208.321 547.768V534.088C208.321 533.368 208.209 532.84 207.985 532.504C207.777 532.152 207.377 531.976 206.785 531.976V531.472C207.297 531.52 207.793 531.544 208.273 531.544C208.929 531.544 209.553 531.52 210.145 531.472C210.737 531.408 211.281 531.32 211.777 531.208ZM226.07 537.592V538.072C225.766 538.152 225.478 538.344 225.206 538.648C224.934 538.936 224.67 539.432 224.414 540.136L221.03 549.64L220.142 551.32L214.91 539.44C214.638 538.816 214.366 538.44 214.094 538.312C213.838 538.168 213.614 538.096 213.422 538.096V537.592C213.95 537.64 214.494 537.68 215.054 537.712C215.63 537.728 216.182 537.736 216.71 537.736C217.366 537.736 217.966 537.72 218.51 537.688C219.054 537.656 219.566 537.624 220.046 537.592V538.096C219.726 538.096 219.422 538.12 219.134 538.168C218.862 538.2 218.67 538.312 218.558 538.504C218.462 538.68 218.51 538.992 218.702 539.44L221.726 546.736L221.51 546.88L223.286 541.912C223.59 541.048 223.718 540.344 223.67 539.8C223.622 539.24 223.446 538.824 223.142 538.552C222.838 538.264 222.422 538.104 221.894 538.072V537.592C222.15 537.608 222.414 537.624 222.686 537.64C222.958 537.64 223.23 537.648 223.502 537.664C223.774 537.664 224.014 537.664 224.222 537.664C224.542 537.664 224.878 537.656 225.23 537.64C225.582 537.624 225.862 537.608 226.07 537.592ZM221.03 549.64L220.118 552.208C219.958 552.608 219.79 552.944 219.614 553.216C219.454 553.504 219.27 553.736 219.062 553.912C218.838 554.104 218.55 554.248 218.198 554.344C217.846 554.456 217.438 554.512 216.974 554.512C216.59 554.512 216.19 554.448 215.774 554.32C215.374 554.192 215.038 553.984 214.766 553.696C214.494 553.408 214.358 553.04 214.358 552.592C214.358 552.096 214.534 551.696 214.886 551.392C215.238 551.104 215.702 550.96 216.278 550.96C216.806 550.96 217.238 551.088 217.574 551.344C217.91 551.6 218.078 551.976 218.078 552.472C218.078 552.792 217.974 553.096 217.766 553.384C217.574 553.672 217.278 553.888 216.878 554.032C216.958 554.048 217.054 554.056 217.166 554.056C217.278 554.056 217.366 554.056 217.43 554.056C217.91 554.056 218.334 553.904 218.702 553.6C219.07 553.296 219.374 552.816 219.614 552.16L220.454 549.688L221.03 549.64ZM236.453 537.256C237.125 537.256 237.709 537.344 238.205 537.52C238.717 537.68 239.085 537.84 239.309 538C239.853 538.368 240.189 538.128 240.317 537.28H240.821C240.789 537.728 240.765 538.28 240.749 538.936C240.733 539.576 240.725 540.432 240.725 541.504H240.221C240.141 540.912 239.989 540.328 239.765 539.752C239.541 539.176 239.213 538.704 238.781 538.336C238.365 537.968 237.821 537.784 237.149 537.784C236.685 537.784 236.293 537.92 235.973 538.192C235.653 538.448 235.493 538.824 235.493 539.32C235.493 539.8 235.637 540.224 235.925 540.592C236.213 540.944 236.581 541.288 237.029 541.624C237.493 541.944 237.973 542.288 238.469 542.656C238.997 543.056 239.477 543.456 239.909 543.856C240.341 544.24 240.685 544.664 240.941 545.128C241.197 545.592 241.325 546.144 241.325 546.784C241.325 547.504 241.117 548.136 240.701 548.68C240.285 549.208 239.733 549.616 239.045 549.904C238.373 550.192 237.621 550.336 236.789 550.336C236.309 550.336 235.877 550.288 235.493 550.192C235.125 550.096 234.805 549.976 234.533 549.832C234.325 549.736 234.125 549.648 233.933 549.568C233.757 549.472 233.589 549.392 233.429 549.328C233.269 549.28 233.125 549.336 232.997 549.496C232.885 549.656 232.797 549.88 232.733 550.168H232.229C232.261 549.656 232.285 549.032 232.301 548.296C232.317 547.56 232.325 546.584 232.325 545.368H232.829C232.925 546.232 233.101 547 233.357 547.672C233.613 548.328 233.957 548.848 234.389 549.232C234.837 549.6 235.397 549.784 236.069 549.784C236.341 549.784 236.605 549.728 236.861 549.616C237.117 549.504 237.325 549.32 237.485 549.064C237.661 548.808 237.749 548.48 237.749 548.08C237.749 547.376 237.517 546.792 237.053 546.328C236.605 545.864 236.029 545.36 235.325 544.816C234.813 544.4 234.325 543.992 233.861 543.592C233.413 543.176 233.045 542.728 232.757 542.248C232.469 541.752 232.325 541.192 232.325 540.568C232.325 539.848 232.517 539.24 232.901 538.744C233.285 538.248 233.789 537.88 234.413 537.64C235.053 537.384 235.733 537.256 236.453 537.256ZM248.979 537.256C250.387 537.256 251.491 537.672 252.291 538.504C253.091 539.336 253.491 540.696 253.491 542.584H245.595L245.547 542.128H250.467C250.483 541.344 250.435 540.624 250.323 539.968C250.211 539.296 250.035 538.76 249.795 538.36C249.555 537.96 249.235 537.76 248.835 537.76C248.275 537.76 247.795 538.112 247.395 538.816C247.011 539.52 246.779 540.688 246.699 542.32L246.771 542.464C246.755 542.656 246.739 542.856 246.723 543.064C246.723 543.272 246.723 543.488 246.723 543.712C246.723 544.816 246.875 545.712 247.179 546.4C247.499 547.088 247.899 547.592 248.379 547.912C248.859 548.216 249.347 548.368 249.843 548.368C250.179 548.368 250.523 548.32 250.875 548.224C251.243 548.112 251.611 547.92 251.979 547.648C252.347 547.36 252.691 546.96 253.011 546.448L253.443 546.592C253.251 547.2 252.947 547.792 252.531 548.368C252.115 548.944 251.587 549.416 250.947 549.784C250.307 550.152 249.539 550.336 248.643 550.336C247.555 550.336 246.595 550.104 245.763 549.64C244.931 549.176 244.275 548.472 243.795 547.528C243.331 546.584 243.099 545.384 243.099 543.928C243.099 542.44 243.347 541.2 243.843 540.208C244.355 539.216 245.051 538.48 245.931 538C246.827 537.504 247.843 537.256 248.979 537.256ZM261.121 537.256C261.745 537.256 262.313 537.328 262.825 537.472C263.353 537.6 263.785 537.768 264.121 537.976C264.537 538.232 264.857 538.552 265.081 538.936C265.321 539.304 265.441 539.736 265.441 540.232C265.441 540.792 265.265 541.256 264.913 541.624C264.561 541.976 264.105 542.152 263.545 542.152C262.985 542.152 262.537 541.992 262.201 541.672C261.865 541.352 261.697 540.92 261.697 540.376C261.697 539.864 261.857 539.44 262.177 539.104C262.497 538.752 262.865 538.52 263.281 538.408C263.153 538.248 262.961 538.112 262.705 538C262.449 537.888 262.161 537.832 261.841 537.832C261.345 537.832 260.905 537.976 260.521 538.264C260.153 538.552 259.841 538.952 259.585 539.464C259.329 539.976 259.129 540.576 258.985 541.264C258.857 541.952 258.793 542.704 258.793 543.52C258.793 544.752 258.945 545.72 259.249 546.424C259.569 547.128 259.969 547.624 260.449 547.912C260.945 548.2 261.457 548.344 261.985 548.344C262.289 548.344 262.617 548.296 262.969 548.2C263.337 548.104 263.705 547.912 264.073 547.624C264.457 547.336 264.809 546.928 265.129 546.4L265.537 546.544C265.361 547.136 265.073 547.728 264.673 548.32C264.273 548.912 263.753 549.4 263.113 549.784C262.473 550.152 261.689 550.336 260.761 550.336C259.721 550.336 258.777 550.112 257.929 549.664C257.097 549.2 256.425 548.496 255.913 547.552C255.417 546.592 255.169 545.36 255.169 543.856C255.169 542.416 255.425 541.208 255.937 540.232C256.465 539.24 257.177 538.496 258.073 538C258.969 537.504 259.985 537.256 261.121 537.256ZM278.739 537.328V547.384C278.739 548.104 278.851 548.64 279.075 548.992C279.299 549.328 279.699 549.496 280.275 549.496V550C279.779 549.952 279.283 549.928 278.787 549.928C278.115 549.928 277.491 549.952 276.915 550C276.339 550.048 275.795 550.136 275.283 550.264V548.104C274.899 548.904 274.363 549.48 273.675 549.832C273.003 550.168 272.251 550.336 271.419 550.336C270.747 550.336 270.203 550.248 269.787 550.072C269.371 549.896 269.043 549.672 268.803 549.4C268.531 549.096 268.339 548.696 268.227 548.2C268.115 547.704 268.059 547.064 268.059 546.28V540.208C268.059 539.488 267.947 538.96 267.723 538.624C267.515 538.272 267.115 538.096 266.523 538.096V537.592C267.035 537.64 267.531 537.664 268.011 537.664C268.683 537.664 269.307 537.64 269.883 537.592C270.475 537.528 271.019 537.44 271.515 537.328V547.264C271.515 547.664 271.547 548.016 271.611 548.32C271.691 548.624 271.835 548.864 272.043 549.04C272.251 549.2 272.555 549.28 272.955 549.28C273.387 549.28 273.771 549.16 274.107 548.92C274.459 548.68 274.739 548.352 274.947 547.936C275.171 547.504 275.283 547.024 275.283 546.496V540.208C275.283 539.488 275.171 538.96 274.947 538.624C274.739 538.272 274.339 538.096 273.747 538.096V537.592C274.259 537.64 274.755 537.664 275.235 537.664C275.907 537.664 276.531 537.64 277.107 537.592C277.699 537.528 278.243 537.44 278.739 537.328ZM289.598 537.256C290.11 537.256 290.526 537.368 290.846 537.592C291.166 537.8 291.398 538.072 291.542 538.408C291.702 538.744 291.782 539.096 291.782 539.464C291.782 540.056 291.606 540.544 291.254 540.928C290.918 541.296 290.47 541.48 289.91 541.48C289.35 541.48 288.91 541.344 288.59 541.072C288.286 540.784 288.134 540.408 288.134 539.944C288.134 539.496 288.23 539.128 288.422 538.84C288.63 538.536 288.886 538.28 289.19 538.072C288.966 538.008 288.742 538.016 288.518 538.096C288.214 538.144 287.926 538.272 287.654 538.48C287.382 538.672 287.15 538.92 286.958 539.224C286.766 539.512 286.614 539.832 286.502 540.184C286.39 540.52 286.334 540.848 286.334 541.168V547.528C286.334 548.296 286.518 548.816 286.886 549.088C287.27 549.36 287.838 549.496 288.59 549.496V550C288.222 549.984 287.686 549.968 286.982 549.952C286.278 549.92 285.542 549.904 284.774 549.904C284.134 549.904 283.486 549.92 282.83 549.952C282.174 549.968 281.678 549.984 281.342 550V549.496C281.902 549.496 282.294 549.376 282.518 549.136C282.758 548.896 282.878 548.44 282.878 547.768V540.208C282.878 539.488 282.766 538.96 282.542 538.624C282.334 538.272 281.934 538.096 281.342 538.096V537.592C281.854 537.64 282.35 537.664 282.83 537.664C283.502 537.664 284.126 537.64 284.702 537.592C285.294 537.528 285.838 537.44 286.334 537.328V539.56C286.526 539.128 286.782 538.736 287.102 538.384C287.422 538.032 287.79 537.76 288.206 537.568C288.622 537.36 289.086 537.256 289.598 537.256ZM298.409 537.256C299.817 537.256 300.921 537.672 301.721 538.504C302.521 539.336 302.921 540.696 302.921 542.584H295.025L294.977 542.128H299.897C299.913 541.344 299.865 540.624 299.753 539.968C299.641 539.296 299.465 538.76 299.225 538.36C298.985 537.96 298.665 537.76 298.265 537.76C297.705 537.76 297.225 538.112 296.825 538.816C296.441 539.52 296.209 540.688 296.129 542.32L296.201 542.464C296.185 542.656 296.169 542.856 296.153 543.064C296.153 543.272 296.153 543.488 296.153 543.712C296.153 544.816 296.305 545.712 296.609 546.4C296.929 547.088 297.329 547.592 297.809 547.912C298.289 548.216 298.777 548.368 299.273 548.368C299.609 548.368 299.953 548.32 300.305 548.224C300.673 548.112 301.041 547.92 301.409 547.648C301.777 547.36 302.121 546.96 302.441 546.448L302.873 546.592C302.681 547.2 302.377 547.792 301.961 548.368C301.545 548.944 301.017 549.416 300.377 549.784C299.737 550.152 298.969 550.336 298.073 550.336C296.985 550.336 296.025 550.104 295.193 549.64C294.361 549.176 293.705 548.472 293.225 547.528C292.761 546.584 292.529 545.384 292.529 543.928C292.529 542.44 292.777 541.2 293.273 540.208C293.785 539.216 294.481 538.48 295.361 538C296.257 537.504 297.273 537.256 298.409 537.256Z" fill="white"/>
<circle cx="229" cy="290" r="126" fill="white" stroke="#009900" stroke-width="6"/>
<g opacity="0.5">
<path d="M222.451 400.73L222.262 404.926L223.341 404.975L223.53 400.779L222.451 400.73Z" fill="#909090"/>
<path d="M213.169 399.674L212.574 403.832L213.644 403.985L214.239 399.828L213.169 399.674Z" fill="#909090"/>
<path d="M202.997 397.573L201.996 401.653L203.045 401.91L204.046 397.831L202.997 397.573Z" fill="#909090"/>
<path d="M192.617 394.377L191.219 398.337L192.237 398.697L193.636 394.736L192.617 394.377Z" fill="#909090"/>
<path d="M185.623 384.557L181.145 394.114L182.123 394.572L186.601 385.015L185.623 384.557Z" fill="#909090"/>
<path d="M173.44 385.214L171.293 388.824L172.221 389.376L174.368 385.766L173.44 385.214Z" fill="#909090"/>
<path d="M164.493 379.233L162.004 382.615L162.874 383.256L165.363 379.873L164.493 379.233Z" fill="#909090"/>
<path d="M156.171 372.404L153.363 375.528L154.167 376.25L156.974 373.126L156.171 372.404Z" fill="#909090"/>
<path d="M148.571 364.783L145.473 367.619L146.202 368.416L149.3 365.579L148.571 364.783Z" fill="#909090"/>
<path d="M146.801 352.642L138.359 358.977L139.008 359.841L147.449 353.506L146.801 352.642Z" fill="#909090"/>
<path d="M135.726 347.508L132.137 349.689L132.698 350.612L136.287 348.431L135.726 347.508Z" fill="#909090"/>
<path d="M130.654 338.023L126.867 339.841L127.335 340.815L131.121 338.997L130.654 338.023Z" fill="#909090"/>
<path d="M126.525 328.069L122.578 329.505L122.948 330.52L126.894 329.084L126.525 328.069Z" fill="#909090"/>
<path d="M123.394 317.768L119.324 318.808L119.592 319.855L123.661 318.815L123.394 317.768Z" fill="#909090"/>
<path d="M127.577 306.238L117.145 307.832L117.308 308.9L127.741 307.305L127.577 306.238Z" fill="#909090"/>
<path d="M120.248 296.474L116.055 296.701L116.113 297.779L120.307 297.552L120.248 296.474Z" fill="#909090"/>
<path d="M116.046 285.534L116 286.614L120.196 286.792L120.242 285.713L116.046 285.534Z" fill="#909090"/>
<path d="M117.112 274.407L116.961 275.477L121.12 276.063L121.271 274.993L117.112 274.407Z" fill="#909090"/>
<path d="M119.271 263.436L119.016 264.485L123.097 265.477L123.352 264.428L119.271 263.436Z" fill="#909090"/>
<path d="M122.502 252.728L122.145 253.747L132.105 257.239L132.462 256.22L122.502 252.728Z" fill="#909090"/>
<path d="M126.761 242.394L126.305 243.374L130.112 245.147L130.568 244.168L126.761 242.394Z" fill="#909090"/>
<path d="M132.019 232.523L131.469 233.452L135.083 235.591L135.633 234.661L132.019 232.523Z" fill="#909090"/>
<path d="M138.224 223.224L137.586 224.095L140.974 226.577L141.612 225.706L138.224 223.224Z" fill="#909090"/>
<path d="M145.298 214.572L144.578 215.377L147.708 218.177L148.429 217.372L145.298 214.572Z" fill="#909090"/>
<path d="M153.186 206.652L152.391 207.383L159.535 215.151L160.33 214.42L153.186 206.652Z" fill="#909090"/>
<path d="M161.808 199.536L160.945 200.187L163.474 203.54L164.336 202.89L161.808 199.536Z" fill="#909090"/>
<path d="M171.078 193.29L170.156 193.853L172.345 197.437L173.267 196.874L171.078 193.29Z" fill="#909090"/>
<path d="M180.926 187.979L179.953 188.448L181.78 192.231L182.752 191.761L180.926 187.979Z" fill="#909090"/>
<path d="M191.237 183.671L190.223 184.043L191.668 187.986L192.682 187.615L191.237 183.671Z" fill="#909090"/>
<path d="M201.937 180.392L200.891 180.662L203.527 190.882L204.573 190.612L201.937 180.392Z" fill="#909090"/>
<path d="M212.903 178.193L211.836 178.358L212.48 182.509L213.547 182.343L212.903 178.193Z" fill="#909090"/>
<path d="M224.02 177.075L222.941 177.135L223.177 181.329L224.256 181.268L224.02 177.075Z" fill="#909090"/>
<path d="M234.115 176.998L233.945 181.195L235.025 181.238L235.194 177.042L234.115 176.998Z" fill="#909090"/>
<path d="M245.249 177.943L244.672 182.103L245.742 182.251L246.318 178.091L245.249 177.943Z" fill="#909090"/>
<path d="M256.247 179.964L253.777 190.225L254.828 190.478L257.297 180.217L256.247 179.964Z" fill="#909090"/>
<path d="M266.998 183.064L265.617 187.03L266.637 187.385L268.018 183.419L266.998 183.064Z" fill="#909090"/>
<path d="M277.382 187.214L275.617 191.025L276.597 191.479L278.362 187.668L277.382 187.214Z" fill="#909090"/>
<path d="M287.303 192.36L285.172 195.979L286.103 196.527L288.233 192.908L287.303 192.36Z" fill="#909090"/>
<path d="M296.681 198.451L294.207 201.845L295.08 202.481L297.554 199.087L296.681 198.451Z" fill="#909090"/>
<path d="M305.413 205.426L298.395 213.308L299.201 214.027L306.22 206.145L305.413 205.426Z" fill="#909090"/>
<path d="M313.429 213.211L310.344 216.062L311.077 216.855L314.162 214.005L313.429 213.211Z" fill="#909090"/>
<path d="M320.645 221.756L317.297 224.292L317.949 225.154L321.297 222.617L320.645 221.756Z" fill="#909090"/>
<path d="M327.002 230.945L323.422 233.142L323.987 234.063L327.567 231.865L327.002 230.945Z" fill="#909090"/>
<path d="M332.426 240.728L328.648 242.563L329.12 243.535L332.898 241.7L332.426 240.728Z" fill="#909090"/>
<path d="M336.846 251.001L326.945 254.655L327.319 255.669L337.22 252.015L336.846 251.001Z" fill="#909090"/>
<path d="M340.252 261.639L336.188 262.697L336.46 263.743L340.524 262.684L340.252 261.639Z" fill="#909090"/>
<path d="M342.579 272.584L338.43 273.237L338.598 274.304L342.747 273.651L342.579 272.584Z" fill="#909090"/>
<path d="M343.837 283.699L339.645 283.944L339.708 285.022L343.901 284.777L343.837 283.699Z" fill="#909090"/>
<path d="M339.799 294.707L339.758 295.786L343.955 295.946L343.996 294.867L339.799 294.707Z" fill="#909090"/>
<path d="M332.622 304.596L332.477 305.667L342.934 307.093L343.08 306.022L332.622 304.596Z" fill="#909090"/>
<path d="M337 316.025L336.75 317.076L340.836 318.049L341.086 316.999L337 316.025Z" fill="#909090"/>
<path d="M334.04 326.409L333.688 327.43L337.657 328.802L338.01 327.782L334.04 326.409Z" fill="#909090"/>
<path d="M330.061 336.412L329.609 337.394L333.424 339.15L333.876 338.169L330.061 336.412Z" fill="#909090"/>
<path d="M325.147 345.989L324.602 346.921L328.226 349.044L328.772 348.112L325.147 345.989Z" fill="#909090"/>
<path d="M314.154 351.286L313.52 352.161L322.062 358.359L322.697 357.485L314.154 351.286Z" fill="#909090"/>
<path d="M312.599 363.453L311.883 364.262L315.026 367.048L315.742 366.24L312.599 363.453Z" fill="#909090"/>
<path d="M305.1 371.182L304.309 371.916L307.165 374.995L307.957 374.26L305.1 371.182Z" fill="#909090"/>
<path d="M296.899 378.159L296.039 378.813L298.583 382.156L299.442 381.501L296.899 378.159Z" fill="#909090"/>
<path d="M288.033 384.301L287.113 384.868L289.318 388.443L290.237 387.876L288.033 384.301Z" fill="#909090"/>
<path d="M275.838 383.838L274.867 384.312L279.499 393.795L280.47 393.321L275.838 383.838Z" fill="#909090"/>
<path d="M268.954 393.846L267.941 394.222L269.404 398.159L270.417 397.783L268.954 393.846Z" fill="#909090"/>
<path d="M258.717 397.137L257.672 397.411L258.74 401.474L259.784 401.199L258.717 397.137Z" fill="#909090"/>
<path d="M248.809 399.414L247.742 399.584L248.405 403.732L249.471 403.561L248.809 399.414Z" fill="#909090"/>
<path d="M239.262 400.64L238.184 400.705L238.438 404.898L239.516 404.832L239.262 400.64Z" fill="#909090"/>
<path d="M230.928 394.521L229.848 394.524L229.877 405.269L230.957 405.266L230.928 394.521Z" fill="#909090"/>
<path d="M229.105 378.087L229.094 386.1L230.174 386.101L230.185 378.089L229.105 378.087Z" fill="#909090"/>
<path d="M223.808 381.691L223.543 385.883L224.26 385.928L224.524 381.736L223.808 381.691Z" fill="#909090"/>
<path d="M219.08 381.246L218.598 385.419L219.311 385.501L219.794 381.329L219.08 381.246Z" fill="#909090"/>
<path d="M214.376 380.551L213.676 384.693L214.384 384.812L215.084 380.671L214.376 380.551Z" fill="#909090"/>
<path d="M209.709 379.616L208.793 383.715L209.494 383.872L210.41 379.773L209.709 379.616Z" fill="#909090"/>
<path d="M205.974 374.733L203.816 382.45L204.857 382.741L207.015 375.024L205.974 374.733Z" fill="#909090"/>
<path d="M200.573 377.039L199.23 381.019L199.911 381.248L201.254 377.269L200.573 377.039Z" fill="#909090"/>
<path d="M196.124 375.369L194.574 379.272L195.242 379.537L196.792 375.634L196.124 375.369Z" fill="#909090"/>
<path d="M191.757 373.5L190.004 377.316L190.656 377.616L192.409 373.799L191.757 373.5Z" fill="#909090"/>
<path d="M187.502 371.386L185.551 375.105L186.187 375.439L188.138 371.72L187.502 371.386Z" fill="#909090"/>
<path d="M185.151 365.671L181.062 372.562L181.991 373.113L186.08 366.222L185.151 365.671Z" fill="#909090"/>
<path d="M179.356 366.502L177.027 369.998L177.625 370.396L179.954 366.901L179.356 366.502Z" fill="#909090"/>
<path d="M175.477 363.757L172.969 367.126L173.545 367.555L176.053 364.186L175.477 363.757Z" fill="#909090"/>
<path d="M171.75 360.793L169.07 364.027L169.623 364.485L172.303 361.251L171.75 360.793Z" fill="#909090"/>
<path d="M168.176 357.648L165.332 360.738L165.86 361.224L168.704 358.134L168.176 357.648Z" fill="#909090"/>
<path d="M167.381 351.54L161.656 357.146L162.412 357.917L168.137 352.312L167.381 351.54Z" fill="#909090"/>
<path d="M161.563 350.832L158.414 353.611L158.889 354.149L162.038 351.37L161.563 350.832Z" fill="#909090"/>
<path d="M158.524 347.184L155.234 349.795L155.681 350.357L158.97 347.746L158.524 347.184Z" fill="#909090"/>
<path d="M155.695 343.388L152.273 345.824L152.69 346.409L156.111 343.973L155.695 343.388Z" fill="#909090"/>
<path d="M153.044 339.429L149.5 341.684L149.885 342.289L153.429 340.035L153.044 339.429Z" fill="#909090"/>
<path d="M153.859 333.309L146.883 337.252L147.414 338.192L154.39 334.25L153.859 333.309Z" fill="#909090"/>
<path d="M148.416 331.137L144.656 333.009L144.976 333.652L148.736 331.78L148.416 331.137Z" fill="#909090"/>
<path d="M146.42 326.824L142.566 328.495L142.852 329.154L146.705 327.483L146.42 326.824Z" fill="#909090"/>
<path d="M144.666 322.398L140.73 323.865L140.981 324.538L144.917 323.071L144.666 322.398Z" fill="#909090"/>
<path d="M143.136 317.904L139.129 319.161L139.344 319.847L143.351 318.589L143.136 317.904Z" fill="#909090"/>
<path d="M145.499 312.213L137.738 314.207L138.007 315.253L145.768 313.26L145.499 312.213Z" fill="#909090"/>
<path d="M140.813 308.693L136.695 309.523L136.837 310.227L140.954 309.397L140.813 308.693Z" fill="#909090"/>
<path d="M140.015 304.007L135.859 304.62L135.964 305.33L140.119 304.718L140.015 304.007Z" fill="#909090"/>
<path d="M139.463 299.29L135.281 299.685L135.349 300.4L139.53 300.005L139.463 299.29Z" fill="#909090"/>
<path d="M139.157 294.546L134.961 294.723L134.991 295.44L139.188 295.263L139.157 294.546Z" fill="#909090"/>
<path d="M134.904 289.576L134.895 290.656L142.907 290.729L142.917 289.649L134.904 289.576Z" fill="#909090"/>
<path d="M135.094 284.794L135.051 285.511L139.243 285.765L139.287 285.049L135.094 284.794Z" fill="#909090"/>
<path d="M135.542 279.846L135.461 280.56L139.635 281.032L139.715 280.318L135.542 279.846Z" fill="#909090"/>
<path d="M136.243 274.925L136.125 275.633L140.268 276.323L140.386 275.615L136.243 274.925Z" fill="#909090"/>
<path d="M137.213 270.043L137.059 270.744L141.16 271.65L141.315 270.949L137.213 270.043Z" fill="#909090"/>
<path d="M138.468 265.043L138.18 266.084L145.901 268.222L146.19 267.181L138.468 265.043Z" fill="#909090"/>
<path d="M139.896 260.469L139.668 261.15L143.651 262.483L143.879 261.802L139.896 260.469Z" fill="#909090"/>
<path d="M141.611 255.8L141.348 256.468L145.255 258.008L145.518 257.34L141.611 255.8Z" fill="#909090"/>
<path d="M143.579 251.234L143.281 251.888L147.103 253.631L147.401 252.978L143.579 251.234Z" fill="#909090"/>
<path d="M145.777 246.782L145.445 247.418L149.17 249.36L149.501 248.723L145.777 246.782Z" fill="#909090"/>
<path d="M148.303 242.283L147.754 243.213L154.655 247.285L155.204 246.354L148.303 242.283Z" fill="#909090"/>
<path d="M150.861 238.233L150.465 238.832L153.966 241.152L154.363 240.554L150.861 238.233Z" fill="#909090"/>
<path d="M153.732 234.169L153.305 234.746L156.68 237.246L157.108 236.669L153.732 234.169Z" fill="#909090"/>
<path d="M156.797 230.268L156.34 230.823L159.581 233.494L160.037 232.94L156.797 230.268Z" fill="#909090"/>
<path d="M160.071 226.531L159.586 227.06L162.684 229.896L163.168 229.367L160.071 226.531Z" fill="#909090"/>
<path d="M163.668 222.837L162.898 223.595L168.518 229.306L169.288 228.548L163.668 222.837Z" fill="#909090"/>
<path d="M167.19 219.584L166.652 220.06L169.439 223.203L169.976 222.726L167.19 219.584Z" fill="#909090"/>
<path d="M171.007 216.402L170.445 216.85L173.065 220.133L173.626 219.685L171.007 216.402Z" fill="#909090"/>
<path d="M174.978 213.414L174.395 213.833L176.84 217.248L177.424 216.83L174.978 213.414Z" fill="#909090"/>
<path d="M179.105 210.637L178.5 211.024L180.764 214.562L181.369 214.175L179.105 210.637Z" fill="#909090"/>
<path d="M183.533 207.998L182.594 208.532L186.554 215.498L187.493 214.964L183.533 207.998Z" fill="#909090"/>
<path d="M187.767 205.762L187.125 206.084L189.007 209.839L189.649 209.518L187.767 205.762Z" fill="#909090"/>
<path d="M192.275 203.672L191.617 203.96L193.299 207.809L193.957 207.521L192.275 203.672Z" fill="#909090"/>
<path d="M196.887 201.822L196.215 202.075L197.692 206.006L198.364 205.754L196.887 201.822Z" fill="#909090"/>
<path d="M201.599 200.212L200.914 200.429L202.182 204.434L202.866 204.217L201.599 200.212Z" fill="#909090"/>
<path d="M206.553 198.808L205.508 199.079L207.521 206.834L208.566 206.563L206.553 198.808Z" fill="#909090"/>
<path d="M211.227 197.747L210.523 197.89L211.363 202.006L212.067 201.862L211.227 197.747Z" fill="#909090"/>
<path d="M216.128 196.894L215.418 197L216.041 201.154L216.751 201.047L216.128 196.894Z" fill="#909090"/>
<path d="M221.062 196.31L220.348 196.379L220.753 200.56L221.467 200.49L221.062 196.31Z" fill="#909090"/>
<path d="M226.026 195.979L225.309 196.011L225.497 200.207L226.214 200.175L226.026 195.979Z" fill="#909090"/>
<path d="M230.092 195.895L230.039 203.907L231.119 203.914L231.173 195.902L230.092 195.895Z" fill="#909090"/>
<path d="M235.24 196.039L234.996 200.232L235.713 200.274L235.957 196.081L235.24 196.039Z" fill="#909090"/>
<path d="M240.196 196.445L239.734 200.619L240.448 200.698L240.91 196.524L240.196 196.445Z" fill="#909090"/>
<path d="M245.113 197.099L244.434 201.244L245.142 201.36L245.821 197.215L245.113 197.099Z" fill="#909090"/>
<path d="M250.017 198.008L249.121 202.112L249.823 202.265L250.718 198.161L250.017 198.008Z" fill="#909090"/>
<path d="M254.677 199.139L252.559 206.867L253.6 207.152L255.719 199.425L254.677 199.139Z" fill="#909090"/>
<path d="M259.612 200.607L258.289 204.594L258.971 204.82L260.293 200.834L259.612 200.607Z" fill="#909090"/>
<path d="M264.292 202.266L262.762 206.177L263.43 206.439L264.961 202.527L264.292 202.266Z" fill="#909090"/>
<path d="M268.887 204.183L267.152 208.008L267.806 208.305L269.541 204.479L268.887 204.183Z" fill="#909090"/>
<path d="M273.37 206.336L271.438 210.065L272.075 210.395L274.007 206.666L273.37 206.336Z" fill="#909090"/>
<path d="M277.569 208.627L273.516 215.539L274.447 216.085L278.501 209.174L277.569 208.627Z" fill="#909090"/>
<path d="M281.948 211.344L279.637 214.851L280.236 215.246L282.548 211.739L281.948 211.344Z" fill="#909090"/>
<path d="M286.054 214.156L283.562 217.538L284.141 217.964L286.632 214.582L286.054 214.156Z" fill="#909090"/>
<path d="M289.988 217.195L287.324 220.442L287.879 220.898L290.543 217.65L289.988 217.195Z" fill="#909090"/>
<path d="M293.758 220.432L290.93 223.536L291.46 224.02L294.289 220.915L293.758 220.432Z" fill="#909090"/>
<path d="M297.232 223.749L291.535 229.384L292.295 230.152L297.992 224.517L297.232 223.749Z" fill="#909090"/>
<path d="M300.76 227.482L297.625 230.276L298.103 230.812L301.238 228.018L300.76 227.482Z" fill="#909090"/>
<path d="M303.987 231.263L300.711 233.89L301.16 234.45L304.437 231.823L303.987 231.263Z" fill="#909090"/>
<path d="M307.01 235.195L303.602 237.649L304.021 238.232L307.43 235.778L307.01 235.195Z" fill="#909090"/>
<path d="M309.837 239.298L306.305 241.57L306.693 242.174L310.225 239.901L309.837 239.298Z" fill="#909090"/>
<path d="M312.342 243.377L305.387 247.354L305.923 248.292L312.879 244.315L312.342 243.377Z" fill="#909090"/>
<path d="M314.789 247.906L311.039 249.796L311.362 250.438L315.113 248.547L314.789 247.906Z" fill="#909090"/>
<path d="M316.926 252.401L313.082 254.093L313.371 254.75L317.216 253.059L316.926 252.401Z" fill="#909090"/>
<path d="M318.834 256.99L314.906 258.477L315.16 259.149L319.088 257.662L318.834 256.99Z" fill="#909090"/>
<path d="M320.493 261.679L316.492 262.957L316.711 263.641L320.712 262.363L320.493 261.679Z" fill="#909090"/>
<path d="M321.852 266.284L314.102 268.317L314.376 269.362L322.126 267.329L321.852 266.284Z" fill="#909090"/>
<path d="M323.051 271.307L318.938 272.157L319.083 272.86L323.196 272.01L323.051 271.307Z" fill="#909090"/>
<path d="M323.961 276.184L319.809 276.817L319.917 277.527L324.069 276.893L323.961 276.184Z" fill="#909090"/>
<path d="M324.59 281.124L320.41 281.54L320.481 282.254L324.661 281.838L324.59 281.124Z" fill="#909090"/>
<path d="M324.973 286.08L320.777 286.278L320.811 286.996L325.007 286.797L324.973 286.08Z" fill="#909090"/>
<path d="M317.083 290.825L317.078 291.905L325.091 291.938L325.095 290.858L317.083 290.825Z" fill="#909090"/>
<path d="M320.774 295.768L320.734 296.485L324.928 296.718L324.968 296.001L320.774 295.768Z" fill="#909090"/>
<path d="M320.397 300.521L320.32 301.235L324.496 301.686L324.573 300.972L320.397 300.521Z" fill="#909090"/>
<path d="M319.778 305.239L319.664 305.948L323.81 306.616L323.925 305.907L319.778 305.239Z" fill="#909090"/>
<path d="M318.917 309.903L318.766 310.605L322.871 311.491L323.023 310.789L318.917 309.903Z" fill="#909090"/>
<path d="M314.197 313.35L313.914 314.393L321.647 316.492L321.93 315.449L314.197 313.35Z" fill="#909090"/>
<path d="M316.463 319.086L316.238 319.768L320.228 321.08L320.452 320.398L316.463 319.086Z" fill="#909090"/>
<path d="M314.889 323.556L314.629 324.225L318.544 325.746L318.804 325.076L314.889 323.556Z" fill="#909090"/>
<path d="M313.056 327.955L312.762 328.609L316.591 330.333L316.886 329.679L313.056 327.955Z" fill="#909090"/>
<path d="M311.008 332.247L310.68 332.885L314.414 334.808L314.742 334.17L311.008 332.247Z" fill="#909090"/>
<path d="M305.548 334.323L305.004 335.256L311.926 339.292L312.47 338.358L305.548 334.323Z" fill="#909090"/>
<path d="M306.276 340.46L305.883 341.061L309.396 343.363L309.789 342.763L306.276 340.46Z" fill="#909090"/>
<path d="M303.573 344.395L303.148 344.974L306.536 347.456L306.961 346.877L303.573 344.395Z" fill="#909090"/>
<path d="M300.68 348.148L300.227 348.704L303.481 351.36L303.935 350.803L300.68 348.148Z" fill="#909090"/>
<path d="M297.599 351.759L297.117 352.291L300.229 355.111L300.711 354.579L297.599 351.759Z" fill="#909090"/>
<path d="M291.766 352.383L291 353.144L296.649 358.827L297.415 358.065L291.766 352.383Z" fill="#909090"/>
<path d="M290.886 358.498L290.352 358.977L293.154 362.105L293.689 361.626L290.886 358.498Z" fill="#909090"/>
<path d="M287.266 361.57L286.707 362.021L289.343 365.291L289.902 364.84L287.266 361.57Z" fill="#909090"/>
<path d="M283.519 364.491L282.938 364.912L285.4 368.315L285.981 367.894L283.519 364.491Z" fill="#909090"/>
<path d="M279.599 367.176L278.996 367.566L281.278 371.092L281.88 370.702L279.599 367.176Z" fill="#909090"/>
<path d="M273.827 366.28L272.891 366.819L276.886 373.765L277.822 373.226L273.827 366.28Z" fill="#909090"/>
<path d="M271.39 371.952L270.75 372.276L272.651 376.022L273.291 375.697L271.39 371.952Z" fill="#909090"/>
<path d="M267.094 374.009L266.438 374.299L268.139 378.14L268.795 377.849L267.094 374.009Z" fill="#909090"/>
<path d="M262.71 375.818L262.039 376.074L263.536 379.998L264.207 379.742L262.71 375.818Z" fill="#909090"/>
<path d="M258.238 377.419L257.555 377.64L258.843 381.637L259.526 381.417L258.238 377.419Z" fill="#909090"/>
<path d="M252.872 375.04L251.828 375.316L253.88 383.061L254.924 382.785L252.872 375.04Z" fill="#909090"/>
<path d="M249.062 379.9L248.359 380.047L249.22 384.158L249.923 384.011L249.062 379.9Z" fill="#909090"/>
<path d="M244.401 380.764L243.691 380.874L244.335 385.024L245.045 384.914L244.401 380.764Z" fill="#909090"/>
<path d="M239.667 381.39L238.953 381.463L239.379 385.641L240.093 385.568L239.667 381.39Z" fill="#909090"/>
<path d="M234.948 381.78L234.23 381.816L234.439 386.011L235.156 385.975L234.948 381.78Z" fill="#909090"/>
<path d="M229.166 350.268L229.031 367.608L229.749 367.614L229.884 350.273L229.166 350.268Z" fill="#909090"/>
<path d="M224.479 357.177L223.695 367.365L224.411 367.42L225.194 357.232L224.479 357.177Z" fill="#909090"/>
<path d="M219.86 356.636L218.371 366.744L219.081 366.849L220.57 356.741L219.86 356.636Z" fill="#909090"/>
<path d="M215.32 355.771L213.125 365.75L213.826 365.904L216.021 355.925L215.32 355.771Z" fill="#909090"/>
<path d="M210.827 354.582L207.938 364.383L208.626 364.586L211.516 354.785L210.827 354.582Z" fill="#909090"/>
<path d="M208.931 346.437L202.867 362.683L203.54 362.934L209.604 346.688L208.931 346.437Z" fill="#909090"/>
<path d="M202.158 351.311L197.922 360.609L198.575 360.906L202.811 351.608L202.158 351.311Z" fill="#909090"/>
<path d="M198.017 349.218L193.141 358.197L193.772 358.539L198.648 349.561L198.017 349.218Z" fill="#909090"/>
<path d="M194.043 346.846L188.551 355.462L189.156 355.848L194.648 347.232L194.043 346.846Z" fill="#909090"/>
<path d="M190.243 344.201L184.164 352.414L184.741 352.841L190.821 344.629L190.243 344.201Z" fill="#909090"/>
<path d="M191.249 335.87L179.988 349.058L180.534 349.524L191.795 336.337L191.249 335.87Z" fill="#909090"/>
<path d="M183.212 338.13L176.055 345.421L176.567 345.924L183.724 338.633L183.212 338.13Z" fill="#909090"/>
<path d="M180.032 334.755L172.387 341.532L172.863 342.07L180.509 335.292L180.032 334.755Z" fill="#909090"/>
<path d="M177.11 331.172L169.012 337.403L169.45 337.972L177.548 331.741L177.11 331.172Z" fill="#909090"/>
<path d="M174.434 327.383L165.922 333.035L166.319 333.633L174.831 327.981L174.434 327.383Z" fill="#909090"/>
<path d="M178.21 319.903L163.129 328.462L163.483 329.087L178.564 320.528L178.21 319.903Z" fill="#909090"/>
<path d="M169.897 319.293L160.68 323.703L160.99 324.35L170.207 319.94L169.897 319.293Z" fill="#909090"/>
<path d="M168.071 315.041L158.566 318.793L158.83 319.461L168.334 315.709L168.071 315.041Z" fill="#909090"/>
<path d="M166.541 310.663L156.797 313.737L157.013 314.422L166.757 311.348L166.541 310.663Z" fill="#909090"/>
<path d="M165.335 306.184L155.398 308.566L155.566 309.264L165.502 306.882L165.335 306.184Z" fill="#909090"/>
<path d="M171.464 300.461L154.359 303.31L154.477 304.019L171.582 301.17L171.464 300.461Z" fill="#909090"/>
<path d="M163.851 297.033L153.68 298.004L153.748 298.719L163.919 297.748L163.851 297.033Z" fill="#909090"/>
<path d="M163.593 292.403L153.379 292.669L153.398 293.387L163.612 293.121L163.593 292.403Z" fill="#909090"/>
<path d="M153.456 287.327L153.426 288.045L163.634 288.48L163.665 287.762L153.456 287.327Z" fill="#909090"/>
<path d="M153.881 282.005L153.801 282.718L163.954 283.859L164.034 283.146L153.881 282.005Z" fill="#909090"/>
<path d="M154.696 276.718L154.566 277.424L171.621 280.561L171.751 279.855L154.696 276.718Z" fill="#909090"/>
<path d="M155.874 271.489L155.695 272.184L165.59 274.733L165.769 274.038L155.874 271.489Z" fill="#909090"/>
<path d="M157.411 266.364L157.184 267.045L166.874 270.284L167.101 269.603L157.411 266.364Z" fill="#909090"/>
<path d="M159.318 261.354L159.043 262.017L168.482 265.93L168.757 265.266L159.318 261.354Z" fill="#909090"/>
<path d="M161.563 256.491L161.242 257.133L170.384 261.697L170.705 261.055L161.563 256.491Z" fill="#909090"/>
<path d="M164.134 251.804L163.77 252.423L178.703 261.235L179.068 260.617L164.134 251.804Z" fill="#909090"/>
<path d="M167.036 247.307L166.629 247.898L175.045 253.692L175.452 253.1L167.036 247.307Z" fill="#909090"/>
<path d="M170.24 243.018L169.793 243.58L177.786 249.945L178.233 249.383L170.24 243.018Z" fill="#909090"/>
<path d="M173.735 238.971L173.25 239.5L180.782 246.404L181.267 245.875L173.735 238.971Z" fill="#909090"/>
<path d="M177.493 235.173L176.973 235.667L184.007 243.077L184.528 242.583L177.493 235.173Z" fill="#909090"/>
<path d="M181.511 231.647L180.957 232.104L191.994 245.477L192.548 245.02L181.511 231.647Z" fill="#909090"/>
<path d="M185.772 228.41L185.188 228.828L191.128 237.141L191.712 236.723L185.772 228.41Z" fill="#909090"/>
<path d="M190.249 225.474L189.637 225.85L194.984 234.557L195.595 234.182L190.249 225.474Z" fill="#909090"/>
<path d="M194.91 222.861L194.273 223.193L198.998 232.252L199.635 231.92L194.91 222.861Z" fill="#909090"/>
<path d="M199.756 220.571L199.098 220.857L203.176 230.226L203.835 229.939L199.756 220.571Z" fill="#909090"/>
<path d="M204.751 218.64L204.074 218.88L209.861 235.227L210.538 234.987L204.751 218.64Z" fill="#909090"/>
<path d="M209.864 217.051L209.172 217.243L211.896 227.09L212.588 226.899L209.864 217.051Z" fill="#909090"/>
<path d="M215.079 215.828L214.375 215.97L216.4 225.985L217.104 225.843L215.079 215.828Z" fill="#909090"/>
<path d="M220.36 214.98L219.648 215.072L220.968 225.204L221.68 225.111L220.36 214.98Z" fill="#909090"/>
<path d="M225.689 214.496L224.973 214.54L225.585 224.739L226.302 224.696L225.689 214.496Z" fill="#909090"/>
<path d="M230.312 214.375L230.16 231.716L230.878 231.722L231.031 214.382L230.312 214.375Z" fill="#909090"/>
<path d="M235.653 214.58L234.859 224.767L235.575 224.823L236.369 214.636L235.653 214.58Z" fill="#909090"/>
<path d="M240.973 215.157L239.473 225.264L240.183 225.369L241.683 215.262L240.973 215.157Z" fill="#909090"/>
<path d="M246.228 216.109L244.023 226.085L244.725 226.24L246.929 216.264L246.228 216.109Z" fill="#909090"/>
<path d="M251.428 217.418L248.527 227.215L249.216 227.419L252.117 217.622L251.428 217.418Z" fill="#909090"/>
<path d="M256.509 219.097L250.43 235.336L251.102 235.588L257.182 219.349L256.509 219.097Z" fill="#909090"/>
<path d="M261.468 221.124L257.223 230.418L257.876 230.717L262.121 221.423L261.468 221.124Z" fill="#909090"/>
<path d="M266.269 223.488L261.383 232.462L262.013 232.806L266.899 223.832L266.269 223.488Z" fill="#909090"/>
<path d="M270.897 226.189L265.395 234.799L266 235.186L271.502 226.576L270.897 226.189Z" fill="#909090"/>
<path d="M275.302 229.215L269.215 237.421L269.791 237.849L275.879 229.643L275.302 229.215Z" fill="#909090"/>
<path d="M279.504 232.519L268.23 245.696L268.776 246.163L280.049 232.986L279.504 232.519Z" fill="#909090"/>
<path d="M283.446 236.12L276.281 243.404L276.793 243.907L283.958 236.623L283.446 236.12Z" fill="#909090"/>
<path d="M287.157 239.974L279.504 246.744L279.98 247.282L287.633 240.512L287.157 239.974Z" fill="#909090"/>
<path d="M290.573 244.094L282.469 250.315L282.906 250.885L291.01 244.664L290.573 244.094Z" fill="#909090"/>
<path d="M293.702 248.437L285.184 254.079L285.58 254.678L294.098 249.036L293.702 248.437Z" fill="#909090"/>
<path d="M296.527 252.981L281.438 261.525L281.791 262.15L296.881 253.606L296.527 252.981Z" fill="#909090"/>
<path d="M299.014 257.709L289.793 262.109L290.102 262.757L299.323 258.357L299.014 257.709Z" fill="#909090"/>
<path d="M301.171 262.613L291.664 266.355L291.927 267.023L301.434 263.281L301.171 262.613Z" fill="#909090"/>
<path d="M302.994 267.647L293.246 270.711L293.461 271.396L303.209 268.332L302.994 267.647Z" fill="#909090"/>
<path d="M304.431 272.813L294.492 275.183L294.659 275.882L304.597 273.511L304.431 272.813Z" fill="#909090"/>
<path d="M305.526 278.05L288.418 280.881L288.535 281.59L305.643 278.758L305.526 278.05Z" fill="#909090"/>
<path d="M306.235 283.357L296.062 284.318L296.13 285.033L306.303 284.072L306.235 283.357Z" fill="#909090"/>
<path d="M306.582 288.695L296.367 288.95L296.385 289.668L306.6 289.412L306.582 288.695Z" fill="#909090"/>
<path d="M296.332 293.597L296.301 294.315L306.508 294.76L306.539 294.043L296.332 293.597Z" fill="#909090"/>
<path d="M295.995 298.211L295.914 298.925L306.066 300.076L306.147 299.363L295.995 298.211Z" fill="#909090"/>
<path d="M288.345 301.512L288.215 302.218L305.266 305.372L305.396 304.666L288.345 301.512Z" fill="#909090"/>
<path d="M294.371 307.345L294.191 308.04L304.083 310.6L304.263 309.905L294.371 307.345Z" fill="#909090"/>
<path d="M293.08 311.792L292.852 312.472L302.539 315.721L302.767 315.041L293.08 311.792Z" fill="#909090"/>
<path d="M291.463 316.137L291.188 316.8L300.622 320.722L300.898 320.059L291.463 316.137Z" fill="#909090"/>
<path d="M289.552 320.359L289.23 321.001L298.367 325.574L298.688 324.932L289.552 320.359Z" fill="#909090"/>
<path d="M281.233 320.819L280.867 321.437L295.792 330.265L296.158 329.647L281.233 320.819Z" fill="#909090"/>
<path d="M284.888 328.368L284.48 328.959L292.89 334.762L293.298 334.171L284.888 328.368Z" fill="#909090"/>
<path d="M282.131 332.107L281.684 332.668L289.67 339.041L290.117 338.479L282.131 332.107Z" fill="#909090"/>
<path d="M279.154 335.64L278.668 336.169L286.193 343.081L286.679 342.552L279.154 335.64Z" fill="#909090"/>
<path d="M275.908 338.955L275.387 339.449L282.414 346.866L282.936 346.372L275.908 338.955Z" fill="#909090"/>
<path d="M267.918 336.561L267.363 337.018L278.387 350.403L278.941 349.946L267.918 336.561Z" fill="#909090"/>
<path d="M268.776 344.902L268.191 345.319L274.123 353.638L274.707 353.221L268.776 344.902Z" fill="#909090"/>
<path d="M264.929 347.477L264.316 347.853L269.654 356.565L270.266 356.19L264.929 347.477Z" fill="#909090"/>
<path d="M260.899 349.78L260.262 350.112L264.977 359.176L265.614 358.844L260.899 349.78Z" fill="#909090"/>
<path d="M256.733 351.798L256.074 352.084L260.143 361.456L260.801 361.171L256.733 351.798Z" fill="#909090"/>
<path d="M250.06 346.788L249.383 347.027L255.154 363.379L255.831 363.14L250.06 346.788Z" fill="#909090"/>
<path d="M248.009 354.932L247.316 355.123L250.03 364.974L250.722 364.783L248.009 354.932Z" fill="#909090"/>
<path d="M243.513 356.034L242.809 356.176L244.823 366.193L245.527 366.051L243.513 356.034Z" fill="#909090"/>
<path d="M238.935 356.817L238.223 356.909L239.532 367.042L240.244 366.95L238.935 356.817Z" fill="#909090"/>
<path d="M234.326 357.269L233.609 357.311L234.212 367.511L234.928 367.469L234.326 357.269Z" fill="#909090"/>
</g>
<path d="M215.556 261.639C215.556 263.648 213.873 265.277 211.798 265.277C209.723 265.277 208.041 263.648 208.041 261.639C208.041 259.629 209.723 258 211.798 258C213.873 258 215.556 259.629 215.556 261.639Z" fill="black"/>
<path d="M215.129 273.464C215.129 275.246 213.638 276.69 211.798 276.69C209.959 276.69 208.468 275.246 208.468 273.464C208.468 271.683 209.959 270.239 211.798 270.239C213.638 270.239 215.129 271.683 215.129 273.464Z" fill="black"/>
<path d="M214.787 284.67C214.787 286.291 213.43 287.606 211.756 287.606C210.081 287.606 208.724 286.291 208.724 284.67C208.724 283.048 210.081 281.734 211.756 281.734C213.43 281.734 214.787 283.048 214.787 284.67Z" fill="black"/>
<path d="M214.36 295.172C214.36 296.565 213.194 297.695 211.756 297.695C210.317 297.695 209.151 296.565 209.151 295.172C209.151 293.779 210.317 292.65 211.756 292.65C213.194 292.65 214.36 293.779 214.36 295.172Z" fill="black"/>
<path d="M213.933 304.848C213.933 306.013 212.958 306.957 211.756 306.957C210.553 306.957 209.578 306.013 209.578 304.848C209.578 303.683 210.553 302.739 211.756 302.739C212.958 302.739 213.933 303.683 213.933 304.848Z" fill="black"/>
<path d="M213.506 313.697C213.506 314.633 212.722 315.392 211.756 315.392C210.789 315.392 210.005 314.633 210.005 313.697C210.005 312.76 210.789 312.001 211.756 312.001C212.722 312.001 213.506 312.76 213.506 313.697Z" fill="black"/>
<path d="M213.079 321.718C213.079 322.426 212.487 323 211.756 323C211.025 323 210.432 322.426 210.432 321.718C210.432 321.01 211.025 320.436 211.756 320.436C212.487 320.436 213.079 321.01 213.079 321.718Z" fill="black"/>
<path d="M227.597 273.464C227.597 275.246 226.105 276.69 224.266 276.69C222.427 276.69 220.936 275.246 220.936 273.464C220.936 271.683 222.427 270.239 224.266 270.239C226.105 270.239 227.597 271.683 227.597 273.464Z" fill="black"/>
<path d="M202.661 273.464C202.661 275.246 201.17 276.69 199.33 276.69C197.491 276.69 196 275.246 196 273.464C196 271.683 197.491 270.239 199.33 270.239C201.17 270.239 202.661 271.683 202.661 273.464Z" fill="black"/>
<path d="M227.255 284.67C227.255 286.291 225.898 287.606 224.223 287.606C222.549 287.606 221.192 286.291 221.192 284.67C221.192 283.048 222.549 281.734 224.223 281.734C225.898 281.734 227.255 283.048 227.255 284.67Z" fill="black"/>
<path d="M202.319 284.67C202.319 286.291 200.962 287.606 199.288 287.606C197.613 287.606 196.256 286.291 196.256 284.67C196.256 283.048 197.613 281.734 199.288 281.734C200.962 281.734 202.319 283.048 202.319 284.67Z" fill="black"/>
<path d="M226.828 295.172C226.828 296.565 225.662 297.695 224.223 297.695C222.785 297.695 221.619 296.565 221.619 295.172C221.619 293.779 222.785 292.65 224.223 292.65C225.662 292.65 226.828 293.779 226.828 295.172Z" fill="black"/>
<path d="M201.892 295.172C201.892 296.565 200.726 297.695 199.288 297.695C197.849 297.695 196.683 296.565 196.683 295.172C196.683 293.779 197.849 292.65 199.288 292.65C200.726 292.65 201.892 293.779 201.892 295.172Z" fill="black"/>
<path d="M226.401 304.848C226.401 306.013 225.426 306.957 224.223 306.957C223.021 306.957 222.046 306.013 222.046 304.848C222.046 303.683 223.021 302.739 224.223 302.739C225.426 302.739 226.401 303.683 226.401 304.848Z" fill="black"/>
<path d="M201.465 304.848C201.465 306.013 200.49 306.957 199.288 306.957C198.085 306.957 197.11 306.013 197.11 304.848C197.11 303.683 198.085 302.739 199.288 302.739C200.49 302.739 201.465 303.683 201.465 304.848Z" fill="black"/>
<path d="M225.974 313.697C225.974 314.633 225.19 315.392 224.223 315.392C223.257 315.392 222.473 314.633 222.473 313.697C222.473 312.76 223.257 312.001 224.223 312.001C225.19 312.001 225.974 312.76 225.974 313.697Z" fill="black"/>
<path d="M201.038 313.697C201.038 314.633 200.255 315.392 199.288 315.392C198.321 315.392 197.537 314.633 197.537 313.697C197.537 312.76 198.321 312.001 199.288 312.001C200.255 312.001 201.038 312.76 201.038 313.697Z" fill="black"/>
<path d="M225.547 321.718C225.547 322.426 224.954 323 224.223 323C223.492 323 222.9 322.426 222.9 321.718C222.9 321.01 223.492 320.436 224.223 320.436C224.954 320.436 225.547 321.01 225.547 321.718Z" fill="black"/>
<path d="M200.611 321.718C200.611 322.426 200.019 323 199.288 323C198.557 323 197.964 322.426 197.964 321.718C197.964 321.01 198.557 320.436 199.288 320.436C200.019 320.436 200.611 321.01 200.611 321.718Z" fill="black"/>
<path d="M252.959 319.361C252.959 317.352 251.277 315.723 249.202 315.723C247.127 315.723 245.444 317.352 245.444 319.361C245.444 321.371 247.127 323 249.202 323C251.277 323 252.959 321.371 252.959 319.361Z" fill="#3432CA"/>
<path d="M252.532 307.536C252.532 305.754 251.041 304.31 249.202 304.31C247.362 304.31 245.871 305.754 245.871 307.536C245.871 309.317 247.362 310.761 249.202 310.761C251.041 310.761 252.532 309.317 252.532 307.536Z" fill="#3432CA"/>
<path d="M252.191 296.33C252.191 294.709 250.833 293.394 249.159 293.394C247.485 293.394 246.127 294.709 246.127 296.33C246.127 297.952 247.485 299.266 249.159 299.266C250.833 299.266 252.191 297.952 252.191 296.33Z" fill="#3432CA"/>
<path d="M251.764 285.828C251.764 284.435 250.598 283.305 249.159 283.305C247.721 283.305 246.554 284.435 246.554 285.828C246.554 287.221 247.721 288.35 249.159 288.35C250.598 288.35 251.764 287.221 251.764 285.828Z" fill="#3432CA"/>
<path d="M251.337 276.152C251.337 274.987 250.362 274.043 249.159 274.043C247.956 274.043 246.981 274.987 246.981 276.152C246.981 277.317 247.956 278.261 249.159 278.261C250.362 278.261 251.337 277.317 251.337 276.152Z" fill="#3432CA"/>
<path d="M250.91 267.303C250.91 266.367 250.126 265.608 249.159 265.608C248.192 265.608 247.408 266.367 247.408 267.303C247.408 268.24 248.192 268.999 249.159 268.999C250.126 268.999 250.91 268.24 250.91 267.303Z" fill="#3432CA"/>
<path d="M250.483 259.282C250.483 258.574 249.89 258 249.159 258C248.428 258 247.835 258.574 247.835 259.282C247.835 259.99 248.428 260.564 249.159 260.564C249.89 260.564 250.483 259.99 250.483 259.282Z" fill="#3432CA"/>
<path d="M265 307.536C265 305.754 263.509 304.31 261.67 304.31C259.83 304.31 258.339 305.754 258.339 307.536C258.339 309.317 259.83 310.761 261.67 310.761C263.509 310.761 265 309.317 265 307.536Z" fill="#3432CA"/>
<path d="M240.064 307.536C240.064 305.754 238.573 304.31 236.734 304.31C234.895 304.31 233.403 305.754 233.403 307.536C233.403 309.317 234.895 310.761 236.734 310.761C238.573 310.761 240.064 309.317 240.064 307.536Z" fill="#3432CA"/>
<path d="M264.658 296.33C264.658 294.709 263.301 293.394 261.627 293.394C259.953 293.394 258.595 294.709 258.595 296.33C258.595 297.952 259.953 299.266 261.627 299.266C263.301 299.266 264.658 297.952 264.658 296.33Z" fill="#3432CA"/>
<path d="M239.723 296.33C239.723 294.709 238.365 293.394 236.691 293.394C235.017 293.394 233.66 294.709 233.66 296.33C233.66 297.952 235.017 299.266 236.691 299.266C238.365 299.266 239.723 297.952 239.723 296.33Z" fill="#3432CA"/>
<path d="M264.231 285.828C264.231 284.435 263.065 283.305 261.627 283.305C260.188 283.305 259.022 284.435 259.022 285.828C259.022 287.221 260.188 288.35 261.627 288.35C263.065 288.35 264.231 287.221 264.231 285.828Z" fill="#3432CA"/>
<path d="M239.296 285.828C239.296 284.435 238.13 283.305 236.691 283.305C235.253 283.305 234.087 284.435 234.087 285.828C234.087 287.221 235.253 288.35 236.691 288.35C238.13 288.35 239.296 287.221 239.296 285.828Z" fill="#3432CA"/>
<path d="M263.804 276.152C263.804 274.987 262.83 274.043 261.627 274.043C260.424 274.043 259.449 274.987 259.449 276.152C259.449 277.317 260.424 278.261 261.627 278.261C262.83 278.261 263.804 277.317 263.804 276.152Z" fill="#3432CA"/>
<path d="M238.869 276.152C238.869 274.987 237.894 274.043 236.691 274.043C235.489 274.043 234.514 274.987 234.514 276.152C234.514 277.317 235.489 278.261 236.691 278.261C237.894 278.261 238.869 277.317 238.869 276.152Z" fill="#3432CA"/>
<path d="M263.377 267.303C263.377 266.367 262.594 265.608 261.627 265.608C260.66 265.608 259.876 266.367 259.876 267.303C259.876 268.24 260.66 268.999 261.627 268.999C262.594 268.999 263.377 268.24 263.377 267.303Z" fill="#3432CA"/>
<path d="M238.442 267.303C238.442 266.367 237.658 265.608 236.691 265.608C235.724 265.608 234.941 266.367 234.941 267.303C234.941 268.24 235.724 268.999 236.691 268.999C237.658 268.999 238.442 268.24 238.442 267.303Z" fill="#3432CA"/>
<path d="M262.95 259.282C262.95 258.574 262.358 258 261.627 258C260.896 258 260.303 258.574 260.303 259.282C260.303 259.99 260.896 260.564 261.627 260.564C262.358 260.564 262.95 259.99 262.95 259.282Z" fill="#3432CA"/>
<path d="M238.015 259.282C238.015 258.574 237.422 258 236.691 258C235.96 258 235.368 258.574 235.368 259.282C235.368 259.99 235.96 260.564 236.691 260.564C237.422 260.564 238.015 259.99 238.015 259.282Z" fill="#3432CA"/>
<g filter="url(#filter0_d_408_1981)">
<circle cx="130" cy="209" r="18" fill="white"/>
</g>
<g filter="url(#filter1_d_408_1981)">
<circle cx="135" cy="372" r="18" fill="white"/>
</g>
<g filter="url(#filter2_d_408_1981)">
<circle cx="103" cy="290" r="18" fill="white"/>
</g>
<g filter="url(#filter3_d_408_1981)">
<circle cx="227" cy="419" r="18" fill="white"/>
</g>
<g filter="url(#filter4_d_408_1981)">
<circle cx="227" cy="163" r="18" fill="white"/>
</g>
<g filter="url(#filter5_d_408_1981)">
<circle cx="326" cy="209" r="18" fill="white"/>
</g>
<g filter="url(#filter6_d_408_1981)">
<circle cx="323" cy="372" r="18" fill="white"/>
</g>
<g filter="url(#filter7_d_408_1981)">
<circle cx="357" cy="290" r="18" fill="white"/>
</g>
<defs>
<filter id="filter0_d_408_1981" x="107" y="190" width="46" height="46" filterUnits="userSpaceOnUse" color-interpolation-filters="sRGB">
<feFlood flood-opacity="0" result="BackgroundImageFix"/>
<feColorMatrix in="SourceAlpha" type="matrix" values="0 0 0 0 0 0 0 0 0 0 0 0 0 0 0 0 0 0 127 0" result="hardAlpha"/>
<feOffset dy="4"/>
<feGaussianBlur stdDeviation="2.5"/>
<feComposite in2="hardAlpha" operator="out"/>
<feColorMatrix type="matrix" values="0 0 0 0 0.28717 0 0 0 0 0.355303 0 0 0 0 0.579167 0 0 0 0.14 0"/>
<feBlend mode="normal" in2="BackgroundImageFix" result="effect1_dropShadow_408_1981"/>
<feBlend mode="normal" in="SourceGraphic" in2="effect1_dropShadow_408_1981" result="shape"/>
</filter>
<filter id="filter1_d_408_1981" x="112" y="353" width="46" height="46" filterUnits="userSpaceOnUse" color-interpolation-filters="sRGB">
<feFlood flood-opacity="0" result="BackgroundImageFix"/>
<feColorMatrix in="SourceAlpha" type="matrix" values="0 0 0 0 0 0 0 0 0 0 0 0 0 0 0 0 0 0 127 0" result="hardAlpha"/>
<feOffset dy="4"/>
<feGaussianBlur stdDeviation="2.5"/>
<feComposite in2="hardAlpha" operator="out"/>
<feColorMatrix type="matrix" values="0 0 0 0 0.28717 0 0 0 0 0.355303 0 0 0 0 0.579167 0 0 0 0.14 0"/>
<feBlend mode="normal" in2="BackgroundImageFix" result="effect1_dropShadow_408_1981"/>
<feBlend mode="normal" in="SourceGraphic" in2="effect1_dropShadow_408_1981" result="shape"/>
</filter>
<filter id="filter2_d_408_1981" x="80" y="271" width="46" height="46" filterUnits="userSpaceOnUse" color-interpolation-filters="sRGB">
<feFlood flood-opacity="0" result="BackgroundImageFix"/>
<feColorMatrix in="SourceAlpha" type="matrix" values="0 0 0 0 0 0 0 0 0 0 0 0 0 0 0 0 0 0 127 0" result="hardAlpha"/>
<feOffset dy="4"/>
<feGaussianBlur stdDeviation="2.5"/>
<feComposite in2="hardAlpha" operator="out"/>
<feColorMatrix type="matrix" values="0 0 0 0 0.28717 0 0 0 0 0.355303 0 0 0 0 0.579167 0 0 0 0.14 0"/>
<feBlend mode="normal" in2="BackgroundImageFix" result="effect1_dropShadow_408_1981"/>
<feBlend mode="normal" in="SourceGraphic" in2="effect1_dropShadow_408_1981" result="shape"/>
</filter>
<filter id="filter3_d_408_1981" x="204" y="400" width="46" height="46" filterUnits="userSpaceOnUse" color-interpolation-filters="sRGB">
<feFlood flood-opacity="0" result="BackgroundImageFix"/>
<feColorMatrix in="SourceAlpha" type="matrix" values="0 0 0 0 0 0 0 0 0 0 0 0 0 0 0 0 0 0 127 0" result="hardAlpha"/>
<feOffset dy="4"/>
<feGaussianBlur stdDeviation="2.5"/>
<feComposite in2="hardAlpha" operator="out"/>
<feColorMatrix type="matrix" values="0 0 0 0 0.28717 0 0 0 0 0.355303 0 0 0 0 0.579167 0 0 0 0.14 0"/>
<feBlend mode="normal" in2="BackgroundImageFix" result="effect1_dropShadow_408_1981"/>
<feBlend mode="normal" in="SourceGraphic" in2="effect1_dropShadow_408_1981" result="shape"/>
</filter>
<filter id="filter4_d_408_1981" x="204" y="144" width="46" height="46" filterUnits="userSpaceOnUse" color-interpolation-filters="sRGB">
<feFlood flood-opacity="0" result="BackgroundImageFix"/>
<feColorMatrix in="SourceAlpha" type="matrix" values="0 0 0 0 0 0 0 0 0 0 0 0 0 0 0 0 0 0 127 0" result="hardAlpha"/>
<feOffset dy="4"/>
<feGaussianBlur stdDeviation="2.5"/>
<feComposite in2="hardAlpha" operator="out"/>
<feColorMatrix type="matrix" values="0 0 0 0 0.28717 0 0 0 0 0.355303 0 0 0 0 0.579167 0 0 0 0.14 0"/>
<feBlend mode="normal" in2="BackgroundImageFix" result="effect1_dropShadow_408_1981"/>
<feBlend mode="normal" in="SourceGraphic" in2="effect1_dropShadow_408_1981" result="shape"/>
</filter>
<filter id="filter5_d_408_1981" x="303" y="190" width="46" height="46" filterUnits="userSpaceOnUse" color-interpolation-filters="sRGB">
<feFlood flood-opacity="0" result="BackgroundImageFix"/>
<feColorMatrix in="SourceAlpha" type="matrix" values="0 0 0 0 0 0 0 0 0 0 0 0 0 0 0 0 0 0 127 0" result="hardAlpha"/>
<feOffset dy="4"/>
<feGaussianBlur stdDeviation="2.5"/>
<feComposite in2="hardAlpha" operator="out"/>
<feColorMatrix type="matrix" values="0 0 0 0 0.28717 0 0 0 0 0.355303 0 0 0 0 0.579167 0 0 0 0.14 0"/>
<feBlend mode="normal" in2="BackgroundImageFix" result="effect1_dropShadow_408_1981"/>
<feBlend mode="normal" in="SourceGraphic" in2="effect1_dropShadow_408_1981" result="shape"/>
</filter>
<filter id="filter6_d_408_1981" x="300" y="353" width="46" height="46" filterUnits="userSpaceOnUse" color-interpolation-filters="sRGB">
<feFlood flood-opacity="0" result="BackgroundImageFix"/>
<feColorMatrix in="SourceAlpha" type="matrix" values="0 0 0 0 0 0 0 0 0 0 0 0 0 0 0 0 0 0 127 0" result="hardAlpha"/>
<feOffset dy="4"/>
<feGaussianBlur stdDeviation="2.5"/>
<feComposite in2="hardAlpha" operator="out"/>
<feColorMatrix type="matrix" values="0 0 0 0 0.28717 0 0 0 0 0.355303 0 0 0 0 0.579167 0 0 0 0.14 0"/>
<feBlend mode="normal" in2="BackgroundImageFix" result="effect1_dropShadow_408_1981"/>
<feBlend mode="normal" in="SourceGraphic" in2="effect1_dropShadow_408_1981" result="shape"/>
</filter>
<filter id="filter7_d_408_1981" x="334" y="271" width="46" height="46" filterUnits="userSpaceOnUse" color-interpolation-filters="sRGB">
<feFlood flood-opacity="0" result="BackgroundImageFix"/>
<feColorMatrix in="SourceAlpha" type="matrix" values="0 0 0 0 0 0 0 0 0 0 0 0 0 0 0 0 0 0 127 0" result="hardAlpha"/>
<feOffset dy="4"/>
<feGaussianBlur stdDeviation="2.5"/>
<feComposite in2="hardAlpha" operator="out"/>
<feColorMatrix type="matrix" values="0 0 0 0 0.28717 0 0 0 0 0.355303 0 0 0 0 0.579167 0 0 0 0.14 0"/>
<feBlend mode="normal" in2="BackgroundImageFix" result="effect1_dropShadow_408_1981"/>
<feBlend mode="normal" in="SourceGraphic" in2="effect1_dropShadow_408_1981" result="shape"/>
</filter>
<linearGradient id="paint0_linear_408_1981" x1="27.1776" y1="360" x2="433.332" y2="360" gradientUnits="userSpaceOnUse">
<stop/>
<stop offset="1" stop-color="#3432CA"/>
</linearGradient>
</defs>
</svg>
